<svg xmlns="http://www.w3.org/2000/svg" width="50" height="50" viewBox="0 0 50 50" fill="none"><path d="M22.2568 0.26915C19.8126 1.28054 2.05298 9.2513 2.12522 9.3115C2.17338 9.3717 4.00352 10.2025 6.18284 11.1778C9.81904 12.7912 10.1803 12.9236 10.5053 12.8032C11.7455 12.3457 31.3834 3.56822 31.3112 3.50802C31.263 3.4719 29.6014 2.71335 27.6148 1.8344C24.5083 0.449756 23.9063 0.220988 23.2802 0.184867C22.8829 0.172827 22.4254 0.208948 22.2568 0.26915Z" fill="white"></path><path d="M24.4851 9.41992C18.9946 11.8641 14.2507 13.9832 13.9617 14.1157L13.4199 14.3806L18.2842 16.5358L23.1365 18.691L33.6237 14.0434C39.3911 11.4909 44.1471 9.35972 44.1952 9.31156C44.2795 9.23932 35.0927 5.09742 34.6592 5.01313C34.5629 5.00109 29.9875 6.97572 24.4851 9.41992Z" fill="white"></path><path d="M0.00722425 24.2536L0.0433455 37.173L0.308235 37.6787C0.46476 37.9556 0.75373 38.3168 0.970457 38.4854C1.28351 38.7141 21.6198 47.8287 21.8365 47.8287C21.8726 47.8287 21.8967 41.7844 21.8967 34.4037V20.9907L21.5716 20.8101C20.8251 20.4368 0.235992 11.3463 0.115588 11.3463C0.0192647 11.3463 -0.0168566 14.838 0.00722425 24.2536Z" fill="white"></path><path d="M35.1779 16.1505L24.4258 20.9185L24.4378 28.9855C24.4499 34.0907 24.498 36.7877 24.5582 36.3302C25.0278 33.0913 26.4606 30.3461 28.8687 28.0464C32.4447 24.639 37.4053 23.3747 42.2456 24.651C42.8958 24.8196 44.0035 25.253 44.8102 25.6503L46.2189 26.3607V18.8475C46.2189 12.9236 46.1828 11.3463 46.0744 11.3584C45.9902 11.3704 41.0777 13.5257 35.1779 16.1505Z" fill="white"></path><path d="M36.3445 26.9266C28.2173 28.6364 24.4005 37.7871 28.9397 44.6381C31.9618 49.2014 37.8014 51.0315 42.8704 48.9846C45.6157 47.8769 47.9635 45.5892 49.1194 42.8922C49.878 41.1102 50.0104 40.436 49.9984 38.1964C49.9984 36.3783 49.9622 36.1134 49.6612 35.1261C48.4211 31.0565 45.4471 28.1547 41.4015 27.0591C40.354 26.7821 37.4282 26.7099 36.3445 26.9266ZM44.5079 34.7649C44.9655 35.1502 45.0859 35.6318 44.8571 36.1616C44.7487 36.4024 43.2317 38.0038 41.257 39.9664C37.9941 43.2173 37.8135 43.3738 37.3921 43.3738C37.1392 43.3738 36.79 43.3016 36.6094 43.2052C36.0435 42.9163 32.8528 39.5811 32.8287 39.268C32.7565 38.1603 33.2983 37.6185 34.394 37.6907C34.5746 37.7028 35.1525 38.1844 35.9954 39.0031L37.3198 40.2915L40.2336 37.3777C43.1112 34.5121 43.1715 34.4639 43.6531 34.4639C44.0143 34.4639 44.2551 34.5482 44.5079 34.7649Z" fill="white"></path><path d="M24.4377 43.6627C24.4257 46.9738 24.4618 47.8407 24.5822 47.7926C25.6899 47.3471 27.0746 46.6848 27.0746 46.6006C27.0746 46.5404 26.9181 46.2634 26.7254 45.9865C25.7863 44.6019 24.8953 42.2901 24.6183 40.5081C24.4618 39.5088 24.4498 39.6653 24.4377 43.6627Z" fill="white"></path></svg>