<svg xmlns="http://www.w3.org/2000/svg" width="68" height="68" viewBox="0 0 68 68" fill="none"><path d="M55.0614 14.1667H42.5425V1.66033L55.0614 14.1667ZM63.9897 67.932L55.2287 59.1798C52.4464 61.1575 49.0544 62.3333 45.3787 62.3333C35.9796 62.3333 28.3617 54.723 28.3617 45.3333C28.3617 35.9437 35.9796 28.3333 45.3787 28.3333C54.7778 28.3333 62.3957 35.9437 62.3957 45.3333C62.3957 49.0053 61.2187 52.394 59.2391 55.1735L68 63.9257L63.9897 67.932ZM47.5115 52.2438L57.7416 41.7718L53.7766 37.7202L43.5267 48.212L37.2417 41.6925L33.308 45.7753L39.4965 52.2013C41.669 54.3688 45.3929 54.3632 47.503 52.2552L47.5115 52.2438ZM24.3599 53.8305H11.3447V48.1638H22.8851C22.7688 47.2345 22.6894 46.291 22.6894 45.3305C22.6894 44.37 22.7688 43.4265 22.8851 42.4972H11.3447V36.8305H24.3599C25.1965 34.7735 26.3225 32.8695 27.6952 31.1638H11.3447V25.4972H34.4198C37.6728 23.6952 41.4052 22.6638 45.3787 22.6638C49.5138 22.6638 53.3824 23.7915 56.7234 25.7295V19.8305H36.8702V0H8.50851C3.80898 0 0 3.80517 0 8.5V68H45.3787C35.8775 68 27.7349 62.1265 24.3599 53.8305Z" fill="#477BFF"></path></svg>