<svg xmlns="http://www.w3.org/2000/svg" width="60" height="60" viewBox="0 0 60 60" fill="none"><g clip-path="url(#clip0_495_142)"><path d="M50.6849 0H10.137C4.54644 0 0 4.54849 0 10.1416V40.5662C0 46.1593 4.54644 50.7078 10.137 50.7078H17.5446L27.0429 58.7095C28.011 59.5715 29.2275 60 30.4338 60C31.6173 60 32.7931 59.5867 33.708 58.7703L43.4573 50.7078H50.6849C56.2755 50.7078 60.8219 46.1593 60.8219 40.5662V10.1416C60.8219 4.54849 56.2755 0 50.6849 0ZM43.0822 32.9601C43.0822 34.3621 41.9468 35.4955 40.5479 35.4955C39.149 35.4955 38.0137 34.3621 38.0137 32.9601V23.9341L24.5974 37.293C24.1032 37.7849 23.4545 38.0308 22.8082 38.0308C22.1569 38.0308 21.5082 37.7798 21.0114 37.2829C20.0231 36.289 20.0281 34.6867 21.019 33.6979L34.4936 20.2831H25.3425C23.9436 20.2831 22.8082 19.1498 22.8082 17.7477C22.8082 16.3457 23.9436 15.2123 25.3425 15.2123H35.4795C39.6711 15.2123 43.0822 18.625 43.0822 22.8185V32.9601Z" fill="#477BFF"></path></g><defs><clipPath id="clip0_495_142"><rect width="60" height="60" fill="white"></rect></clipPath></defs></svg>