<svg xmlns="http://www.w3.org/2000/svg" width="60" height="60" viewBox="0 0 60 60" fill="none"><path d="M51.7598 53.75V60H7.20303V53.75C7.20303 47.5475 12.2008 42.4999 18.3422 42.4999H40.6206C46.7621 42.4999 51.7598 47.5475 51.7598 53.75ZM16.7877 10.0673C20.5726 6.4848 25.5283 4.71479 30.7241 5.03979C40.4375 5.6748 48.0492 14.2123 48.0492 24.4749C48.0492 28.8999 44.4872 32.4974 40.1058 32.4974H34.15C33.546 30.4249 31.6697 28.8999 29.422 28.8999C26.6867 28.8999 24.4713 31.1374 24.4713 33.8999C24.4713 36.6624 26.6867 38.8999 29.422 38.8999C30.7538 38.8999 31.9593 38.3624 32.8479 37.4974H40.1058C47.215 37.4974 53 31.6549 53 24.4749C52.9975 11.5848 43.3535 0.854777 31.0409 0.0522744C24.4465 -0.380227 18.1912 1.88228 13.4014 6.4223C8.97788 10.6098 6.31932 16.4123 6 22.5024H10.9582C11.2627 17.7448 13.3048 13.3648 16.7877 10.0673ZM37.1551 27.4999H40.5414C41.7816 27.4999 42.8658 26.5799 43.0094 25.3349C43.1777 23.8674 43.1158 22.3299 42.7841 20.7574C41.6851 15.5598 37.5091 11.3673 32.3554 10.2973C23.5999 8.47981 15.8718 15.2223 15.8718 23.7499C15.8718 27.4224 17.3051 30.7624 19.6344 33.2299C19.9067 27.9524 24.1916 23.7474 29.4839 23.7474C32.5979 23.7474 35.3407 25.2274 37.1551 27.4974V27.4999Z" fill="#477BFF"></path></svg>