<svg xmlns="http://www.w3.org/2000/svg" width="78" height="50" viewBox="0 0 78 50" fill="none"><path d="M11.9331 0.427046C11.54 0.653843 11.1015 1.0016 10.9352 1.21328C10.784 1.42495 8.2892 5.68874 5.40132 10.6934C-0.344204 20.6573 -0.313964 20.5817 0.230349 21.9728C0.593224 22.9253 1.24338 23.4696 3.58694 24.8153C5.80956 26.0854 6.50507 26.297 7.56345 26.0098C8.8184 25.6771 9.06031 25.3142 14.7 15.5468C19.5686 7.11 20.0373 6.23305 20.0978 5.49218C20.1885 4.47915 19.8559 3.55685 19.1755 2.92181C18.6916 2.46822 15.5769 0.623604 14.6093 0.215369C13.7626 -0.132386 12.7495 -0.0567873 11.9331 0.427046Z" fill="white"></path><path d="M62.6591 0.290991C61.3891 0.865544 58.4105 2.72528 58.0325 3.16375C57.5033 3.79879 57.2765 4.58502 57.3521 5.52244C57.4125 6.23307 57.9266 7.20074 62.7498 15.5469C65.668 20.612 68.2534 24.9514 68.4802 25.1782C69.2816 25.9795 70.4307 26.3122 71.4588 26.0249C72.3811 25.7679 76.0099 23.6208 76.5693 22.9858C77.2346 22.2601 77.4916 21.489 77.3858 20.5364C77.3102 19.9165 76.4635 18.3592 72.1241 10.8446C69.2967 5.91556 66.8019 1.65177 66.6054 1.34938C65.7889 0.154913 64.0199 -0.313801 62.6591 0.290991Z" fill="white"></path><path d="M23.909 4.97795C23.3798 5.06867 23.3798 5.08379 23.2891 6.0061C23.2438 6.50505 23.1077 7.15521 23.0018 7.44248C22.8355 7.8356 17.9367 16.4539 14.0509 23.1368L13.2949 24.422L14.1265 23.5602C15.6083 22.0331 17.1656 21.3225 19.0556 21.3225C21.0211 21.3225 22.775 22.1238 24.1963 23.6812C24.9221 24.4825 24.9674 24.4976 25.7536 24.4976C27.4168 24.4976 28.8834 25.1327 30.3047 26.4481C31.4387 27.5216 32.0132 28.5044 32.3005 29.8954C32.4215 30.4548 32.5878 30.9387 32.6785 30.9689C32.7692 30.9991 33.2379 31.3015 33.7369 31.6342C35.2186 32.617 36.2468 34.1289 36.5945 35.8526C36.7609 36.6539 36.8062 36.7144 37.7436 37.3192C38.9683 38.1357 39.8453 39.1336 40.4501 40.3734C40.8886 41.2957 40.9188 41.462 40.9188 43.0194C40.9188 44.6674 40.9037 44.7279 40.3291 45.8921L39.7395 47.0866L40.3291 47.5856C41.6294 48.6893 43.338 48.8556 44.7139 47.9938C46.12 47.132 46.6946 45.1513 45.9839 43.5788L45.6815 42.9287L46.3166 43.473C46.6794 43.7754 47.3145 44.1231 47.7832 44.2592C50.6257 45.0757 53.1205 42.082 51.8655 39.3302L51.5631 38.6498L52.4552 39.4965C53.8614 40.8421 54.9197 41.2504 56.2805 40.9631C57.2331 40.7514 58.1856 40.0408 58.6392 39.179C59.0928 38.3171 59.1079 36.9563 58.6846 36.0189L58.3973 35.3839L58.9567 35.8224C59.9244 36.5783 60.9828 36.7749 62.2377 36.4271C63.16 36.1701 64.3394 34.9 64.5813 33.887C64.9744 32.2541 64.4603 31.1655 62.5704 29.5325C61.7993 28.8672 58.1856 25.7526 54.5266 22.6076C50.8676 19.4627 47.7378 16.7714 47.5715 16.6202C47.2691 16.348 47.1784 16.3783 43.716 17.7542C32.7239 22.1238 32.8297 22.0936 31.0607 21.7761C26.7818 21.0352 24.4382 16.4992 26.3282 12.6135C26.9783 11.2678 27.946 10.4664 31.8469 8.01703C33.752 6.80745 35.2186 5.80954 35.0977 5.79442C34.9767 5.76418 33.1926 5.55251 31.1363 5.29547C27.5983 4.87212 25.1488 4.75116 23.909 4.97795Z" fill="white"></path><path d="M42.9748 6.21786C41.7652 6.36906 40.1172 6.86801 39.1041 7.36696C37.8794 7.98687 30.38 12.7194 29.8508 13.2032C28.3237 14.6245 28.7017 17.2704 30.5463 18.2532C31.892 18.9639 32.0281 18.9185 40.2532 15.6526C44.3356 14.0348 47.7375 12.7043 47.8131 12.7043C47.8887 12.7043 51.2302 15.5014 55.237 18.9336C59.2588 22.3507 62.6457 25.2537 62.7817 25.3595C63.0085 25.541 63.0993 25.5107 63.5831 25.1025C63.8855 24.8303 64.1274 24.5582 64.1274 24.4977C64.1274 24.4372 62.0106 20.7178 59.4251 16.2272C56.8397 11.7517 54.617 7.80544 54.4961 7.45768C54.2844 6.86801 54.2088 6.79241 53.4982 6.58073C53.0597 6.45977 52.1979 6.29346 51.578 6.20274C50.2172 6.03642 44.3507 6.03642 42.9748 6.21786Z" fill="white"></path><path d="M17.9355 24.7245C17.1493 25.0269 16.8469 25.3293 14.3067 28.3532C11.5549 31.6342 11.3433 32.0425 11.6759 33.5998C11.8271 34.25 12.0085 34.5372 12.7041 35.2479C13.3844 35.9283 13.702 36.1248 14.3521 36.276C15.3047 36.5179 16.0455 36.397 16.9074 35.898L17.5273 35.5352L17.2854 36.0341C16.8771 36.8203 16.9678 38.2114 17.4517 39.0581C18.4345 40.7364 20.7175 41.4319 22.2144 40.5247C22.4866 40.3584 22.7285 40.2223 22.7587 40.2223C22.789 40.2223 22.7285 40.4793 22.6075 40.7817C21.9574 42.6415 23.167 44.8338 25.1628 45.3781C25.949 45.5898 27.2493 45.363 27.8843 44.9094C28.3682 44.5466 28.3682 44.5466 28.0506 45.3025C27.6727 46.1946 27.8239 47.4647 28.3833 48.2811C29.6382 50.0653 31.8306 50.534 33.4031 49.3395C33.9776 48.9011 37.1225 45.1967 37.4703 44.5466C37.5912 44.3046 37.7273 43.7301 37.7727 43.2614C37.8332 42.5507 37.7727 42.2937 37.4098 41.5831C36.4573 39.7233 34.4463 39.0127 32.6622 39.8897L32.0574 40.1921L32.4505 39.7082C33.4787 38.4533 33.7659 37.0471 33.2519 35.8375C32.9797 35.1874 32.0574 34.2802 31.3165 33.9173C30.5152 33.5242 29.1242 33.5545 28.3833 33.9929L27.7936 34.3407L28.0355 33.9929C29.0334 32.6322 29.109 32.4658 29.1695 31.604C29.2754 30.0769 28.6857 29.0034 27.2493 28.1567C26.6899 27.8392 26.3724 27.7485 25.6466 27.7485C24.4975 27.7636 23.7113 28.1567 22.8646 29.1395L22.2598 29.8501L22.4714 29.2604C23.0762 27.567 22.2749 25.7526 20.5512 24.8606C19.886 24.5128 18.6461 24.4523 17.9355 24.7245Z" fill="white"></path></svg>