<svg xmlns="http://www.w3.org/2000/svg" width="50" height="50" viewBox="0 0 50 50" fill="none"><path d="M16.5925 0C13.806 0.003308 11.1346 1.10183 9.16418 3.05459C7.1938 5.00736 6.08537 7.65493 6.08203 10.4166V47.9162C6.08233 48.2951 6.1869 48.6668 6.38448 48.9912C6.58207 49.3156 6.86519 49.5804 7.20337 49.7572C7.54155 49.934 7.92198 50.016 8.3037 49.9945C8.68543 49.9729 9.05399 49.8486 9.36972 49.6349L13.7967 46.637L18.2238 49.6349C18.5735 49.8723 18.9875 49.9993 19.4115 49.9993C19.8354 49.9993 20.2494 49.8723 20.5991 49.6349L25.0136 46.637L29.428 49.6349C29.778 49.8727 30.1924 50 30.6167 50C31.0411 50 31.4555 49.8727 31.8055 49.6349L36.2199 46.6391L40.6343 49.6328C40.9498 49.8459 41.318 49.9697 41.6992 49.9911C42.0804 50.0124 42.4603 49.9304 42.7981 49.7539C43.1359 49.5775 43.4187 49.3132 43.6164 48.9894C43.814 48.6656 43.9189 48.2946 43.9199 47.9162V10.4166C43.9165 7.65493 42.8081 5.00736 40.8377 3.05459C38.8673 1.10183 36.1959 0.003308 33.4094 0L16.5925 0ZM29.2052 29.1664H16.5925C16.035 29.1664 15.5004 28.9469 15.1061 28.5562C14.7119 28.1655 14.4904 27.6356 14.4904 27.083C14.4904 26.5305 14.7119 26.0006 15.1061 25.6099C15.5004 25.2192 16.035 24.9997 16.5925 24.9997H29.2052C29.7627 24.9997 30.2973 25.2192 30.6916 25.6099C31.0858 26.0006 31.3073 26.5305 31.3073 27.083C31.3073 27.6356 31.0858 28.1655 30.6916 28.5562C30.2973 28.9469 29.7627 29.1664 29.2052 29.1664ZM35.5115 18.7498C35.5115 19.3023 35.29 19.8322 34.8958 20.2229C34.5015 20.6136 33.9669 20.8331 33.4094 20.8331H16.5925C16.035 20.8331 15.5004 20.6136 15.1061 20.2229C14.7119 19.8322 14.4904 19.3023 14.4904 18.7498C14.4904 18.1973 14.7119 17.6674 15.1061 17.2767C15.5004 16.886 16.035 16.6665 16.5925 16.6665H33.4094C33.9669 16.6665 34.5015 16.886 34.8958 17.2767C35.29 17.6674 35.5115 18.1973 35.5115 18.7498Z" fill="white"></path></svg>