<svg xmlns="http://www.w3.org/2000/svg" width="60" height="60" viewBox="0 0 60 60" fill="none"><g clip-path="url(#clip0_495_143)"><path d="M27.5 0H7.5C5.51088 0 3.60322 0.790176 2.1967 2.1967C0.790176 3.60322 0 5.51088 0 7.5L0 60H35V7.5C35 5.51088 34.2098 3.60322 32.8033 2.1967C31.3968 0.790176 29.4891 0 27.5 0ZM15 47.5H7.5V42.5H15V47.5ZM15 37.5H7.5V32.5H15V37.5ZM15 27.5H7.5V22.5H15V27.5ZM15 17.5H7.5V12.5H15V17.5ZM27.5 47.5H20V42.5H27.5V47.5ZM27.5 37.5H20V32.5H27.5V37.5ZM27.5 27.5H20V22.5H27.5V27.5ZM27.5 17.5H20V12.5H27.5V17.5ZM52.5 12.5H40V60H60V20C60 18.0109 59.2098 16.1032 57.8033 14.6967C56.3968 13.2902 54.4891 12.5 52.5 12.5ZM52.5 47.5H47.5V42.5H52.5V47.5ZM52.5 37.5H47.5V32.5H52.5V37.5ZM52.5 27.5H47.5V22.5H52.5V27.5Z" fill="#477BFF"></path></g><defs><clipPath id="clip0_495_143"><rect width="60" height="60" fill="white"></rect></clipPath></defs></svg>