<svg xmlns="http://www.w3.org/2000/svg" width="50" height="50" viewBox="0 0 50 50" fill="none"><path d="M25.5386 44.4333C23.8989 42.1937 22.9176 39.4417 22.9176 36.4583C22.9176 28.9917 28.9929 22.9167 36.4599 22.9167C39.4433 22.9167 42.1934 23.8979 44.4352 25.5375L25.5386 44.4333ZM28.4845 47.3792C30.7242 49.0187 33.4764 50 36.4578 50C43.9247 50 50 43.925 50 36.4583C50 33.475 49.0187 30.725 47.3791 28.4833L28.4845 47.3771V47.3792ZM24.999 22.9167V12.5C24.999 5.60833 19.3904 0 12.4984 0C5.60648 0 0 5.60833 0 12.5V22.9167H25.001H24.999ZM18.7487 36.4583C18.7487 33.0104 19.7487 29.8042 21.453 27.0833H0V37.5C0 44.3917 5.60857 50 12.5005 50C16.0819 50 19.3091 48.4771 21.5905 46.0542C19.8008 43.2875 18.7508 39.9979 18.7508 36.4583H18.7487Z" fill="white"></path></svg>