<svg xmlns="http://www.w3.org/2000/svg" width="60" height="60" viewBox="0 0 60 60" fill="none"><path d="M49.86 6.5825L30 0L10.14 6.5825C8.64368 7.07854 7.34171 8.03345 6.419 9.31158C5.4963 10.5897 4.99979 12.1261 5 13.7025V29.9775C5 48.7875 28 59.175 28.985 59.6075L29.87 60L30.79 59.695C31.78 59.365 55 51.42 55 29.9775V13.7025C55.0002 12.1261 54.5037 10.5897 53.581 9.31158C52.6583 8.03345 51.3563 7.07854 49.86 6.5825ZM31.11 34.95C30.673 35.39 30.1529 35.7387 29.5799 35.9761C29.007 36.2134 28.3926 36.3345 27.7725 36.3325H27.69C27.0572 36.3228 26.433 36.1849 25.855 35.9271C25.2771 35.6692 24.7574 35.2969 24.3275 34.8325L18.5625 28.8325L22.17 25.3775L27.78 31.2275L40.7325 18.275L44.2675 21.81L31.11 34.95Z" fill="#477BFF"></path></svg>