<svg xmlns="http://www.w3.org/2000/svg" width="58" height="68" viewBox="0 0 58 68" fill="none"><path d="M47.3275 6.06392L29.4452 0.14518C28.8597 -0.0483934 28.2267 -0.0483934 27.6412 0.14518L9.75893 6.06392C6.91575 7.0014 4.44251 8.80444 2.69061 11.2169C0.938712 13.6293 -0.00274493 16.5284 6.01153e-06 19.5022V34.0002C6.01153e-06 55.4283 26.2598 67.263 27.3844 67.756C27.7492 67.9169 28.144 68 28.5432 68C28.9424 68 29.3372 67.9169 29.7021 67.756C30.8267 67.263 57.0864 55.4283 57.0864 34.0002V19.5022C57.0892 16.5284 56.1477 13.6293 54.3958 11.2169C52.6439 8.80444 50.1707 7.0014 47.3275 6.06392ZM42.0099 27.5318L29.8162 39.6356C29.3173 40.1342 28.7235 40.5295 28.0693 40.7984C27.4152 41.0674 26.7137 41.2047 26.0057 41.2024H25.9115C25.1891 41.1914 24.4764 41.0351 23.8165 40.7429C23.1566 40.4507 22.5633 40.0287 22.0725 39.5024L15.4904 32.7025C15.2053 32.44 14.9773 32.1224 14.8204 31.7693C14.6634 31.4161 14.5808 31.0349 14.5775 30.6489C14.5743 30.263 14.6506 29.8804 14.8017 29.5247C14.9527 29.1691 15.1754 28.8478 15.4561 28.5806C15.7367 28.3135 16.0694 28.106 16.4337 27.9711C16.798 27.8361 17.1862 27.7764 17.5746 27.7958C17.963 27.8151 18.3432 27.913 18.6921 28.0834C19.041 28.2538 19.3511 28.4932 19.6035 28.7869L26.0086 35.4168L37.9625 23.517C38.5008 23.0009 39.2218 22.7153 39.9702 22.7218C40.7186 22.7282 41.4345 23.0262 41.9637 23.5515C42.4929 24.0768 42.7931 24.7874 42.7996 25.5303C42.8061 26.2732 42.5184 26.9889 41.9985 27.5233L42.0099 27.5318Z" fill="#477BFF"></path></svg>