<svg xmlns="http://www.w3.org/2000/svg" width="100" height="100" viewBox="0 0 100 100" fill="none"><path d="M65.8217 96.3061V11.9215C65.8217 9.88125 64.1678 8.22754 62.1275 8.22754H10.5377C8.49746 8.22754 6.84375 9.88145 6.84375 11.9215V96.3061C6.84375 98.3463 8.49766 100 10.5377 100H62.1277C64.1678 100 65.8217 98.3461 65.8217 96.3061Z" fill="#FFC250"></path><path d="M74.24 8.22754H61.877C63.9172 8.22754 65.5711 9.88145 65.5711 11.9215V96.3061C65.5711 98.3463 63.9172 100 61.877 100H74.24C76.2803 100 77.9342 98.3461 77.9342 96.3061V11.9217C77.9342 9.88144 76.2803 8.22754 74.24 8.22754Z" fill="#EAB14D"></path><path d="M12.8809 92.6417V15.5854C12.8809 15.2353 13.02 14.8995 13.2676 14.6518C13.5152 14.4042 13.851 14.2651 14.2012 14.2651H70.5746C70.9248 14.2651 71.2606 14.4042 71.5082 14.6518C71.7558 14.8995 71.8949 15.2353 71.8949 15.5854V92.6417C71.8949 92.9919 71.7558 93.3277 71.5082 93.5753C71.2606 93.8229 70.9248 93.962 70.5746 93.962H14.2012C13.851 93.962 13.5152 93.8229 13.2676 93.5753C13.02 93.3277 12.8809 92.9919 12.8809 92.6417Z" fill="#F5F5F5"></path><path d="M70.576 14.2651H58.2129C58.5631 14.2651 58.8989 14.4042 59.1465 14.6518C59.3941 14.8995 59.5332 15.2353 59.5332 15.5854V92.6417C59.5332 92.9919 59.3941 93.3277 59.1465 93.5753C58.8989 93.8229 58.5631 93.962 58.2129 93.962H70.576C70.9261 93.962 71.262 93.8229 71.5096 93.5753C71.7572 93.3277 71.8963 92.9919 71.8963 92.6417V15.5854C71.8963 15.2353 71.7572 14.8995 71.5096 14.6518C71.262 14.4042 70.9261 14.2651 70.576 14.2651Z" fill="#EAEAEA"></path><path d="M50.2361 4.59727V2.65254C50.2361 1.1877 49.0486 0 47.5836 0H37.1936C35.7285 0 34.541 1.1877 34.541 2.65254V4.59727C34.541 4.88496 34.4267 5.16088 34.2233 5.36431C34.0199 5.56774 33.7439 5.68203 33.4562 5.68203H29.132C27.6936 5.68203 26.5273 6.84824 26.5273 8.28672V14.2652H58.2498V8.28672C58.2498 6.84824 57.0836 5.68203 55.6451 5.68203H51.3209C51.0332 5.68203 50.7573 5.56774 50.5539 5.36431C50.3504 5.16088 50.2361 4.88496 50.2361 4.59727Z" fill="#C2D0DA"></path><path d="M20.5625 35.7016V24.073C20.5625 22.7848 21.607 21.7402 22.8953 21.7402H34.5238C35.8121 21.7402 36.8566 22.7848 36.8566 24.073V35.7016C36.8566 36.9898 35.8121 38.0344 34.5238 38.0344H22.8953C21.6068 38.0344 20.5625 36.9898 20.5625 35.7016ZM20.5625 59.9281V48.2996C20.5625 47.0113 21.607 45.9668 22.8953 45.9668H34.5238C35.8121 45.9668 36.8566 47.0113 36.8566 48.2996V59.9281C36.8566 61.2164 35.8121 62.2609 34.5238 62.2609H22.8953C21.6068 62.2609 20.5625 61.2164 20.5625 59.9281ZM20.5625 84.1545V72.526C20.5625 71.2377 21.607 70.1932 22.8953 70.1932H34.5238C35.8121 70.1932 36.8566 71.2377 36.8566 72.526V84.1545C36.8566 85.4428 35.8121 86.4873 34.5238 86.4873H22.8953C21.6068 86.4873 20.5625 85.443 20.5625 84.1545Z" fill="#66B49D"></path><path d="M27.7252 34.0517H27.7201C27.3905 34.0503 27.0658 33.9715 26.7722 33.8217C26.4786 33.6719 26.2242 33.4552 26.0297 33.189L24.2676 30.7691C24.0364 30.4454 23.9424 30.0434 24.006 29.6507C24.0696 29.258 24.2858 28.9063 24.6073 28.6721C24.9289 28.4379 25.33 28.3402 25.7233 28.4002C26.1166 28.4601 26.4703 28.673 26.7074 28.9924L27.7291 30.3957L30.7164 26.3371C30.9537 26.0148 31.3092 25.7999 31.7049 25.7398C32.1005 25.6797 32.5039 25.7791 32.8262 26.0164C32.9858 26.1339 33.1207 26.2816 33.2232 26.4512C33.3257 26.6209 33.3938 26.809 33.4236 27.0049C33.4533 27.2009 33.4442 27.4008 33.3968 27.5932C33.3493 27.7856 33.2644 27.9668 33.1469 28.1263L29.4141 33.1976C29.2188 33.462 28.9644 33.677 28.6711 33.8253C28.3778 33.9736 28.0539 34.0512 27.7252 34.0517ZM27.725 58.8055H27.7195C27.3899 58.804 27.0652 58.7252 26.7716 58.5753C26.478 58.4254 26.2237 58.2086 26.0293 57.9424L24.2676 55.5228C24.0364 55.1991 23.9424 54.7971 24.006 54.4044C24.0696 54.0117 24.2858 53.66 24.6073 53.4258C24.9289 53.1916 25.33 53.0939 25.7233 53.1539C26.1166 53.2138 26.4703 53.4267 26.7074 53.7461L27.7291 55.1494L30.7164 51.0908C30.956 50.7749 31.3104 50.566 31.7028 50.5092C32.0952 50.4525 32.4942 50.5524 32.8135 50.7875C33.1329 51.0226 33.3468 51.3739 33.4092 51.7654C33.4716 52.157 33.3774 52.5574 33.1469 52.8801L29.4141 57.9513C29.2189 58.2158 28.9644 58.4308 28.671 58.5791C28.3777 58.7275 28.0537 58.805 27.725 58.8055ZM27.725 82.5051L27.7199 82.5049C27.3904 82.5035 27.0657 82.4248 26.7721 82.275C26.4786 82.1252 26.2242 81.9086 26.0297 81.6426L24.2676 79.2222C24.032 78.8987 23.9346 78.4948 23.9969 78.0994C24.0591 77.7041 24.2758 77.3496 24.5994 77.114C24.923 76.8785 25.3269 76.7811 25.7222 76.8433C26.1176 76.9056 26.4721 77.1223 26.7076 77.4459L27.7291 78.849L30.7166 74.7904C30.9562 74.4745 31.3106 74.2656 31.703 74.2088C32.0954 74.1521 32.4944 74.252 32.8137 74.4871C33.1331 74.7222 33.347 75.0735 33.4094 75.465C33.4718 75.8566 33.3775 76.257 33.1471 76.5797L29.4143 81.651C29.2189 81.9153 28.9644 82.1303 28.671 82.2786C28.3777 82.4269 28.0537 82.5045 27.725 82.5051Z" fill="#F6F9F9"></path><path d="M63.0256 28.2431H44.3703C43.9701 28.2431 43.5863 28.0841 43.3033 27.8011C43.0203 27.5181 42.8613 27.1343 42.8613 26.7341C42.8613 26.3339 43.0203 25.9501 43.3033 25.6671C43.5863 25.3841 43.9701 25.2251 44.3703 25.2251H63.0256C63.4258 25.2251 63.8096 25.3841 64.0926 25.6671C64.3756 25.9501 64.5346 26.3339 64.5346 26.7341C64.5346 27.1343 64.3756 27.5181 64.0926 27.8011C63.8096 28.0841 63.4258 28.2431 63.0256 28.2431ZM53.698 34.5491H44.3705C43.9703 34.5491 43.5865 34.3901 43.3035 34.1071C43.0205 33.8242 42.8615 33.4403 42.8615 33.0401C42.8615 32.6399 43.0205 32.2561 43.3035 31.9731C43.5865 31.6901 43.9703 31.5312 44.3705 31.5312H53.698C54.0983 31.5312 54.4821 31.6901 54.7651 31.9731C55.048 32.2561 55.207 32.6399 55.207 33.0401C55.207 33.4403 55.048 33.8242 54.7651 34.1071C54.4821 34.3901 54.0983 34.5491 53.698 34.5491ZM56.8873 52.4696H44.3705C43.9703 52.4696 43.5865 52.3106 43.3035 52.0277C43.0205 51.7447 42.8615 51.3609 42.8615 50.9606C42.8615 50.5604 43.0205 50.1766 43.3035 49.8936C43.5865 49.6106 43.9703 49.4517 44.3705 49.4517H56.8873C57.2875 49.4517 57.6713 49.6106 57.9543 49.8936C58.2373 50.1766 58.3963 50.5604 58.3963 50.9606C58.3963 51.3609 58.2373 51.7447 57.9543 52.0277C57.6713 52.3106 57.2875 52.4696 56.8873 52.4696ZM53.698 58.7757H44.3705C44.1723 58.7757 43.9761 58.7367 43.793 58.6608C43.61 58.585 43.4436 58.4738 43.3035 58.3337C43.1634 58.1936 43.0522 58.0272 42.9764 57.8442C42.9006 57.6611 42.8615 57.4649 42.8615 57.2667C42.8615 57.0685 42.9006 56.8723 42.9764 56.6892C43.0522 56.5062 43.1634 56.3398 43.3035 56.1997C43.4436 56.0596 43.61 55.9484 43.793 55.8726C43.9761 55.7967 44.1723 55.7577 44.3705 55.7577H53.698C53.8962 55.7577 54.0924 55.7967 54.2755 55.8726C54.4586 55.9484 54.6249 56.0596 54.7651 56.1997C54.9052 56.3398 55.0163 56.5062 55.0922 56.6892C55.168 56.8723 55.207 57.0685 55.207 57.2667C55.207 57.4649 55.168 57.6611 55.0922 57.8442C55.0163 58.0272 54.9052 58.1936 54.7651 58.3337C54.6249 58.4738 54.4586 58.585 54.2755 58.6608C54.0924 58.7367 53.8962 58.7757 53.698 58.7757Z" fill="#DDEAFB"></path><path d="M87.2857 39.398L85.8041 37.4461L80.2602 33.9354L78.1291 33.5996L49.7414 78.4576C49.0565 79.5392 48.5539 80.7261 48.2539 81.9707C49.9475 81.9917 51.602 82.4826 53.033 83.3888C54.464 84.2949 55.6151 85.5807 56.3582 87.1027C57.3551 86.2994 58.2131 85.3377 58.898 84.2561L87.2857 39.398Z" fill="#FC8086"></path><path d="M91.2939 25.5841L88.8984 24.0672C87.0311 22.8845 84.5584 23.4402 83.3764 25.308L81.1797 28.7793L81.8805 30.192L88.5465 34.4133L90.3365 34.5777L92.5346 31.1043C93.7158 29.2375 93.1605 26.7662 91.2939 25.5841Z" fill="#8C9BA6"></path><path d="M78.1328 33.5865L81.1846 28.7666L90.3428 34.565L87.2912 39.385L78.1328 33.5865Z" fill="#C9E2E7"></path><path d="M56.36 87.1027L48.277 93.6164C47.1367 94.5353 45.4801 93.4863 45.8232 92.0627L48.2557 81.9707C49.9493 81.9916 51.6038 82.4825 53.0348 83.3886C54.4658 84.2948 55.617 85.5806 56.36 87.1027Z" fill="#7C8B96"></path><path d="M54.2393 84.3066L83.9969 37.3148L81.4471 35.7002L51.6895 82.692C52.6229 83.0853 53.4846 83.631 54.2393 84.3066Z" fill="#FB636F"></path></svg>