<svg xmlns="http://www.w3.org/2000/svg" width="93" height="93" viewBox="0 0 93 93" fill="none"><circle cx="46.5527" cy="46.6826" r="46" fill="white"></circle><circle cx="46.5527" cy="46.6826" r="36" fill="url(#paint0_linear_956_3145)"></circle><path d="M45.25 46.366C49.8063 46.366 53.5 42.6723 53.5 38.116C53.5 33.5596 49.8063 29.866 45.25 29.866C40.6937 29.866 37 33.5596 37 38.116C37 42.6723 40.6937 46.366 45.25 46.366Z" fill="white"></path><path fill-rule="evenodd" clip-rule="evenodd" d="M54.2505 48.907C52.8601 48.9473 51.5401 49.528 50.5709 50.5258C49.6017 51.5235 49.0596 52.8597 49.0596 54.2507C49.0596 55.6417 49.6017 56.9779 50.5709 57.9757C51.5401 58.9734 52.8601 59.5541 54.2505 59.5945C57.1995 59.5945 59.595 57.199 59.595 54.25C59.595 51.301 57.1995 48.907 54.2505 48.907ZM54.2505 51.157C55.9575 51.157 57.345 52.543 57.345 54.25C57.345 55.957 55.9575 57.3445 54.2505 57.3445C52.5435 57.3445 51.156 55.957 51.156 54.25C51.156 52.543 52.5435 51.157 54.2505 51.157Z" fill="white"></path><path fill-rule="evenodd" clip-rule="evenodd" d="M55.375 50.0305V47.5C55.375 47.2016 55.2565 46.9155 55.0455 46.7045C54.8345 46.4935 54.5484 46.375 54.25 46.375C53.9516 46.375 53.6655 46.4935 53.4545 46.7045C53.2435 46.9155 53.125 47.2016 53.125 47.5V50.032C53.1252 50.3304 53.2439 50.6164 53.455 50.8273C53.6662 51.0381 53.9524 51.1564 54.2507 51.1562C54.5491 51.1561 54.8352 51.0373 55.046 50.8262C55.2569 50.6151 55.3752 50.3289 55.375 50.0305ZM58.0285 52.063L59.818 50.272C60.0288 50.0612 60.1473 49.7752 60.1473 49.477C60.1473 49.1788 60.0288 48.8928 59.818 48.682C59.6072 48.4712 59.3212 48.3527 59.023 48.3527C58.7248 48.3527 58.4388 48.4712 58.228 48.682L56.437 50.4715C56.2266 50.6829 56.1085 50.969 56.1085 51.2673C56.1085 51.5655 56.2266 51.8516 56.437 52.063C56.6484 52.2734 56.9345 52.3915 57.2328 52.3915C57.531 52.3915 57.8171 52.2734 58.0285 52.063ZM58.468 55.375H61C61.2984 55.375 61.5845 55.2565 61.7955 55.0455C62.0065 54.8345 62.125 54.5484 62.125 54.25C62.125 53.9516 62.0065 53.6655 61.7955 53.4545C61.5845 53.2435 61.2984 53.125 61 53.125H58.468C58.1696 53.125 57.8835 53.2435 57.6725 53.4545C57.4615 53.6655 57.343 53.9516 57.343 54.25C57.343 54.5484 57.4615 54.8345 57.6725 55.0455C57.8835 55.2565 58.1696 55.375 58.468 55.375ZM56.437 58.0285L58.228 59.818C58.3324 59.9224 58.4563 60.0052 58.5927 60.0617C58.7292 60.1182 58.8754 60.1473 59.023 60.1473C59.1706 60.1473 59.3168 60.1182 59.4533 60.0617C59.5897 60.0052 59.7136 59.9224 59.818 59.818C59.9224 59.7136 60.0052 59.5897 60.0617 59.4533C60.1182 59.3168 60.1473 59.1706 60.1473 59.023C60.1473 58.8754 60.1182 58.7292 60.0617 58.5927C60.0052 58.4563 59.9224 58.3324 59.818 58.228L58.0285 56.437C57.8171 56.2266 57.531 56.1085 57.2328 56.1085C56.9345 56.1085 56.6484 56.2266 56.437 56.437C56.2266 56.6484 56.1085 56.9345 56.1085 57.2328C56.1085 57.531 56.2266 57.8171 56.437 58.0285ZM53.125 58.468V61C53.125 61.2984 53.2435 61.5845 53.4545 61.7955C53.6655 62.0065 53.9516 62.125 54.25 62.125C54.5484 62.125 54.8345 62.0065 55.0455 61.7955C55.2565 61.5845 55.375 61.2984 55.375 61V58.468C55.375 58.1696 55.2565 57.8835 55.0455 57.6725C54.8345 57.4615 54.5484 57.343 54.25 57.343C53.9516 57.343 53.6655 57.4615 53.4545 57.6725C53.2435 57.8835 53.125 58.1696 53.125 58.468ZM50.4715 56.437L48.682 58.228C48.5776 58.3324 48.4948 58.4563 48.4383 58.5927C48.3818 58.7292 48.3527 58.8754 48.3527 59.023C48.3527 59.1706 48.3818 59.3168 48.4383 59.4533C48.4948 59.5897 48.5776 59.7136 48.682 59.818C48.7864 59.9224 48.9103 60.0052 49.0467 60.0617C49.1832 60.1182 49.3294 60.1473 49.477 60.1473C49.6246 60.1473 49.7708 60.1182 49.9073 60.0617C50.0437 60.0052 50.1676 59.9224 50.272 59.818L52.063 58.0285C52.2734 57.8171 52.3915 57.531 52.3915 57.2328C52.3915 56.9345 52.2734 56.6484 52.063 56.437C51.8516 56.2266 51.5655 56.1085 51.2673 56.1085C50.969 56.1085 50.6829 56.2266 50.4715 56.437ZM50.0305 53.125H47.5C47.2016 53.125 46.9155 53.2435 46.7045 53.4545C46.4935 53.6655 46.375 53.9516 46.375 54.25C46.375 54.5484 46.4935 54.8345 46.7045 55.0455C46.9155 55.2565 47.2016 55.375 47.5 55.375H50.0305C50.3289 55.375 50.615 55.2565 50.826 55.0455C51.037 54.8345 51.1555 54.5484 51.1555 54.25C51.1555 53.9516 51.037 53.6655 50.826 53.4545C50.615 53.2435 50.3289 53.125 50.0305 53.125ZM52.063 50.4715L50.272 48.682C50.1676 48.5776 50.0437 48.4948 49.9073 48.4383C49.7708 48.3818 49.6246 48.3527 49.477 48.3527C49.3294 48.3527 49.1832 48.3818 49.0467 48.4383C48.9103 48.4948 48.7864 48.5776 48.682 48.682C48.5776 48.7864 48.4948 48.9103 48.4383 49.0467C48.3818 49.1832 48.3527 49.3294 48.3527 49.477C48.3527 49.6246 48.3818 49.7708 48.4383 49.9073C48.4948 50.0437 48.5776 50.1676 48.682 50.272L50.4715 52.063C50.6829 52.2734 50.969 52.3915 51.2673 52.3915C51.5655 52.3915 51.8516 52.2734 52.063 52.063C52.2734 51.8516 52.3915 51.5655 52.3915 51.2673C52.3915 50.969 52.2734 50.6829 52.063 50.4715Z" fill="white"></path><path fill-rule="evenodd" clip-rule="evenodd" d="M47.404 60.6339C47.0121 60.1287 46.8179 59.4978 46.858 58.8596C46.898 58.2214 47.1695 57.6197 47.6215 57.1674L47.9125 56.8749H47.5C46.8038 56.8749 46.1361 56.5984 45.6438 56.1061C45.1516 55.6138 44.875 54.9461 44.875 54.2499C44.875 53.5537 45.1516 52.8861 45.6438 52.3938C46.1361 51.9015 46.8038 51.6249 47.5 51.6249H47.9125L47.6215 51.3324C47.1504 50.8611 46.8762 50.2283 46.8545 49.5623C46.8328 48.8963 47.0651 48.2469 47.5045 47.7459C46.7544 47.6879 46.0023 47.6589 45.25 47.6589C40.267 47.6589 35.8555 48.9054 33.1165 50.7729C31.027 52.1979 29.875 54.0084 29.875 55.9089V58.0839C29.8744 58.419 29.94 58.7508 30.0679 59.0605C30.1958 59.3701 30.3837 59.6515 30.6206 59.8884C30.8575 60.1253 31.1388 60.3131 31.4485 60.441C31.7581 60.569 32.09 60.6345 32.425 60.6339H47.404Z" fill="white"></path><defs><linearGradient id="paint0_linear_956_3145" x1="46.5527" y1="10.6826" x2="46.5527" y2="82.6826" gradientUnits="userSpaceOnUse"><stop stop-color="#85FF82"></stop><stop offset="1" stop-color="#2CCB33"></stop></linearGradient></defs></svg>