<svg xmlns="http://www.w3.org/2000/svg" width="110" height="110" viewBox="0 0 110 110" fill="none"><path d="M55 110C85.3756 110 110 85.3757 110 55C110 24.6243 85.3756 0 55 0C24.6243 0 0 24.6243 0 55C0 85.3757 24.6243 110 55 110Z" fill="white"></path><path d="M55.039 101C80.4441 101 101.03 80.4051 101.02 55C101.009 29.5949 80.4051 9 55 9C29.5949 9 9.00874 29.5949 9.01953 55C9.03032 80.4051 29.6339 101 55.039 101Z" fill="#7B3DD9"></path><g clip-path="url(#clip0_488_101)"><path d="M31.0552 76.6757H39.3657V79.9999H31.0552V76.6757ZM40.9501 73.3515H49.2606V79.9999H40.9501V73.3515ZM50.8448 70.0273H59.1552V79.9999H50.8448V70.0273ZM60.7397 66.7031H69.0502V79.9999H60.7397V66.7031ZM70.6345 63.3789H78.945V79.9999H70.6345V63.3789Z" fill="white"></path><path d="M60.7422 37.4794C62.8075 37.4794 64.4819 35.8051 64.4819 33.7397C64.4819 31.6743 62.8075 30 60.7422 30C58.6768 30 57.0024 31.6743 57.0024 33.7397C57.0024 35.8051 58.6768 37.4794 60.7422 37.4794Z" fill="white"></path><path d="M60.3584 48.5602C60.1481 48.5178 59.9488 48.4498 59.7706 48.335C59.8626 48.6009 59.9709 48.8529 60.0527 49.1266C60.1624 48.9454 60.2531 48.746 60.3584 48.5602ZM54.36 52.7561L54.1734 58.7513L50.3293 66.1443C49.8002 67.1625 50.1963 68.4169 51.2143 68.9463C51.4564 69.0722 51.7209 69.1491 51.9928 69.1728C52.2646 69.1965 52.5384 69.1664 52.7986 69.0842C53.0588 69.002 53.3002 68.8694 53.5092 68.6939C53.7181 68.5184 53.8904 68.3035 54.0163 68.0614L58.0785 60.2479C58.2221 59.9712 58.3018 59.6658 58.3117 59.3542L58.4725 54.1862L54.3976 52.7762C54.384 52.7714 54.3735 52.7611 54.36 52.7561Z" fill="white"></path><path d="M53.4902 51.6247C53.7402 51.9923 54.1023 52.2694 54.5225 52.4147L62.4063 55.1425L63.1681 63.9124C63.2621 64.9946 64.1695 65.8105 65.2355 65.8105C65.2955 65.8105 65.3564 65.808 65.4177 65.8027C66.5607 65.7033 67.4071 64.6961 67.3078 63.5532L66.7933 57.6317C66.3019 57.5063 65.8854 57.3483 65.5568 57.1885L65.3758 57.4048C65.2869 57.5111 65.1757 57.5966 65.0501 57.6551C64.9245 57.7136 64.7876 57.7438 64.649 57.7435C64.4272 57.7435 64.2124 57.6656 64.0422 57.5234C63.8485 57.3616 63.7297 57.1335 63.7071 56.881C63.6845 56.6286 63.7613 56.3831 63.9235 56.1896L64.1999 55.8589C63.9826 54.7757 63.6379 52.5463 64.2065 51.4432C64.2182 51.4207 64.2331 51.4039 64.2449 51.3818L58.568 49.4176C58.5464 49.0591 58.5739 48.6889 58.5808 48.3231C58.5895 47.8732 58.5976 47.4294 58.6398 46.9773L55.386 42.3999C55.2551 42.2169 55.1619 42.0098 55.1116 41.7905C55.0614 41.5713 55.0551 41.3442 55.0931 41.1225C55.13 40.9007 55.2106 40.6883 55.3301 40.4977C55.4496 40.3072 55.6058 40.1422 55.7895 40.0124C56.0785 39.806 56.425 39.6953 56.7801 39.6958C57.3339 39.6958 57.8562 39.9651 58.1766 40.4162L60.6875 43.9483C60.3751 42.1263 59.919 40.2784 59.4807 39.3345C59.2174 38.5375 58.6995 37.9019 57.9564 37.7166C57.5658 37.6194 57.1263 37.6169 56.6779 37.7011C56.6365 37.7048 56.5976 37.6915 56.5557 37.6993C56.2717 37.7528 49.5876 39.1154 47.9595 48.6986C47.8379 49.4224 48.3249 50.109 49.0487 50.2315C49.1235 50.2445 49.198 50.2509 49.2728 50.2509C49.5867 50.2504 49.8902 50.1389 50.1299 49.9362C50.3696 49.7335 50.5299 49.4526 50.5825 49.1432C51.0271 46.5249 51.8994 44.6838 52.8612 43.3749C52.4898 45.1317 52.4201 46.7738 52.6086 48.8709C52.6359 49.1729 52.6618 49.4718 52.6992 49.7952C52.8571 50.6063 53.1365 51.196 53.4902 51.6247ZM66.78 45.8514L68.6437 46.0555C68.8674 46.0793 69.0841 46.1473 69.2813 46.2555C69.4786 46.3637 69.6524 46.5099 69.7927 46.6858C69.8319 46.7346 69.844 46.7959 69.8773 46.8481C70.3992 46.3537 71.2276 45.8614 71.2585 45.3567C71.2984 44.7128 68.212 43.9004 68.7768 44.911C69.3416 45.9215 66.5328 44.3464 66.0869 44.8814C65.8896 45.1181 66.2714 45.4679 66.78 45.8514Z" fill="white"></path><path d="M68.4588 49.4695C68.3963 49.4695 68.3335 49.4661 68.2698 49.4591L66.7083 49.2879C65.9523 49.8969 65.1067 50.5311 64.5462 51.6185C63.9773 52.7214 64.4728 55.3073 64.6115 55.9625L64.2165 56.4349C64.1208 56.5499 64.0745 56.6981 64.0877 56.8472C64.1009 56.9962 64.1725 57.134 64.2869 57.2304C64.402 57.326 64.5503 57.3723 64.6994 57.359C64.8485 57.3458 64.9863 57.2741 65.0827 57.1596L65.4607 56.7075C66.1663 57.1021 67.3432 57.5392 69.044 57.4837C70.6119 57.4325 71.5903 57.0844 72.1709 56.7603L72.5796 57.2488C72.676 57.3633 72.8138 57.4349 72.9628 57.4482C73.1118 57.4614 73.2601 57.4151 73.3751 57.3195C73.4896 57.2231 73.5613 57.0854 73.5745 56.9363C73.5878 56.7873 73.5416 56.639 73.4459 56.524L72.9983 55.9891C73.3113 55.313 74.2813 52.9382 73.3043 51.3211C72.1967 49.4878 70.6833 49.0165 69.9891 48.5059C69.7098 49.0793 69.1299 49.4695 68.4588 49.4695ZM68.5668 52.2336C68.6926 52.3272 68.751 52.3564 69.2278 52.5843C70.1225 53.0231 70.3985 53.3215 70.3985 53.8419C70.3985 54.4211 69.9469 54.7952 69.1609 54.8655V55.31H68.7177V54.8655C68.2409 54.8245 67.8059 54.6315 67.463 54.3099L68.0401 53.9298C68.3996 54.2396 68.6257 54.339 68.9767 54.339C69.3365 54.339 69.5621 54.1578 69.5621 53.8713C69.5621 53.7134 69.4787 53.5611 69.3365 53.4443C69.1941 53.3331 69.1105 53.2864 68.617 53.0407C67.7976 52.6312 67.5383 52.3505 67.5383 51.8768C67.5383 51.3387 67.9982 50.941 68.7177 50.865V50.5024H69.1609V50.865C69.5958 50.8999 69.9635 51.0404 70.2898 51.2978L69.7127 51.6954C69.487 51.479 69.2611 51.3913 68.9599 51.3913C68.5838 51.3913 68.3496 51.561 68.3496 51.8359C68.3496 51.988 68.4246 52.1284 68.5668 52.2336Z" fill="white"></path><path d="M68.3127 49.0791C68.6596 49.1106 69.0051 49.0047 69.2748 48.7841C69.5445 48.5635 69.7169 48.2459 69.7548 47.8996C69.7928 47.5533 69.6933 47.2059 69.4778 46.9321C69.2623 46.6584 68.9479 46.4801 68.6024 46.4357L61.4281 45.6495L57.8649 40.6375C57.7645 40.4933 57.6365 40.3703 57.4884 40.2759C57.3402 40.1814 57.1747 40.1172 57.0016 40.0871C56.8285 40.0569 56.6511 40.0614 56.4797 40.1002C56.3083 40.1391 56.1463 40.2115 56.0031 40.3133C55.8599 40.4151 55.7383 40.5443 55.6453 40.6935C55.5523 40.8426 55.4898 41.0086 55.4613 41.1821C55.4329 41.3555 55.4392 41.5328 55.4797 41.7038C55.5202 41.8748 55.5943 42.0361 55.6975 42.1783L59.6059 47.6768C59.7147 47.8298 59.8546 47.958 60.0164 48.0531C60.1783 48.1481 60.3584 48.2077 60.545 48.2281L68.3127 49.0791Z" fill="white"></path></g><defs><clipPath id="clip0_488_101"><rect width="50" height="50" fill="white" transform="translate(30 30)"></rect></clipPath></defs></svg>