<svg xmlns="http://www.w3.org/2000/svg" width="71" height="70" viewBox="0 0 71 70" fill="none"><g clip-path="url(#clip0_357_2416)"><path d="M32.826 10.7642H34.0564V11.9945C34.0564 12.3208 34.186 12.6338 34.4168 12.8645C34.6475 13.0952 34.9604 13.2249 35.2867 13.2249C35.613 13.2249 35.926 13.0952 36.1567 12.8645C36.3875 12.6338 36.5171 12.3208 36.5171 11.9945V10.7642H37.7474C38.0737 10.7642 38.3867 10.6345 38.6174 10.4038C38.8482 10.1731 38.9778 9.86012 38.9778 9.53381C38.9778 9.2075 38.8482 8.89456 38.6174 8.66383C38.3867 8.43309 38.0737 8.30347 37.7474 8.30347H36.5171V7.07312C36.5171 6.74681 36.3875 6.43387 36.1567 6.20313C35.926 5.9724 35.613 5.84277 35.2867 5.84277C34.9604 5.84277 34.6475 5.9724 34.4168 6.20313C34.186 6.43387 34.0564 6.74681 34.0564 7.07312V8.30347H32.826C32.4997 8.30347 32.1868 8.43309 31.9561 8.66383C31.7253 8.89456 31.5957 9.2075 31.5957 9.53381C31.5957 9.86012 31.7253 10.1731 31.9561 10.4038C32.1868 10.6345 32.4997 10.7642 32.826 10.7642Z" fill="#FF2800"></path><path d="M68.5069 29.2194V24.2981H54.9731V11.9946H56.2035V7.07322H43.5432C43.0145 5.29409 41.9252 3.73335 40.4376 2.6235C38.95 1.51365 37.1436 0.914063 35.2876 0.914062C33.4316 0.914062 31.6252 1.51365 30.1376 2.6235C28.6499 3.73335 27.5607 5.29409 27.032 7.07322H14.3717V11.9946H15.602V24.2981H2.06824V29.2194H3.29858V63.6691H0.837891V69.8209H69.7373V63.6691H67.2766V29.2194H68.5069ZM41.4393 47.6746H29.1359V45.214H41.4393V47.6746ZM42.6697 32.9105H47.591V39.0622H42.6697V32.9105ZM32.8269 32.9105H37.7483V39.0622H32.8269V32.9105ZM32.8269 27.9891V21.8374H37.7483V27.9891H32.8269ZM27.9055 32.9105V39.0622H22.9841V32.9105H27.9055ZM22.9841 27.9891V21.8374H27.9055V27.9891H22.9841ZM47.591 27.9891H42.6697V21.8374H47.591V27.9891ZM35.2876 3.38218C36.5043 3.38218 37.6937 3.74297 38.7053 4.41893C39.7169 5.09489 40.5054 6.05566 40.971 7.17974C41.4366 8.30383 41.5585 9.54073 41.3211 10.7341C41.0837 11.9274 40.4978 13.0235 39.6375 13.8838C38.7772 14.7442 37.681 15.3301 36.4877 15.5674C35.2944 15.8048 34.0575 15.683 32.9334 15.2174C31.8093 14.7518 30.8486 13.9633 30.1726 12.9516C29.4966 11.94 29.1359 10.7506 29.1359 9.53391C29.1359 7.90237 29.784 6.33765 30.9377 5.18398C32.0913 4.03031 33.656 3.38218 35.2876 3.38218ZM13.1414 51.3657H8.21997V45.214H13.1414V51.3657ZM13.1414 40.2926H8.21997V34.1408H13.1414V40.2926ZM29.1359 63.6691V50.1353H34.0572V63.6691H29.1359ZM36.5179 63.6691V50.1353H41.4393V63.6691H36.5179ZM62.3552 40.2926H57.4338V34.1408H62.3552V40.2926ZM62.3552 45.214V51.3657H57.4338V45.214H62.3552Z" fill="#FF2800"></path></g><defs><clipPath id="clip0_357_2416"><rect width="70" height="70" fill="white" transform="translate(0.214844)"></rect></clipPath></defs></svg>