<svg xmlns="http://www.w3.org/2000/svg" width="88" height="88" viewBox="0 0 88 88" fill="none"><rect width="88" height="88" rx="44" fill="url(#paint0_linear_6_164)"></rect><path fill-rule="evenodd" clip-rule="evenodd" d="M56.3469 34.1875C56.3469 33.4625 56.0594 32.7672 55.5469 32.2531C55.0344 31.7406 54.3375 31.4531 53.6125 31.4531H34.3875C33.6625 31.4531 32.9656 31.7406 32.4531 32.2531C31.9406 32.7672 31.6531 33.4625 31.6531 34.1875V34.8516C31.6531 35.5766 31.9406 36.2719 32.4531 36.7844C32.9656 37.2969 33.6625 37.5859 34.3875 37.5859H53.6125C54.3375 37.5859 55.0344 37.2969 55.5469 36.7844C56.0594 36.2719 56.3469 35.5766 56.3469 34.8516V34.1875Z" fill="white"></path><path fill-rule="evenodd" clip-rule="evenodd" d="M40.7406 22.014C39.4969 22.0703 38.5047 23.0968 38.5047 24.3562V26.1906C38.5047 27.45 39.4969 28.4765 40.7406 28.5328C40.7969 29.7765 41.8235 30.7687 43.0828 30.7687H44.9172C46.1766 30.7687 47.2031 29.7765 47.2594 28.5328C48.5031 28.4765 49.4953 27.45 49.4953 26.1906V24.3562C49.4953 23.0968 48.5031 22.0703 47.2594 22.014C47.2031 20.7703 46.1766 19.7781 44.9172 19.7781H43.0828C41.8235 19.7781 40.7969 20.7703 40.7406 22.014Z" fill="white"></path><path fill-rule="evenodd" clip-rule="evenodd" d="M39.4125 67.0469V62.5469C39.4125 60.6063 40.9875 59.0313 42.9281 59.0313H45.0719C47.0125 59.0313 48.5875 60.6063 48.5875 62.5469V67.0469H51.3063C53.2484 67.0469 54.8219 65.4734 54.8219 63.5312V36.5469C54.8219 35.9 54.2969 35.375 53.65 35.375H34.35C33.7031 35.375 33.1781 35.9 33.1781 36.5469V63.5312C33.1781 65.4734 34.7516 67.0469 36.6938 67.0469H39.4125ZM41.7563 67.0469V62.5469C41.7563 61.9 42.2813 61.375 42.9281 61.375H45.0719C45.7188 61.375 46.2438 61.9 46.2438 62.5469V67.0469H41.7563ZM51.4719 49.7344C51.4719 49.0875 50.9469 48.5625 50.3 48.5625H45.6453C44.9984 48.5625 44.4734 49.0875 44.4734 49.7344V53.9234C44.4734 54.5703 44.9984 55.0953 45.6453 55.0953H50.3C50.9469 55.0953 51.4719 54.5703 51.4719 53.9234V49.7344ZM43.5266 49.7344C43.5266 49.0875 43.0016 48.5625 42.3547 48.5625H37.7C37.0531 48.5625 36.5281 49.0875 36.5281 49.7344V53.9234C36.5281 54.5703 37.0531 55.0953 37.7 55.0953H42.3547C43.0016 55.0953 43.5266 54.5703 43.5266 53.9234V49.7344ZM49.1281 50.9063V52.7516H46.8172V50.9063H49.1281ZM41.1828 50.9063V52.7516H38.8719V50.9063H41.1828ZM51.4719 40.8609C51.4719 40.2141 50.9469 39.6891 50.3 39.6891H45.6453C44.9984 39.6891 44.4734 40.2141 44.4734 40.8609V45.05C44.4734 45.6984 44.9984 46.2219 45.6453 46.2219H50.3C50.9469 46.2219 51.4719 45.6984 51.4719 45.05V40.8609ZM43.5266 40.8609C43.5266 40.2141 43.0016 39.6891 42.3547 39.6891H37.7C37.0531 39.6891 36.5281 40.2141 36.5281 40.8609V45.05C36.5281 45.6984 37.0531 46.2219 37.7 46.2219H42.3547C43.0016 46.2219 43.5266 45.6984 43.5266 45.05V40.8609ZM49.1281 42.0328V43.8781H46.8172V42.0328H49.1281ZM41.1828 42.0328V43.8781H38.8719V42.0328H41.1828Z" fill="white"></path><path fill-rule="evenodd" clip-rule="evenodd" d="M56.3844 41.3687H64.4188C65.0656 41.3687 65.5906 41.8937 65.5906 42.5405V63.6874C65.5906 64.578 65.2375 65.4327 64.6063 66.0624C63.9766 66.6921 63.1219 67.0468 62.2313 67.0468H54.9703C55.8469 66.1343 56.3844 64.8952 56.3844 63.5312V61.3749H57.6672C58.3156 61.3749 58.8391 60.8515 58.8391 60.203V56.014C58.8391 55.3671 58.3156 54.8421 57.6672 54.8421H56.3844V53.0718H57.6672C58.3156 53.0718 58.8391 52.5483 58.8391 51.8999V47.7108C58.8391 47.064 58.3156 46.539 57.6672 46.539H56.3844V41.3687ZM56.3844 57.1858H56.4953V59.0312H56.3844V57.1858ZM56.3844 48.8827H56.4953V50.728H56.3844V48.8827Z" fill="white"></path><path fill-rule="evenodd" clip-rule="evenodd" d="M31.6156 41.3687V46.539H30.3328C29.6844 46.539 29.161 47.064 29.161 47.7108V51.8999C29.161 52.5483 29.6844 53.0718 30.3328 53.0718H31.6156V54.8421H30.3328C29.6844 54.8421 29.161 55.3671 29.161 56.014V60.203C29.161 60.8515 29.6844 61.3749 30.3328 61.3749H31.6156V63.5312C31.6156 64.8952 32.1531 66.1343 33.0297 67.0468H25.7688C24.8781 67.0468 24.0235 66.6921 23.3938 66.0624C22.7625 65.4327 22.4094 64.578 22.4094 63.6874V42.5405C22.4094 41.8937 22.9344 41.3687 23.5813 41.3687H31.6156ZM31.6156 57.1858V59.0312H31.5047V57.1858H31.6156ZM31.6156 48.8827V50.728H31.5047V48.8827H31.6156Z" fill="white"></path><path fill-rule="evenodd" clip-rule="evenodd" d="M31.6156 37.5796H23.6859C22.9609 37.5796 22.2656 37.8671 21.7531 38.3812C21.2406 38.8937 20.9516 39.589 20.9516 40.314V40.978C20.9516 41.703 21.2406 42.3983 21.7531 42.9108C22.2656 43.4233 22.9609 43.7124 23.6859 43.7124H31.6156V37.5796Z" fill="white"></path><path fill-rule="evenodd" clip-rule="evenodd" d="M56.3844 37.5796V43.7124H64.3141C65.0391 43.7124 65.7344 43.4233 66.2469 42.9108C66.7594 42.3983 67.0484 41.703 67.0484 40.978C67.0484 40.7593 67.0484 40.5327 67.0484 40.314C67.0484 39.589 66.7594 38.8937 66.2469 38.3812C65.7344 37.8671 65.0391 37.5796 64.3141 37.5796H56.3844Z" fill="white"></path><defs><linearGradient id="paint0_linear_6_164" x1="44" y1="0" x2="44" y2="88" gradientUnits="userSpaceOnUse"><stop stop-color="#8DD1FF"></stop><stop offset="1" stop-color="#359BFF"></stop></linearGradient></defs></svg>