<svg xmlns="http://www.w3.org/2000/svg" width="110" height="110" viewBox="0 0 110 110" fill="none"><g clip-path="url(#clip0_488_37)"><circle cx="55" cy="55" r="55" fill="white"></circle><circle cx="55" cy="55" r="46" fill="#16CABD"></circle><path fill-rule="evenodd" clip-rule="evenodd" d="M37.5415 66.1112H72.4582V39.1251C72.4545 37.4428 71.7846 35.8305 70.5951 34.6409C69.4055 33.4514 67.7932 32.7815 66.1109 32.7778H43.8887C42.2065 32.7815 40.5942 33.4514 39.4046 34.6409C38.2151 35.8305 37.5452 37.4428 37.5415 39.1251V66.1112ZM47.0693 53.4167C47.0693 53.2088 47.1102 53.0029 47.1898 52.8108C47.2694 52.6187 47.386 52.4442 47.533 52.2971C47.6801 52.1501 47.8546 52.0335 48.0467 51.9539C48.2388 51.8743 48.4447 51.8334 48.6526 51.8334C48.8605 51.8334 49.0664 51.8743 49.2585 51.9539C49.4506 52.0335 49.6252 52.1501 49.7722 52.2971C49.9192 52.4442 50.0359 52.6187 50.1154 52.8108C50.195 53.0029 50.2359 53.2088 50.2359 53.4167V58.1806H53.4165V50.2362C53.4165 49.8162 53.5833 49.4135 53.8803 49.1166C54.1772 48.8196 54.5799 48.6528 54.9998 48.6528C55.4198 48.6528 55.8225 48.8196 56.1194 49.1166C56.4164 49.4135 56.5832 49.8162 56.5832 50.2362V58.1806H59.7637V47.0695C59.7637 46.6496 59.9305 46.2468 60.2275 45.9499C60.5244 45.653 60.9271 45.4862 61.3471 45.4862C61.767 45.4862 62.1697 45.653 62.4666 45.9499C62.7636 46.2468 62.9304 46.6496 62.9304 47.0695V58.1806H64.5276C64.9475 58.1806 65.3503 58.3474 65.6472 58.6444C65.9441 58.9413 66.1109 59.344 66.1109 59.7639C66.1109 60.1839 65.9441 60.5866 65.6472 60.8835C65.3503 61.1805 64.9475 61.3473 64.5276 61.3473H45.4721C45.0521 61.3473 44.6494 61.1805 44.3525 60.8835C44.0555 60.5866 43.8887 60.1839 43.8887 59.7639C43.8887 59.344 44.0555 58.9413 44.3525 58.6444C44.6494 58.3474 45.0521 58.1806 45.4721 58.1806H47.0693V53.4167ZM43.8887 37.5417C44.2019 37.5417 44.508 37.6346 44.7684 37.8086C45.0288 37.9825 45.2317 38.2298 45.3515 38.5191C45.4714 38.8085 45.5027 39.1268 45.4416 39.4339C45.3805 39.7411 45.2297 40.0232 45.0083 40.2446C44.7869 40.4661 44.5048 40.6169 44.1976 40.678C43.8905 40.7391 43.5721 40.7077 43.2828 40.5879C42.9935 40.468 42.7462 40.2651 42.5722 40.0047C42.3983 39.7443 42.3054 39.4382 42.3054 39.1251C42.3054 38.7051 42.4722 38.3024 42.7691 38.0055C43.0661 37.7085 43.4688 37.5417 43.8887 37.5417ZM37.5415 69.2917V70.8751C37.5452 72.5573 38.2151 74.1696 39.4046 75.3592C40.5942 76.5487 42.2065 77.2186 43.8887 77.2223H66.1109C67.7932 77.2186 69.4055 76.5487 70.5951 75.3592C71.7846 74.1696 72.4545 72.5573 72.4582 70.8751V69.2917H37.5415Z" fill="white"></path></g><defs><clipPath id="clip0_488_37"><rect width="110" height="110" fill="white"></rect></clipPath></defs></svg>