<svg xmlns="http://www.w3.org/2000/svg" width="90" height="90" viewBox="0 0 90 90" fill="none"><path d="M0 40C0 21.1438 0 11.7157 5.85786 5.85786C11.7157 0 21.1438 0 40 0H50C68.8562 0 78.2843 0 84.1421 5.85786C90 11.7157 90 21.1438 90 40V50C90 68.8562 90 78.2843 84.1421 84.1421C78.2843 90 68.8562 90 50 90H40C21.1438 90 11.7157 90 5.85786 84.1421C0 78.2843 0 68.8562 0 50V40Z" fill="#C65BFF"></path><path d="M65.3125 55.2969C65.3125 57.375 63.625 59.0625 61.5469 59.0625H51.8907C51.1449 59.0623 50.416 58.8407 49.7962 58.4259C49.1765 58.0111 48.6938 57.4216 48.4093 56.7322C48.1249 56.0428 48.0514 55.2845 48.1983 54.5533C48.3452 53.8222 48.7058 53.1511 49.2344 52.625C49.5157 52.3281 49.6875 51.9219 49.6875 51.5156V48.9062C49.6875 45.0312 52.8438 41.875 56.7188 41.875C60.5938 41.875 63.75 45.0312 63.75 48.9062V51.5156C63.75 51.9375 63.9219 52.3281 64.2032 52.625C64.9063 53.3281 65.3125 54.2969 65.3125 55.2969ZM56.7188 66.875C54.1344 66.875 52.0313 64.7719 52.0313 62.1875C52.0313 61.7731 52.1959 61.3757 52.4889 61.0826C52.782 60.7896 53.1794 60.625 53.5938 60.625C54.0082 60.625 54.4056 60.7896 54.6987 61.0826C54.9917 61.3757 55.1563 61.7731 55.1563 62.1875C55.1743 62.5898 55.3468 62.9697 55.6378 63.248C55.9289 63.5263 56.3161 63.6817 56.7188 63.6817C57.1215 63.6817 57.5087 63.5263 57.7998 63.248C58.0908 62.9697 58.2633 62.5898 58.2813 62.1875C58.2813 61.7731 58.4459 61.3757 58.7389 61.0826C59.032 60.7896 59.4294 60.625 59.8438 60.625C60.2582 60.625 60.6556 60.7896 60.9487 61.0826C61.2417 61.3757 61.4063 61.7731 61.4063 62.1875C61.4063 64.7719 59.3032 66.875 56.7188 66.875Z" fill="white"></path><path d="M57.4844 24.6875H32.5156C30.4395 24.6875 28.4484 25.5122 26.9803 26.9803C25.5122 28.4484 24.6875 30.4395 24.6875 32.5156V57.4844C24.6875 59.5605 25.5122 61.5516 26.9803 63.0197C28.4484 64.4878 30.4395 65.3125 32.5156 65.3125H50.2469C50.3594 65.3121 50.4701 65.2841 50.5693 65.231C50.6685 65.1778 50.7531 65.1011 50.8157 65.0077C50.8784 64.9142 50.9171 64.8068 50.9285 64.6948C50.9399 64.5829 50.9237 64.4698 50.8812 64.3656C50.6097 63.6715 50.4698 62.9329 50.4688 62.1875C50.4688 61.5781 50.6516 61.0125 50.9547 60.5297C49.7255 60.3104 48.6123 59.6663 47.8095 58.7099C47.0068 57.7535 46.5654 56.5455 46.5625 55.2969C46.5625 53.8938 47.1328 52.5172 48.1297 51.5203L48.125 49.3047C48.1172 44.8703 51.3016 40.8766 55.7078 40.3703C57.4623 40.1645 59.2376 40.5036 60.7927 41.3416C62.3478 42.1797 63.6072 43.4761 64.4 45.0547C64.6297 45.5125 65.3125 45.35 65.3125 44.8375V32.5156C65.3125 30.4395 64.4878 28.4484 63.0197 26.9803C61.5516 25.5122 59.5605 24.6875 57.4844 24.6875ZM43.4375 54.375H32.5C32.0856 54.375 31.6882 54.2104 31.3951 53.9174C31.1021 53.6243 30.9375 53.2269 30.9375 52.8125C30.9375 52.3981 31.1021 52.0007 31.3951 51.7076C31.6882 51.4146 32.0856 51.25 32.5 51.25H43.4375C43.8519 51.25 44.2493 51.4146 44.5424 51.7076C44.8354 52.0007 45 52.3981 45 52.8125C45 53.2269 44.8354 53.6243 44.5424 53.9174C44.2493 54.2104 43.8519 54.375 43.4375 54.375ZM45 46.5625H32.5C32.0856 46.5625 31.6882 46.3979 31.3951 46.1049C31.1021 45.8118 30.9375 45.4144 30.9375 45C30.9375 44.5856 31.1021 44.1882 31.3951 43.8951C31.6882 43.6021 32.0856 43.4375 32.5 43.4375H45C45.4144 43.4375 45.8118 43.6021 46.1049 43.8951C46.3979 44.1882 46.5625 44.5856 46.5625 45C46.5625 45.4144 46.3979 45.8118 46.1049 46.1049C45.8118 46.3979 45.4144 46.5625 45 46.5625ZM57.5 38.75H32.5C32.0856 38.75 31.6882 38.5854 31.3951 38.2924C31.1021 37.9993 30.9375 37.6019 30.9375 37.1875C30.9375 36.7731 31.1021 36.3757 31.3951 36.0826C31.6882 35.7896 32.0856 35.625 32.5 35.625H57.5C57.9144 35.625 58.3118 35.7896 58.6049 36.0826C58.8979 36.3757 59.0625 36.7731 59.0625 37.1875C59.0625 37.6019 58.8979 37.9993 58.6049 38.2924C58.3118 38.5854 57.9144 38.75 57.5 38.75Z" fill="white"></path></svg>