<svg xmlns="http://www.w3.org/2000/svg" width="92" height="93" viewBox="0 0 92 93" fill="none"><rect y="0.0224609" width="92" height="92" rx="46" fill="white"></rect><rect x="0.5" y="0.522461" width="91" height="91" rx="45.5" stroke="#7E3BFF" stroke-opacity="0.16"></rect><path d="M47.9531 65.5537H40.9218V69.335C40.9218 70.2655 41.6789 71.0225 42.6094 71.0225H48.087C47.8533 70.3633 47.9956 70.2508 47.9531 65.5537ZM32.3281 65.5537H25.2969V69.335C25.2969 70.2655 26.0539 71.0225 26.9844 71.0225H32.4621C32.2283 70.3633 32.3706 70.2508 32.3281 65.5537ZM39.5999 50.7099H52.4002C55.8545 50.7099 58.0693 47.0458 56.4745 43.9887C47.9288 27.5413 48.2727 28.4407 48.2727 28.0775V25.71H43.7272C43.6996 28.0898 43.7932 28.1424 43.6386 28.4389L35.5255 43.9887C33.9278 47.0514 36.1518 50.7099 39.5999 50.7099ZM37.9947 43.8771L41.2504 37.6893C41.3308 37.5366 41.4595 37.4148 41.6165 37.3429C41.7734 37.2711 41.9497 37.2531 42.1179 37.292C42.6608 37.4175 43.2472 37.476 43.9638 37.476C46.6877 37.476 46.8506 36.563 49.6064 36.4662C49.908 36.4571 50.1856 36.6177 50.3254 36.8832L54.0052 43.8771C55.1371 46.0282 53.5758 48.6077 51.1488 48.6077H40.8512C38.4238 48.6078 36.8634 46.0278 37.9947 43.8771Z" fill="#7E3BFF"></path><path d="M40.8511 47.0449H51.1488C52.4029 47.0449 53.2055 45.7123 52.6224 44.6043L49.1774 38.0566C47.1701 38.2333 46.8054 39.0382 43.9639 39.0382C43.3732 39.0382 42.8518 39.0028 42.364 38.9283L39.3776 44.6043C38.7934 45.7142 39.5992 47.0449 40.8511 47.0449ZM47.4968 43.6784C47.9264 43.6783 48.2781 44.028 48.2781 44.4597C48.2781 44.8831 47.9354 45.2409 47.4968 45.2409C47.0753 45.2409 46.7155 44.9003 46.7155 44.4597C46.7155 44.0302 47.0661 43.6785 47.4968 43.6784ZM43.5906 42.1158C43.7978 42.1159 43.9965 42.1982 44.143 42.3447C44.2895 42.4912 44.3718 42.6899 44.3718 42.8971C44.3718 43.3264 44.0234 43.6784 43.5906 43.6784C43.1519 43.6784 42.8093 43.3192 42.8093 42.8971C42.8094 42.4828 43.1437 42.1158 43.5906 42.1158ZM63.1874 62.4284V58.0013C63.1874 57.7941 63.1051 57.5954 62.9585 57.4489C62.812 57.3023 62.6133 57.22 62.4061 57.22H46.7812V52.5326H45.2187V57.22H31.1563C30.9491 57.22 30.7503 57.3023 30.6038 57.4489C30.4573 57.5954 30.375 57.7941 30.375 58.0013V62.4284H27.25V63.9909H33.1094C33.3166 63.9909 33.5153 64.0732 33.6618 64.2197C33.8084 64.3662 33.8907 64.565 33.8907 64.7722V70.2409C33.8907 70.6717 34.2412 71.0222 34.6719 71.0222C35.1027 71.0222 35.4532 70.6717 35.4532 70.2409V62.4284H31.9376V58.7825H45.2189V62.4284H42.8752V63.9909H48.7346C48.9418 63.9909 49.1405 64.0732 49.287 64.2197C49.4335 64.3662 49.5158 64.565 49.5158 64.7722V70.2409C49.5158 70.6717 49.8663 71.0222 50.2971 71.0222C50.7279 71.0222 51.0784 70.6717 51.0784 70.2409V62.4284H46.7815V58.7825H61.6252V62.4284H58.4999V63.9909H64.3593C64.5665 63.9909 64.7653 64.0732 64.9118 64.2197C65.0583 64.3662 65.1406 64.565 65.1406 64.7722V70.2409C65.1406 70.6717 65.4911 71.0222 65.9219 71.0222C66.3527 71.0222 66.7032 70.6717 66.7032 70.2409V62.4284H63.1874Z" fill="#7E3BFF"></path><path d="M63.578 65.5536H56.5467V69.3349C56.5467 70.2654 57.3038 71.0225 58.2343 71.0225H63.7119C63.4782 70.3632 63.6204 70.2508 63.578 65.5536ZM42.7447 24.1475H49.2551C50.1166 24.1475 50.8176 23.4466 50.8176 22.5849C50.8176 21.7232 50.1167 21.0225 49.2551 21.0225H42.7447C41.8831 21.0225 41.1821 21.7233 41.1821 22.585C41.1821 23.4467 41.883 24.1475 42.7447 24.1475Z" fill="#7E3BFF"></path></svg>