<svg xmlns="http://www.w3.org/2000/svg" width="93" height="93" viewBox="0 0 93 93" fill="none"><circle cx="46.5529" cy="46.6826" r="46" fill="white"></circle><circle cx="46.5529" cy="46.6826" r="36" fill="url(#paint0_linear_7_1251)"></circle><g clip-path="url(#clip0_7_1251)"><path d="M37.9403 50.4861C37.9403 50.0781 37.5821 49.7471 37.14 49.7471C36.6978 49.7471 36.3396 50.0781 36.3396 50.4861C36.3396 50.8944 36.6978 51.2251 37.14 51.2251C37.5821 51.2251 37.9403 50.8944 37.9403 50.4861Z" fill="white"></path><path d="M37.14 44.4995C36.6987 44.4995 36.3396 44.8309 36.3396 45.2385C36.3396 45.6459 36.6987 45.9776 37.14 45.9776C37.5813 45.9776 37.9406 45.6459 37.9406 45.2385C37.9406 44.8309 37.5813 44.4995 37.14 44.4995Z" fill="white"></path><path d="M37.9403 39.9912C37.9403 39.5829 37.5821 39.2522 37.14 39.2522C36.6978 39.2522 36.3396 39.5829 36.3396 39.9912C36.3396 40.3992 36.6978 40.7303 37.14 40.7303C37.5821 40.7303 37.9403 40.3992 37.9403 39.9912Z" fill="white"></path><path d="M54.5603 28.491C50.4516 28.491 47.1208 31.8217 47.1211 35.9305C47.1211 40.0392 50.4519 43.37 54.5606 43.37C58.6693 43.37 61.9998 40.0392 61.9998 35.9305C61.9954 31.8238 58.6672 28.4957 54.5603 28.491ZM54.5258 35.3984C55.804 35.3987 56.8729 36.3697 56.9949 37.642C57.117 38.9146 56.2524 40.0713 54.9975 40.3142V41.0099C54.9975 41.3017 54.761 41.5382 54.4692 41.5382C54.1774 41.5382 53.941 41.3017 53.941 41.0099V40.2895C52.8293 40.0185 52.0467 39.0233 52.0452 37.8793C52.0452 37.5875 52.2816 37.351 52.5734 37.351C52.865 37.351 53.1017 37.5875 53.1017 37.8793C53.1017 38.6658 53.7393 39.3034 54.5258 39.3034C55.3123 39.3034 55.9499 38.6658 55.9499 37.8793C55.9499 37.0925 55.3123 36.4549 54.5258 36.4549C53.2697 36.4549 52.212 35.516 52.0629 34.2691C51.9137 33.0218 52.7202 31.8601 53.941 31.5638V30.8976C53.941 30.6061 54.1774 30.3693 54.4692 30.3693C54.761 30.3693 54.9975 30.6061 54.9975 30.8976V31.539C56.163 31.7663 57.0049 32.7869 57.0064 33.9743C57.0064 34.2661 56.77 34.5025 56.4782 34.5025C56.1866 34.5025 55.9499 34.2661 55.9499 33.9743C55.949 33.1975 55.3259 32.5643 54.5488 32.5513C54.5226 32.5555 54.496 32.5578 54.4692 32.5578C54.4527 32.5578 54.4365 32.5569 54.4203 32.5555C53.6568 32.6124 53.0749 33.2627 53.1035 34.0279C53.1318 34.7929 53.7602 35.3984 54.5261 35.3984H54.5258Z" fill="white"></path><path d="M46.0345 61.3704C45.1549 60.4966 44.6599 59.308 44.6588 58.0682V55.9519H26.9999V58.077C27.0088 60.0715 28.6272 61.6846 30.6217 61.6872H46.3921C46.2627 61.5938 46.1427 61.4877 46.0345 61.3704Z" fill="white"></path><path d="M47.4132 40.4816H41.0152C40.7234 40.4816 40.487 40.2452 40.487 39.9534C40.487 39.6618 40.7234 39.4251 41.0152 39.4251H46.8343C46.3237 38.3185 46.0611 37.1137 46.0646 35.8948C46.0664 35.3061 46.1274 34.7192 46.2468 34.1426H32.0299L31.8901 54.8955H45.2141C45.3486 54.8902 45.4789 54.9409 45.5741 55.0358C45.6693 55.1307 45.7203 55.261 45.7153 55.3954V58.0688C45.725 60.0678 47.3463 61.6838 49.3453 61.6873H49.357C51.3483 61.6832 52.9599 60.0681 52.9599 58.0771V44.2752C50.6627 43.8401 48.6516 42.465 47.4132 40.4816ZM37.14 52.2819C36.1162 52.2819 35.2831 51.4762 35.2831 50.4861C35.2831 49.4962 36.1162 48.6905 37.14 48.6905C38.1638 48.6905 38.9971 49.4962 38.9971 50.4861C38.9971 51.4762 38.1641 52.2819 37.14 52.2819ZM37.14 47.0341C36.1162 47.0341 35.2831 46.2288 35.2831 45.2386C35.2831 44.2484 36.1162 43.4431 37.14 43.4431C38.1638 43.4431 38.9971 44.2484 38.9971 45.2386C38.9971 46.2285 38.1641 47.0341 37.14 47.0341ZM37.14 41.7867C36.1162 41.7867 35.2831 40.981 35.2831 39.9911C35.2831 39.0009 36.1162 38.1953 37.14 38.1953C38.1638 38.1953 38.9971 39.0006 38.9971 39.9908C38.9971 40.981 38.1641 41.7867 37.14 41.7867ZM49.064 51.0467H41.0152C40.7234 51.0467 40.487 50.8103 40.487 50.5185C40.487 50.2269 40.7234 49.9902 41.0152 49.9902H49.064C49.3559 49.9902 49.5923 50.2269 49.5923 50.5185C49.5923 50.8103 49.3559 51.0467 49.064 51.0467ZM49.5923 45.2359C49.5923 45.5278 49.3559 45.7642 49.064 45.7642H41.0152C40.7234 45.7642 40.487 45.5278 40.487 45.2359C40.487 44.9444 40.7234 44.7077 41.0152 44.7077H49.064C49.3559 44.7077 49.5923 44.9444 49.5923 45.2359Z" fill="white"></path></g><defs><linearGradient id="paint0_linear_7_1251" x1="46.5529" y1="10.6826" x2="46.5529" y2="82.6826" gradientUnits="userSpaceOnUse"><stop stop-color="#FFC77A"></stop><stop offset="1" stop-color="#FFA000"></stop></linearGradient><clipPath id="clip0_7_1251"><rect width="35" height="35" fill="white" transform="translate(26.9999 27.5259)"></rect></clipPath></defs></svg>