<svg xmlns="http://www.w3.org/2000/svg" width="93" height="93" viewBox="0 0 93 93" fill="none"><circle cx="46.5527" cy="46.6826" r="46" fill="white"></circle><circle cx="46.5527" cy="46.6826" r="36" fill="url(#paint0_linear_956_3135)"></circle><path fill-rule="evenodd" clip-rule="evenodd" d="M43.3217 52.5197C43.9862 54.3645 45.906 55.6849 47.9264 55.6849V60.0714H57.7727V55.6849C57.7301 51.6926 63.5218 50.1222 63.0988 40.9228C62.862 35.7739 59.6707 31.5652 52.4091 31.9533C46.7645 32.255 43.0761 36.4054 43.0761 41.8292L39.8653 47.7251C39.5672 48.2724 39.9478 48.9529 40.5772 48.9529H43.0761V50.358L45.8011 51.0882L43.3217 52.5197ZM28.8961 49.0579C28.8624 48.9319 28.8802 48.7978 28.9454 48.6849C29.0107 48.5721 29.1181 48.4898 29.244 48.4561C29.37 48.4224 29.5041 48.4402 29.617 48.5054C29.7299 48.5707 29.8122 48.6781 29.8458 48.8041L30.2654 50.3699L32.7797 44.0598C32.8276 43.939 32.9216 43.8421 33.041 43.7905C33.1603 43.739 33.2953 43.737 33.4161 43.7849C33.499 43.8176 33.5715 43.8723 33.6257 43.9431C33.6799 44.0139 33.7138 44.0981 33.7237 44.1867L34.7208 53.153L36.9255 47.2135C36.9625 47.1136 37.031 47.0285 37.1206 46.9709C37.2102 46.9132 37.316 46.8862 37.4222 46.8939C37.5285 46.9015 37.6294 46.9434 37.7098 47.0133C37.7901 47.0832 37.8457 47.1772 37.8681 47.2814L38.8651 51.0025H41.9105C42.041 51.0025 42.1662 51.0543 42.2585 51.1466C42.3508 51.2389 42.4027 51.3641 42.4027 51.4946C42.4027 51.6252 42.3508 51.7504 42.2585 51.8427C42.1662 51.935 42.041 51.9868 41.9105 51.9868H38.4881C38.3798 51.9867 38.2745 51.9508 38.1887 51.8848C38.1028 51.8187 38.0412 51.7262 38.0132 51.6216L37.3113 49.0021L34.9228 55.4371C34.891 55.5226 34.836 55.5975 34.764 55.6535C34.692 55.7096 34.6059 55.7445 34.5152 55.7544C34.4511 55.7615 34.3862 55.7558 34.3242 55.7378C34.2623 55.7198 34.2045 55.6898 34.1541 55.6494C34.1038 55.6091 34.0619 55.5592 34.0308 55.5027C33.9997 55.4461 33.9801 55.384 33.973 55.3199L32.964 46.2458L30.6422 52.0726C30.6103 52.1742 30.5463 52.2626 30.4598 52.3247C30.3733 52.3868 30.269 52.4191 30.1626 52.4168C30.0562 52.4145 29.9534 52.3777 29.8697 52.312C29.7859 52.2462 29.7258 52.1551 29.6983 52.0522L28.8961 49.0579Z" fill="white"></path><defs><linearGradient id="paint0_linear_956_3135" x1="46.5527" y1="10.6826" x2="46.5527" y2="82.6826" gradientUnits="userSpaceOnUse"><stop stop-color="#8788FF"></stop><stop offset="1" stop-color="#5A5EFF"></stop></linearGradient></defs></svg>