<svg xmlns="http://www.w3.org/2000/svg" width="70" height="71" viewBox="0 0 70 71" fill="none"><g clip-path="url(#clip0_73_2076)"><g clip-path="url(#clip1_73_2076)"><path d="M55.5731 40.2028H31.273C30.6872 40.2028 30.1253 40.4356 29.711 40.8499C29.2967 41.2641 29.0639 41.826 29.0639 42.4119V55.6665H62.2004V62.2938C62.2004 62.8797 62.4332 63.4416 62.8475 63.8559C63.2618 64.2702 63.8237 64.5029 64.4095 64.5029C64.9954 64.5029 65.5573 64.2702 65.9716 63.8559C66.3859 63.4416 66.6186 62.8797 66.6186 62.2938V51.2483C66.6186 48.3189 65.4549 45.5094 63.3835 43.438C61.3121 41.3666 58.5026 40.2028 55.5731 40.2028ZM9.18205 26.9482C9.18205 26.3623 8.94931 25.8005 8.53502 25.3862C8.12074 24.9719 7.55884 24.7391 6.97295 24.7391C6.38706 24.7391 5.82517 24.9719 5.41089 25.3862C4.9966 25.8005 4.76385 26.3623 4.76385 26.9482V62.2938C4.76385 62.8797 4.9966 63.4416 5.41089 63.8559C5.82517 64.2702 6.38706 64.5029 6.97295 64.5029C7.55884 64.5029 8.12074 64.2702 8.53502 63.8559C8.94931 63.4416 9.18205 62.8797 9.18205 62.2938V55.6665H24.6458V46.8301H9.18205V26.9482Z" fill="white"></path><path d="M20.2276 42.4118C23.8877 42.4118 26.8549 39.4447 26.8549 35.7845C26.8549 32.1244 23.8877 29.1572 20.2276 29.1572C16.5674 29.1572 13.6003 32.1244 13.6003 35.7845C13.6003 39.4447 16.5674 42.4118 20.2276 42.4118Z" fill="white"></path><path d="M31.2731 26.9482C31.2731 27.5341 31.5058 28.096 31.9201 28.5102C32.3344 28.9245 32.8963 29.1573 33.4822 29.1573H37.9003C38.4862 29.1573 39.0481 28.9245 39.4624 28.5102C39.8767 28.096 40.1094 27.5341 40.1094 26.9482V22.53H44.5276C45.1135 22.53 45.6754 22.2972 46.0897 21.8829C46.504 21.4687 46.7367 20.9068 46.7367 20.3209V15.9027C46.7367 15.3168 46.504 14.7549 46.0897 14.3406C45.6754 13.9263 45.1135 13.6936 44.5276 13.6936H40.1094V9.27538C40.1094 8.68949 39.8767 8.1276 39.4624 7.71331C39.0481 7.29903 38.4862 7.06628 37.9003 7.06628H33.4822C32.8963 7.06628 32.3344 7.29903 31.9201 7.71331C31.5058 8.1276 31.2731 8.68949 31.2731 9.27538V13.6936H26.8549C26.269 13.6936 25.7071 13.9263 25.2928 14.3406C24.8785 14.7549 24.6458 15.3168 24.6458 15.9027V20.3209C24.6458 20.9068 24.8785 21.4687 25.2928 21.8829C25.7071 22.2972 26.269 22.53 26.8549 22.53H31.2731V26.9482Z" fill="white"></path></g></g><defs><clipPath id="clip0_73_2076"><rect width="70" height="70" fill="white" transform="translate(0 0.438965)"></rect></clipPath><clipPath id="clip1_73_2076"><rect width="70.6912" height="70.6912" fill="white" transform="translate(0.345703 0.438965)"></rect></clipPath></defs></svg>