<svg xmlns="http://www.w3.org/2000/svg" width="90" height="90" viewBox="0 0 90 90" fill="none"><path d="M0 12C0 5.37258 5.37258 0 12 0H78C84.6274 0 90 5.37258 90 12V78C90 84.6274 84.6274 90 78 90H12C5.37258 90 0 84.6274 0 78V12Z" fill="#E9F8FF"></path><path d="M59.0625 48.125H41.875C41.4606 48.125 41.0632 48.2896 40.7701 48.5826C40.4771 48.8757 40.3125 49.2731 40.3125 49.6875V59.0625H63.75V63.75C63.75 64.1644 63.9146 64.5618 64.2076 64.8549C64.5007 65.1479 64.8981 65.3125 65.3125 65.3125C65.7269 65.3125 66.1243 65.1479 66.4174 64.8549C66.7104 64.5618 66.875 64.1644 66.875 63.75V55.9375C66.875 53.8655 66.0519 51.8784 64.5868 50.4132C63.1216 48.9481 61.1345 48.125 59.0625 48.125ZM26.25 38.75C26.25 38.3356 26.0854 37.9382 25.7924 37.6451C25.4993 37.3521 25.1019 37.1875 24.6875 37.1875C24.2731 37.1875 23.8757 37.3521 23.5826 37.6451C23.2896 37.9382 23.125 38.3356 23.125 38.75V63.75C23.125 64.1644 23.2896 64.5618 23.5826 64.8549C23.8757 65.1479 24.2731 65.3125 24.6875 65.3125C25.1019 65.3125 25.4993 65.1479 25.7924 64.8549C26.0854 64.5618 26.25 64.1644 26.25 63.75V59.0625H37.1875V52.8125H26.25V38.75Z" fill="url(#paint0_linear_956_3249)"></path><path d="M34.0625 49.6875C36.6513 49.6875 38.75 47.5888 38.75 45C38.75 42.4112 36.6513 40.3125 34.0625 40.3125C31.4737 40.3125 29.375 42.4112 29.375 45C29.375 47.5888 31.4737 49.6875 34.0625 49.6875Z" fill="url(#paint1_linear_956_3249)"></path><path d="M41.875 38.75C41.875 39.1644 42.0396 39.5618 42.3326 39.8549C42.6257 40.1479 43.0231 40.3125 43.4375 40.3125H46.5625C46.9769 40.3125 47.3743 40.1479 47.6674 39.8549C47.9604 39.5618 48.125 39.1644 48.125 38.75V35.625H51.25C51.6644 35.625 52.0618 35.4604 52.3549 35.1674C52.6479 34.8743 52.8125 34.4769 52.8125 34.0625V30.9375C52.8125 30.5231 52.6479 30.1257 52.3549 29.8326C52.0618 29.5396 51.6644 29.375 51.25 29.375H48.125V26.25C48.125 25.8356 47.9604 25.4382 47.6674 25.1451C47.3743 24.8521 46.9769 24.6875 46.5625 24.6875H43.4375C43.0231 24.6875 42.6257 24.8521 42.3326 25.1451C42.0396 25.4382 41.875 25.8356 41.875 26.25V29.375H38.75C38.3356 29.375 37.9382 29.5396 37.6451 29.8326C37.3521 30.1257 37.1875 30.5231 37.1875 30.9375V34.0625C37.1875 34.4769 37.3521 34.8743 37.6451 35.1674C37.9382 35.4604 38.3356 35.625 38.75 35.625H41.875V38.75Z" fill="url(#paint2_linear_956_3249)"></path><defs><linearGradient id="paint0_linear_956_3249" x1="45" y1="37.1875" x2="45" y2="65.3125" gradientUnits="userSpaceOnUse"><stop stop-color="#29B7FF"></stop><stop offset="1" stop-color="#368AFF"></stop></linearGradient><linearGradient id="paint1_linear_956_3249" x1="34.0625" y1="40.3125" x2="34.0625" y2="49.6875" gradientUnits="userSpaceOnUse"><stop stop-color="#29B7FF"></stop><stop offset="1" stop-color="#368AFF"></stop></linearGradient><linearGradient id="paint2_linear_956_3249" x1="45" y1="24.6875" x2="45" y2="40.3125" gradientUnits="userSpaceOnUse"><stop stop-color="#29B7FF"></stop><stop offset="1" stop-color="#368AFF"></stop></linearGradient></defs></svg>