<svg xmlns="http://www.w3.org/2000/svg" width="90" height="90" viewBox="0 0 90 90" fill="none"><rect width="90" height="90" rx="20" fill="#2EADDC"></rect><path d="M37.0662 50.356C37.0662 49.8315 36.6057 49.4059 36.0372 49.4059C35.4686 49.4059 35.0082 49.8315 35.0082 50.356C35.0082 50.8809 35.4687 51.3062 36.0372 51.3062C36.6057 51.3062 37.0662 50.881 37.0662 50.356ZM36.0372 42.6591C35.4698 42.6591 35.0082 43.0851 35.0082 43.6093C35.0082 44.1331 35.4698 44.5594 36.0372 44.5594C36.6046 44.5594 37.0666 44.1331 37.0666 43.6093C37.0666 43.0851 36.6046 42.6591 36.0372 42.6591ZM37.0662 36.8625C37.0662 36.3376 36.6057 35.9123 36.0372 35.9123C35.4686 35.9123 35.0082 36.3376 35.0082 36.8625C35.0082 37.387 35.4687 37.8127 36.0372 37.8127C36.6057 37.8127 37.0662 37.387 37.0662 36.8625ZM58.4347 22.0767C53.1521 22.0767 48.8697 26.359 48.8701 31.6417C48.8701 36.9243 53.1525 41.2068 58.4351 41.2068C63.7177 41.2068 67.9998 36.9243 67.9998 31.6417C67.9941 26.3617 63.7152 22.0827 58.4347 22.0767ZM58.3904 30.9575C60.0338 30.958 61.4081 32.2064 61.565 33.8422C61.7219 35.4784 60.6103 36.9657 58.9968 37.2779V38.1725C58.9968 38.5476 58.6928 38.8517 58.3176 38.8517C57.9424 38.8517 57.6384 38.5476 57.6384 38.1725V37.2461C56.2092 36.8977 55.2029 35.6183 55.201 34.1473C55.2041 33.9692 55.2769 33.7994 55.404 33.6744C55.531 33.5495 55.7021 33.4795 55.8802 33.4795C56.0584 33.4795 56.2294 33.5495 56.3565 33.6744C56.4835 33.7994 56.5564 33.9692 56.5594 34.1473C56.5594 35.1585 57.3793 35.9782 58.3904 35.9782C59.4015 35.9782 60.2214 35.1585 60.2214 34.1473C60.2214 33.1357 59.4015 32.316 58.3904 32.316C56.7754 32.316 55.4156 31.1088 55.2237 29.5056C55.032 27.902 56.0689 26.4083 57.6384 26.0274V25.1708C57.6415 24.9927 57.7143 24.8229 57.8414 24.6979C57.9684 24.573 58.1395 24.503 58.3176 24.503C58.4958 24.503 58.6668 24.573 58.7939 24.6979C58.9209 24.8229 58.9938 24.9927 58.9968 25.1708V25.9956C60.4954 26.2878 61.5779 27.5999 61.5798 29.1266C61.5767 29.3047 61.5039 29.4746 61.3768 29.5995C61.2498 29.7244 61.0787 29.7944 60.9006 29.7944C60.7224 29.7944 60.5514 29.7244 60.4243 29.5995C60.2973 29.4746 60.2244 29.3047 60.2214 29.1266C60.2202 28.1279 59.419 27.3138 58.42 27.2971C58.3654 27.3058 58.3098 27.3076 58.2548 27.3024C57.273 27.3756 56.5249 28.2116 56.5616 29.1956C56.598 30.179 57.4061 30.9576 58.3908 30.9576L58.3904 30.9575ZM47.473 64.3502C46.9131 63.7939 46.4686 63.1324 46.165 62.4038C45.8615 61.6752 45.7049 60.8938 45.7042 60.1045V57.3836H23V60.1159C23.0114 62.6803 25.0922 64.7542 27.6565 64.7576H47.9329C47.7664 64.6375 47.6123 64.501 47.4731 64.3501L47.473 64.3502Z" fill="white"></path><path d="M49.2458 37.493H41.0198C40.8417 37.49 40.6719 37.4171 40.547 37.2901C40.422 37.163 40.352 36.992 40.352 36.8138C40.352 36.6356 40.422 36.4646 40.547 36.3376C40.6719 36.2105 40.8417 36.1376 41.0198 36.1346H48.5016C47.8451 34.7117 47.5073 33.1626 47.5119 31.5956C47.5141 30.8388 47.5926 30.0842 47.7461 29.3428H29.4673L29.2876 56.025H46.4184C46.5038 56.0216 46.589 56.0359 46.6686 56.067C46.7482 56.098 46.8206 56.1452 46.8811 56.2056C46.9416 56.266 46.9889 56.3382 47.0202 56.4177C47.0514 56.4973 47.0659 56.5824 47.0627 56.6679V60.1051C47.0753 62.6751 49.1598 64.7529 51.7299 64.7575H51.7451C54.3053 64.7521 56.3773 62.6755 56.3773 60.1158V42.3704C54.9163 42.0938 53.5284 41.5176 52.301 40.6781C51.0737 39.8387 50.0334 38.7542 49.2458 37.4929V37.493ZM36.0373 52.6647C34.7211 52.6647 33.65 51.629 33.65 50.3558C33.65 49.0831 34.7211 48.0472 36.0373 48.0472C37.3537 48.0472 38.4252 49.0831 38.4252 50.3558C38.4252 51.629 37.354 52.6647 36.0373 52.6647ZM36.0373 45.9176C34.7211 45.9176 33.65 44.8821 33.65 43.6091C33.65 42.3361 34.7211 41.3005 36.0373 41.3005C37.3537 41.3005 38.4252 42.336 38.4252 43.6091C38.4252 44.8818 37.354 45.9176 36.0373 45.9176ZM36.0373 39.1709C34.7211 39.1709 33.65 38.135 33.65 36.8623C33.65 35.5893 34.7211 34.5534 36.0373 34.5534C37.3537 34.5534 38.4252 35.5889 38.4252 36.8619C38.4252 38.135 37.354 39.1709 36.0373 39.1709ZM51.3683 51.0767H41.0198C40.8417 51.0737 40.6719 51.0008 40.547 50.8738C40.422 50.7467 40.352 50.5757 40.352 50.3975C40.352 50.2193 40.422 50.0483 40.547 49.9213C40.6719 49.7942 40.8417 49.7213 41.0198 49.7183H51.3683C51.5464 49.7213 51.7163 49.7942 51.8412 49.9213C51.9661 50.0483 52.0361 50.2193 52.0361 50.3975C52.0361 50.5757 51.9661 50.7467 51.8412 50.8738C51.7163 51.0008 51.5464 51.0737 51.3683 51.0767ZM52.0475 43.6057C52.0475 43.9809 51.7435 44.2848 51.3683 44.2848H41.0198C40.8417 44.2818 40.6719 44.209 40.547 44.0819C40.422 43.9549 40.352 43.7838 40.352 43.6057C40.352 43.4275 40.422 43.2565 40.547 43.1294C40.6719 43.0024 40.8417 42.9295 41.0198 42.9265H51.3683C51.7435 42.9265 52.0475 43.2308 52.0475 43.6057Z" fill="white"></path></svg>