<?xml version="1.0" encoding="UTF-8"?>
<svg xmlns="http://www.w3.org/2000/svg" width="101" height="100" viewBox="0 0 101 100" fill="none">
  <path d="M0.333008 50C0.333008 22.3858 22.7188 0 50.333 0C77.9472 0 100.333 22.3858 100.333 50C100.333 77.6142 77.9472 100 50.333 100C22.7188 100 0.333008 77.6142 0.333008 50Z" fill="url(#paint0_linear_982_237)"></path>
  <path fill-rule="evenodd" clip-rule="evenodd" d="M55.5381 31.5605L49.9756 29.7529L44.4121 31.5605V38.2471C45.1162 40.7402 46.8779 41.752 48.9141 42.9219C49.2627 43.1221 49.6201 43.3271 49.9756 43.543C50.3311 43.3271 50.6885 43.1221 51.0361 42.9219C53.0732 41.752 54.835 40.7402 55.5381 38.2471V31.5605ZM37.5498 63.8496L39.2725 61.375C39.6504 60.832 39.5156 60.083 38.9727 59.7061C38.7109 59.5244 38.3926 59.4551 38.0762 59.5117C37.7598 59.5684 37.4844 59.7441 37.3027 60.0049L35.5811 62.4795C35.3994 62.7412 35.3301 63.0596 35.3867 63.376C35.4434 63.6924 35.6191 63.9668 35.8799 64.1494C36.1416 64.3311 36.46 64.3994 36.7764 64.3428C37.0938 64.2861 37.3682 64.1113 37.5498 63.8496ZM39.2842 67.6094C38.9063 68.1523 38.1572 68.2861 37.6143 67.9082C37.0713 67.5313 36.9375 66.7822 37.3145 66.2393L40.2344 62.0449V62.0439L41.4307 60.3252C41.6631 59.9902 42.0371 59.8105 42.417 59.8105C42.6533 59.8105 42.8926 59.8809 43.1006 60.0254C43.3623 60.207 43.5371 60.4814 43.5938 60.7988C43.6504 61.1152 43.582 61.4336 43.4004 61.6953L39.2842 67.6094ZM43.1436 68.3154L44.9385 65.7354C44.9385 65.7344 44.9395 65.7344 44.9404 65.7334L45.4033 65.0684C45.7812 64.5254 45.6465 63.7764 45.1035 63.3984C44.5605 63.0215 43.8115 63.1553 43.4336 63.6982L41.1748 66.9443C40.7969 67.4873 40.9316 68.2363 41.4746 68.6143C41.7363 68.7959 42.0547 68.8652 42.3711 68.8086C42.6865 68.752 42.9609 68.5762 43.1436 68.3154ZM47.8691 67.7744L46.5381 69.6875C46.1602 70.2305 45.4111 70.3652 44.8691 69.9873C44.3262 69.6094 44.1924 68.8604 44.5693 68.3174L45.9004 66.4043C46.2783 65.8613 47.0273 65.7275 47.5703 66.1055C48.1123 66.4834 48.2471 67.2324 47.8691 67.7744ZM60.4102 46.6211L68.4248 58.2656L72.1094 55.7295L64.0947 44.085L60.4102 46.6211ZM31.5254 58.1279L39.54 46.4834L35.8555 43.9473L27.8408 55.5928L31.5254 58.1279ZM40.6826 53.9131C40.6176 54.0074 40.5727 54.114 40.5505 54.2264C40.5283 54.3388 40.5294 54.4545 40.5537 54.5664C40.6025 54.7949 40.7402 54.9883 40.9404 55.1103C43.6143 56.7334 46.2861 56.126 48.8838 53.3066C48.9092 53.2793 48.9258 53.2725 48.9629 53.2744L51.6504 53.4561L62.7969 60.4746C63.4512 60.8867 63.6484 61.7549 63.2363 62.4092C62.8242 63.0635 61.9561 63.2607 61.3018 62.8486L54.5039 58.5684C54.2305 58.3965 53.8682 58.4785 53.6963 58.752C53.6135 58.8835 53.5863 59.0426 53.6207 59.1943C53.6551 59.3459 53.7484 59.4776 53.8799 59.5605L60.1885 63.5322C60.1885 63.5332 60.1895 63.5332 60.1895 63.5332C60.5049 63.7314 60.7236 64.043 60.8076 64.4102C60.8906 64.7764 60.8271 65.1523 60.6289 65.4678C60.4307 65.7822 60.1191 66.002 59.752 66.0859C59.3848 66.1689 59.0098 66.1055 58.6943 65.9072L57.5303 65.1748C57.5293 65.1738 57.5283 65.1738 57.5283 65.1729H57.5273L52.4512 61.9756C52.1777 61.8037 51.8154 61.8857 51.6436 62.1592C51.5607 62.2908 51.5335 62.4499 51.568 62.6015C51.6024 62.7531 51.6956 62.8849 51.8271 62.9678L56.9053 66.165C57.2207 66.3633 57.4395 66.6748 57.5234 67.041C57.6064 67.4082 57.543 67.7832 57.3447 68.0986C57.1445 68.417 56.8301 68.6377 56.46 68.7207C56.0947 68.8018 55.7236 68.7383 55.4141 68.54L51.1445 65.8145C50.8721 65.6406 50.5098 65.7207 50.335 65.9932C50.1611 66.2666 50.2412 66.6289 50.5137 66.8027L53.25 68.5498L53.2441 68.5586C53.8984 68.9707 54.0957 69.8389 53.6836 70.4932C53.2715 71.1475 52.4033 71.3447 51.749 70.9326L48.5156 68.8975L48.8311 68.4443C49.1914 67.9258 49.3291 67.2969 49.2168 66.6719C49.1045 66.0469 48.7578 65.5039 48.2393 65.1436C47.791 64.8311 47.2715 64.6963 46.7637 64.7236C46.8867 63.8633 46.5322 62.9658 45.7725 62.4365C45.4155 62.1873 44.9962 62.0422 44.5615 62.0176C45.0439 60.9912 44.7314 59.7324 43.7695 59.0635C42.6963 58.3164 41.2158 58.582 40.4688 59.6553L40.4385 59.6992C40.2646 59.3184 39.9941 58.9883 39.6426 58.7441C39.124 58.3828 38.4951 58.2461 37.8701 58.3584C37.2451 58.4707 36.7031 58.8174 36.3418 59.3359L35.6279 60.3613C34.6211 59.4209 33.8799 58.4805 33.375 57.5088L39.5361 48.5566C40.7715 49.3779 42.3662 49.7217 43.7148 49.8545C43.3599 50.1285 43.0507 50.4571 42.7988 50.8281L40.6826 53.9131ZM60.6367 49.0166L66.5059 57.543C65.6094 58.5137 64.4463 59.1641 63.2363 59.3672L52.1494 52.3857C52.0674 52.334 51.9736 52.3037 51.877 52.2969L49.042 52.1055C48.6504 52.0791 48.2881 52.2236 48.0215 52.5127C45.9277 54.7861 43.9062 55.3662 41.8516 54.2803L43.7646 51.4902C44.1875 50.874 44.7598 50.4639 45.6787 50.1211C47.7578 49.3457 49.8115 48.749 52.3359 48.1865C53.2676 47.9785 53.9912 48.041 54.6826 48.3877C56.3848 49.2412 58.3867 49.4512 60.6367 49.0166ZM46.7285 36.2354L48.7773 38.2852L53.2227 33.8398C53.3325 33.7301 53.4814 33.6685 53.6367 33.6685C53.792 33.6685 53.9409 33.7301 54.0508 33.8398C54.2793 34.0693 54.2793 34.4404 54.0508 34.6689L49.1914 39.5283C49.0811 39.6377 48.9326 39.6992 48.7773 39.6992C48.6221 39.6992 48.4727 39.6377 48.3633 39.5283L45.8994 37.0645C45.6709 36.8359 45.6709 36.4648 45.8994 36.2354C46.1279 36.0068 46.499 36.0068 46.7285 36.2354Z" fill="white"></path>
  <defs>
    <linearGradient id="paint0_linear_982_237" x1="50.333" y1="0" x2="50.333" y2="100" gradientUnits="userSpaceOnUse">
      <stop stop-color="#FAB8C4"></stop>
      <stop offset="1" stop-color="#FF5963"></stop>
    </linearGradient>
  </defs>
</svg>
