<svg xmlns="http://www.w3.org/2000/svg" width="81" height="80" viewBox="0 0 81 80" fill="none"><rect x="0.5" width="80" height="80" rx="40" fill="url(#paint0_linear_956_3450)"></rect><path d="M33.1002 36.0898C33.1759 36.1221 33.2432 36.1713 33.297 36.2336C33.3508 36.2959 33.3897 36.3697 33.4106 36.4493C33.4267 36.5144 35.1024 42.6843 40.1139 42.8321H40.1522C45.1631 42.6843 46.8394 36.5144 46.8555 36.4493C46.8764 36.3697 46.9151 36.296 46.9688 36.2337C47.0225 36.1714 47.0897 36.1222 47.1652 36.0898C48.6783 35.4374 48.9665 33.8048 48.945 32.5531C48.9467 32.1327 48.8003 31.7252 48.5317 31.4019C48.263 31.0786 47.8892 30.8601 47.4757 30.7847C47.3623 30.7641 47.246 30.7662 47.1335 30.791C47.021 30.8158 46.9145 30.8627 46.8204 30.9291C46.7262 30.9955 46.6462 31.0799 46.5849 31.1775C46.5237 31.2751 46.4825 31.3839 46.4638 31.4975V34.2072C46.4638 34.2787 46.4497 34.3495 46.4224 34.4155C46.395 34.4815 46.3549 34.5415 46.3044 34.592C46.2539 34.6426 46.1939 34.6827 46.1279 34.71C46.0618 34.7374 45.9911 34.7514 45.9196 34.7514C45.8481 34.7514 45.7774 34.7374 45.7113 34.71C45.6453 34.6827 45.5853 34.6426 45.5348 34.592C45.4842 34.5415 45.4441 34.4815 45.4168 34.4155C45.3895 34.3495 45.3754 34.2787 45.3754 34.2072V30.5562C45.3751 30.4516 45.3542 30.348 45.3139 30.2514C45.2735 30.1548 45.2145 30.0671 45.1403 29.9934C45.066 29.9196 44.9779 29.8612 44.8811 29.8215C44.7842 29.7819 44.6805 29.7617 44.5758 29.7621H44.4395C44.284 29.7683 44.1325 29.8131 43.9987 29.8924C42.7927 30.4494 41.4806 30.7391 40.1522 30.7417H40.1139C38.785 30.742 37.472 30.4522 36.2668 29.8924C36.1326 29.8138 35.9813 29.769 35.826 29.7621H35.6849C35.4743 29.7623 35.2723 29.846 35.1233 29.9949C34.9743 30.1437 34.8904 30.3456 34.8901 30.5562V34.2072C34.8901 34.3516 34.8328 34.49 34.7307 34.592C34.6286 34.6941 34.4902 34.7514 34.3459 34.7514C34.2015 34.7514 34.0631 34.6941 33.9611 34.592C33.859 34.49 33.8017 34.3516 33.8017 34.2072V31.4975C33.7834 31.3837 33.7424 31.2747 33.6813 31.1769C33.6202 31.0791 33.5402 30.9945 33.4459 30.9281C33.3516 30.8617 33.245 30.8149 33.1323 30.7904C33.0196 30.7659 32.9032 30.7642 32.7898 30.7854C32.3764 30.8607 32.0026 31.0791 31.734 31.4023C31.4654 31.7255 31.319 32.1328 31.3204 32.5531C31.2989 33.8048 31.5878 35.4374 33.1002 36.0898Z" fill="white"></path><path d="M33.9105 29.9307C34.0398 29.5635 34.2799 29.2455 34.5976 29.0204C34.9153 28.7954 35.2949 28.6745 35.6843 28.6743H35.8254C36.1641 28.6786 36.4959 28.7703 36.7888 28.9404C37.8404 29.4086 38.9783 29.6514 40.1294 29.6532H40.1516C41.2975 29.6525 42.4304 29.4099 43.476 28.9411C43.7686 28.7706 44.1002 28.6785 44.4388 28.6737H44.5752C44.9653 28.6737 45.3458 28.7946 45.6643 29.0197C45.9829 29.2448 46.224 29.5631 46.3543 29.9307C46.7397 29.7156 47.1865 29.637 47.6221 29.7077C47.6714 29.714 47.7203 29.723 47.7686 29.7345V28.636C47.7663 26.794 47.0336 25.028 45.7311 23.7255C44.4287 22.4229 42.6628 21.69 40.8208 21.6875H39.4434C37.6015 21.6902 35.8358 22.4231 34.5335 23.7257C33.2312 25.0283 32.4985 26.7941 32.4962 28.636V29.7345C32.5426 29.7225 32.5897 29.7135 32.6373 29.7077C33.0747 29.6344 33.524 29.7132 33.9105 29.9307ZM45.6683 42.0372L45.3042 41.4547C44.664 42.2028 43.8744 42.8086 42.986 43.2331C42.0977 43.6577 41.1304 43.8916 40.1462 43.9198H40.1193C39.1351 43.8911 38.1679 43.6569 37.2795 43.2324C36.3911 42.8079 35.6013 42.2024 34.9607 41.4547L34.5958 42.0372C34.2356 42.6049 33.7657 43.0951 33.2138 43.4791L39.2916 50.5741C39.3961 50.6952 39.5256 50.7924 39.6711 50.859C39.8166 50.9256 39.9747 50.9601 40.1348 50.9601C40.2948 50.9601 40.4529 50.9256 40.5984 50.859C40.7439 50.7924 40.8734 50.6952 40.978 50.5741L47.0557 43.4845C46.5007 43.1002 46.0289 42.608 45.6683 42.0372ZM27.648 49.0563C27.4142 50.7972 27.3591 53.4417 28.7411 55.0683C30.1232 53.4417 30.0687 50.7972 29.8349 49.0563C29.7995 48.7914 29.6691 48.5484 29.468 48.3724C29.2669 48.1964 29.0087 48.0994 28.7414 48.0994C28.4742 48.0994 28.216 48.1964 28.0149 48.3724C27.8138 48.5484 27.6834 48.7914 27.648 49.0563Z" fill="white"></path><path d="M55.5553 48.7023C55.3989 48.081 55.0953 47.5065 54.6701 47.0272C54.2449 46.548 53.7106 46.1782 53.1124 45.9489L51.2137 45.2307C51.3709 46.9776 51.3877 50.857 49.0805 54.127C49.1307 54.2685 49.1564 54.4176 49.1564 54.5677C49.1576 54.8457 49.0762 55.1179 48.9226 55.3496C48.769 55.5813 48.5501 55.7622 48.2936 55.8694C48.0371 55.9766 47.7545 56.0052 47.4817 55.9517C47.2089 55.8981 46.9581 55.7648 46.7612 55.5686C46.5642 55.3724 46.4299 55.1221 46.3753 54.8495C46.3207 54.5769 46.3483 54.2943 46.4545 54.0373C46.5607 53.7804 46.7407 53.5608 46.9719 53.4063C47.203 53.2518 47.4748 53.1694 47.7528 53.1696C47.9518 53.1684 48.1487 53.211 48.3293 53.2945C50.5499 49.9647 50.2119 45.9059 50.0654 44.7953L48.1506 44.067C48.1123 44.0502 48.0686 44.0334 48.0303 44.0179L41.8061 51.2809C41.5993 51.5216 41.343 51.7148 41.0546 51.8472C40.7663 51.9796 40.4528 52.0482 40.1355 52.0482C39.8182 52.0482 39.5046 51.9796 39.2163 51.8472C38.9279 51.7148 38.6716 51.5216 38.4648 51.2809L32.2406 44.0126C32.1979 44.0328 32.1542 44.0507 32.1096 44.0663L29.977 44.8773C29.199 45.3886 29.1775 46.4878 29.2259 47.0649C29.6609 47.1649 30.0552 47.3949 30.3564 47.7243C30.6576 48.0537 30.8515 48.467 30.9123 48.9092C31.3208 51.9346 30.8317 54.2909 29.5578 55.7865C29.7374 55.9057 29.9288 56.0061 30.1289 56.0862C30.2599 55.8973 30.435 55.7432 30.6389 55.637C30.8428 55.5308 31.0694 55.4758 31.2993 55.4768C31.5748 55.4761 31.8448 55.5541 32.0774 55.7018C32.31 55.8495 32.4955 56.0606 32.612 56.3103C32.7286 56.56 32.7713 56.8377 32.7351 57.1109C32.699 57.384 32.5854 57.6411 32.408 57.8519C32.2305 58.0626 31.9964 58.2182 31.7334 58.3003C31.4704 58.3823 31.1894 58.3875 30.9235 58.3151C30.6577 58.2427 30.4181 58.0958 30.233 57.8917C30.0479 57.6876 29.9251 57.4348 29.8789 57.1632C29.4749 57.0058 29.0927 56.7974 28.7415 56.543C28.3905 56.7973 28.0084 57.0057 27.6046 57.1632C27.5586 57.4346 27.4359 57.6872 27.251 57.8912C27.0662 58.0952 26.8269 58.2422 26.5614 58.3147C26.2958 58.3873 26.015 58.3825 25.7521 58.3009C25.4892 58.2192 25.2551 58.0641 25.0774 57.8539C24.8996 57.6437 24.7857 57.387 24.7489 57.1142C24.7122 56.8414 24.7541 56.5637 24.8699 56.314C24.9856 56.0642 25.1703 55.8527 25.4022 55.7044C25.6342 55.556 25.9036 55.4771 26.1789 55.4768C26.4097 55.4752 26.6373 55.5299 26.8422 55.6361C27.0471 55.7422 27.223 55.8967 27.3547 56.0862C27.5548 56.0061 27.7462 55.9057 27.9258 55.7865C26.6526 54.2902 26.1628 51.9346 26.5706 48.9092C26.6283 48.4887 26.8064 48.0938 27.0834 47.7723C27.3605 47.4508 27.7247 47.2163 28.1321 47.0972C28.0913 46.5685 28.1412 46.0367 28.2799 45.525L27.1531 45.9489C26.5542 46.1785 26.0194 46.5491 25.5941 47.0293C25.1688 47.5096 24.8656 48.0853 24.7102 48.7076L22.8545 59.3125H58.1454L55.5553 48.7023ZM47.7528 58.3383C46.7528 58.3383 45.7938 57.941 45.0866 57.2339C44.3795 56.5268 43.9823 55.5677 43.9823 54.5677C43.9823 53.5677 44.3795 52.6087 45.0866 51.9015C45.7938 51.1944 46.7528 50.7972 47.7528 50.7972C47.8243 50.7972 47.8951 50.8112 47.9611 50.8386C48.0271 50.8659 48.0871 50.906 48.1377 50.9566C48.1882 51.0071 48.2283 51.0671 48.2556 51.1331C48.283 51.1991 48.2971 51.2699 48.2971 51.3414C48.2971 51.4129 48.283 51.4836 48.2556 51.5496C48.2283 51.6157 48.1882 51.6757 48.1377 51.7262C48.0871 51.7767 48.0271 51.8168 47.9611 51.8442C47.8951 51.8715 47.8243 51.8856 47.7528 51.8856C47.2224 51.8857 46.7039 52.0432 46.2629 52.3379C45.8219 52.6327 45.4783 53.0517 45.2754 53.5418C45.0725 54.0319 45.0194 54.5712 45.123 55.0914C45.2266 55.6116 45.4821 56.0895 45.8572 56.4645C46.2323 56.8396 46.7102 57.0949 47.2305 57.1984C47.7508 57.3018 48.29 57.2486 48.7801 57.0456C49.2701 56.8426 49.689 56.4988 49.9837 56.0578C50.2783 55.6167 50.4356 55.0982 50.4356 54.5677C50.4356 54.4963 50.4497 54.4255 50.4771 54.3595C50.5044 54.2934 50.5445 54.2334 50.595 54.1829C50.6456 54.1324 50.7056 54.0923 50.7716 54.0649C50.8376 54.0376 50.9084 54.0235 50.9799 54.0235C51.0513 54.0235 51.1221 54.0376 51.1881 54.0649C51.2541 54.0923 51.3141 54.1324 51.3647 54.1829C51.4152 54.2334 51.4553 54.2934 51.4826 54.3595C51.51 54.4255 51.5241 54.4963 51.5241 54.5677C51.5235 55.5677 51.126 56.5265 50.4189 57.2336C49.7117 57.9406 48.7528 58.3379 47.7528 58.3383Z" fill="white"></path><defs><linearGradient id="paint0_linear_956_3450" x1="40.5" y1="0" x2="40.5" y2="80" gradientUnits="userSpaceOnUse"><stop stop-color="#8788FF"></stop><stop offset="1" stop-color="#5A5EFF"></stop></linearGradient></defs></svg>