<svg xmlns="http://www.w3.org/2000/svg" width="70" height="71" viewBox="0 0 70 71" fill="none"><g clip-path="url(#clip0_73_2089)"><path d="M46.4569 38.5039H64.1297V35.1903H61.9206V28.563H60.816V23.0402H58.6069V28.563H57.5024V35.1903H46.4569V38.5039ZM38.725 7.57653H36.5159V13.0772L38.725 12.6354V7.57653ZM43.1432 5.36743H40.9341V12.1935L43.1432 11.7517V5.36743ZM47.5614 7.57653H45.3523V11.3099L47.5614 10.8681V7.57653Z" fill="white"></path><path d="M40.658 64.3946C41.447 64.0729 42.2911 63.9079 43.1432 63.9086V38.504H44.2478V32.9812H51.9796V12.2378L32.0977 16.2142V61.979C33.6108 61.5892 35.2001 61.6074 36.7038 62.0317C38.2075 62.4561 39.5719 63.2714 40.658 64.3946ZM44.2478 19.7266H48.666V26.3539H44.2478V19.7266ZM35.4114 19.7266H39.8296V26.3539H35.4114V19.7266ZM35.4114 30.7721H39.8296V37.3994H35.4114V30.7721ZM35.4114 41.8176H39.8296V48.4449H35.4114V41.8176ZM35.4114 52.8631H39.8296V59.4904H35.4114V52.8631ZM51.9796 61.6995C52.7395 61.6995 53.4785 61.8023 54.1887 61.9856V45.1313H49.7705V61.9922C50.4914 61.8011 51.2338 61.7027 51.9796 61.6995ZM59.633 66.1177H59.7115C60.0859 66.1177 60.4515 66.1586 60.816 66.205V45.1313H56.3978V62.8803C57.7425 63.6557 58.8585 64.7725 59.633 66.1177Z" fill="white"></path><path d="M65.2342 68.0904V40.713H45.3523V64.3128C45.4429 64.3449 45.539 64.3592 45.6284 64.3957C46.1999 63.8079 46.8504 63.3027 47.5614 62.8946V42.9221H63.0251V66.7914C63.8205 67.1151 64.5646 67.5527 65.2342 68.0904Z" fill="white"></path><path d="M65.4375 71.6405C64.8581 70.634 64.0238 69.7978 63.0186 69.2161C62.0135 68.6345 60.8728 68.3277 59.7115 68.3268C59.23 68.3279 58.75 68.3812 58.28 68.4859C57.881 67.2567 57.1312 66.1711 56.1229 65.3627C55.1147 64.5543 53.892 64.0586 52.6054 63.9365C51.3189 63.8144 50.0247 64.0713 48.8824 64.6755C47.7401 65.2798 46.7994 66.205 46.1763 67.3371C45.3844 66.5861 44.3207 66.1177 43.1432 66.1177C41.9658 66.1177 40.9021 66.5861 40.1101 67.3371C39.4819 66.1993 38.5331 65.2713 37.3817 64.6684C36.2303 64.0655 34.9271 63.8143 33.6341 63.9462C32.3411 64.078 31.1153 64.5869 30.1093 65.4098C29.1032 66.2327 28.3612 67.3331 27.9756 68.5742C27.5252 68.4163 27.0522 68.3327 26.575 68.3268L26.0062 68.3666C25.4787 67.4341 24.6305 66.7251 23.6193 66.3714C22.6081 66.0176 21.5029 66.0434 20.5092 66.4437C19.5156 66.8441 18.7013 67.5918 18.2178 68.5478C17.7343 69.5038 17.6147 70.6029 17.8811 71.6405H15.6333C15.5678 71.2759 15.533 70.9064 15.5295 70.5359C15.5295 66.881 18.5018 63.9086 22.1568 63.9086C23.9241 63.9086 25.5953 64.6177 26.8213 65.8283C27.5857 64.6078 28.6393 63.5944 29.8886 62.8781V23.0403H14.4249V34.7264C15.2126 35.0341 15.9555 35.4457 16.634 35.9503V34.0858H18.8431V36.2949H17.056C17.4636 36.6351 17.8557 37.0007 18.2158 37.4127C19.5607 37.4871 20.8722 37.8599 22.0552 38.504H23.2613V39.2783C25.92 41.262 27.6795 44.6265 27.6795 48.4449C27.6795 53.2431 24.9071 57.3244 21.0522 58.8465V60.7176L14.4249 68.4483V71.6405H12.2158V67.6299L18.8431 59.8991V57.1808C22.5832 56.5645 25.4704 52.8874 25.4704 48.4449C25.4704 43.5728 22.0011 39.6085 17.7386 39.6085C17.5486 39.6085 17.3542 39.6207 17.1576 39.6395C15.7394 37.6049 13.5579 36.2949 11.1113 36.2949C6.84884 36.2949 3.37945 40.2591 3.37945 45.1313C3.37945 49.5738 6.26674 53.2508 10.0067 53.8672V44.0267H12.2158V54.6061C13.3999 55.9978 14.9485 56.8992 16.634 57.1797V59.0817L12.2158 64.2367V54.6061C12.0306 54.3905 11.8559 54.166 11.6923 53.9334C11.5001 53.95 11.3079 53.9677 11.1113 53.9677C10.7358 53.9677 10.369 53.9268 10.0067 53.8672V55.3064C9.08224 54.4702 7.93682 53.9677 6.6931 53.9677C3.64785 53.9677 1.17035 56.94 1.17035 60.595C1.17035 63.796 3.07128 66.4723 5.58855 67.0886V71.6405H1.17035V73.8496H69.6524V71.6405H65.4375ZM18.8431 31.8767H16.634V29.6676H18.8431V31.8767ZM18.8431 27.4585H16.634V25.2494H18.8431V27.4585ZM23.2613 36.2949H21.0522V34.0858H23.2613V36.2949ZM23.2613 31.8767H21.0522V29.6676H23.2613V31.8767ZM23.2613 27.4585H21.0522V25.2494H23.2613V27.4585ZM25.4704 25.2494H27.6795V27.4585H25.4704V25.2494ZM25.4704 29.6676H27.6795V31.8767H25.4704V29.6676ZM25.4704 34.0858H27.6795V36.2949H25.4704V34.0858ZM25.4704 40.7131V38.504H27.6795V40.7131H25.4704ZM7.79765 67.0886C8.61501 66.8887 9.3639 66.4657 10.0067 65.8847V71.6405H7.79765V67.0886Z" fill="white"></path></g><defs><clipPath id="clip0_73_2089"><rect width="70" height="70" fill="white" transform="translate(0 0.438965)"></rect></clipPath></defs></svg>