<svg xmlns="http://www.w3.org/2000/svg" width="90" height="90" viewBox="0 0 90 90" fill="none"><path d="M0 12C0 5.37258 5.37258 0 12 0H78C84.6274 0 90 5.37258 90 12V78C90 84.6274 84.6274 90 78 90H12C5.37258 90 0 84.6274 0 78V12Z" fill="#E9F8FF"></path><path d="M53.0312 44.4375H65.5312V42.0938H63.9688V37.4062H63.1875V33.5H61.625V37.4062H60.8438V42.0938H53.0312V44.4375ZM47.5625 22.5625H46V26.4531L47.5625 26.1406V22.5625ZM50.6875 21H49.125V25.8281L50.6875 25.5156V21ZM53.8125 22.5625H52.25V25.2031L53.8125 24.8906V22.5625Z" fill="url(#paint0_linear_956_3272)"></path><path d="M48.9297 62.75C49.4878 62.5225 50.0848 62.4057 50.6875 62.4062V44.4375H51.4688V40.5313H56.9375V25.8594L42.875 28.6719V61.0414C43.9452 60.7657 45.0693 60.7786 46.1329 61.0787C47.1965 61.3788 48.1615 61.9555 48.9297 62.75ZM51.4688 31.1562H54.5938V35.8438H51.4688V31.1562ZM45.2188 31.1562H48.3438V35.8438H45.2188V31.1562ZM45.2188 38.9688H48.3438V43.6562H45.2188V38.9688ZM45.2188 46.7812H48.3438V51.4688H45.2188V46.7812ZM45.2188 54.5938H48.3438V59.2812H45.2188V54.5938ZM56.9375 60.8438C57.475 60.8438 57.9977 60.9164 58.5 61.0461V49.125H55.375V61.0508C55.8849 60.9156 56.41 60.846 56.9375 60.8438ZM62.3508 63.9688H62.4062C62.6711 63.9688 62.9297 63.9977 63.1875 64.0305V49.125H60.0625V61.6789C61.0136 62.2274 61.803 63.0173 62.3508 63.9688Z" fill="url(#paint1_linear_956_3272)"></path><path d="M66.3125 65.3641V46H52.25V62.6922C52.3141 62.7148 52.382 62.725 52.4453 62.7508C52.8495 62.3351 53.3096 61.9777 53.8125 61.6891V47.5625H64.75V64.4453C65.3126 64.6742 65.8389 64.9837 66.3125 65.3641Z" fill="url(#paint2_linear_956_3272)"></path><path d="M66.4562 67.875C66.0464 67.1631 65.4564 66.5717 64.7454 66.1603C64.0344 65.7488 63.2277 65.5319 62.4062 65.5312C62.0657 65.532 61.7262 65.5697 61.3937 65.6437C61.1116 64.7743 60.5812 64.0065 59.8681 63.4347C59.1549 62.863 58.2901 62.5123 57.3801 62.426C56.4702 62.3396 55.5548 62.5213 54.7468 62.9487C53.9388 63.3761 53.2735 64.0305 52.8328 64.8312C52.2727 64.3 51.5203 63.9688 50.6875 63.9688C49.8547 63.9688 49.1023 64.3 48.5422 64.8312C48.0979 64.0265 47.4268 63.3701 46.6124 62.9436C45.798 62.5172 44.8762 62.3396 43.9617 62.4328C43.0471 62.526 42.1802 62.886 41.4686 63.468C40.757 64.05 40.2322 64.8284 39.9594 65.7062C39.6409 65.5945 39.3063 65.5354 38.9688 65.5312L38.5664 65.5594C38.1934 64.8999 37.5934 64.3983 36.8782 64.1481C36.163 63.898 35.3812 63.9161 34.6784 64.1993C33.9756 64.4825 33.3997 65.0114 33.0577 65.6876C32.7157 66.3637 32.6311 67.1411 32.8195 67.875H31.2297C31.1833 67.6171 31.1587 67.3558 31.1562 67.0938C31.1562 64.5086 33.2586 62.4062 35.8438 62.4062C37.0938 62.4062 38.2758 62.9078 39.143 63.7641C39.6836 62.9007 40.4288 62.184 41.3125 61.6773V33.5H30.375V41.7656C30.9321 41.9832 31.4576 42.2744 31.9375 42.6312V41.3125H33.5V42.875H32.2359C32.5242 43.1156 32.8016 43.3742 33.0562 43.6656C34.0075 43.7182 34.9351 43.9819 35.7719 44.4375H36.625V44.9852C38.5055 46.3883 39.75 48.768 39.75 51.4688C39.75 54.8625 37.7891 57.7492 35.0625 58.8258V60.1492L30.375 65.6172V67.875H28.8125V65.0383L33.5 59.5703V57.6477C36.1453 57.2117 38.1875 54.6109 38.1875 51.4688C38.1875 48.0227 35.7336 45.2188 32.7188 45.2188C32.5844 45.2188 32.4469 45.2273 32.3078 45.2406C31.3047 43.8016 29.7617 42.875 28.0312 42.875C25.0164 42.875 22.5625 45.6789 22.5625 49.125C22.5625 52.2672 24.6047 54.868 27.25 55.3039V48.3438H28.8125V55.8266C29.65 56.8109 30.7453 57.4484 31.9375 57.6469V58.9922L28.8125 62.6383V55.8266C28.6815 55.674 28.5579 55.5153 28.4422 55.3508C28.3063 55.3625 28.1703 55.375 28.0312 55.375C27.7656 55.375 27.5062 55.3461 27.25 55.3039V56.3219C26.5961 55.7305 25.7859 55.375 24.9062 55.375C22.7523 55.375 21 57.4773 21 60.0625C21 62.3266 22.3445 64.2195 24.125 64.6555V67.875H21V69.4375H69.4375V67.875H66.4562ZM33.5 39.75H31.9375V38.1875H33.5V39.75ZM33.5 36.625H31.9375V35.0625H33.5V36.625ZM36.625 42.875H35.0625V41.3125H36.625V42.875ZM36.625 39.75H35.0625V38.1875H36.625V39.75ZM36.625 36.625H35.0625V35.0625H36.625V36.625ZM38.1875 35.0625H39.75V36.625H38.1875V35.0625ZM38.1875 38.1875H39.75V39.75H38.1875V38.1875ZM38.1875 41.3125H39.75V42.875H38.1875V41.3125ZM38.1875 46V44.4375H39.75V46H38.1875ZM25.6875 64.6555C26.2656 64.5141 26.7953 64.2148 27.25 63.8039V67.875H25.6875V64.6555Z" fill="url(#paint3_linear_956_3272)"></path><defs><linearGradient id="paint0_linear_956_3272" x1="55.7656" y1="21" x2="55.7656" y2="44.4375" gradientUnits="userSpaceOnUse"><stop stop-color="#29B7FF"></stop><stop offset="1" stop-color="#368AFF"></stop></linearGradient><linearGradient id="paint1_linear_956_3272" x1="53.0312" y1="25.8594" x2="53.0313" y2="64.0305" gradientUnits="userSpaceOnUse"><stop stop-color="#29B7FF"></stop><stop offset="1" stop-color="#368AFF"></stop></linearGradient><linearGradient id="paint2_linear_956_3272" x1="59.2812" y1="46" x2="59.2812" y2="65.3641" gradientUnits="userSpaceOnUse"><stop stop-color="#29B7FF"></stop><stop offset="1" stop-color="#368AFF"></stop></linearGradient><linearGradient id="paint3_linear_956_3272" x1="45.2188" y1="33.5" x2="45.2188" y2="69.4375" gradientUnits="userSpaceOnUse"><stop stop-color="#29B7FF"></stop><stop offset="1" stop-color="#368AFF"></stop></linearGradient></defs></svg>