<?xml version="1.0" encoding="UTF-8"?>
<svg xmlns="http://www.w3.org/2000/svg" width="92" height="92" viewBox="0 0 92 92" fill="none">
  <circle cx="46" cy="46" r="46" fill="white"></circle>
  <circle cx="46" cy="46" r="36" fill="url(#paint0_linear_982_223)"></circle>
  <path fill-rule="evenodd" clip-rule="evenodd" d="M37.0828 25.8203H49.9297V29.4498C49.9297 30.4662 50.7553 31.2917 51.7717 31.2917H55.4011V49.1457C55.4009 49.2739 55.3498 49.3969 55.2591 49.4876C55.1684 49.5783 55.0455 49.6293 54.9172 49.6296H37.0828C36.9545 49.6293 36.8316 49.5783 36.7409 49.4876C36.6502 49.3969 36.5991 49.2739 36.5989 49.1457V26.3042C36.5991 26.1759 36.6502 26.053 36.7409 25.9623C36.8316 25.8716 36.9545 25.8206 37.0828 25.8203ZM51.5297 25.8623V29.4499C51.5299 29.514 51.5554 29.5755 51.6008 29.6208C51.6461 29.6662 51.7076 29.6917 51.7717 29.6918H55.3593C55.3348 29.6389 55.301 29.5909 55.2595 29.55L51.6715 25.9621C51.6306 25.9206 51.5826 25.8868 51.5297 25.8623ZM50.8421 39.7756H41.158C40.9872 39.7756 40.8234 39.8434 40.7026 39.9642C40.5819 40.0849 40.514 40.2487 40.514 40.4195C40.514 40.5903 40.5819 40.7541 40.7026 40.8748C40.8234 40.9956 40.9872 41.0634 41.158 41.0634H50.8421C51.0111 41.0607 51.1723 40.9917 51.2908 40.8712C51.4094 40.7508 51.4758 40.5885 51.4758 40.4195C51.4758 40.2505 51.4094 40.0882 51.2908 39.9677C51.1723 39.8473 51.0111 39.7782 50.8421 39.7756ZM50.8421 45.6663H41.158C40.9884 45.6682 40.8265 45.7369 40.7073 45.8574C40.5881 45.978 40.5213 46.1407 40.5213 46.3102C40.5213 46.4797 40.5881 46.6424 40.7073 46.763C40.8265 46.8835 40.9884 46.9522 41.158 46.9541H50.8421C51.0116 46.9522 51.1735 46.8835 51.2927 46.763C51.4119 46.6424 51.4788 46.4797 51.4788 46.3102C51.4788 46.1407 51.4119 45.978 51.2927 45.8574C51.1735 45.7369 51.0116 45.6682 50.8421 45.6663ZM50.8421 42.7209H41.158C40.9872 42.7209 40.8234 42.7887 40.7026 42.9095C40.5819 43.0303 40.514 43.194 40.514 43.3648C40.514 43.5356 40.5819 43.6994 40.7026 43.8202C40.8234 43.9409 40.9872 44.0088 41.158 44.0088H50.8421C51.0129 44.0088 51.1767 43.9409 51.2974 43.8202C51.4182 43.6994 51.486 43.5356 51.486 43.3648C51.486 43.194 51.4182 43.0303 51.2974 42.9095C51.1767 42.7887 51.0129 42.7209 50.8421 42.7209ZM44.8892 29.8924C44.825 29.8925 44.7635 29.9181 44.7182 29.9634C44.6728 30.0087 44.6473 30.0702 44.6472 30.1343V31.927H42.8545C42.7903 31.9272 42.7289 31.9527 42.6835 31.9981C42.6382 32.0434 42.6126 32.1049 42.6125 32.169V34.3909C42.6126 34.455 42.6382 34.5165 42.6835 34.5618C42.7289 34.6072 42.7903 34.6327 42.8545 34.6328H44.6472V36.4256C44.6473 36.4897 44.6728 36.5512 44.7182 36.5965C44.7635 36.6418 44.825 36.6674 44.8892 36.6675H47.1109C47.175 36.6674 47.2365 36.6418 47.2819 36.5965C47.3272 36.5512 47.3528 36.4897 47.3529 36.4256V34.6328H49.1456C49.2097 34.6327 49.2712 34.6072 49.3166 34.5619C49.3619 34.5165 49.3875 34.455 49.3876 34.3909V32.169C49.3875 32.1049 49.3619 32.0434 49.3166 31.998C49.2712 31.9527 49.2097 31.9272 49.1456 31.927H47.3529V30.1344C47.3528 30.0703 47.3272 30.0088 47.2819 29.9635C47.2365 29.9181 47.175 29.8926 47.1109 29.8925L44.8892 29.8924ZM36.9398 66.1797H55.0261C55.5783 66.1797 56.026 65.732 56.026 65.1797C56.026 64.6275 55.5783 64.1798 55.0261 64.1798H51.1725C50.8829 62.6573 50.7424 60.9723 50.8693 59.4603H62.8541C64.4147 59.4603 65.6797 58.1953 65.6797 56.6347V34.0412C65.6797 32.4806 64.4147 31.2156 62.8542 31.2156H57.0012V32.9756H62.8542C63.4434 32.9756 63.9198 33.452 63.9198 34.0412V53.3698H28.0803V34.0412C28.0803 33.452 28.5567 32.9756 29.146 32.9756H34.9989V31.2156H29.146C27.5853 31.2156 26.3203 32.4806 26.3203 34.0412V56.6347C26.3203 58.1953 27.5853 59.4603 29.146 59.4603H41.0402C41.1701 60.9722 41.0504 62.6573 40.7818 64.1798H36.9398C36.3874 64.1798 35.9398 64.6275 35.9398 65.1797C35.9398 65.732 36.3875 66.1797 36.9398 66.1797Z" fill="white"></path>
  <defs>
    <linearGradient id="paint0_linear_982_223" x1="46" y1="10" x2="46" y2="82" gradientUnits="userSpaceOnUse">
      <stop stop-color="#FF81F1"></stop>
      <stop offset="1" stop-color="#FF41B2"></stop>
    </linearGradient>
  </defs>
</svg>
