<?xml version="1.0" encoding="UTF-8"?>
<svg xmlns="http://www.w3.org/2000/svg" width="92" height="92" viewBox="0 0 92 92" fill="none">
  <circle cx="46" cy="46" r="46" fill="white"></circle>
  <circle cx="46" cy="46" r="36" fill="url(#paint0_linear_982_213)"></circle>
  <path d="M56.3687 31.341H35.623C36.7141 30.4223 38.0348 29.766 39.4375 29.4953C41.1273 29.1672 42.5465 28.0187 43.2191 26.4355L43.818 25.041H48.1902L48.7891 26.4355C49.4617 28.0187 50.8809 29.1672 52.5789 29.4953C53.9652 29.7742 55.2859 30.4141 56.3687 31.341ZM64.8262 36.5664V62.7344C64.8262 65.0641 62.9312 66.9672 60.5934 66.9672H31.3984C29.0688 66.9672 27.1738 65.0723 27.1738 62.7344V36.5664C27.1738 34.2367 29.0688 32.3336 31.3984 32.3336H60.6016C62.9312 32.3418 64.8262 34.2367 64.8262 36.5664ZM62.8574 36.9027C62.8574 35.4508 61.6762 34.2777 60.2324 34.2777H31.7676C30.3156 34.2777 29.1426 35.459 29.1426 36.9027V62.4145C29.1426 63.8664 30.3238 65.0394 31.7676 65.0394H60.2324C61.6762 65.0394 62.8574 63.8582 62.8574 62.4145V36.9027ZM61.8566 36.9027V62.4145C61.8566 63.3168 61.1266 64.0387 60.2324 64.0387H31.7676C30.8734 64.0387 30.1434 63.3086 30.1434 62.4145V36.9027C30.1434 36.0004 30.8816 35.2785 31.7676 35.2785H60.2324C61.1266 35.2703 61.8566 36.0004 61.8566 36.9027ZM59.1988 45.0812L58.1324 43.4406C57.0414 41.7754 55.3023 40.6105 53.35 40.2414L47.4848 39.1176L47.3617 37.2309C47.3125 36.4926 46.7219 35.902 45.9918 35.8527C45.1797 35.7953 44.4742 36.4187 44.4168 37.2309L44.2855 39.1668L38.6582 40.2496C36.7059 40.6187 34.9586 41.7918 33.8758 43.4488L32.8094 45.0812C32.4156 45.6391 32.5961 46.4922 33.1621 46.8367C33.7199 47.2305 34.573 47.0582 34.934 46.4758L36.0086 44.8352C36.7223 43.7441 37.8625 42.9812 39.1422 42.7434L44.1133 41.7918L43.9164 44.7203L39.5441 45.557C37.7887 45.8934 36.2219 46.9434 35.2457 48.4281L34.3105 49.8637C33.7527 50.6758 34.3926 51.857 35.377 51.8406C35.8117 51.8406 36.2137 51.6191 36.4434 51.2582L37.3785 49.8227C37.9855 48.9039 38.9535 48.2559 40.0281 48.0508L43.7523 47.3453L43.5555 50.2656C42.1035 50.5937 39.4785 50.8152 38.2727 51.7504C37.2227 52.3902 36.468 53.6289 35.8199 54.6461C35.2539 55.4582 35.902 56.6395 36.8863 56.623C37.3129 56.623 37.7148 56.4016 37.9527 56.0406L38.7648 54.8102C39.257 54.0555 40.0445 53.5305 40.9223 53.3582L43.3832 52.8906L43.1863 55.8109L41.3242 56.1637C39.9625 56.4262 38.7484 57.2383 37.9937 58.3949L37.3211 59.4285C36.7469 60.2324 37.4031 61.4301 38.3875 61.4055C39.2816 61.4629 39.7 60.3883 40.1266 59.7977C40.5121 59.2152 41.1191 58.8051 41.8082 58.6738L43.0141 58.4441C43.0059 58.7477 42.8582 60.3719 42.891 60.6508C42.9977 62.2422 44.3266 63.4644 45.9016 63.4644C47.6078 63.5055 49.068 61.9305 48.9121 60.2406L48.7891 58.3949L50.2328 58.6656C50.9137 58.7969 51.5289 59.207 51.9062 59.7895C52.341 60.3883 52.7512 61.4465 53.6535 61.3973C54.6379 61.4301 55.2859 60.2242 54.7199 59.4203L54.0473 58.3949C53.2926 57.2383 52.0785 56.4262 50.7168 56.1637L48.625 55.7617L48.4281 52.8414L51.127 53.3582C52.0129 53.5305 52.7922 54.0555 53.2926 54.8102L54.1047 56.0406C54.3426 56.4016 54.7445 56.623 55.1711 56.623C56.1473 56.6395 56.7953 55.4582 56.2375 54.6461L55.4254 53.4074C54.5559 52.0867 53.1695 51.1516 51.6109 50.8562L48.2559 50.2246L48.059 47.2961L52.0129 48.0508C53.0957 48.2559 54.0555 48.9039 54.6625 49.8227L55.5977 51.2582C55.8355 51.6191 56.2293 51.8406 56.6641 51.8406C57.6484 51.8652 58.2965 50.6676 57.7305 49.8637L56.7953 48.4281C55.8191 46.9352 54.2441 45.8934 52.4969 45.557L47.8949 44.6793L47.698 41.7508L52.907 42.7516C54.1867 42.9895 55.327 43.7523 56.0406 44.8434L57.107 46.484C57.6812 47.4273 59.2316 47.1238 59.4203 46.041C59.4531 45.7047 59.3875 45.3602 59.1988 45.0812ZM38.8141 58.9445C38.6828 59.1906 38.002 60.0602 38.1004 60.1832C38.1332 60.4129 38.4695 60.4785 38.5926 60.2816L39.2734 59.248C39.8066 58.4359 40.6516 57.8781 41.5949 57.6977L43.0551 57.4187C43.0633 57.3039 43.0879 56.9758 43.0961 56.8527L41.4965 57.1562C40.3973 57.3613 39.4211 58.0094 38.8141 58.9445ZM50.4051 57.6895C51.3566 57.8699 52.2016 58.4359 52.7348 59.2398L53.4074 60.2734C53.5469 60.4703 53.8668 60.4129 53.9078 60.175C53.9242 60.1012 53.9078 60.0273 53.8668 59.9699L53.1859 58.9363C52.5789 58.0094 51.6027 57.3531 50.5117 57.1398L48.666 56.7871L48.707 57.3531L50.4051 57.6895ZM43.9164 59.5269C43.9082 59.732 43.8344 60.3719 43.859 60.5687C44.1133 63.2184 48.0098 62.9559 47.8949 60.298L47.8375 59.5269C46.5742 59.2973 45.2207 59.2973 43.9164 59.5269ZM44.1871 55.5402C44.1379 56.2703 44.0395 57.7633 43.9902 58.5016C45.2535 58.3047 46.5496 58.3047 47.7883 58.4934C47.7391 57.7715 47.6324 56.2703 47.5914 55.5402C46.443 55.368 45.2945 55.368 44.1871 55.5402ZM51.291 52.382C52.4312 52.5953 53.4566 53.2844 54.0965 54.2605L54.9086 55.491C54.9906 55.6141 55.1465 55.6633 55.2859 55.573C55.4172 55.491 55.45 55.3187 55.368 55.1957L54.5641 53.9652C53.8422 52.866 52.6855 52.0949 51.3895 51.8406L48.2969 51.25L48.3379 51.816L51.291 52.382ZM47.5094 54.523L47.3289 51.7832L47.3125 51.5453C46.3938 51.4223 45.393 51.4223 44.4578 51.5535L44.2609 54.523C45.3191 54.3754 46.4184 54.3754 47.5094 54.523ZM37.4441 53.957L36.632 55.1875C36.4434 55.4992 36.8945 55.7781 37.0996 55.491L37.9035 54.2605C38.5434 53.2844 39.5688 52.5953 40.7172 52.382L43.4324 51.8652L43.4652 51.3074V51.291L40.6105 51.8324C39.3145 52.0867 38.1578 52.8578 37.4441 53.957ZM36.0742 48.9695L35.1391 50.4051C34.934 50.7086 35.4098 51.0039 35.5902 50.7086L36.5336 49.273C37.2883 48.1328 38.4859 47.3289 39.823 47.0664L43.8016 46.3035L43.8426 45.7457L39.7246 46.5332C38.2316 46.8121 36.9027 47.7062 36.0742 48.9695ZM52.1688 47.0664C53.5059 47.3289 54.7117 48.1328 55.4664 49.273L56.4016 50.7086C56.4836 50.8316 56.6477 50.8727 56.7789 50.7906C56.902 50.7086 56.943 50.5363 56.8609 50.4051L55.9258 48.9695C55.0973 47.698 53.7602 46.8121 52.2672 46.525L47.9195 45.6965L47.9523 46.2625L52.1688 47.0664ZM57.2875 43.9902C56.3523 42.5547 54.843 41.5457 53.1531 41.2176L47.5422 40.143L47.5832 40.709L53.0465 41.7508C54.5887 42.0461 55.9668 42.9648 56.8281 44.2855L57.9027 45.9262C58.0422 46.123 58.3621 46.0574 58.3949 45.8277C58.4113 45.7539 58.3949 45.6883 58.3539 45.6309L57.2875 43.9902ZM44.2117 40.1922L38.8387 41.2176C37.1488 41.5457 35.6395 42.5547 34.7043 43.9902L33.6379 45.6309C33.4328 45.9344 33.9086 46.2297 34.0891 45.9344L35.1637 44.2937C36.025 42.973 37.4031 42.0543 38.9453 41.759L44.1789 40.7582C44.1789 40.7254 44.2117 40.2086 44.2117 40.1922ZM46.443 38.609L46.3527 37.2965C46.3363 37.0586 46.1477 36.8699 45.9098 36.8535C45.6473 36.8371 45.4176 37.034 45.4094 37.2965L45.3191 38.609C45.6883 38.5844 46.0656 38.5844 46.443 38.609ZM46.7137 42.5711C46.6645 41.8492 46.566 40.3316 46.5168 39.618C46.082 39.5934 45.6637 39.5934 45.2535 39.618L45.0566 42.5711C45.6145 42.5383 46.1805 42.5383 46.7137 42.5711ZM46.9844 46.5578C46.9598 46.3117 46.8613 44.7613 46.8367 44.4824H46.8449L46.7875 43.5883C46.2215 43.5473 45.6062 43.5473 44.991 43.5965C44.9336 44.4742 44.8516 45.6801 44.7941 46.5578C45.4914 46.484 46.2297 46.484 46.9844 46.5578ZM47.2469 50.5281C47.2223 50.2164 47.0746 47.9277 47.05 47.5586C46.2461 47.4766 45.4586 47.4766 44.7203 47.5586L44.548 50.0687H44.5562L44.5234 50.5363C45.4258 50.4379 46.3609 50.4297 47.2469 50.5281Z" fill="white"></path>
  <defs>
    <linearGradient id="paint0_linear_982_213" x1="46" y1="10" x2="46" y2="82" gradientUnits="userSpaceOnUse">
      <stop stop-color="#8DD1FF"></stop>
      <stop offset="1" stop-color="#359BFF"></stop>
    </linearGradient>
  </defs>
</svg>
