<?xml version="1.0" encoding="UTF-8"?>
<svg xmlns="http://www.w3.org/2000/svg" width="92" height="92" viewBox="0 0 92 92" fill="none">
  <circle cx="46" cy="46" r="46" fill="white"></circle>
  <circle cx="46" cy="46" r="36" fill="url(#paint0_linear_982_167)"></circle>
  <path d="M47.7822 45.8728C48.164 46.3183 48.4186 46.891 48.4186 47.5273V48.291H52.0459C51.9186 47.591 51.9822 47.3364 51.9822 45.8728H47.7822ZM66.364 47.0819C66.364 46.4455 65.855 45.8728 65.155 45.8728H60.3822C60.3822 47.2728 60.4459 47.591 60.3186 48.291H61.4004V54.0183H58.0913C58.0913 54.3364 58.0913 54.591 58.0277 54.9092H61.4004V56.5001C60.1277 56.691 59.1095 57.8364 59.1095 59.1728C59.1095 60.7001 60.3186 61.9092 61.8459 61.9092C63.3731 61.9092 64.5822 60.7001 64.5822 59.1728C64.5822 57.8364 63.6277 56.691 62.2913 56.5001V51.8546H62.355C63.055 51.8546 64.3277 51.4092 65.0277 50.5819C65.5368 49.9455 65.7913 49.1819 65.7277 48.2273C66.0459 48.0364 66.364 47.591 66.364 47.0819ZM63.6277 59.1092C63.6277 60.1273 62.8004 60.9546 61.7822 60.9546C60.764 60.9546 59.9368 60.1273 59.9368 59.1092C59.9368 58.2819 60.5095 57.5183 61.3368 57.3273V58.9183C61.3368 59.1728 61.5277 59.3637 61.7822 59.3637C62.0368 59.3637 62.2277 59.1728 62.2277 58.9183V57.3273C63.055 57.5819 63.6277 58.2819 63.6277 59.1092ZM62.2277 51.2183V48.2273H65.0277C65.0913 50.0728 64.0095 51.0273 62.2277 51.2183ZM48.4186 54.8455H53.1913V53.9546H48.4186V54.8455Z" fill="white"></path>
  <path d="M45.8731 45.2363L45.9367 44.5363L46.1913 40.7817C46.6367 41.6726 47.0822 43.009 47.1458 44.6636C47.2095 45.8726 48.9913 45.7454 48.9276 44.5999C48.7367 40.3999 46.6367 38.109 46.5095 37.9817C44.2822 35.5636 40.464 34.9272 36.8367 37.7908C34.9276 39.4454 34.9913 43.709 35.3095 46.3181C35.3731 46.7636 35.7549 47.1454 36.2004 47.1454C36.7095 47.1454 37.1549 46.6999 37.0913 46.1272C36.9004 44.8545 36.9004 43.0726 37.0913 41.6726C37.2185 40.8454 37.4095 40.2726 37.6004 39.8908C37.8549 40.209 37.9185 40.6545 37.7913 41.0999C37.3458 42.6908 37.4731 44.4726 37.664 45.8726C37.8549 48.2908 34.9276 48.2908 34.6731 46.4454C34.6731 46.2545 34.6095 46.0636 34.6095 45.8726H26.8458C25.4458 45.8726 25.1913 47.909 26.5276 48.2272C26.464 50.3272 27.8004 51.5999 29.7731 51.7908V56.4363C28.5004 56.6272 27.4822 57.7726 27.4822 59.109C27.4822 60.6363 28.6913 61.8454 30.2185 61.8454C31.7458 61.8454 32.9549 60.6363 32.9549 59.109C32.9549 57.7726 31.9367 56.6272 30.664 56.4363V54.8454H40.1458V53.9545H30.664V48.2272H38.6185C38.7458 48.3545 38.6822 48.2908 40.7185 50.1999V56.8181C40.7185 57.8363 41.5458 58.5999 42.5004 58.5999C43.5185 58.5999 44.2822 57.7726 44.2822 56.8181C44.2822 48.8636 44.4095 48.9272 43.8367 48.2272H44.5367C44.9185 48.9272 44.8549 56.7545 44.8549 56.8181C44.8549 57.1363 44.7913 57.3908 44.7276 57.6454C45.0458 57.9636 45.4913 58.0908 45.9367 58.0908C46.9549 58.0908 47.7185 57.2636 47.7185 56.309V47.4636C47.8458 46.1272 46.5095 45.809 45.8731 45.2363ZM32.064 59.109C32.064 60.1272 31.2367 60.9545 30.2185 60.9545C29.2004 60.9545 28.3731 60.1272 28.3731 59.109C28.3731 58.2817 28.9458 57.5181 29.7731 57.3272V58.9181C29.7731 59.1726 29.964 59.3636 30.2185 59.3636C30.4731 59.3636 30.664 59.1726 30.664 58.9181V57.3272C31.4913 57.5817 32.064 58.2817 32.064 59.109ZM29.7731 51.2181C28.1185 50.9636 27.1004 50.009 27.164 48.2908H29.7731V51.2181Z" fill="white"></path>
  <path d="M41.2277 35.3092C42.985 35.3092 44.4095 33.8846 44.4095 32.1274C44.4095 30.3701 42.985 28.9456 41.2277 28.9456C39.4704 28.9456 38.0459 30.3701 38.0459 32.1274C38.0459 33.8846 39.4704 35.3092 41.2277 35.3092Z" fill="white"></path>
  <path d="M57.8364 50.6455C58.9819 50.0091 59.7455 48.8 59.7455 47.4637V38.1728C59.7455 36.2 58.1546 34.5455 56.1182 34.5455C54.1455 34.5455 52.491 36.1364 52.491 38.1728V45.8728C52.6182 46.5091 51.9182 49.1819 54.1455 50.4546C53.3819 54.6546 53.7637 58.9182 54.3364 62.8C54.4637 63.691 55.2273 64.391 56.1182 64.391C57.2001 64.391 58.0273 63.4364 57.9001 62.3546C57.391 58.4091 57.0091 54.6546 57.8364 50.6455ZM53.6364 45.8728C55.291 44.4728 55.2273 39.9546 54.9728 37.9819C54.8455 37.1546 55.4182 36.3909 56.2455 36.2637C57.0728 36.1364 57.8364 36.7091 57.9637 37.5364C58.4091 40.5909 58.2182 44.9182 56.3728 47.3364C54.2728 50.1364 52.1091 47.2091 53.6364 45.8728ZM55.4182 34.0364C55.6728 34.1 55.8637 34.1 56.1182 34.1C56.3728 34.1 56.5637 34.1 56.8182 34.0364C58.2819 33.7182 59.3637 32.4455 59.3637 30.8546C59.3637 29.0728 57.9001 27.6091 56.1182 27.6091C54.3364 27.6091 52.8728 29.0728 52.8728 30.8546C52.8728 32.3819 53.9546 33.7182 55.4182 34.0364Z" fill="white"></path>
  <path d="M55.2276 47.7181C57.6458 45.6817 57.773 40.7817 57.3276 37.6635C57.264 37.1545 56.8185 36.8363 56.3094 36.8999C55.8003 36.9636 55.4821 37.409 55.5458 37.9181C55.864 40.209 55.864 44.7908 54.0185 46.3181C53.6367 46.6363 53.573 47.209 53.8912 47.5908C54.273 48.0363 54.8458 48.0363 55.2276 47.7181Z" fill="white"></path>
  <defs>
    <linearGradient id="paint0_linear_982_167" x1="46" y1="10" x2="46" y2="82" gradientUnits="userSpaceOnUse">
      <stop stop-color="#FF7580"></stop>
      <stop offset="1" stop-color="#FF4A9F"></stop>
    </linearGradient>
  </defs>
</svg>
