<svg xmlns="http://www.w3.org/2000/svg" width="92" height="93" viewBox="0 0 92 93" fill="none"><rect y="0.0224609" width="92" height="92" rx="46" fill="white"></rect><rect x="0.5" y="0.522461" width="91" height="91" rx="45.5" stroke="#F95213" stroke-opacity="0.16"></rect><path d="M57.7188 38.6992C50.449 38.6992 44.5353 44.6129 44.5353 51.8826C44.5353 59.1523 50.4489 65.066 57.7187 65.066C64.9884 65.066 70.9997 59.1523 70.9997 51.8826C70.9997 44.6129 64.9885 38.6992 57.7188 38.6992ZM59.2221 58.9421C59.2094 58.9468 59.1961 58.9446 59.1834 58.949V60.6716C59.1834 61.4813 58.5282 62.1364 57.7186 62.1364C56.9089 62.1364 56.2537 61.4813 56.2537 60.6716V58.9391C55.289 58.6131 54.3646 57.9945 53.5743 57.0524C53.0536 56.433 53.1337 55.5089 53.7546 54.9896C54.374 54.4689 55.301 54.549 55.8174 55.1699C56.5927 56.0926 57.4696 56.4588 58.2192 56.1898C58.7957 55.9796 59.1834 55.426 59.1834 54.8123C59.1834 54.0041 58.5268 53.3475 57.7186 53.3475C55.2953 53.3475 53.3241 51.3762 53.3241 48.953C53.323 48.0891 53.577 47.2442 54.0541 46.524C54.5313 45.8038 55.2104 45.2406 56.0063 44.9048C56.087 44.8706 56.1725 44.8726 56.2538 44.8435V43.0938C56.2538 42.2841 56.909 41.6289 57.7187 41.6289C58.5283 41.6289 59.1835 42.2841 59.1835 43.0938V44.8461C59.942 45.1023 60.6816 45.5097 61.3421 46.1493C61.9229 46.7115 61.9372 47.6385 61.3735 48.2207C60.8113 48.8015 59.8829 48.8144 59.3022 48.2521C58.5897 47.5612 57.8016 47.3237 57.1492 47.6027C56.8836 47.7147 56.6569 47.9025 56.4976 48.1428C56.3383 48.383 56.2535 48.6649 56.2537 48.9531C56.2537 49.7613 56.9104 50.418 57.7186 50.418C60.1418 50.418 62.113 52.3893 62.113 54.8124C62.1132 56.6533 60.9516 58.3127 59.2221 58.9421ZM22.4653 53.3475C21.6557 53.3475 21.0005 54.0026 21.0005 54.8123V69.5582C21.0005 70.3679 21.6557 71.023 22.4653 71.023H26.8598V53.3475H22.4653Z" fill="#F95213"></path><path d="M55.7415 30.1655L45.4877 21.3765C44.9412 20.9044 44.1287 20.9044 43.5822 21.3765L33.3285 30.1655C33.1009 30.3598 32.9385 30.6193 32.8633 30.9089C32.7881 31.1986 32.8036 31.5043 32.9079 31.7848C33.0113 32.0657 33.1985 32.3081 33.4441 32.4792C33.6897 32.6504 33.9819 32.742 34.2812 32.7418H38.6756V71.0226H48.9295C49.7391 71.0226 50.3943 70.3674 50.3943 69.5578V66.2165C45.1851 63.5438 41.6053 58.1288 41.6053 51.8823C41.6053 45.6359 45.1852 40.2208 50.3943 37.548V32.7419H54.7887C55.0881 32.7421 55.3802 32.6504 55.6258 32.4793C55.8714 32.3082 56.0586 32.0658 56.1621 31.7849C56.2664 31.5044 56.2819 31.1986 56.2067 30.909C56.1315 30.6193 55.9691 30.3598 55.7415 30.1655Z" fill="#F95213"></path><path d="M31.3516 41.6289C30.5419 41.6289 29.8867 42.2841 29.8867 43.0938V71.0229H35.746V41.6289H31.3516Z" fill="#F95213"></path></svg>