<svg xmlns="http://www.w3.org/2000/svg" width="93" height="93" viewBox="0 0 93 93" fill="none"><circle cx="46.5529" cy="46.6826" r="46" fill="white"></circle><circle cx="46.5529" cy="46.6826" r="36" fill="url(#paint0_linear_7_1157)"></circle><path d="M48.91 59.6094C50.7374 59.6094 52.3056 59.5134 53.6157 59.2222C54.9427 58.9273 56.0929 58.4132 56.99 57.5161C57.8872 56.6189 58.4013 55.4687 58.6961 54.1418C58.9874 52.8316 59.0833 51.2635 59.0833 49.436V45.026C59.0833 43.4152 57.7775 42.1094 56.1666 42.1094H44.5C42.8891 42.1094 41.5833 43.4152 41.5833 45.026V56.6927C41.5833 58.3036 42.8891 59.6094 44.5 59.6094H48.91Z" fill="white"></path><path d="M29.9167 49.436C29.9167 51.2635 30.0127 52.8316 30.3039 54.1418C30.5987 55.4687 31.1128 56.6189 32.01 57.5161C32.9072 58.4132 34.0573 58.9273 35.3842 59.2222C35.5112 59.2503 35.6389 59.2769 35.7672 59.3017C37.3487 59.6072 38.6667 58.2686 38.6667 56.6577V45.026C38.6667 43.4152 37.3608 42.1094 35.75 42.1094H32.8333C31.2225 42.1094 29.9167 43.4152 29.9167 45.026V49.436Z" fill="white"></path><path d="M40.0899 30.4426C38.2625 30.4426 36.6944 30.5386 35.3841 30.8298C34.0573 31.1247 32.9071 31.6388 32.01 32.536C31.1128 33.4332 30.5987 34.5833 30.3038 35.9101C30.2796 36.0191 30.2568 36.1284 30.2355 36.238C29.9228 37.8403 31.2859 39.1926 32.9183 39.1926H56.1317C57.7425 39.1926 59.0811 37.8747 58.7756 36.2931C58.7508 36.1649 58.7243 36.0372 58.6961 35.9101C58.4011 34.5833 57.8872 33.4332 56.9899 32.536C56.0927 31.6388 54.9425 31.1247 53.6157 30.8298C52.3054 30.5386 50.7374 30.4426 48.91 30.4426H40.0899Z" fill="white"></path><defs><linearGradient id="paint0_linear_7_1157" x1="46.5529" y1="10.6826" x2="46.5529" y2="82.6826" gradientUnits="userSpaceOnUse"><stop stop-color="#FF7580"></stop><stop offset="1" stop-color="#FF4A9F"></stop></linearGradient></defs></svg>