<?xml version="1.0" encoding="UTF-8"?>
<svg xmlns="http://www.w3.org/2000/svg" width="101" height="100" viewBox="0 0 101 100" fill="none">
  <rect x="0.666016" width="100" height="100" rx="50" fill="url(#paint0_linear_1074_258)"></rect>
  <g clip-path="url(#clip0_1074_258)">
    <path d="M39.8105 60.6982C35.6836 60.6982 31.9346 60.1387 29.208 59.2363C27.9023 58.8047 26.8145 58.2783 26 57.6807V65.1133C26 66.0576 27.4229 66.9981 29.7207 67.7598C32.292 68.6123 35.8574 69.1387 39.8105 69.1387C43.7637 69.1387 47.3291 68.6123 49.8975 67.7598C52.1982 66.9981 53.6211 66.0576 53.6211 65.1133V57.6807C52.8076 58.2783 51.7197 58.8047 50.4102 59.2363C47.6865 60.1387 43.9385 60.6982 39.8105 60.6982ZM29.9482 63.7705C29.8018 64.1943 29.334 64.4209 28.9102 64.2715C28.7354 64.2109 28.5615 64.1465 28.3926 64.0801C28.2129 64.0107 28.0498 63.9443 27.9053 63.8838C27.4902 63.707 27.2959 63.2275 27.4736 62.8096C27.6504 62.3945 28.1299 62.2002 28.5449 62.3779C28.7002 62.4443 28.8438 62.5049 28.9824 62.5576C29.1289 62.6133 29.2842 62.6709 29.4473 62.7295C29.873 62.876 30.0977 63.3438 29.9482 63.7705ZM35.2236 64.7832C35.165 65.2285 34.7559 65.5449 34.3076 65.4863C34.0781 65.4561 33.9141 65.4336 33.8174 65.4199C33.7119 65.4063 33.5518 65.3809 33.333 65.3447C32.8877 65.2754 32.583 64.8545 32.6553 64.4092C32.7246 63.9639 33.1455 63.6621 33.5908 63.7314C33.6826 63.7481 33.834 63.7705 34.0479 63.8008C34.2695 63.834 34.4268 63.8564 34.5186 63.8672C34.9668 63.9258 35.2822 64.335 35.2236 64.7832ZM52.1484 62.8096C52.2335 63.0093 52.2358 63.2346 52.1549 63.436C52.0739 63.6374 51.9164 63.7985 51.7168 63.8838C50.5566 64.3818 49.1367 64.8027 47.5342 65.124C45.9893 65.4336 44.2568 65.6523 42.3936 65.7607C41.9453 65.7861 41.5576 65.4395 41.5322 64.9912C41.5068 64.54 41.8535 64.1523 42.3047 64.1279C44.0684 64.0283 45.7266 63.8154 47.2158 63.5166C48.7158 63.2178 50.0254 62.8301 51.0752 62.3789C51.4902 62.2012 51.9717 62.3945 52.1484 62.8096ZM69.3672 38.7568H74.9648C75.5352 38.7568 76 38.292 76 37.7217V32.124C76 31.5537 75.5352 31.0859 74.9648 31.0859H69.3672C68.7969 31.0859 68.3291 31.5537 68.3291 32.124V34.1035H62.499C62.0479 34.1035 61.6797 34.4688 61.6797 34.9229V49.1816H53.6211V47.5986C52.8076 48.1992 51.7197 48.7256 50.4102 49.1572C47.6865 50.0596 43.9385 50.6191 39.8105 50.6191C35.6826 50.6191 31.9346 50.0596 29.208 49.1572C27.9023 48.7256 26.8145 48.1992 26 47.5986V55.0312C26 55.9756 27.4229 56.9189 29.7207 57.6807C32.292 58.5332 35.8574 59.0596 39.8105 59.0596C43.7637 59.0596 47.3291 58.5332 49.8975 57.6807C52.1982 56.9189 53.6211 55.9756 53.6211 55.0312V50.8203H61.6797V65.0762C61.6797 65.5303 62.0479 65.8955 62.499 65.8955H68.3291V67.875C68.3291 68.4453 68.7969 68.9131 69.3672 68.9131H74.9648C75.5352 68.9131 76 68.4453 76 67.875V62.2803C76 61.71 75.5352 61.2422 74.9648 61.2422H69.3672C68.7969 61.2422 68.3291 61.71 68.3291 62.2803V64.2578H63.3213V50.8203H68.3291V52.7969C68.3291 53.3701 68.7969 53.835 69.3672 53.835H74.9648C75.5352 53.835 76 53.3701 76 52.7969V47.2022C76 46.6318 75.5352 46.1641 74.9648 46.1641H69.3672C68.7969 46.1641 68.3291 46.6318 68.3291 47.2022V49.1816H63.3213V35.7422H68.3291V37.7217C68.3291 38.292 68.7969 38.7568 69.3672 38.7568ZM29.9482 53.6885C29.8018 54.1152 29.334 54.3418 28.9102 54.1924C28.7354 54.1318 28.5615 54.0674 28.3926 54.001C28.2129 53.9316 28.0498 53.8652 27.9053 53.8047C27.4902 53.6279 27.2959 53.1455 27.4736 52.7305C27.6514 52.3154 28.1299 52.1211 28.5449 52.2988C28.7002 52.3652 28.8438 52.4238 28.9824 52.4785C29.1289 52.5342 29.2842 52.5918 29.4473 52.6475C29.873 52.7969 30.0977 53.2627 29.9482 53.6885ZM35.2236 54.7041C35.165 55.1494 34.7559 55.4658 34.3076 55.4072C34.0781 55.377 33.9141 55.3545 33.8174 55.3408C33.7119 55.3272 33.5518 55.2988 33.333 55.2656C32.8877 55.1934 32.583 54.7754 32.6553 54.3301C32.7246 53.8848 33.1455 53.5801 33.5908 53.6523C33.6826 53.666 33.834 53.6914 34.0479 53.7217C34.2695 53.752 34.4268 53.7744 34.5186 53.7881C34.9668 53.8467 35.2822 54.2559 35.2236 54.7041ZM51.7168 53.8047C50.5566 54.2998 49.1367 54.7236 47.5342 55.0449C45.9893 55.3545 44.2539 55.5732 42.3936 55.6816C41.9453 55.707 41.5576 55.3604 41.5322 54.9092C41.5068 54.458 41.8535 54.0732 42.3047 54.0479C44.0684 53.9453 45.7266 53.7354 47.2158 53.4365C48.7158 53.1348 50.0254 52.75 51.0752 52.2988C51.4902 52.1221 51.9717 52.3154 52.1494 52.7305C52.3271 53.1455 52.1318 53.6279 51.7168 53.8047ZM29.7207 47.6016C32.292 48.4512 35.8574 48.9805 39.8105 48.9805C43.7637 48.9805 47.3291 48.4522 49.8975 47.6016C52.1982 46.8398 53.6211 45.8965 53.6211 44.9521V37.5361C52.8076 38.1338 51.7197 38.6602 50.4102 39.0947C47.6865 39.9971 43.9385 40.5537 39.8105 40.5537C35.6826 40.5537 31.9346 39.9971 29.208 39.0947C27.9023 38.6602 26.8145 38.1338 26 37.5361V44.9521C26 45.8965 27.4229 46.8398 29.7207 47.6016ZM42.3047 43.9697C44.0684 43.8672 45.7266 43.6572 47.2158 43.3584C48.7158 43.0566 50.0254 42.6719 51.0752 42.2207C51.4902 42.0439 51.9717 42.2373 52.1494 42.6523C52.3262 43.0674 52.1328 43.5488 51.7178 43.7266C50.5576 44.2217 49.1377 44.6455 47.5352 44.9668C45.9902 45.2764 44.2549 45.4951 42.3945 45.6035C41.9463 45.6289 41.5586 45.2822 41.5332 44.8311C41.5271 44.7238 41.5422 44.6164 41.5777 44.515C41.6132 44.4136 41.6684 44.3202 41.7401 44.2402C41.8117 44.1601 41.8985 44.095 41.9954 44.0486C42.0923 44.0022 42.1974 43.9754 42.3047 43.9697ZM32.6553 44.252C32.7246 43.8066 33.1455 43.502 33.5908 43.5742C33.6826 43.5879 33.834 43.6104 34.0479 43.6436C34.2695 43.6738 34.4268 43.6963 34.5186 43.71C34.9668 43.7686 35.2822 44.1777 35.2246 44.623C35.1967 44.8381 35.0846 45.0333 34.9128 45.1657C34.741 45.2981 34.5237 45.3569 34.3086 45.3291C34.0791 45.2988 33.915 45.2764 33.8184 45.2627C33.7129 45.2461 33.5527 45.2207 33.334 45.1875C32.8877 45.1152 32.583 44.6973 32.6553 44.252ZM27.4727 42.6514C27.6494 42.2363 28.1289 42.042 28.5439 42.2197C28.6992 42.2861 28.8428 42.3447 28.9814 42.3965C29.1279 42.4551 29.2832 42.5127 29.4463 42.5684C29.5476 42.6037 29.641 42.6586 29.7211 42.7301C29.8011 42.8016 29.8663 42.8882 29.9129 42.9849C29.9594 43.0816 29.9864 43.1865 29.9923 43.2937C29.9982 43.4009 29.9829 43.5081 29.9473 43.6094C29.8008 44.0361 29.333 44.2598 28.9092 44.1133C28.7344 44.0527 28.5605 43.9883 28.3916 43.9219C28.2119 43.8525 28.0488 43.7861 27.9043 43.7256C27.4893 43.5488 27.2959 43.0674 27.4727 42.6514ZM26 34.8896C26 33.9453 27.4229 33.002 29.7207 32.2402C32.292 31.3906 35.8574 30.8613 39.8105 30.8613C43.7637 30.8613 47.3291 31.3896 49.8975 32.2402C52.1982 33.002 53.6211 33.9453 53.6211 34.8896C53.6211 35.834 52.1982 36.7744 49.8975 37.5361C47.3281 38.3887 43.7627 38.915 39.8105 38.915C35.8584 38.915 32.292 38.3887 29.7207 37.5361C27.4229 36.7744 26 35.834 26 34.8896Z" fill="white"></path>
  </g>
  <defs>
    <linearGradient id="paint0_linear_1074_258" x1="50.666" y1="0" x2="50.666" y2="100" gradientUnits="userSpaceOnUse">
      <stop stop-color="#29B7FF"></stop>
      <stop offset="1" stop-color="#368AFF"></stop>
    </linearGradient>
    <clipPath id="clip0_1074_258">
      <rect width="50" height="50" fill="white" transform="translate(26 25)"></rect>
    </clipPath>
  </defs>
</svg>
