<?xml version="1.0" encoding="UTF-8"?>
<svg xmlns="http://www.w3.org/2000/svg" width="92" height="92" viewBox="0 0 92 92" fill="none">
  <circle cx="46" cy="46" r="46" fill="white"></circle>
  <circle cx="46" cy="46" r="36" fill="url(#paint0_linear_982_190)"></circle>
  <path d="M45.125 46.427C50.4407 46.427 54.75 42.1177 54.75 36.802C54.75 31.4863 50.4407 27.177 45.125 27.177C39.8093 27.177 35.5 31.4863 35.5 36.802C35.5 42.1177 39.8093 46.427 45.125 46.427Z" fill="white"></path>
  <path fill-rule="evenodd" clip-rule="evenodd" d="M55.6254 49.3916C54.0033 49.4387 52.4633 50.1162 51.3326 51.2802C50.2019 52.4442 49.5693 54.0032 49.5693 55.626C49.5693 57.2488 50.2019 58.8077 51.3326 59.9718C52.4633 61.1358 54.0033 61.8133 55.6254 61.8604C59.0659 61.8604 61.8606 59.0656 61.8606 55.6251C61.8606 52.1846 59.0659 49.3916 55.6254 49.3916ZM55.6254 52.0166C57.6169 52.0166 59.2356 53.6336 59.2356 55.6251C59.2356 57.6166 57.6169 59.2354 55.6254 59.2354C53.6339 59.2354 52.0152 57.6166 52.0152 55.6251C52.0152 53.6336 53.6339 52.0166 55.6254 52.0166Z" fill="white"></path>
  <path fill-rule="evenodd" clip-rule="evenodd" d="M56.9375 50.7023V47.75C56.9375 47.4019 56.7992 47.0681 56.5531 46.8219C56.3069 46.5758 55.9731 46.4375 55.625 46.4375C55.2769 46.4375 54.9431 46.5758 54.6969 46.8219C54.4508 47.0681 54.3125 47.4019 54.3125 47.75V50.704C54.3127 51.0521 54.4512 51.3858 54.6975 51.6318C54.9438 51.8778 55.2778 52.0159 55.6259 52.0156C55.974 52.0154 56.3077 51.8769 56.5537 51.6306C56.7997 51.3843 56.9377 51.0503 56.9375 50.7023ZM60.0332 53.0735L62.121 50.984C62.367 50.738 62.5052 50.4044 62.5052 50.0565C62.5052 49.7086 62.367 49.375 62.121 49.129C61.875 48.883 61.5414 48.7448 61.1935 48.7448C60.8456 48.7448 60.512 48.883 60.266 49.129L58.1765 51.2167C57.931 51.4634 57.7932 51.7972 57.7932 52.1451C57.7932 52.4931 57.931 52.8269 58.1765 53.0735C58.4231 53.319 58.7569 53.4568 59.1049 53.4568C59.4528 53.4568 59.7866 53.319 60.0332 53.0735ZM60.546 56.9375H63.5C63.8481 56.9375 64.1819 56.7992 64.4281 56.5531C64.6742 56.3069 64.8125 55.9731 64.8125 55.625C64.8125 55.2769 64.6742 54.9431 64.4281 54.6969C64.1819 54.4508 63.8481 54.3125 63.5 54.3125H60.546C60.1979 54.3125 59.8641 54.4508 59.6179 54.6969C59.3718 54.9431 59.2335 55.2769 59.2335 55.625C59.2335 55.9731 59.3718 56.3069 59.6179 56.5531C59.8641 56.7992 60.1979 56.9375 60.546 56.9375ZM58.1765 60.0332L60.266 62.121C60.3878 62.2428 60.5324 62.3394 60.6915 62.4053C60.8507 62.4713 61.0212 62.5052 61.1935 62.5052C61.3658 62.5052 61.5363 62.4713 61.6955 62.4053C61.8546 62.3394 61.9992 62.2428 62.121 62.121C62.2428 61.9992 62.3394 61.8546 62.4053 61.6955C62.4713 61.5363 62.5052 61.3658 62.5052 61.1935C62.5052 61.0212 62.4713 60.8507 62.4053 60.6915C62.3394 60.5324 62.2428 60.3878 62.121 60.266L60.0332 58.1765C59.7866 57.931 59.4528 57.7932 59.1049 57.7932C58.7569 57.7932 58.4231 57.931 58.1765 58.1765C57.931 58.4231 57.7932 58.7569 57.7932 59.1049C57.7932 59.4528 57.931 59.7866 58.1765 60.0332ZM54.3125 60.546V63.5C54.3125 63.8481 54.4508 64.1819 54.6969 64.4281C54.9431 64.6742 55.2769 64.8125 55.625 64.8125C55.9731 64.8125 56.3069 64.6742 56.5531 64.4281C56.7992 64.1819 56.9375 63.8481 56.9375 63.5V60.546C56.9375 60.1979 56.7992 59.8641 56.5531 59.6179C56.3069 59.3718 55.9731 59.2335 55.625 59.2335C55.2769 59.2335 54.9431 59.3718 54.6969 59.6179C54.4508 59.8641 54.3125 60.1979 54.3125 60.546ZM51.2167 58.1765L49.129 60.266C49.0072 60.3878 48.9106 60.5324 48.8447 60.6915C48.7787 60.8507 48.7448 61.0212 48.7448 61.1935C48.7448 61.3658 48.7787 61.5363 48.8447 61.6955C48.9106 61.8546 49.0072 61.9992 49.129 62.121C49.2508 62.2428 49.3954 62.3394 49.5545 62.4053C49.7137 62.4713 49.8842 62.5052 50.0565 62.5052C50.2288 62.5052 50.3993 62.4713 50.5585 62.4053C50.7176 62.3394 50.8622 62.2428 50.984 62.121L53.0735 60.0332C53.319 59.7866 53.4568 59.4528 53.4568 59.1049C53.4568 58.7569 53.319 58.4231 53.0735 58.1765C52.8269 57.931 52.4931 57.7932 52.1451 57.7932C51.7972 57.7932 51.4634 57.931 51.2167 58.1765ZM50.7023 54.3125H47.75C47.4019 54.3125 47.0681 54.4508 46.8219 54.6969C46.5758 54.9431 46.4375 55.2769 46.4375 55.625C46.4375 55.9731 46.5758 56.3069 46.8219 56.5531C47.0681 56.7992 47.4019 56.9375 47.75 56.9375H50.7023C51.0503 56.9375 51.3842 56.7992 51.6303 56.5531C51.8765 56.3069 52.0148 55.9731 52.0148 55.625C52.0148 55.2769 51.8765 54.9431 51.6303 54.6969C51.3842 54.4508 51.0503 54.3125 50.7023 54.3125ZM53.0735 51.2167L50.984 49.129C50.8622 49.0072 50.7176 48.9106 50.5585 48.8447C50.3993 48.7787 50.2288 48.7448 50.0565 48.7448C49.8842 48.7448 49.7137 48.7787 49.5545 48.8447C49.3954 48.9106 49.2508 49.0072 49.129 49.129C49.0072 49.2508 48.9106 49.3954 48.8447 49.5545C48.7787 49.7137 48.7448 49.8842 48.7448 50.0565C48.7448 50.2288 48.7787 50.3993 48.8447 50.5585C48.9106 50.7176 49.0072 50.8622 49.129 50.984L51.2167 53.0735C51.4634 53.319 51.7972 53.4568 52.1451 53.4568C52.4931 53.4568 52.8269 53.319 53.0735 53.0735C53.319 52.8269 53.4568 52.4931 53.4568 52.1451C53.4568 51.7972 53.319 51.4634 53.0735 51.2167Z" fill="white"></path>
  <path fill-rule="evenodd" clip-rule="evenodd" d="M47.638 63.073C47.1807 62.4836 46.9542 61.7476 47.0009 61.003C47.0477 60.2584 47.3644 59.5565 47.8918 59.0288L48.2313 58.6875H47.75C46.9378 58.6875 46.1588 58.3649 45.5845 57.7906C45.0102 57.2162 44.6875 56.4373 44.6875 55.625C44.6875 54.8128 45.0102 54.0339 45.5845 53.4595C46.1588 52.8852 46.9378 52.5625 47.75 52.5625H48.2313L47.8918 52.2213C47.3422 51.6714 47.0222 50.9332 46.9969 50.1561C46.9716 49.3791 47.2427 48.6215 47.7553 48.037C46.8801 47.9693 46.0027 47.9355 45.125 47.9355C39.3115 47.9355 34.1648 49.3898 30.9693 51.5685C28.5315 53.231 27.1875 55.3433 27.1875 57.5605V60.098C27.1868 60.4889 27.2633 60.8761 27.4126 61.2373C27.5618 61.5986 27.7809 61.9268 28.0573 62.2032C28.3337 62.4796 28.6619 62.6987 29.0232 62.848C29.3845 62.9973 29.7716 63.0737 30.1625 63.073H47.638Z" fill="white"></path>
  <defs>
    <linearGradient id="paint0_linear_982_190" x1="46" y1="10" x2="46" y2="82" gradientUnits="userSpaceOnUse">
      <stop stop-color="#85FF82"></stop>
      <stop offset="1" stop-color="#2CCB33"></stop>
    </linearGradient>
  </defs>
</svg>
