<svg xmlns="http://www.w3.org/2000/svg" width="93" height="93" viewBox="0 0 93 93" fill="none"><rect width="93" height="93" rx="46.5" fill="#FFF1CF"></rect><path fill-rule="evenodd" clip-rule="evenodd" d="M47.5586 38.4265C49.8275 36.1576 52.8013 35.0231 55.775 35.0231C57.2151 35.0231 58.5818 35.2487 59.896 35.773C59.9304 35.7867 59.9672 35.7798 59.9944 35.7547C60.0215 35.7295 60.0311 35.6933 60.0201 35.658C59.0921 32.6992 57.3575 30.0967 55.0739 28.1077C55.0367 28.0753 54.981 28.0773 54.9462 28.1121L51.5981 31.4601C51.3239 31.7343 50.8792 31.7343 50.6049 31.4601C50.3665 31.2217 50.3354 30.8545 50.5115 30.5824C50.5153 30.5766 50.519 30.572 50.5239 30.5671L54.732 26.359C54.7502 26.3408 54.7724 26.3316 54.7982 26.3316H62.2299C62.2726 26.3316 62.3087 26.3591 62.3201 26.4003C62.8989 28.4912 65.5508 29.2239 67.1157 27.659C68.2368 26.5379 68.2368 24.7205 67.1157 23.5994C65.5508 22.0345 62.8989 22.7671 62.3201 24.8581C62.3087 24.8992 62.2726 24.9268 62.2299 24.9268H54.4686C54.2724 24.9268 54.095 25.0073 53.9676 25.137L52.7657 26.3389C52.735 26.3696 52.6889 26.3754 52.6516 26.3532C50.1682 24.8745 47.2687 24.0251 44.1731 24.0251C43.7852 24.0251 43.4707 24.3396 43.4707 24.7275V40.303C43.4707 40.3288 43.4615 40.351 43.4433 40.3692L32.4298 51.3825C32.1556 51.6567 32.1556 52.1014 32.4298 52.3757C33.4698 53.4157 34.6495 54.319 35.939 55.0558C35.9652 55.0707 35.9813 55.0948 35.9853 55.1247C35.9893 55.1546 35.98 55.182 35.9587 55.2033L33.8357 57.3263C33.706 57.4537 33.6255 57.6311 33.6255 57.8273V61.4739C33.6255 61.5166 33.598 61.5527 33.5568 61.564C31.4657 62.1429 30.7333 64.7948 32.2981 66.3597C33.4192 67.4808 35.2366 67.4808 36.3577 66.3597C37.9226 64.7948 37.1899 62.1429 35.099 61.564C35.0579 61.5526 35.0303 61.5165 35.0303 61.4739V58.1569C35.0303 58.1311 35.0395 58.1089 35.0577 58.0907L40.9007 52.2477C41.1749 51.9735 41.6196 51.9735 41.8939 52.2477C42.1681 52.5219 42.1681 52.9666 41.8939 53.2409L38.8961 56.2387C38.8725 56.2623 38.8635 56.294 38.8712 56.3265C38.8789 56.359 38.9011 56.3833 38.9327 56.3938C42.3305 57.5243 46.0297 57.5237 49.4361 56.3854C49.4714 56.3736 49.4952 56.3442 49.4994 56.3072C49.5037 56.2702 49.4871 56.2362 49.4553 56.2167C48.2323 55.467 47.4496 54.8928 46.518 53.6684C43.0309 49.086 43.4242 42.561 47.5586 38.4265ZM41.421 39.2382C41.421 39.4344 41.3405 39.6118 41.2108 39.7393L33.5922 47.3579C33.318 47.6321 32.8733 47.6321 32.599 47.3579C31.4256 46.1845 30.5084 44.7569 29.93 43.1728C29.9172 43.1378 29.9254 43.1008 29.9518 43.0745L35.4034 37.6229C35.6776 37.3487 35.6776 36.904 35.4034 36.6297C35.1292 36.3555 34.6845 36.3555 34.4102 36.6297L28.8186 42.2213C28.8004 42.2395 28.7912 42.2617 28.7912 42.2875V53.1678C28.7912 53.2105 28.8188 53.2466 28.8599 53.258C30.9509 53.8368 31.6836 56.4887 30.1186 58.0536C28.9975 59.1747 27.1801 59.1747 26.059 58.0536C24.4942 56.4888 25.2266 53.8369 27.3177 53.258C27.3589 53.2466 27.3864 53.2106 27.3864 53.1678V41.9578C27.3864 41.7616 27.4669 41.5842 27.5966 41.4567L29.2204 39.8329C29.2396 39.8137 29.2488 39.7896 29.2475 39.7624C28.9509 33.2179 34.1736 27.7552 40.7186 27.7552C41.1065 27.7552 41.421 28.0697 41.421 28.4576V39.2382ZM59.2506 48.2155C60.143 49.1079 60.6969 50.3383 60.6969 51.6911V52.1562C60.6969 52.1842 60.6861 52.2083 60.6651 52.2267C57.8719 54.6776 53.6781 54.6776 50.885 52.2267C50.864 52.2083 50.8532 52.1841 50.8532 52.1562V51.6911C50.8532 50.3382 51.4071 49.1079 52.2995 48.2155C54.2273 46.2875 57.3227 46.2875 59.2506 48.2155ZM57.1718 45.3934C56.4005 46.1647 55.1495 46.1647 54.3782 45.3934C53.1373 44.1524 54.0204 42.0214 55.775 42.0214C57.5298 42.0213 58.4127 44.1525 57.1718 45.3934ZM65.9901 46.643C65.9901 48.9952 65.1825 51.3475 63.5677 53.2483C63.536 53.2856 63.5382 53.3405 63.5728 53.3751L64.7247 54.527C64.7586 54.5609 64.8121 54.5638 64.8495 54.5338C65.1171 54.319 65.4736 54.3358 65.707 54.5692L68.5966 57.4588C68.8439 57.7061 68.8439 58.1108 68.5966 58.3581L67.49 59.4647C67.2427 59.712 66.838 59.712 66.5907 59.4647L63.7011 56.5751C63.4678 56.3418 63.451 55.985 63.6657 55.7176C63.6958 55.6802 63.6928 55.6267 63.6589 55.5928L62.507 54.441C62.4724 54.4064 62.4174 54.4042 62.3802 54.4359C60.4794 56.0507 58.1272 56.8582 55.7748 56.8582C50.133 56.8582 45.5597 52.2849 45.5597 46.6431C45.5597 41.0013 50.133 36.428 55.7748 36.428C61.4168 36.4279 65.9901 41.0012 65.9901 46.643ZM62.0164 40.4016C65.4635 43.8488 65.4635 49.4373 62.0164 52.8844C58.5693 56.3315 52.9808 56.3315 49.5337 52.8844C46.0866 49.4373 46.0865 43.8488 49.5337 40.4017C52.9808 36.9544 58.5692 36.9544 62.0164 40.4016Z" fill="#FFB500"></path></svg>