<?xml version="1.0" encoding="UTF-8"?>
<svg xmlns="http://www.w3.org/2000/svg" width="92" height="92" viewBox="0 0 92 92" fill="none">
  <circle cx="46" cy="46" r="46" fill="white"></circle>
  <circle cx="46" cy="46" r="36" fill="url(#paint0_linear_617_606)"></circle>
  <path d="M60.7847 46.632C60.4894 49.7569 57.7047 52.0625 54.5667 52.0625H53.1678C53.5605 50.4088 53.683 48.685 53.7005 47.0116C53.7092 46.0567 53.1066 45.2134 52.2021 44.9116L46.1919 42.9078C45.7369 42.7558 45.2458 42.7613 44.8072 42.9078L38.796 44.9116C37.8925 45.2134 37.2899 46.0578 37.2986 47.0138C37.3161 48.6861 37.4386 50.4088 37.8313 52.0625H35.8975C33.0221 52.0625 30.4572 49.9483 30.2078 47.0848C29.9935 44.6184 31.4175 42.4561 33.5121 41.5625C33.2047 38.5175 35.9161 36.2502 38.7478 36.8463C40.1063 34.1939 42.8614 32.375 46.0464 32.375C50.2978 32.375 53.7836 35.6114 54.1982 39.7523C54.2157 39.9241 54.3589 40.0455 54.5317 40.0389C58.163 39.877 61.1314 42.9548 60.7847 46.632Z" fill="white"></path>
  <path d="M45.327 44.4642L39.3168 46.4679C39.0904 46.5434 38.9373 46.7588 38.9395 46.9973C38.9942 52.2768 40.1656 56.491 45.4998 58.6249C50.834 56.491 52.0054 52.2768 52.0601 46.9962C52.0623 46.7577 51.9092 46.5423 51.6828 46.4668L45.6726 44.4631C45.5599 44.4259 45.4396 44.4259 45.327 44.4642ZM48.6148 49.3609L45.8804 53.7359C45.7032 54.0181 45.4079 54.2051 45.0765 54.2423C45.0349 54.2477 44.9945 54.2499 44.9529 54.2499C44.6642 54.2499 44.3853 54.1362 44.1796 53.9295L42.5576 52.3085C42.1299 51.8809 42.1299 51.1896 42.5576 50.762C42.9842 50.3343 43.6765 50.3343 44.1042 50.762L44.7539 51.4117L46.7587 48.2015C47.0792 47.6885 47.754 47.5332 48.2659 47.8548C48.7799 48.1731 48.9353 48.849 48.6148 49.3609Z" fill="white"></path>
  <defs>
    <linearGradient id="paint0_linear_617_606" x1="46" y1="10" x2="46" y2="82" gradientUnits="userSpaceOnUse">
      <stop stop-color="#B1E847"></stop>
      <stop offset="1" stop-color="#75C644"></stop>
    </linearGradient>
  </defs>
</svg>
