<svg xmlns="http://www.w3.org/2000/svg" width="92" height="93" viewBox="0 0 92 93" fill="none"><rect y="0.0224609" width="92" height="92" rx="46" fill="white"></rect><rect x="0.5" y="0.522461" width="91" height="91" rx="45.5" stroke="#FFB200" stroke-opacity="0.16"></rect><path d="M25.3945 71.0225H51.3072C50.8026 70.1572 50.4922 69.1647 50.4922 68.0928V64.9678H21V66.6279C21 69.055 22.9675 71.0225 25.3945 71.0225Z" fill="#FFB200"></path><path d="M51.957 38.6006C56.8111 38.6006 60.7461 34.6656 60.7461 29.8115C60.7461 24.9575 56.8111 21.0225 51.957 21.0225C47.103 21.0225 43.168 24.9575 43.168 29.8115C43.168 34.6656 47.103 38.6006 51.957 38.6006Z" fill="#FFB200"></path><path d="M59.1051 39.031L68.9286 48.8545L71 46.7831L61.1764 36.9595C60.5751 37.7337 59.8793 38.4296 59.1051 39.031ZM56.3516 71.0225C57.9696 71.0225 59.2812 69.7106 59.2812 68.0928V43.3499L56.4807 40.5493C55.0875 41.1559 53.5744 41.5303 51.957 41.5303C45.4939 41.5303 40.2383 36.2731 40.2383 29.8115C40.2383 28.794 40.4096 27.8238 40.6544 26.8818H26.957V62.0381H53.4219V68.0928C53.4219 69.7106 54.7335 71.0225 56.3516 71.0225ZM32.8164 32.7412H38.7734V35.6709H32.8164V32.7412ZM32.8164 38.6006H41.7031V41.5303H32.8164V38.6006ZM32.8164 44.46H53.4219V47.3896H32.8164V44.46ZM32.8164 50.3193H53.4219V53.249H32.8164V50.3193ZM32.8164 59.1084V56.1787H53.4219V59.1084H32.8164Z" fill="#FFB200"></path></svg>