<?xml version="1.0" encoding="UTF-8"?>
<svg xmlns="http://www.w3.org/2000/svg" width="101" height="100" viewBox="0 0 101 100" fill="none">
  <path d="M0.333008 50C0.333008 22.3858 22.7188 0 50.333 0C77.9472 0 100.333 22.3858 100.333 50C100.333 77.6142 77.9472 100 50.333 100C22.7188 100 0.333008 77.6142 0.333008 50Z" fill="url(#paint0_linear_1074_237)"></path>
  <path fill-rule="evenodd" clip-rule="evenodd" d="M54.5 32.7072H60.2066C60.4138 32.7072 60.6126 32.7895 60.7591 32.936C60.9056 33.0826 60.9879 33.2813 60.9879 33.4885V42.086C61.7826 42.6861 62.5019 43.3799 63.1303 44.1524V32.6664C63.1303 31.5089 62.1861 30.5648 61.0287 30.5648H54.5V32.7072ZM37.7317 36.3212H51.9609C53.1945 36.3212 54.2251 35.4374 54.453 34.2696H58.4488C58.9867 34.2696 59.4254 34.7083 59.4254 35.2462V41.0812C57.6885 40.1423 55.7 39.6093 53.5871 39.6093C50.1437 39.6093 47.0307 41.025 44.7983 43.3062H33.8916C33.6844 43.3062 33.4857 43.3885 33.3392 43.535C33.1927 43.6815 33.1104 43.8802 33.1104 44.0874C33.1104 44.2946 33.1927 44.4933 33.3392 44.6398C33.4857 44.7863 33.6844 44.8687 33.8916 44.8687H43.5024C42.7118 45.9986 42.1177 47.254 41.7453 48.5819H33.8916C33.6844 48.5819 33.4857 48.6642 33.3392 48.8108C33.1927 48.9573 33.1104 49.156 33.1104 49.3632C33.1104 49.5704 33.1927 49.7691 33.3392 49.9156C33.4857 50.0621 33.6844 50.1444 33.8916 50.1444H41.4159C41.3324 50.7278 41.2905 51.3164 41.2907 51.9058C41.2907 52.57 41.3435 53.2221 41.4448 53.8577H33.8916C33.6844 53.8577 33.4857 53.94 33.3392 54.0865C33.1927 54.2331 33.1104 54.4318 33.1104 54.639C33.1104 54.8462 33.1927 55.0449 33.3392 55.1914C33.4857 55.3379 33.6844 55.4202 33.8916 55.4202H41.8004C42.1978 56.7533 42.8194 58.0091 43.6385 59.1335H33.8916C33.6844 59.1335 33.4857 59.2158 33.3392 59.3623C33.1927 59.5088 33.1104 59.7075 33.1104 59.9147C33.1104 60.1219 33.1927 60.3207 33.3392 60.4672C33.4857 60.6137 33.6844 60.696 33.8916 60.696H44.9892C47.2063 62.865 50.2408 64.202 53.5871 64.202C55.6999 64.202 57.6885 63.669 59.4254 62.7301V68.756C59.4254 69.2938 58.9867 69.7325 58.4488 69.7325H31.2439C30.7061 69.7325 30.2674 69.2938 30.2674 68.756V35.2462C30.2674 34.7083 30.7061 34.2696 31.2439 34.2696H35.2397C35.4676 35.4374 36.4982 36.3212 37.7317 36.3212ZM33.1104 38.8117C33.1104 38.6045 33.1927 38.4058 33.3392 38.2593C33.4857 38.1128 33.6844 38.0305 33.8916 38.0305H55.8011C56.0083 38.0305 56.207 38.1128 56.3535 38.2593C56.5 38.4058 56.5823 38.6045 56.5823 38.8117C56.5823 39.0189 56.5 39.2176 56.3535 39.3641C56.207 39.5107 56.0083 39.593 55.8011 39.593H33.8916C33.6844 39.593 33.4857 39.5107 33.3392 39.3641C33.1927 39.2176 33.1104 39.0189 33.1104 38.8117ZM33.1104 65.1907C33.1104 65.3979 33.1927 65.5966 33.3392 65.7432C33.4857 65.8897 33.6844 65.972 33.8916 65.972H55.8011C56.0083 65.972 56.207 65.8897 56.3535 65.7432C56.5 65.5966 56.5823 65.3979 56.5823 65.1907C56.5823 64.9835 56.5 64.7848 56.3535 64.6383C56.207 64.4918 56.0083 64.4095 55.8011 64.4095H33.8916C33.6844 64.4095 33.4857 64.4918 33.3392 64.6383C33.1927 64.7848 33.1104 64.9835 33.1104 65.1907ZM37.7317 29.2945C37.1938 29.2945 36.7552 29.7332 36.7552 30.2711V33.7822C36.7552 34.3201 37.1938 34.7588 37.7317 34.7588H51.9609C52.4988 34.7588 52.9375 34.3201 52.9375 33.7822V30.2711C52.9375 29.7332 52.4988 29.2945 51.9609 29.2945H48.3193C47.9413 27.7271 46.53 26.5625 44.8464 26.5625C43.1628 26.5625 41.7515 27.7271 41.3734 29.2945H37.7317ZM44.8464 28.5463C45.3684 28.5463 45.7914 28.9693 45.7914 29.4913C45.7914 30.0133 45.3683 30.4363 44.8464 30.4363C44.3244 30.4363 43.9013 30.0132 43.9013 29.4913C43.9013 28.9694 44.3244 28.5463 44.8464 28.5463ZM53.5872 41.1719C59.5153 41.1719 64.3211 45.9776 64.3211 51.9059C64.3211 54.1918 63.6061 56.3105 62.3881 58.0514L65.736 61.3365L65.868 61.2006C66.2417 60.8155 66.8628 60.8062 67.2479 61.1799L73.1425 66.8998C73.5275 67.2736 73.537 67.8944 73.1633 68.2796L71.0351 70.4729C70.6612 70.8581 70.0403 70.8673 69.6552 70.4936L63.7605 64.7737C63.3754 64.4 63.366 63.7789 63.7397 63.3938L63.8504 63.2799L60.5684 60.059C58.6916 61.6678 56.253 62.6398 53.5872 62.6398C47.659 62.6398 42.8532 57.8341 42.8532 51.906C42.8532 45.9776 47.659 41.1719 53.5872 41.1719ZM53.5871 43.417C55.9312 43.417 58.0534 44.3672 59.5896 45.9034C64.9772 51.2912 61.0421 60.3947 53.5871 60.3947C48.9456 60.3947 45.0462 56.5928 45.0865 51.9223C45.1242 47.5676 48.5532 43.417 53.5871 43.417ZM58.4849 47.0081C57.2315 45.7548 55.4999 44.9795 53.5872 44.9795C50.0424 44.9795 47.0643 47.6605 46.6983 51.1813H49.9329C50.0811 51.1813 50.2263 51.2235 50.3515 51.3029C50.4766 51.3823 50.5767 51.4956 50.6398 51.6297L50.6987 51.7428L51.5145 46.8439C51.5445 46.6623 51.638 46.4971 51.7782 46.3777C51.9184 46.2584 52.0964 46.1925 52.2805 46.1918C52.4647 46.1911 52.6432 46.2556 52.7843 46.3738C52.9254 46.4921 53.0202 46.6565 53.0517 46.838L53.0525 46.8379L54.0281 52.3812L54.6829 48.7252C54.7009 48.6246 54.7386 48.5285 54.7938 48.4425C54.8489 48.3565 54.9205 48.2822 55.0044 48.2238C55.0882 48.1654 55.1828 48.1241 55.2826 48.1023C55.3825 48.0805 55.4856 48.0785 55.5862 48.0966C55.7286 48.1221 55.861 48.1867 55.9686 48.2833C56.0763 48.3798 56.1549 48.5044 56.1956 48.6432L56.1966 48.6429L56.9441 51.1815H60.476C60.3072 49.5579 59.5778 48.1011 58.4849 47.0081ZM46.711 52.7438C47.1296 56.2143 50.0855 58.8321 53.5871 58.8321C57.0886 58.8321 60.0446 56.2143 60.4632 52.7438H56.3617V52.7419C56.2041 52.7418 56.0502 52.694 55.9203 52.6046C55.7904 52.5153 55.6907 52.3888 55.6342 52.2416L54.7974 56.914C54.7793 57.1021 54.6936 57.2772 54.5563 57.4069C54.4189 57.5367 54.2391 57.6122 54.0503 57.6195C53.8615 57.6268 53.6765 57.5654 53.5295 57.4466C53.3825 57.3279 53.2836 57.1599 53.2511 56.9737L52.3042 51.5937L51.8602 54.2603C51.8417 54.4267 51.7702 54.5827 51.6562 54.7054C51.5422 54.8281 51.3919 54.9108 51.2273 54.9415C51.0627 54.9722 50.8926 54.9492 50.7421 54.8758C50.5916 54.8025 50.4686 54.6826 50.3914 54.5341L49.4594 52.7436H46.711V52.7438ZM35.1928 32.7072H29.4861C29.2789 32.7072 29.0802 32.7895 28.9337 32.936C28.7872 33.0826 28.7049 33.2813 28.7049 33.4885V70.514C28.7049 70.7212 28.7872 70.9199 28.9337 71.0664C29.0802 71.2129 29.2789 71.2952 29.4861 71.2952H60.2066C60.4138 71.2952 60.6126 71.2129 60.7591 71.0664C60.9056 70.9199 60.9879 70.7212 60.9879 70.514V62.66L61.947 63.6013C61.795 64.411 62.0384 65.28 62.6724 65.8951L63.1303 66.3395V71.336C63.1303 72.4936 62.1862 73.4376 61.0287 73.4376H28.6641C27.5066 73.4375 26.5625 72.4935 26.5625 71.3359V32.6664C26.5625 31.5089 27.5065 30.5648 28.6641 30.5648H35.1927L35.1928 32.7072Z" fill="white"></path>
  <defs>
    <linearGradient id="paint0_linear_1074_237" x1="50.333" y1="0" x2="50.333" y2="100" gradientUnits="userSpaceOnUse">
      <stop stop-color="#FAB8C4"></stop>
      <stop offset="1" stop-color="#FF5963"></stop>
    </linearGradient>
  </defs>
</svg>
