<svg xmlns="http://www.w3.org/2000/svg" width="93" height="93" viewBox="0 0 93 93" fill="none"><circle cx="46.553" cy="46.6826" r="46" fill="white"></circle><circle cx="46.553" cy="46.6826" r="36" fill="url(#paint0_linear_7_1168)"></circle><g clip-path="url(#clip0_7_1168)"><path d="M54.4805 56.647C53.3352 56.647 52.3528 57.3549 51.9463 58.356H49.5586V60.4067H51.9463C52.3528 61.4078 53.3352 62.1157 54.4805 62.1157C55.9882 62.1157 57.2148 60.8891 57.2148 59.3813C57.2148 57.8736 55.9882 56.647 54.4805 56.647Z" fill="white"></path><path d="M59.2656 50.8364C58.8161 50.8364 58.3921 50.9461 58.0176 51.1391L55.4787 49.0233C55.2944 48.8697 55.0621 48.7856 54.8223 48.7856H49.5586V50.8364H54.451L56.6771 52.6916C56.5831 52.9677 56.5312 53.2632 56.5312 53.5708C56.5312 55.0785 57.7579 56.3052 59.2656 56.3052C60.7733 56.3052 62 55.0785 62 53.5708C62 52.0631 60.7733 50.8364 59.2656 50.8364Z" fill="white"></path><path d="M59.2656 42.2915C58.1204 42.2915 57.138 42.9994 56.7315 44.0005H49.5586V46.0513H56.7315C57.138 47.0523 58.1204 47.7603 59.2656 47.7603C60.7733 47.7603 62 46.5336 62 45.0259C62 43.5181 60.7733 42.2915 59.2656 42.2915Z" fill="white"></path><path d="M55.4787 41.0284L58.0176 38.9126C58.3921 39.1057 58.8161 39.2153 59.2656 39.2153C60.7733 39.2153 62 37.9887 62 36.481C62 34.9732 60.7733 33.7466 59.2656 33.7466C57.7579 33.7466 56.5312 34.9732 56.5312 36.481C56.5312 36.7886 56.5831 37.0841 56.6771 37.3602L54.451 39.2153H49.5586V41.2661H54.8223C55.0621 41.2661 55.2944 41.182 55.4787 41.0284Z" fill="white"></path><path d="M54.4805 33.4048C55.9882 33.4048 57.2148 32.1781 57.2148 30.6704C57.2148 29.1627 55.9882 27.936 54.4805 27.936C53.3352 27.936 52.3528 28.644 51.9463 29.645H49.5586V31.6958H51.9463C52.3528 32.6969 53.3352 33.4048 54.4805 33.4048Z" fill="white"></path><path d="M37.2539 45.0259C37.2539 48.9837 40.4738 52.2036 44.4316 52.2036C45.5319 52.2036 46.5749 51.9544 47.5078 51.5101V38.5417C46.5749 38.0973 45.5319 37.8481 44.4316 37.8481C40.4738 37.8481 37.2539 41.0681 37.2539 45.0259Z" fill="white"></path><path d="M46.4824 27.5942H42.3808C41.8146 27.5942 41.3555 28.0533 41.3555 28.6196V29.9543C39.4313 30.3463 37.59 31.1091 35.9499 32.1937L35.0058 31.2498C34.6054 30.8493 33.9562 30.8493 33.5557 31.2498L30.6555 34.15C30.2551 34.5504 30.2551 35.1996 30.6555 35.6001L31.5995 36.5441C30.5149 38.1843 29.7521 40.0256 29.3601 41.9497H28.0254C27.4591 41.9497 27 42.4088 27 42.9751V47.0767C27 47.643 27.4591 48.1021 28.0254 48.1021H29.3601C29.7521 50.0262 30.5149 51.8675 31.5995 53.5077L30.6554 54.4517C30.4631 54.644 30.3551 54.9048 30.3551 55.1768C30.3551 55.4487 30.4631 55.7094 30.6554 55.9017L33.5557 58.802C33.9562 59.2024 34.6054 59.2024 35.0058 58.802L35.9499 57.858C37.59 58.9426 39.4313 59.7054 41.3555 60.0974V61.4321C41.3555 61.9984 41.8146 62.4575 42.3808 62.4575H46.4824C47.0487 62.4575 47.5078 61.9984 47.5078 61.4321V53.7265C46.5452 54.0679 45.5099 54.2544 44.4316 54.2544C39.343 54.2544 35.2031 50.1145 35.2031 45.0259C35.2031 39.9373 39.343 35.7974 44.4316 35.7974C45.5099 35.7974 46.5452 35.9838 47.5078 36.3252V28.6196C47.5078 28.0533 47.0487 27.5942 46.4824 27.5942Z" fill="white"></path></g><defs><linearGradient id="paint0_linear_7_1168" x1="46.553" y1="10.6826" x2="46.553" y2="82.6826" gradientUnits="userSpaceOnUse"><stop stop-color="#8788FF"></stop><stop offset="1" stop-color="#5A5EFF"></stop></linearGradient><clipPath id="clip0_7_1168"><rect width="35" height="35" fill="white" transform="translate(27 27.5259)"></rect></clipPath></defs></svg>