<?xml version="1.0" encoding="UTF-8"?>
<svg xmlns="http://www.w3.org/2000/svg" width="93" height="93" viewBox="0 0 93 93" fill="none">
  <circle cx="46.5527" cy="46.6826" r="46" fill="white"></circle>
  <circle cx="46.5527" cy="46.6826" r="36" fill="url(#paint0_linear_1074_180)"></circle>
  <path d="M48.25 61.1875H43.75C43.6008 61.1875 43.4577 61.1282 43.3523 61.0227C43.2468 60.9173 43.1875 60.7742 43.1875 60.625C43.1875 60.4758 43.2468 60.3327 43.3523 60.2273C43.4577 60.1218 43.6008 60.0625 43.75 60.0625H48.25C48.3992 60.0625 48.5423 60.1218 48.6477 60.2273C48.7532 60.3327 48.8125 60.4758 48.8125 60.625C48.8125 60.7742 48.7532 60.9173 48.6477 61.0227C48.5423 61.1282 48.3992 61.1875 48.25 61.1875ZM49.375 59.5H42.625C42.4758 59.5 42.3327 59.4407 42.2273 59.3352C42.1218 59.2298 42.0625 59.0867 42.0625 58.9375C42.0625 58.7883 42.1218 58.6452 42.2273 58.5398C42.3327 58.4343 42.4758 58.375 42.625 58.375H49.375C49.5242 58.375 49.6673 58.4343 49.7727 58.5398C49.8782 58.6452 49.9375 58.7883 49.9375 58.9375C49.9375 59.0867 49.8782 59.2298 49.7727 59.3352C49.6673 59.4407 49.5242 59.5 49.375 59.5ZM46 34.1875C45.8508 34.1875 45.7077 34.1282 45.6023 34.0227C45.4968 33.9173 45.4375 33.7742 45.4375 33.625V31.375C45.4375 31.2258 45.4968 31.0827 45.6023 30.9773C45.7077 30.8718 45.8508 30.8125 46 30.8125C46.1492 30.8125 46.2923 30.8718 46.3977 30.9773C46.5032 31.0827 46.5625 31.2258 46.5625 31.375V33.625C46.5625 33.7742 46.5032 33.9173 46.3977 34.0227C46.2923 34.1282 46.1492 34.1875 46 34.1875ZM37.2492 37.8117C37.1 37.8117 36.957 37.7524 36.8515 37.6469L35.2607 36.0561C35.207 36.0042 35.1642 35.9422 35.1347 35.8735C35.1052 35.8049 35.0897 35.7311 35.089 35.6564C35.0884 35.5817 35.1026 35.5077 35.1309 35.4385C35.1592 35.3694 35.201 35.3066 35.2538 35.2538C35.3066 35.201 35.3694 35.1592 35.4385 35.1309C35.5077 35.1026 35.5817 35.0884 35.6564 35.089C35.7311 35.0897 35.8049 35.1052 35.8735 35.1347C35.9422 35.1642 36.0042 35.207 36.0561 35.2607L37.6469 36.8515C37.7255 36.9302 37.7791 37.0304 37.8008 37.1395C37.8225 37.2486 37.8113 37.3617 37.7688 37.4644C37.7262 37.5672 37.6541 37.655 37.5616 37.7169C37.4692 37.7787 37.3604 37.8117 37.2492 37.8117ZM33.625 46.5625H31.375C31.2258 46.5625 31.0827 46.5032 30.9773 46.3977C30.8718 46.2923 30.8125 46.1492 30.8125 46C30.8125 45.8508 30.8718 45.7077 30.9773 45.6023C31.0827 45.4968 31.2258 45.4375 31.375 45.4375H33.625C33.7742 45.4375 33.9173 45.4968 34.0227 45.6023C34.1282 45.7077 34.1875 45.8508 34.1875 46C34.1875 46.1492 34.1282 46.2923 34.0227 46.3977C33.9173 46.5032 33.7742 46.5625 33.625 46.5625ZM54.7508 37.8117C54.6396 37.8117 54.5308 37.7787 54.4384 37.7169C54.3459 37.655 54.2738 37.5672 54.2312 37.4644C54.1887 37.3617 54.1775 37.2486 54.1992 37.1395C54.2209 37.0304 54.2745 36.9302 54.3531 36.8515L55.9439 35.2607C55.9958 35.207 56.0578 35.1642 56.1265 35.1347C56.1951 35.1052 56.2689 35.0897 56.3436 35.089C56.4183 35.0884 56.4923 35.1026 56.5615 35.1309C56.6306 35.1592 56.6934 35.201 56.7462 35.2538C56.799 35.3066 56.8408 35.3694 56.8691 35.4385C56.8974 35.5077 56.9116 35.5817 56.911 35.6564C56.9103 35.7311 56.8948 35.8049 56.8653 35.8735C56.8358 35.9422 56.793 36.0042 56.7393 36.0561L55.1485 37.6469C55.043 37.7524 54.9 37.8117 54.7508 37.8117ZM60.625 46.5625H58.375C58.2258 46.5625 58.0827 46.5032 57.9773 46.3977C57.8718 46.2923 57.8125 46.1492 57.8125 46C57.8125 45.8508 57.8718 45.7077 57.9773 45.6023C58.0827 45.4968 58.2258 45.4375 58.375 45.4375H60.625C60.7742 45.4375 60.9173 45.4968 61.0227 45.6023C61.1282 45.7077 61.1875 45.8508 61.1875 46C61.1875 46.1492 61.1282 46.2923 61.0227 46.3977C60.9173 46.5032 60.7742 46.5625 60.625 46.5625ZM47.9688 56.6875V57.25C47.9688 57.3992 47.9095 57.5423 47.804 57.6477C47.6985 57.7532 47.5554 57.8125 47.4062 57.8125C47.2571 57.8125 47.114 57.7532 47.0085 57.6477C46.903 57.5423 46.8438 57.3992 46.8438 57.25V56.6875H47.9688ZM45.1562 56.6875V57.25C45.1562 57.3992 45.097 57.5423 44.9915 57.6477C44.886 57.7532 44.7429 57.8125 44.5938 57.8125C44.4446 57.8125 44.3015 57.7532 44.196 57.6477C44.0905 57.5423 44.0312 57.3992 44.0312 57.25V56.6875H45.1562ZM49.6562 47.6875C49.6562 47.8367 49.597 47.9798 49.4915 48.0852C49.386 48.1907 49.2429 48.25 49.0938 48.25C48.99 48.2515 48.8882 48.2221 48.8013 48.1656C48.7956 48.16 48.7844 48.16 48.7787 48.1544C48.7032 48.102 48.6412 48.0323 48.5982 47.9511C48.5551 47.8698 48.5322 47.7794 48.5312 47.6875C48.5312 47.5383 48.5905 47.3952 48.696 47.2898C48.8015 47.1843 48.9446 47.125 49.0938 47.125C49.2429 47.125 49.386 47.1843 49.4915 47.2898C49.597 47.3952 49.6562 47.5383 49.6562 47.6875Z" fill="white"></path>
  <path d="M52.7498 38.4513C51.6861 37.4925 50.4294 36.7726 49.0643 36.3398C47.6992 35.9071 46.2573 35.7716 44.8354 35.9425C42.7203 36.1872 40.7362 37.0925 39.1651 38.5296C37.594 39.9668 36.516 41.8626 36.0843 43.9476C35.6526 46.0326 35.8892 48.2006 36.7605 50.1435C37.6317 52.0863 39.0933 53.705 40.9373 54.7694V56.125C40.9386 56.5722 41.1169 57.0006 41.433 57.3168C41.7492 57.633 42.1777 57.8112 42.6248 57.8125H49.3748C49.822 57.8112 50.2504 57.633 50.5666 57.3168C50.8828 57.0006 51.061 56.5722 51.0623 56.125V54.7694C52.4486 53.9688 53.6253 52.8509 54.496 51.5075C55.3666 50.1641 55.9064 48.6335 56.0711 47.0411C56.2358 45.4487 56.0206 43.84 55.4433 42.3468C54.866 40.8537 53.9429 39.5187 52.7498 38.4513ZM44.0311 56.6875V50.6575L43.2436 49.3413C43.1325 49.3639 43.0194 49.3752 42.9061 49.375C42.5216 49.3758 42.1483 49.2456 41.8477 49.0057C41.5472 48.7659 41.3374 48.4307 41.253 48.0556C41.1685 47.6805 41.2144 47.2878 41.3831 46.9423C41.5518 46.5968 41.8332 46.3191 42.181 46.155C42.5287 45.9909 42.922 45.9502 43.2959 46.0397C43.6699 46.1292 44.0022 46.3434 44.238 46.6471C44.4739 46.9508 44.5991 47.3258 44.5932 47.7102C44.5873 48.0947 44.4505 48.4656 44.2054 48.7619L45.0773 50.2132C45.1288 50.3 45.156 50.3991 45.1561 50.5V56.6875H44.0311ZM46.8436 56.6875V50.5C46.8436 50.3991 46.8708 50.3 46.9223 50.2132L47.7942 48.7619C47.5431 48.4562 47.4082 48.0715 47.4132 47.6759C47.4182 47.2803 47.5628 46.8992 47.8215 46.5999C48.0802 46.3006 48.4363 46.1023 48.827 46.0401C49.2177 45.9778 49.6179 46.0557 49.9567 46.2598C50.2956 46.4639 50.5515 46.7812 50.6792 47.1557C50.8068 47.5302 50.7981 47.9377 50.6544 48.3063C50.5108 48.6749 50.2415 48.981 49.8942 49.1703C49.5468 49.3597 49.1437 49.4203 48.7561 49.3413L47.9686 50.6575V56.6875H46.8436ZM42.9061 47.125C42.7569 47.125 42.6138 47.1843 42.5083 47.2898C42.4028 47.3953 42.3436 47.5384 42.3436 47.6875C42.3436 47.8367 42.4028 47.9798 42.5083 48.0853C42.6138 48.1908 42.7569 48.25 42.9061 48.25C43.0098 48.2515 43.1116 48.2221 43.1986 48.1657C43.2042 48.16 43.2154 48.16 43.2211 48.1544C43.2966 48.1021 43.3586 48.0323 43.4016 47.9511C43.4447 47.8699 43.4677 47.7795 43.4686 47.6875C43.4686 47.5384 43.4093 47.3953 43.3038 47.2898C43.1983 47.1843 43.0552 47.125 42.9061 47.125Z" fill="white"></path>
  <defs>
    <linearGradient id="paint0_linear_1074_180" x1="46.5527" y1="10.6826" x2="46.5527" y2="82.6826" gradientUnits="userSpaceOnUse">
      <stop stop-color="#8788FF"></stop>
      <stop offset="1" stop-color="#5A5EFF"></stop>
    </linearGradient>
  </defs>
</svg>
