<?xml version="1.0" encoding="UTF-8"?>
<svg xmlns="http://www.w3.org/2000/svg" width="92" height="92" viewBox="0 0 92 92" fill="none">
  <circle cx="46" cy="46" r="46" fill="white"></circle>
  <circle cx="46" cy="46" r="36" fill="url(#paint0_linear_617_626)"></circle>
  <path d="M35.1094 30.1875H53.1016C52.85 28.9406 51.7453 28 50.4219 28H31.8281C30.3187 28 29.0938 29.225 29.0938 30.7344V56.9844C29.0938 58.3078 30.0344 59.4125 31.2812 59.664V34.0156C31.2812 31.9047 32.9984 30.1875 35.1094 30.1875Z" fill="white"></path>
  <path d="M61.567 44.7453C61.7803 44.532 61.9061 44.2312 61.9061 43.925C61.9061 43.2852 61.3865 42.7656 60.7467 42.7656C60.435 42.7656 60.1451 42.8859 59.9264 43.1047L59.2373 43.7938L60.8779 45.4344L61.567 44.7453Z" fill="white"></path>
  <path d="M55.5738 47.1406L47.6277 55.0812L46.8457 57.8266L49.591 57.0445L56.4379 50.1976L57.5371 49.1039L55.5738 47.1406Z" fill="white"></path>
  <path d="M58.308 44.4062L56.3447 46.3695L58.308 48.3328L59.492 47.1434L60.0635 47.7148C60.3479 47.9992 60.5064 48.3766 60.5064 48.7812C60.5064 49.1859 60.3479 49.5633 60.0635 49.8477L58.2369 51.6742C58.1385 51.7781 58.0783 51.9148 58.0783 52.0625V53.7031C58.0783 54.0039 58.3244 54.25 58.6252 54.25C58.926 54.25 59.1721 54.0039 59.1721 53.7031V52.2867L60.84 50.6242C61.8518 49.607 61.8518 47.9555 60.84 46.9383L58.308 44.4062Z" fill="white"></path>
  <path d="M44.4062 44.3876C46.6672 43.7596 48.2344 41.7077 48.2344 39.3499V37.0881L44.4062 35.1741L40.5781 37.0881V39.3499C40.5781 41.7077 42.1453 43.7596 44.4062 44.3876ZM42.379 39.6447C42.5926 39.431 42.9387 39.431 43.1523 39.6447L43.8594 40.3518L45.6602 38.5509C45.8738 38.3373 46.2199 38.3373 46.4335 38.5509C46.6472 38.7645 46.6472 39.1106 46.4335 39.3242L44.246 41.5117C44.1392 41.6185 43.9993 41.672 43.8594 41.672C43.7195 41.672 43.5795 41.6185 43.4727 41.5117L42.379 40.418C42.1653 40.2044 42.1653 39.8583 42.379 39.6447Z" fill="white"></path>
  <path d="M50.0227 58.0562L46.1945 59.15C46.1453 59.1664 46.0961 59.1719 46.0469 59.1719C45.9047 59.1719 45.7625 59.1172 45.6586 59.0133C45.5219 58.8711 45.4672 58.6633 45.5219 58.4773L46.2609 55.8906H37.2969C36.9949 55.8906 36.75 55.646 36.75 55.3438C36.75 55.0415 36.9949 54.7969 37.2969 54.7969H46.5734L46.6156 54.6492C46.6375 54.5562 46.6867 54.4742 46.7523 54.4086L48.0047 53.1562H37.2969C36.9949 53.1562 36.75 52.9117 36.75 52.6094C36.75 52.3071 36.9949 52.0625 37.2969 52.0625H49.0984L50.739 50.4219H37.2969C36.9949 50.4219 36.75 50.1773 36.75 49.875C36.75 49.5727 36.9949 49.3281 37.2969 49.3281H51.8328L56.4375 44.7234V34.0156C56.4375 32.5062 55.2125 31.2812 53.7031 31.2812H35.1094C33.6 31.2812 32.375 32.5062 32.375 34.0156V60.2656C32.375 61.775 33.6 63 35.1094 63H53.7031C55.2125 63 56.4375 61.775 56.4375 60.2656V51.7453L50.2633 57.9195C50.1977 57.9851 50.1156 58.0344 50.0227 58.0562ZM39.4844 36.75C39.4844 36.5428 39.6013 36.3537 39.7867 36.2608L44.1617 34.0733C44.3155 33.9964 44.497 33.9964 44.6508 34.0733L49.0258 36.2608C49.2112 36.3537 49.3281 36.5428 49.3281 36.75V39.3498C49.3281 42.2561 47.3588 44.7785 44.539 45.4834C44.4954 45.4947 44.4508 45.5 44.4062 45.5C44.3617 45.5 44.3171 45.4947 44.2735 45.4834C41.4537 44.7785 39.4844 42.2561 39.4844 39.3498V36.75ZM40.0312 46.5938H48.7812C49.0833 46.5938 49.3281 46.8383 49.3281 47.1406C49.3281 47.4429 49.0833 47.6875 48.7812 47.6875H40.0312C39.7292 47.6875 39.4844 47.4429 39.4844 47.1406C39.4844 46.8383 39.7292 46.5938 40.0312 46.5938ZM43.8594 59.1719H42.191C41.7101 59.1719 41.258 58.985 40.9181 58.6448C40.6807 58.4071 40.305 58.3708 40.0262 58.5561L39.2408 59.08C39.1477 59.142 39.0422 59.1719 38.938 59.1719C38.7613 59.1719 38.588 59.0864 38.4825 58.9283C38.3151 58.6773 38.3829 58.3377 38.6342 58.17L39.4198 57.6461C40.1314 57.1718 41.0871 57.2669 41.6916 57.8714C41.8246 58.005 42.0022 58.0781 42.191 58.0781H43.8594C44.1614 58.0781 44.4062 58.3227 44.4062 58.625C44.4062 58.9273 44.1614 59.1719 43.8594 59.1719Z" fill="white"></path>
  <defs>
    <linearGradient id="paint0_linear_617_626" x1="46" y1="10" x2="46" y2="82" gradientUnits="userSpaceOnUse">
      <stop stop-color="#FFC77A"></stop>
      <stop offset="1" stop-color="#FFA000"></stop>
    </linearGradient>
  </defs>
</svg>
