<?xml version="1.0" encoding="UTF-8"?>
<svg xmlns="http://www.w3.org/2000/svg" width="92" height="92" viewBox="0 0 92 92" fill="none">
  <circle cx="46" cy="46" r="46" fill="white"></circle>
  <circle cx="46" cy="46" r="36" fill="url(#paint0_linear_617_555)"></circle>
  <path fill-rule="evenodd" clip-rule="evenodd" d="M54.7007 46.6623L55.2374 47.9544C55.4459 48.0594 55.6487 48.1761 55.8426 48.3044L57.231 48.1221C57.5941 48.0755 57.9557 48.2125 58.1964 48.4882C58.8482 49.2348 59.3499 50.1025 59.6707 51.0402C59.7889 51.3873 59.7262 51.7694 59.5045 52.0596C59.5045 52.0596 58.6528 53.1723 58.6528 53.1709C58.6659 53.4042 58.6659 53.639 58.6528 53.8694L59.5045 54.9821C59.7262 55.2723 59.7889 55.6544 59.6707 56.0015C59.3499 56.9392 58.8482 57.8069 58.1964 58.5536C57.9557 58.8292 57.5941 58.9663 57.231 58.9196L55.8426 58.7373C55.6472 58.8657 55.4445 58.9823 55.2374 59.0873L54.7007 60.3794C54.5607 60.7177 54.2603 60.9627 53.9016 61.0342C52.9274 61.2252 51.927 61.2252 50.9528 61.0342C50.5941 60.9627 50.2937 60.7177 50.1537 60.3794L49.617 59.0873C49.4084 58.9823 49.2057 58.8657 49.0118 58.7373L47.6234 58.9196C47.2603 58.9663 46.8987 58.8292 46.658 58.5536C46.0062 57.8069 45.5045 56.9392 45.1837 56.0015C45.0655 55.6544 45.1282 55.2723 45.3499 54.9821C45.3499 54.9821 46.2016 53.8694 46.2016 53.8709C46.1884 53.6375 46.1884 53.4027 46.2016 53.1723L45.3499 52.0596C45.1282 51.7694 45.0655 51.3873 45.1837 51.0402C45.5045 50.1025 46.0062 49.2348 46.658 48.4882C46.8987 48.2125 47.2603 48.0755 47.6234 48.1221L49.0118 48.3044C49.2072 48.1761 49.4099 48.0594 49.617 47.9544L50.1537 46.6623C50.2937 46.324 50.5941 46.079 50.9528 46.0075C51.927 45.8165 52.9274 45.8165 53.9016 46.0075C54.2603 46.079 54.5607 46.324 54.7007 46.6623ZM52.4272 51.698C51.4209 51.698 50.6043 52.5146 50.6043 53.5209C50.6043 54.5271 51.4209 55.3438 52.4272 55.3438C53.4334 55.3438 54.2501 54.5271 54.2501 53.5209C54.2501 52.5146 53.4334 51.698 52.4272 51.698Z" fill="white"></path>
  <path fill-rule="evenodd" clip-rule="evenodd" d="M48.9202 61.1772H35.2819C34.2173 61.1772 33.1979 60.7542 32.4454 60.0032C31.6929 59.2507 31.2715 58.2299 31.2715 57.1667V33.8334C31.2715 32.7703 31.6929 31.7495 32.4454 30.997C33.1979 30.2459 34.2173 29.823 35.2819 29.823H47.8017C48.4798 29.823 49.1288 30.0913 49.6071 30.5711L56.0442 37.0082C56.5225 37.4865 56.7923 38.1355 56.7923 38.8122V46.709L56.3257 46.7703C56.1886 46.4392 56.0486 46.1024 56.0486 46.1024C55.7204 45.3134 55.0204 44.7417 54.1819 44.577C53.024 44.3495 51.8311 44.3495 50.6732 44.577C49.8346 44.7417 49.1346 45.3134 48.8065 46.1024L48.5294 46.7703C48.175 46.7236 47.8134 46.677 47.8134 46.677C46.9661 46.5661 46.1202 46.8855 45.5588 47.5286C44.7829 48.4197 44.1865 49.4507 43.8044 50.5692C43.5273 51.3757 43.6732 52.2697 44.1923 52.9463L44.6327 53.5209C44.4154 53.8053 44.1923 54.0955 44.1923 54.0955C43.6732 54.7722 43.5273 55.6661 43.8044 56.4726C44.1865 57.5911 44.7829 58.6222 45.5588 59.5132C46.1202 60.1563 46.9661 60.4757 47.8134 60.3649L48.5294 60.2715C48.6665 60.6026 48.8065 60.9395 48.8065 60.9395C48.8415 61.0211 48.8794 61.0999 48.9202 61.1772ZM47.6777 31.7772V37.4792C47.6777 38.2842 48.3296 38.9376 49.1361 38.9376H54.8382C54.7667 38.7801 54.6661 38.6357 54.5421 38.5103L48.105 32.0732C47.9796 31.9478 47.8352 31.8486 47.6777 31.7772ZM36.7402 39.2745H43.3027C43.9065 39.2745 44.3965 38.7845 44.3965 38.1807C44.3965 37.577 43.9065 37.087 43.3027 37.087H36.7402C36.1365 37.087 35.6465 37.577 35.6465 38.1807C35.6465 38.7845 36.1365 39.2745 36.7402 39.2745ZM36.7402 54.6147H41.8444C42.4482 54.6147 42.9382 54.1247 42.9382 53.5209C42.9382 52.9172 42.4482 52.4272 41.8444 52.4272H36.7402C36.1365 52.4272 35.6465 52.9172 35.6465 53.5209C35.6465 54.1247 36.1365 54.6147 36.7402 54.6147ZM36.7402 49.5105H41.8444C42.4482 49.5105 42.9382 49.0205 42.9382 48.4167C42.9382 47.813 42.4482 47.323 41.8444 47.323H36.7402C36.1365 47.323 35.6465 47.813 35.6465 48.4167C35.6465 49.0205 36.1365 49.5105 36.7402 49.5105ZM36.7402 44.4063H46.9486C47.5523 44.4063 48.0423 43.9163 48.0423 43.3126C48.0423 42.7088 47.5523 42.2188 46.9486 42.2188H36.7402C36.1365 42.2188 35.6465 42.7088 35.6465 43.3126C35.6465 43.9163 36.1365 44.4063 36.7402 44.4063Z" fill="white"></path>
  <defs>
    <linearGradient id="paint0_linear_617_555" x1="46" y1="10" x2="46" y2="82" gradientUnits="userSpaceOnUse">
      <stop stop-color="#85FF82"></stop>
      <stop offset="1" stop-color="#2CCB33"></stop>
    </linearGradient>
  </defs>
</svg>
