<?xml version="1.0" encoding="UTF-8"?>
<svg xmlns="http://www.w3.org/2000/svg" width="81" height="80" viewBox="0 0 81 80" fill="none">
  <path d="M0.5 40C0.5 17.9086 18.4086 0 40.5 0C62.5914 0 80.5 17.9086 80.5 40C80.5 62.0914 62.5914 80 40.5 80C18.4086 80 0.5 62.0914 0.5 40Z" fill="url(#paint0_linear_982_482)"></path>
  <path fill-rule="evenodd" clip-rule="evenodd" d="M29.75 20.2916C28.3245 20.2916 26.9573 20.8579 25.9493 21.8659C24.9413 22.8739 24.375 24.2411 24.375 25.6666V57.9166C24.3752 58.214 24.4493 58.5067 24.5909 58.7683C24.7324 59.0299 24.9368 59.2521 25.1857 59.415C25.4346 59.5778 25.7201 59.6761 26.0165 59.7011C26.3128 59.726 26.6107 59.6768 26.8833 59.5578L33.3333 56.7359L39.7833 59.5578C40.0094 59.6565 40.2534 59.7074 40.5 59.7074C40.7466 59.7074 40.9906 59.6565 41.2167 59.5578L47.6667 56.7359L54.1167 59.5578C54.3893 59.6768 54.6872 59.726 54.9835 59.7011C55.2799 59.6761 55.5654 59.5778 55.8143 59.415C56.0632 59.2521 56.2676 59.0299 56.4091 58.7683C56.5507 58.5067 56.6248 58.214 56.625 57.9166V25.6666C56.625 24.2411 56.0587 22.8739 55.0507 21.8659C54.0427 20.8579 52.6755 20.2916 51.25 20.2916H29.75ZM42.2917 40H30.6458V36.4166H42.2917V40ZM30.6458 47.1666H42.2917V43.5833H30.6458V47.1666ZM50.3542 40H46.7708V36.4166H50.3542V40ZM46.7708 47.1666H50.3542V43.5833H46.7708V47.1666ZM42.2917 32.8333H30.6458V29.25H42.2917V32.8333ZM46.7708 32.8333H50.3542V29.25H46.7708V32.8333Z" fill="white"></path>
  <defs>
    <linearGradient id="paint0_linear_982_482" x1="40.5" y1="0" x2="40.5" y2="80" gradientUnits="userSpaceOnUse">
      <stop stop-color="#8788FF"></stop>
      <stop offset="1" stop-color="#5A5EFF"></stop>
    </linearGradient>
  </defs>
</svg>
