<?xml version="1.0" encoding="UTF-8"?>
<svg xmlns="http://www.w3.org/2000/svg" width="93" height="93" viewBox="0 0 93 93" fill="none">
  <circle cx="46.5527" cy="46.6824" r="46" fill="white"></circle>
  <circle cx="46.5527" cy="46.6824" r="36" fill="url(#paint0_linear_1074_213)"></circle>
  <path fill-rule="evenodd" clip-rule="evenodd" d="M54.1925 30.1797C51.7758 30.1797 49.8166 32.1388 49.8166 34.5556C49.8166 36.9723 51.7758 38.9315 54.1925 38.9315C56.6091 38.9315 58.5684 36.9723 58.5684 34.5556C58.5684 32.139 56.6091 30.1797 54.1925 30.1797ZM51.9046 34.2039C51.8113 34.2039 51.7219 34.241 51.6559 34.3069C51.59 34.3728 51.553 34.4623 51.553 34.5555C51.553 34.6488 51.59 34.7382 51.6559 34.8041C51.7219 34.8701 51.8113 34.9071 51.9046 34.9071H53.841V36.8435C53.841 36.9368 53.878 37.0262 53.944 37.0922C54.0099 37.1581 54.0993 37.1951 54.1926 37.1951C54.2858 37.1951 54.3753 37.1581 54.4412 37.0922C54.5072 37.0262 54.5442 36.9368 54.5442 36.8435V34.9073H56.4806C56.5739 34.9073 56.6633 34.8703 56.7292 34.8043C56.7952 34.7384 56.8322 34.649 56.8322 34.5557C56.8322 34.4625 56.7952 34.373 56.7292 34.3071C56.6633 34.2412 56.5739 34.2041 56.4806 34.2041H54.5442V32.2677C54.5442 32.1744 54.5072 32.085 54.4412 32.0191C54.3753 31.9531 54.2858 31.9161 54.1926 31.9161C54.0993 31.9161 54.0099 31.9531 53.944 32.0191C53.878 32.085 53.841 32.1744 53.841 32.2677V34.2041L51.9046 34.2039ZM49.2674 47.5719C48.7733 47.3306 48.2729 47.1014 47.7759 46.8658L47.7539 46.893L46.5242 48.3758L47.5135 48.7194C47.6741 48.7734 47.8201 48.8638 47.9401 48.9835C48.06 49.1033 48.1506 49.2491 48.2048 49.4097C48.2623 49.5692 48.2822 49.7399 48.2628 49.9083C48.2434 50.0768 48.1853 50.2384 48.0932 50.3807L43.5518 57.5408H45.6034C45.6086 57.1679 45.6773 56.8025 45.811 56.4535C46.6014 54.3873 49.3405 53.5143 51.3754 53.1885V52.2208C50.8895 51.7524 50.488 51.1335 50.2262 50.3627C49.7061 50.0917 49.283 49.6609 49.0897 49.091C48.9182 48.5853 48.9568 48.0046 49.2674 47.5719Z" fill="white"></path>
  <path fill-rule="evenodd" clip-rule="evenodd" d="M45.0578 45.0728L43.4853 56.333L47.4994 50.004C47.572 49.8892 47.5859 49.7699 47.5411 49.6413C47.5218 49.5809 47.4882 49.5259 47.4433 49.481C47.3984 49.4361 47.3433 49.4027 47.2828 49.3835L45.3356 48.7075L47.2124 46.4441C47.2479 46.4013 47.2764 46.3529 47.2932 46.2996C47.3175 46.2227 47.3154 46.1436 47.2942 46.066C47.256 45.9265 47.1676 45.8308 47.0314 45.782L45.0578 45.0728ZM42.6067 57.5407L44.0201 47.4194C42.6453 48.3228 40.9358 48.3263 39.5605 47.4242L40.9729 57.5407H42.6067ZM40.0943 56.333L38.7402 46.6349L38.522 45.0728L36.548 45.782C36.4118 45.8308 36.3234 45.9265 36.2852 46.066C36.2638 46.1445 36.2619 46.2248 36.2873 46.3027C36.3041 46.3546 36.3321 46.4019 36.367 46.4441L38.2438 48.7075L36.2968 49.3835C36.1683 49.4281 36.0834 49.5128 36.0385 49.6413C36.016 49.7007 36.008 49.7647 36.0153 49.8278C36.0226 49.8909 36.0448 49.9513 36.0803 50.004L40.0943 56.333Z" fill="white"></path>
  <path fill-rule="evenodd" clip-rule="evenodd" d="M40.0282 57.5409L35.4866 50.3806C35.3945 50.2384 35.3364 50.0767 35.317 49.9083C35.2976 49.7399 35.3173 49.5693 35.3747 49.4098C35.429 49.2492 35.5196 49.1033 35.6396 48.9835C35.7595 48.8637 35.9056 48.7733 36.0663 48.7193L37.0556 48.3759L35.8261 46.8931C35.82 46.8856 35.814 46.8781 35.808 46.8705C35.4053 47.0615 35.0006 47.2481 34.5987 47.4404L34.5989 47.4526V51.9407C35.0433 51.9435 35.4687 52.1217 35.7823 52.4367C35.9395 52.5932 36.0643 52.7792 36.1495 52.9841C36.2346 53.1889 36.2785 53.4086 36.2785 53.6305V55.357C36.2785 55.5511 36.1209 55.7085 35.9268 55.7085H35.0727C34.9794 55.7085 34.89 55.6714 34.824 55.6055C34.7581 55.5396 34.7211 55.4501 34.7211 55.3569C34.7211 55.2636 34.7581 55.1742 34.824 55.1083C34.89 55.0423 34.9794 55.0053 35.0727 55.0053H35.5751V53.6303C35.5751 53.3593 35.464 53.1129 35.2851 52.9337C35.1061 52.7545 34.8594 52.6437 34.5885 52.6437H33.9063C33.6353 52.6437 33.3887 52.7547 33.2097 52.9337C33.0308 53.1127 32.9197 53.3593 32.9197 53.6303V55.0053H33.4221C33.5154 55.0053 33.6048 55.0423 33.6707 55.1083C33.7367 55.1742 33.7737 55.2636 33.7737 55.3569C33.7737 55.4501 33.7367 55.5396 33.6707 55.6055C33.6048 55.6714 33.5154 55.7085 33.4221 55.7085H32.568C32.4748 55.7085 32.3854 55.6715 32.3194 55.6055C32.2535 55.5396 32.2165 55.4502 32.2165 55.357V53.6303C32.2165 53.1652 32.4065 52.7427 32.7127 52.4365C33.0263 52.1216 33.4515 51.9435 33.8959 51.9407V47.7863C32.1035 48.6967 30.1816 49.9282 30.1816 52.1707V56.6461C30.1816 56.7866 30.1879 56.9309 30.2144 57.0692C30.2747 57.3831 30.405 57.5409 30.7439 57.5409H40.0282ZM61.8184 57.587C61.8184 55.078 58.3512 54.125 56.3977 53.8464C54.8858 54.3745 53.2394 54.3745 51.7274 53.8464C48.767 54.2683 46.3066 55.5131 46.3066 57.587V61.0131C46.3066 61.339 46.3572 61.8205 46.8987 61.8205H61.2265C61.7679 61.8205 61.8184 61.3388 61.8184 61.0131V57.587ZM57.5386 47.7313C60.4361 42.6447 51.1972 41.3628 50.7381 44.2589C49.9085 44.8886 49.7557 46.2728 50.5866 47.7313C49.4615 47.4923 49.2516 49.2813 50.805 49.851C51.8119 53.5294 56.2802 53.5294 57.32 49.851C58.8736 49.2813 58.6637 47.5087 57.5386 47.7313ZM37.9841 39.366L37.1831 38.0956C36.0968 36.1876 36.297 34.3772 37.3824 33.5536C38.2758 31.4081 45.5961 30.4887 46.0819 33.5536C47.1675 34.3774 47.3675 36.1876 46.2812 38.0956L45.4798 39.3737C45.9887 36.3003 45.5913 36.2723 42.2674 35.0843C42.5005 35.5668 42.9745 36.4666 43.6896 37.0548C41.8993 37.4597 40.1202 36.5601 38.3526 35.0845C38.6744 36.2445 38.255 38.2204 37.9841 39.366Z" fill="white"></path>
  <path d="M37.6123 37.3049L37.984 39.3659L37.3624 39.2596C37.156 39.2189 37.0067 39.2659 36.9208 39.3626C36.8664 39.4239 36.8286 39.5079 36.8095 39.6061C36.787 39.7317 36.792 39.8606 36.824 39.984C36.9193 40.37 37.2486 40.7779 37.8727 41.0067L38.0882 41.0856L38.1511 41.308C38.4881 42.4999 39.1371 43.3432 39.9162 43.8401C40.483 44.2015 41.1208 44.3815 41.7574 44.3799C42.3914 44.378 43.0253 44.1947 43.5873 43.8301C44.3547 43.3318 44.9891 42.493 45.3126 41.3115L45.3743 41.0862L45.5908 41.0067C46.2195 40.7763 46.5488 40.3608 46.6409 39.9699C46.6717 39.8466 46.6758 39.7182 46.653 39.5933C46.6339 39.4978 46.5965 39.4158 46.5425 39.3553C46.4576 39.2598 46.3108 39.215 46.1086 39.2578L45.4797 39.3736L45.8514 37.3049H46.6391L46.4659 38.3534C46.756 38.3935 47.022 38.5365 47.2154 38.7564C47.3773 38.9382 47.4866 39.1672 47.5372 39.4207C47.5839 39.6558 47.5794 39.9138 47.5181 40.1744C47.3767 40.7744 46.9314 41.3973 46.1157 41.7647C45.7114 43.064 44.9696 44.0043 44.0769 44.5837C43.3868 45.034 42.5813 45.2751 41.7574 45.278C40.9535 45.2801 40.1484 45.0534 39.4335 44.5974C38.5261 44.0188 37.7672 43.074 37.3491 41.7651C36.541 41.402 36.0963 40.7908 35.9506 40.1987C35.8858 39.9356 35.8792 39.6747 35.9255 39.4369C35.9747 39.1826 36.0843 38.9517 36.2481 38.7674C36.4415 38.5464 36.7071 38.4014 36.9976 38.3584L36.8246 37.3049H37.6123Z" fill="white"></path>
  <defs>
    <linearGradient id="paint0_linear_1074_213" x1="46.5527" y1="10.6824" x2="46.5527" y2="82.6824" gradientUnits="userSpaceOnUse">
      <stop stop-color="#8DD1FF"></stop>
      <stop offset="1" stop-color="#359BFF"></stop>
    </linearGradient>
  </defs>
</svg>
