<svg xmlns="http://www.w3.org/2000/svg" width="93" height="93" viewBox="0 0 93 93" fill="none"><circle cx="46.5529" cy="46.6826" r="46" fill="white"></circle><circle cx="46.5529" cy="46.6826" r="36" fill="url(#paint0_linear_7_1180)"></circle><g clip-path="url(#clip0_7_1180)"><path fill-rule="evenodd" clip-rule="evenodd" d="M36.5506 62.5259H52.4495C53.4784 62.5247 54.4649 62.1155 55.1925 61.3879C55.9202 60.6603 56.3294 59.6738 56.3306 58.6448V31.407C56.3294 30.378 55.9202 29.3915 55.1925 28.6639C54.4649 27.9363 53.4784 27.527 52.4495 27.5259H36.5506C35.5216 27.5271 34.5352 27.9364 33.8076 28.664C33.08 29.3916 32.6707 30.378 32.6695 31.407V58.6448C32.6707 59.6737 33.08 60.6602 33.8076 61.3878C34.5352 62.1154 35.5216 62.5247 36.5506 62.5259ZM49.0391 48.8592V41.1921C49.0412 40.9502 49.1387 40.7189 49.3105 40.5486C49.4823 40.3783 49.7144 40.2828 49.9563 40.2828C50.1982 40.2828 50.4303 40.3783 50.6021 40.5486C50.7739 40.7189 50.8714 40.9502 50.8735 41.1921V48.8592C50.8714 49.1011 50.7739 49.3324 50.6021 49.5027C50.4303 49.673 50.1982 49.7685 49.9563 49.7685C49.7144 49.7685 49.4823 49.673 49.3105 49.5027C49.1387 49.3324 49.0412 49.1011 49.0391 48.8592ZM38.1269 45.5373V41.2034C38.1269 41.0829 38.1506 40.9636 38.1967 40.8523C38.2428 40.741 38.3104 40.6398 38.3956 40.5546C38.4808 40.4694 38.5819 40.4019 38.6932 40.3557C38.8045 40.3096 38.9238 40.2859 39.0443 40.2859C39.1648 40.2859 39.2841 40.3096 39.3954 40.3557C39.5067 40.4019 39.6079 40.4694 39.6931 40.5546C39.7782 40.6398 39.8458 40.741 39.8919 40.8523C39.938 40.9636 39.9618 41.0829 39.9618 41.2034V45.5373C39.9618 46.172 40.2139 46.7806 40.6626 47.2293C41.1113 47.6781 41.72 47.9302 42.3546 47.9302C42.9892 47.9302 43.5978 47.6781 44.0466 47.2293C44.4953 46.7806 44.7474 46.172 44.7474 45.5373V41.2034C44.7474 41.0829 44.7711 40.9636 44.8172 40.8523C44.8633 40.741 44.9309 40.6398 45.0161 40.5546C45.1013 40.4694 45.2024 40.4019 45.3138 40.3557C45.4251 40.3096 45.5444 40.2859 45.6649 40.2859C45.7853 40.2859 45.9046 40.3096 46.0159 40.3557C46.1273 40.4019 46.2284 40.4694 46.3136 40.5546C46.3988 40.6398 46.4664 40.741 46.5125 40.8523C46.5586 40.9636 46.5823 41.0829 46.5823 41.2034V45.5373C46.5845 46.094 46.4768 46.6456 46.2654 47.1604C46.0539 47.6753 45.7429 48.1434 45.3501 48.5378C44.9573 48.9322 44.4904 49.2451 43.9764 49.4587C43.4624 49.6722 42.9112 49.7821 42.3546 49.7821C41.798 49.7821 41.2468 49.6722 40.7328 49.4587C40.2187 49.2451 39.7519 48.9322 39.3591 48.5378C38.9663 48.1434 38.6552 47.6753 38.4438 47.1604C38.2323 46.6456 38.1246 46.094 38.1269 45.5373ZM45.4187 56.3166C45.4187 56.4981 45.365 56.6755 45.2642 56.8265C45.1635 56.9774 45.0203 57.0951 44.8526 57.1647C44.685 57.2342 44.5005 57.2526 44.3225 57.2173C44.1445 57.1821 43.9809 57.0948 43.8524 56.9667C43.7239 56.8385 43.6363 56.6751 43.6007 56.4971C43.5651 56.3192 43.583 56.1347 43.6522 55.9669C43.7214 55.7991 43.8387 55.6556 43.9895 55.5545C44.1402 55.4534 44.3175 55.3993 44.499 55.3989H44.501C44.7444 55.399 44.9778 55.4957 45.1499 55.6678C45.3219 55.8399 45.4186 56.0732 45.4187 56.3166Z" fill="white"></path></g><defs><linearGradient id="paint0_linear_7_1180" x1="46.5529" y1="10.6826" x2="46.5529" y2="82.6826" gradientUnits="userSpaceOnUse"><stop stop-color="#85FF82"></stop><stop offset="1" stop-color="#2CCB33"></stop></linearGradient><clipPath id="clip0_7_1180"><rect width="35" height="35" fill="white" transform="translate(27 27.5259)"></rect></clipPath></defs></svg>