<?xml version="1.0" encoding="UTF-8"?>
<svg xmlns="http://www.w3.org/2000/svg" width="92" height="92" viewBox="0 0 92 92" fill="none">
  <circle cx="46" cy="46" r="46" fill="white"></circle>
  <circle cx="46" cy="46" r="36" fill="url(#paint0_linear_617_581)"></circle>
  <g clip-path="url(#clip0_617_581)">
    <path d="M38.9405 50.9602C38.9405 50.5522 38.5824 50.2212 38.1402 50.2212C37.698 50.2212 37.3398 50.5522 37.3398 50.9602C37.3398 51.3685 37.698 51.6992 38.1402 51.6992C38.5824 51.6992 38.9405 51.3685 38.9405 50.9602Z" fill="white"></path>
    <path d="M38.1402 44.9739C37.6989 44.9739 37.3398 45.3052 37.3398 45.7129C37.3398 46.1203 37.6989 46.4519 38.1402 46.4519C38.5815 46.4519 38.9408 46.1203 38.9408 45.7129C38.9408 45.3052 38.5815 44.9739 38.1402 44.9739Z" fill="white"></path>
    <path d="M38.9405 40.4653C38.9405 40.0571 38.5824 39.7263 38.1402 39.7263C37.698 39.7263 37.3398 40.0571 37.3398 40.4653C37.3398 40.8733 37.698 41.2044 38.1402 41.2044C38.5824 41.2044 38.9405 40.8733 38.9405 40.4653Z" fill="white"></path>
    <path d="M55.5603 28.9651C51.4516 28.9651 48.1208 32.2959 48.1211 36.4046C48.1211 40.5133 51.4519 43.8441 55.5606 43.8441C59.6693 43.8441 62.9998 40.5133 62.9998 36.4046C62.9954 32.2979 59.6672 28.9698 55.5603 28.9651ZM55.5258 35.8725C56.804 35.8728 57.8729 36.8438 57.9949 38.1161C58.117 39.3887 57.2524 40.5454 55.9975 40.7883V41.484C55.9975 41.7759 55.761 42.0123 55.4692 42.0123C55.1774 42.0123 54.941 41.7759 54.941 41.484V40.7636C53.8293 40.4927 53.0467 39.4975 53.0452 38.3534C53.0452 38.0616 53.2816 37.8252 53.5734 37.8252C53.865 37.8252 54.1017 38.0616 54.1017 38.3534C54.1017 39.1399 54.7393 39.7775 55.5258 39.7775C56.3123 39.7775 56.9499 39.1399 56.9499 38.3534C56.9499 37.5666 56.3123 36.929 55.5258 36.929C54.2697 36.929 53.212 35.9901 53.0629 34.7432C52.9137 33.4959 53.7202 32.3342 54.941 32.0379V31.3717C54.941 31.0802 55.1774 30.8435 55.4692 30.8435C55.761 30.8435 55.9975 31.0802 55.9975 31.3717V32.0132C57.163 32.2404 58.0049 33.261 58.0064 34.4484C58.0064 34.7402 57.77 34.9766 57.4782 34.9766C57.1866 34.9766 56.9499 34.7402 56.9499 34.4484C56.949 33.6716 56.3259 33.0384 55.5488 33.0255C55.5226 33.0296 55.496 33.0319 55.4692 33.0319C55.4527 33.0319 55.4365 33.0311 55.4203 33.0296C54.6568 33.0865 54.0749 33.7368 54.1035 34.502C54.1318 35.267 54.7602 35.8725 55.5261 35.8725H55.5258Z" fill="white"></path>
    <path d="M47.0346 61.8447C46.1549 60.971 45.66 59.7824 45.6588 58.5425V56.4263H28V58.5514C28.0088 60.5459 29.6272 62.159 31.6217 62.1616H47.3922C47.2627 62.0682 47.1428 61.962 47.0346 61.8447Z" fill="white"></path>
    <path d="M48.4137 40.956H42.0157C41.7239 40.956 41.4874 40.7196 41.4874 40.4278C41.4874 40.1362 41.7239 39.8995 42.0157 39.8995H47.8348C47.3242 38.7929 47.0615 37.5881 47.0651 36.3691C47.0668 35.7805 47.1279 35.1935 47.2473 34.6169H33.0304L32.8906 55.3698H46.2146C46.349 55.3645 46.4793 55.4152 46.5746 55.5101C46.6698 55.6051 46.7208 55.7354 46.7158 55.8698V58.5432C46.7255 60.5421 48.3468 62.1581 50.3457 62.1617H50.3575C52.3488 62.1576 53.9604 60.5424 53.9604 58.5514V44.7496C51.6631 44.3145 49.6521 42.9393 48.4137 40.956ZM38.1405 52.7563C37.1167 52.7563 36.2836 51.9506 36.2836 50.9604C36.2836 49.9705 37.1167 49.1649 38.1405 49.1649C39.1642 49.1649 39.9976 49.9705 39.9976 50.9604C39.9976 51.9506 39.1645 52.7563 38.1405 52.7563ZM38.1405 47.5085C37.1167 47.5085 36.2836 46.7031 36.2836 45.713C36.2836 44.7228 37.1167 43.9174 38.1405 43.9174C39.1642 43.9174 39.9976 44.7228 39.9976 45.713C39.9976 46.7028 39.1645 47.5085 38.1405 47.5085ZM38.1405 42.261C37.1167 42.261 36.2836 41.4554 36.2836 40.4655C36.2836 39.4753 37.1167 38.6697 38.1405 38.6697C39.1642 38.6697 39.9976 39.475 39.9976 40.4652C39.9976 41.4554 39.1645 42.261 38.1405 42.261ZM50.0645 51.5211H42.0157C41.7239 51.5211 41.4874 51.2847 41.4874 50.9929C41.4874 50.7013 41.7239 50.4646 42.0157 50.4646H50.0645C50.3564 50.4646 50.5928 50.7013 50.5928 50.9929C50.5928 51.2847 50.3564 51.5211 50.0645 51.5211ZM50.5928 45.7103C50.5928 46.0021 50.3564 46.2386 50.0645 46.2386H42.0157C41.7239 46.2386 41.4874 46.0021 41.4874 45.7103C41.4874 45.4188 41.7239 45.182 42.0157 45.182H50.0645C50.3564 45.182 50.5928 45.4188 50.5928 45.7103Z" fill="white"></path>
  </g>
  <defs>
    <linearGradient id="paint0_linear_617_581" x1="46" y1="10" x2="46" y2="82" gradientUnits="userSpaceOnUse">
      <stop stop-color="#8DD1FF"></stop>
      <stop offset="1" stop-color="#359BFF"></stop>
    </linearGradient>
    <clipPath id="clip0_617_581">
      <rect width="35" height="35" fill="white" transform="translate(28 28)"></rect>
    </clipPath>
  </defs>
</svg>
