<svg xmlns="http://www.w3.org/2000/svg" width="90" height="90" viewBox="0 0 90 90" fill="none"><path d="M0 40C0 21.1438 0 11.7157 5.85786 5.85786C11.7157 0 21.1438 0 40 0H50C68.8562 0 78.2843 0 84.1421 5.85786C90 11.7157 90 21.1438 90 40V50C90 68.8562 90 78.2843 84.1421 84.1421C78.2843 90 68.8562 90 50 90H40C21.1438 90 11.7157 90 5.85786 84.1421C0 78.2843 0 68.8562 0 50V40Z" fill="#2EADDC"></path><path fill-rule="evenodd" clip-rule="evenodd" d="M35.3196 51.3261L46.5396 44.8641C47.6876 44.2024 48.085 42.7213 47.4233 41.5735C46.7618 40.4261 45.281 40.0278 44.1331 40.6896L27.9558 50.0318C27.5115 47.8702 26.7287 47.055 25.3439 46.9774C23.7838 46.8901 22.4521 48.0348 22.2898 49.5894C21.5836 56.346 19.9731 57.5868 22.9796 63.5587C25.5596 68.6834 31.769 70.1257 36.3749 67.4834L42.6197 63.8118C43.7678 63.1503 44.1652 61.6692 43.5033 60.5215C42.8419 59.374 41.361 58.9757 40.2126 59.6398C41.3601 58.9805 41.7574 57.4993 41.0958 56.3515C40.4343 55.2039 38.9534 54.8057 37.8048 55.4693C38.9522 54.8095 39.3492 53.3283 38.6877 52.1806C38.0264 51.0332 36.4638 50.658 35.3196 51.3261ZM55.9741 24.1527C55.9741 24.334 55.9021 24.5079 55.7739 24.6361C55.6457 24.7643 55.4718 24.8363 55.2905 24.8363C55.1092 24.8363 54.9354 24.7643 54.8072 24.6361C54.679 24.5079 54.6069 24.334 54.6069 24.1527V21.9043C54.6069 21.723 54.679 21.5491 54.8072 21.4209C54.9354 21.2927 55.1092 21.2207 55.2905 21.2207C55.4718 21.2207 55.6457 21.2927 55.7739 21.4209C55.9021 21.5491 55.9741 21.723 55.9741 21.9043V24.1527ZM52.1833 45.0298H54.6069V36.9515L51.9524 35.4189C51.7969 35.3285 51.6836 35.1801 51.6371 35.0063C51.5906 34.8325 51.6149 34.6474 51.7045 34.4914C51.7942 34.3354 51.9419 34.2213 52.1155 34.1739C52.2891 34.1266 52.4743 34.1498 52.6308 34.2387L55.2905 35.7743L57.9503 34.2387C58.1067 34.1498 58.292 34.1266 58.4656 34.1739C58.6391 34.2213 58.7869 34.3354 58.8765 34.4914C58.9662 34.6474 58.9904 34.8325 58.944 35.0063C58.8975 35.1801 58.7841 35.3285 58.6286 35.4189L55.9742 36.9515V45.0298H58.3979C58.6573 41.5546 59.6084 40.0825 60.4369 38.801C61.0587 37.8392 61.6004 37.0012 61.6004 35.2587C61.6004 31.7737 58.7756 28.9489 55.2906 28.9489C51.8057 28.9489 48.9809 31.7737 48.9809 35.2587C48.9809 37.0012 49.5226 37.8392 50.1443 38.801C50.9728 40.0826 51.9238 41.5546 52.1833 45.0298ZM59.7566 45.2C60.0884 45.4038 60.3108 45.7701 60.3108 46.1859V48.6812C60.3108 49.317 59.7906 49.8373 59.1547 49.8373H57.9663V50.9965C57.9663 51.5964 57.4755 52.0871 56.8757 52.0871H53.7054C53.1055 52.0871 52.6147 51.5963 52.6147 50.9965V49.8373H51.4263C50.7904 49.8373 50.2701 49.3171 50.2701 48.6812V46.1859C50.2701 45.7701 50.4926 45.4039 50.8243 45.2001C50.5939 42.002 49.7427 40.6848 49.0013 39.5381C48.2597 38.3909 47.6135 37.3913 47.6135 35.2588C47.6135 31.0191 51.0508 27.5818 55.2904 27.5818C59.5301 27.5818 62.9674 31.019 62.9674 35.2588C62.9674 37.3914 62.3212 38.3909 61.5796 39.5381C60.8384 40.6847 59.9872 42.0019 59.7566 45.2ZM66.4891 31.0125C66.3326 31.1013 66.1474 31.1246 65.9738 31.0772C65.8002 31.0299 65.6525 30.9157 65.5628 30.7598C65.4732 30.6038 65.449 30.4186 65.4954 30.2448C65.5419 30.071 65.6552 29.9227 65.8107 29.8322L67.7579 28.7081C67.9144 28.6193 68.0996 28.596 68.2732 28.6434C68.4467 28.6907 68.5945 28.8049 68.6841 28.9608C68.7738 29.1168 68.798 29.302 68.7516 29.4758C68.7051 29.6496 68.5917 29.7979 68.4362 29.8884L66.4891 31.0125ZM62.1504 26.1718C62.0599 26.3273 61.9116 26.4407 61.7378 26.4871C61.564 26.5336 61.3788 26.5093 61.2229 26.4197C61.0669 26.33 60.9527 26.1823 60.9054 26.0087C60.858 25.8352 60.8813 25.6499 60.9701 25.4935L62.0943 23.5463C62.1848 23.3908 62.3331 23.2774 62.507 23.2309C62.6808 23.1845 62.8659 23.2087 63.0219 23.2984C63.1779 23.388 63.292 23.5358 63.3394 23.7093C63.3867 23.8829 63.3634 24.0682 63.2746 24.2246L62.1504 26.1718ZM44.7702 29.8323C44.9257 29.9228 45.0391 30.0711 45.0856 30.2449C45.132 30.4187 45.1078 30.6039 45.0181 30.7599C44.9285 30.9158 44.7807 31.03 44.6072 31.0773C44.4336 31.1247 44.2483 31.1014 44.0919 31.0126L42.1447 29.8884C41.9892 29.7979 41.8758 29.6496 41.8294 29.4758C41.7829 29.302 41.8072 29.1168 41.8968 28.9608C41.9865 28.8049 42.1342 28.6907 42.3078 28.6434C42.4813 28.596 42.6666 28.6193 42.8231 28.7081L44.7702 29.8323ZM49.6109 25.4909C49.6988 25.6473 49.7215 25.8319 49.6742 26.0049C49.6269 26.1779 49.5133 26.3253 49.3581 26.4152C49.203 26.505 49.0186 26.5302 48.845 26.4851C48.6714 26.4401 48.5226 26.3285 48.4307 26.1745L47.3065 24.2273C47.2186 24.071 47.1959 23.8863 47.2432 23.7134C47.2905 23.5404 47.4041 23.393 47.5592 23.3031C47.7144 23.2132 47.8988 23.1881 48.0724 23.2331C48.2459 23.2782 48.3948 23.3898 48.4867 23.5437L49.6109 25.4909Z" fill="white"></path></svg>