<svg xmlns="http://www.w3.org/2000/svg" width="81" height="80" viewBox="0 0 81 80" fill="none"><rect x="0.333008" width="80" height="80" rx="16" fill="white"></rect><path d="M55.865 38.0946C56.1376 38.0946 56.3607 37.8715 56.3607 37.5989V26.3705C56.3607 25.2105 55.4188 24.2686 54.2588 24.2686H26.7406C25.5805 24.2686 24.6387 25.2105 24.6387 26.3705V48.2126C24.6387 49.3726 25.5806 50.3144 26.7406 50.3144H36.6503L34.6575 53.7399H33.1901C33.1249 53.7397 33.0603 53.7524 33.0001 53.7772C32.9398 53.802 32.8851 53.8385 32.839 53.8846C32.7929 53.9307 32.7564 53.9854 32.7316 54.0457C32.7068 54.1059 32.6941 54.1705 32.6943 54.2356C32.6943 54.5083 32.9174 54.7314 33.1901 54.7314H47.8142C48.0868 54.7314 48.3099 54.5083 48.3099 54.2356C48.3102 54.1705 48.2975 54.1059 48.2727 54.0457C48.2478 53.9854 48.2113 53.9307 48.1652 53.8846C48.1192 53.8385 48.0644 53.802 48.0042 53.7772C47.9439 53.7524 47.8794 53.7397 47.8142 53.7399H46.3418L44.354 50.3144H54.2587C55.4188 50.3144 56.3606 49.3725 56.3606 48.2126V40.1073C56.3606 39.8346 56.1376 39.6116 55.8649 39.6116C55.5923 39.6116 55.3692 39.8346 55.3692 40.1073V44.5491H46.8525V42.6405C46.8525 40.8311 45.3801 39.3637 43.5757 39.3637C43.5261 39.3637 40.7252 39.3587 40.7252 39.3587C40.4674 39.3587 40.2493 39.1951 40.165 38.9671C40.0907 38.7886 40.1353 38.7142 40.1254 37.2717C40.8244 36.4191 41.2111 35.3235 41.2111 34.1585V31.9822C41.2111 29.7564 39.4016 27.9419 37.1708 27.9419C34.945 27.9419 33.1306 29.7563 33.1306 31.9822C33.1306 34.6592 33.1306 34.1932 33.1405 34.2923C33.1058 34.8872 33.3387 35.9084 33.8593 36.7462C33.8444 38.8531 33.889 38.7738 33.8196 38.9621H33.8147C33.7304 39.2001 33.5023 39.3587 33.2495 39.3587C32.8331 39.3587 30.5874 39.3637 30.4387 39.3637C28.6342 39.3637 27.1619 40.8311 27.1619 42.6405V44.5491H25.6301V26.3705C25.6301 25.7607 26.1258 25.26 26.7406 25.26H54.2588C54.8735 25.26 55.3693 25.7607 55.3693 26.3705V37.5989C55.3693 37.8715 55.5923 38.0946 55.865 38.0946ZM37.0023 40.3353L34.8359 38.9076C34.8607 38.625 34.8409 38.9126 34.8508 37.8864C35.52 38.4267 36.3281 38.7291 37.1807 38.7291C37.8748 38.7291 38.544 38.5308 39.1339 38.1541C39.1389 38.7837 39.1191 38.635 39.1488 38.9225L37.0023 40.3353ZM40.5021 46.9286C40.7748 46.9286 41.0276 47.1814 41.0276 47.459C41.0276 47.7317 40.7748 47.9845 40.5021 47.9845C40.2295 47.9845 39.9717 47.7317 39.9717 47.459C39.9717 47.1814 40.2295 46.9286 40.5021 46.9286ZM34.122 31.9822C34.122 30.3016 35.4903 28.9334 37.1708 28.9334C38.8514 28.9334 40.2196 30.3016 40.2196 31.9822V34.1584C40.2196 35.1499 39.8775 36.072 39.2579 36.766C38.6977 37.3906 37.9591 37.7376 37.1807 37.7376C36.2537 37.7376 35.3862 37.2518 34.8012 36.3991C34.0873 35.373 34.132 34.3468 34.122 34.2973C34.1419 34.1634 34.127 34.5005 34.122 31.9822Z" fill="#477BFF"></path><path d="M49.6158 27.2083C49.5507 27.2082 49.4862 27.221 49.4261 27.2459C49.3659 27.2708 49.3113 27.3073 49.2652 27.3534C49.2192 27.3994 49.1827 27.4541 49.1578 27.5142C49.1329 27.5744 49.1201 27.6389 49.1201 27.704V29.0431L47.9825 28.3372C47.8707 28.2679 47.7361 28.2459 47.6081 28.2758C47.4801 28.3058 47.3692 28.3853 47.2998 28.497C47.2306 28.6087 47.2085 28.7434 47.2384 28.8714C47.2684 28.9994 47.348 29.1102 47.4596 29.1796L48.6937 29.9453L47.479 30.7409C47.25 30.891 47.1861 31.1984 47.3357 31.4274C47.4078 31.5374 47.5206 31.6142 47.6493 31.6411C47.7781 31.6679 47.9122 31.6426 48.0222 31.5707L49.1202 30.8516V32.1637C49.1202 32.4377 49.3419 32.6594 49.6159 32.6594C49.8899 32.6594 50.1116 32.4377 50.1116 32.1637V30.8251L51.2493 31.531C51.361 31.6003 51.4956 31.6224 51.6237 31.5924C51.7517 31.5625 51.8625 31.4829 51.9319 31.3712C52.0012 31.2595 52.0232 31.1248 51.9933 30.9968C51.9633 30.8688 51.8838 30.758 51.7721 30.6886L50.538 29.9229L51.7527 29.1273C51.9817 28.9772 52.0456 28.6698 51.896 28.4408C51.7454 28.2118 51.4385 28.1474 51.2095 28.2975L50.1116 29.0167V27.704C50.1116 27.6389 50.0988 27.5744 50.0739 27.5143C50.049 27.4541 50.0125 27.3994 49.9665 27.3534C49.9204 27.3073 49.8658 27.2708 49.8056 27.2459C49.7454 27.221 49.6809 27.2082 49.6158 27.2083ZM53.528 34.1065H45.7037C45.4297 34.1065 45.208 34.3282 45.208 34.6022C45.208 34.8762 45.4297 35.0979 45.7037 35.0979H53.528C53.802 35.0979 54.0237 34.8762 54.0237 34.6022C54.0237 34.3282 53.802 34.1065 53.528 34.1065ZM53.528 37.1007H45.7037C45.4297 37.1007 45.208 37.3224 45.208 37.5964C45.208 37.8704 45.4297 38.0921 45.7037 38.0921H53.528C53.802 38.0921 54.0237 37.8704 54.0237 37.5964C54.0237 37.3224 53.802 37.1007 53.528 37.1007ZM53.528 40.0945H48.895C48.621 40.0945 48.3993 40.3162 48.3993 40.5902C48.3993 40.8642 48.621 41.0859 48.895 41.0859H53.528C53.802 41.0859 54.0237 40.8642 54.0237 40.5902C54.0237 40.3162 53.802 40.0945 53.528 40.0945Z" fill="#477BFF"></path></svg>