<svg xmlns="http://www.w3.org/2000/svg" width="110" height="110" viewBox="0 0 110 110" fill="none"><g clip-path="url(#clip0_488_107)"><circle cx="55" cy="55" r="55" fill="white"></circle><circle cx="55" cy="55" r="46" fill="#2EADDC"></circle><g clip-path="url(#clip1_488_107)"><path d="M53.9851 33.3587L51.0554 30.4291C50.4833 29.857 49.5559 29.857 48.9838 30.4291C48.4117 31.0011 48.4117 31.9286 48.9838 32.5006L49.4128 32.9297H44.1602C41.737 32.9297 39.7656 34.9011 39.7656 37.3243V39.2774C39.7656 40.0864 40.4215 40.7422 41.2305 40.7422C42.0395 40.7422 42.6953 40.0864 42.6953 39.2774V37.3243C42.6953 36.5166 43.3524 35.8594 44.1602 35.8594H49.4128L48.9838 36.2884C48.4117 36.8605 48.4117 37.7879 48.9838 38.36C49.5559 38.9321 50.4833 38.9321 51.0554 38.36L53.9851 35.4303C54.5571 34.8583 54.5571 33.9308 53.9851 33.3587ZM75.6055 30H61.9336C59.5104 30 57.5391 31.9714 57.5391 34.3946V61.7383C57.5391 64.1615 59.5104 66.1329 61.9336 66.1329H75.6055C78.0286 66.1329 80 64.1615 80 61.7383V34.3946C80 31.9714 78.0287 30 75.6055 30ZM70.7227 61.7383H66.8164C66.0074 61.7383 65.3516 61.0825 65.3516 60.2735C65.3516 59.4645 66.0074 58.8086 66.8164 58.8086H70.7227C71.5316 58.8086 72.1875 59.4645 72.1875 60.2735C72.1875 61.0825 71.5316 61.7383 70.7227 61.7383ZM48.0664 43.8672H34.3945C31.9714 43.8672 30 45.8386 30 48.2618V75.6055C30 78.0287 31.9714 80 34.3945 80H48.0664C50.4896 80 52.4609 78.0287 52.4609 75.6055V48.2618C52.4609 45.8386 50.4896 43.8672 48.0664 43.8672ZM43.1836 75.6055H39.2773C38.4684 75.6055 37.8125 74.9497 37.8125 74.1407C37.8125 73.3317 38.4684 72.6758 39.2773 72.6758H43.1836C43.9926 72.6758 44.6484 73.3317 44.6484 74.1407C44.6484 74.9497 43.9926 75.6055 43.1836 75.6055ZM56.0149 76.6414L58.9446 79.571C59.5167 80.1431 60.4441 80.1431 61.0162 79.571C61.5883 78.999 61.5883 78.0715 61.0162 77.4995L60.5872 77.0704H65.8398C68.263 77.0704 70.2344 75.099 70.2344 72.6758V70.7227C70.2344 69.9137 69.5785 69.2579 68.7695 69.2579C67.9605 69.2579 67.3047 69.9137 67.3047 70.7227V72.6758C67.3047 73.4835 66.6476 74.1407 65.8398 74.1407H60.5872L61.0162 73.7117C61.5883 73.1396 61.5883 72.2122 61.0162 71.6401C60.4441 71.068 59.5167 71.068 58.9446 71.6401L56.0149 74.5698C55.4429 75.1417 55.4429 76.0693 56.0149 76.6414Z" fill="white"></path></g></g><defs><clipPath id="clip0_488_107"><rect width="110" height="110" fill="white"></rect></clipPath><clipPath id="clip1_488_107"><rect width="50" height="50" fill="white" transform="translate(30 30)"></rect></clipPath></defs></svg>