<svg xmlns="http://www.w3.org/2000/svg" width="101" height="100" viewBox="0 0 101 100" fill="none"><path d="M0.333496 50C0.333496 22.3858 22.7193 0 50.3335 0C77.9477 0 100.333 22.3858 100.333 50C100.333 77.6142 77.9477 100 50.3335 100C22.7193 100 0.333496 77.6142 0.333496 50Z" fill="url(#paint0_linear_956_3192)"></path><path d="M41.2109 54.9805H39.7461V57.9102H41.2109C42.0187 57.9102 42.6758 57.2531 42.6758 56.4454C42.6758 55.6376 42.0187 54.9805 41.2109 54.9805ZM60.2539 25.8582V33.7891H68.1849L60.2539 25.8582Z" fill="white"></path><path d="M58.7891 36.7188C57.9801 36.7188 57.3242 36.0629 57.3242 35.2539V25H32.4219C31.6129 25 30.957 25.6559 30.957 26.4648V73.5352C30.957 74.3441 31.6129 75 32.4219 75H67.5781C68.3871 75 69.043 74.3441 69.043 73.5352V36.7188H58.7891ZM38.2812 33.7891H52.9297C53.7387 33.7891 54.3945 34.4449 54.3945 35.2539C54.3945 36.0629 53.7387 36.7188 52.9297 36.7188H38.2812C37.4723 36.7188 36.8164 36.0629 36.8164 35.2539C36.8164 34.4449 37.4723 33.7891 38.2812 33.7891ZM49.564 66.4377C50.136 67.0097 50.136 67.9372 49.564 68.5093C48.9918 69.0813 48.0645 69.0813 47.4924 68.5093L45.9473 66.9642L44.392 68.5194C43.8198 69.0915 42.8925 69.0915 42.3204 68.5194C41.7483 67.9475 41.7483 67.0199 42.3204 66.4478L43.8757 64.8926L39.8229 60.8398H39.7461V64.5507C39.7461 65.3597 39.0902 66.0155 38.2812 66.0155C37.4723 66.0155 36.8164 65.3597 36.8164 64.5507V53.5156C36.8164 52.7066 37.4723 52.0508 38.2812 52.0508H41.2109C43.6341 52.0508 45.6055 54.0222 45.6055 56.4453C45.6055 58.077 44.7109 59.5028 43.3871 60.2608L45.9473 62.821L47.4994 61.2688C48.0714 60.6969 48.9989 60.6969 49.571 61.2688C50.1431 61.8408 50.1431 62.7684 49.571 63.3404L48.0188 64.8926L49.564 66.4377ZM61.7188 60.1562H52.9297C52.1207 60.1562 51.4648 59.5004 51.4648 58.6914C51.4648 57.8824 52.1207 57.2266 52.9297 57.2266H61.7188C62.5277 57.2266 63.1836 57.8824 63.1836 58.6914C63.1836 59.5004 62.5277 60.1562 61.7188 60.1562ZM61.7188 54.2969H52.9297C52.1207 54.2969 51.4648 53.641 51.4648 52.832C51.4648 52.023 52.1207 51.3672 52.9297 51.3672H61.7188C62.5277 51.3672 63.1836 52.023 63.1836 52.832C63.1836 53.641 62.5277 54.2969 61.7188 54.2969ZM61.7188 48.4375H38.2812C37.4723 48.4375 36.8164 47.7816 36.8164 46.9727C36.8164 46.1637 37.4723 45.5078 38.2812 45.5078H61.7188C62.5277 45.5078 63.1836 46.1637 63.1836 46.9727C63.1836 47.7816 62.5277 48.4375 61.7188 48.4375ZM61.7188 42.5781H38.2812C37.4723 42.5781 36.8164 41.9223 36.8164 41.1133C36.8164 40.3043 37.4723 39.6484 38.2812 39.6484H61.7188C62.5277 39.6484 63.1836 40.3043 63.1836 41.1133C63.1836 41.9223 62.5277 42.5781 61.7188 42.5781Z" fill="white"></path><defs><linearGradient id="paint0_linear_956_3192" x1="50.3335" y1="0" x2="50.3335" y2="100" gradientUnits="userSpaceOnUse"><stop stop-color="#FAB8C4"></stop><stop offset="1" stop-color="#FF5963"></stop></linearGradient></defs></svg>