<svg xmlns="http://www.w3.org/2000/svg" width="81" height="80" viewBox="0 0 81 80" fill="none"><rect x="0.666504" width="80" height="80" rx="16" fill="white"></rect><path d="M58.875 18.8281H22.125C21.5158 18.8281 20.9316 19.0701 20.5009 19.5009C20.0701 19.9316 19.8281 20.5158 19.8281 21.125V50.9844C19.8281 51.5935 20.0701 52.1778 20.5009 52.6085C20.9316 53.0393 21.5158 53.2812 22.125 53.2812H58.875C59.4842 53.2812 60.0684 53.0393 60.4991 52.6085C60.9299 52.1778 61.1719 51.5935 61.1719 50.9844V21.125C61.1719 20.5158 60.9299 19.9316 60.4991 19.5009C60.0684 19.0701 59.4842 18.8281 58.875 18.8281ZM58.875 47.9219C58.875 48.531 58.633 49.1153 58.2023 49.546C57.7715 49.9768 57.1873 50.2188 56.5781 50.2188H24.4219C23.8127 50.2188 23.2285 49.9768 22.7977 49.546C22.367 49.1153 22.125 48.531 22.125 47.9219V23.4219C22.125 22.8127 22.367 22.2285 22.7977 21.7977C23.2285 21.367 23.8127 21.125 24.4219 21.125H56.5781C57.1873 21.125 57.7715 21.367 58.2023 21.7977C58.633 22.2285 58.875 22.8127 58.875 23.4219V47.9219ZM48.1562 60.1719H42.7969V54.8125H38.2031V60.1719H32.8438C32.6407 60.1719 32.446 60.2525 32.3024 60.3961C32.1588 60.5397 32.0781 60.7344 32.0781 60.9375C32.0781 61.1406 32.1588 61.3353 32.3024 61.4789C32.446 61.6225 32.6407 61.7031 32.8438 61.7031H48.1562C48.3593 61.7031 48.554 61.6225 48.6976 61.4789C48.8412 61.3353 48.9219 61.1406 48.9219 60.9375C48.9219 60.7344 48.8412 60.5397 48.6976 60.3961C48.554 60.2525 48.3593 60.1719 48.1562 60.1719Z" fill="#477BFF"></path><path d="M56.5781 22.6562H24.4219C24.2188 22.6562 24.0241 22.7369 23.8805 22.8805C23.7369 23.0241 23.6562 23.2188 23.6562 23.4219V47.9219C23.6562 48.1249 23.7369 48.3197 23.8805 48.4633C24.0241 48.6068 24.2188 48.6875 24.4219 48.6875H56.5781C56.7812 48.6875 56.9759 48.6068 57.1195 48.4633C57.2631 48.3197 57.3438 48.1249 57.3438 47.9219V23.4219C57.3438 23.2188 57.2631 23.0241 57.1195 22.8805C56.9759 22.7369 56.7812 22.6562 56.5781 22.6562ZM35.9062 34.9062C35.9062 35.3124 35.7449 35.7018 35.4578 35.989C35.1706 36.2762 34.7811 36.4375 34.375 36.4375H32.8438V37.9688C32.8438 38.3749 32.6824 38.7643 32.3953 39.0515C32.1081 39.3387 31.7186 39.5 31.3125 39.5H29.7812C29.3751 39.5 28.9857 39.3387 28.6985 39.0515C28.4113 38.7643 28.25 38.3749 28.25 37.9688V36.4375H26.7188C26.3126 36.4375 25.9232 36.2762 25.636 35.989C25.3488 35.7018 25.1875 35.3124 25.1875 34.9062V33.375C25.1875 32.9689 25.3488 32.5794 25.636 32.2922C25.9232 32.0051 26.3126 31.8438 26.7188 31.8438H28.25V30.3125C28.25 29.9064 28.4113 29.5169 28.6985 29.2297C28.9857 28.9426 29.3751 28.7812 29.7812 28.7812H31.3125C31.7186 28.7812 32.1081 28.9426 32.3953 29.2297C32.6824 29.5169 32.8438 29.9064 32.8438 30.3125V31.8438H34.375C34.7811 31.8438 35.1706 32.0051 35.4578 32.2922C35.7449 32.5794 35.9062 32.9689 35.9062 33.375V34.9062ZM52.75 44.0938H39.7344C39.5313 44.0938 39.3366 44.0131 39.193 43.8695C39.0494 43.7259 38.9688 43.5312 38.9688 43.3281C38.9688 43.1251 39.0494 42.9303 39.193 42.7867C39.3366 42.6432 39.5313 42.5625 39.7344 42.5625H52.75C52.9531 42.5625 53.1478 42.6432 53.2914 42.7867C53.435 42.9303 53.5156 43.1251 53.5156 43.3281C53.5156 43.5312 53.435 43.7259 53.2914 43.8695C53.1478 44.0131 52.9531 44.0938 52.75 44.0938ZM54.2812 41.0312H39.7344C39.5313 41.0312 39.3366 40.9506 39.193 40.807C39.0494 40.6634 38.9688 40.4687 38.9688 40.2656C38.9688 40.0626 39.0494 39.8678 39.193 39.7242C39.3366 39.5807 39.5313 39.5 39.7344 39.5H54.2812C54.4843 39.5 54.679 39.5807 54.8226 39.7242C54.9662 39.8678 55.0469 40.0626 55.0469 40.2656C55.0469 40.4687 54.9662 40.6634 54.8226 40.807C54.679 40.9506 54.4843 41.0312 54.2812 41.0312ZM54.2812 37.9688H39.7344C39.5313 37.9688 39.3366 37.8881 39.193 37.7445C39.0494 37.6009 38.9688 37.4062 38.9688 37.2031C38.9688 37.0001 39.0494 36.8053 39.193 36.6617C39.3366 36.5182 39.5313 36.4375 39.7344 36.4375H54.2812C54.4843 36.4375 54.679 36.5182 54.8226 36.6617C54.9662 36.8053 55.0469 37.0001 55.0469 37.2031C55.0469 37.4062 54.9662 37.6009 54.8226 37.7445C54.679 37.8881 54.4843 37.9688 54.2812 37.9688ZM55.0469 31.8438C55.0469 32.4529 54.8049 33.0371 54.3741 33.4679C53.9434 33.8986 53.3592 34.1406 52.75 34.1406H41.2656C40.6565 34.1406 40.0722 33.8986 39.6415 33.4679C39.2107 33.0371 38.9688 32.4529 38.9688 31.8438V30.3125C38.9688 29.7033 39.2107 29.1191 39.6415 28.6884C40.0722 28.2576 40.6565 28.0156 41.2656 28.0156H52.75C53.3592 28.0156 53.9434 28.2576 54.3741 28.6884C54.8049 29.1191 55.0469 29.7033 55.0469 30.3125V31.8438Z" fill="#477BFF"></path><path d="M31.3125 32.6094V30.3125H29.7812V32.6094C29.7812 32.8124 29.7006 33.0072 29.557 33.1508C29.4134 33.2943 29.2187 33.375 29.0156 33.375H26.7188V34.9062H29.0156C29.2187 34.9062 29.4134 34.9869 29.557 35.1305C29.7006 35.2741 29.7812 35.4688 29.7812 35.6719V37.9688H31.3125V35.6719C31.3125 35.4688 31.3932 35.2741 31.5367 35.1305C31.6803 34.9869 31.8751 34.9062 32.0781 34.9062H34.375V33.375H32.0781C31.8751 33.375 31.6803 33.2943 31.5367 33.1508C31.3932 33.0072 31.3125 32.8124 31.3125 32.6094Z" fill="#477BFF"></path><path d="M52.75 29.5469H41.2656C40.8428 29.5469 40.5 29.8897 40.5 30.3125V31.8438C40.5 32.2666 40.8428 32.6094 41.2656 32.6094H52.75C53.1728 32.6094 53.5156 32.2666 53.5156 31.8438V30.3125C53.5156 29.8897 53.1728 29.5469 52.75 29.5469Z" fill="#477BFF"></path></svg>