<svg xmlns="http://www.w3.org/2000/svg" width="81" height="80" viewBox="0 0 81 80" fill="none"><path d="M0.5 40C0.5 17.9086 18.4086 0 40.5 0C62.5914 0 80.5 17.9086 80.5 40C80.5 62.0914 62.5914 80 40.5 80C18.4086 80 0.5 62.0914 0.5 40Z" fill="url(#paint0_linear_956_3442)"></path><path fill-rule="evenodd" clip-rule="evenodd" d="M55.5613 43.8995C54.8422 41.3116 54.0858 37.6343 53.8567 35.0692C53.7374 33.7334 53.725 32.4548 53.6276 31.4483C53.5098 30.2302 53.2204 29.5841 52.5002 29.3677C51.0078 28.9657 49.3249 30.0836 48.5061 31.1866C47.7153 32.252 47.1238 33.8062 46.9865 35.9492C46.7757 39.239 46.4696 42.4309 40.4997 42.5068C34.5297 42.4309 34.2236 39.239 34.0128 35.9492C33.8756 33.8062 33.284 32.2521 32.4932 31.1866C31.6745 30.0836 29.9915 28.9657 28.4991 29.3677C27.7789 29.5841 27.4896 30.2302 27.3717 31.4483C27.2743 32.4548 27.262 33.7334 27.1426 35.0692C26.9135 37.6343 26.1572 41.3116 25.438 43.8995C24.5938 46.9374 24.0266 50.4526 28.0286 51.6163C30.6553 52.3802 33.8906 51.039 36.0911 49.5813C37.5267 48.6303 38.9811 47.7412 40.4997 47.75C42.0182 47.7412 43.4725 48.6302 44.9083 49.5813C47.1087 51.039 50.3441 52.3802 52.9708 51.6163C56.9727 50.4527 56.4056 46.9374 55.5613 43.8995ZM29.1845 34.4382C29.4246 34.2195 29.7966 34.2373 30.0152 34.4766C30.1467 34.622 30.3358 34.7054 30.5326 34.7054C30.7293 34.7054 30.9171 34.622 31.0495 34.4766C31.1014 34.4196 31.1641 34.3733 31.2339 34.3405C31.3038 34.3077 31.3794 34.289 31.4564 34.2854C31.5335 34.2819 31.6105 34.2935 31.6831 34.3197C31.7557 34.3459 31.8223 34.3862 31.8793 34.4382C32.1198 34.6572 32.1372 35.0292 31.9182 35.2688C31.5636 35.6583 31.0588 35.8809 30.5326 35.8809C30.0063 35.8809 29.5003 35.6583 29.1457 35.2688C29.0407 35.1535 28.9858 35.0012 28.9931 34.8454C29.0004 34.6897 29.0693 34.5432 29.1845 34.4382ZM28.9461 38.7692C29.1854 38.551 29.5573 38.5677 29.7755 38.8077C29.9083 38.953 30.0966 39.0364 30.2929 39.0364C30.4892 39.0364 30.6774 38.953 30.8102 38.8077C31.0288 38.5676 31.4008 38.551 31.6409 38.7692C31.8809 38.9874 31.898 39.3599 31.6798 39.5999C31.3252 39.9885 30.8196 40.212 30.293 40.212C29.7663 40.212 29.2619 39.9885 28.9073 39.5999C28.8552 39.5429 28.8149 39.4761 28.7886 39.4035C28.7623 39.3308 28.7507 39.2537 28.7543 39.1765C28.7579 39.0993 28.7767 39.0236 28.8097 38.9537C28.8426 38.8839 28.8889 38.8211 28.9461 38.7692ZM30.801 48.4701C30.4467 48.8591 29.942 49.0826 29.4153 49.0826C28.8887 49.0826 28.3843 48.8591 28.0288 48.4701C27.9238 48.3548 27.8689 48.2026 27.8761 48.0468C27.8833 47.891 27.9521 47.7445 28.0673 47.6394C28.3077 47.4212 28.6798 47.439 28.898 47.6783C29.0308 47.8236 29.219 47.9066 29.4153 47.9066C29.6117 47.9066 29.7999 47.8236 29.9327 47.6783C30.1513 47.439 30.5232 47.4212 30.7625 47.6394C31.0025 47.8589 31.0204 48.23 30.801 48.4701ZM31.9627 44.0645C31.6082 44.4531 31.1026 44.6766 30.5767 44.6766C30.0508 44.6766 29.5448 44.4531 29.1902 44.0645C29.0853 43.9492 29.0304 43.7969 29.0377 43.6411C29.045 43.4854 29.1138 43.3389 29.2291 43.2338C29.2862 43.1818 29.3529 43.1416 29.4255 43.1154C29.4981 43.0892 29.5751 43.0775 29.6522 43.0811C29.7293 43.0847 29.805 43.1034 29.8748 43.1362C29.9447 43.169 30.0074 43.2153 30.0594 43.2723C30.1249 43.3443 30.2047 43.4019 30.2937 43.4413C30.3828 43.4806 30.479 43.501 30.5764 43.501C30.6737 43.501 30.77 43.4806 30.859 43.4413C30.948 43.4019 31.0279 43.3443 31.0933 43.2723C31.1984 43.1571 31.3449 43.0883 31.5007 43.0811C31.6565 43.0739 31.8088 43.1288 31.924 43.2338C31.9812 43.2858 32.0275 43.3485 32.0604 43.4184C32.0933 43.4883 32.1121 43.564 32.1157 43.6411C32.1194 43.7183 32.1077 43.7954 32.0815 43.868C32.0553 43.9407 32.015 44.0075 31.9629 44.0645H31.9627ZM36.0881 46.459C35.7336 46.8484 35.228 47.0711 34.7021 47.0711C34.1761 47.0711 33.6698 46.8484 33.3156 46.459C33.2106 46.3437 33.1558 46.1914 33.163 46.0357C33.1702 45.88 33.2389 45.7334 33.354 45.6283C33.4694 45.5235 33.6216 45.4686 33.7773 45.4758C33.933 45.483 34.0795 45.5517 34.1847 45.6668C34.3167 45.8121 34.5058 45.8955 34.7021 45.8955C34.8983 45.8955 35.0866 45.8121 35.2186 45.6668C35.4379 45.4275 35.8092 45.4097 36.0493 45.6283C36.2897 45.8473 36.3071 46.2193 36.0881 46.459ZM47.6843 46.459C47.33 46.8484 46.8244 47.0711 46.2978 47.0711C45.7711 47.0711 45.2668 46.8484 44.9113 46.459C44.6931 46.2193 44.7105 45.8473 44.9497 45.6283C45.1902 45.4097 45.5622 45.4275 45.7804 45.6668C45.9132 45.8121 46.1014 45.8955 46.2978 45.8955C46.4941 45.8955 46.6823 45.8121 46.8151 45.6668C47.0337 45.4275 47.4058 45.4097 47.6458 45.6283C47.8855 45.8473 47.9029 46.2193 47.6843 46.459ZM52.093 39.5999C51.7384 39.9885 51.2328 40.212 50.7061 40.212C50.1795 40.212 49.675 39.9885 49.3205 39.5999C49.2684 39.5429 49.228 39.4761 49.2018 39.4035C49.1755 39.3308 49.1638 39.2537 49.1675 39.1765C49.1711 39.0993 49.1899 39.0236 49.2228 38.9537C49.2557 38.8839 49.3021 38.8211 49.3593 38.7692C49.4746 38.6643 49.6268 38.6094 49.7824 38.6166C49.9381 38.6239 50.0846 38.6926 50.1896 38.8077C50.2551 38.8796 50.3349 38.937 50.4238 38.9764C50.5127 39.0158 50.6089 39.0362 50.7061 39.0364C50.8035 39.0364 50.8999 39.0161 50.9889 38.9767C51.078 38.9373 51.1579 38.8797 51.2235 38.8077C51.3286 38.6925 51.4751 38.6238 51.6309 38.6166C51.7866 38.6094 51.9388 38.6643 52.0542 38.7692C52.2942 38.9874 52.3112 39.3599 52.093 39.5999ZM49.1197 34.4382C49.3598 34.2196 49.7322 34.2367 49.9504 34.4767C50.0832 34.6221 50.2715 34.7055 50.4678 34.7055C50.664 34.7055 50.8523 34.6221 50.9851 34.4767C51.2033 34.2374 51.5757 34.2197 51.8158 34.4382C51.9309 34.5434 51.9995 34.6899 52.0068 34.8456C52.014 35.0014 51.9591 35.1536 51.8543 35.2689C51.4993 35.6584 50.9944 35.881 50.4678 35.881C49.9411 35.881 49.4364 35.6584 49.0814 35.2689C48.9763 35.1537 48.9214 35.0014 48.9286 34.8456C48.9358 34.6898 49.0046 34.5433 49.1198 34.4382H49.1197ZM49.0368 44.0646C48.9319 43.9493 48.8771 43.797 48.8843 43.6413C48.8915 43.4856 48.9602 43.3391 49.0752 43.2339C49.3157 43.0153 49.6877 43.0324 49.9059 43.2724C50.0387 43.4177 50.2265 43.5011 50.4233 43.5011C50.62 43.5011 50.8078 43.4177 50.9406 43.2724C51.0457 43.1572 51.1922 43.0884 51.348 43.0812C51.5038 43.074 51.656 43.1289 51.7713 43.2339C51.8864 43.3391 51.955 43.4856 51.9622 43.6413C51.9694 43.797 51.9146 43.9493 51.8098 44.0646C51.4548 44.4532 50.9499 44.6767 50.4233 44.6767C49.8966 44.6767 49.3918 44.4532 49.0368 44.0646ZM52.9707 48.4702C52.6161 48.8592 52.1113 49.0827 51.5847 49.0827C51.0581 49.0827 50.5528 48.8592 50.1982 48.4702C50.0932 48.3549 50.0384 48.2026 50.0456 48.0469C50.0528 47.8911 50.1215 47.7446 50.2366 47.6395C50.4771 47.4213 50.8491 47.4383 51.0673 47.6784C51.2001 47.8237 51.3884 47.9066 51.5847 47.9066C51.781 47.9066 51.9697 47.8237 52.102 47.6784C52.2069 47.5632 52.3533 47.4944 52.5089 47.4871C52.6645 47.4798 52.8167 47.5346 52.9319 47.6395C52.989 47.6914 53.0354 47.7542 53.0683 47.824C53.1012 47.8939 53.12 47.9696 53.1236 48.0468C53.1272 48.1239 53.1156 48.201 53.0893 48.2737C53.0631 48.3463 53.0228 48.4131 52.9708 48.4702H52.9707ZM40.4998 41.3311C39.2337 41.314 37.6663 41.1689 36.6256 40.3492V39.5452C36.6256 39.3128 36.7395 39.1131 36.9396 38.9946C37.1397 38.8762 37.3695 38.8725 37.5733 38.9845C38.4733 39.4787 39.4903 39.7434 40.5273 39.7434C41.5643 39.7434 42.5816 39.4786 43.4822 38.984C43.686 38.872 43.9158 38.8757 44.116 38.9941C44.3161 39.1126 44.4299 39.3122 44.4299 39.5447V40.3043C43.3901 41.1637 41.7888 41.3137 40.4998 41.3311ZM44.3754 50.6379C44.3935 50.6993 44.4026 50.7631 44.4024 50.8271V53.5245C43.474 54.7313 42.0292 55.4464 40.4998 55.4464C38.9705 55.4464 37.5257 54.7313 36.5981 53.5245V50.8274C36.5981 50.7609 36.6074 50.6971 36.6254 50.6371C36.664 50.6119 36.7024 50.5868 36.7405 50.5615C36.929 50.436 37.1185 50.312 37.3089 50.1895C37.3922 50.1997 37.4727 50.226 37.546 50.2668C38.4394 50.758 39.4537 51.0267 40.4998 51.0267C41.5458 51.0267 42.5605 50.7579 43.4543 50.2664C43.5273 50.2258 43.6074 50.1996 43.6903 50.1893C43.8809 50.3118 44.0705 50.4359 44.2591 50.5615C44.2976 50.587 44.3363 50.6125 44.3753 50.6378L44.3754 50.6379ZM44.4294 55.2313L44.4299 55.2318C44.4288 55.2327 44.4275 55.2335 44.4262 55.2339L44.4294 55.2313ZM44.4023 56.4569V59.1543C43.4739 60.3611 42.0291 61.0762 40.4998 61.0762C38.9704 61.0762 37.5256 60.3612 36.598 59.1543V56.4573C36.598 56.2247 36.7119 56.025 36.9121 55.9066C37.1122 55.7882 37.3422 55.7846 37.5459 55.8967C38.4394 56.3879 39.4536 56.6566 40.4997 56.6566C41.5457 56.6566 42.5604 56.3877 43.4542 55.8963C43.6581 55.7843 43.8879 55.7879 44.0882 55.9062C44.2884 56.0247 44.4023 56.2244 44.4023 56.4569ZM36.5722 55.2325L36.575 55.2348C36.5737 55.2345 36.5725 55.2341 36.5714 55.2335L36.5722 55.2325ZM44.4298 38.3419C44.4288 38.3427 44.4277 38.3434 44.4265 38.3438L44.4295 38.3414L44.4298 38.3419ZM36.5714 38.344L36.5724 38.3428L36.5747 38.3447L36.5714 38.344ZM37.5458 33.378C38.4457 33.8723 39.4628 34.1369 40.4998 34.1369C41.5367 34.1369 42.554 33.8721 43.4547 33.3776C43.6585 33.2656 43.8883 33.2693 44.0884 33.3878C44.2885 33.5062 44.4023 33.7058 44.4023 33.9384V36.6348C43.4739 37.8415 42.0291 38.5567 40.4998 38.5567C38.9704 38.5567 37.5256 37.8416 36.598 36.6348V33.9389C36.598 33.7064 36.7119 33.5067 36.9119 33.3883C37.1121 33.2698 37.3419 33.2662 37.5457 33.3781L37.5458 33.378ZM43.1434 30.3794V30.3814C43.2209 30.3814 43.2952 30.4122 43.35 30.4669C43.4047 30.5217 43.4355 30.596 43.4356 30.6735V31.9554C42.59 32.5836 41.558 32.9266 40.4998 32.9266C39.4417 32.9266 38.4106 32.5837 37.5645 31.9556V30.6735C37.5644 30.5961 37.595 30.5219 37.6497 30.4671C37.7043 30.4124 37.7784 30.3815 37.8558 30.3814V30.3793C37.8834 30.3806 37.9112 30.3814 37.9391 30.3814H43.0614C43.0889 30.3814 43.1163 30.3807 43.1434 30.3794ZM34.6995 20.4621C34.6862 20.3965 34.688 20.3286 34.7046 20.2637C34.7212 20.1988 34.7522 20.1384 34.7953 20.0872C34.8379 20.0353 34.8917 19.9937 34.9525 19.9654C35.0134 19.9371 35.0799 19.9229 35.147 19.9238H37.4398C37.5539 19.9231 37.664 19.9656 37.7481 20.0428C37.8322 20.1199 37.884 20.226 37.8931 20.3397C38.1202 22.9825 39.1683 24.7581 40.4997 24.7581C41.8311 24.7581 42.8787 22.9825 43.1062 20.3397C43.1154 20.2259 43.1673 20.1198 43.2515 20.0427C43.3356 19.9656 43.4458 19.9231 43.56 19.9238H45.8527C46.0411 19.9238 46.1537 20.0259 46.2049 20.0872C46.2477 20.1386 46.2785 20.199 46.2949 20.2639C46.3113 20.3288 46.313 20.3965 46.2999 20.4621C46.1157 21.4469 45.8211 22.3487 45.3435 23.3834C45.1847 23.7278 45.0238 24.0714 44.861 24.4139C44.0842 26.0583 43.7288 26.8088 43.5133 28.7653C43.4874 29.0007 43.297 29.1707 43.0612 29.1707H37.9389C37.7018 29.1707 37.5118 29.0008 37.486 28.7653C37.2714 26.8088 36.9159 26.0583 36.1387 24.4139C35.9945 24.1089 35.8337 23.7701 35.6561 23.3834C35.1782 22.3487 34.8835 21.4477 34.6994 20.4621H34.6995ZM40.4998 49.8164C39.854 49.8162 39.2145 49.6888 38.618 49.4414C39.2397 49.1414 39.8868 48.9257 40.4998 48.9257C41.1127 48.9257 41.7599 49.1414 42.3817 49.4415C41.7851 49.6889 41.1456 49.8163 40.4998 49.8164Z" fill="white"></path><defs><linearGradient id="paint0_linear_956_3442" x1="40.5" y1="0" x2="40.5" y2="80" gradientUnits="userSpaceOnUse"><stop stop-color="#8788FF"></stop><stop offset="1" stop-color="#5A5EFF"></stop></linearGradient></defs></svg>