<?xml version="1.0" encoding="UTF-8"?>
<svg xmlns="http://www.w3.org/2000/svg" width="100" height="100" viewBox="0 0 100 100" fill="none">
  <path d="M0 50C0 22.3858 22.3858 0 50 0C77.6142 0 100 22.3858 100 50C100 77.6142 77.6142 100 50 100C22.3858 100 0 77.6142 0 50Z" fill="url(#paint0_linear_982_246)"></path>
  <path fill-rule="evenodd" clip-rule="evenodd" d="M50.0922 53.0163V44.9731C50.0922 44.8431 50.1438 44.7184 50.2358 44.6265C50.3277 44.5346 50.4524 44.4829 50.5824 44.4829H55.2248C55.3548 44.4829 55.4795 44.5346 55.5714 44.6265C55.6634 44.7184 55.715 44.8431 55.715 44.9731V50.1205L54.7273 49.6812C54.4375 49.5524 54.1155 49.5144 53.8037 49.5723C53.492 49.6301 53.205 49.7811 52.9808 50.0054L50.6734 52.3129C50.4785 52.5076 50.3384 52.7502 50.2673 53.0163H50.0922ZM50.5669 69.1657H26.9224C26.8026 69.1657 26.6877 69.1182 26.603 69.0335C26.5183 68.9488 26.4707 68.8339 26.4707 68.7141V66.6793C26.4707 66.62 26.4824 66.5612 26.5051 66.5064C26.5278 66.4516 26.5611 66.4018 26.603 66.3599C26.6449 66.318 26.6947 66.2847 26.7495 66.262C26.8043 66.2393 26.8631 66.2276 26.9224 66.2276H50.8608C50.8734 66.2521 50.886 66.2766 50.8987 66.301L50.3492 67.5369C50.2313 67.802 50.1893 68.0946 50.2277 68.3821C50.2661 68.6697 50.3835 68.9409 50.5669 69.1657ZM60.5305 47.1661V39.6655C60.5305 39.5354 60.5822 39.4108 60.6741 39.3188C60.766 39.2269 60.8907 39.1753 61.0207 39.1753H65.6608C65.7252 39.1753 65.7889 39.1879 65.8484 39.2126C65.9078 39.2372 65.9619 39.2733 66.0074 39.3188C66.0529 39.3644 66.089 39.4184 66.1136 39.4779C66.1382 39.5373 66.1509 39.6011 66.1509 39.6655V49.8438C65.7908 49.6897 65.4233 49.5536 65.0496 49.436L64.564 48.1721C64.4503 47.8761 64.2494 47.6214 63.988 47.4419C63.7266 47.2623 63.4169 47.1661 63.0997 47.1661H60.5305ZM29.2179 64.659V56.5244C29.2179 56.3944 29.2695 56.2697 29.3614 56.1778C29.4534 56.0858 29.578 56.0342 29.7081 56.0342H34.3482C34.4782 56.0342 34.6028 56.0858 34.6948 56.1778C34.7867 56.2697 34.8384 56.3944 34.8384 56.5244V64.659H29.2179ZM39.6562 64.659V50.8724C39.6562 50.7424 39.7078 50.6177 39.7998 50.5258C39.8917 50.4339 40.0164 50.3822 40.1464 50.3822H44.7865C44.9165 50.3822 45.0412 50.4339 45.1331 50.5258C45.225 50.6177 45.2767 50.7424 45.2767 50.8724V64.659H39.6562ZM56.7746 33.9088C54.6894 37.2767 51.5348 40.3366 47.5292 42.5722C42.3219 45.476 36.6858 46.426 31.8337 45.6038C31.7701 45.591 31.7132 45.5556 31.6738 45.5039C31.6343 45.4523 31.615 45.3881 31.6195 45.3233C31.6239 45.2585 31.6518 45.1976 31.6979 45.1518C31.744 45.1061 31.8052 45.0787 31.87 45.0748C35.2157 44.8188 38.6164 43.8455 42.2336 41.8279C46.1933 39.619 50.805 35.2545 53.1328 31.4647L51.0929 30.0981C51.0514 30.0704 51.0184 30.0316 50.9975 29.9863C50.9767 29.9409 50.9689 29.8906 50.975 29.841C50.981 29.7915 51.0007 29.7446 51.0318 29.7055C51.0629 29.6665 51.1042 29.6368 51.1512 29.6199L57.9612 27.1545C57.9997 27.1406 58.0409 27.1356 58.0816 27.1399C58.1223 27.1443 58.1615 27.1578 58.1962 27.1795C58.2309 27.2012 58.2602 27.2305 58.282 27.2652C58.3037 27.2999 58.3173 27.3391 58.3217 27.3798L59.1284 34.9536C59.1338 35.0047 59.1246 35.0563 59.1017 35.1023C59.0789 35.1483 59.0434 35.1868 58.9994 35.2134C58.9554 35.2399 58.9048 35.2534 58.8534 35.2522C58.802 35.2509 58.7521 35.2351 58.7094 35.2064L56.7746 33.9088ZM63.8689 50.7365C64.9338 50.9896 65.9514 51.4113 66.8832 51.9857L68.8422 51.1146L71.1497 53.422L70.282 55.3811C70.8569 56.3137 71.2786 57.3325 71.531 58.3986L73.5295 59.1678V62.4318L71.531 63.201C71.2779 64.2659 70.8538 65.2817 70.282 66.2152L71.1497 68.1743L68.8422 70.4817L66.8832 69.614C65.9517 70.1889 64.934 70.6107 63.8689 70.8631L63.0997 72.8616H59.8357L59.0666 70.8631C57.9983 70.61 56.9826 70.1859 56.049 69.614L54.09 70.4817L51.7825 68.1743L52.6535 66.2152C52.0784 65.285 51.6576 64.2659 51.4012 63.201L49.4027 62.4318V59.1678L51.4012 58.3986C51.6562 57.3328 52.0789 56.3143 52.6535 55.3811L51.7825 53.422L54.09 51.1146L56.049 51.9857C56.9808 51.4113 57.9984 50.9896 59.0633 50.7365L59.8357 48.7348H63.0997L63.8689 50.7365ZM61.4655 53.0163C57.1661 53.0163 53.6843 56.4982 53.6843 60.7976C53.6843 65.097 57.1661 68.5832 61.4655 68.5832C65.7649 68.5832 69.2512 65.097 69.2512 60.7976C69.2512 56.4982 65.7649 53.0163 61.4655 53.0163ZM61.274 55.2869C61.3351 55.2608 61.4008 55.2473 61.4672 55.2473C61.5336 55.2473 61.5993 55.2608 61.6603 55.2869L65.8538 57.0846C65.942 57.1224 66.0172 57.1852 66.07 57.2653C66.1228 57.3454 66.1509 57.4392 66.1509 57.5352V60.9977C66.1509 63.6333 64.2329 65.9102 61.6376 66.3619L61.4672 66.3922L61.2968 66.3619C58.7027 65.9102 56.7845 63.6333 56.7845 60.9977V57.5351C56.7845 57.4391 56.8127 57.3453 56.8655 57.2653C56.9183 57.1852 56.9934 57.1224 57.0816 57.0846L61.274 55.2869ZM59.4479 61.4396L60.3016 62.2933C60.444 62.4357 60.6358 62.5179 60.8371 62.5228C61.0385 62.5277 61.234 62.4549 61.3832 62.3196L63.4567 60.4386C63.7773 60.1477 63.8015 59.6512 63.5106 59.3307C63.2198 59.0101 62.7234 58.9859 62.4028 59.2767L60.8826 60.6558L60.5571 60.3305C60.41 60.1834 60.2105 60.1008 60.0025 60.1008C59.7945 60.1008 59.595 60.1834 59.4479 60.3305C59.3009 60.4776 59.2183 60.677 59.2183 60.885C59.2183 61.093 59.3009 61.2924 59.4479 61.4396Z" fill="white"></path>
  <defs>
    <linearGradient id="paint0_linear_982_246" x1="50" y1="0" x2="50" y2="100" gradientUnits="userSpaceOnUse">
      <stop stop-color="#A5A4FF"></stop>
      <stop offset="1" stop-color="#5350DB"></stop>
    </linearGradient>
  </defs>
</svg>
