<svg xmlns="http://www.w3.org/2000/svg" width="88" height="88" viewBox="0 0 88 88" fill="none"><rect width="88" height="88" rx="44" fill="url(#paint0_linear_6_231)"></rect><path fill-rule="evenodd" clip-rule="evenodd" d="M48.8057 29.5352L55.833 22.5068V24.4785C55.833 24.8018 56.0957 25.0645 56.4189 25.0645C56.7422 25.0645 57.0049 24.8018 57.0049 24.4785V21.0928C57.0049 20.7695 56.7422 20.5068 56.4189 20.5068H53.0332C52.709 20.5068 52.4473 20.7695 52.4473 21.0928C52.4473 21.416 52.709 21.6787 53.0332 21.6787H55.0049L48.3271 28.3564L42.6289 24.3076C42.4199 24.1592 42.1387 24.1641 41.9346 24.3193L31.1768 32.5078C30.9199 32.7041 30.8701 33.0713 31.0654 33.3291C31.1807 33.4805 31.3555 33.5596 31.5322 33.5596C31.6563 33.5596 31.7813 33.5205 31.8867 33.4395L42.3018 25.5117L48.0518 29.5967C48.2832 29.7646 48.6035 29.7373 48.8057 29.5352ZM35.8652 51.0596H28.3877V52.6768C28.3877 52.9629 28.6201 53.1963 28.9063 53.1963H31.5889C32.332 53.1963 32.9629 53.6523 33.1953 54.3594C33.3721 54.8975 33.5918 55.4268 33.8486 55.9336C34.1846 56.5977 34.0625 57.3672 33.5361 57.8936L31.6387 59.792C31.541 59.8896 31.4873 60.0195 31.4873 60.1592C31.4873 60.2979 31.541 60.4287 31.6387 60.5254L34.2686 63.1553C34.3652 63.2529 34.4961 63.3066 34.6348 63.3066C34.7744 63.3066 34.9043 63.2529 35.002 63.1553L36.8994 61.2578C37.4258 60.7314 38.1953 60.6084 38.8594 60.9453C39.3652 61.2021 39.8955 61.4219 40.4336 61.5986C41.1406 61.8311 41.5967 62.4609 41.5967 63.2051V65.8867C41.5967 66.1738 41.8301 66.4062 42.1162 66.4062H45.835C46.1211 66.4062 46.3545 66.1738 46.3545 65.8867V63.2051C46.3545 62.4619 46.8105 61.832 47.5176 61.5986C48.0547 61.4219 48.585 61.2021 49.0918 60.9453C49.7559 60.6094 50.5254 60.7314 51.0518 61.2578L52.9492 63.1553C53.0469 63.2529 53.1768 63.3066 53.3164 63.3066C53.4551 63.3066 53.5859 63.2529 53.6826 63.1553L56.3125 60.5264C56.4102 60.4287 56.4639 60.2979 56.4639 60.1592C56.4639 60.0195 56.4102 59.8896 56.3125 59.792L54.415 57.8936C53.8887 57.3672 53.7666 56.5986 54.1025 55.9336C54.3594 55.4268 54.5791 54.8965 54.7559 54.3594C54.9883 53.6523 55.6182 53.1963 56.3623 53.1963H59.0449C59.3311 53.1963 59.5635 52.9639 59.5635 52.6768V51.0596H52.0859C51.957 55.4229 48.3701 58.9346 43.9756 58.9346C39.5811 58.9336 35.9941 55.4229 35.8652 51.0596ZM36.7559 48.248C36.7559 46.8018 37.3291 45.4873 38.2598 44.5176C37.6553 44.1953 36.9854 44.0273 36.2871 44.0273H32.6338C30.3057 44.0273 28.4121 45.9209 28.4121 48.248V49.8867H36.7559V48.248ZM50.0225 48.248V49.8867H37.9277V48.248C37.9277 45.9209 39.8213 44.0273 42.1484 44.0273H45.8027C48.1289 44.0273 50.0225 45.9209 50.0225 48.248ZM55.3174 44.0273H51.6641C50.9658 44.0273 50.2959 44.1953 49.6914 44.5176C50.6221 45.4873 51.1953 46.8018 51.1953 48.248V49.8867H59.5391V48.248C59.5381 45.9209 57.6445 44.0273 55.3174 44.0273ZM53.4912 35.6699C51.9229 35.6699 50.6465 36.9453 50.6465 38.5137C50.6465 40.082 51.9229 41.3584 53.4912 41.3584C55.0596 41.3584 56.335 40.083 56.335 38.5137C56.335 36.9463 55.0586 35.6699 53.4912 35.6699ZM34.46 41.3584C36.0283 41.3584 37.3047 40.083 37.3047 38.5137C37.3047 36.9453 36.0283 35.6699 34.46 35.6699C32.8916 35.6699 31.6162 36.9453 31.6162 38.5137C31.6152 40.083 32.8906 41.3584 34.46 41.3584ZM46.8203 38.5146C46.8203 36.9463 45.5439 35.6709 43.9756 35.6709C42.4072 35.6709 41.1309 36.9463 41.1309 38.5146C41.1309 40.083 42.4072 41.3594 43.9756 41.3594C45.543 41.3584 46.8203 40.083 46.8203 38.5146Z" fill="white"></path><defs><linearGradient id="paint0_linear_6_231" x1="44" y1="0" x2="44" y2="88" gradientUnits="userSpaceOnUse"><stop stop-color="#8687FF"></stop><stop offset="1" stop-color="#5C5FFF"></stop></linearGradient></defs></svg>