<?xml version="1.0" encoding="UTF-8"?>
<svg xmlns="http://www.w3.org/2000/svg" width="81" height="80" viewBox="0 0 81 80" fill="none">
  <path d="M0.5 40C0.5 17.9086 18.4086 0 40.5 0C62.5914 0 80.5 17.9086 80.5 40C80.5 62.0914 62.5914 80 40.5 80C18.4086 80 0.5 62.0914 0.5 40Z" fill="url(#paint0_linear_1074_459)"></path>
  <path fill-rule="evenodd" clip-rule="evenodd" d="M40.4306 26.1203H41.7744C42.0524 26.1203 42.2783 26.3453 42.2783 26.6242V32.2318L42.9149 31.8203C43.3457 31.5414 43.9009 31.6002 44.2637 31.9639L44.4417 32.1419V26.6242C44.4417 26.3453 44.6677 26.1203 44.9456 26.1203H46.2886L43.36 22.0059L40.4306 26.1203ZM31.7391 55.4896C31.7385 54.5957 31.9522 53.7148 32.3623 52.9205C31.7719 52.5711 31.1067 52.388 30.413 52.388H25.1052C22.977 52.388 21.2461 54.119 21.2461 56.2471V60.1062H24.0041V56.022C24.0041 55.7441 24.2292 55.5181 24.508 55.5181C24.786 55.5181 25.012 55.7441 25.012 56.022V60.1062H30.5062V56.022C30.5062 55.7441 30.7321 55.5181 31.0101 55.5181C31.2889 55.5181 31.514 55.7441 31.514 56.022V60.1062H31.7391V55.4896ZM50.2652 47.59C50.3164 49.4226 51.6115 50.8956 53.198 50.8956C54.8172 50.8956 56.1332 49.3621 56.1332 47.4766C56.1332 45.592 54.8172 44.0585 53.198 44.0585C51.6115 44.0585 50.3164 45.5316 50.2652 47.3641V47.59ZM48.5948 52.9205C49.0048 53.7148 49.2185 54.5957 49.2179 55.4896V60.1062H49.443V56.022C49.443 55.7441 49.6689 55.5181 49.9469 55.5181C50.2249 55.5181 50.4508 55.7441 50.4508 56.022V60.1062H55.9459V56.022C55.9459 55.7441 56.171 55.5181 56.4498 55.5181C56.7278 55.5181 56.9537 55.7441 56.9537 56.022V60.1062H59.7109V56.2471C59.7109 54.119 57.98 52.388 55.8519 52.388H50.544C49.8512 52.388 49.186 52.5711 48.5948 52.9205ZM43.5935 50.8721H37.3635C34.818 50.8721 32.7469 52.9432 32.7469 55.4896V60.1062H35.5931V55.225C35.5931 54.947 35.8191 54.7211 36.0971 54.7211C36.375 54.7211 36.601 54.947 36.601 55.225V60.1062H44.3561V55.225C44.3561 54.947 44.582 54.7211 44.86 54.7211C45.1388 54.7211 45.3639 54.947 45.3639 55.225V60.1062H48.2101V55.4896C48.2101 52.9432 46.1391 50.8721 43.5935 50.8721ZM44.8818 46.442C44.5392 47.9747 43.5784 49.2336 42.3161 49.8643H43.5935C43.6472 49.8643 43.7002 49.8668 43.7531 49.8685L45.7427 47.8789C45.7687 47.8529 45.7721 47.8201 45.7527 47.7891L44.8818 46.442ZM30.6943 47.4766C30.6943 45.592 29.3775 44.0585 27.7591 44.0585C26.1407 44.0585 24.8238 45.592 24.8238 47.4766C24.8238 49.3621 26.1407 50.8956 27.7591 50.8956C29.3775 50.8956 30.6943 49.3621 30.6943 47.4766ZM40.4785 41.0963C42.427 41.0963 44.0117 42.9356 44.0117 45.1956C44.0117 47.4565 42.427 49.2957 40.4785 49.2957C38.5309 49.2957 36.9461 47.4565 36.9461 45.1956C36.9461 42.9356 38.5309 41.0963 40.4785 41.0963ZM40.6717 40.0936C40.1434 38.5751 38.7132 37.5312 37.0461 37.5312C34.9271 37.5312 33.2038 39.2546 33.2038 41.3735C33.2038 43.0859 34.346 44.5741 35.9408 45.0537C36.0089 42.3032 38.0178 40.0885 40.4785 40.0885C40.5432 40.0885 40.6079 40.0911 40.6717 40.0936ZM45.7427 34.8681C45.7687 34.8941 45.7721 34.9269 45.7527 34.9579L44.6223 36.7073C44.4157 37.0256 44.3913 37.4195 44.556 37.7622C44.6903 38.0402 44.8096 38.3282 44.9121 38.618C45.0372 38.9757 45.3337 39.2369 45.7032 39.3167L47.739 39.7534C47.7751 39.761 47.7961 39.787 47.7961 39.824V42.923C47.7961 42.96 47.7751 42.9852 47.739 42.9936L45.704 43.4303C45.337 43.5092 45.0439 43.7654 44.9163 44.1173C44.7567 43.2841 44.4157 42.5258 43.9412 41.8976C43.9546 41.7237 43.9639 41.5482 43.9639 41.3735C43.9639 37.5589 40.8606 34.4557 37.0461 34.4557C33.2315 34.4557 30.1283 37.5589 30.1283 41.3735C30.1283 45.1276 33.1349 48.1905 36.8663 48.2862C37.3283 48.9674 37.938 49.5133 38.6409 49.8643H37.3635C35.5478 49.8643 33.9319 50.7302 32.9023 52.0697C32.1506 51.6179 31.2999 51.3802 30.413 51.3802H29.616C30.8564 50.6336 31.7021 49.1639 31.7021 47.4766C31.7021 45.0361 29.9334 43.0507 27.7591 43.0507C27.5004 43.0507 27.2485 43.0792 27.0041 43.133L26.3532 42.9936C26.3171 42.9852 26.2961 42.96 26.2961 42.923V39.824C26.2961 39.787 26.3171 39.761 26.3532 39.7534L28.3881 39.3167C28.7585 39.2369 29.055 38.9757 29.1801 38.618C29.2817 38.3282 29.4018 38.0402 29.5362 37.7613C29.7008 37.4195 29.6764 37.0256 29.4698 36.7065L28.3394 34.9579C28.3193 34.9269 28.3235 34.8941 28.3495 34.8681L30.5406 32.6769C30.5667 32.65 30.5994 32.6467 30.6305 32.6668L32.3791 33.7973C32.6982 34.0039 33.0921 34.0282 33.4347 33.8636C33.7131 33.729 33.9988 33.6101 34.2905 33.5075C34.6483 33.3824 34.9095 33.0868 34.9893 32.7155L35.426 30.6806C35.4344 30.6445 35.4596 30.6235 35.4966 30.6235H38.5956C38.6325 30.6235 38.6577 30.6445 38.6661 30.6806L39.1029 32.7155C39.1826 33.0859 39.4438 33.3824 39.8016 33.5075C40.0933 33.6101 40.379 33.729 40.6574 33.8636C40.9992 34.0282 41.3939 34.003 41.7122 33.7973L43.4616 32.6668C43.4927 32.6467 43.5255 32.65 43.5515 32.6769L45.7427 34.8681ZM51.3469 28.5734L54.2755 32.687H52.9326C52.6546 32.687 52.4287 32.9121 52.4287 33.1909V43.1355C51.5771 43.3253 50.8237 43.8242 50.2652 44.5221V33.1909C50.2652 32.9121 50.0393 32.687 49.7613 32.687H48.4176L51.3469 28.5734Z" fill="white"></path>
  <defs>
    <linearGradient id="paint0_linear_1074_459" x1="40.5" y1="0" x2="40.5" y2="80" gradientUnits="userSpaceOnUse">
      <stop stop-color="#8788FF"></stop>
      <stop offset="1" stop-color="#5A5EFF"></stop>
    </linearGradient>
  </defs>
</svg>
