<?xml version="1.0" encoding="UTF-8"?>
<svg xmlns="http://www.w3.org/2000/svg" width="81" height="80" viewBox="0 0 81 80" fill="none">
  <path d="M0.5 40C0.5 17.9086 18.4086 0 40.5 0C62.5914 0 80.5 17.9086 80.5 40C80.5 62.0914 62.5914 80 40.5 80C18.4086 80 0.5 62.0914 0.5 40Z" fill="url(#paint0_linear_1074_482)"></path>
  <g clip-path="url(#clip0_1074_482)">
    <path d="M57.6607 27.6608C60.0556 27.6608 62 25.716 62 23.3214C61.7847 17.5721 53.5357 17.5737 53.3213 23.3215C53.3213 25.7161 55.2657 27.6608 57.6607 27.6608ZM29.5789 39.8334C30.1215 40.3757 30.8573 40.6804 31.6245 40.6803H34.8904V37.7874C34.8904 36.7469 35.1834 35.752 35.728 34.8945H32.8228L29.3307 31.4028C28.201 30.2731 26.3693 30.2731 25.2395 31.4028C24.1099 32.5325 24.1099 34.3644 25.2395 35.4941L29.5789 39.8334ZM36.4955 26.0676L42.4001 28.0358L46.9745 23.4614L38.3251 20.5782C36.8093 20.0734 35.1711 20.8922 34.6658 22.408C34.1607 23.9239 34.9798 25.562 36.4955 26.0676ZM60.74 59.4701H47.1544V52.6325C47.1544 51.9366 46.5903 51.3725 45.8944 51.3725H43.0513L38.3439 56.0792C37.8191 56.6039 37.2052 57.0066 36.5368 57.2752V59.47H20.252C18.582 59.532 18.5833 61.9286 20.252 61.99H60.74C62.41 61.9282 62.4088 59.5315 60.74 59.4701Z" fill="white"></path>
    <path d="M38.2578 35.7421C37.9892 36.0107 37.7761 36.3296 37.6307 36.6805C37.4854 37.0315 37.4106 37.4076 37.4106 37.7874V45.2671L32.4715 50.2052C31.3417 51.335 31.3415 53.1668 32.4712 54.2966C33.6009 55.4269 35.4325 55.4269 36.5623 54.2973L42.3489 48.5115C42.6176 48.2428 42.8308 47.9238 42.9762 47.5728C43.1216 47.2217 43.1964 46.8455 43.1964 46.4655V38.9859L45.3668 36.8155C45.1343 36.2018 45.0153 35.5509 45.0159 34.8946V28.9843L38.2578 35.7421ZM52.7223 41.2798C55.5342 43.8904 59.4231 39.9974 56.8136 37.1885L53.3215 33.6961V28.6293C52.1548 27.6737 51.309 26.3414 50.9684 24.8204C49.2141 24.4692 47.5159 25.8699 47.5357 27.6622V34.8944C47.5358 35.6617 47.8405 36.3976 48.3829 36.9404L52.7223 41.2798Z" fill="white"></path>
  </g>
  <defs>
    <linearGradient id="paint0_linear_1074_482" x1="40.5" y1="0" x2="40.5" y2="80" gradientUnits="userSpaceOnUse">
      <stop stop-color="#8788FF"></stop>
      <stop offset="1" stop-color="#5A5EFF"></stop>
    </linearGradient>
    <clipPath id="clip0_1074_482">
      <rect width="43" height="43" fill="white" transform="translate(19 19)"></rect>
    </clipPath>
  </defs>
</svg>
