<svg xmlns="http://www.w3.org/2000/svg" width="110" height="110" viewBox="0 0 110 110" fill="none"><g clip-path="url(#clip0_488_31)"><circle cx="55" cy="55" r="55" fill="white"></circle><circle cx="55" cy="55" r="46" fill="#5DC53C"></circle><g clip-path="url(#clip1_488_31)"><path d="M70.1375 45.1375C70.1375 36.7773 63.3601 30 54.9999 30C46.6397 30 39.8623 36.7773 39.8623 45.1375C39.8623 53.4977 46.6396 60.2752 54.9998 60.2752C63.36 60.2752 70.1375 53.4978 70.1375 45.1375ZM56.4648 52.3157V54.2203H53.5353V52.3195C51.471 52.0075 49.8835 50.2215 49.8835 48.0715H52.8129C52.8129 48.8253 53.4262 49.4386 54.1801 49.4386H55.7919C56.5738 49.4386 57.21 48.8024 57.21 48.0204C57.21 47.2384 56.5737 46.6022 55.7919 46.6022H54.2082C51.8109 46.6022 49.8606 44.6518 49.8606 42.2545C49.8606 40.086 51.4565 38.2835 53.5354 37.9591V36.0545H56.4648V37.9656C58.5268 38.3053 60.105 40.0996 60.105 42.2562H57.1755C57.1755 41.4732 56.5386 40.8363 55.7555 40.8363H54.2082C53.4262 40.8363 52.7901 41.4725 52.7901 42.2545C52.7901 43.0365 53.4263 43.6727 54.2082 43.6727H55.7919C58.1891 43.6727 60.1394 45.623 60.1394 48.0204C60.1394 50.1889 58.5436 51.9912 56.4648 52.3157ZM66.7603 58.8532C65.3463 60.0694 63.7515 61.058 62.0333 61.7836C60.7232 62.3382 59.3516 62.7347 57.9476 62.9647V69.9947H55.006V72.652L62.354 80L69.702 72.652V69.9947H66.7603V58.8532ZM52.0522 62.9647C50.6482 62.7346 49.2766 62.3382 47.9665 61.7836C46.2483 61.058 44.6535 60.0694 43.2394 58.8532V65.3082H40.2978V67.9655L47.6458 75.3135L54.9938 67.9655V65.3082H52.0522V62.9647Z" fill="white"></path></g></g><defs><clipPath id="clip0_488_31"><rect width="110" height="110" fill="white"></rect></clipPath><clipPath id="clip1_488_31"><rect width="50" height="50" fill="white" transform="translate(30 30)"></rect></clipPath></defs></svg>