<svg xmlns="http://www.w3.org/2000/svg" width="81" height="80" viewBox="0 0 81 80" fill="none"><path d="M0.5 40C0.5 17.9086 18.4086 0 40.5 0C62.5914 0 80.5 17.9086 80.5 40C80.5 62.0914 62.5914 80 40.5 80C18.4086 80 0.5 62.0914 0.5 40Z" fill="url(#paint0_linear_956_3465)"></path><path d="M38.9091 39.8308C41.818 38.9873 44.8384 39.6241 47.8589 40.2612C50.9805 40.9196 54.1023 41.578 56.8152 40.3928C57.586 38.0421 57.8901 35.4402 57.6632 32.6487C57.6302 32.2411 57.5915 31.8669 57.5474 31.5271C57.3295 29.8468 56.7788 28.4264 56.0036 27.2531C54.8682 25.5346 53.2433 24.3385 51.4726 23.6265C49.6848 22.9077 47.7556 22.6801 46.0299 22.9039C44.8458 23.0575 43.7656 23.4247 42.9075 23.9916L42.9063 23.9899L42.9039 23.9916C42.8536 24.0247 42.7999 24.0587 42.7431 24.0933C41.5885 24.7935 40.2769 24.9549 38.9532 24.4833C38.1327 24.1911 37.3162 23.653 36.5453 22.8463C36.2845 23.2148 35.9384 23.5538 35.521 23.8278C35.0129 24.1612 34.4583 24.359 33.926 24.4238C34.563 25.7465 35.2926 26.8361 35.9908 27.8788C38.005 30.8868 39.7811 33.5406 38.9091 39.8308ZM49.316 46.142L49.38 46.206C49.7502 46.5762 50.3506 46.5762 50.7209 46.206C51.0911 45.8358 51.0911 45.2354 50.7209 44.8652L50.6568 44.8011C50.2866 44.4309 49.6862 44.4309 49.316 44.8011C48.9458 45.1714 48.9458 45.7718 49.316 46.142ZM34.4184 50.8558L34.4825 50.9198C34.8526 51.29 35.4531 51.29 35.8233 50.9198C36.1935 50.5496 36.1935 49.9492 35.8233 49.579L35.7593 49.5149C35.389 49.1447 34.7886 49.1447 34.4184 49.5149C34.0482 49.8851 34.0482 50.4856 34.4184 50.8558ZM39.4056 50.8558L39.4697 50.9198C39.8398 51.29 40.4403 51.29 40.8105 50.9198C41.1807 50.5496 41.1807 49.9492 40.8105 49.579L40.7465 49.5149C40.3762 49.1447 39.7758 49.1447 39.4056 49.5149C39.0354 49.8851 39.0354 50.4856 39.4056 50.8558ZM39.4056 46.206L39.4697 46.27C39.8398 46.6401 40.4403 46.6401 40.8105 46.27C41.1807 45.8998 41.1807 45.2993 40.8105 44.9291L40.7465 44.8652C40.3762 44.495 39.7758 44.495 39.4056 44.8652C39.0354 45.2354 39.0354 45.8358 39.4056 46.206ZM44.3928 46.206L44.4568 46.27C44.827 46.6401 45.4275 46.6401 45.7977 46.27C46.1679 45.8998 46.1679 45.2993 45.7977 44.9291L45.7337 44.8652C45.3634 44.495 44.763 44.495 44.3928 44.8652C44.0226 45.2354 44.0226 45.8358 44.3928 46.206ZM36.8552 20.155L37.0032 20.383C37.8361 21.6434 38.7256 22.3926 39.5829 22.698C40.3483 22.9707 41.1037 22.8794 41.7652 22.4782L41.8641 22.4154L41.8629 22.4137C42.9618 21.6876 44.3209 21.2205 45.7928 21.0295C47.8243 20.7661 50.0874 21.0308 52.1765 21.8708C54.2825 22.7175 56.2197 24.1475 57.5815 26.2085C58.507 27.6092 59.1636 29.2984 59.4218 31.29C59.4794 31.7339 59.523 32.1377 59.5524 32.5006C60.0383 38.4828 58.282 43.6963 54.8071 47.6286C51.3534 51.5372 46.2102 54.1551 39.8982 54.9739C39.3572 55.0441 38.8454 55.0989 38.3644 55.138C37.228 55.2303 36.0568 55.2791 34.7882 55.2522C33.5232 55.2254 32.1974 55.123 30.7634 54.913C30.3483 54.8524 29.9655 54.8677 29.6211 54.9481C29.0737 55.0759 28.6112 55.3726 28.2633 55.7892C27.8975 56.2269 27.6509 56.8019 27.5544 57.4612C27.4752 58.0025 27.4975 58.598 27.6373 59.2215C27.6612 59.3046 27.6739 59.3924 27.6739 59.4833C27.6739 60.2408 27.2774 60.9036 26.6364 61.3628C26.0869 61.7565 25.3435 62 24.5363 62C23.7295 62 22.9859 61.7565 22.4364 61.3628C21.8223 60.9229 21.4325 60.2961 21.4009 59.5781C21.3286 58.8372 21.3718 57.8964 21.5388 56.9065C21.6928 55.9932 21.9543 55.0228 22.3301 54.114C24.2082 49.572 27.461 48.2125 30.5397 46.9259C33.4917 45.6923 36.2599 44.5351 36.961 40.0903C37.9014 34.1296 36.2733 31.6982 34.4203 28.9309C33.3482 27.3297 32.2069 25.6251 31.3647 23.1579C31.104 22.586 31.1153 21.9323 31.3572 21.3054C31.5996 20.6774 32.0871 20.0668 32.762 19.6236L32.764 19.6225L32.7622 19.6199C33.4346 19.1787 34.1886 18.975 34.8643 19.0026C35.6512 19.0345 36.3454 19.3711 36.7609 20.0038L36.7619 20.0054L36.7646 20.0038C36.7972 20.0533 36.8274 20.1037 36.8552 20.155ZM35.1815 21.0395L35.1778 21.0334C35.115 20.947 34.972 20.8991 34.7901 20.8916C34.4918 20.8796 34.1379 20.9831 33.7995 21.2052L33.7977 21.2026L33.787 21.2097C33.4581 21.4287 33.2275 21.7095 33.1204 21.987C33.063 22.136 33.0458 22.2695 33.0785 22.3618L33.0904 22.3843L33.1151 22.4217C33.1805 22.5036 33.3189 22.5489 33.4932 22.5559C33.7915 22.5681 34.1454 22.4646 34.4838 22.2425C34.8206 22.0214 35.0557 21.7386 35.1629 21.4606C35.2297 21.2876 35.2403 21.1339 35.1793 21.0409L35.1815 21.0395Z" fill="white"></path><defs><linearGradient id="paint0_linear_956_3465" x1="40.5" y1="0" x2="40.5" y2="80" gradientUnits="userSpaceOnUse"><stop stop-color="#8788FF"></stop><stop offset="1" stop-color="#5A5EFF"></stop></linearGradient></defs></svg>