<svg xmlns="http://www.w3.org/2000/svg" width="71" height="70" viewBox="0 0 71 70" fill="none"><g clip-path="url(#clip0_357_2409)"><path fill-rule="evenodd" clip-rule="evenodd" d="M12.8665 41.2735C14.5065 40.0507 16.2013 38.7872 17.1585 38.0135C17.2134 37.9691 17.264 37.9198 17.3099 37.8661C19.236 35.6134 21.9532 34.1858 24.9011 33.8779C27.849 33.57 30.8026 34.4052 33.1527 36.2113C33.354 36.3656 33.6007 36.4492 33.8543 36.4491H44.6044C45.2493 36.4491 45.8679 36.7053 46.324 37.1613C46.78 37.6174 47.0363 38.236 47.0363 38.881C47.0363 39.5259 46.78 40.1445 46.324 40.6006C45.8679 41.0567 45.2493 41.3129 44.6044 41.3129H33.8543C33.5488 41.3129 33.2559 41.4342 33.0399 41.6502C32.8239 41.8662 32.7025 42.1592 32.7025 42.4647C32.7025 42.7701 32.8239 43.0631 33.0399 43.2791C33.2559 43.4951 33.5488 43.6165 33.8543 43.6165H44.6044C45.7354 43.6153 46.8288 43.2099 47.6871 42.4734C48.5455 41.7369 49.1124 40.7179 49.2854 39.6001L65.4291 30.9688C66.9106 30.1762 68.7006 30.6434 69.5028 32.0335C70.3941 33.5777 69.3874 35.2378 68.2544 36.1903L50.214 51.3544C49.3892 52.0749 48.3256 52.4623 47.2306 52.4412H21.4782C21.213 52.4416 20.956 52.5333 20.7504 52.7008L20.5949 52.8284L12.8452 41.2892L12.8669 41.2735H12.8665ZM1.60989 42.8848C1.2266 43.1428 0.961282 43.5423 0.872143 43.9956C0.783003 44.449 0.877318 44.9192 1.1344 45.3031L11.6139 60.9108C11.8722 61.2943 12.272 61.5596 12.7256 61.6487C13.1793 61.7377 13.6497 61.6431 14.0337 61.3857L19.1552 57.9456C19.5386 57.6878 19.804 57.2884 19.8932 56.8352C19.9824 56.3819 19.8882 55.9117 19.6311 55.5279L9.15022 39.9208C8.89184 39.5381 8.49248 39.2733 8.03944 39.1842C7.5864 39.0951 7.11651 39.189 6.73247 39.4453L1.60989 42.8848ZM50.6631 14.5623C50.663 13.8312 50.8797 13.1164 51.2859 12.5084C51.692 11.9004 52.2693 11.4266 52.9448 11.1467C53.6203 10.8669 54.3636 10.7937 55.0807 10.9363C55.7978 11.0789 56.4565 11.431 56.9735 11.9481C57.4905 12.4651 57.8426 13.1238 57.9851 13.8409C58.1277 14.5581 58.0544 15.3013 57.7746 15.9768C57.4947 16.6523 57.0207 17.2296 56.4127 17.6357C55.8047 18.0418 55.0899 18.2585 54.3588 18.2583C53.3789 18.2572 52.4394 17.8674 51.7465 17.1746C51.0536 16.4817 50.6638 15.5422 50.6627 14.5623H50.6631ZM54.3588 20.5619C56.5189 20.5643 58.5898 21.4234 60.1171 22.9509C61.6444 24.4783 62.5034 26.5493 62.5056 28.7094V28.7339C59.8506 29.4554 57.1101 29.814 54.3588 29.7997C51.6078 29.814 48.8676 29.4556 46.2129 28.7343V28.7098C46.2133 28.424 46.2281 28.1383 46.2571 27.854C47.1714 27.6603 48.0587 27.4301 48.9078 27.1611C49.1232 27.0928 49.3138 26.9626 49.4559 26.7869C49.5981 26.6112 49.6855 26.3976 49.7073 26.1726C49.7385 25.8412 49.7548 25.5035 49.7548 25.1672C49.7544 24.1929 49.6177 23.2234 49.3486 22.287C50.7786 21.1673 52.543 20.5598 54.3592 20.5619H54.3588ZM35.6072 11.0197C35.6072 10.2887 35.8239 9.57416 36.23 8.96634C36.6361 8.35852 37.2133 7.88476 37.8886 7.60497C38.5639 7.32517 39.307 7.2519 40.024 7.39442C40.7409 7.53695 41.3995 7.88886 41.9165 8.40567C42.4334 8.92248 42.7856 9.58098 42.9283 10.2979C43.071 11.0148 42.998 11.7579 42.7184 12.4333C42.4388 13.1087 41.9652 13.6861 41.3575 14.0923C40.7498 14.4986 40.0353 14.7155 39.3043 14.7157C38.3244 14.7146 37.3849 14.3248 36.692 13.632C35.9991 12.9391 35.6093 11.9996 35.6082 11.0197H35.6072ZM39.3043 17.0193C37.1443 17.0219 35.0735 17.8812 33.5462 19.4086C32.019 20.936 31.1599 23.0068 31.1574 25.1668V25.1913C33.8125 25.9128 36.553 26.2714 39.3043 26.2571C42.0556 26.2714 44.7962 25.9128 47.4512 25.1913V25.1668C47.4489 23.0068 46.5898 20.9358 45.0625 19.4084C43.5352 17.881 41.4643 17.0218 39.3043 17.0193ZM20.5535 14.5623C20.5535 13.8313 20.7702 13.1167 21.1763 12.5089C21.5825 11.901 22.1597 11.4273 22.8351 11.1475C23.5104 10.8677 24.2536 10.7945 24.9706 10.9371C25.6875 11.0797 26.3461 11.4317 26.8631 11.9486C27.38 12.4654 27.732 13.124 27.8747 13.841C28.0173 14.558 27.9442 15.3011 27.6644 15.9765C27.3847 16.6519 26.911 17.2292 26.3032 17.6353C25.6954 18.0415 24.9808 18.2583 24.2498 18.2583C23.2697 18.2575 22.3301 17.8679 21.6371 17.175C20.9441 16.482 20.5544 15.5423 20.5536 14.5623H20.5535ZM16.1021 28.7094C16.1017 27.1832 16.5301 25.6875 17.3385 24.3929C18.1468 23.0983 19.3027 22.0569 20.6742 21.3874C22.0458 20.7179 23.5779 20.4472 25.0958 20.6062C26.6137 20.7652 28.0565 21.3474 29.2595 22.2866C28.9905 23.223 28.8537 24.1925 28.8533 25.1668C28.8533 25.5024 28.8689 25.8407 28.9009 26.1716C28.9224 26.3967 29.0097 26.6105 29.1519 26.7864C29.294 26.9623 29.4848 27.0924 29.7004 27.1607C30.5483 27.4302 31.4367 27.6594 32.3497 27.8536C32.3801 28.1378 32.3955 28.4235 32.3959 28.7094V28.7339C29.7409 29.4553 27.0004 29.8139 24.2491 29.7997C21.4978 29.814 18.7572 29.4555 16.1021 28.7339V28.7094Z" fill="#477BFF"></path></g><defs><clipPath id="clip0_357_2409"><rect width="70" height="70" fill="white" transform="translate(0.714844)"></rect></clipPath></defs></svg>