<?xml version="1.0" encoding="UTF-8"?>
<svg xmlns="http://www.w3.org/2000/svg" width="81" height="80" viewBox="0 0 81 80" fill="none">
  <path d="M0.5 40C0.5 17.9086 18.4086 0 40.5 0C62.5914 0 80.5 17.9086 80.5 40C80.5 62.0914 62.5914 80 40.5 80C18.4086 80 0.5 62.0914 0.5 40Z" fill="url(#paint0_linear_1074_476)"></path>
  <path d="M33.7812 32.4375V28.9303L29.1588 27.7747L27.0625 28.8228V32.4375C27.0625 33.3285 27.4164 34.1829 28.0464 34.8129C28.6764 35.4429 29.5309 35.7969 30.4219 35.7969C31.3128 35.7969 32.1673 35.4429 32.7973 34.8129C33.4273 34.1829 33.7812 33.3285 33.7812 32.4375ZM29.75 31.0938H28.4062V29.75H29.75V31.0938ZM32.4375 31.0938H31.0938V29.75H32.4375V31.0938ZM37.1406 31.0938V31.7656C37.1396 32.1217 36.9976 32.4629 36.7459 32.7146C36.4941 32.9664 36.1529 33.1083 35.7969 33.1094H35.125V29.75H35.7969C36.1529 29.7511 36.4941 29.893 36.7459 30.1448C36.9976 30.3965 37.1396 30.7377 37.1406 31.0938ZM25.7188 29.75V33.1094H25.0469C24.6908 33.1083 24.3496 32.9664 24.0979 32.7146C23.8461 32.4629 23.7042 32.1217 23.7031 31.7656V31.0938C23.7042 30.7377 23.8461 30.3965 24.0979 30.1448C24.3496 29.893 24.6908 29.7511 25.0469 29.75H25.7188ZM58.4438 27.2594C58.3178 27.1334 58.1469 27.0626 57.9688 27.0626C57.7906 27.0626 57.6197 27.1334 57.4937 27.2594L54.8062 29.9469L55.7563 30.8969L57.2969 29.3563V34.4531H58.6406V29.3563L60.1812 30.8969L61.1313 29.9469L58.4438 27.2594ZM42.5156 29.3563V34.4531H43.8594V29.3563L45.4 30.8969L46.35 29.9469L43.6625 27.2594C43.5365 27.1334 43.3657 27.0626 43.1875 27.0626C43.0093 27.0626 42.8385 27.1334 42.7125 27.2594L40.025 29.9469L40.975 30.8969L42.5156 29.3563ZM54.909 24.2648C54.6324 24.3989 54.3966 24.6043 54.2258 24.8598C54.055 25.1154 53.9555 25.4119 53.9375 25.7188H55.2812C55.2812 25.6435 55.3914 25.5582 55.6535 25.3828C55.9301 25.2488 56.1659 25.0434 56.3367 24.7878C56.5075 24.5322 56.607 24.2357 56.625 23.9289C56.607 23.6219 56.5076 23.3253 56.337 23.0695C56.1663 22.8138 55.9306 22.6081 55.6541 22.4736C55.3914 22.2982 55.2812 22.2122 55.2812 22.1377C55.2812 22.0631 55.3914 21.9757 55.6541 21.8017C55.931 21.667 56.167 21.4609 56.3376 21.2046C56.5083 20.9483 56.6075 20.6512 56.625 20.3438H55.2812C55.2812 20.4197 55.1711 20.5057 54.9084 20.6797C54.6317 20.8143 54.3958 21.0202 54.2252 21.2762C54.0545 21.5322 53.9552 21.8291 53.9375 22.1363C53.9555 22.4433 54.0549 22.7399 54.2255 22.9956C54.3962 23.2514 54.6319 23.4571 54.9084 23.5916C55.1711 23.767 55.2812 23.853 55.2812 23.9275C55.2812 24.0021 55.1711 24.0895 54.909 24.2648ZM58.9403 24.2648C58.6637 24.3989 58.4278 24.6043 58.257 24.8598C58.0863 25.1154 57.9867 25.4119 57.9688 25.7188H59.3125C59.3125 25.6435 59.4227 25.5582 59.6847 25.3828C59.9613 25.2488 60.1972 25.0434 60.368 24.7878C60.5387 24.5322 60.6383 24.2357 60.6562 23.9289C60.6383 23.6219 60.5389 23.3253 60.3682 23.0695C60.1976 22.8138 59.9619 22.6081 59.6854 22.4736C59.4227 22.2982 59.3125 22.2122 59.3125 22.1377C59.3125 22.0631 59.4227 21.9757 59.6854 21.8017C59.9623 21.667 60.1982 21.4609 60.3689 21.2046C60.5395 20.9483 60.6387 20.6512 60.6562 20.3438H59.3125C59.3125 20.4197 59.2023 20.5057 58.9396 20.6797C58.6629 20.8143 58.4271 21.0202 58.2564 21.2762C58.0858 21.5322 57.9865 21.8291 57.9688 22.1363C57.9867 22.4433 58.0861 22.7399 58.2568 22.9956C58.4274 23.2514 58.6631 23.4571 58.9396 23.5916C59.2023 23.767 59.3125 23.853 59.3125 23.9275C59.3125 24.0021 59.2023 24.0895 58.9403 24.2648ZM41.4715 24.2648C41.1949 24.3989 40.9591 24.6043 40.7883 24.8598C40.6175 25.1154 40.518 25.4119 40.5 25.7188H41.8438C41.8438 25.6435 41.9539 25.5582 42.216 25.3828C42.4926 25.2488 42.7284 25.0434 42.8992 24.7878C43.07 24.5322 43.1695 24.2357 43.1875 23.9289C43.1695 23.6219 43.0701 23.3253 42.8995 23.0695C42.7288 22.8138 42.4931 22.6081 42.2166 22.4736C41.9539 22.2982 41.8438 22.2122 41.8438 22.1377C41.8438 22.0631 41.9539 21.9757 42.2166 21.8017C42.4935 21.667 42.7295 21.4609 42.9001 21.2046C43.0708 20.9483 43.17 20.6512 43.1875 20.3438H41.8438C41.8438 20.4197 41.7336 20.5057 41.4709 20.6797C41.1942 20.8143 40.9583 21.0202 40.7877 21.2762C40.617 21.5322 40.5177 21.8291 40.5 22.1363C40.518 22.4433 40.6174 22.7399 40.788 22.9956C40.9587 23.2514 41.1944 23.4571 41.4709 23.5916C41.7336 23.767 41.8438 23.853 41.8438 23.9275C41.8438 24.0021 41.7336 24.0895 41.4715 24.2648ZM45.5028 24.2648C45.2262 24.3989 44.9903 24.6043 44.8195 24.8598C44.6488 25.1154 44.5492 25.4119 44.5312 25.7188H45.875C45.875 25.6435 45.9852 25.5582 46.2472 25.3828C46.5238 25.2488 46.7597 25.0434 46.9305 24.7878C47.1012 24.5322 47.2008 24.2357 47.2188 23.9289C47.2008 23.6219 47.1014 23.3253 46.9307 23.0695C46.7601 22.8138 46.5244 22.6081 46.2479 22.4736C45.9852 22.2982 45.875 22.2122 45.875 22.1377C45.875 22.0631 45.9852 21.9757 46.2479 21.8017C46.5248 21.667 46.7607 21.4609 46.9314 21.2046C47.102 20.9483 47.2012 20.6512 47.2188 20.3438H45.875C45.875 20.4197 45.7648 20.5057 45.5021 20.6797C45.2254 20.8143 44.9896 21.0202 44.8189 21.2762C44.6483 21.5322 44.549 21.8291 44.5312 22.1363C44.5492 22.4433 44.6486 22.7399 44.8193 22.9956C44.9899 23.2514 45.2256 23.4571 45.5021 23.5916C45.7648 23.767 45.875 23.853 45.875 23.9275C45.875 24.0021 45.7648 24.0895 45.5028 24.2648ZM33.2908 39.2503L30.8989 41.6489C30.7721 41.7748 30.6006 41.8454 30.4219 41.8454C30.2432 41.8454 30.0717 41.7748 29.9448 41.6489L27.553 39.2503L26.7938 39.5056L29.4208 43.1875H31.423L34.05 39.5056L33.2908 39.2503ZM28.4533 51.6934L30.4219 53.662L32.3905 51.6934L31.6447 47.2188H29.1991L28.4533 51.6934ZM29.6492 44.5313L29.4208 45.875H31.423L31.1945 44.5313H29.6492Z" fill="white"></path>
  <path d="M29.4409 37.0331L29.1252 38.9278L30.4219 40.2245L31.7186 38.9278L31.4028 37.0331C30.7567 37.1765 30.087 37.1765 29.4409 37.0331ZM50.5781 33.7812C51.1127 33.7812 51.6254 33.5689 52.0034 33.1909C52.3814 32.8129 52.5938 32.3002 52.5938 31.7656C52.5939 31.4133 52.5008 31.0672 52.3237 30.7626C52.1467 30.458 51.8921 30.2058 51.5859 30.0315C51.484 29.9727 51.3993 29.8881 51.3404 29.7862C51.2814 29.6843 51.2502 29.5687 51.25 29.451V23.7031C51.25 23.5249 51.1792 23.354 51.0532 23.228C50.9272 23.102 50.7563 23.0312 50.5781 23.0312C50.3999 23.0312 50.229 23.102 50.103 23.228C49.977 23.354 49.9063 23.5249 49.9063 23.7031V29.451C49.906 29.5687 49.8749 29.6843 49.8159 29.7862C49.7569 29.8881 49.6723 29.9727 49.5703 30.0315C49.2641 30.2058 49.0096 30.458 48.8325 30.7626C48.6555 31.0672 48.5623 31.4133 48.5625 31.7656C48.5625 32.3002 48.7749 32.8129 49.1529 33.1909C49.5309 33.5689 50.0436 33.7812 50.5781 33.7812ZM49.9063 31.0938H51.25V32.4375H49.9063V31.0938ZM45.9892 39.1562H51.9219C52.3386 39.1551 52.7447 39.0254 53.085 38.785C53.4253 38.5445 53.6831 38.2049 53.8233 37.8125H47.8906C47.474 37.8136 47.0678 37.9433 46.7275 38.1838C46.3872 38.4243 46.1294 38.7639 45.9892 39.1562ZM25.7188 28.4062C25.7182 28.282 25.7525 28.1601 25.8179 28.0543C25.8832 27.9486 25.9769 27.8634 26.0883 27.8083L28.7758 26.4645C28.9185 26.3905 29.0835 26.3714 29.2394 26.4108L34.6144 27.7545C34.76 27.7905 34.8895 27.8743 34.982 27.9924C35.0745 28.1105 35.1249 28.2562 35.125 28.4062V28.8027L35.7969 28.1308V27.7344C35.7969 26.8434 35.4429 25.9889 34.8129 25.3589C34.1829 24.7289 33.3285 24.375 32.4375 24.375H28.4063C27.5153 24.375 26.6608 24.7289 26.0308 25.3589C25.4008 25.9889 25.0469 26.8434 25.0469 27.7344V28.1308L25.7188 28.8027V28.4062ZM21.6875 52.5938H24.375V59.3125H21.6875V52.5938Z" fill="white"></path>
  <path d="M40.3523 46.9634C40.2666 47.0734 40.1483 47.1534 40.0143 47.192C39.8804 47.2306 39.7376 47.2259 39.6065 47.1784C39.4754 47.1326 39.3617 47.0472 39.2811 46.9341C39.2005 46.821 39.1569 46.6857 39.1564 46.5468V44.5312C39.164 43.4464 38.7973 42.3922 38.118 41.5464C37.4386 40.7006 36.4884 40.1151 35.4275 39.8885L32.4712 44.0206L33.7746 51.8143C33.7914 51.9197 33.7831 52.0275 33.7504 52.1291C33.7177 52.2306 33.6616 52.323 33.5865 52.3989L30.899 55.0864C30.7717 55.2113 30.6004 55.2812 30.422 55.2812C30.2436 55.2812 30.0723 55.2113 29.945 55.0864L27.2575 52.3989C27.1824 52.323 27.1263 52.2306 27.0936 52.1291C27.0609 52.0275 27.0526 51.9197 27.0693 51.8143L28.3728 44.0206L25.4165 39.8885C24.3556 40.1151 23.4053 40.7006 22.726 41.5464C22.0467 42.3922 21.6799 43.4464 21.6876 44.5312V51.25H25.047C25.2252 51.25 25.3961 51.3207 25.5221 51.4467C25.6481 51.5727 25.7189 51.7436 25.7189 51.9218V59.3125H38.4845C38.6627 59.3125 38.8336 59.2417 38.9596 59.1157C39.0856 58.9897 39.1564 58.8188 39.1564 58.6406V53.9375C39.156 53.8055 39.1959 53.6767 39.2706 53.5679L47.9781 40.5H45.5257L40.3523 46.9634ZM48.5626 59.3125H59.3126V49.9062H48.5626V59.3125ZM52.5939 51.25H57.9689V52.5937H52.5939V51.25ZM49.9064 51.25H51.2501V52.5937H49.9064V51.25ZM49.9064 53.9375H57.9689V55.2812H49.9064V53.9375ZM49.9064 56.625H57.9689V57.9687H49.9064V56.625Z" fill="white"></path>
  <defs>
    <linearGradient id="paint0_linear_1074_476" x1="40.5" y1="0" x2="40.5" y2="80" gradientUnits="userSpaceOnUse">
      <stop stop-color="#8788FF"></stop>
      <stop offset="1" stop-color="#5A5EFF"></stop>
    </linearGradient>
  </defs>
</svg>
