<?xml version="1.0" encoding="UTF-8"?>
<svg xmlns="http://www.w3.org/2000/svg" width="80" height="81" viewBox="0 0 80 81" fill="none">
  <rect y="0.964111" width="80" height="80" rx="40" fill="url(#paint0_linear_617_1099)"></rect>
  <path fill-rule="evenodd" clip-rule="evenodd" d="M46.8688 53.7375H58.6638C58.8884 53.7363 59.1035 53.6466 59.2623 53.4877C59.4211 53.3288 59.5107 53.1137 59.5118 52.889V49.254C59.5108 49.0293 59.421 48.8141 59.2621 48.6552C59.1033 48.4963 58.888 48.4065 58.6633 48.4055H48.1275C48.0433 50.2456 47.6164 52.0539 46.8688 53.7375ZM56.1771 27.6393L47.7981 36.0182C47.4204 36.397 46.9077 36.6103 46.3728 36.611C45.8379 36.6118 45.3246 36.4001 44.9458 36.0224C44.567 35.6447 44.3538 35.132 44.353 34.5971C44.3522 34.0622 44.564 33.5488 44.9417 33.1701L53.3246 24.7872H50.5776C50.0422 24.7876 49.5285 24.5752 49.1496 24.1969C48.7707 23.8185 48.5576 23.3051 48.5573 22.7697C48.5569 22.2342 48.7692 21.7205 49.1476 21.3416C49.526 20.9627 50.0394 20.7496 50.5748 20.7493H60.2149V30.3867C60.2153 30.9221 60.0029 31.4358 59.6246 31.8147C59.2462 32.1935 58.7328 32.4066 58.1974 32.4069C57.6619 32.4073 57.1482 32.1949 56.7694 31.8166C56.3905 31.4382 56.1774 30.9248 56.1771 30.3894V27.6393ZM33.2618 37.861C35.8719 37.861 38.3752 38.8978 40.2208 40.7434C42.0665 42.5891 43.1034 45.0923 43.1034 47.7024C43.1034 53.2104 38.6238 57.544 33.2618 57.544C27.8998 57.544 23.4202 53.2104 23.4202 47.7024C23.4202 46.41 23.6748 45.1302 24.1693 43.9362C24.6639 42.7422 25.3888 41.6572 26.3027 40.7433C27.2166 39.8295 28.3015 39.1045 29.4956 38.6099C30.6896 38.1153 31.9694 37.8608 33.2618 37.8608V37.861ZM36.6659 45.3971C36.6659 43.8786 35.4306 42.7264 33.965 42.4528V41.2205C33.965 41.034 33.8909 40.8552 33.7591 40.7233C33.6272 40.5914 33.4484 40.5174 33.2619 40.5174C33.0754 40.5174 32.8965 40.5914 32.7647 40.7233C32.6328 40.8552 32.5587 41.034 32.5587 41.2205V42.4531C31.0931 42.7262 29.8578 43.8784 29.8578 45.3974C29.8578 47.1537 31.4925 48.4059 33.2619 48.4059C35.0021 48.4059 35.9152 50.0818 34.7158 51.1055C33.4703 52.1686 31.264 51.4416 31.264 50.0082C31.264 49.8218 31.19 49.6429 31.0581 49.511C30.9262 49.3792 30.7474 49.3051 30.5609 49.3051C30.3744 49.3051 30.1956 49.3792 30.0637 49.511C29.9319 49.6429 29.8578 49.8218 29.8578 50.0082C29.8578 51.5267 31.0931 52.679 32.5587 52.9526V54.1851C32.5587 54.3716 32.6328 54.5505 32.7647 54.6823C32.8965 54.8142 33.0754 54.8883 33.2619 54.8883C33.4484 54.8883 33.6272 54.8142 33.7591 54.6823C33.8909 54.5505 33.965 54.3716 33.965 54.1851V52.9517C35.4306 52.6785 36.6659 51.5263 36.6659 50.0074C36.6659 48.251 35.0311 46.9988 33.2619 46.9988C31.5216 46.9988 30.6085 45.323 31.8079 44.2992C33.0532 43.2363 35.2596 43.963 35.2596 45.3965C35.2596 45.583 35.3337 45.7618 35.4656 45.8937C35.5974 46.0256 35.7763 46.0996 35.9627 46.0996C36.1492 46.0996 36.3281 46.0256 36.4599 45.8937C36.5918 45.7618 36.6659 45.583 36.6659 45.3965V45.3971ZM33.2618 34.2262C30.5963 34.2262 27.9908 35.0166 25.7745 36.4975C23.5583 37.9783 21.831 40.0831 20.811 42.5457C19.791 45.0082 19.5241 47.718 20.0441 50.3322C20.5642 52.9464 21.8477 55.3477 23.7325 57.2324C25.6173 59.1171 28.0187 60.4006 30.6329 60.9206C33.2471 61.4405 35.9568 61.1736 38.4194 60.1535C40.8819 59.1334 42.9866 57.406 44.4674 55.1898C45.9482 52.9735 46.7385 50.3679 46.7384 47.7024C46.7384 45.9326 46.3898 44.1802 45.7126 42.5451C45.0353 40.9101 44.0426 39.4244 42.7912 38.173C41.5398 36.9216 40.0541 35.9289 38.4191 35.2516C36.784 34.5744 35.0316 34.2258 33.2618 34.2258V34.2262ZM33.2618 37.1581C31.1762 37.1581 29.1375 37.7765 27.4034 38.9352C25.6693 40.0939 24.3177 41.7408 23.5196 43.6677C22.7216 45.5945 22.5128 47.7147 22.9197 49.7602C23.3266 51.8057 24.3309 53.6846 25.8057 55.1593C27.2804 56.634 29.1594 57.6382 31.2049 58.0451C33.2504 58.4519 35.3706 58.243 37.2974 57.4448C39.2242 56.6467 40.871 55.295 42.0296 53.5609C43.1883 51.8268 43.8066 49.788 43.8065 47.7024C43.8065 44.9058 42.6956 42.2237 40.718 40.2462C38.7405 38.2687 36.0584 37.1577 33.2618 37.1577V37.1581ZM40.9019 60.4758H58.6633C58.888 60.4748 59.1033 60.385 59.2621 60.2261C59.421 60.0672 59.5108 59.852 59.5118 59.6272V55.9924C59.5108 55.7676 59.421 55.5524 59.2621 55.3935C59.1033 55.2346 58.888 55.1448 58.6633 55.1438H46.1524C44.8822 57.3372 43.0755 59.172 40.9019 60.4758Z" fill="white"></path>
  <defs>
    <linearGradient id="paint0_linear_617_1099" x1="40" y1="0.964111" x2="40" y2="80.9641" gradientUnits="userSpaceOnUse">
      <stop stop-color="#85FF82"></stop>
      <stop offset="1" stop-color="#2CCB33"></stop>
    </linearGradient>
  </defs>
</svg>
