<svg xmlns="http://www.w3.org/2000/svg" width="70" height="71" viewBox="0 0 70 71" fill="none"><g clip-path="url(#clip0_73_2044)"><g clip-path="url(#clip1_73_2044)"><path d="M39.8334 13.7436H37.7623V11.6726C37.7623 10.5279 36.836 9.60156 35.6913 9.60156C34.5466 9.60156 33.6203 10.5279 33.6203 11.6726V13.7436H31.5492C30.4045 13.7436 29.4782 14.6699 29.4782 15.8147C29.4782 16.9594 30.4045 17.8857 31.5492 17.8857H33.6203V19.9567C33.6203 21.1014 34.5466 22.0277 35.6913 22.0277C36.836 22.0277 37.7623 21.1014 37.7623 19.9567V17.8857H39.8334C40.9781 17.8857 41.9044 16.9594 41.9044 15.8147C41.9044 14.6699 40.9781 13.7436 39.8334 13.7436ZM6.5588 34.4539H8.62983V30.3119H6.5588C3.13276 30.3119 0.345703 33.0989 0.345703 36.525V69.6615C0.345703 70.8062 1.27201 71.7325 2.41673 71.7325H8.62983V55.1642H4.48776V51.0222H8.62983V46.8801H4.48776V42.7381H8.62983V38.596H4.48776V36.525C4.48776 35.3842 5.41614 34.4539 6.5588 34.4539ZM64.8238 30.3119H62.7528V34.4539H64.8238C65.9665 34.4539 66.8948 35.3842 66.8948 36.525V38.596H62.7528V42.7381H66.8948V46.8801H62.7528V51.0222H66.8948V55.1642H62.7528V71.7325H68.9659C70.1106 71.7325 71.0369 70.8062 71.0369 69.6615V36.525C71.0369 33.0989 68.2498 30.3119 64.8238 30.3119Z" fill="white"></path><path d="M52.3976 9.60152H50.1885V3.11229C50.1885 1.96756 49.2622 1.04126 48.1175 1.04126H23.2651C22.1204 1.04126 21.1941 1.96756 21.1941 3.11229V9.60152H18.985C15.5589 9.60152 12.7719 12.3886 12.7719 15.8146V71.7324H29.4782V63.4483H41.9044V71.7324H58.6107V15.8146C58.6107 12.3886 55.8236 9.60152 52.3976 9.60152ZM33.6203 51.0221H25.3361V46.8801H33.6203V51.0221ZM33.6203 42.738H25.3361V38.596H33.6203V42.738ZM33.6203 34.4539H25.3361V30.3118H33.6203V34.4539ZM46.0464 51.0221H37.7623V46.8801H46.0464V51.0221ZM46.0464 42.738H37.7623V38.596H46.0464V42.738ZM46.0464 34.4539H37.7623V30.3118H46.0464V34.4539ZM46.0464 11.6726V26.1698H25.3361V5.18332H46.0464V11.6726Z" fill="white"></path></g></g><defs><clipPath id="clip0_73_2044"><rect width="70" height="70" fill="white" transform="translate(0 0.784546)"></rect></clipPath><clipPath id="clip1_73_2044"><rect width="70.6912" height="70.6912" fill="white" transform="translate(0.345703 1.04126)"></rect></clipPath></defs></svg>