<svg xmlns="http://www.w3.org/2000/svg" width="90" height="90" viewBox="0 0 90 90" fill="none"><path d="M0 12C0 5.37258 5.37258 0 12 0H78C84.6274 0 90 5.37258 90 12V78C90 84.6274 84.6274 90 78 90H12C5.37258 90 0 84.6274 0 78V12Z" fill="#E9F8FF"></path><path d="M47.851 26.367H46.1789V24.695C46.1789 23.7708 45.4311 23.0229 44.5069 23.0229C43.5827 23.0229 42.8348 23.7708 42.8348 24.695V26.367H41.1628C40.2386 26.367 39.4908 27.1149 39.4908 28.0391C39.4908 28.9633 40.2386 29.7111 41.1628 29.7111H42.8348V31.3832C42.8348 32.3074 43.5827 33.0552 44.5069 33.0552C45.4311 33.0552 46.1789 32.3074 46.1789 31.3832V29.7111H47.851C48.7752 29.7111 49.523 28.9633 49.523 28.0391C49.523 27.1149 48.7752 26.367 47.851 26.367ZM20.9868 43.0875H22.6589V39.7434H20.9868C18.2208 39.7434 15.9707 41.9935 15.9707 44.7595V71.5122C15.9707 72.4364 16.7186 73.1842 17.6427 73.1842H22.6589V59.8079H19.3148V56.4638H22.6589V53.1197H19.3148V49.7756H22.6589V46.4315H19.3148V44.7595C19.3148 43.8385 20.0643 43.0875 20.9868 43.0875ZM68.0269 39.7434H66.3549V43.0875H68.0269C68.9495 43.0875 69.699 43.8385 69.699 44.7595V46.4315H66.3549V49.7756H69.699V53.1197H66.3549V56.4638H69.699V59.8079H66.3549V73.1842H71.371C72.2952 73.1842 73.0431 72.4364 73.0431 71.5122V44.7595C73.0431 41.9935 70.7929 39.7434 68.0269 39.7434Z" fill="url(#paint0_linear_956_3240)"></path><path d="M57.9947 23.0229H56.2112V17.7839C56.2112 16.8597 55.4633 16.1118 54.5391 16.1118H34.4746C33.5504 16.1118 32.8026 16.8597 32.8026 17.7839V23.0229H31.0191C28.2531 23.0229 26.0029 25.273 26.0029 28.0391V73.1842H39.4907V66.496H49.523V73.1842H63.0108V28.0391C63.0108 25.273 60.7607 23.0229 57.9947 23.0229ZM42.8348 56.4638H36.1467V53.1197H42.8348V56.4638ZM42.8348 49.7756H36.1467V46.4315H42.8348V49.7756ZM42.8348 43.0874H36.1467V39.7433H42.8348V43.0874ZM52.8671 56.4638H46.1789V53.1197H52.8671V56.4638ZM52.8671 49.7756H46.1789V46.4315H52.8671V49.7756ZM52.8671 43.0874H46.1789V39.7433H52.8671V43.0874ZM52.8671 24.695V36.3993H36.1467V19.4559H52.8671V24.695Z" fill="url(#paint1_linear_956_3240)"></path><defs><linearGradient id="paint0_linear_956_3240" x1="44.5069" y1="23.0229" x2="44.5069" y2="73.1842" gradientUnits="userSpaceOnUse"><stop stop-color="#29B7FF"></stop><stop offset="1" stop-color="#368AFF"></stop></linearGradient><linearGradient id="paint1_linear_956_3240" x1="44.5069" y1="16.1118" x2="44.5069" y2="73.1842" gradientUnits="userSpaceOnUse"><stop stop-color="#29B7FF"></stop><stop offset="1" stop-color="#368AFF"></stop></linearGradient></defs></svg>