<svg xmlns="http://www.w3.org/2000/svg" width="80" height="80" viewBox="0 0 80 80" fill="none"><rect width="80" height="80" rx="16" fill="white"></rect><path fill-rule="evenodd" clip-rule="evenodd" d="M57.1143 31.5482H55.0817L55.1032 39.0156H53.7959L53.7724 30.9518C53.7713 30.5663 54.0393 30.2357 54.426 30.2357H57.1143C57.3501 29.7897 57.8187 29.4857 58.3582 29.4857C59.1348 29.4857 59.7645 30.1153 59.7645 30.8919C59.7645 31.6685 59.1348 32.2982 58.3582 32.2982C57.8186 32.2982 57.35 31.9942 57.1143 31.5482ZM38.3126 21.9873H41.6875C41.9457 21.9873 42.1562 22.1979 42.1562 22.4561V25.4027H45.1028C45.361 25.4027 45.5716 25.6132 45.5716 25.8714V29.2463C45.5716 29.5045 45.361 29.7151 45.1028 29.7151H42.1562V32.6616C42.1562 32.9198 41.9457 33.1304 41.6875 33.1304H38.3126C38.1884 33.1301 38.0693 33.0807 37.9814 32.9928C37.8936 32.905 37.8441 32.7859 37.8438 32.6616V29.7151H34.8973C34.773 29.7148 34.654 29.6653 34.5661 29.5775C34.4782 29.4896 34.4288 29.3706 34.4285 29.2463V25.8714C34.4285 25.6132 34.6391 25.4027 34.8973 25.4027H37.8438V22.4561C37.8441 22.3318 37.8936 22.2128 37.9814 22.1249C38.0693 22.0371 38.1884 21.9876 38.3126 21.9873ZM40.0001 17.1719C34.2637 17.1719 29.6132 21.8224 29.6132 27.5588C29.6132 33.2952 34.2637 37.9457 40.0001 37.9457C45.7365 37.9457 50.387 33.2952 50.387 27.5588C50.387 21.8224 45.7365 17.1719 40.0001 17.1719ZM61.0221 44.056C56.5912 44.056 54.3681 49.4239 57.501 52.5568C58.0781 53.1339 58.0781 54.07 57.501 54.6471L54.319 57.8291C53.7419 58.4062 52.8058 58.4062 52.2287 57.8291C49.0957 54.6962 43.7278 56.9193 43.7278 61.3502C43.7278 62.1668 43.0659 62.8282 42.2498 62.8282H37.75C36.9339 62.8282 36.272 62.1668 36.272 61.3502C36.272 56.9139 30.9081 54.6923 27.7712 57.8291C27.1941 58.4062 26.2581 58.4062 25.681 57.8291L22.499 54.6471C21.9219 54.07 21.9219 53.134 22.499 52.5568C25.632 49.4238 23.4088 44.056 18.978 44.056C18.1614 44.056 17.5 43.3941 17.5 42.578V40.7969C17.5 40.5387 17.7106 40.3281 17.9688 40.3281H28.5455C28.6666 40.3281 28.7829 40.375 28.8702 40.4588C28.9575 40.5427 29.0089 40.6571 29.0137 40.778C29.2498 46.6419 34.0782 51.3235 40.0001 51.3235C45.9219 51.3235 50.7504 46.642 50.9865 40.778C50.9913 40.6571 51.0428 40.5427 51.13 40.4589C51.2173 40.375 51.3336 40.3282 51.4547 40.3281H62.0313C62.2895 40.3281 62.5001 40.5387 62.5001 40.7969V42.578C62.5001 43.3941 61.8387 44.056 61.0221 44.056ZM47.8855 40.8259C47.8898 40.762 47.8808 40.6978 47.8592 40.6375C47.8376 40.5772 47.8038 40.5219 47.7599 40.4752C47.716 40.4285 47.6629 40.3913 47.604 40.366C47.5452 40.3407 47.4817 40.3278 47.4176 40.3281H32.5825C32.5184 40.3278 32.4549 40.3408 32.3961 40.3661C32.3372 40.3914 32.2841 40.4285 32.2403 40.4752C32.1964 40.5219 32.1625 40.5772 32.1409 40.6375C32.1193 40.6978 32.1103 40.762 32.1146 40.8259C32.3715 44.9575 35.8037 48.229 40 48.229C44.1964 48.229 47.6286 44.9576 47.8855 40.8259ZM61.0938 36.5818C61.8705 36.5818 62.5001 35.9522 62.5001 35.1755C62.5001 34.3989 61.8705 33.7693 61.0938 33.7693C60.5449 33.7693 60.0694 34.0839 59.8379 34.5425L57.6938 34.5782C57.608 34.5796 57.5232 34.5978 57.4444 34.6319C57.3656 34.666 57.2943 34.7153 57.2346 34.7769C57.1748 34.8386 57.1278 34.9114 57.0962 34.9912C57.0646 35.0711 57.049 35.1563 57.0504 35.2422L57.0591 39.0156H58.3666L58.3593 35.8749L59.8598 35.8499C60.0984 36.286 60.5615 36.5818 61.0938 36.5818ZM20.1624 34.5425L22.3065 34.5782C22.3923 34.5796 22.4771 34.5978 22.5559 34.6319C22.6347 34.666 22.706 34.7153 22.7657 34.7769C22.8255 34.8386 22.8725 34.9114 22.9041 34.9912C22.9357 35.0711 22.9512 35.1563 22.9499 35.2422L22.9412 39.0156H21.6337L21.6409 35.8749L20.1405 35.8499C19.9017 36.286 19.4386 36.5817 18.9063 36.5817C18.1296 36.5817 17.5 35.9521 17.5 35.1754C17.5 34.3988 18.1295 33.7692 18.9063 33.7692C19.4553 33.7693 19.9307 34.0839 20.1624 34.5425ZM22.8858 30.2357C22.6501 29.7897 22.1815 29.4857 21.6419 29.4857C20.8652 29.4857 20.2356 30.1153 20.2356 30.8919C20.2356 31.6685 20.8652 32.2982 21.6419 32.2982C22.1815 32.2982 22.6501 31.9941 22.8858 31.5482H24.9185L24.8969 39.0156H26.2042L26.2277 30.9518C26.2288 30.5662 25.9611 30.2357 25.5741 30.2357H22.8858Z" fill="#477BFF"></path></svg>