<svg xmlns="http://www.w3.org/2000/svg" width="101" height="100" viewBox="0 0 101 100" fill="none"><rect x="0.666016" width="100" height="100" rx="50" fill="url(#paint0_linear_956_3211)"></rect><path d="M60.4333 39.7278C58.5068 39.7278 56.9333 38.1544 56.9333 36.228V27.0221H37.5436C36.2201 27.0221 35.1465 28.0956 35.1465 29.419V54.8014H51.6172C53.1612 54.8014 54.4112 56.0589 54.4112 57.6029V64.9779C54.4112 66.5221 53.1612 67.7794 51.6172 67.7794H35.1465V70.5883C35.1465 71.9117 36.2201 72.978 37.5436 72.978H67.2422C68.5657 72.978 69.6392 71.9117 69.6392 70.5883V39.7278H60.4333ZM42.9811 41.5765H52.3927C52.6971 41.5765 52.9442 41.8235 52.9442 42.1279C52.9442 42.4324 52.6971 42.6794 52.3927 42.6794H42.9811C42.6766 42.6794 42.4296 42.4324 42.4296 42.1279C42.4296 41.8235 42.6766 41.5765 42.9811 41.5765ZM61.8043 51.2523H42.9811C42.6766 51.2523 42.4296 51.0053 42.4296 50.7009C42.4296 50.3964 42.6766 50.1494 42.9811 50.1494H61.8043C62.1088 50.1494 62.3558 50.3964 62.3558 50.7009C62.3558 51.0053 62.1088 51.2523 61.8043 51.2523ZM61.8043 46.9662H42.9811C42.6766 46.9662 42.4296 46.7192 42.4296 46.4148C42.4296 46.1103 42.6766 45.8633 42.9811 45.8633H61.8043C62.1088 45.8633 62.3558 46.1103 62.3558 46.4148C62.3558 46.7192 62.1088 46.9662 61.8043 46.9662Z" fill="white"></path><path d="M60.4338 38.623H69.6377L58.0391 27.0245V36.2283C58.0391 37.5508 59.1113 38.623 60.4338 38.623ZM46.5555 60.0557C46.4714 59.9724 46.3663 59.9063 46.2395 59.8597C46.1128 59.813 45.9616 59.7886 45.7857 59.7886H44.9639V62.5488H45.8166C45.9839 62.5488 46.1293 62.5251 46.2517 62.4784C46.3745 62.431 46.4768 62.3664 46.5583 62.2845C46.6402 62.2034 46.7027 62.105 46.7454 61.9901C46.7885 61.8767 46.8139 61.7532 46.8222 61.6225C46.8384 61.3202 46.8384 61.0179 46.8222 60.7149C46.8139 60.5842 46.7885 60.4628 46.7454 60.3501C46.7027 60.2381 46.6391 60.1397 46.5555 60.0557Z" fill="white"></path><path d="M53.3117 64.9802V57.6036C53.3117 56.6667 52.5524 55.9073 51.6155 55.9073H33.8309C33.0188 55.9073 32.3604 56.5656 32.3604 57.3779V65.2059C32.3604 66.0182 33.0188 66.6765 33.8309 66.6765H51.6155C52.5524 66.6765 53.3117 65.9171 53.3117 64.9802ZM38.985 63.1499C38.985 63.1951 38.9688 63.2339 38.9362 63.2662C38.9031 63.2992 38.8644 63.3158 38.8195 63.3158H38.3229C38.2777 63.3158 38.2389 63.2992 38.2063 63.2662C38.1736 63.2339 38.1571 63.1951 38.1571 63.1499V59.1883C38.1571 59.1431 38.1736 59.1043 38.2063 59.072C38.2389 59.039 38.2777 59.0225 38.3229 59.0225H38.8195C38.8644 59.0225 38.9031 59.039 38.9362 59.072C38.9688 59.1043 38.985 59.1431 38.985 59.1883V63.1499ZM40.6161 61.6843C40.6243 61.815 40.6498 61.9371 40.6929 62.0491C40.7356 62.1611 40.797 62.2588 40.8767 62.3406C40.9564 62.4225 41.0555 62.4871 41.1744 62.5367C41.2928 62.5855 41.4318 62.6106 41.5912 62.6106C41.7506 62.6106 41.8896 62.5905 42.0084 62.5517C42.1269 62.513 42.226 62.4627 42.3057 62.4017C42.3854 62.3406 42.4478 62.271 42.4927 62.1927C42.5376 62.1152 42.5663 62.0362 42.5785 61.9543C42.5868 61.9012 42.6083 61.861 42.6432 61.8344C42.6776 61.8078 42.7157 61.7949 42.7566 61.7949H43.2531C43.298 61.7949 43.3379 61.81 43.3727 61.8409C43.4075 61.871 43.423 61.9112 43.4187 61.9601C43.4065 62.1281 43.3644 62.2954 43.293 62.4627C43.2215 62.6307 43.1121 62.7815 42.9648 62.9165C42.8176 63.0515 42.6317 63.1621 42.4069 63.2483C42.1822 63.3337 41.91 63.3768 41.5912 63.3768C41.309 63.3768 41.0598 63.3344 40.843 63.2511C40.6265 63.1671 40.4423 63.0508 40.2911 62.9014C40.14 62.7521 40.0222 62.5733 39.9386 62.365C39.8546 62.1568 39.8047 61.9299 39.7881 61.6843C39.7799 61.5292 39.7759 61.3569 39.7759 61.1687C39.7759 60.9806 39.7799 60.8097 39.7881 60.6539C39.8047 60.4083 39.8546 60.1814 39.9386 59.9732C40.0222 59.7642 40.14 59.5861 40.2911 59.4368C40.4423 59.2874 40.6265 59.1711 40.843 59.0864C41.0598 59.0031 41.309 58.9614 41.5912 58.9614C41.91 58.9614 42.1822 59.0045 42.4069 59.09C42.6317 59.1754 42.8176 59.286 42.9648 59.421C43.1121 59.556 43.2215 59.7082 43.293 59.8777C43.3644 60.0479 43.4065 60.2144 43.4187 60.3774C43.423 60.427 43.4075 60.4665 43.3727 60.4974C43.3379 60.5282 43.298 60.5433 43.2531 60.5433H42.7566C42.7157 60.5433 42.6769 60.5297 42.6399 60.5038C42.6033 60.4765 42.5807 60.437 42.5724 60.3839C42.5602 60.302 42.5315 60.2223 42.4866 60.1448C42.4417 60.0672 42.3803 59.9976 42.3028 59.9366C42.2249 59.8748 42.1269 59.8245 42.0084 59.7858C41.8896 59.747 41.7506 59.7276 41.5912 59.7276C41.4318 59.7276 41.2928 59.7527 41.1744 59.8016C41.0555 59.8504 40.9564 59.9157 40.8767 59.9976C40.797 60.0795 40.7356 60.1778 40.6929 60.292C40.6498 60.4062 40.6243 60.5268 40.6161 60.6539C40.6078 60.8097 40.6039 60.9806 40.6039 61.1688C40.6039 61.3569 40.6078 61.5292 40.6161 61.6843ZM47.6502 61.6226C47.6337 61.8804 47.5859 62.1137 47.5062 62.322C47.4262 62.5302 47.3127 62.7083 47.1659 62.8555C47.0187 63.0027 46.8356 63.1161 46.6169 63.1958C46.3979 63.2755 46.1416 63.3158 45.8471 63.3158H44.3019C44.2566 63.3158 44.2179 63.2992 44.1852 63.2662C44.1525 63.2339 44.136 63.1951 44.136 63.1499V59.1883C44.136 59.1431 44.1525 59.1043 44.1852 59.072C44.2179 59.039 44.2566 59.0225 44.3019 59.0225H45.8166C46.1189 59.0225 46.3817 59.062 46.6047 59.1424C46.8273 59.2214 47.0133 59.3348 47.1626 59.4828C47.312 59.6292 47.4262 59.8073 47.5062 60.0156C47.5859 60.2245 47.6337 60.4579 47.6502 60.715C47.6664 61.018 47.6664 61.3203 47.6502 61.6226Z" fill="white"></path><defs><linearGradient id="paint0_linear_956_3211" x1="50.666" y1="0" x2="50.666" y2="100" gradientUnits="userSpaceOnUse"><stop stop-color="#29B7FF"></stop><stop offset="1" stop-color="#368AFF"></stop></linearGradient></defs></svg>