<svg xmlns="http://www.w3.org/2000/svg" width="93" height="93" viewBox="0 0 93 93" fill="none"><rect width="93" height="93" rx="46.5" fill="#D7E2FF"></rect><path d="M30.3334 37.6878C30.9167 37.6878 31.375 37.2295 31.375 36.6461V32.4795C31.375 30.7503 32.7709 29.3545 34.5 29.3545H38.6667C39.25 29.3545 39.7084 28.8961 39.7084 28.3128C39.7084 27.7295 39.25 27.2711 38.6667 27.2711H34.5C31.625 27.2711 29.2917 29.6045 29.2917 32.4795V36.6461C29.2917 37.2295 29.75 37.6878 30.3334 37.6878Z" fill="#477BFF"></path><path d="M63.6667 52.2711C63.0834 52.2711 62.625 52.7295 62.625 53.3128V57.4795C62.625 59.2086 61.2292 60.6045 59.5 60.6045H55.3334C54.75 60.6045 54.2917 61.0628 54.2917 61.6461C54.2917 62.2295 54.75 62.6878 55.3334 62.6878H59.5C62.375 62.6878 64.7084 60.3545 64.7084 57.4795V53.3128C64.7084 52.7295 64.25 52.2711 63.6667 52.2711Z" fill="#477BFF"></path><path d="M59.5 27.2711H55.3334C54.75 27.2711 54.2917 27.7295 54.2917 28.3128C54.2917 28.8961 54.75 29.3545 55.3334 29.3545H59.5C61.2292 29.3545 62.625 30.7503 62.625 32.4795V36.6461C62.625 37.2295 63.0834 37.6878 63.6667 37.6878C64.25 37.6878 64.7084 37.2295 64.7084 36.6461V32.4795C64.7084 29.6045 62.375 27.2711 59.5 27.2711Z" fill="#477BFF"></path><path d="M34.5 62.6878H38.6667C39.25 62.6878 39.7084 62.2295 39.7084 61.6461C39.7084 61.0628 39.25 60.6045 38.6667 60.6045H34.5C32.7709 60.6045 31.375 59.2086 31.375 57.4795V53.3128C31.375 52.7295 30.9167 52.2711 30.3334 52.2711C29.75 52.2711 29.2917 52.7295 29.2917 53.3128V57.4795C29.2917 60.3545 31.625 62.6878 34.5 62.6878Z" fill="#477BFF"></path><path d="M47 29.3545C47.5753 29.3545 48.0416 28.8881 48.0416 28.3128C48.0416 27.7375 47.5753 27.2711 47 27.2711C46.4247 27.2711 45.9583 27.7375 45.9583 28.3128C45.9583 28.8881 46.4247 29.3545 47 29.3545Z" fill="#477BFF"></path><path d="M51.1667 29.3545C51.742 29.3545 52.2083 28.8881 52.2083 28.3128C52.2083 27.7375 51.742 27.2711 51.1667 27.2711C50.5914 27.2711 50.125 27.7375 50.125 28.3128C50.125 28.8881 50.5914 29.3545 51.1667 29.3545Z" fill="#477BFF"></path><path d="M42.8334 29.3545C43.4087 29.3545 43.875 28.8881 43.875 28.3128C43.875 27.7375 43.4087 27.2711 42.8334 27.2711C42.2581 27.2711 41.7917 27.7375 41.7917 28.3128C41.7917 28.8881 42.2581 29.3545 42.8334 29.3545Z" fill="#477BFF"></path><path d="M47 62.6878C47.5753 62.6878 48.0416 62.2215 48.0416 61.6462C48.0416 61.0709 47.5753 60.6045 47 60.6045C46.4247 60.6045 45.9583 61.0709 45.9583 61.6462C45.9583 62.2215 46.4247 62.6878 47 62.6878Z" fill="#477BFF"></path><path d="M51.1667 62.6878C51.742 62.6878 52.2083 62.2215 52.2083 61.6462C52.2083 61.0709 51.742 60.6045 51.1667 60.6045C50.5914 60.6045 50.125 61.0709 50.125 61.6462C50.125 62.2215 50.5914 62.6878 51.1667 62.6878Z" fill="#477BFF"></path><path d="M42.8334 62.6878C43.4087 62.6878 43.875 62.2215 43.875 61.6462C43.875 61.0709 43.4087 60.6045 42.8334 60.6045C42.2581 60.6045 41.7917 61.0709 41.7917 61.6462C41.7917 62.2215 42.2581 62.6878 42.8334 62.6878Z" fill="#477BFF"></path><path d="M63.6667 46.0212C64.242 46.0212 64.7083 45.5548 64.7083 44.9795C64.7083 44.4042 64.242 43.9378 63.6667 43.9378C63.0914 43.9378 62.625 44.4042 62.625 44.9795C62.625 45.5548 63.0914 46.0212 63.6667 46.0212Z" fill="#477BFF"></path><path d="M63.6667 50.1878C64.242 50.1878 64.7083 49.7215 64.7083 49.1462C64.7083 48.5709 64.242 48.1045 63.6667 48.1045C63.0914 48.1045 62.625 48.5709 62.625 49.1462C62.625 49.7215 63.0914 50.1878 63.6667 50.1878Z" fill="#477BFF"></path><path d="M63.6667 41.8545C64.242 41.8545 64.7083 41.3881 64.7083 40.8128C64.7083 40.2375 64.242 39.7711 63.6667 39.7711C63.0914 39.7711 62.625 40.2375 62.625 40.8128C62.625 41.3881 63.0914 41.8545 63.6667 41.8545Z" fill="#477BFF"></path><path d="M30.3334 46.0212C30.9087 46.0212 31.375 45.5548 31.375 44.9795C31.375 44.4042 30.9087 43.9378 30.3334 43.9378C29.7581 43.9378 29.2917 44.4042 29.2917 44.9795C29.2917 45.5548 29.7581 46.0212 30.3334 46.0212Z" fill="#477BFF"></path><path d="M30.3334 50.1878C30.9087 50.1878 31.375 49.7215 31.375 49.1462C31.375 48.5709 30.9087 48.1045 30.3334 48.1045C29.7581 48.1045 29.2917 48.5709 29.2917 49.1462C29.2917 49.7215 29.7581 50.1878 30.3334 50.1878Z" fill="#477BFF"></path><path d="M30.3334 41.8545C30.9087 41.8545 31.375 41.3881 31.375 40.8128C31.375 40.2375 30.9087 39.7711 30.3334 39.7711C29.7581 39.7711 29.2917 40.2375 29.2917 40.8128C29.2917 41.3881 29.7581 41.8545 30.3334 41.8545Z" fill="#477BFF"></path><path d="M35.5417 36.6461V53.3128C35.5417 55.042 36.9375 56.4378 38.6667 56.4378H55.3334C57.0625 56.4378 58.4584 55.042 58.4584 53.3128V36.6461C58.4584 34.917 57.0625 33.5211 55.3334 33.5211H38.6667C36.9375 33.5211 35.5417 34.917 35.5417 36.6461ZM56.375 52.2711V53.3128C56.375 53.8961 55.9167 54.3545 55.3334 54.3545H38.6667C38.0834 54.3545 37.625 53.8961 37.625 53.3128V52.2711H56.375ZM51.6875 38.2086C52.8334 38.2086 53.7709 39.1461 53.7709 40.292C53.7709 41.4378 52.8334 42.3753 51.6875 42.3753C50.5417 42.3753 49.6042 41.4378 49.6042 40.292C49.6042 39.1461 50.5417 38.2086 51.6875 38.2086ZM47.4375 44.3753L53.25 50.1878H38.6667L44.4792 44.3753C45.2917 43.5628 46.6042 43.5628 47.4167 44.3753H47.4375Z" fill="#477BFF"></path></svg>