<svg xmlns="http://www.w3.org/2000/svg" width="88" height="88" viewBox="0 0 88 88" fill="none"><rect width="88" height="88" rx="44" fill="url(#paint0_linear_6_208)"></rect><path d="M44 37.3334C41.3629 37.3334 38.785 38.1154 36.5924 39.5804C34.3997 41.0455 32.6908 43.1279 31.6816 45.5643C30.6724 48.0006 30.4084 50.6815 30.9229 53.2679C31.4373 55.8543 32.7072 58.2301 34.5719 60.0948C36.4366 61.9595 38.8124 63.2294 41.3988 63.7438C43.9852 64.2583 46.6661 63.9943 49.1024 62.9851C51.5388 61.9759 53.6212 60.267 55.0863 58.0743C56.5513 55.8817 57.3333 53.3038 57.3333 50.6667C57.3291 47.1318 55.923 43.7428 53.4235 41.2432C50.9239 38.7437 47.5349 37.3376 44 37.3334ZM49.8925 43.5959L51.0708 42.4167C51.2272 42.2603 51.4393 42.1725 51.6604 42.1725C51.8816 42.1725 52.0936 42.2603 52.25 42.4167C52.4064 42.5731 52.4942 42.7852 52.4942 43.0063C52.4942 43.2274 52.4064 43.4395 52.25 43.5959L51.0717 44.7742C50.9948 44.8538 50.9028 44.9173 50.8012 44.961C50.6995 45.0046 50.5901 45.0276 50.4795 45.0286C50.3688 45.0295 50.2591 45.0085 50.1567 44.9666C50.0543 44.9247 49.9612 44.8628 49.883 44.7845C49.8048 44.7063 49.7429 44.6132 49.701 44.5108C49.6591 44.4084 49.638 44.2987 49.639 44.188C49.6399 44.0774 49.6629 43.968 49.7066 43.8664C49.7503 43.7647 49.8129 43.6727 49.8925 43.5959ZM43.1667 39.8334C43.1667 39.6124 43.2545 39.4004 43.4107 39.2441C43.567 39.0878 43.779 39 44 39C44.221 39 44.433 39.0878 44.5893 39.2441C44.7455 39.4004 44.8333 39.6124 44.8333 39.8334V41.5C44.8333 41.7211 44.7455 41.933 44.5893 42.0893C44.433 42.2456 44.221 42.3334 44 42.3334C43.779 42.3334 43.567 42.2456 43.4107 42.0893C43.2545 41.933 43.1667 41.7211 43.1667 41.5V39.8334ZM34.8333 51.5H33.1667C32.9456 51.5 32.7337 51.4122 32.5774 51.256C32.4211 51.0997 32.3333 50.8877 32.3333 50.6667C32.3333 50.4457 32.4211 50.2337 32.5774 50.0775C32.7337 49.9212 32.9456 49.8334 33.1667 49.8334H34.8333C35.0543 49.8334 35.2663 49.9212 35.4226 50.0775C35.5789 50.2337 35.6667 50.4457 35.6667 50.6667C35.6667 50.8877 35.5789 51.0997 35.4226 51.256C35.2663 51.4122 35.0543 51.5 34.8333 51.5ZM38.1075 57.7375L36.9292 58.9167C36.7728 59.0731 36.5607 59.1609 36.3396 59.1609C36.1184 59.1609 35.9064 59.0731 35.75 58.9167C35.5936 58.7603 35.5058 58.5483 35.5058 58.3271C35.5058 58.106 35.5936 57.8939 35.75 57.7375L36.9283 56.5592C37.0052 56.4796 37.0972 56.4161 37.1988 56.3725C37.3005 56.3288 37.4098 56.3058 37.5205 56.3048C37.6311 56.3039 37.7409 56.325 37.8433 56.3669C37.9457 56.4088 38.0387 56.4706 38.117 56.5489C38.1952 56.6271 38.2571 56.7202 38.299 56.8226C38.3409 56.925 38.362 57.0347 38.361 57.1454C38.3601 57.256 38.3371 57.3654 38.2934 57.467C38.2497 57.5687 38.1863 57.6607 38.1067 57.7375H38.1075ZM38.1075 44.7742C37.9512 44.9304 37.7393 45.0182 37.5183 45.0182C37.2974 45.0182 37.0854 44.9304 36.9292 44.7742L35.75 43.5959C35.5936 43.4395 35.5058 43.2274 35.5058 43.0063C35.5058 42.7852 35.5936 42.5731 35.75 42.4167C35.9064 42.2603 36.1184 42.1725 36.3396 42.1725C36.5607 42.1725 36.7728 42.2603 36.9292 42.4167L38.1075 43.595C38.185 43.6724 38.2464 43.7643 38.2884 43.8655C38.3303 43.9667 38.3519 44.0751 38.3519 44.1846C38.3519 44.2941 38.3303 44.4026 38.2884 44.5037C38.2464 44.6049 38.185 44.6968 38.1075 44.7742ZM44.8333 61.5C44.8333 61.7211 44.7455 61.933 44.5893 62.0893C44.433 62.2456 44.221 62.3334 44 62.3334C43.779 62.3334 43.567 62.2456 43.4107 62.0893C43.2545 61.933 43.1667 61.7211 43.1667 61.5V59.8334C43.1667 59.6124 43.2545 59.4004 43.4107 59.2441C43.567 59.0878 43.779 59 44 59C44.221 59 44.433 59.0878 44.5893 59.2441C44.7455 59.4004 44.8333 59.6124 44.8333 59.8334V61.5ZM47.29 51.7634C47.22 51.9728 47.0698 52.1459 46.8723 52.2446C46.6748 52.3434 46.4462 52.3597 46.2367 52.29L43.7367 51.4567C43.5708 51.4015 43.4265 51.2955 43.3242 51.1537C43.2219 51.0119 43.1668 50.8415 43.1667 50.6667V44.8334C43.1667 44.6124 43.2545 44.4004 43.4107 44.2441C43.567 44.0878 43.779 44 44 44C44.221 44 44.433 44.0878 44.5893 44.2441C44.7455 44.4004 44.8333 44.6124 44.8333 44.8334V50.0659L46.7633 50.71C46.9728 50.78 47.1458 50.9302 47.2446 51.1277C47.3433 51.3252 47.3597 51.5539 47.29 51.7634ZM52.25 58.9167C52.0937 59.0729 51.8818 59.1607 51.6608 59.1607C51.4399 59.1607 51.2279 59.0729 51.0717 58.9167L49.8933 57.7384C49.7415 57.5812 49.6575 57.3707 49.6594 57.1522C49.6613 56.9337 49.749 56.7247 49.9035 56.5702C50.058 56.4157 50.267 56.328 50.4855 56.3261C50.704 56.3242 50.9145 56.4082 51.0717 56.56L52.25 57.7375C52.3275 57.8149 52.3889 57.9068 52.4309 58.008C52.4728 58.1092 52.4944 58.2176 52.4944 58.3271C52.4944 58.4366 52.4728 58.5451 52.4309 58.6462C52.3889 58.7474 52.3275 58.8393 52.25 58.9167ZM54.8333 51.5H53.1667C52.9457 51.5 52.7337 51.4122 52.5774 51.256C52.4211 51.0997 52.3333 50.8877 52.3333 50.6667C52.3333 50.4457 52.4211 50.2337 52.5774 50.0775C52.7337 49.9212 52.9457 49.8334 53.1667 49.8334H54.8333C55.0543 49.8334 55.2663 49.9212 55.4226 50.0775C55.5789 50.2337 55.6667 50.4457 55.6667 50.6667C55.6667 50.8877 55.5789 51.0997 55.4226 51.256C55.2663 51.4122 55.0543 51.5 54.8333 51.5Z" fill="white"></path><path d="M25.3075 30.6667H27.3333C27.5543 30.6667 27.7663 30.7545 27.9226 30.9108C28.0789 31.0671 28.1667 31.279 28.1667 31.5V41.4417C29.0702 39.8988 30.193 38.4952 31.5 37.275V31.5C31.5 31.279 31.5878 31.0671 31.7441 30.9108C31.9004 30.7545 32.1123 30.6667 32.3333 30.6667H34.3592C34.4475 30.667 34.5341 30.6414 34.6081 30.5931C34.6821 30.5449 34.7404 30.476 34.7758 30.395C34.8198 30.3074 34.8379 30.2092 34.8282 30.1116C34.8184 30.0141 34.7812 29.9214 34.7208 29.8442L30.1883 24.1775C30.1471 24.1215 30.0933 24.076 30.0313 24.0447C29.9693 24.0133 29.9008 23.9969 29.8312 23.9969C29.7617 23.9969 29.6932 24.0133 29.6312 24.0447C29.5691 24.076 29.5154 24.1215 29.4742 24.1775L24.94 29.8442C24.8799 29.9212 24.8429 30.0137 24.8333 30.1109C24.8237 30.2082 24.8419 30.3061 24.8858 30.3934C24.9213 30.4754 24.9803 30.5452 25.0553 30.5938C25.1304 30.6424 25.2181 30.6678 25.3075 30.6667Z" fill="white"></path><path d="M63.1117 30.395C63.1556 30.3074 63.1737 30.2092 63.164 30.1116C63.1543 30.0141 63.117 29.9214 63.0567 29.8442L58.5242 24.1775C58.483 24.1215 58.4292 24.076 58.3672 24.0447C58.3051 24.0133 58.2366 23.9969 58.1671 23.9969C58.0976 23.9969 58.029 24.0133 57.967 24.0447C57.905 24.076 57.8512 24.1215 57.81 24.1775L53.2758 29.8442C53.2157 29.9212 53.1787 30.0137 53.1691 30.1109C53.1595 30.2082 53.1778 30.3061 53.2217 30.3934C53.2571 30.4743 53.3154 30.5432 53.3894 30.5915C53.4634 30.6397 53.55 30.6653 53.6383 30.665H55.6667C55.8877 30.665 56.0996 30.7528 56.2559 30.9091C56.4122 31.0654 56.5 31.2774 56.5 31.4984V37.2709C57.807 38.4911 58.9298 39.8946 59.8333 41.4375V31.5C59.8333 31.279 59.9211 31.0671 60.0774 30.9108C60.2337 30.7545 60.4456 30.6667 60.6667 30.6667H62.6925C62.7813 30.6675 62.8684 30.6421 62.9429 30.5938C63.0174 30.5455 63.0761 30.4764 63.1117 30.395Z" fill="white"></path><path d="M44 34C40.7036 34 37.4813 34.9775 34.7405 36.8088C31.9997 38.6402 29.8635 41.2432 28.602 44.2886C27.3405 47.334 27.0105 50.6852 27.6536 53.9182C28.2967 57.1512 29.884 60.1209 32.2149 62.4518C34.5458 64.7827 37.5155 66.37 40.7485 67.0131C43.9815 67.6562 47.3326 67.3261 50.3781 66.0647C53.4235 64.8032 56.0265 62.667 57.8578 59.9262C59.6892 57.1854 60.6667 53.963 60.6667 50.6667C60.6616 46.2479 58.904 42.0117 55.7795 38.8872C52.655 35.7626 48.4187 34.0051 44 34ZM44 65.6667C41.0333 65.6667 38.1332 64.7869 35.6664 63.1387C33.1997 61.4905 31.2771 59.1478 30.1418 56.4069C29.0065 53.666 28.7094 50.65 29.2882 47.7403C29.867 44.8306 31.2956 42.1579 33.3934 40.0601C35.4912 37.9623 38.1639 36.5337 41.0736 35.9549C43.9834 35.3761 46.9994 35.6732 49.7402 36.8085C52.4811 37.9438 54.8238 39.8664 56.472 42.3331C58.1203 44.7999 59 47.6999 59 50.6667C58.9954 54.6435 57.4135 58.4561 54.6015 61.2682C51.7894 64.0802 47.9768 65.662 44 65.6667Z" fill="white"></path><path d="M44 32.3333C44.5625 32.3333 45.1175 32.3625 45.6667 32.4125V28.1667C45.6667 27.9457 45.7545 27.7337 45.9107 27.5774C46.067 27.4211 46.279 27.3333 46.5 27.3333H48.525C48.6133 27.3334 48.6997 27.3077 48.7737 27.2595C48.8477 27.2113 48.9061 27.1425 48.9417 27.0617C48.9858 26.9743 49.0042 26.8762 48.9946 26.7788C48.985 26.6814 48.9479 26.5887 48.8875 26.5117L44.355 20.845C44.3138 20.789 44.26 20.7435 44.198 20.7121C44.136 20.6808 44.0674 20.6644 43.9979 20.6644C43.9284 20.6644 43.8599 20.6808 43.7978 20.7121C43.7358 20.7435 43.682 20.789 43.6408 20.845L39.1067 26.5117C39.0466 26.5886 39.0096 26.681 39.0002 26.7781C38.9908 26.8752 39.0092 26.973 39.0533 27.06C39.0889 27.1409 39.1473 27.2096 39.2212 27.2578C39.2952 27.3061 39.3817 27.3317 39.47 27.3317H41.5C41.721 27.3317 41.933 27.4195 42.0892 27.5758C42.2455 27.732 42.3333 27.944 42.3333 28.165V32.4167C42.8825 32.3625 43.4375 32.3333 44 32.3333Z" fill="white"></path><defs><linearGradient id="paint0_linear_6_208" x1="44" y1="0" x2="44" y2="88" gradientUnits="userSpaceOnUse"><stop stop-color="#FF7382"></stop><stop offset="1" stop-color="#FF4E9E"></stop></linearGradient></defs></svg>