<svg xmlns="http://www.w3.org/2000/svg" width="110" height="110" viewBox="0 0 110 110" fill="none"><path d="M55 110C85.3756 110 110 85.3757 110 55C110 24.6243 85.3756 0 55 0C24.6243 0 0 24.6243 0 55C0 85.3757 24.6243 110 55 110Z" fill="white"></path><path d="M55.039 101C80.4441 101 101.03 80.4051 101.02 55C101.009 29.5949 80.4051 9 55 9C29.5949 9 9.00874 29.5949 9.01953 55C9.03032 80.4051 29.6339 101 55.039 101Z" fill="#7B3DD9"></path><path d="M47.5036 68.8862C47.3822 68.6181 44.2118 61.2768 44.0033 60.793C43.9069 60.4137 43.7303 60.0594 43.4853 59.754C43.2404 59.4487 42.9329 59.1994 42.5834 59.023C42.234 58.8466 41.8508 58.7471 41.4597 58.7313C41.0686 58.7156 40.6786 58.7838 40.3161 58.9315L37.0602 60.3402C36.1801 60.7203 35.4868 61.434 35.1324 62.3247C34.778 63.2154 34.7915 64.2104 35.1699 65.0912L38.1096 71.8905C38.2975 72.3264 38.5696 72.721 38.9102 73.0516C39.2508 73.3822 39.6532 73.6425 40.0945 73.8174C40.5358 73.9923 41.0072 74.0785 41.4819 74.071C41.9565 74.0635 42.425 73.9624 42.8605 73.7737L46.1164 72.3721C46.7615 72.0924 47.2696 71.5687 47.5295 70.9154C47.7895 70.2622 47.7802 69.5326 47.5036 68.8862ZM72.9402 60.3402L69.6842 58.9315C69.3217 58.7838 68.9318 58.7156 68.5407 58.7313C68.1496 58.7471 67.7664 58.8466 67.4169 59.023C67.0675 59.1994 66.76 59.4487 66.515 59.754C66.2701 60.0594 66.0935 60.4137 65.9971 60.793C65.7735 61.3134 62.6362 68.5785 62.4967 68.8862C62.2208 69.5326 62.2118 70.262 62.4717 70.9151C62.7316 71.5682 63.2393 72.092 63.8839 72.3721L67.1399 73.7737C67.5754 73.9624 68.0439 74.0635 68.5185 74.071C68.9931 74.0785 69.4646 73.9923 69.9059 73.8174C70.3472 73.6425 70.7496 73.3822 71.0902 73.0516C71.4308 72.721 71.7029 72.3264 71.8908 71.8905L74.8305 65.0912C75.2089 64.2104 75.2224 63.2154 74.868 62.3247C74.5136 61.434 73.8203 60.7203 72.9402 60.3402ZM64.9046 59.7005C65.1238 59.1995 65.4444 58.7492 65.8461 58.378C65.7124 58.0057 65.7002 57.6006 65.8113 57.2209C65.9223 56.8412 66.151 56.5065 66.4643 56.2649C69.1208 53.3964 69.1653 48.6713 67.3843 45.1171C66.3147 43.0169 65.3488 41.427 64.6314 40.2368C61.9958 35.8129 55.7606 35.9128 54.9714 35.9315C54.2527 35.9027 47.9564 35.8452 45.3689 40.2368C44.3872 41.8266 43.4689 43.4546 42.6161 45.1171C40.8336 48.6692 40.8796 53.3978 43.5361 56.2649C43.8649 56.5195 44.1 56.8759 44.2046 57.2784C44.2862 57.6428 44.2688 58.0225 44.1543 58.378C44.5667 58.7614 44.8947 59.2265 45.1174 59.7437L48.5458 67.6859C48.7707 68.2485 48.9603 68.8246 49.1136 69.4109C50.1558 70.1296 52.4342 71.6174 54.4539 71.6174C54.8175 71.5877 55.1829 71.5877 55.5464 71.6174C57.5661 71.6174 59.8446 70.1296 60.8867 69.4109C60.9946 68.2249 64.4539 60.9605 64.9046 59.7005ZM48.1433 54.3171C47.6913 54.3938 47.228 54.3719 46.7852 54.253C46.3424 54.1341 45.9305 53.921 45.5777 53.6282C45.2249 53.3354 44.9394 52.9699 44.7409 52.5566C44.5424 52.1434 44.4354 51.6921 44.4274 51.2337V48.718C44.4274 48.0388 44.6967 47.3872 45.1764 46.9062C45.656 46.4252 46.3068 46.154 46.9861 46.1521H51.3849C51.6913 46.1544 51.9941 46.219 52.2747 46.3422C52.5553 46.4653 52.8079 46.6443 53.0171 46.8683C53.2263 47.0922 53.3876 47.3564 53.4913 47.6448C53.595 47.9332 53.6388 48.2397 53.6202 48.5455C53.4578 51.4076 51.1642 54.32 48.1433 54.3171ZM54.8133 67.6355C53.445 67.6342 52.1332 67.0901 51.1657 66.1226C50.1982 65.155 49.654 63.8432 49.6527 62.4749C49.8942 55.6446 59.7339 55.6468 59.9739 62.4749C59.9726 63.8432 59.4285 65.155 58.461 66.1226C57.4934 67.0901 56.1816 67.6342 54.8133 67.6355ZM62.0799 54.3171C60.8271 54.431 59.5756 54.0862 58.558 53.3468C56.3514 51.9071 54.2189 46.5618 58.2058 46.1521H62.6046C63.2838 46.154 63.9347 46.4252 64.4143 46.9062C64.894 47.3872 65.1633 48.0388 65.1633 48.718V51.2337C65.1633 52.0514 64.8384 52.8357 64.2602 53.414C63.6819 53.9922 62.8977 54.3171 62.0799 54.3171Z" fill="white"></path><path d="M54.8132 58.7516C49.8926 58.9047 49.8933 66.0411 54.8132 66.1978C59.7345 66.0397 59.7323 58.9039 54.8132 58.7516ZM54.8132 59.5997C55.0991 59.5997 55.3734 59.7133 55.5755 59.9155C55.7777 60.1176 55.8913 60.3919 55.8913 60.6778C55.8913 60.9637 55.7777 61.238 55.5755 61.4402C55.3734 61.6423 55.0991 61.7559 54.8132 61.7559C54.5273 61.7559 54.253 61.6423 54.0508 61.4402C53.8487 61.238 53.7351 60.9637 53.7351 60.6778C53.7351 60.3919 53.8487 60.1176 54.0508 59.9155C54.253 59.7133 54.5273 59.5997 54.8132 59.5997ZM51.9382 62.4747C51.9382 62.1888 52.0518 61.9145 52.254 61.7123C52.4562 61.5101 52.7304 61.3966 53.0163 61.3966C53.3023 61.3966 53.5765 61.5101 53.7787 61.7123C53.9809 61.9145 54.0944 62.1888 54.0944 62.4747C54.0944 62.7606 53.9809 63.0348 53.7787 63.237C53.5765 63.4392 53.3023 63.5528 53.0163 63.5528C52.7304 63.5528 52.4562 63.4392 52.254 63.237C52.0518 63.0348 51.9382 62.7606 51.9382 62.4747ZM54.8132 65.3497C54.5273 65.3497 54.253 65.2361 54.0508 65.0339C53.8487 64.8317 53.7351 64.5575 53.7351 64.2716C53.7351 63.9856 53.8487 63.7114 54.0508 63.5092C54.253 63.307 54.5273 63.1934 54.8132 63.1934C55.0991 63.1934 55.3734 63.307 55.5755 63.5092C55.7777 63.7114 55.8913 63.9856 55.8913 64.2716C55.8913 64.5575 55.7777 64.8317 55.5755 65.0339C55.3734 65.2361 55.0991 65.3497 54.8132 65.3497ZM56.6101 63.5528C56.3241 63.5528 56.0499 63.4392 55.8477 63.237C55.6455 63.0348 55.5319 62.7606 55.5319 62.4747C55.5319 62.1888 55.6455 61.9145 55.8477 61.7123C56.0499 61.5101 56.3241 61.3966 56.6101 61.3966C56.896 61.3966 57.1702 61.5101 57.3724 61.7123C57.5746 61.9145 57.6882 62.1888 57.6882 62.4747C57.6882 62.7606 57.5746 63.0348 57.3724 63.237C57.1702 63.4392 56.896 63.5528 56.6101 63.5528ZM62.6044 47.5894H58.2057C58.0948 47.5886 57.985 47.6113 57.8834 47.6559C57.7818 47.7005 57.6908 47.766 57.6163 47.8481C57.5409 47.9286 57.4829 48.0237 57.4458 48.1276C57.4087 48.2315 57.3934 48.3418 57.4007 48.4519C57.5337 50.5779 59.1645 52.8564 61.4401 52.8794H62.0798C62.5159 52.8782 62.9339 52.7045 63.2423 52.396C63.5508 52.0876 63.7246 51.6696 63.7257 51.2334V48.7178C63.7263 48.5701 63.6977 48.4237 63.6416 48.287C63.5856 48.1503 63.5031 48.026 63.399 47.9212C63.2949 47.8164 63.1711 47.7331 63.0347 47.6762C62.8984 47.6192 62.7522 47.5898 62.6044 47.5894ZM51.9741 47.8481C51.8987 47.7671 51.8075 47.7024 51.7062 47.6579C51.6048 47.6134 51.4954 47.5901 51.3848 47.5894H46.986C46.8383 47.5898 46.692 47.6192 46.5557 47.6762C46.4194 47.7331 46.2956 47.8164 46.1915 47.9212C46.0873 48.026 46.0049 48.1503 45.9488 48.287C45.8927 48.4237 45.8642 48.5701 45.8648 48.7178V51.2334C45.8644 51.6688 46.0367 52.0866 46.3439 52.3952C46.6511 52.7037 47.0681 52.8779 47.5035 52.8794H48.1432C50.4216 52.8578 52.0518 50.5815 52.1898 48.4519C52.1971 48.3418 52.1817 48.2315 52.1446 48.1276C52.1075 48.0237 52.0495 47.9286 51.9741 47.8481Z" fill="white"></path></svg>