<svg xmlns="http://www.w3.org/2000/svg" width="93" height="93" viewBox="0 0 93 93" fill="none"><circle cx="46.5529" cy="46.6826" r="46" fill="white"></circle><circle cx="46.5529" cy="46.6826" r="36" fill="url(#paint0_linear_7_1231)"></circle><path fill-rule="evenodd" clip-rule="evenodd" d="M40.1425 35.0117C40.3981 35.1491 40.4938 35.4677 40.3564 35.7233C40.219 35.9789 39.9004 36.0746 39.6448 35.9372C39.1517 35.6713 38.3698 35.4801 37.7939 35.6077C36.9532 35.7939 36.6517 36.4887 37.4789 36.9002C37.9679 37.1434 38.5936 36.9364 39.3755 37.3198L39.3758 37.3191C39.988 37.6312 40.3897 38.1346 40.4268 38.8136C40.4279 38.8344 40.4278 38.855 40.4265 38.8753H40.4268C40.3657 39.8463 39.5667 40.4274 38.6967 40.5882V40.8868C38.6967 41.1776 38.461 41.4134 38.1702 41.4134C37.8794 41.4134 37.6437 41.1776 37.6437 40.8868V40.5977C37.1417 40.5324 36.6564 40.3796 36.1975 40.1426C35.9396 40.0097 35.8384 39.6929 35.9712 39.4351C36.1041 39.1772 36.4209 39.076 36.6787 39.2089C37.2591 39.5083 38.2416 39.7598 38.9048 39.4259C39.5165 39.1198 39.5427 38.5853 38.8987 38.257L38.8989 38.2566C38.317 37.9895 37.92 38.231 37.0352 37.8505C36.7222 37.7159 36.4043 37.4388 36.2388 37.2107C35.8365 36.6561 35.8459 35.9317 36.2453 35.3813C36.5547 34.9548 37.1035 34.6703 37.6437 34.5679V34.2634C37.6437 33.9726 37.8794 33.7368 38.1702 33.7368C38.461 33.7368 38.6967 33.9726 38.6967 34.2634V34.5513C39.2193 34.6202 39.7334 34.7903 40.1425 35.0117ZM57.9059 59.0886C58.1676 59.0886 58.3798 59.3008 58.3798 59.5626C58.3798 59.8243 58.1676 60.0365 57.9059 60.0365H32.6071C32.3454 60.0365 32.1331 59.8243 32.1331 59.5626C32.1331 59.3008 32.3454 59.0886 32.6071 59.0886H35.3886V55.0592C35.3886 54.9132 35.5076 54.7942 35.6536 54.7942H38.5674C38.7133 54.7942 38.8323 54.9132 38.8323 55.0592V59.0886H40.8191V47.2443C40.8191 47.0984 40.9382 46.9794 41.0841 46.9794H43.998C44.1439 46.9794 44.2629 47.0984 44.2629 47.2443V59.0886H46.2497V51.6154C46.2497 51.4694 46.3687 51.3504 46.5147 51.3504H49.4285C49.5745 51.3504 49.6935 51.4695 49.6935 51.6154V59.0886H51.6803V43.933C51.6803 43.787 51.7993 43.668 51.9452 43.668H54.859C55.005 43.668 55.124 43.7871 55.124 43.933V59.0886H57.9059ZM55.1243 35.3351C55.3861 35.3351 55.5983 35.5473 55.5983 35.809C55.5983 36.0708 55.3861 36.283 55.1243 36.283H49.1742C48.9125 36.283 48.7002 36.0708 48.7002 35.809C48.7002 35.5473 48.9125 35.3351 49.1742 35.3351H55.1243ZM55.1243 39.2646C55.3861 39.2646 55.5983 39.4768 55.5983 39.7386C55.5983 40.0003 55.3861 40.2125 55.1243 40.2125H50.9063C50.6446 40.2125 50.4324 40.0003 50.4324 39.7386C50.4324 39.4768 50.6446 39.2646 50.9063 39.2646H55.1243ZM55.1243 31.4056C55.3861 31.4056 55.5983 31.6179 55.5983 31.8796C55.5983 32.1413 55.3861 32.3536 55.1243 32.3536H47.442C47.1803 32.3536 46.968 32.1413 46.968 31.8796C46.968 31.6179 47.1803 31.4056 47.442 31.4056H55.1243ZM38.2338 29.2307C38.1988 29.2304 38.1701 29.2586 38.1701 29.2941V31.8168C38.1701 31.8513 38.1981 31.8796 38.2326 31.8799C41.3286 31.9133 43.832 34.4167 43.8653 37.5126C43.8657 37.5472 43.8939 37.5751 43.9285 37.5751H46.4512C46.4864 37.5751 46.5148 37.5466 46.5145 37.5114C46.4805 32.9533 42.7919 29.2648 38.2338 29.2307ZM45.6516 38.5946C45.6567 38.5565 45.6273 38.5229 45.5889 38.5229H43.8398C43.809 38.5229 43.7831 38.5447 43.7777 38.5751C43.305 41.2437 40.9744 43.2706 38.1701 43.2706C36.6198 43.2706 35.2142 42.6512 34.1872 41.6463C34.1625 41.6222 34.1228 41.6224 34.0984 41.6468L32.8764 42.8687C32.8515 42.8937 32.8517 42.9338 32.8768 42.9585C34.2393 44.2984 36.1082 45.125 38.1701 45.125C41.994 45.125 45.1538 42.2821 45.6516 38.5946ZM32.1595 42.1438C32.1827 42.1743 32.2273 42.1774 32.2544 42.1503L33.4908 40.9139C33.5126 40.8921 33.5155 40.8584 33.4979 40.8331C32.853 39.9099 32.4746 38.7867 32.4746 37.5751C32.4746 34.7707 34.5015 32.4402 37.17 31.9675C37.2005 31.9621 37.2222 31.9363 37.2222 31.9053V30.1563C37.2222 30.1178 37.1886 30.0884 37.1505 30.0936C33.4631 30.5914 30.6202 33.7512 30.6202 37.5751C30.6202 39.2923 31.1939 40.8754 32.1595 42.1438Z" fill="white"></path><defs><linearGradient id="paint0_linear_7_1231" x1="46.5529" y1="10.6826" x2="46.5529" y2="82.6826" gradientUnits="userSpaceOnUse"><stop stop-color="#B1E847"></stop><stop offset="1" stop-color="#75C644"></stop></linearGradient></defs></svg>