<svg xmlns="http://www.w3.org/2000/svg" width="110" height="110" viewBox="0 0 110 110" fill="none"><path d="M55 110C85.3756 110 110 85.3757 110 55C110 24.6243 85.3756 0 55 0C24.6243 0 0 24.6243 0 55C0 85.3757 24.6243 110 55 110Z" fill="white"></path><path d="M55.039 101C80.4441 101 101.03 80.4051 101.02 55C101.009 29.5949 80.4051 9 55 9C29.5949 9 9.00874 29.5949 9.01953 55C9.03032 80.4051 29.6339 101 55.039 101Z" fill="#7B3DD9"></path><path d="M73.9453 35.957H71.0156V30H68.0859V35.957H65.1562V47.6758H68.0859V80H71.0156V47.6758H73.9453V35.957ZM35.8594 30H32.9297V62.3242H30V74.043H32.9297V80H35.8594V74.043H38.7891V62.3242H35.8594V30ZM47.5781 30H44.6484V44.7461H41.7188V56.4648H44.6484V80H47.5781V56.4648H50.5078V44.7461H47.5781V30ZM59.2969 30H56.3672V53.5352H53.4375V65.2539H56.3672V80H59.2969V65.2539H62.2266V53.5352H59.2969V30Z" fill="white"></path></svg>