<svg xmlns="http://www.w3.org/2000/svg" width="71" height="71" viewBox="0 0 71 71" fill="none"><g clip-path="url(#clip0_357_2433)"><path fill-rule="evenodd" clip-rule="evenodd" d="M31.1666 62.0256H69.1569C69.5476 62.0256 69.8663 62.3442 69.8663 62.7349V68.3456C69.8663 68.7363 69.5476 69.0549 69.1569 69.0549H31.1666C30.9786 69.0546 30.7984 68.9797 30.6654 68.8468C30.5325 68.7138 30.4576 68.5336 30.4572 68.3456V62.7349C30.4572 62.3442 30.7759 62.0256 31.1666 62.0256ZM19.0065 50.8862L26.565 63.978C28.138 66.7022 26.1533 70.048 23.0633 70.048H4.83371C1.77173 70.048 -0.255734 66.7318 1.33193 63.9818C3.85296 59.6154 6.36987 55.2519 8.89047 50.8862C9.08257 50.5537 9.16386 50.2395 9.16386 49.856V42.0351C8.28398 41.7119 7.69238 40.8715 7.69238 39.9293V38.6729C7.69238 37.4367 8.69852 36.4306 9.93478 36.4306H17.9626C19.1989 36.4306 20.205 37.4367 20.205 38.6729V39.9293C20.205 40.8714 19.6134 41.7119 18.7335 42.0351V49.856C18.7333 50.2396 18.8144 50.5537 19.0065 50.8862ZM20.7094 57.7986L17.2919 51.8793C16.9253 51.2445 16.7469 50.5896 16.7469 49.856V42.1717H11.1499V49.856C11.1499 50.5893 10.9716 51.2446 10.605 51.8793L7.69877 56.9129C12.4602 55.6959 14.6237 60.0286 20.7094 57.7986ZM29.0973 50.7586H49.5477C49.9384 50.7586 50.257 51.0772 50.257 51.4679V55.5132C50.257 55.9039 49.9384 56.2225 49.5477 56.2225H29.0973C28.9093 56.2222 28.7291 56.1473 28.5961 56.0144C28.4632 55.8814 28.3883 55.7012 28.3879 55.5132V51.4679C28.3879 51.0772 28.7066 50.7586 29.0973 50.7586ZM52.8216 14.4251C55.6374 14.4251 57.9201 16.7078 57.9201 19.5236C57.9201 22.3395 55.6374 24.6222 52.8216 24.6222C50.0058 24.6222 47.7231 22.3395 47.7231 19.5236C47.7231 16.7078 50.0058 14.4251 52.8216 14.4251ZM52.8216 17.9514C51.9534 17.9514 51.2495 18.6553 51.2495 19.5235C51.2495 20.3917 51.9534 21.0956 52.8216 21.0956C53.6899 21.0956 54.3937 20.3917 54.3937 19.5235C54.3937 18.6553 53.6899 17.9514 52.8216 17.9514ZM66.0046 60.0395C73.5042 46.0641 68.0752 33.1551 58.9508 23.0783C57.9181 24.8551 56.1351 26.1414 54.0357 26.5041C59.6837 39.8418 58.8525 50.5509 51.4812 60.0395H66.0046ZM44.4348 58.2087V60.0394H34.2101V58.2087H44.4348ZM49.2651 6.64668C49.1021 6.553 48.9086 6.52772 48.727 6.57638C48.5454 6.62504 48.3904 6.74367 48.2961 6.9063L37.5976 25.4368C37.5039 25.5998 37.4786 25.7933 37.5273 25.9749C37.5759 26.1565 37.6945 26.3114 37.8572 26.4057L45.4861 30.8104C45.6491 30.9041 45.8426 30.9293 46.0242 30.8807C46.2058 30.832 46.3607 30.7134 46.4551 30.5508L49.2788 25.6599C47.1616 24.4349 45.7371 22.1457 45.7371 19.5236C45.7371 15.6109 48.909 12.4391 52.8216 12.4391C54.0655 12.4372 55.2878 12.7643 56.3644 13.3873L57.1536 12.0204C57.2473 11.8574 57.2726 11.6639 57.2239 11.4823C57.1752 11.3007 57.0566 11.1458 56.894 11.0515L49.2651 6.64668ZM54.6093 1.31209L58.8417 3.75566C59.0043 3.84999 59.123 4.00492 59.1716 4.18653C59.2203 4.36813 59.195 4.56162 59.1013 4.72463L56.803 8.70535L51.3419 5.55244L53.6402 1.57157C53.7346 1.40895 53.8895 1.29035 54.0712 1.24172C54.2528 1.19309 54.4463 1.21839 54.6093 1.31209ZM43.4091 31.9045L42.4992 33.4805C42.4048 33.6431 42.2499 33.7618 42.0683 33.8104C41.8867 33.8591 41.6932 33.8338 41.5302 33.7401L37.2978 31.2964C37.1352 31.2021 37.0165 31.0472 36.9679 30.8656C36.9192 30.684 36.9445 30.4905 37.0382 30.3275L37.948 28.7516L43.4091 31.9045Z" fill="#FFB200"></path></g><defs><clipPath id="clip0_357_2433"><rect width="70" height="70" fill="white" transform="translate(0.714844 0.863525)"></rect></clipPath></defs></svg>