<?xml version="1.0" encoding="UTF-8"?>
<svg xmlns="http://www.w3.org/2000/svg" width="93" height="93" viewBox="0 0 93 93" fill="none">
  <circle cx="46.5527" cy="46.6826" r="46" fill="white"></circle>
  <circle cx="46.5527" cy="46.6826" r="36" fill="url(#paint0_linear_1074_203)"></circle>
  <path d="M62.7398 43.4981H56.951V38.4365C56.951 37.9397 57.3542 37.5293 57.851 37.5293H58.6646C58.7844 38.043 59.0744 38.5011 59.4875 38.8291C59.9005 39.1572 60.4123 39.336 60.9398 39.3365C62.2286 39.3365 63.2798 38.2853 63.2798 36.9893C63.2798 35.7005 62.2286 34.6493 60.9398 34.6493C60.4134 34.6497 59.9024 34.8275 59.4896 35.1542C59.0767 35.4808 58.7861 35.9371 58.6646 36.4493H57.851C56.7566 36.4493 55.871 37.3421 55.871 38.4365V43.4981H54.3446V41.1005C54.3446 40.9573 54.2877 40.8199 54.1864 40.7187C54.0852 40.6174 53.9478 40.5605 53.8046 40.5605C53.6614 40.5605 53.524 40.6174 53.4228 40.7187C53.3215 40.8199 53.2646 40.9573 53.2646 41.1005V43.4981H51.7454V35.9669C51.7454 35.7293 51.839 35.4989 52.0118 35.3333L53.1134 34.2245C53.4374 34.3901 53.7974 34.4909 54.179 34.4909C55.475 34.4909 56.5262 33.4397 56.5262 32.1509C56.5262 30.8549 55.475 29.8037 54.179 29.8037C52.8902 29.8037 51.839 30.8549 51.839 32.1509C51.839 32.6621 52.0118 33.1373 52.2926 33.5189L51.2486 34.5629C50.8742 34.9373 50.6654 35.4413 50.6654 35.9669V43.4981H49.1462V40.0205C49.1462 39.8773 49.0893 39.7399 48.988 39.6387C48.8868 39.5374 48.7494 39.4805 48.6062 39.4805C48.463 39.4805 48.3256 39.5374 48.2244 39.6387C48.1231 39.7399 48.0662 39.8773 48.0662 40.0205V43.4981H46.5398V34.4909C47.5694 34.2389 48.347 33.3173 48.347 32.2157C48.347 30.9197 47.2958 29.8685 45.9998 29.8685C44.711 29.8685 43.6598 30.9197 43.6598 32.2157C43.6598 33.3173 44.4302 34.2389 45.4598 34.4909V43.4981H43.9406V40.0205C43.9406 39.8773 43.8837 39.7399 43.7824 39.6387C43.6812 39.5374 43.5438 39.4805 43.4006 39.4805C43.2574 39.4805 43.12 39.5374 43.0188 39.6387C42.9175 39.7399 42.8606 39.8773 42.8606 40.0205V43.4981H41.3342V35.9669C41.3342 35.4485 41.1254 34.9373 40.7582 34.5629L39.7142 33.5189C39.995 33.1373 40.1678 32.6621 40.1678 32.1509C40.1678 30.8549 39.1166 29.8037 37.8206 29.8037C36.5318 29.8037 35.4806 30.8549 35.4806 32.1509C35.4806 33.4397 36.5318 34.4909 37.8206 34.4909C38.2094 34.4909 38.5694 34.3901 38.8862 34.2245L39.995 35.3261C40.1606 35.4989 40.2542 35.7293 40.2542 35.9669V43.4981H38.735V41.1005C38.735 40.8053 38.4902 40.5605 38.195 40.5605C37.8998 40.5605 37.655 40.8053 37.655 41.1005V43.4981H36.1358V38.4365C36.1358 37.3421 35.243 36.4493 34.1486 36.4493H33.3422C33.2198 35.9376 32.9289 35.4819 32.5162 35.1554C32.1036 34.8289 31.5932 34.6507 31.067 34.6493C29.771 34.6493 28.7198 35.7005 28.7198 36.9893C28.7198 38.2853 29.771 39.3365 31.067 39.3365C32.1686 39.3365 33.0974 38.5661 33.3422 37.5293H34.1486C34.6454 37.5293 35.0558 37.9397 35.0558 38.4365V43.4981H29.2598C29.1886 43.4969 29.1178 43.5101 29.0518 43.5368C28.9857 43.5636 28.9257 43.6033 28.8754 43.6537C28.825 43.7041 28.7852 43.764 28.7585 43.8301C28.7318 43.8961 28.7186 43.9669 28.7198 44.0381V45.9533C28.7198 46.7237 29.267 47.3933 30.0158 47.5445L32.5286 48.0557C32.8742 49.5245 33.443 50.9069 34.2206 52.1669L32.8022 54.3053C32.3702 54.9461 32.4566 55.8029 33.0038 56.3501L34.5158 57.8693C35.063 58.4237 35.9054 58.5101 36.5534 58.0853L38.6918 56.6885C39.5702 57.2573 41.4278 58.0205 42.803 58.3661L43.3142 60.8861C43.4654 61.6421 44.1134 62.1821 44.8982 62.1893L47.0366 62.1965C47.8142 62.1965 48.4838 61.6565 48.635 60.9077L49.1534 58.3805C50.6078 58.0493 51.983 57.4805 53.2502 56.6885L55.3886 58.1141C56.0222 58.5389 56.8862 58.4525 57.4334 57.9125L58.9598 56.3861C59.4998 55.8533 59.5862 54.9965 59.1686 54.3485L57.7502 52.2101C58.5422 50.9429 59.1182 49.5677 59.4566 48.1133L61.9766 47.6021C62.3439 47.5276 62.6742 47.3286 62.9116 47.0387C63.1491 46.7487 63.2791 46.3857 63.2798 46.0109V44.0381C63.2798 43.7357 63.0422 43.4981 62.7398 43.4981ZM46.9646 51.7781C42.8728 52.3556 39.0806 49.2236 39.0806 44.9093C39.0806 44.7581 39.0568 44.9237 39.0878 44.5781H52.9046C52.9046 44.6861 52.919 44.7941 52.919 44.9093C52.919 48.4841 50.2543 51.3152 46.9646 51.7781Z" fill="white"></path>
  <defs>
    <linearGradient id="paint0_linear_1074_203" x1="46.5527" y1="10.6826" x2="46.5527" y2="82.6826" gradientUnits="userSpaceOnUse">
      <stop stop-color="#FFC182"></stop>
      <stop offset="1" stop-color="#FF792E"></stop>
    </linearGradient>
  </defs>
</svg>
