<svg xmlns="http://www.w3.org/2000/svg" width="100" height="100" viewBox="0 0 100 100" fill="none"><path d="M0 50C0 22.3858 22.3858 0 50 0C77.6142 0 100 22.3858 100 50C100 77.6142 77.6142 100 50 100C22.3858 100 0 77.6142 0 50Z" fill="url(#paint0_linear_956_3203)"></path><path d="M44.1919 28.4779L43.5585 29.7069C43.3881 30.0293 43.0587 30.2265 42.6962 30.2265H40.9789C40.3059 30.2265 39.7646 30.7656 39.7349 31.4367C39.7349 31.4388 39.7361 31.4405 39.7361 31.4426C39.7361 31.4636 39.7268 31.4817 39.7241 31.502V35.0181C39.7241 35.7155 40.287 36.283 40.9789 36.283H54.6582C55.35 36.283 55.9129 35.7155 55.9129 35.0181V31.4905C55.9129 30.7931 55.35 30.2265 54.6582 30.2265H52.9413C52.5797 30.2265 52.2499 30.0293 52.0813 29.7115L51.4466 28.4806C51.2425 28.078 50.8399 27.8302 50.394 27.8302H45.2431C44.7976 27.8302 44.395 28.078 44.1919 28.4779ZM53.9409 34.6698H42.0108C41.75 34.6698 41.5391 34.4588 41.5391 34.1981C41.5391 33.9374 41.75 33.7264 42.0108 33.7264H53.9409C54.2017 33.7264 54.4126 33.9374 54.4126 34.1981C54.4126 34.4588 54.2017 34.6698 53.9409 34.6698ZM53.9409 31.4859C54.2017 31.4859 54.4126 31.6968 54.4126 31.9576C54.4126 32.2183 54.2017 32.4293 53.9409 32.4293H42.0108C41.75 32.4293 41.5391 32.2183 41.5391 31.9576C41.5391 31.6968 41.75 31.4859 42.0108 31.4859H53.9409Z" fill="white"></path><path d="M52.9168 29.2739L54.658 29.2831C54.6706 29.2831 54.6822 29.2866 54.6946 29.2868L54.2789 28.4806C54.0749 28.078 53.6723 27.8302 53.2263 27.8302H52.1333C52.1836 27.9045 52.2448 27.9689 52.2862 28.0504L52.9168 29.2739ZM63.9568 31.9585C65.5558 33.0207 66.6131 34.8363 66.6131 36.8956V67.1976C66.6131 69.2529 65.5572 71.0647 63.9599 72.1253C66.4972 71.8984 68.4999 69.7886 68.4999 67.1976V36.8956C68.4999 34.2992 66.4956 32.1844 63.9568 31.9585Z" fill="white"></path><path d="M36.4809 72.1699H60.6886C63.435 72.1699 65.6696 69.9394 65.6696 67.1977V36.8957C65.6696 34.1493 63.435 31.9143 60.6886 31.9143H59.2169C59.2141 31.9143 59.2109 31.9143 59.2077 31.9143H56.8561V34.7445H60.2736C61.6882 34.7445 62.8394 35.8961 62.8394 37.3112V66.773C62.8394 68.1881 61.6882 69.3397 60.2736 69.3397H36.896C35.4813 69.3397 34.3302 68.1881 34.3302 66.773V37.3112C34.3302 35.8961 35.4813 34.7445 36.896 34.7445H38.7805V31.9143H36.4809C33.7346 31.9143 31.5 34.1493 31.5 36.8957V67.1977C31.5 69.9394 33.7346 72.1699 36.4809 72.1699Z" fill="white"></path><path d="M49.4026 47.1195L54.1597 51.9715C55.4039 50.5915 56.0838 48.83 56.0838 46.9597C56.0838 46.0864 55.9336 45.2323 55.6374 44.4142L49.4026 47.1195ZM57.4906 30.2264H56.455C56.6102 30.4481 56.7225 30.6999 56.7882 30.9708H58.6322C58.4406 30.5293 58.0045 30.2264 57.4906 30.2264ZM39.8682 64.6226H43.066C43.5188 64.6226 43.8869 64.2587 43.8869 63.811V60.6031C43.8869 60.1424 43.5262 59.7822 43.066 59.7822H39.8682C39.408 59.7822 39.0474 60.1424 39.0474 60.6031V63.811C39.0474 64.2587 39.4154 64.6226 39.8682 64.6226ZM40.3247 61.9067C40.509 61.7224 40.8075 61.7224 40.9917 61.9067L41.1723 62.0873L41.9425 61.3171C42.1268 61.1328 42.4253 61.1328 42.6095 61.3171C42.7938 61.5013 42.7938 61.7998 42.6095 61.9841L41.5058 63.0878C41.4137 63.1799 41.293 63.226 41.1723 63.226C41.0516 63.226 40.9309 63.1799 40.8388 63.0878L40.3247 62.5737C40.1405 62.3894 40.1405 62.0909 40.3247 61.9067ZM49.0567 46.2405L55.2607 43.5486C54.0557 41.1904 51.6964 39.642 49.0567 39.4761V46.2405Z" fill="white"></path><path d="M35.2739 37.3112V66.773C35.2739 67.6684 36.0017 68.3963 36.8963 68.3963H60.2739C61.1685 68.3963 61.8963 67.6684 61.8963 66.773V37.3112C61.8963 36.4157 61.1685 35.6879 60.2739 35.6879H56.7419C56.4576 36.577 55.6363 37.2264 54.6582 37.2264H40.979C40.0009 37.2264 39.1796 36.577 38.8953 35.6879H36.8963C36.0017 35.6879 35.2739 36.4157 35.2739 37.3112ZM53.5932 64.9737H47.3234C47.0627 64.9737 46.8517 64.7627 46.8517 64.502C46.8517 64.2413 47.0627 64.0303 47.3234 64.0303H53.5932C53.8539 64.0303 54.0649 64.2413 54.0649 64.502C54.0649 64.7627 53.8539 64.9737 53.5932 64.9737ZM54.6937 62.6742H47.3234C47.0627 62.6742 46.8517 62.4632 46.8517 62.2025C46.8517 61.9417 47.0627 61.7308 47.3234 61.7308H54.6937C54.9544 61.7308 55.1654 61.9417 55.1654 62.2025C55.1654 62.4632 54.9544 62.6742 54.6937 62.6742ZM46.8517 59.9029C46.8517 59.6422 47.0627 59.4312 47.3234 59.4312H49.7409C50.0016 59.4312 50.2126 59.6422 50.2126 59.9029C50.2126 60.1637 50.0016 60.3746 49.7409 60.3746H47.3234C47.0627 60.3746 46.8517 60.1637 46.8517 59.9029ZM58.5944 62.6742H56.5556C56.2949 62.6742 56.0839 62.4632 56.0839 62.2025C56.0839 61.9417 56.2949 61.7308 56.5556 61.7308H58.5944C58.8551 61.7308 59.0661 61.9417 59.0661 62.2025C59.0661 62.4632 58.8551 62.6742 58.5944 62.6742ZM59.0661 59.9029C59.0661 60.1637 58.8551 60.3746 58.5944 60.3746H51.6668C51.4061 60.3746 51.1951 60.1637 51.1951 59.9029C51.1951 59.6422 51.4061 59.4312 51.6668 59.4312H58.5944C58.8551 59.4312 59.0661 59.6422 59.0661 59.9029ZM48.5851 38.5181C51.9473 38.5181 54.9867 40.5126 56.3281 43.5999C56.7919 44.6686 57.0273 45.799 57.0273 46.9598C57.0273 49.2427 56.1277 51.3829 54.4938 52.9859C52.9041 54.5438 50.8059 55.4025 48.5851 55.4025C43.9299 55.4025 40.1429 51.615 40.1429 46.9598C40.1429 42.3055 43.9299 38.5181 48.5851 38.5181ZM38.1041 60.6031C38.1041 59.6302 38.8955 58.8388 39.8684 58.8388H43.0662C44.039 58.8388 44.8304 59.6302 44.8304 60.6031V63.811C44.8304 64.7784 44.039 65.5661 43.0662 65.5661H39.8684C38.8955 65.5661 38.1041 64.7784 38.1041 63.811V60.6031Z" fill="white"></path><path d="M48.5847 54.4591C50.3992 54.4591 52.122 53.8132 53.486 52.6322L48.248 47.2896C48.2273 47.2687 48.2163 47.2412 48.2001 47.217C48.1877 47.1986 48.1741 47.1829 48.1644 47.1629C48.1562 47.1461 48.1491 47.1298 48.1429 47.112C48.1358 47.0915 48.1349 47.0709 48.1307 47.0496C48.1247 47.0195 48.113 46.9909 48.113 46.9598V39.4762C44.1971 39.7203 41.0859 42.9835 41.0859 46.9598C41.0859 51.0945 44.45 54.4591 48.5847 54.4591Z" fill="white"></path><defs><linearGradient id="paint0_linear_956_3203" x1="50" y1="0" x2="50" y2="100" gradientUnits="userSpaceOnUse"><stop stop-color="#A5A4FF"></stop><stop offset="1" stop-color="#5350DB"></stop></linearGradient></defs></svg>