<svg xmlns="http://www.w3.org/2000/svg" width="93" height="93" viewBox="0 0 93 93" fill="none"><circle cx="46.553" cy="46.6826" r="46" fill="white"></circle><circle cx="46.553" cy="46.6826" r="36" fill="url(#paint0_linear_7_1219)"></circle><path fill-rule="evenodd" clip-rule="evenodd" d="M33.5458 51.6523H38.5999C38.6306 51.6523 38.6564 51.6728 38.6632 51.7027C38.9302 52.8749 39.2042 53.7609 39.6589 54.8648C39.6674 54.8854 39.6653 54.9071 39.6529 54.9256C39.6405 54.9442 39.6213 54.9544 39.599 54.9544H35.7072C35.6885 54.9544 35.6723 54.9473 35.6595 54.9335C34.7208 53.9179 34.0922 52.9721 33.4876 51.7458C33.4774 51.7251 33.4785 51.7025 33.4907 51.6829C33.5028 51.6633 33.5227 51.6523 33.5458 51.6523ZM34.5503 48.0522C34.5312 48.0282 34.531 47.9954 34.5501 47.9715C39.587 41.6354 50.9276 42.3834 54.6137 49.2128C54.6288 49.2408 54.6214 49.2751 54.5964 49.2948C54.5707 49.3149 54.5347 49.3131 54.5112 49.2904C52.6287 47.4706 50.2758 46.3062 47.8412 46.1045C45.8609 45.9405 43.958 46.4368 42.5132 47.5882C42.493 47.6042 42.467 47.607 42.4439 47.5956C41.8152 47.2842 41.057 47.4109 40.5619 47.906C39.5333 48.9346 40.2661 50.6996 41.719 50.6996C42.9621 50.6996 43.7376 49.3706 43.1652 48.2967C43.1501 48.2683 43.1576 48.2339 43.1832 48.2144C44.4276 47.2703 46.0565 46.8678 47.7666 47.0094C50.724 47.2544 53.4249 49.0282 55.2822 51.5488C55.2971 51.569 55.2992 51.5942 55.2879 51.6166C55.2766 51.639 55.2551 51.6522 55.2299 51.6522H51.2961C51.2655 51.6522 51.2397 51.6728 51.2329 51.7027C50.9657 52.8746 50.692 53.761 50.2371 54.8647C50.2286 54.8854 50.2307 54.907 50.2431 54.9255C50.2555 54.9441 50.2748 54.9543 50.297 54.9543H54.189C54.2077 54.9543 54.2239 54.9472 54.2366 54.9334C55.1058 53.9928 55.8076 52.9814 56.3689 51.828L56.4448 51.6722C56.4514 51.6587 56.4531 51.6451 56.45 51.6304C55.7716 48.403 53.7807 46.0147 51.1914 44.5254C49.7419 43.6917 48.1083 43.1415 46.4171 42.8855C41.9735 42.213 37.1473 43.5576 34.136 47.0521C34.116 47.0753 34.0836 47.0815 34.0565 47.0671C34.0299 47.053 34.0165 47.0239 34.0235 46.9947C35.7543 39.6806 43.8094 36.8725 50.4346 40.12C50.4615 40.1332 50.4756 40.1623 50.4695 40.1917C50.356 40.7392 50.53 41.2967 50.9149 41.6817C51.9435 42.7103 53.7085 41.9775 53.7085 40.5246C53.7085 39.0959 51.9991 38.3598 50.9615 39.3227C50.9415 39.3414 50.9132 39.3453 50.8887 39.3331C43.515 35.6795 34.5531 39.0802 33.011 47.4027C33.0061 47.4297 32.9864 47.4497 32.9594 47.4548C32.6294 47.5167 32.3343 47.6778 32.1061 47.9059C31.0776 48.9345 31.8104 50.6995 33.2632 50.6995C34.6336 50.6996 35.388 49.113 34.5503 48.0522ZM47.9298 58.3869C48.7411 57.6301 49.3487 56.6911 49.8486 55.7076C49.86 55.6852 49.8814 55.6721 49.9064 55.6721H53.3214C53.349 55.6721 53.3726 55.6885 53.3822 55.7144C53.3918 55.7403 53.3847 55.7682 53.3637 55.7862C52.9006 56.1841 52.5268 56.4872 51.9814 56.851C50.7784 57.6533 49.4458 58.2441 48.0429 58.5951L47.827 58.649C47.798 58.6563 47.7686 58.6434 47.7543 58.6171C47.7399 58.5908 47.7451 58.5592 47.767 58.5387L47.9298 58.3869ZM40.4473 54.8823L40.4625 54.9162C40.4732 54.94 40.4956 54.9544 40.5217 54.9544H49.3744C49.4006 54.9544 49.4229 54.94 49.4337 54.9161C49.9218 53.8263 50.2163 52.8837 50.4925 51.7323C50.4974 51.7124 50.4931 51.6931 50.4804 51.677C50.4677 51.6609 50.4501 51.6523 50.4295 51.6523H39.4668C39.4462 51.6523 39.4286 51.6609 39.4158 51.677C39.4031 51.6931 39.3989 51.7124 39.4037 51.7323C39.6698 52.8402 39.975 53.8342 40.4473 54.8823ZM40.9442 55.6721C40.9205 55.6721 40.9002 55.6838 40.8882 55.7042C40.8762 55.7247 40.8761 55.7482 40.8877 55.7688C41.1237 56.1874 41.3295 56.5294 41.6312 56.9333C43.6645 59.6545 46.2316 59.6545 48.2649 56.9333C48.5668 56.5292 48.7725 56.1875 49.0085 55.7688C49.0202 55.7482 49.02 55.7247 49.0081 55.7042C48.9961 55.6838 48.9757 55.6721 48.952 55.6721H40.9442ZM40.0635 55.7392C40.5486 56.6992 41.1758 57.6492 41.9664 58.3868L42.1292 58.5387C42.1511 58.5591 42.1562 58.5907 42.1419 58.6171C42.1276 58.6434 42.0982 58.6564 42.0692 58.649L41.8533 58.595C39.9279 58.1133 38.1481 57.1839 36.6488 55.887L36.5321 55.786C36.5112 55.768 36.5041 55.7402 36.5138 55.7143C36.5234 55.6884 36.5469 55.6721 36.5745 55.6721H39.9896C40.0147 55.6721 40.0362 55.6853 40.0475 55.7077L40.0635 55.7392ZM57.7029 38.6557C59.1635 38.6557 60.3476 39.8398 60.3476 41.3004C60.3476 42.761 59.1634 43.9451 57.7029 43.9451C56.2423 43.9451 55.0582 42.7609 55.0582 41.3004C55.0582 39.8398 56.2423 38.6557 57.7029 38.6557ZM28.9253 38.9841H32.7201C32.8709 38.9841 32.993 39.1062 32.993 39.257V43.0519C32.993 43.2026 32.8709 43.3248 32.7201 43.3248H28.9253C28.7745 43.3248 28.6523 43.2026 28.6523 43.0519V39.257C28.6523 39.1062 28.7745 38.9841 28.9253 38.9841ZM38.9941 30.9225L41.6413 35.5094C41.716 35.6388 41.6706 35.8046 41.5412 35.879C41.4529 35.9297 41.3391 35.915 41.2249 35.9149V35.9169H35.9288C35.7352 35.9169 35.5699 35.7053 35.7055 35.4871C35.7059 35.4865 35.7062 35.4859 35.7066 35.4853L37.0631 33.1357L38.4324 30.7657C38.5071 30.6363 38.6727 30.5909 38.8025 30.6655C38.8914 30.7166 38.9359 30.8233 38.9934 30.9229L38.9941 30.9225ZM49.9652 30.3727L52.6485 33.0561C52.7552 33.1627 52.7552 33.3354 52.6485 33.4419L49.9652 36.1253C49.8586 36.2319 49.6859 36.2319 49.5793 36.1253L46.8959 33.4419C46.7893 33.3353 46.7893 33.1626 46.8959 33.0561L49.5793 30.3727C49.6859 30.2661 49.8586 30.2661 49.9652 30.3727Z" fill="white"></path><defs><linearGradient id="paint0_linear_7_1219" x1="46.553" y1="10.6826" x2="46.553" y2="82.6826" gradientUnits="userSpaceOnUse"><stop stop-color="#FF81F1"></stop><stop offset="1" stop-color="#FF41B2"></stop></linearGradient></defs></svg>