<?xml version="1.0" encoding="UTF-8"?>
<svg xmlns="http://www.w3.org/2000/svg" width="93" height="93" viewBox="0 0 93 93" fill="none">
  <circle cx="46.5527" cy="46.6826" r="46" fill="white"></circle>
  <circle cx="46.5527" cy="46.6826" r="36" fill="url(#paint0_linear_1074_167)"></circle>
  <path d="M38.569 35.0066H49.0463C49.7672 35.0066 50.3516 34.4222 50.3516 33.7013V31.9317C50.3516 31.5041 50.005 31.1575 49.5774 31.1575H46.0197C46.1018 30.919 46.1486 30.6642 46.1486 30.3981C46.1486 29.1073 45.0984 28.0571 43.8076 28.0571C42.5168 28.0571 41.4666 29.1073 41.4666 30.3981C41.4666 30.6642 41.5134 30.919 41.5955 31.1575H38.0378C37.6102 31.1575 37.2637 31.5041 37.2637 31.9317V33.7013C37.2637 34.4222 37.848 35.0066 38.569 35.0066ZM43.8076 29.1611C44.4896 29.1611 45.0447 29.7162 45.0447 30.3982C45.0447 30.6857 44.942 30.9473 44.7768 31.1576H42.8384C42.6732 30.9473 42.5705 30.6857 42.5705 30.3982C42.5705 29.7161 43.1256 29.1611 43.8076 29.1611Z" fill="white"></path>
  <path d="M49.6107 58.4526C49.6107 55.3248 52.1571 52.7784 55.2849 52.7784C55.4726 52.7784 55.6566 52.7858 55.8369 52.8042V33.9452C55.8369 32.8376 54.9353 31.936 53.8277 31.936H51.0862V33.7024C51.0862 34.8284 50.1736 35.741 49.0476 35.741H38.5676C37.4452 35.741 36.529 34.8284 36.529 33.7024V31.936H33.7875C32.6799 31.936 31.7783 32.8376 31.7783 33.9452V61.9337C31.7783 63.0414 32.6799 63.9429 33.7875 63.9429H53.8498C51.4138 63.3063 49.6107 61.0837 49.6107 58.4526ZM41.5593 39.2846H51.9621C52.0346 39.2845 52.1064 39.2987 52.1734 39.3264C52.2404 39.3541 52.3013 39.3948 52.3526 39.4461C52.4039 39.4973 52.4445 39.5582 52.4722 39.6252C52.4999 39.6922 52.5141 39.764 52.514 39.8366C52.514 40.1383 52.2675 40.3885 51.9621 40.3885H41.5593C41.2538 40.3885 41.0073 40.1383 41.0073 39.8366C41.0072 39.764 41.0214 39.6922 41.0492 39.6252C41.0769 39.5582 41.1175 39.4973 41.1688 39.4461C41.2201 39.3948 41.2809 39.3541 41.3479 39.3264C41.415 39.2987 41.4868 39.2845 41.5593 39.2846ZM41.5593 44.6718H51.9621C52.2675 44.6718 52.514 44.9183 52.514 45.2238C52.514 45.5292 52.2675 45.7757 51.9621 45.7757H41.5593C41.4868 45.7758 41.415 45.7616 41.3479 45.7339C41.2809 45.7062 41.2201 45.6655 41.1688 45.6143C41.1175 45.563 41.0769 45.5021 41.0492 45.4351C41.0214 45.3681 41.0072 45.2963 41.0073 45.2238C41.0072 45.1513 41.0214 45.0794 41.0492 45.0124C41.0769 44.9454 41.1175 44.8845 41.1688 44.8333C41.2201 44.782 41.2809 44.7413 41.3479 44.7136C41.415 44.6859 41.4868 44.6717 41.5593 44.6718ZM38.5492 50.1289L36.8013 51.8731C36.5991 52.0824 36.2444 52.0963 36.0212 51.8731L35.2631 51.1151C35.0497 50.9017 35.0497 50.5521 35.2631 50.335C35.4803 50.1216 35.8298 50.1216 36.0433 50.335L36.4112 50.7029L37.7691 49.3488C37.8201 49.2972 37.8808 49.2562 37.9478 49.2283C38.0148 49.2003 38.0866 49.1859 38.1591 49.1859C38.2317 49.1859 38.3035 49.2003 38.3705 49.2283C38.4374 49.2562 38.4982 49.2972 38.5492 49.3488C38.7663 49.5623 38.7663 49.9118 38.5492 50.1289ZM38.5492 44.738L36.8013 46.4859C36.5809 46.7063 36.2321 46.6968 36.0212 46.4859L35.2631 45.7279C35.0497 45.5144 35.0497 45.1649 35.2631 44.9478C35.4803 44.7307 35.8298 44.7307 36.0433 44.9478L36.4112 45.3157L37.7691 43.9579C37.9826 43.7444 38.3321 43.7444 38.5492 43.9579C38.7663 44.1751 38.7663 44.5246 38.5492 44.738ZM38.5492 39.3508L36.8013 41.0987C36.5924 41.3076 36.2516 41.3215 36.0212 41.0987L35.2631 40.3407C35.0497 40.1236 35.0497 39.774 35.2631 39.5606C35.4803 39.3435 35.8298 39.3435 36.0433 39.5606L36.4112 39.9285L37.7691 38.5707C37.873 38.4681 38.0131 38.4105 38.1591 38.4105C38.3052 38.4105 38.4453 38.4681 38.5492 38.5707C38.7663 38.7878 38.7663 39.1374 38.5492 39.3508ZM41.0073 50.611C41.0072 50.5385 41.0214 50.4666 41.0492 50.3996C41.0769 50.3326 41.1175 50.2717 41.1688 50.2205C41.2201 50.1692 41.2809 50.1285 41.3479 50.1008C41.415 50.0731 41.4868 50.0589 41.5593 50.059H51.9621C52.0346 50.0589 52.1064 50.0731 52.1734 50.1008C52.2404 50.1285 52.3013 50.1692 52.3526 50.2205C52.4039 50.2717 52.4445 50.3326 52.4722 50.3996C52.4999 50.4666 52.5141 50.5385 52.514 50.611C52.5141 50.6835 52.4999 50.7553 52.4722 50.8223C52.4445 50.8893 52.4039 50.9502 52.3526 51.0015C52.3013 51.0527 52.2404 51.0934 52.1734 51.1211C52.1064 51.1488 52.0346 51.163 51.9621 51.1629H41.5593C41.4868 51.163 41.4149 51.1488 41.3479 51.1211C41.2809 51.0934 41.22 51.0528 41.1687 51.0015C41.1175 50.9502 41.0768 50.8893 41.0491 50.8223C41.0214 50.7553 41.0072 50.6835 41.0073 50.611Z" fill="white"></path>
  <path d="M55.2835 53.5125C52.5558 53.5125 50.3457 55.7255 50.3457 58.4532C50.3457 61.1809 52.5558 63.391 55.2835 63.391C58.0112 63.391 60.2214 61.1809 60.2214 58.4532C60.2214 55.7255 58.0113 53.5125 55.2835 53.5125ZM57.3711 57.6398L54.9671 60.0441C54.9159 60.0954 54.855 60.1361 54.7881 60.1639C54.7211 60.1916 54.6493 60.2059 54.5768 60.2058C54.5043 60.2059 54.4325 60.1916 54.3656 60.1639C54.2986 60.1361 54.2378 60.0954 54.1866 60.0441L53.1958 59.0535C52.9802 58.8381 52.9802 58.4886 53.1958 58.273C53.4114 58.0573 53.7607 58.0574 53.9764 58.273L54.5768 58.8733L56.5906 56.8593C56.6416 56.8068 56.7025 56.7651 56.7698 56.7364C56.8371 56.7077 56.9094 56.6927 56.9825 56.6922C57.0556 56.6916 57.1281 56.7057 57.1958 56.7334C57.2634 56.7612 57.3249 56.8021 57.3766 56.8538C57.4283 56.9055 57.4693 56.967 57.497 57.0347C57.5247 57.1023 57.5388 57.1748 57.5383 57.248C57.5377 57.3211 57.5227 57.3934 57.494 57.4607C57.4653 57.5279 57.4235 57.5888 57.3711 57.6398Z" fill="white"></path>
  <defs>
    <linearGradient id="paint0_linear_1074_167" x1="46.5527" y1="10.6826" x2="46.5527" y2="82.6826" gradientUnits="userSpaceOnUse">
      <stop stop-color="#FF7580"></stop>
      <stop offset="1" stop-color="#FF4A9F"></stop>
    </linearGradient>
  </defs>
</svg>
