<svg xmlns="http://www.w3.org/2000/svg" width="80" height="80" viewBox="0 0 80 80" fill="none"><rect width="80" height="80" rx="16" fill="white"></rect><path fill-rule="evenodd" clip-rule="evenodd" d="M37.2543 57.4409H62.3589C62.6171 57.4409 62.8277 57.6514 62.8277 57.9096V61.6172C62.8277 61.8754 62.6171 62.086 62.3589 62.086H37.2543C37.13 62.0857 37.0109 62.0363 36.9231 61.9484C36.8352 61.8606 36.7858 61.7415 36.7855 61.6172V57.9096C36.7855 57.6514 36.9961 57.4409 37.2543 57.4409ZM29.2187 50.0798L34.2135 58.731C35.2529 60.5312 33.9414 62.7422 31.8994 62.7422H19.853C17.8296 62.7422 16.4899 60.5508 17.539 58.7336C19.2049 55.8481 20.8682 52.9647 22.5338 50.0798C22.6608 49.86 22.7145 49.6524 22.7145 49.399V44.2308C22.133 44.0173 21.7421 43.4619 21.7421 42.8393V42.009C21.7421 41.1921 22.407 40.5272 23.2239 40.5272H28.5289C29.3458 40.5272 30.0107 41.1921 30.0107 42.009V42.8393C30.0107 43.4618 29.6197 44.0173 29.0383 44.2308V49.399C29.0381 49.6525 29.0917 49.86 29.2187 50.0798ZM30.3439 54.6476L28.0856 50.736C27.8434 50.3165 27.7255 49.8838 27.7255 49.399V44.3211H24.0269V49.399C24.0269 49.8836 23.909 50.3166 23.6668 50.736L21.7463 54.0623C24.8928 53.2581 26.3224 56.1212 30.3439 54.6476ZM35.8868 49.9954H49.4008C49.659 49.9954 49.8695 50.206 49.8695 50.4642V53.1374C49.8695 53.3955 49.659 53.6061 49.4008 53.6061H35.8868C35.7626 53.6059 35.6435 53.5564 35.5556 53.4685C35.4678 53.3807 35.4183 53.2616 35.4181 53.1374V50.4642C35.4181 50.206 35.6286 49.9954 35.8868 49.9954ZM51.5643 25.9857C53.425 25.9857 54.9334 27.4941 54.9334 29.3549C54.9334 31.2156 53.425 32.724 51.5643 32.724C49.7035 32.724 48.1951 31.2156 48.1951 29.3549C48.1951 27.4941 49.7035 25.9857 51.5643 25.9857ZM51.5643 28.3159C50.9905 28.3159 50.5254 28.781 50.5254 29.3548C50.5254 29.9285 50.9905 30.3936 51.5643 30.3936C52.138 30.3936 52.6031 29.9285 52.6031 29.3548C52.6031 28.781 52.138 28.3159 51.5643 28.3159ZM60.2758 56.1284C65.2317 46.8932 61.6441 38.3627 55.6145 31.7039C54.9321 32.878 53.7539 33.728 52.3666 33.9676C56.0989 42.7815 55.5496 49.8582 50.6785 56.1284H60.2758ZM46.0221 54.9186V56.1284H39.2655V54.9186H46.0221ZM49.214 20.8455C49.1063 20.7836 48.9785 20.7669 48.8585 20.7991C48.7384 20.8312 48.6361 20.9096 48.5737 21.0171L41.5039 33.2624C41.442 33.3701 41.4253 33.4979 41.4575 33.6179C41.4896 33.738 41.568 33.8403 41.6755 33.9027L46.7168 36.8133C46.8245 36.8752 46.9524 36.8919 47.0724 36.8598C47.1924 36.8276 47.2948 36.7492 47.3571 36.6418L49.2231 33.4098C47.824 32.6003 46.8827 31.0875 46.8827 29.3549C46.8827 26.7692 48.9787 24.6733 51.5643 24.6733C52.3862 24.672 53.1939 24.8882 53.9054 25.2999L54.4269 24.3966C54.4888 24.2889 54.5055 24.161 54.4734 24.041C54.4412 23.921 54.3628 23.8186 54.2554 23.7563L49.214 20.8455ZM52.7456 17.3204L55.5424 18.9351C55.6499 18.9974 55.7283 19.0998 55.7605 19.2198C55.7926 19.3398 55.7759 19.4677 55.714 19.5754L54.1953 22.206L50.5864 20.1225L52.1052 17.4918C52.1676 17.3844 52.27 17.306 52.39 17.2739C52.51 17.2417 52.6379 17.2584 52.7456 17.3204ZM45.3443 37.5363L44.743 38.5778C44.6807 38.6853 44.5783 38.7637 44.4583 38.7958C44.3383 38.828 44.2104 38.8113 44.1027 38.7494L41.3059 37.1345C41.1984 37.0722 41.12 36.9698 41.0878 36.8498C41.0557 36.7298 41.0724 36.6019 41.1343 36.4942L41.7355 35.4528L45.3443 37.5363Z" fill="#477BFF"></path></svg>