<svg xmlns="http://www.w3.org/2000/svg" width="70" height="71" viewBox="0 0 70 71" fill="none"><g clip-path="url(#clip0_73_2054)"><g clip-path="url(#clip1_73_2054)"><path d="M40.1095 7.61853H13.6003C12.0752 7.61853 10.8389 8.85484 10.8389 10.3799V14.7981C10.8389 16.3232 12.0752 17.5595 13.6003 17.5595H40.1095C41.6345 17.5595 42.8708 16.3232 42.8708 14.7981V10.3799C42.8708 8.85484 41.6345 7.61853 40.1095 7.61853Z" fill="white"></path><path d="M49.3656 48.7078L62.8632 53.612L60.7866 59.3115C60.2809 60.6977 59.361 61.8948 58.1517 62.7405C56.9425 63.5862 55.5024 64.0395 54.0268 64.039C53.1893 64.0427 52.3582 63.8929 51.5747 63.5971C49.7893 62.9447 48.3355 61.6109 47.5321 59.8881C46.7288 58.1654 46.6413 56.1944 47.289 54.4073L49.3656 48.7078ZM66.0664 44.7756L63.9898 50.4751L50.4922 45.5709L52.5688 39.8714C53.2235 38.0826 54.5612 36.6266 56.2883 35.8231C58.0154 35.0196 59.9908 34.9342 61.7807 35.5858C63.5661 36.2382 65.0199 37.572 65.8233 39.2947C66.6267 41.0175 66.7141 42.9885 66.0664 44.7756Z" fill="white"></path><path d="M47.6204 47.4486L44.5277 43.3397L42.0535 40.0481L38.5631 35.3869C38.497 35.2885 38.4588 35.174 38.4526 35.0556V18.1118C38.448 17.0879 38.0392 16.1073 37.3152 15.3833C36.5912 14.6593 35.6106 14.2505 34.5867 14.2458H19.123C18.0991 14.2505 17.1185 14.6593 16.3945 15.3833C15.6705 16.1073 15.2617 17.0879 15.2571 18.1118V35.0556C15.2509 35.174 15.2127 35.2885 15.1466 35.3869L7.76825 45.2174L6.08933 47.4486C5.96558 47.6045 5.8617 47.7752 5.78006 47.9567C5.4749 48.5117 5.31529 49.1349 5.31615 49.7682V60.0847C5.3208 61.1085 5.72959 62.0892 6.45359 62.8131C7.17758 63.5371 8.1582 63.9459 9.18207 63.9506H44.5277C45.5515 63.9459 46.5322 63.5371 47.2562 62.8131C47.9801 62.0892 48.3889 61.1085 48.3936 60.0847V49.7682C48.3945 48.9315 48.1231 48.1173 47.6204 47.4486ZM17.7976 37.3751C18.3003 36.7064 18.5717 35.8922 18.5707 35.0556V18.1118C18.5699 18.039 18.5835 17.9668 18.611 17.8994C18.6384 17.832 18.6791 17.7707 18.7305 17.7193C18.782 17.6678 18.8432 17.6272 18.9106 17.5997C18.978 17.5723 19.0502 17.5586 19.123 17.5595H34.5867C34.6595 17.5586 34.7317 17.5723 34.7991 17.5997C34.8665 17.6272 34.9278 17.6678 34.9792 17.7193C35.0307 17.7707 35.0713 17.832 35.0988 17.8994C35.1262 17.9668 35.1399 18.039 35.139 18.1118V35.0556C35.138 35.8922 35.4094 36.7064 35.9122 37.3751L38.2759 40.512C35.579 41.0136 32.9679 41.8989 30.522 43.1409C24.5976 46.4423 17.7126 47.5898 11.0377 46.3882L17.7976 37.3751Z" fill="white"></path></g></g><defs><clipPath id="clip0_73_2054"><rect width="70" height="70" fill="white" transform="translate(0 0.438965)"></rect></clipPath><clipPath id="clip1_73_2054"><rect width="70.6912" height="70.6912" fill="white" transform="translate(0.345703 0.438965)"></rect></clipPath></defs></svg>