<svg xmlns="http://www.w3.org/2000/svg" width="90" height="90" viewBox="0 0 90 90" fill="none"><path d="M0 12C0 5.37258 5.37258 0 12 0H78C84.6274 0 90 5.37258 90 12V78C90 84.6274 84.6274 90 78 90H12C5.37258 90 0 84.6274 0 78V12Z" fill="#E9F8FF"></path><path fill-rule="evenodd" clip-rule="evenodd" d="M48.0903 22H26.6881C25.4569 22 24.4587 22.9981 24.4587 24.2294V27.7964C24.4587 29.0277 25.4569 30.0258 26.6881 30.0258H28.0597C28.0379 30.1726 28.0265 30.3216 28.0258 30.4717V44.1513C28.0208 44.2469 27.99 44.3393 27.9366 44.4188L21.9797 52.3554L20.6242 54.1568C20.5243 54.2826 20.4404 54.4204 20.3745 54.567C20.1282 55.015 19.9993 55.5181 20 56.0294V64.3585C20.0038 65.1851 20.3338 65.9768 20.9183 66.5613C21.5028 67.1458 22.2945 67.4758 23.1211 67.4796H51.6573C52.484 67.4758 53.2757 67.1458 53.8602 66.5613C54.2462 66.1752 54.5213 65.6988 54.6646 65.1817C55.3358 66.0953 56.2659 66.7993 57.3465 67.1942C57.979 67.433 58.65 67.5539 59.3262 67.5509C60.5175 67.5513 61.6801 67.1853 62.6564 66.5026C63.6327 65.8198 64.3754 64.8533 64.7837 63.7341L66.4602 59.1327L55.5629 55.1733L54.7785 57.3264V56.0294C54.7793 55.354 54.5601 54.6967 54.1543 54.1568L51.6573 50.8394L49.6598 48.182L46.8419 44.4188C46.7885 44.3393 46.7577 44.2469 46.7527 44.1513V30.4717C46.752 30.3216 46.7406 30.1726 46.7188 30.0258H48.0903C49.3215 30.0258 50.3197 29.0277 50.3197 27.7964V24.2294C50.3197 22.9981 49.3215 22 48.0903 22ZM69.0463 51.9986L67.3698 56.6001L56.4725 52.6407L58.149 48.0392C58.6776 46.595 59.7576 45.4196 61.152 44.7709C62.5463 44.1222 64.1411 44.0532 65.5863 44.5792C67.0277 45.106 68.2014 46.1828 68.85 47.5737C69.4986 48.9645 69.5692 50.5558 69.0463 51.9986ZM30.7011 44.1513C30.7018 44.8267 30.4827 45.4841 30.0768 46.024L24.6193 53.3007C30.0082 54.2708 35.5668 53.3443 40.3499 50.6789C42.3246 49.6762 44.4327 48.9615 46.61 48.5565L44.7016 46.024C44.2958 45.4841 44.0766 44.8267 44.0774 44.1513V30.4717C44.0781 30.413 44.0671 30.3547 44.0449 30.3003C44.0228 30.2458 43.99 30.1964 43.9484 30.1548C43.9069 30.1133 43.8574 30.0805 43.803 30.0583C43.7486 30.0362 43.6903 30.0251 43.6315 30.0259H31.147C31.0882 30.0251 31.0299 30.0362 30.9755 30.0583C30.9211 30.0805 30.8716 30.1133 30.8301 30.1548C30.7885 30.1964 30.7557 30.2458 30.7336 30.3003C30.7114 30.3547 30.7004 30.413 30.7011 30.4717V44.1513Z" fill="url(#paint0_linear_956_3260)"></path><defs><linearGradient id="paint0_linear_956_3260" x1="37.3892" y1="27.3506" x2="37.3892" y2="67.4796" gradientUnits="userSpaceOnUse"><stop stop-color="#29B7FF"></stop><stop offset="1" stop-color="#368AFF"></stop></linearGradient></defs></svg>