<?xml version="1.0" encoding="UTF-8"?>
<svg xmlns="http://www.w3.org/2000/svg" width="80" height="80" viewBox="0 0 80 80" fill="none">
  <rect width="80" height="80" rx="40" fill="url(#paint0_linear_617_1106)"></rect>
  <path d="M61.4207 57.19C61.4207 57.64 61.4207 58.18 61.2407 58.63C60.9707 60.25 59.5307 61.51 57.7307 61.51H51.1607C49.4507 61.51 48.0107 60.34 47.6507 58.63C47.5607 58.09 47.4707 57.64 47.4707 57.19C47.4707 53.77 49.9907 53.05 51.7907 52.78C51.8807 52.78 52.0607 52.78 52.1507 52.87L54.3107 54.76L56.4707 52.87C56.5607 52.78 56.7407 52.78 56.8307 52.78C58.9907 53.05 61.4207 53.77 61.4207 57.19Z" fill="white"></path>
  <path d="M51.0703 49.36C51.0703 47.38 52.6903 45.76 54.5803 45.76C56.5603 45.76 58.0903 47.38 58.0903 49.36C58.0903 51.34 56.4703 52.87 54.5803 52.87C52.6003 52.87 51.0703 51.34 51.0703 49.36Z" fill="white"></path>
  <path d="M43.5102 21.91C43.5102 23.89 41.8902 25.51 40.0002 25.51C38.0202 25.51 36.4902 23.89 36.4902 21.91C36.4902 19.93 38.0202 18.4 40.0002 18.4C41.9802 18.4 43.5102 19.93 43.5102 21.91Z" fill="white"></path>
  <path d="M46.8406 29.83C46.8406 30.28 46.8406 30.82 46.6606 31.36C46.3906 32.98 44.9506 34.24 43.1506 34.24H38.6506H36.5806C34.8706 34.24 33.4306 33.07 33.0706 31.36C32.9806 30.82 32.8906 30.28 32.8906 29.83C32.8906 26.41 35.4106 25.69 37.2106 25.42C37.3006 25.42 37.4806 25.42 37.5706 25.51L40.0006 27.4L42.1606 25.51C42.2506 25.42 42.4306 25.42 42.5206 25.42C44.4106 25.69 46.8406 26.41 46.8406 29.83Z" fill="white"></path>
  <path d="M32.3502 57.19C32.3502 57.64 32.3502 58.18 32.1702 58.63C31.9002 60.34 30.4602 61.6 28.6602 61.6H24.1602H22.1802C20.4702 61.6 19.0302 60.43 18.6702 58.72C18.5802 58.18 18.4902 57.73 18.4902 57.28C18.4902 53.86 21.0102 53.14 22.8102 52.87C22.9002 52.87 23.0802 52.87 23.1702 52.96L25.3302 54.85L27.4902 52.96C27.5802 52.87 27.7602 52.87 27.8502 52.87C29.8302 53.05 32.3502 53.77 32.3502 57.19Z" fill="white"></path>
  <path d="M21.9102 49.36C21.9102 47.38 23.5302 45.76 25.4202 45.76C27.4002 45.76 28.9302 47.38 28.9302 49.36C28.9302 51.34 27.3102 52.87 25.4202 52.87C23.5302 52.87 21.9102 51.34 21.9102 49.36Z" fill="white"></path>
  <path d="M23.8904 44.23C24.1604 44.23 24.3404 44.05 24.3404 43.78C24.7004 39.01 27.1304 34.78 31.0904 32.17C31.2704 32.17 31.4504 31.99 31.4504 31.72V31.63C31.4504 31.54 31.3604 31.36 31.1804 31.27C31.0004 31.18 30.8204 31.18 30.7304 31.27C26.5004 34.15 23.8004 38.65 23.4404 43.69C23.4404 43.96 23.6204 44.14 23.8904 44.23Z" fill="white"></path>
  <path d="M45.6698 59.6201C42.0698 61.0601 37.9298 61.0601 34.2398 59.6201C33.9698 59.5301 33.7898 59.6201 33.6998 59.8901C33.6098 60.1601 33.6998 60.3401 33.9698 60.4301C35.8598 61.1501 37.9298 61.6001 39.9998 61.6001C42.0698 61.6001 44.1398 61.2401 46.0298 60.4301C46.2998 60.3401 46.3898 60.0701 46.2998 59.8901C46.2098 59.6201 45.9398 59.5301 45.6698 59.6201Z" fill="white"></path>
  <path d="M48.91 32.1701C52.78 34.8701 55.21 39.1001 55.57 43.7801C55.57 44.0501 55.75 44.2301 56.02 44.2301C56.29 44.2301 56.47 43.9601 56.47 43.7801C56.11 38.7401 53.41 34.1501 49.18 31.3601C49 31.2701 48.91 31.1801 48.73 31.2701C48.55 31.3601 48.46 31.4501 48.46 31.6301V31.7201C48.46 31.9901 48.73 32.1701 48.91 32.1701Z" fill="white"></path>
  <path d="M48.7304 49.72C48.1004 48.91 47.7404 48.01 47.3804 47.02C48.1004 46.03 48.4604 44.86 48.4604 43.78C48.4604 40.09 44.6804 37.12 39.9104 37.12C35.2304 37.12 31.3604 40.09 31.3604 43.78C31.3604 47.47 35.1404 50.44 39.9104 50.44C41.6204 50.44 43.2404 50.08 44.6804 49.27C46.3904 50.35 48.2804 50.44 48.2804 50.44C48.4604 50.44 48.6404 50.35 48.7304 50.17C48.8204 49.99 48.8204 49.81 48.7304 49.72ZM35.6804 45.58C34.6904 45.58 33.7904 44.77 33.7904 43.69C33.7904 42.61 34.6004 41.8 35.6804 41.8C36.7604 41.8 37.5704 42.61 37.5704 43.69C37.5704 44.77 36.7604 45.58 35.6804 45.58ZM40.0004 45.58C39.0104 45.58 38.1104 44.77 38.1104 43.69C38.1104 42.61 38.9204 41.8 40.0004 41.8C41.0804 41.8 41.8904 42.61 41.8904 43.69C41.8904 44.77 40.9904 45.58 40.0004 45.58ZM44.3203 45.58C43.2403 45.58 42.4304 44.77 42.4304 43.69C42.4304 42.61 43.2403 41.8 44.3203 41.8C45.4003 41.8 46.2104 42.61 46.2104 43.69C46.1203 44.77 45.3104 45.58 44.3203 45.58Z" fill="white"></path>
  <defs>
    <linearGradient id="paint0_linear_617_1106" x1="40" y1="0" x2="40" y2="80" gradientUnits="userSpaceOnUse">
      <stop stop-color="#8788FF"></stop>
      <stop offset="1" stop-color="#5A5EFF"></stop>
    </linearGradient>
  </defs>
</svg>
