<?xml version="1.0" encoding="UTF-8"?>
<svg xmlns="http://www.w3.org/2000/svg" width="80" height="81" viewBox="0 0 80 81" fill="none">
  <rect y="0.964111" width="80" height="80" rx="40" fill="url(#paint0_linear_617_1115)"></rect>
  <path d="M58.2812 36.7454H54.0625C53.2852 36.7454 52.6562 37.3743 52.6562 38.1516V59.2454C52.6562 60.0226 53.2852 60.6516 54.0625 60.6516H58.2812C59.0585 60.6516 59.6875 60.0226 59.6875 59.2454V38.1516C59.6875 37.3743 59.0585 36.7454 58.2812 36.7454Z" fill="white"></path>
  <path d="M49.8438 43.7766H45.625C44.8477 43.7766 44.2188 44.4056 44.2188 45.1829V59.2454C44.2188 60.0226 44.8477 60.6516 45.625 60.6516H49.8438C50.621 60.6516 51.25 60.0226 51.25 59.2454V45.1829C51.25 44.4056 50.621 43.7766 49.8438 43.7766Z" fill="white"></path>
  <path d="M41.4062 49.4016H37.1875C36.4102 49.4016 35.7812 50.0306 35.7812 50.8079V59.2454C35.7812 60.0226 36.4102 60.6516 37.1875 60.6516H41.4062C42.1835 60.6516 42.8125 60.0226 42.8125 59.2454V50.8079C42.8125 50.0306 42.1835 49.4016 41.4062 49.4016Z" fill="white"></path>
  <path d="M32.9688 53.6204H28.75C27.9727 53.6204 27.3438 54.2493 27.3438 55.0266V59.2454C27.3438 60.0226 27.9727 60.6516 28.75 60.6516H32.9688C33.746 60.6516 34.375 60.0226 34.375 59.2454V55.0266C34.375 54.2493 33.746 53.6204 32.9688 53.6204Z" fill="white"></path>
  <path d="M27.3438 40.9641C24.5899 40.9641 21.8246 40.3678 20.3125 39.0874V43.3062C21.8246 44.5866 24.5899 45.1828 27.3438 45.1828C30.0976 45.1828 32.8629 44.5865 34.375 43.3062V39.0874C32.8629 40.3677 30.0976 40.9641 27.3438 40.9641Z" fill="white"></path>
  <path d="M27.3438 46.5891C24.5899 46.5891 21.8246 45.9928 20.3125 44.7124V47.9953C20.3125 49.5486 23.4605 50.8078 27.3438 50.8078C31.227 50.8078 34.375 49.5486 34.375 47.9953V44.7124C32.8629 45.9927 30.0976 46.5891 27.3438 46.5891Z" fill="white"></path>
  <path d="M27.3438 39.5579C31.227 39.5579 34.375 38.2987 34.375 36.7454C34.375 35.1921 31.227 33.9329 27.3438 33.9329C23.4605 33.9329 20.3125 35.1921 20.3125 36.7454C20.3125 38.2987 23.4605 39.5579 27.3438 39.5579Z" fill="white"></path>
  <path d="M45.625 25.4954H49.8438L45.625 21.2766V25.4954Z" fill="white"></path>
  <path d="M44.2188 25.4954V21.2766H37.1875C36.4108 21.2766 35.7812 21.9062 35.7812 22.6829V38.1516C35.7812 38.9282 36.4108 39.5579 37.1875 39.5579H48.4375C49.2142 39.5579 49.8438 38.9282 49.8438 38.1516V26.9016H45.625C44.8483 26.9016 44.2188 26.272 44.2188 25.4954ZM46.3281 36.7454H39.2969C38.9086 36.7454 38.5938 36.4305 38.5938 36.0422C38.5938 35.6539 38.9086 35.3391 39.2969 35.3391H46.3281C46.7164 35.3391 47.0312 35.6539 47.0312 36.0422C47.0312 36.4305 46.7164 36.7454 46.3281 36.7454ZM46.3281 33.9329H39.2969C38.9086 33.9329 38.5938 33.618 38.5938 33.2297C38.5938 32.8414 38.9086 32.5266 39.2969 32.5266H46.3281C46.7164 32.5266 47.0312 32.8414 47.0312 33.2297C47.0312 33.618 46.7164 33.9329 46.3281 33.9329ZM47.0312 30.4172C47.0312 30.8055 46.7164 31.1204 46.3281 31.1204H39.2969C38.9086 31.1204 38.5938 30.8055 38.5938 30.4172C38.5938 30.0289 38.9086 29.7141 39.2969 29.7141H46.3281C46.7164 29.7141 47.0312 30.0289 47.0312 30.4172Z" fill="white"></path>
  <defs>
    <linearGradient id="paint0_linear_617_1115" x1="40" y1="0.964111" x2="40" y2="80.9641" gradientUnits="userSpaceOnUse">
      <stop stop-color="#FFC182"></stop>
      <stop offset="1" stop-color="#FF792E"></stop>
    </linearGradient>
  </defs>
</svg>
