<svg xmlns="http://www.w3.org/2000/svg" width="93" height="93" viewBox="0 0 93 93" fill="none"><circle cx="46.5529" cy="46.6826" r="46" fill="white"></circle><circle cx="46.5529" cy="46.6826" r="36" fill="url(#paint0_linear_7_1193)"></circle><g clip-path="url(#clip0_7_1193)"><path d="M39.2499 49.6926V53.776C39.2499 54.0981 39.5111 54.3593 39.8333 54.3593H42.7499V49.6926H39.2499Z" fill="white"></path><path d="M39.2499 47.3591H47.4166V48.5258H39.2499V47.3591Z" fill="white"></path><path d="M46.8333 54.3593C47.1554 54.3593 47.4166 54.0981 47.4166 53.776V49.6926H43.9166V54.3593H46.8333Z" fill="white"></path><path d="M43.3333 27.5259C43.0111 27.5259 42.7499 27.787 42.7499 28.1092V35.6925H42.0114C41.7214 35.6928 41.4757 35.906 41.4345 36.193L41.0892 38.6092H45.5773L45.232 36.1936C45.1911 35.9064 44.9453 35.6928 44.6551 35.6925H43.9166V28.1092C43.9166 27.787 43.6554 27.5259 43.3333 27.5259Z" fill="white"></path><path d="M39.8333 39.7759C39.5111 39.7759 39.2499 40.037 39.2499 40.3592V46.1925H47.4166V40.3592C47.4166 40.037 47.1554 39.7759 46.8333 39.7759H39.8333Z" fill="white"></path><path d="M29.9166 58.7343C29.9166 60.184 31.0918 61.3593 32.5416 61.3593C33.9913 61.3593 35.1666 60.184 35.1666 58.7343V44.4426H29.9166V58.7343ZM31.0833 57.276C31.0833 56.9538 31.3444 56.6926 31.6666 56.6926C31.9888 56.6926 32.2499 56.9538 32.2499 57.276V58.7343C32.2499 58.8954 32.3805 59.026 32.5416 59.026C32.8638 59.026 33.1249 59.2871 33.1249 59.6093C33.1249 59.9315 32.8638 60.1926 32.5416 60.1926C31.7362 60.1926 31.0833 59.5397 31.0833 58.7343V57.276Z" fill="white"></path><path d="M35.7499 28.6926H29.3333C28.6889 28.6926 28.1666 29.215 28.1666 29.8593C28.1666 30.5036 28.6889 31.026 29.3333 31.026H30.4999C30.8221 31.026 31.0833 31.2871 31.0833 31.6093C31.0833 31.9315 30.8221 32.1926 30.4999 32.1926H29.9166V43.276H35.1666V32.1926H32.8333C32.5111 32.1926 32.2499 31.9315 32.2499 31.6093C32.2499 31.2871 32.5111 31.026 32.8333 31.026H35.7499C36.3943 31.026 36.9166 30.5036 36.9166 29.8593C36.9166 29.215 36.3943 28.6926 35.7499 28.6926Z" fill="white"></path><path d="M59.6666 37.4425H60.2441L60.2499 36.2758C60.2977 35.687 59.8653 35.1682 59.2775 35.1091H53.0557C52.4679 35.1682 52.0355 35.687 52.0833 36.2758V37.4425H53.2499V36.8591C53.2499 36.537 53.5111 36.2758 53.8333 36.2758C54.1554 36.2758 54.4166 36.537 54.4166 36.8591V37.4425H55.5833V36.8591C55.5833 36.537 55.8444 36.2758 56.1666 36.2758C56.4888 36.2758 56.7499 36.537 56.7499 36.8591V37.4425H57.9166V36.8591C57.9166 36.537 58.1778 36.2758 58.4999 36.2758C58.8221 36.2758 59.0833 36.537 59.0833 36.8591V37.4425H59.6666Z" fill="white"></path><path d="M51.4999 60.1925C51.4999 60.8368 52.0223 61.3591 52.6666 61.3591H59.6666C60.3109 61.3591 60.8333 60.8368 60.8333 60.1925V57.8591H51.4999V60.1925Z" fill="white"></path><path d="M59.092 38.6091H53.2412C53.1819 39.5802 52.8403 40.5129 52.2583 41.2925C51.7677 41.9497 51.5018 42.7474 51.4999 43.5675V45.0258H60.8333V43.5675C60.8314 42.7474 60.5655 41.9497 60.0749 41.2925C59.4929 40.5129 59.1513 39.5802 59.092 38.6091Z" fill="white"></path><path d="M53.8333 51.4426C53.8333 51.7648 53.5721 52.026 53.2499 52.026C52.9278 52.026 52.6666 51.7648 52.6666 51.4426V46.1926H51.4999V56.6926H52.6666V53.776C52.6666 53.4538 52.9278 53.1926 53.2499 53.1926C53.5721 53.1926 53.8333 53.4538 53.8333 53.776V56.6926H60.8333V46.1926H53.8333V51.4426Z" fill="white"></path><path d="M47.4166 59.0258H43.9166V54.3591H42.7499V59.0258H39.2499C38.6056 59.0258 38.0833 59.5481 38.0833 60.1925V61.3591C38.0833 62.0035 38.6056 62.5258 39.2499 62.5258H47.4166C48.0609 62.5258 48.5833 62.0035 48.5833 61.3591V60.1925C48.5833 59.5481 48.0609 59.0258 47.4166 59.0258ZM47.4166 61.3591H39.2499V60.1925H47.4166V61.3591Z" fill="white"></path></g><defs><linearGradient id="paint0_linear_7_1193" x1="46.5529" y1="10.6826" x2="46.5529" y2="82.6826" gradientUnits="userSpaceOnUse"><stop stop-color="#FFC182"></stop><stop offset="1" stop-color="#FF792E"></stop></linearGradient><clipPath id="clip0_7_1193"><rect width="35" height="35" fill="white" transform="translate(26.9999 27.5259)"></rect></clipPath></defs></svg>