<?xml version="1.0" encoding="UTF-8"?>
<svg xmlns="http://www.w3.org/2000/svg" width="92" height="92" viewBox="0 0 92 92" fill="none">
  <circle cx="46" cy="46" r="46" fill="white"></circle>
  <circle cx="46" cy="46" r="36" fill="url(#paint0_linear_617_594)"></circle>
  <path d="M51.2251 33.5724C51.2251 35.038 50.0351 36.228 48.5709 36.228H42.4547C40.9876 36.228 39.8005 35.038 39.8005 33.5724C39.8005 32.1067 40.9876 30.9167 42.4547 30.9167H48.5695C50.0336 30.9167 51.2251 32.1067 51.2251 33.5724ZM40.7907 46.9584L42.9913 42.0788C43.2466 41.5115 43.8284 41.1586 44.4541 41.2272C45.0738 41.284 45.5886 41.7274 45.7374 42.3311L47.4859 49.442L48.848 47.5622C49.1222 47.183 49.5611 46.9584 50.0293 46.9584L57.9232 46.9686L57.9116 39.4436C57.9116 36.9411 56.3191 34.8192 54.1009 33.9924C53.8822 36.8653 51.5022 39.1447 48.5724 39.1447H42.4547C39.5234 39.1447 37.1376 36.8595 36.9247 33.9792C34.6818 34.793 33.0674 36.9251 33.0674 39.448L33.079 46.9584H40.7907ZM46.5409 54.2778C45.9838 54.1684 45.5391 53.747 45.4034 53.1942L43.913 47.1276L43.0613 49.0147C42.8266 49.5397 42.3059 49.8751 41.7328 49.8751H33.0849L33.0922 54.2501C33.0922 57.4672 35.7084 60.0834 38.9255 60.0834H52.0986C55.3157 60.0834 57.932 57.4672 57.932 54.2486L57.9247 49.8867L50.7701 49.8765L48.0022 53.7017C47.4961 54.4907 46.5409 54.2778 46.5409 54.2778Z" fill="white"></path>
  <defs>
    <linearGradient id="paint0_linear_617_594" x1="46" y1="10" x2="46" y2="82" gradientUnits="userSpaceOnUse">
      <stop stop-color="#FF81F1"></stop>
      <stop offset="1" stop-color="#FF41B2"></stop>
    </linearGradient>
  </defs>
</svg>
