<?xml version="1.0" encoding="UTF-8"?>
<svg xmlns="http://www.w3.org/2000/svg" width="81" height="80" viewBox="0 0 81 80" fill="none">
  <path d="M0.5 40C0.5 17.9086 18.4086 0 40.5 0C62.5914 0 80.5 17.9086 80.5 40C80.5 62.0914 62.5914 80 40.5 80C18.4086 80 0.5 62.0914 0.5 40Z" fill="url(#paint0_linear_982_459)"></path>
  <path fill-rule="evenodd" clip-rule="evenodd" d="M25.3459 50.266L30.6819 59.6885C30.733 59.7798 30.7021 59.8966 30.6112 59.9479L30.6102 59.9485L28.797 60.9755C28.7057 61.0265 28.589 60.9955 28.5377 60.9047L23.1997 51.4787C23.1483 51.3882 23.179 51.2718 23.2691 51.221L25.0863 50.1928C25.1771 50.1416 25.293 50.1749 25.3453 50.265L25.3459 50.266ZM24.7693 51.198C24.3574 51.2567 24.0729 51.639 24.1318 52.0507C24.1931 52.4624 24.5756 52.7491 24.9875 52.6879C25.3996 52.629 25.6839 52.2444 25.6251 51.8326C25.5638 51.4209 25.1813 51.1367 24.7693 51.198ZM30.8018 56.8024L27.7855 51.4761L32.4461 48.7796C33.5164 48.161 34.5905 47.6627 35.7659 48.0442C37.3246 48.5492 39.8657 49.6246 42.4622 50.1025C43.0065 50.2999 43.3611 50.8416 43.2099 51.4035C43.0599 51.962 42.5778 52.224 41.9263 52.1538C40.5055 51.86 39.1857 51.4287 37.7219 51.0355C37.315 50.9262 36.8959 51.1677 36.7866 51.5743C36.6772 51.9809 36.9188 52.3997 37.3257 52.509C38.8311 52.9133 42.4858 53.7914 42.4858 53.7914L42.4884 53.7918C43.7023 53.9849 44.816 53.8129 45.8788 53.194L52.3504 49.4272C55.0004 47.8844 56.133 48.6593 56.1032 49.7831C56.0931 50.1602 55.9577 50.5424 55.6618 50.7245L43.9179 57.9506C43.0238 58.5021 42.0429 58.6266 41.0283 58.3561L32.5102 56.0747C32.4134 56.0487 32.3124 56.0421 32.213 56.0552C32.1136 56.0683 32.0177 56.1008 31.9309 56.151L30.8018 56.8024ZM40.7127 42.1719C39.8897 41.904 39.1011 41.5399 38.3634 41.0874L36.2896 42.0054L33.847 39.5644L34.7691 37.4919C34.1602 36.5078 33.7148 35.4299 33.4434 34.3033L31.3279 33.4896V30.0367L33.4434 29.223C33.7133 28.0955 34.1608 27.0181 34.7691 26.031L33.847 23.9585L36.2896 21.5175L38.3634 22.439C39.3496 21.8313 40.4268 21.3853 41.554 21.1176L42.3717 19H45.8268L46.641 21.1176C47.7682 21.3853 48.8454 21.8314 49.8317 22.439L51.9053 21.5175L54.3479 23.9585L53.4294 26.031C54.038 27.0175 54.4844 28.0952 54.7515 29.223L56.867 30.0367V33.4896L54.7515 34.3033C54.6353 34.7918 54.485 35.2717 54.3019 35.7393L52.0015 31.7583L52.0006 31.7566C51.547 30.9707 50.8083 30.4502 49.946 30.289C49.2883 27.6737 46.919 25.7389 44.0975 25.7389C40.7677 25.7389 38.0711 28.4337 38.0711 31.7614C38.0711 34.8112 40.336 37.3324 43.2776 37.7322L40.7127 42.1719ZM50.6784 32.5197L57.6183 44.5298C57.8934 45.0072 57.8934 45.5687 57.6183 46.0462C57.3418 46.5223 56.8553 46.8045 56.3036 46.8045H42.4268C41.8766 46.8045 41.3886 46.5223 41.1135 46.0462C40.8384 45.5687 40.8384 45.0072 41.1135 44.5298L48.0519 32.5197C48.3271 32.0421 48.815 31.7614 49.3652 31.7614C49.9169 31.7614 50.4033 32.0421 50.6784 32.5197ZM49.3652 45.0828C49.9306 45.0828 50.3915 44.6222 50.3915 44.0572C50.3915 43.4921 49.9306 43.0315 49.3652 43.0315C48.7998 43.0315 48.3389 43.4921 48.3389 44.0572C48.3389 44.6222 48.7998 45.0828 49.3652 45.0828ZM49.3652 41.9579C49.7969 41.9579 50.1516 41.6171 50.1671 41.1857L50.3693 35.5797C50.3778 35.3537 50.3024 35.1568 50.1447 34.9941C49.9888 34.8314 49.7935 34.7492 49.5673 34.7492H49.1631C48.9368 34.7492 48.7432 34.8314 48.5856 34.9941C48.4296 35.1568 48.3543 35.3537 48.3611 35.5797L48.5651 41.1857C48.5722 41.393 48.6596 41.5894 48.8089 41.7335C48.9581 41.8776 49.1576 41.958 49.3652 41.9579Z" fill="white"></path>
  <defs>
    <linearGradient id="paint0_linear_982_459" x1="40.5" y1="0" x2="40.5" y2="80" gradientUnits="userSpaceOnUse">
      <stop stop-color="#8788FF"></stop>
      <stop offset="1" stop-color="#5A5EFF"></stop>
    </linearGradient>
  </defs>
</svg>
