<svg xmlns="http://www.w3.org/2000/svg" width="110" height="110" viewBox="0 0 110 110" fill="none"><g clip-path="url(#clip0_488_69)"><circle cx="55" cy="55" r="55" fill="white"></circle><circle cx="55" cy="55" r="46" fill="#2EADDC"></circle><path d="M66.1636 58.8242H70.5706V72.3609H66.1636V58.8242Z" fill="white"></path><path d="M53.8586 39.7617L53.8727 39.7758C55.0073 40.9082 55.9072 42.2533 56.521 43.7342C57.1347 45.215 57.4502 46.8025 57.4492 48.4055C57.4492 55.1438 51.9672 60.625 45.2297 60.625C44.3539 60.625 43.5008 60.5281 42.6758 60.3523V76.875H75.4266V42.3687H66.9625C66.7553 42.3687 66.5566 42.2864 66.4101 42.1399C66.2636 41.9934 66.1812 41.7947 66.1812 41.5875V33.125H42.6773V36.4586C44.6687 36.0303 46.7358 36.1083 48.6892 36.6854C50.6427 37.2624 52.4203 38.3201 53.8594 39.7617H53.8586ZM53.5031 73.1422C53.5031 73.3494 53.4208 73.5481 53.2743 73.6946C53.1278 73.8411 52.9291 73.9234 52.7219 73.9234H46.7523C46.5451 73.9234 46.3464 73.8411 46.1999 73.6946C46.0534 73.5481 45.9711 73.3494 45.9711 73.1422V65.375C45.9711 65.1678 46.0534 64.9691 46.1999 64.8226C46.3464 64.6761 46.5451 64.5937 46.7523 64.5937H52.7219C52.9291 64.5937 53.1278 64.6761 53.2743 64.8226C53.4208 64.9691 53.5031 65.1678 53.5031 65.375V73.1422ZM62.818 73.1422C62.818 73.3494 62.7357 73.5481 62.5891 73.6946C62.4426 73.8411 62.2439 73.9234 62.0367 73.9234H56.0672C55.86 73.9234 55.6613 73.8411 55.5148 73.6946C55.3682 73.5481 55.2859 73.3494 55.2859 73.1422V61.8719C55.2859 61.6647 55.3682 61.466 55.5148 61.3194C55.6613 61.1729 55.86 61.0906 56.0672 61.0906H62.0367C62.2439 61.0906 62.4426 61.1729 62.5891 61.3194C62.7357 61.466 62.818 61.6647 62.818 61.8719V73.1422ZM72.1328 73.1422C72.1328 73.3494 72.0505 73.5481 71.904 73.6946C71.7575 73.8411 71.5588 73.9234 71.3516 73.9234H65.382C65.1748 73.9234 64.9761 73.8411 64.8296 73.6946C64.6831 73.5481 64.6008 73.3494 64.6008 73.1422V58.043C64.6008 57.8358 64.6831 57.6371 64.8296 57.4905C64.9761 57.344 65.1748 57.2617 65.382 57.2617H71.3516C71.5588 57.2617 71.7575 57.344 71.904 57.4905C72.0505 57.6371 72.1328 57.8358 72.1328 58.043V73.1422ZM71.3516 54.5227H66.1352C65.928 54.5227 65.7292 54.4403 65.5827 54.2938C65.4362 54.1473 65.3539 53.9486 65.3539 53.7414C65.3539 53.5342 65.4362 53.3355 65.5827 53.189C65.7292 53.0425 65.928 52.9602 66.1352 52.9602H71.3516C71.5588 52.9602 71.7575 53.0425 71.904 53.189C72.0505 53.3355 72.1328 53.5342 72.1328 53.7414C72.1328 53.9486 72.0505 54.1473 71.904 54.2938C71.7575 54.4403 71.5588 54.5227 71.3516 54.5227ZM60.9187 45.95H71.3516C71.5588 45.95 71.7575 46.0323 71.904 46.1788C72.0505 46.3253 72.1328 46.524 72.1328 46.7313C72.1328 46.9385 72.0505 47.1372 71.904 47.2837C71.7575 47.4302 71.5588 47.5125 71.3516 47.5125H60.9187C60.7115 47.5125 60.5128 47.4302 60.3663 47.2837C60.2198 47.1372 60.1375 46.9385 60.1375 46.7313C60.1375 46.524 60.2198 46.3253 60.3663 46.1788C60.5128 46.0323 60.7115 45.95 60.9187 45.95ZM60.9187 49.4547H71.3516C71.5588 49.4547 71.7575 49.537 71.904 49.6835C72.0505 49.83 72.1328 50.0287 72.1328 50.2359C72.1328 50.4431 72.0505 50.6419 71.904 50.7884C71.7575 50.9349 71.5588 51.0172 71.3516 51.0172H60.9187C60.7115 51.0172 60.5128 50.9349 60.3663 50.7884C60.2198 50.6419 60.1375 50.4431 60.1375 50.2359C60.1375 50.0287 60.2198 49.83 60.3663 49.6835C60.5128 49.537 60.7115 49.4547 60.9187 49.4547Z" fill="white"></path><path d="M56.8485 62.6529H61.2556V72.3607H56.8485V62.6529ZM67.7438 34.2295V40.8061H74.3204L67.7438 34.2295ZM45.2306 59.0631C47.8868 59.0631 50.3142 58.0795 52.1821 56.4654L44.6735 48.9576C44.5274 48.8109 44.4451 48.6124 44.4446 48.4053V37.7881C38.9345 38.1928 34.5728 42.7943 34.5728 48.4061C34.5728 54.2826 39.3532 59.0631 45.2306 59.0631Z" fill="white"></path><path d="M46.0073 46.5196L52.1815 40.3454C50.4531 38.8494 48.2873 37.9522 46.0073 37.7876V46.5188V46.5196ZM47.5339 66.1563H51.9409V72.361H47.5339V66.1563ZM55.8878 48.4063C55.8878 45.7478 54.9026 43.3188 53.287 41.4501L46.3315 48.4056L53.2878 55.3618C54.9646 53.4326 55.888 50.9625 55.8878 48.4063Z" fill="white"></path></g><defs><clipPath id="clip0_488_69"><rect width="110" height="110" fill="white"></rect></clipPath></defs></svg>