<?xml version="1.0" encoding="UTF-8"?>
<svg xmlns="http://www.w3.org/2000/svg" width="89" height="88" viewBox="0 0 89 88" fill="none">
  <rect x="0.333984" width="88" height="88" rx="44" fill="url(#paint0_linear_617_663)"></rect>
  <path d="M28.1621 44C28.1621 44.4172 28.2858 44.825 28.5176 45.1719C28.7494 45.5188 29.0788 45.7892 29.4643 45.9488C29.8497 46.1085 30.2738 46.1502 30.683 46.0688C31.0922 45.9875 31.468 45.7866 31.763 45.4916C32.058 45.1966 32.2589 44.8207 32.3403 44.4115C32.4217 44.0023 32.3799 43.5782 32.2203 43.1928C32.0606 42.8073 31.7903 42.4779 31.4434 42.2461C31.0965 42.0143 30.6887 41.8906 30.2715 41.8906C29.7122 41.8913 29.1761 42.1137 28.7806 42.5091C28.3852 42.9046 28.1627 43.4408 28.1621 44ZM30.2715 42.9453C30.4801 42.9453 30.684 43.0072 30.8574 43.1231C31.0309 43.239 31.1661 43.4037 31.2459 43.5964C31.3257 43.7891 31.3466 44.0012 31.3059 44.2058C31.2652 44.4103 31.1648 44.5983 31.0173 44.7458C30.8698 44.8933 30.6818 44.9937 30.4772 45.0344C30.2727 45.0751 30.0606 45.0542 29.8679 44.9744C29.6752 44.8946 29.5104 44.7594 29.3945 44.586C29.2787 44.4125 29.2168 44.2086 29.2168 44C29.2168 43.7203 29.3279 43.452 29.5257 43.2542C29.7235 43.0564 29.9918 42.9453 30.2715 42.9453Z" fill="white"></path>
  <path d="M55.584 46.1094C57.3299 46.1094 59.0388 46.6129 60.5059 47.5596V36.2656H55.9217C56.01 36.5139 56.0826 36.7675 56.139 37.0249C56.7753 37.1538 57.3476 37.4985 57.759 38.0008C58.1704 38.503 58.3956 39.132 58.3965 39.7812V44C58.3965 44.1865 58.3224 44.3653 58.1905 44.4972C58.0587 44.629 57.8798 44.7031 57.6934 44.7031H56.9902C56.8038 44.7031 56.6249 44.629 56.493 44.4972C56.3612 44.3653 56.2871 44.1865 56.2871 44C56.2871 43.8135 56.3612 43.6347 56.493 43.5028C56.6249 43.371 56.8038 43.2969 56.9902 43.2969V39.7812C56.9902 39.4083 56.8421 39.0506 56.5784 38.7869C56.3146 38.5232 55.9569 38.375 55.584 38.375C55.211 38.375 54.8533 38.5232 54.5896 38.7869C54.3259 39.0506 54.1777 39.4083 54.1777 39.7812V43.2969C54.3642 43.2969 54.5431 43.371 54.6749 43.5028C54.8068 43.6347 54.8809 43.8135 54.8809 44C54.8809 44.1865 54.8068 44.3653 54.6749 44.4972C54.5431 44.629 54.3642 44.7031 54.1777 44.7031H53.4746C53.2881 44.7031 53.1093 44.629 52.9774 44.4972C52.8456 44.3653 52.7715 44.1865 52.7715 44V39.7812C52.7736 39.1897 52.9625 38.6138 53.3113 38.136C53.6601 37.6582 54.151 37.3028 54.7139 37.1206C54.6366 36.8263 54.5313 36.54 54.3995 36.2656H49.959C49.7725 36.2656 49.5937 36.1915 49.4618 36.0597C49.3299 35.9278 49.2559 35.749 49.2559 35.5625V25.0156H36.5996V35.5625C36.5996 35.749 36.5255 35.9278 36.3937 36.0597C36.2618 36.1915 36.083 36.2656 35.8965 36.2656H31.4636C31.1437 36.9229 30.9765 37.644 30.9746 38.375V40.5555C31.8282 40.7297 32.5868 41.2147 33.1031 41.9164C33.6195 42.6182 33.8569 43.4866 33.7693 44.3534C33.6817 45.2202 33.2754 46.0237 32.6292 46.6079C31.9829 47.1922 31.1427 47.5157 30.2715 47.5157C29.4003 47.5157 28.5601 47.1922 27.9138 46.6079C27.2675 46.0237 26.8612 45.2202 26.7737 44.3534C26.6861 43.4866 26.9235 42.6182 27.4399 41.9164C27.9562 41.2147 28.7147 40.7297 29.5684 40.5555V38.375C29.572 37.6555 29.6992 36.942 29.9444 36.2656H25.3496V48.9219H35.8965C36.083 48.9219 36.2618 48.996 36.3937 49.1278C36.5255 49.2597 36.5996 49.4385 36.5996 49.625V60.1719H47.8936C47.0062 58.7923 46.5072 57.199 46.4489 55.5597C46.3906 53.9204 46.7752 52.2957 47.5622 50.8566C48.3493 49.4174 49.5096 48.217 50.9213 47.3816C52.3329 46.5462 53.9437 46.1067 55.584 46.1094Z" fill="white"></path>
  <path d="M35.1936 33.5071C34.1619 33.6569 33.2043 34.1304 32.459 34.8594H35.1936V33.5071Z" fill="white"></path>
  <path d="M50.6621 33.5071V34.8594H53.3955C52.6505 34.1306 51.6934 33.6571 50.6621 33.5071Z" fill="white"></path>
  <path d="M55.584 50.3281C54.6105 50.3281 53.6589 50.6168 52.8495 51.1576C52.0401 51.6984 51.4093 52.4671 51.0368 53.3665C50.6642 54.2658 50.5668 55.2555 50.7567 56.2102C50.9466 57.165 51.4154 58.042 52.1037 58.7303C52.792 59.4186 53.669 59.8874 54.6238 60.0773C55.5785 60.2672 56.5682 60.1697 57.4675 59.7972C58.3669 59.4247 59.1356 58.7938 59.6764 57.9844C60.2172 57.175 60.5059 56.2235 60.5059 55.25C60.5044 53.9451 59.9854 52.694 59.0627 51.7713C58.1399 50.8486 56.8889 50.3296 55.584 50.3281ZM56.6754 58.5078C56.5503 58.5656 56.4204 58.6125 56.2871 58.6479V59.4688H54.8809V58.6479C54.7475 58.6123 54.6175 58.5653 54.4922 58.5073L53.8636 58.1932C53.7794 58.1529 53.7041 58.0963 53.642 58.0266C53.58 57.9569 53.5324 57.8755 53.5021 57.7872C53.4718 57.6989 53.4594 57.6055 53.4656 57.5124C53.4717 57.4193 53.4964 57.3283 53.5381 57.2448C53.5798 57.1613 53.6377 57.0869 53.7084 57.026C53.7792 56.9652 53.8613 56.919 53.9501 56.8902C54.0389 56.8613 54.1325 56.8505 54.2255 56.8583C54.3185 56.866 54.4091 56.8922 54.4919 56.9353L55.1208 57.2494C55.2647 57.3209 55.4232 57.3581 55.5838 57.3581C55.7445 57.3581 55.9029 57.3209 56.0468 57.2494C56.119 57.2134 56.1797 57.1579 56.2221 57.0893C56.2645 57.0207 56.287 56.9416 56.287 56.8609C56.287 56.7803 56.2645 56.7012 56.2221 56.6326C56.1797 56.564 56.119 56.5085 56.0468 56.4725L54.4919 55.6948C54.1861 55.542 53.9289 55.307 53.7491 55.0162C53.5693 54.7254 53.4741 54.3903 53.4741 54.0484C53.4741 53.7066 53.5693 53.3715 53.7491 53.0807C53.9289 52.7899 54.1861 52.5549 54.4919 52.4021C54.6172 52.3444 54.7474 52.2976 54.8809 52.2624V51.0312H56.2871V52.2623C56.4205 52.2978 56.5505 52.3447 56.6758 52.4025L57.3047 52.717C57.3873 52.7583 57.461 52.8155 57.5215 52.8852C57.582 52.955 57.6281 53.036 57.6573 53.1236C57.6865 53.2112 57.6982 53.3037 57.6917 53.3958C57.6851 53.4879 57.6605 53.5778 57.6192 53.6604C57.5779 53.743 57.5207 53.8167 57.451 53.8772C57.3812 53.9377 57.3002 53.9838 57.2126 54.013C57.125 54.0422 57.0325 54.0539 56.9404 54.0474C56.8483 54.0408 56.7584 54.0162 56.6758 53.9749L56.0468 53.6604C55.903 53.5888 55.7446 53.5515 55.584 53.5515C55.4234 53.5515 55.2649 53.5888 55.1212 53.6604C55.049 53.6965 54.9883 53.7519 54.9459 53.8205C54.9035 53.8891 54.881 53.9682 54.881 54.0489C54.881 54.1296 54.9035 54.2086 54.9459 54.2772C54.9883 54.3459 55.049 54.4013 55.1212 54.4374L56.6761 55.215C56.9819 55.3678 57.2391 55.6028 57.4189 55.8936C57.5986 56.1844 57.6938 56.5195 57.6938 56.8614C57.6938 57.2033 57.5986 57.5384 57.4189 57.8292C57.2391 58.1199 56.9819 58.3549 56.6761 58.5078H56.6754Z" fill="white"></path>
  <path d="M55.584 47.5156C54.0543 47.5156 52.5589 47.9692 51.287 48.8191C50.0151 49.669 49.0238 50.8769 48.4384 52.2902C47.853 53.7035 47.6998 55.2586 47.9982 56.7589C48.2967 58.2592 49.0333 59.6374 50.115 60.719C51.1966 61.8007 52.5748 62.5373 54.0751 62.8358C55.5754 63.1342 57.1305 62.981 58.5438 62.3956C59.9571 61.8102 61.165 60.8189 62.0149 59.547C62.8648 58.2751 63.3184 56.7797 63.3184 55.25C63.316 53.1994 62.5004 51.2335 61.0504 49.7835C59.6005 48.3336 57.6346 47.518 55.584 47.5156ZM55.584 61.5781C54.3324 61.5781 53.1089 61.207 52.0683 60.5116C51.0276 59.8163 50.2165 58.828 49.7376 57.6717C49.2586 56.5154 49.1333 55.243 49.3775 54.0154C49.6216 52.7879 50.2243 51.6603 51.1093 50.7753C51.9943 49.8903 53.1219 49.2876 54.3494 49.0435C55.577 48.7993 56.8493 48.9246 58.0057 49.4036C59.162 49.8825 60.1503 50.6936 60.8456 51.7343C61.541 52.7749 61.9121 53.9984 61.9121 55.25C61.9102 56.9277 61.2428 58.5362 60.0565 59.7225C58.8702 60.9088 57.2617 61.5762 55.584 61.5781Z" fill="white"></path>
  <defs>
    <linearGradient id="paint0_linear_617_663" x1="44.334" y1="0" x2="44.334" y2="88" gradientUnits="userSpaceOnUse">
      <stop stop-color="#8687FF"></stop>
      <stop offset="1" stop-color="#5C5FFF"></stop>
    </linearGradient>
  </defs>
</svg>
