<svg xmlns="http://www.w3.org/2000/svg" width="93" height="93" viewBox="0 0 93 93" fill="none"><circle cx="46.5527" cy="46.6826" r="46" fill="white"></circle><circle cx="46.5527" cy="46.6826" r="36" fill="url(#paint0_linear_956_3178)"></circle><path fill-rule="evenodd" clip-rule="evenodd" d="M38.3568 28.7031H49.3685V31.8141C49.3685 32.6853 50.0761 33.3929 50.9473 33.3929H54.0583V48.6963C54.058 48.8062 54.0143 48.9116 53.9365 48.9893C53.8588 49.0671 53.7534 49.1108 53.6435 49.111H38.3568C38.2469 49.1108 38.1415 49.0671 38.0638 48.9893C37.986 48.9116 37.9423 48.8062 37.9421 48.6963V29.1179C37.9423 29.008 37.986 28.9026 38.0638 28.8248C38.1415 28.7471 38.2469 28.7033 38.3568 28.7031ZM50.7399 28.7391V31.8142C50.74 31.8691 50.7619 31.9218 50.8008 31.9607C50.8397 31.9996 50.8924 32.0214 50.9473 32.0215H54.0224C54.0014 31.9762 53.9724 31.9351 53.9368 31.9L50.8614 28.8246C50.8264 28.7891 50.7852 28.7601 50.7399 28.7391ZM50.1505 40.6648H41.8498C41.7034 40.6648 41.563 40.7229 41.4595 40.8264C41.356 40.9299 41.2979 41.0703 41.2979 41.2167C41.2979 41.3631 41.356 41.5035 41.4595 41.607C41.563 41.7105 41.7034 41.7687 41.8498 41.7687H50.1505C50.2954 41.7664 50.4335 41.7072 50.5351 41.6039C50.6367 41.5007 50.6937 41.3616 50.6937 41.2167C50.6937 41.0718 50.6367 40.9328 50.5351 40.8295C50.4335 40.7262 50.2954 40.6671 50.1505 40.6648ZM50.1505 45.714H41.8498C41.7045 45.7156 41.5657 45.7745 41.4636 45.8778C41.3614 45.9811 41.3041 46.1206 41.3041 46.2659C41.3041 46.4112 41.3614 46.5506 41.4636 46.654C41.5657 46.7573 41.7045 46.8162 41.8498 46.8178H50.1505C50.2958 46.8162 50.4346 46.7573 50.5367 46.654C50.6389 46.5506 50.6962 46.4112 50.6962 46.2659C50.6962 46.1206 50.6389 45.9811 50.5367 45.8778C50.4346 45.7745 50.2958 45.7156 50.1505 45.714ZM50.1505 43.1893H41.8498C41.7034 43.1893 41.563 43.2475 41.4595 43.351C41.356 43.4545 41.2979 43.5949 41.2979 43.7413C41.2979 43.8877 41.356 44.0281 41.4595 44.1316C41.563 44.2351 41.7034 44.2932 41.8498 44.2932H50.1505C50.2969 44.2932 50.4373 44.2351 50.5408 44.1316C50.6443 44.0281 50.7024 43.8877 50.7024 43.7413C50.7024 43.5949 50.6443 43.4545 50.5408 43.351C50.4373 43.2475 50.2969 43.1893 50.1505 43.1893ZM45.048 32.1935C44.993 32.1936 44.9403 32.2155 44.9014 32.2543C44.8626 32.2932 44.8407 32.3459 44.8406 32.4009V33.9375H43.304C43.249 33.9376 43.1963 33.9595 43.1574 33.9983C43.1186 34.0372 43.0967 34.0899 43.0966 34.1449V36.0493C43.0967 36.1043 43.1186 36.157 43.1574 36.1958C43.1963 36.2347 43.249 36.2566 43.304 36.2567H44.8406V37.7933C44.8407 37.8483 44.8626 37.901 44.9014 37.9399C44.9403 37.9787 44.993 38.0006 45.048 38.0007H46.9523C47.0073 38.0006 47.06 37.9787 47.0989 37.9399C47.1377 37.901 47.1596 37.8483 47.1597 37.7933V36.2567H48.6964C48.7513 36.2566 48.804 36.2348 48.8429 36.1959C48.8818 36.157 48.9037 36.1043 48.9038 36.0493V34.1449C48.9037 34.0899 48.8818 34.0372 48.8429 33.9983C48.804 33.9594 48.7513 33.9376 48.6964 33.9375H47.1597V32.4009C47.1596 32.346 47.1377 32.2933 47.0989 32.2544C47.06 32.2155 47.0073 32.1937 46.9523 32.1936L45.048 32.1935ZM38.2343 63.2969H53.7368C54.2101 63.2969 54.5939 62.9131 54.5939 62.4398C54.5939 61.9664 54.2101 61.5827 53.7368 61.5827H50.4337C50.1855 60.2777 50.0651 58.8334 50.1738 57.5374H60.4465C61.7842 57.5374 62.8685 56.4531 62.8685 55.1155V35.7496C62.8685 34.4119 61.7842 33.3276 60.4466 33.3276H55.4298V34.8362H60.4466C60.9516 34.8362 61.36 35.2446 61.36 35.7496V52.3169H30.6404V35.7496C30.6404 35.2446 31.0488 34.8362 31.5538 34.8362H36.5706V33.3276H31.5538C30.2161 33.3276 29.1318 34.4119 29.1318 35.7496V55.1155C29.1318 56.4531 30.2161 57.5374 31.5538 57.5374H41.7489C41.8602 58.8333 41.7576 60.2777 41.5274 61.5827H38.2342C37.7608 61.5827 37.3771 61.9664 37.3771 62.4398C37.3771 62.9131 37.7609 63.2969 38.2343 63.2969Z" fill="white"></path><defs><linearGradient id="paint0_linear_956_3178" x1="46.5527" y1="10.6826" x2="46.5527" y2="82.6826" gradientUnits="userSpaceOnUse"><stop stop-color="#FF81F1"></stop><stop offset="1" stop-color="#FF41B2"></stop></linearGradient></defs></svg>