<?xml version="1.0" encoding="UTF-8"?>
<svg xmlns="http://www.w3.org/2000/svg" width="80" height="80" viewBox="0 0 80 80" fill="none">
  <rect width="80" height="80" rx="40" fill="url(#paint0_linear_617_1090)"></rect>
  <path fill-rule="evenodd" clip-rule="evenodd" d="M43.895 35.871L53.7439 52.9299C54.5536 54.3324 54.5536 56.025 53.7439 57.4275C52.9342 58.8301 51.4683 59.6763 49.8488 59.6763H30.1511C28.5316 59.6763 27.0658 58.83 26.256 57.4275C25.4463 56.025 25.4463 54.3324 26.256 52.9299L36.1049 35.871C36.9147 34.4685 38.3805 33.6223 40 33.6223C41.6195 33.6223 43.0852 34.4685 43.895 35.871ZM49.3255 35.2667L53.1507 30.7614C53.3043 30.5806 53.1761 30.3038 52.9389 30.3038H51.0945V21.6883H47.1328V30.3037H45.2884C45.0512 30.3037 44.923 30.5805 45.0766 30.7613L48.9018 35.2666C49.0129 35.3975 49.2146 35.3974 49.3255 35.2667ZM33.0848 33.9019L36.91 29.3966C37.0636 29.2159 36.9354 28.939 36.6982 28.939H34.8538V20.3236H30.8922V28.939H29.0477C28.8105 28.939 28.6823 29.2159 28.8359 29.3966L32.6611 33.9019C32.772 34.0327 32.9738 34.0326 33.0848 33.9019ZM23.2219 49.2608L27.0472 44.7554C27.2008 44.5747 27.0726 44.2978 26.8354 44.2978H24.991V33.5048H21.0293V44.2978H19.1849C18.9476 44.2978 18.8195 44.5747 18.973 44.7554L22.7983 49.2608C22.9093 49.3916 23.1109 49.3915 23.2219 49.2608ZM57.2017 47.724L61.027 43.2187C61.1805 43.0379 61.0523 42.761 60.8151 42.761H58.9707V31.9681H55.0091V42.7611H53.1646C52.9274 42.7611 52.7992 43.038 52.9528 43.2188L56.7781 47.7241C56.8891 47.8548 57.0907 47.8547 57.2017 47.724ZM40 53.3978C39.1669 53.3978 38.4916 54.0732 38.4916 54.9062C38.4916 55.7392 39.167 56.4146 40 56.4146C40.833 56.4146 41.5084 55.7393 41.5084 54.9062C41.5084 54.0732 40.833 53.3978 40 53.3978ZM40 50.7052C40.6336 50.7052 41.1537 50.2034 41.1766 49.5703L41.4743 41.3282C41.4984 40.6575 40.9689 40.1083 40.2976 40.1083C39.8768 40.1083 40.123 40.1083 39.7023 40.1083C39.0311 40.1083 38.5015 40.6575 38.5256 41.3282L38.8233 49.5703C38.8462 50.2035 39.3664 50.7052 40 50.7052Z" fill="white"></path>
  <defs>
    <linearGradient id="paint0_linear_617_1090" x1="40" y1="0" x2="40" y2="80" gradientUnits="userSpaceOnUse">
      <stop stop-color="#FF7580"></stop>
      <stop offset="1" stop-color="#FF4A9F"></stop>
    </linearGradient>
  </defs>
</svg>
