<svg xmlns="http://www.w3.org/2000/svg" width="93" height="93" viewBox="0 0 93 93" fill="none"><circle cx="46.5529" cy="46.6824" r="46" fill="white"></circle><circle cx="46.5529" cy="46.6824" r="36" fill="url(#paint0_linear_7_1206)"></circle><path d="M52.4352 31.9567H46.7448C46.7973 31.6317 46.7785 31.2992 46.6898 30.9821C46.6012 30.665 46.4447 30.371 46.2312 30.1204C46.0178 29.8697 45.7524 29.6684 45.4535 29.5303C45.1546 29.3923 44.8293 29.3208 44.5001 29.3208C44.1709 29.3208 43.8456 29.3923 43.5467 29.5303C43.2478 29.6684 42.9824 29.8697 42.769 30.1204C42.5555 30.371 42.3991 30.665 42.3104 30.9821C42.2217 31.2992 42.2029 31.6317 42.2554 31.9567H36.5648C35.921 31.9571 35.3036 32.2131 34.8483 32.6684C34.3931 33.1236 34.1371 33.741 34.1367 34.3849V57.5177C34.1371 58.1615 34.3931 58.7789 34.8483 59.2342C35.3036 59.6895 35.921 59.9454 36.5648 59.9458H52.4352C53.079 59.9454 53.6964 59.6895 54.1517 59.2342C54.6069 58.7789 54.8629 58.1615 54.8633 57.5177V34.3849C54.8629 33.741 54.6069 33.1236 54.1517 32.6684C53.6964 32.2131 53.079 31.9571 52.4352 31.9567ZM51.068 56.0028H37.932C37.7885 56.0006 37.6515 55.942 37.5508 55.8397C37.45 55.7374 37.3936 55.5995 37.3936 55.4559C37.3936 55.3124 37.4501 55.1745 37.5508 55.0722C37.6515 54.9699 37.7885 54.9113 37.9321 54.9091H51.068C51.2115 54.9113 51.3485 54.9699 51.4492 55.0722C51.55 55.1745 51.6064 55.3124 51.6064 55.456C51.6064 55.5995 51.55 55.7374 51.4492 55.8397C51.3485 55.942 51.2115 56.0006 51.068 56.0028ZM44.5 48.8333C43.1373 48.8312 41.831 48.2889 40.8674 47.3253C39.9038 46.3617 39.3615 45.0554 39.3594 43.6927C39.3594 39.6895 43.9586 35.8942 44.1555 35.7356C44.2527 35.6561 44.3744 35.6126 44.5 35.6126C44.6256 35.6126 44.7473 35.6561 44.8445 35.7356C45.0414 35.8942 49.6406 39.6895 49.6406 43.6927C49.6385 45.0554 49.0962 46.3617 48.1326 47.3253C47.169 48.2889 45.8627 48.8312 44.5 48.8333ZM49.1922 52.2895C49.1918 52.4345 49.134 52.5733 49.0315 52.6758C48.9291 52.7782 48.7902 52.836 48.6453 52.8364H46.6766C46.5315 52.8364 46.3924 52.7788 46.2899 52.6762C46.1873 52.5737 46.1297 52.4346 46.1297 52.2895C46.1297 52.1445 46.1873 52.0054 46.2899 51.9028C46.3924 51.8003 46.5315 51.7427 46.6766 51.7427H48.6453C48.7902 51.7431 48.9291 51.8009 49.0315 51.9033C49.134 52.0058 49.1918 52.1446 49.1922 52.2895ZM44.8336 52.2895C44.8338 52.3614 44.8199 52.4327 44.7925 52.4991C44.7651 52.5656 44.7248 52.626 44.674 52.6768C44.6231 52.7276 44.5628 52.7679 44.4963 52.7953C44.4298 52.8227 44.3586 52.8367 44.2867 52.8364H40.3547C40.2096 52.8364 40.0705 52.7788 39.968 52.6762C39.8654 52.5737 39.8078 52.4346 39.8078 52.2895C39.8078 52.1445 39.8654 52.0054 39.968 51.9028C40.0705 51.8003 40.2096 51.7427 40.3547 51.7427H44.2867C44.3586 51.7424 44.4298 51.7564 44.4963 51.7838C44.5628 51.8112 44.6231 51.8515 44.674 51.9023C44.7248 51.9531 44.7651 52.0135 44.7925 52.08C44.8199 52.1464 44.8338 52.2177 44.8336 52.2895ZM43.3179 31.5967C43.3194 31.4275 43.3573 31.2606 43.4291 31.1074C43.5009 30.9541 43.6048 30.8182 43.7339 30.7087C43.8629 30.5993 44.0141 30.5189 44.177 30.4731C44.3398 30.4273 44.5107 30.4171 44.6779 30.4432C44.8451 30.4694 45.0046 30.5312 45.1458 30.6246C45.2869 30.7179 45.4063 30.8406 45.4958 30.9842C45.5853 31.1278 45.6427 31.289 45.6643 31.4568C45.6859 31.6247 45.6711 31.7952 45.6209 31.9568L43.3793 31.9567C43.34 31.8407 43.3193 31.7192 43.3179 31.5967Z" fill="white"></path><path d="M44.5 36.884C43.4609 37.8192 40.4531 40.7942 40.4531 43.6926C40.4531 44.2241 40.5578 44.7503 40.7612 45.2413C40.9645 45.7323 41.2626 46.1784 41.6384 46.5542C42.0142 46.93 42.4603 47.2281 42.9513 47.4315C43.4423 47.6348 43.9686 47.7395 44.5 47.7395C45.0314 47.7395 45.5577 47.6348 46.0487 47.4315C46.5397 47.2281 46.9858 46.93 47.3616 46.5542C47.7374 46.1784 48.0354 45.7323 48.2388 45.2413C48.4422 44.7503 48.5469 44.2241 48.5469 43.6926C48.5469 40.7887 45.5391 37.8192 44.5 36.884ZM45.7195 43.5833H45.0469V44.2504C45.0469 44.3955 44.9893 44.5346 44.8867 44.6371C44.7841 44.7397 44.645 44.7973 44.5 44.7973C44.355 44.7973 44.2159 44.7397 44.1133 44.6371C44.0107 44.5346 43.9531 44.3955 43.9531 44.2504V43.5833H43.2805C43.1368 43.5811 42.9998 43.5226 42.899 43.4202C42.7982 43.3179 42.7416 43.18 42.7416 43.0364C42.7416 42.8927 42.7982 42.7548 42.899 42.6525C42.9998 42.5502 43.1368 42.4916 43.2805 42.4895H43.9531V41.8168C43.9531 41.6718 44.0107 41.5327 44.1133 41.4301C44.2159 41.3276 44.355 41.27 44.5 41.27C44.645 41.27 44.7841 41.3276 44.8867 41.4301C44.9893 41.5327 45.0469 41.6718 45.0469 41.8168V42.4895H45.7195C45.8632 42.4916 46.0002 42.5502 46.101 42.6525C46.2018 42.7548 46.2584 42.8927 46.2584 43.0364C46.2584 43.18 46.2018 43.3179 46.101 43.4202C46.0002 43.5226 45.8632 43.5811 45.7195 43.5833Z" fill="white"></path><defs><linearGradient id="paint0_linear_7_1206" x1="46.5529" y1="10.6824" x2="46.5529" y2="82.6824" gradientUnits="userSpaceOnUse"><stop stop-color="#8DD1FF"></stop><stop offset="1" stop-color="#359BFF"></stop></linearGradient></defs></svg>