<?xml version="1.0" encoding="UTF-8"?>
<svg xmlns="http://www.w3.org/2000/svg" width="81" height="80" viewBox="0 0 81 80" fill="none">
  <rect x="0.5" width="80" height="80" rx="40" fill="url(#paint0_linear_1074_466)"></rect>
  <path d="M57.6998 30.4668V27.6C57.6998 26.024 56.4094 24.7332 54.833 24.7332H26.1666C24.5902 24.7332 23.2998 26.024 23.2998 27.6V30.4668H57.6998ZM40.4998 39.7832C40.1197 39.7833 39.7551 39.9344 39.4864 40.2032C39.2176 40.472 39.0666 40.8366 39.0666 41.2168V48.3832C39.0619 48.5743 39.0955 48.7645 39.1655 48.9425C39.2354 49.1204 39.3402 49.2826 39.4737 49.4195C39.6073 49.5564 39.7669 49.6651 39.9431 49.7394C40.1193 49.8136 40.3086 49.8519 40.4998 49.8519C40.691 49.8519 40.8803 49.8136 41.0565 49.7394C41.2327 49.6651 41.3923 49.5564 41.5259 49.4195C41.6594 49.2826 41.7642 49.1204 41.8342 48.9425C41.9041 48.7645 41.9377 48.5743 41.933 48.3832V41.2168C41.9332 41.0285 41.8962 40.842 41.8243 40.668C41.7523 40.4941 41.6467 40.336 41.5136 40.2028C41.3805 40.0697 41.2225 39.9641 41.0485 39.8921C40.8745 39.82 40.6881 39.783 40.4998 39.7832Z" fill="white"></path>
  <path d="M23.2998 33.3331V53.3999C23.2998 54.9759 24.5902 56.2667 26.1666 56.2667H54.833C56.4094 56.2667 57.6998 54.9759 57.6998 53.3999V33.3331H23.2998ZM34.0498 51.9667H31.8998V46.2331H27.5998V37.6331H29.7498V44.0831H31.8998V37.6331H34.0498V51.9667ZM44.083 48.3831C44.083 48.8537 43.9904 49.3197 43.8104 49.7545C43.6303 50.1893 43.3664 50.5843 43.0337 50.9171C42.7009 51.2499 42.3059 51.5139 41.8711 51.694C41.4364 51.8741 40.9704 51.9667 40.4998 51.9667C40.0292 51.9669 39.5631 51.8743 39.1283 51.6943C38.6934 51.5143 38.2983 51.2503 37.9656 50.9175C37.6328 50.5847 37.3689 50.1895 37.1889 49.7547C37.0089 49.3198 36.9164 48.8538 36.9166 48.3831V41.2167C36.9166 40.7462 37.0092 40.2802 37.1892 39.8454C37.3693 39.4106 37.6332 39.0155 37.966 38.6828C38.2987 38.35 38.6937 38.086 39.1285 37.9059C39.5632 37.7258 40.0292 37.6331 40.4998 37.6331C40.9704 37.633 41.4365 37.7255 41.8713 37.9056C42.3062 38.0856 42.7013 38.3496 43.034 38.6824C43.3668 39.0152 43.6307 39.4103 43.8107 39.8452C43.9907 40.28 44.0832 40.7461 44.083 41.2167V48.3831ZM53.3998 51.9667H51.2498V46.2331H46.9498V37.6331H49.0998V44.0831H51.2498V37.6331H53.3998V51.9667Z" fill="white"></path>
  <defs>
    <linearGradient id="paint0_linear_1074_466" x1="40.5" y1="0" x2="40.5" y2="80" gradientUnits="userSpaceOnUse">
      <stop stop-color="#8788FF"></stop>
      <stop offset="1" stop-color="#5A5EFF"></stop>
    </linearGradient>
  </defs>
</svg>
