<svg xmlns="http://www.w3.org/2000/svg" width="93" height="93" viewBox="0 0 93 93" fill="none"><circle cx="46.5527" cy="46.6826" r="46" fill="white"></circle><circle cx="46.5527" cy="46.6826" r="36" fill="url(#paint0_linear_956_3158)"></circle><path fill-rule="evenodd" clip-rule="evenodd" d="M42.2454 30.3928L42.4296 31.0798C43.518 30.8682 44.6746 30.7571 45.8475 30.7571C47.0203 30.7571 48.1769 30.8682 49.2654 31.0798L49.4496 30.3928C48.3639 29.9478 47.1264 29.7136 45.8475 29.7136C44.5685 29.7143 43.331 29.9478 42.2454 30.3928ZM52.2543 57.6938C52.2707 57.8016 52.2446 57.9115 52.1815 58.0004C52.1184 58.0893 52.0233 58.1503 51.9161 58.1705L50.1492 58.5059L51.1216 59.4087C51.1626 59.4465 51.1957 59.4921 51.2188 59.5428C51.242 59.5935 51.2549 59.6483 51.2566 59.704C51.2608 59.8165 51.2193 59.9255 51.142 60.0078L49.3427 61.9174H58.3729V61.7438C58.3729 59.2146 56.9906 57.0996 54.6745 56.0843L51.8254 54.8363L52.2543 57.6938ZM49.3786 53.764L50.9128 54.4362L51.3607 57.4175L49.1718 57.8337C49.0951 57.8482 49.0239 57.8837 48.9662 57.9362C48.9085 57.9888 48.8665 58.0563 48.8449 58.1313C48.8233 58.2064 48.823 58.2859 48.844 58.3611C48.865 58.4363 48.9064 58.5042 48.9637 58.5572L50.2371 59.7385L48.3211 61.7712L49.3786 53.764ZM41.5457 58.5066L39.7781 58.1712C39.6711 58.1508 39.5761 58.0898 39.513 58.0009C39.45 57.912 39.4238 57.8022 39.4399 57.6945L39.8695 54.837L37.0197 56.085C34.7036 57.1003 33.3213 59.2153 33.3213 61.7445V61.9182H42.3515L40.5522 60.0085C40.4749 59.9269 40.4341 59.8172 40.4376 59.7047C40.4411 59.5922 40.4896 59.486 40.5726 59.4094L41.5457 58.5066ZM43.3739 61.7712L41.4579 59.7385L42.7319 58.5572C42.789 58.504 42.8303 58.4361 42.8512 58.3609C42.872 58.2856 42.8716 58.2061 42.85 58.1311C42.8286 58.056 42.7866 57.9884 42.7289 57.9359C42.6711 57.8834 42.5999 57.848 42.5231 57.8337L40.3343 57.4175L40.7821 54.4362L42.3164 53.764L43.3739 61.7712ZM45.8468 55.2785C44.7822 55.2785 43.8133 54.7976 43.2002 54.0171L44.2436 61.9174H47.4506L48.4933 54.0171C47.8809 54.7969 46.912 55.2785 45.8468 55.2785ZM45.7005 52.2354C45.7476 52.2523 45.7975 52.2614 45.8468 52.2614C45.896 52.2614 45.9459 52.253 45.993 52.2354C46.5323 52.0364 47.0435 51.796 47.5258 51.521V51.7186C47.5258 52.246 47.7339 52.7255 48.0925 53.0721C47.6946 53.8969 46.8269 54.4355 45.8468 54.4355C44.8666 54.4355 43.9989 53.8976 43.601 53.0721C43.9596 52.7255 44.1677 52.246 44.1677 51.7186V51.5098C44.6543 51.7939 45.1661 52.0378 45.7005 52.2354ZM48.3618 39.5686C46.4212 40.8814 44.1079 41.5746 41.6589 41.5746H40.2288V43.0913C40.2288 46.763 42.4795 50.0768 45.8468 51.3882C49.2654 50.0642 51.4647 46.9571 51.4647 43.4316C51.4654 41.5662 50.171 39.968 48.3618 39.5686ZM45.8468 36.5051C44.077 36.5051 42.3691 36.9228 41.0374 37.6821C40.9221 37.7482 40.7829 37.7553 40.6612 37.7025C40.5396 37.6498 40.4496 37.5429 40.4186 37.4142L39.9475 35.4589C38.8647 36.8053 38.2762 38.4626 38.2762 40.2014V47.3726C38.2762 49.5657 39.9222 51.2953 42.1905 51.4852L43.3239 51.5801V50.9522C42.4818 50.33 41.7465 49.5748 41.1471 48.7163C39.9939 47.0682 39.385 45.1233 39.385 43.0906V41.1521C39.385 40.9186 39.5735 40.7302 39.8069 40.7302H41.6589C43.9638 40.7302 46.2257 40.0355 48.0279 38.7741C48.0732 38.7423 48.1244 38.7198 48.1784 38.7079C48.2325 38.6959 48.2884 38.6948 48.3429 38.7045C50.6407 39.1116 52.3085 41.1 52.3085 43.4316C52.3085 46.4768 50.8214 49.2345 48.3696 50.9817V51.5815L49.5663 51.4824C51.8367 51.2932 53.4841 49.5635 53.4841 47.3691V40.2007C53.4841 38.4317 52.8773 36.7519 51.7614 35.3942L51.2749 37.4142C51.2595 37.4778 51.2296 37.5369 51.1875 37.587C51.1454 37.637 51.0923 37.6765 51.0323 37.7025C50.9723 37.7284 50.907 37.7399 50.8417 37.7363C50.7765 37.7326 50.7129 37.7138 50.6561 37.6814C49.3251 36.9228 47.6172 36.5051 45.8468 36.5051ZM45.8468 31.6015C47.9189 31.6015 49.9319 31.9622 51.5611 32.6217L50.5816 36.69C49.2098 36.0242 47.5511 35.6621 45.8468 35.6621C44.1424 35.6621 42.4837 36.0242 41.1119 36.69L40.1325 32.6217C41.7623 31.9622 43.7746 31.6015 45.8468 31.6015ZM44.3962 33.6385C44.3962 33.8712 44.5854 34.0603 44.8181 34.0603H45.4256V34.6678C45.4256 34.9006 45.6147 35.0897 45.8475 35.0897C46.0802 35.0897 46.2693 34.9006 46.2693 34.6678V34.0603H46.8768C47.1096 34.0603 47.2987 33.8712 47.2987 33.6385C47.2987 33.4057 47.1096 33.2166 46.8768 33.2166H46.2693V32.6091C46.2693 32.3764 46.0802 32.1872 45.8475 32.1872C45.6147 32.1872 45.4256 32.3764 45.4256 32.6091V33.2166H44.8181C44.5846 33.2166 44.3962 33.405 44.3962 33.6385Z" fill="white"></path><defs><linearGradient id="paint0_linear_956_3158" x1="46.5527" y1="10.6826" x2="46.5527" y2="82.6826" gradientUnits="userSpaceOnUse"><stop stop-color="#FFC182"></stop><stop offset="1" stop-color="#FF792E"></stop></linearGradient></defs></svg>