<?xml version="1.0" encoding="UTF-8"?>
<svg xmlns="http://www.w3.org/2000/svg" width="92" height="92" viewBox="0 0 92 92" fill="none">
  <circle cx="46" cy="46" r="46" fill="white"></circle>
  <circle cx="46" cy="46" r="36" fill="url(#paint0_linear_617_532)"></circle>
  <path d="M51.0156 35.4922L54.4954 35.4982L49.3252 30.5156L49.3307 33.2063C49.305 34.2683 49.9087 35.519 51.015 35.4927L51.0156 35.4922ZM53.7117 52.9572C52.5031 52.1123 50.9461 53.6944 51.6582 54.9303C51.7221 55.0479 53.3666 56.718 53.3666 56.718L55.4486 54.6355C54.9777 54.198 54.217 53.3307 53.7117 52.9566V52.9572ZM57.56 56.753L56.0922 55.2792L54.0097 57.3612C54.0097 57.3612 55.3162 58.666 55.4781 58.8295C55.7554 59.0962 56.1261 59.2437 56.5108 59.2402C56.8956 59.2367 57.2636 59.0826 57.536 58.8109C57.8084 58.5392 57.9635 58.1716 57.968 57.7869C57.9725 57.4022 57.826 57.031 57.56 56.753Z" fill="white"></path>
  <path d="M50.5589 54.168C50.5321 51.9717 53.4913 51.0366 54.8289 52.7291V36.6155C54.1158 36.6193 51.7637 36.61 51.0096 36.61C49.294 36.6614 48.162 34.8737 48.2139 33.2057C48.2139 32.5423 48.2139 30.8454 48.2079 30.1875H35.7556C35.0248 30.1901 34.3247 30.482 33.8085 30.9993C33.2923 31.5166 33.002 32.2173 33.001 32.9481V56.9286C33.0023 57.6588 33.2929 58.3587 33.8092 58.875C34.3255 59.3913 35.0254 59.6819 35.7556 59.6832H48.2489C47.9847 59.2025 47.8308 58.6689 47.7983 58.1213C47.7442 57.2473 47.9876 56.3808 48.4889 55.6628C48.9902 54.9449 49.7198 54.4183 50.5589 54.168ZM51.5182 40.1888C51.6633 40.1933 51.801 40.2541 51.902 40.3584C52.0031 40.4627 52.0596 40.6022 52.0596 40.7474C52.0596 40.8926 52.0031 41.0321 51.902 41.1364C51.801 41.2406 51.6633 41.3015 51.5182 41.306H45.1197C44.9746 41.3015 44.8369 41.2406 44.7359 41.1364C44.6348 41.0321 44.5783 40.8926 44.5783 40.7474C44.5783 40.6022 44.6348 40.4627 44.7359 40.3584C44.8369 40.2541 44.9746 40.1933 45.1197 40.1888H51.5182ZM36.2472 36.0598C36.2467 35.9867 36.2607 35.9143 36.2885 35.8466C36.3162 35.779 36.3571 35.7175 36.4088 35.6658C36.4605 35.6141 36.522 35.5732 36.5896 35.5455C36.6573 35.5177 36.7297 35.5037 36.8029 35.5042H38.5572V33.7493C38.5574 33.6004 38.6166 33.4577 38.7219 33.3525C38.8272 33.2473 38.97 33.1882 39.1189 33.1882H41.85C41.9979 33.1895 42.1393 33.2492 42.2433 33.3543C42.3474 33.4594 42.4057 33.6014 42.4056 33.7493V35.5042H44.1605C44.2339 35.5036 44.3068 35.5175 44.3748 35.5451C44.4429 35.5727 44.5048 35.6135 44.557 35.6651C44.6092 35.7168 44.6506 35.7782 44.679 35.846C44.7073 35.9137 44.722 35.9864 44.7221 36.0598V38.7909C44.7221 38.9399 44.663 39.0827 44.5576 39.1881C44.4523 39.2934 44.3095 39.3526 44.1605 39.3526H42.4056V41.1075C42.4046 41.2546 42.3457 41.3953 42.2417 41.4993C42.1378 41.6033 41.997 41.6621 41.85 41.6631H39.1189C38.9709 41.6634 38.8287 41.6052 38.7235 41.5011C38.6183 41.397 38.5585 41.2555 38.5572 41.1075V39.3526H36.8029C36.7294 39.3524 36.6567 39.3378 36.589 39.3094C36.5213 39.2811 36.4598 39.2396 36.4081 39.1874C36.3565 39.1352 36.3157 39.0733 36.2881 39.0052C36.2605 38.9372 36.2466 38.8644 36.2472 38.7909V36.0598ZM36.8029 45.1604H49.1086C49.2538 45.1649 49.3914 45.2258 49.4925 45.33C49.5935 45.4343 49.6501 45.5738 49.6501 45.719C49.6501 45.8642 49.5935 46.0037 49.4925 46.108C49.3914 46.2123 49.2538 46.2731 49.1086 46.2777H36.8029C36.6577 46.2731 36.52 46.2123 36.419 46.108C36.3179 46.0037 36.2614 45.8642 36.2614 45.719C36.2614 45.5738 36.3179 45.4343 36.419 45.33C36.52 45.2258 36.6577 45.1649 36.8029 45.1604ZM36.8029 50.132H51.5182C51.6633 50.1366 51.801 50.1974 51.902 50.3017C52.0031 50.406 52.0596 50.5455 52.0596 50.6907C52.0596 50.8359 52.0031 50.9754 51.902 51.0796C51.801 51.1839 51.6633 51.2448 51.5182 51.2493H36.8029C36.6577 51.2448 36.52 51.1839 36.419 51.0796C36.3179 50.9754 36.2614 50.8359 36.2614 50.6907C36.2614 50.5455 36.3179 50.406 36.419 50.3017C36.52 50.1974 36.6577 50.1366 36.8029 50.132ZM44.2775 56.6891C44.2075 56.8192 44.0896 56.917 43.9487 56.9617C43.8079 57.0064 43.6551 56.9945 43.5229 56.9286L41.4644 55.8638L39.3409 56.7995C39.2652 56.8338 39.1828 56.8506 39.0998 56.8486C39.0167 56.8466 38.9352 56.8259 38.8613 56.788L36.5628 55.6008C36.4355 55.53 36.3408 55.4125 36.2987 55.273C36.2566 55.1336 36.2706 54.9832 36.3375 54.8539C36.4045 54.7246 36.5192 54.6264 36.6573 54.5802C36.7954 54.534 36.9461 54.5435 37.0774 54.6066L39.1364 55.6708L41.2539 54.7291C41.3313 54.6972 41.4146 54.6822 41.4983 54.6853C41.582 54.6883 41.664 54.7092 41.7389 54.7466L44.0375 55.9344C44.1693 56.0027 44.2686 56.1206 44.3136 56.2621C44.3586 56.4036 44.3456 56.5571 44.2775 56.6891Z" fill="white"></path>
  <path d="M39.6748 38.7909V40.5459H41.2892V38.7909C41.2893 38.7176 41.304 38.6449 41.3323 38.5772C41.3606 38.5095 41.402 38.4481 41.4542 38.3964C41.5063 38.3448 41.5682 38.304 41.6361 38.2763C41.7041 38.2487 41.7769 38.2347 41.8503 38.2353H43.5992V36.6215H41.8503C41.7014 36.6213 41.5587 36.5621 41.4535 36.4568C41.3483 36.3515 41.2892 36.2087 41.2892 36.0599V34.3049H39.6748V36.0599C39.6751 36.2079 39.6168 36.35 39.5128 36.4552C39.4087 36.5604 39.2672 36.6202 39.1192 36.6215H37.3643V38.2353H39.1192C39.2665 38.2353 39.4079 38.2939 39.5121 38.3981C39.6163 38.5023 39.6748 38.6436 39.6748 38.7909ZM50.7173 55.0742C50.2129 55.2437 49.7635 55.5462 49.4166 55.9498C49.0698 56.3533 48.8382 56.843 48.7464 57.3672H52.7293C52.271 56.8531 50.9175 55.743 50.7173 55.0742ZM53.566 58.2094H48.7229C48.8017 58.8549 49.091 59.4564 49.5459 59.921C50.0008 60.3857 50.5961 60.6876 51.2398 60.7801C51.8834 60.8726 52.5396 60.7505 53.107 60.4327C53.6743 60.115 54.1212 59.6192 54.3786 59.022L53.566 58.2094Z" fill="white"></path>
  <defs>
    <linearGradient id="paint0_linear_617_532" x1="46" y1="10" x2="46" y2="82" gradientUnits="userSpaceOnUse">
      <stop stop-color="#FF7580"></stop>
      <stop offset="1" stop-color="#FF4A9F"></stop>
    </linearGradient>
  </defs>
</svg>
