<svg xmlns="http://www.w3.org/2000/svg" width="93" height="93" viewBox="0 0 93 93" fill="none"><circle cx="46.5527" cy="46.6826" r="46" fill="white"></circle><circle cx="46.5527" cy="46.6826" r="36" fill="url(#paint0_linear_956_3122)"></circle><path d="M47.5273 45.8909C47.8546 46.2727 48.0728 46.7636 48.0728 47.3091V47.9636H51.1819C51.0728 47.3636 51.1273 47.1454 51.1273 45.8909H47.5273ZM63.4546 46.9272C63.4546 46.3818 63.0183 45.8909 62.4183 45.8909H58.3273C58.3273 47.0909 58.3819 47.3636 58.2728 47.9636H59.2001V52.8727H56.3637C56.3637 53.1454 56.3637 53.3636 56.3092 53.6363H59.2001V55C58.1092 55.1636 57.2364 56.1454 57.2364 57.2909C57.2364 58.6 58.2728 59.6363 59.5819 59.6363C60.891 59.6363 61.9273 58.6 61.9273 57.2909C61.9273 56.1454 61.1092 55.1636 59.9637 55V51.0181H60.0183C60.6183 51.0181 61.7092 50.6363 62.3092 49.9272C62.7455 49.3818 62.9637 48.7272 62.9092 47.9091C63.1819 47.7454 63.4546 47.3636 63.4546 46.9272ZM61.1092 57.2363C61.1092 58.1091 60.4001 58.8181 59.5273 58.8181C58.6546 58.8181 57.9455 58.1091 57.9455 57.2363C57.9455 56.5272 58.4364 55.8727 59.1455 55.7091V57.0727C59.1455 57.2909 59.3092 57.4545 59.5273 57.4545C59.7455 57.4545 59.9092 57.2909 59.9092 57.0727V55.7091C60.6183 55.9272 61.1092 56.5272 61.1092 57.2363ZM59.9092 50.4727V47.9091H62.3092C62.3637 49.4909 61.4364 50.3091 59.9092 50.4727ZM48.0728 53.5818H52.1637V52.8181H48.0728V53.5818Z" fill="white"></path><path d="M45.8907 45.3455L45.9453 44.7455L46.1635 41.5273C46.5453 42.2909 46.9271 43.4364 46.9816 44.8545C47.0362 45.8909 48.5635 45.7818 48.5089 44.8C48.3453 41.2 46.5453 39.2364 46.4362 39.1273C44.5271 37.0545 41.2544 36.5091 38.1453 38.9636C36.5089 40.3818 36.5635 44.0364 36.8362 46.2727C36.8907 46.6545 37.218 46.9818 37.5998 46.9818C38.0362 46.9818 38.418 46.6 38.3635 46.1091C38.1998 45.0182 38.1998 43.4909 38.3635 42.2909C38.4725 41.5818 38.6362 41.0909 38.7998 40.7636C39.018 41.0364 39.0725 41.4182 38.9635 41.8C38.5816 43.1636 38.6907 44.6909 38.8544 45.8909C39.018 47.9636 36.5089 47.9636 36.2907 46.3818C36.2907 46.2182 36.2362 46.0545 36.2362 45.8909H29.5816C28.3816 45.8909 28.1635 47.6364 29.3089 47.9091C29.2544 49.7091 30.3998 50.8 32.0907 50.9636V54.9455C30.9998 55.1091 30.1271 56.0909 30.1271 57.2364C30.1271 58.5455 31.1635 59.5818 32.4725 59.5818C33.7816 59.5818 34.818 58.5455 34.818 57.2364C34.818 56.0909 33.9453 55.1091 32.8544 54.9455V53.5818H40.9816V52.8182H32.8544V47.9091H39.6725C39.7816 48.0182 39.7271 47.9636 41.4725 49.6V55.2727C41.4725 56.1455 42.1816 56.8 42.9998 56.8C43.8725 56.8 44.5271 56.0909 44.5271 55.2727C44.5271 48.4545 44.6362 48.5091 44.1453 47.9091H44.7453C45.0725 48.5091 45.018 55.2182 45.018 55.2727C45.018 55.5455 44.9635 55.7636 44.9089 55.9818C45.1816 56.2545 45.5635 56.3636 45.9453 56.3636C46.818 56.3636 47.4725 55.6545 47.4725 54.8364V47.2545C47.5816 46.1091 46.4362 45.8364 45.8907 45.3455ZM34.0544 57.2364C34.0544 58.1091 33.3453 58.8182 32.4725 58.8182C31.5998 58.8182 30.8907 58.1091 30.8907 57.2364C30.8907 56.5273 31.3816 55.8727 32.0907 55.7091V57.0727C32.0907 57.2909 32.2544 57.4545 32.4725 57.4545C32.6907 57.4545 32.8544 57.2909 32.8544 57.0727V55.7091C33.5635 55.9273 34.0544 56.5273 34.0544 57.2364ZM32.0907 50.4727C30.6725 50.2545 29.7998 49.4364 29.8544 47.9636H32.0907V50.4727Z" fill="white"></path><path d="M41.9089 36.8364C43.4151 36.8364 44.6362 35.6153 44.6362 34.1091C44.6362 32.6029 43.4151 31.3818 41.9089 31.3818C40.4027 31.3818 39.1816 32.6029 39.1816 34.1091C39.1816 35.6153 40.4027 36.8364 41.9089 36.8364Z" fill="white"></path><path d="M56.1456 49.9818C57.1275 49.4363 57.782 48.4 57.782 47.2545V39.2909C57.782 37.6 56.4184 36.1818 54.6729 36.1818C52.982 36.1818 51.5638 37.5454 51.5638 39.2909V45.8909C51.6729 46.4363 51.0729 48.7272 52.982 49.8181C52.3275 53.4181 52.6547 57.0727 53.1456 60.4C53.2547 61.1636 53.9093 61.7636 54.6729 61.7636C55.6002 61.7636 56.3093 60.9454 56.2002 60.0181C55.7638 56.6363 55.4365 53.4181 56.1456 49.9818ZM52.5456 45.8909C53.9638 44.6909 53.9093 40.8181 53.6911 39.1272C53.582 38.4181 54.0729 37.7636 54.782 37.6545C55.4911 37.5454 56.1456 38.0363 56.2547 38.7454C56.6365 41.3636 56.4729 45.0727 54.8911 47.1454C53.0911 49.5454 51.2365 47.0363 52.5456 45.8909ZM54.0729 35.7454C54.2911 35.8 54.4547 35.8 54.6729 35.8C54.8911 35.8 55.0547 35.8 55.2729 35.7454C56.5275 35.4727 57.4547 34.3818 57.4547 33.0181C57.4547 31.4909 56.2002 30.2363 54.6729 30.2363C53.1456 30.2363 51.8911 31.4909 51.8911 33.0181C51.8911 34.3272 52.8184 35.4727 54.0729 35.7454Z" fill="white"></path><path d="M53.9089 47.4728C55.9817 45.7273 56.0908 41.5273 55.7089 38.8546C55.6544 38.4182 55.2726 38.1455 54.8362 38.2C54.3999 38.2546 54.1271 38.6364 54.1817 39.0728C54.4544 41.0364 54.4544 44.9637 52.8726 46.2728C52.5453 46.5455 52.4908 47.0364 52.7635 47.3637C53.0908 47.7455 53.5817 47.7455 53.9089 47.4728Z" fill="white"></path><defs><linearGradient id="paint0_linear_956_3122" x1="46.5527" y1="10.6826" x2="46.5527" y2="82.6826" gradientUnits="userSpaceOnUse"><stop stop-color="#FF7580"></stop><stop offset="1" stop-color="#FF4A9F"></stop></linearGradient></defs></svg>