<?xml version="1.0" encoding="UTF-8"?>
<svg xmlns="http://www.w3.org/2000/svg" width="92" height="92" viewBox="0 0 92 92" fill="none">
  <circle cx="46" cy="46" r="46" fill="white"></circle>
  <circle cx="46" cy="46" r="36" fill="url(#paint0_linear_617_568)"></circle>
  <path fill-rule="evenodd" clip-rule="evenodd" d="M56.5771 31.6606C57.1683 31.6624 57.7347 31.898 58.1528 32.3161C58.5708 32.7341 58.8064 33.3006 58.8081 33.8918V36.1255H32.1918V33.8918C32.1935 33.3006 32.4291 32.7341 32.8472 32.316C33.2652 31.898 33.8317 31.6624 34.4229 31.6606H35.752V33.4954C35.7524 33.9304 35.9254 34.3474 36.233 34.655C36.5406 34.9626 36.9576 35.1356 37.3926 35.136H38.8927C39.3276 35.1356 39.7447 34.9626 40.0523 34.655C40.3598 34.3474 40.5328 33.9304 40.5333 33.4954V31.6606H43.1094V33.4954C43.1099 33.9304 43.2829 34.3474 43.5905 34.655C43.898 34.9626 44.3151 35.1356 44.75 35.136H46.25C46.685 35.1356 47.1021 34.9626 47.4096 34.655C47.7172 34.3474 47.8902 33.9304 47.8907 33.4954V31.6606H50.4668V33.4954C50.4672 33.9304 50.6402 34.3474 50.9478 34.655C51.2554 34.9626 51.6724 35.1356 52.1074 35.136H53.6074C54.0424 35.1356 54.4594 34.9626 54.767 34.655C55.0746 34.3474 55.2476 33.9304 55.248 33.4954V31.6606H56.5771ZM58.0605 54.2153C57.2999 54.2153 56.5565 54.4409 55.9241 54.8635C55.2918 55.2861 54.7989 55.8867 54.5079 56.5893C54.2169 57.292 54.1408 58.0652 54.2892 58.8111C54.4376 59.5571 54.8039 60.2423 55.3417 60.78C55.8795 61.3178 56.5647 61.684 57.3106 61.8324C58.0566 61.9807 58.8298 61.9046 59.5324 61.6135C60.2351 61.3224 60.8357 60.8296 61.2582 60.1972C61.6807 59.5648 61.9062 58.8213 61.9062 58.0608C61.9062 57.0409 61.5011 56.0628 60.7799 55.3416C60.0588 54.6204 59.0806 54.2153 58.0608 54.2153H58.0605ZM60.4707 57.2538L57.4257 59.6173C57.327 59.6966 57.2009 59.7335 57.0751 59.7198C56.9492 59.7061 56.8339 59.643 56.7546 59.5444L55.4017 57.8635C55.3224 57.7649 55.2855 57.6388 55.2992 57.5129C55.3129 57.3871 55.376 57.2718 55.4746 57.1925C55.5733 57.1132 55.6994 57.0763 55.8252 57.09C55.9511 57.1036 56.0664 57.1667 56.1457 57.2654L57.2046 58.5809L59.8875 56.4987C59.9877 56.4227 60.1139 56.3894 60.2385 56.406C60.3632 56.4226 60.4763 56.4878 60.5532 56.5873C60.63 56.6868 60.6645 56.8127 60.6491 56.9375C60.6336 57.0623 60.5695 57.176 60.4707 57.2538ZM35.1087 54.6623L34.0483 54.7271C34.0209 54.7288 33.9947 54.7387 33.973 54.7555C33.9513 54.7723 33.9351 54.7952 33.9267 54.8213C33.9182 54.8474 33.9178 54.8754 33.9254 54.9018C33.9331 54.9281 33.9485 54.9515 33.9697 54.969L34.7895 55.6445L34.5234 56.673C34.5165 56.6996 34.5178 56.7276 34.5271 56.7534C34.5364 56.7792 34.5532 56.8017 34.5754 56.8178C34.5976 56.8339 34.6241 56.843 34.6515 56.8439C34.679 56.8447 34.706 56.8373 34.7292 56.8226L35.6251 56.2516L36.5211 56.8226C36.5443 56.8373 36.5713 56.8448 36.5988 56.8439C36.6262 56.8431 36.6528 56.834 36.675 56.8179C36.6972 56.8017 36.714 56.7793 36.7233 56.7534C36.7326 56.7276 36.7338 56.6996 36.727 56.673L36.4608 55.6445L37.2807 54.9688C37.3018 54.9513 37.3173 54.9279 37.3249 54.9016C37.3326 54.8752 37.3322 54.8472 37.3237 54.8211C37.3152 54.795 37.2991 54.772 37.2774 54.7552C37.2557 54.7384 37.2294 54.7286 37.2021 54.7269L36.1416 54.6621L35.7524 53.6736C35.7423 53.648 35.7248 53.6261 35.7021 53.6107C35.6794 53.5952 35.6526 53.587 35.6251 53.587C35.5977 53.587 35.5709 53.5952 35.5482 53.6107C35.5255 53.6261 35.508 53.648 35.4979 53.6736L35.1087 54.6621V54.6623ZM41.7275 54.2927C40.4413 54.2927 39.796 52.7345 40.7054 51.8249C40.7453 51.785 40.7769 51.7377 40.7984 51.6857C40.82 51.6336 40.8311 51.5778 40.8311 51.5215C40.8311 51.4652 40.82 51.4094 40.7984 51.3573C40.7769 51.3053 40.7453 51.258 40.7054 51.2181L39.7817 50.2946C39.7419 50.2547 39.6946 50.2231 39.6425 50.2016C39.5905 50.18 39.5347 50.1689 39.4784 50.1689C39.422 50.1689 39.3662 50.18 39.3142 50.2016C39.2621 50.2231 39.2148 50.2547 39.175 50.2946C38.2658 51.2038 36.7072 50.5587 36.7072 49.2725C36.7072 49.2161 36.6961 49.1603 36.6746 49.1083C36.653 49.0562 36.6214 49.0089 36.5816 48.9691C36.5417 48.9292 36.4944 48.8976 36.4424 48.8761C36.3903 48.8545 36.3345 48.8434 36.2782 48.8434H34.972C34.9157 48.8434 34.8599 48.8545 34.8078 48.8761C34.7558 48.8976 34.7085 48.9292 34.6687 48.9691C34.6288 49.0089 34.5972 49.0562 34.5757 49.1083C34.5541 49.1603 34.543 49.2161 34.543 49.2725C34.543 50.5587 32.9848 51.204 32.0752 50.2946C32.0354 50.2547 31.9881 50.2231 31.9361 50.2016C31.884 50.18 31.8282 50.1689 31.7719 50.1689C31.7155 50.1689 31.6597 50.18 31.6077 50.2016C31.5556 50.2231 31.5083 50.2547 31.4685 50.2946L30.545 51.2183C30.5051 51.2581 30.4735 51.3054 30.4519 51.3575C30.4304 51.4095 30.4193 51.4653 30.4193 51.5216C30.4193 51.578 30.4304 51.6338 30.4519 51.6858C30.4735 51.7379 30.5051 51.7852 30.545 51.825C31.4541 52.7342 30.809 54.2928 29.5228 54.2928C29.409 54.2928 29.2999 54.338 29.2195 54.4184C29.139 54.4988 29.0938 54.6079 29.0938 54.7217V56.0279C29.0938 56.1417 29.139 56.2508 29.2194 56.3313C29.2999 56.4117 29.409 56.4569 29.5228 56.4569C30.809 56.4569 31.4543 58.0151 30.545 58.9247C30.4645 59.0052 30.4193 59.1143 30.4193 59.2281C30.4193 59.3419 30.4645 59.451 30.545 59.5315L31.4686 60.4551C31.5085 60.495 31.5558 60.5266 31.6078 60.5481C31.6599 60.5697 31.7157 60.5808 31.772 60.5808C31.8283 60.5808 31.8841 60.5697 31.9362 60.5481C31.9882 60.5266 32.0355 60.495 32.0754 60.4551C32.986 59.5446 34.5432 60.1895 34.5432 61.4773C34.5432 61.591 34.5884 61.7001 34.6688 61.7806C34.7492 61.861 34.8583 61.9062 34.972 61.9062H36.2783C36.3921 61.9062 36.5012 61.861 36.5817 61.7806C36.6621 61.7001 36.7073 61.591 36.7073 61.4772C36.7073 60.191 38.2656 59.5457 39.1751 60.455C39.215 60.4949 39.2623 60.5265 39.3143 60.5481C39.3664 60.5696 39.4222 60.5807 39.4785 60.5807C39.5348 60.5807 39.5906 60.5696 39.6427 60.5481C39.6947 60.5265 39.742 60.4949 39.7819 60.455L40.7055 59.5314C40.786 59.451 40.8312 59.3418 40.8312 59.228C40.8312 59.1142 40.786 59.0051 40.7055 58.9246C39.7964 58.0154 40.4415 56.4568 41.7277 56.4568C41.784 56.4569 41.8398 56.4458 41.8919 56.4242C41.9439 56.4027 41.9912 56.3711 42.0311 56.3312C42.0709 56.2914 42.1025 56.2441 42.1241 56.192C42.1456 56.14 42.1567 56.0842 42.1567 56.0278V54.7217C42.1567 54.6653 42.1456 54.6095 42.1241 54.5575C42.1025 54.5054 42.0709 54.4581 42.031 54.4183C41.9911 54.3784 41.9438 54.3468 41.8918 54.3253C41.8397 54.3037 41.7839 54.2926 41.7275 54.2927ZM35.6251 58.9831C34.9115 58.9831 34.2139 58.7714 33.6205 58.375C33.0271 57.9785 32.5646 57.4149 32.2915 56.7556C32.0184 56.0963 31.947 55.3708 32.0862 54.6708C32.2254 53.9709 32.5691 53.3279 33.0737 52.8233C33.5784 52.3187 34.2213 51.975 34.9212 51.8358C35.6212 51.6966 36.3467 51.7681 37.006 52.0412C37.6653 52.3143 38.2289 52.7768 38.6254 53.3702C39.0218 53.9636 39.2334 54.6612 39.2334 55.3749C39.2334 55.8487 39.1401 56.3179 38.9588 56.7557C38.7774 57.1934 38.5116 57.5912 38.1766 57.9263C37.8415 58.2613 37.4437 58.5271 37.006 58.7084C36.5682 58.8898 36.099 58.9831 35.6251 58.9831ZM37.3926 29.0938C37.2114 29.0941 37.0377 29.1662 36.9096 29.2943C36.7815 29.4225 36.7093 29.5961 36.709 29.7773V33.4954C36.7093 33.6766 36.7815 33.8503 36.9096 33.9784C37.0377 34.1065 37.2114 34.1787 37.3926 34.179H38.8927C39.0739 34.1787 39.2475 34.1065 39.3757 33.9784C39.5038 33.8503 39.5759 33.6766 39.5762 33.4954V29.7773C39.5759 29.5961 39.5038 29.4225 39.3757 29.2943C39.2475 29.1662 39.0739 29.0941 38.8927 29.0938H37.3926ZM52.1073 29.0938C51.9261 29.0941 51.7524 29.1662 51.6243 29.2943C51.4962 29.4225 51.424 29.5961 51.4237 29.7773V33.4954C51.424 33.6766 51.4962 33.8503 51.6243 33.9784C51.7524 34.1065 51.9261 34.1787 52.1073 34.179H53.6074C53.7886 34.1787 53.9623 34.1065 54.0904 33.9784C54.2185 33.8503 54.2907 33.6766 54.291 33.4954V29.7773C54.2907 29.5961 54.2185 29.4225 54.0904 29.2943C53.9623 29.1662 53.7886 29.0941 53.6074 29.0938H52.1073ZM44.75 29.0938C44.5688 29.0941 44.3951 29.1662 44.267 29.2943C44.1388 29.4225 44.0667 29.5961 44.0664 29.7773V33.4954C44.0667 33.6766 44.1388 33.8503 44.267 33.9784C44.3951 34.1065 44.5688 34.1787 44.75 34.179H46.25C46.4312 34.1787 46.6048 34.1065 46.733 33.9784C46.8611 33.8503 46.9332 33.6766 46.9336 33.4954V29.7773C46.9332 29.5961 46.8611 29.4225 46.733 29.2943C46.6048 29.1662 46.4312 29.0941 46.25 29.0938H44.75ZM32.1918 37.0826V49.2769C32.4033 49.3438 32.5956 49.4608 32.7523 49.6178C32.8206 49.6864 32.9076 49.7331 33.0025 49.7521C33.0973 49.771 33.1956 49.7614 33.285 49.7244C33.3743 49.6874 33.4507 49.6247 33.5043 49.5442C33.558 49.4638 33.5865 49.3692 33.5863 49.2725C33.5864 48.9049 33.7325 48.5524 33.9924 48.2925C34.2523 48.0326 34.6047 47.8865 34.9723 47.8864H36.2783C36.6459 47.8865 36.9984 48.0326 37.2583 48.2925C37.5182 48.5524 37.6643 48.9049 37.6644 49.2725C37.6642 49.3692 37.6927 49.4638 37.7464 49.5442C37.8 49.6247 37.8764 49.6874 37.9657 49.7244C38.0551 49.7614 38.1534 49.771 38.2482 49.7521C38.3431 49.7331 38.4301 49.6864 38.4984 49.6178C38.7584 49.358 39.1109 49.2121 39.4784 49.2121C39.846 49.2121 40.1985 49.358 40.4585 49.6178L41.3822 50.5416C41.4205 50.5799 41.4565 50.6203 41.49 50.6628V49.9414H44.195V52.6463H41.49V52.3805C41.4564 52.423 41.4204 52.4635 41.3821 52.5018C41.3136 52.57 41.2668 52.6571 41.2479 52.7519C41.2289 52.8468 41.2385 52.9451 41.2755 53.0344C41.3125 53.1238 41.3753 53.2001 41.4557 53.2538C41.5362 53.3074 41.6308 53.336 41.7275 53.3358C42.0951 53.3359 42.4475 53.4819 42.7074 53.7418C42.9673 54.0017 43.1134 54.3541 43.1136 54.7217V55.3531H54.0942C54.6063 54.604 55.3199 54.0151 56.1526 53.6544C56.9852 53.2938 57.9029 53.176 58.7997 53.3148C58.8052 53.2513 58.8082 53.187 58.8082 53.1221V37.0826H32.1918ZM38.8797 47.3311H36.1748V44.6262H38.8797V47.3311ZM38.8797 42.016H36.1748V39.311H38.8797V42.016ZM44.1949 47.3311H41.49V44.6262H44.1949V47.3311ZM44.1949 42.016H41.49V39.311H44.1949V42.016ZM49.51 52.6463H46.8051V49.9414H49.51V52.6463ZM49.51 47.3311H46.8051V44.6262H49.51V47.3311ZM49.51 42.016H46.8051V39.311H49.51V42.016ZM54.8252 52.6463H52.1203V49.9414H54.8252V52.6463ZM54.8252 47.3311H52.1203V44.6262H54.8252V47.3311ZM54.8252 42.016H52.1203V39.311H54.8252V42.016Z" fill="white"></path>
  <defs>
    <linearGradient id="paint0_linear_617_568" x1="46" y1="10" x2="46" y2="82" gradientUnits="userSpaceOnUse">
      <stop stop-color="#FFC182"></stop>
      <stop offset="1" stop-color="#FF792E"></stop>
    </linearGradient>
  </defs>
</svg>
