<svg xmlns="http://www.w3.org/2000/svg" width="70" height="71" viewBox="0 0 70 71" fill="none"><g clip-path="url(#clip0_73_2067)"><path d="M25.2646 12.4866V4.3866H44.4101V12.4866C44.4101 12.899 44.0861 13.223 43.6737 13.223H26.0009C25.5886 13.223 25.2646 12.899 25.2646 12.4866ZM60.6102 15.4321V56.6686C60.6102 62.7657 55.6618 67.7141 49.5647 67.7141H20.11C14.0129 67.7141 9.06451 62.7657 9.06451 56.6686V15.4321C9.06451 9.33498 14.0129 4.3866 20.11 4.3866H20.8464V12.4866C20.8464 15.3143 23.1733 17.6412 26.0009 17.6412H43.6737C46.5014 17.6412 48.8283 15.3143 48.8283 12.4866V4.3866H49.5647C55.6618 4.3866 60.6102 9.33498 60.6102 15.4321ZM48.8283 41.9413C48.8283 40.7337 47.8269 39.7322 46.6192 39.7322H42.4661L40.7872 33.0165C40.4337 31.6027 39.2261 30.6602 37.7828 30.6307C36.2806 30.5718 35.1024 31.5143 34.7195 32.9282L31.3322 44.7984L29.7711 41.7351C29.1231 40.498 27.886 39.7322 26.5017 39.7322H23.0849C21.8773 39.7322 20.8758 40.7337 20.8758 41.9413C20.8758 43.1489 21.8773 44.1504 23.0849 44.1504H26.0599L28.8875 49.6584C29.4177 50.7188 30.5075 51.3668 31.6857 51.3668H32.0097C33.3057 51.249 34.3661 50.3359 34.7195 49.0988L37.6944 38.7013L38.3719 41.3522C38.7843 43.0017 40.257 44.1504 41.9359 44.1504H46.6781C47.8858 44.1504 48.8872 43.1489 48.8872 41.9413H48.8283Z" fill="white"></path></g><defs><clipPath id="clip0_73_2067"><rect width="70" height="70" fill="white" transform="translate(0 0.438965)"></rect></clipPath></defs></svg>