<svg xmlns="http://www.w3.org/2000/svg" width="90" height="90" viewBox="0 0 90 90" fill="none"><path d="M0 12C0 5.37258 5.37258 0 12 0H78C84.6274 0 90 5.37258 90 12V78C90 84.6274 84.6274 90 78 90H12C5.37258 90 0 84.6274 0 78V12Z" fill="#E9F8FF"></path><path d="M37.4101 28.2636V22.5105H51.0084V28.2636C51.0084 28.5565 50.7783 28.7866 50.4854 28.7866H37.9331C37.6402 28.7866 37.4101 28.5565 37.4101 28.2636ZM62.5147 30.3557V59.6444C62.5147 63.9749 59 67.4896 54.6695 67.4896H33.749C29.4185 67.4896 25.9038 63.9749 25.9038 59.6444V30.3557C25.9038 26.0251 29.4185 22.5105 33.749 22.5105H34.272V28.2636C34.272 30.272 35.9247 31.9247 37.9331 31.9247H50.4854C52.4938 31.9247 54.1465 30.272 54.1465 28.2636V22.5105H54.6695C59 22.5105 62.5147 26.0251 62.5147 30.3557ZM54.1465 49.1841C54.1465 48.3264 53.4352 47.6151 52.5774 47.6151H49.6277L48.4352 42.8452C48.1841 41.841 47.3264 41.1716 46.3013 41.1507C45.2344 41.1088 44.3975 41.7783 44.1256 42.7825L41.7197 51.2134L40.6109 49.0377C40.1507 48.159 39.272 47.6151 38.2887 47.6151H35.862C35.0042 47.6151 34.2929 48.3264 34.2929 49.1841C34.2929 50.0419 35.0042 50.7532 35.862 50.7532H37.9749L39.9833 54.6653C40.3599 55.4184 41.1339 55.8787 41.9708 55.8787H42.2009C43.1214 55.795 43.8745 55.1465 44.1256 54.2678L46.2385 46.8829L46.7197 48.7657C47.0126 49.9373 48.0586 50.7532 49.2511 50.7532H52.6193C53.477 50.7532 54.1883 50.0419 54.1883 49.1841H54.1465Z" fill="url(#paint0_linear_956_3232)"></path><defs><linearGradient id="paint0_linear_956_3232" x1="44.2092" y1="22.5105" x2="44.2092" y2="67.4896" gradientUnits="userSpaceOnUse"><stop stop-color="#29B7FF"></stop><stop offset="1" stop-color="#368AFF"></stop></linearGradient></defs></svg>