<svg xmlns="http://www.w3.org/2000/svg" width="80" height="80" viewBox="0 0 80 80" fill="none"><rect width="80" height="80" rx="16" fill="white"></rect><path fill-rule="evenodd" clip-rule="evenodd" d="M38.5745 26.8134C36.377 28.2613 34.5538 29.4666 34.3953 32.2996H52.6302C52.4717 29.4665 50.6485 28.2613 48.451 26.8134C48.1804 26.9377 47.8861 27.0019 47.5883 27.0016H39.4372C39.1295 27.0016 38.8373 26.9342 38.5745 26.8134ZM23.0013 28.6993C22.9005 28.8675 22.7377 28.9896 22.5479 29.0392C22.3582 29.0888 22.1565 29.062 21.9863 28.9646C21.816 28.8672 21.6907 28.707 21.6373 28.5182C21.5839 28.3295 21.6066 28.1274 21.7005 27.9552C26.8355 18.9871 37.7983 15.0112 47.561 18.7605C56.4696 22.1819 61.9357 31.1348 60.9937 40.527L61.9636 39.5254C62.1024 39.3854 62.2908 39.3058 62.4879 39.3041C62.6851 39.3023 62.8749 39.3784 63.0162 39.5158C63.1575 39.6533 63.2388 39.841 63.2425 40.038C63.2462 40.2351 63.1719 40.4257 63.0358 40.5683L60.4247 43.265C60.0689 43.6308 59.4647 43.5383 59.2284 43.0954L57.2634 39.9577C57.1585 39.7899 57.1246 39.5873 57.1691 39.3944C57.2136 39.2016 57.3329 39.0343 57.5007 38.9294C57.6685 38.8245 57.8712 38.7905 58.064 38.835C58.2569 38.8795 58.4241 38.9988 58.529 39.1667L59.4741 40.6758C60.4868 31.8548 55.4136 23.3756 47.0277 20.155C37.955 16.6707 27.7727 20.366 23.0013 28.6993ZM53.8237 49.3247C52.1933 49.3247 50.8718 50.6462 50.8718 52.2767C50.8718 53.9071 52.1933 55.2286 53.8237 55.2286C55.4542 55.2286 56.7757 53.9071 56.7757 52.2767C56.7757 50.6462 55.4541 49.3247 53.8237 49.3247ZM55.0689 47.0593C55.621 47.1908 56.1485 47.4095 56.6317 47.7072L57.6472 47.2562L58.8441 48.4531L58.3932 49.4683C58.691 49.9516 58.9097 50.4793 59.0412 51.0315L60.0772 51.4303V53.1229L59.0409 53.5219C58.9094 54.0739 58.6907 54.6015 58.393 55.0847L58.844 56.1002L57.6471 57.2971L56.6319 56.8462C56.1486 57.144 55.6209 57.3627 55.0687 57.4942L54.6699 58.5303H52.9773L52.5784 57.4939C52.0263 57.3624 51.4987 57.1437 51.0155 56.846L50 57.2971L48.8031 56.1002L49.2541 55.0849C48.9563 54.6017 48.7376 54.074 48.6061 53.5218L47.57 53.1229V51.4303L48.6062 51.0314C48.7377 50.4793 48.9564 49.9517 49.2541 49.4685L48.8031 48.4531L50 47.2562L51.0155 47.7072C51.4987 47.4095 52.0263 47.1908 52.5784 47.0593L52.9773 46.023H54.6699L55.0689 47.0593ZM53.8237 43.9072C49.2015 43.9072 45.4544 47.6543 45.4544 52.2766C45.4544 53.9572 45.9501 55.5219 46.8029 56.8331C42.1891 58.546 37.2887 58.4065 32.9717 56.7485C24.5878 53.5289 19.5113 45.0498 20.5268 36.2303L21.4704 37.737C21.5224 37.8201 21.5902 37.8921 21.67 37.949C21.7497 38.0059 21.84 38.0466 21.9355 38.0686C22.0309 38.0906 22.1298 38.0936 22.2265 38.0775C22.3231 38.0613 22.4157 38.0262 22.4988 37.9743C22.5819 37.9223 22.6539 37.8545 22.7108 37.7747C22.7677 37.6949 22.8083 37.6047 22.8304 37.5092C22.8524 37.4137 22.8554 37.3148 22.8392 37.2182C22.8231 37.1215 22.788 37.029 22.736 36.9459L20.771 33.8082C20.5348 33.3653 19.9306 33.2729 19.5748 33.6386L16.9637 36.3353C16.8276 36.4779 16.7533 36.6685 16.757 36.8656C16.7606 37.0627 16.842 37.2504 16.9833 37.3878C17.1246 37.5253 17.3144 37.6014 17.5115 37.5996C17.7087 37.5978 17.8971 37.5183 18.0359 37.3783L19.0033 36.3792C18.066 45.7701 23.5302 54.7219 32.4385 58.1432C37.2259 59.9817 42.6794 60.0851 47.7751 58.0608C49.2987 59.6539 51.4454 60.6459 53.8238 60.6459C58.4461 60.6459 62.1932 56.8988 62.1932 52.2766C62.1931 47.6543 58.446 43.9072 53.8237 43.9072ZM38.6675 40.0766L34.8971 37.8997L31.4358 43.895L35.2062 46.0719C36.8549 47.0238 38.9826 46.4537 39.9345 44.805C40.8863 43.1562 40.3162 41.0284 38.6675 40.0766ZM33.6036 37.1529L29.8332 34.976C28.1845 34.0242 26.0568 34.5943 25.1049 36.243C24.1531 37.8917 24.7232 40.0194 26.3719 40.9714L30.1423 43.1482L33.6036 37.1529ZM31.0836 45.4237L25.6219 42.2704C25.0105 41.918 24.4823 41.4381 24.073 40.8634C23.5733 41.4637 23.2718 42.2341 23.2718 43.0715C23.2718 44.9753 24.8294 46.5329 26.7332 46.5329H31.0837L31.0836 45.4237ZM47.5883 21.9103H39.4372C39.1215 21.9103 38.8632 22.1686 38.8632 22.4843V24.9274C38.8632 25.2432 39.1216 25.5015 39.4372 25.5015H47.5883C47.9041 25.5015 48.1624 25.2432 48.1624 24.9274V22.4843C48.1624 22.1687 47.9041 21.9103 47.5883 21.9103ZM44.7538 36.1198V38.5502H47.1842V41.0324H44.7538V43.4628H42.2717V41.0324H41.4555C41.7462 41.6729 41.8962 42.3683 41.8955 43.0716C41.8955 43.9413 41.6701 44.7989 41.2336 45.555C41.1889 45.6322 41.1422 45.7082 41.0934 45.783H46.3921C47.957 43.9937 50.1575 42.7746 52.6416 42.4781V33.7997H34.3839V35.8714L39.4175 38.7776C39.5634 38.8617 39.7048 38.9533 39.8413 39.0519V38.5503H42.2717V36.1199H44.7538V36.1198ZM34.4012 48.0329H36.9342C37.8639 48.0329 38.7672 47.7708 39.5566 47.2829H45.31C44.5831 48.5188 44.136 49.899 44.0001 51.3263H38.03C36.1436 51.3263 34.58 49.8744 34.4012 48.0329Z" fill="#477BFF"></path></svg>