<svg xmlns="http://www.w3.org/2000/svg" width="71" height="71" viewBox="0 0 71 71" fill="none"><g clip-path="url(#clip0_357_2424)"><path d="M69.9266 41.6603C69.5945 40.4444 68.3769 39.5325 66.9379 39.5325H27.6421C26.8672 39.5325 26.0924 39.8365 25.5389 40.3431C24.9855 40.8497 24.6534 41.6603 24.6534 42.4709C24.7641 43.8894 26.2031 44.9026 27.7528 44.9026H30.6308V61.1142C30.6308 62.1275 31.5163 63.0394 32.7339 63.0394H61.846C62.953 63.0394 63.9492 62.2288 63.9492 61.1142V44.9026H66.9379C67.7127 44.9026 68.4876 44.5987 69.0411 44.092C69.8159 43.4841 70.148 42.5722 69.9266 41.6603ZM51.9944 53.1098H49.3378V55.5415C49.3378 56.5547 48.4523 57.3653 47.3453 57.3653C46.2384 57.3653 45.3529 56.5547 45.3529 55.5415V53.1098H42.6963C41.5893 53.1098 40.7038 52.2992 40.7038 51.2859C40.7038 50.2727 41.5893 49.4621 42.6963 49.4621H45.2422V47.0304C45.2422 46.0172 46.1277 45.2066 47.2346 45.2066H47.3453C48.4523 45.2066 49.3378 46.0172 49.3378 47.0304V49.4621H51.9944C52.5479 49.4621 52.9907 49.6648 53.3227 49.9688C53.6548 50.2727 53.8762 50.7793 53.8762 51.2859C53.8762 52.2992 52.9907 53.1098 51.9944 53.1098ZM19.8936 25.4487C19.8936 28.0831 17.7905 30.0082 14.9125 30.0082C12.0345 30.0082 9.93131 28.0831 9.93131 25.4487C9.93131 22.9156 12.1452 20.7878 14.9125 20.7878C17.6798 20.8892 20.0043 22.9156 19.8936 25.4487ZM16.7942 60.101C18.0119 60.101 19.2295 59.9997 20.5578 59.9997C21.6647 59.8984 22.7716 59.8984 23.7679 59.8984C24.9855 59.8984 26.0924 58.9865 26.0924 57.7706C26.0924 56.5547 25.0962 55.6428 23.7679 55.6428C22.6609 55.6428 21.4433 55.7441 20.3364 55.7441C17.7905 55.8455 15.1339 55.9468 13.0307 55.5415C11.1489 55.2375 9.48854 54.2243 8.38162 52.7045C7.38538 51.3873 7.164 49.8674 6.83192 47.9423C6.83192 47.6383 6.72123 47.3344 6.72123 47.1317L5.17154 37.9114C4.95015 36.7968 3.84323 35.9862 2.51492 36.1889C1.2973 36.3915 0.411763 37.4047 0.633147 38.6206L2.18284 47.841C2.18284 48.1449 2.29353 48.3476 2.29353 48.6516C2.62561 50.7793 2.95769 53.1098 4.61807 55.2375C6.38915 57.568 8.93508 59.1891 11.9238 59.6957C13.4735 59.9997 15.1339 60.101 16.7942 60.101Z" fill="#7E3BFF"></path><path d="M19.7829 47.2331C19.7829 47.2331 24.2106 47.4357 27.1993 47.6383C27.5313 47.6383 27.7527 47.841 27.7527 48.145V53.819C27.7527 54.123 27.5313 54.3256 27.1993 54.3256H16.5728C12.3665 54.3256 10.1526 52.6032 10.1526 48.7529C10.0419 44.5987 9.70986 40.5458 9.37778 36.4929C9.1564 33.9598 11.0382 31.832 13.6948 31.528H13.8055C14.691 31.4267 15.4659 31.6294 16.2407 31.9333C17.569 32.5413 18.5653 33.7571 18.8973 35.3783C19.1187 36.6955 19.2294 38.0127 19.3401 39.4312C19.3401 39.8365 19.4508 40.1405 19.4508 40.5458L19.7829 47.2331ZM52.9906 15.4178V15.2151C52.9906 15.0125 52.9906 14.9111 53.1013 14.7085C53.212 14.2019 53.3227 13.6953 53.3227 13.29C53.4334 11.6688 52.4371 10.3516 50.8874 9.64236C50.6661 9.54104 50.5554 9.54104 50.334 9.43972C49.3377 9.13575 48.3415 8.93311 47.3453 8.93311H46.6811C46.017 8.93311 45.2421 9.03443 44.4673 9.3384C44.3566 9.3384 44.3566 9.43972 44.2459 9.43972C43.9138 9.64236 43.6924 9.84501 43.471 10.149C43.139 10.3516 42.9176 10.5543 42.6962 10.7569C42.3641 10.8582 42.1427 11.0609 41.9213 11.3648C41.7 11.7701 41.5893 12.1754 41.5893 12.7834V14.3032C41.5893 14.5058 41.7 14.7085 41.7 14.9111C41.7 15.0125 41.8107 15.2151 41.8107 15.3164H41.7C41.1465 15.4178 40.8144 16.0257 40.8144 16.5323V16.9376C40.8144 17.1402 40.8144 17.3429 40.9251 17.4442V17.7482C41.0358 18.5588 41.4786 19.1667 42.1427 19.4707V19.572C42.6962 21.6998 44.578 23.2196 46.6811 23.5236H47.456C49.1164 23.5236 50.5554 22.713 51.5516 21.1931C51.773 20.8892 51.8837 20.5852 52.1051 20.2812C52.2157 20.1799 52.2157 19.9773 52.2157 19.8759C52.2157 19.6733 52.3264 19.572 52.3264 19.4707L52.6585 19.1667L52.8799 18.964C53.4334 18.5588 53.5441 17.9508 53.5441 17.5455V17.2416C53.5441 17.0389 53.6547 16.8363 53.6547 16.7349V16.3297C53.7654 16.127 53.5441 15.5191 52.9906 15.4178ZM52.7692 16.6336V17.0389C52.7692 17.1402 52.7692 17.3429 52.6585 17.4442V17.7482C52.6585 18.1535 52.5478 18.3561 52.3264 18.5588C52.2157 18.5588 52.2157 18.6601 52.1051 18.6601L51.9944 18.7614C51.8837 18.8627 51.9944 18.8627 51.8837 18.8627C51.773 19.0654 51.5516 19.3693 51.5516 19.3693C51.2195 20.0786 50.8874 20.6865 50.334 21.2945C49.4484 22.3077 48.2308 22.8143 46.9025 22.6117C46.349 22.5103 45.7956 22.3077 45.2421 22.0037C44.3566 21.5984 43.5817 20.6865 43.2497 19.8759C43.2497 19.7746 42.9176 19.0654 42.8069 18.7614H42.5855C42.1427 18.5588 42.032 18.0521 41.9213 17.7482V17.4442C41.9213 17.3429 41.9214 17.1402 41.8107 17.0389V16.6336C41.8107 16.5323 41.8107 16.431 41.9213 16.431H42.3641C42.4748 16.431 42.4748 16.3297 42.5855 16.2283C42.6962 16.127 42.6962 16.0257 42.6962 15.823C42.6962 15.6204 42.6962 15.4178 42.5855 15.2151C43.8031 15.2151 44.91 15.2151 46.1277 15.0125C46.4597 14.9111 46.7918 14.9111 47.1239 14.8098C48.1201 14.6072 49.1164 14.2019 50.0019 13.5939C50.4447 14.1006 50.9981 14.5058 51.6623 14.7085H51.773C51.773 14.9111 51.6623 15.1138 51.6623 15.2151V15.4178C51.6623 15.6204 51.5516 15.823 51.6623 16.0257C51.6623 16.127 51.773 16.127 51.773 16.2283C51.9944 16.431 52.2157 16.431 52.4371 16.431C52.6585 16.3297 52.7692 16.431 52.7692 16.6336ZM61.0711 30.3122C60.9604 29.6029 60.6284 28.995 60.0749 28.5897C59.7428 28.2857 59.3001 27.9818 58.968 27.7791C57.6397 27.0699 56.09 26.4619 54.651 26.0566C54.5403 26.0566 54.4296 25.9553 54.3189 25.9553C54.2082 25.9553 54.0975 25.854 53.9868 25.854C53.6547 25.7527 53.212 25.6513 52.8799 25.55C52.7692 25.7527 52.6585 25.854 52.5478 26.0566C52.2157 26.4619 51.8837 26.9685 51.5516 27.3738C50.9981 28.0831 50.4447 28.691 49.8912 29.2989C49.5591 29.6029 49.3377 30.0082 49.0057 30.3122L48.895 30.4135L48.6736 30.6161C48.6736 30.4135 48.6736 30.3122 48.5629 30.1095C48.3415 28.7923 48.2308 27.6778 48.2308 27.5765C48.3415 27.4751 48.3415 27.2725 48.4522 27.1712V27.0699C48.4522 26.9685 48.5629 26.9685 48.5629 26.8672V26.7659C48.5629 26.6646 48.6736 26.5632 48.6736 26.4619C48.6736 26.3606 48.6736 26.2593 48.5629 26.158V25.9553L48.4522 25.854C48.3415 25.7527 48.2308 25.7527 48.1201 25.7527H46.2384C46.2384 25.7527 46.1277 25.7527 46.017 25.854L45.9063 25.9553V26.158C45.9063 26.2593 45.7956 26.3606 45.7956 26.4619C45.7956 26.5632 45.9063 26.6646 45.9063 26.7659V26.8672C45.9063 26.9685 46.017 26.9685 46.017 27.0699V27.2725C46.1277 27.3738 46.1277 27.4751 46.2384 27.6778C46.2384 27.7791 46.017 28.995 45.9063 30.2109C45.9063 30.4135 45.9063 30.5148 45.7956 30.7175L45.5742 30.5148C45.2421 30.1095 44.91 29.8056 44.578 29.4003C44.0245 28.7923 43.471 28.0831 42.9176 27.4751C42.4748 26.8672 42.032 26.3606 41.5893 25.7527C41.1465 25.854 40.593 25.9553 40.1503 26.158C38.4899 26.6646 36.9402 27.2725 35.5012 27.9818C35.0584 28.1844 34.7263 28.4884 34.3943 28.7923C33.8408 29.2989 33.5087 29.9069 33.398 30.5148V37.9114H60.9604V30.9201C61.0711 30.6161 61.0711 30.4135 61.0711 30.3122ZM52.7692 32.8452C52.7692 32.44 53.1013 32.0347 53.6547 32.0347H54.7617V31.0214C54.7617 30.6161 55.0938 30.2109 55.6472 30.2109C56.09 30.2109 56.5328 30.5148 56.5328 31.0214V32.0347H57.6397C57.8611 32.0347 58.0824 32.136 58.1931 32.2373C58.3038 32.3386 58.4145 32.5413 58.4145 32.7439C58.4145 33.1492 58.0824 33.5545 57.529 33.5545H56.4221V34.5677C56.4221 34.973 56.09 35.3783 55.5365 35.3783C55.0937 35.3783 54.651 35.0743 54.651 34.5677V33.5545H53.5441C53.1013 33.6558 52.7692 33.2505 52.7692 32.8452Z" fill="#7E3BFF"></path></g><defs><clipPath id="clip0_357_2424"><rect width="70" height="70" fill="white" transform="translate(0.214844 0.742188)"></rect></clipPath></defs></svg>