<?xml version="1.0" encoding="UTF-8"?>
<svg xmlns="http://www.w3.org/2000/svg" width="81" height="80" viewBox="0 0 81 80" fill="none">
  <path d="M0.5 40C0.5 17.9086 18.4086 0 40.5 0C62.5914 0 80.5 17.9086 80.5 40C80.5 62.0914 62.5914 80 40.5 80C18.4086 80 0.5 62.0914 0.5 40Z" fill="url(#paint0_linear_982_476)"></path>
  <path d="M37.3702 22.7724C37.1729 22.9311 36.9272 23.0177 36.674 23.0178L34.4702 23.0177V23.9927C34.4719 25.4604 35.6612 26.6496 37.1293 26.6514H43.8719C45.3397 26.6496 46.5288 25.4604 46.5306 23.9927V23.0177H44.3274C44.074 23.0178 43.8283 22.9313 43.6308 22.7726C43.4334 22.6138 43.2962 22.3923 43.242 22.1448C42.9691 20.9024 41.8162 20 40.5006 20C39.1851 20 38.0319 20.9024 37.759 22.1448C37.7048 22.3922 37.5676 22.6136 37.3702 22.7724Z" fill="white"></path>
  <path fill-rule="evenodd" clip-rule="evenodd" d="M52.2736 60C53.7416 59.9986 54.9312 58.8091 54.9326 57.341V25.6767C54.9309 24.2087 53.7416 23.0195 52.2736 23.0177H48.7527V23.9927C48.7496 26.6871 46.5663 28.8705 43.8718 28.8736H37.1292C34.4347 28.8705 32.251 26.6871 32.2479 23.9927V23.0177H28.727C27.2593 23.0195 26.0701 24.2087 26.0684 25.6767V57.341C26.0701 58.8091 27.2593 59.9986 28.727 60H52.2736ZM38.7055 45.4296L46 38.3073C46.4399 37.8817 47.1407 37.8921 47.5684 38.3299C47.9955 38.7678 47.9885 39.4688 47.552 39.898L39.4816 47.7778C39.05 48.1993 38.3608 48.1993 37.9288 47.7778L33.434 43.3889C33.0059 42.9549 33.0077 42.257 33.4374 41.8247C33.8677 41.3928 34.5656 41.3875 35.0014 41.8139L38.7055 45.4296Z" fill="white"></path>
  <defs>
    <linearGradient id="paint0_linear_982_476" x1="40.5" y1="0" x2="40.5" y2="80" gradientUnits="userSpaceOnUse">
      <stop stop-color="#8788FF"></stop>
      <stop offset="1" stop-color="#5A5EFF"></stop>
    </linearGradient>
  </defs>
</svg>
