<?xml version="1.0" encoding="UTF-8"?>
<svg xmlns="http://www.w3.org/2000/svg" width="101" height="100" viewBox="0 0 101 100" fill="none">
  <rect x="0.666016" width="100" height="100" rx="50" fill="url(#paint0_linear_982_258)"></rect>
  <path d="M59.0284 69.8689C59.4069 70.312 59.8035 70.7394 60.2185 71.1513C60.1208 71.1893 60.017 71.2089 59.9123 71.2091H28.5839C28.3581 71.2088 28.1417 71.119 27.9821 70.9594C27.8224 70.7998 27.7327 70.5834 27.7324 70.3576V32.6359C27.7327 32.4102 27.8224 32.1937 27.9821 32.0341C28.1417 31.8745 28.3581 31.7847 28.5839 31.7845H38.556V33.125H29.9487C29.7674 33.125 29.5936 33.197 29.4654 33.3252C29.3372 33.4534 29.2651 33.6273 29.2651 33.8086V69.1853C29.2651 69.3666 29.3372 69.5405 29.4654 69.6687C29.5936 69.7969 29.7674 69.8689 29.9487 69.8689H59.0284ZM40.3172 34.5914H48.179C48.2835 34.5913 48.3836 34.5497 48.4575 34.4758C48.5314 34.402 48.573 34.3018 48.5731 34.1973V30.5957C48.573 30.4912 48.5314 30.391 48.4576 30.3172C48.3837 30.2433 48.2835 30.2017 48.179 30.2016H46.049C45.7122 30.2013 45.3893 30.0673 45.1511 29.8291C44.913 29.591 44.779 29.268 44.7786 28.9312V27.525C44.7816 27.3846 44.7312 27.2483 44.6377 27.1436C44.5441 27.0389 44.4143 26.9735 44.2745 26.9607C44.2027 26.9572 44.131 26.9683 44.0636 26.9933C43.9962 27.0184 43.9346 27.0568 43.8826 27.1064C43.8305 27.156 43.7891 27.2156 43.7608 27.2816C43.7325 27.3477 43.7179 27.4188 43.7179 27.4907V28.9308C43.7175 29.2677 43.5835 29.5906 43.3453 29.8287C43.1072 30.0669 42.7843 30.2009 42.4475 30.2013H40.3176C40.2131 30.2014 40.1129 30.2429 40.0391 30.3168C39.9652 30.3907 39.9236 30.4908 39.9235 30.5953V34.1973C39.9237 34.3017 39.9652 34.4018 40.039 34.4757C40.1127 34.5496 40.2128 34.5912 40.3172 34.5914ZM59.2311 33.8086V52.7676C59.7374 52.6254 60.2483 52.5025 60.7638 52.3988V32.6359C60.7635 32.4102 60.6737 32.1938 60.5141 32.0341C60.3545 31.8745 60.1381 31.7847 59.9123 31.7845H49.9403V33.125H58.5475C58.7288 33.125 58.9026 33.197 59.0308 33.3252C59.159 33.4534 59.2311 33.6273 59.2311 33.8086ZM30.6323 34.4922H38.5826C38.6524 34.9019 38.8647 35.2738 39.1821 35.5422C39.4995 35.8106 39.9015 35.9582 40.3172 35.959H48.179C48.5947 35.9583 48.9967 35.8107 49.3141 35.5423C49.6315 35.2739 49.8439 34.9019 49.9137 34.4922H57.8639V53.2288C57.7799 53.2855 57.7096 53.3603 57.6582 53.4476L54.4691 58.9712C54.2785 59.3015 54.2136 59.6895 54.2863 60.0638C54.8804 63.1095 56.1316 65.9889 57.9526 68.5014H30.6323V34.4922ZM50.3361 44.1736C50.1461 44.2738 49.9364 44.3312 49.7218 44.3418C49.5072 44.3524 49.2929 44.3159 49.0938 44.2349C48.8511 44.1323 48.6818 43.9685 48.6295 43.7857C48.5797 43.6114 48.4626 43.464 48.3041 43.376C48.1456 43.288 47.9586 43.2665 47.7843 43.3163C47.61 43.3662 47.4626 43.4832 47.3746 43.6417C47.2866 43.8002 47.2651 43.9872 47.3149 44.1615C47.4815 44.7442 47.9359 45.2301 48.5617 45.4945C48.7127 45.5579 48.8691 45.6075 49.0289 45.643V46.2249C49.0289 46.4062 49.1009 46.5801 49.2291 46.7083C49.3573 46.8365 49.5312 46.9085 49.7125 46.9085C49.8938 46.9085 50.0677 46.8365 50.1959 46.7083C50.3241 46.5801 50.3961 46.4062 50.3961 46.2249V45.6103C50.5999 45.5554 50.7968 45.4775 50.983 45.3781C51.3853 45.1682 51.7106 44.8359 51.912 44.4293C52.1135 44.0226 52.1806 43.5625 52.1037 43.1152C51.9142 42.0637 50.9674 41.3217 49.5713 41.1306C49.1717 41.0759 48.9014 40.9001 48.8102 40.6356C48.7745 40.5297 48.7687 40.4161 48.7932 40.307C48.8178 40.198 48.8718 40.0979 48.9494 40.0175C49.0635 39.912 49.1979 39.8309 49.3444 39.7792C49.4909 39.7275 49.6465 39.7063 49.8015 39.7169C49.9751 39.7232 50.1453 39.7673 50.3002 39.846C50.4551 39.9247 50.591 40.0361 50.6985 40.1726C50.7547 40.2434 50.8244 40.3024 50.9036 40.3461C50.9827 40.3898 51.0698 40.4173 51.1596 40.4271C51.2495 40.437 51.3404 40.4289 51.4271 40.4033C51.5138 40.3778 51.5946 40.3353 51.6648 40.2783C51.735 40.2213 51.7932 40.151 51.836 40.0714C51.8788 39.9917 51.9054 39.9044 51.9142 39.8144C51.9231 39.7245 51.914 39.6336 51.8875 39.5472C51.861 39.4608 51.8176 39.3805 51.7599 39.3109C51.4124 38.8774 50.9338 38.5683 50.3957 38.43V37.8343C50.3957 37.653 50.3237 37.4791 50.1955 37.3509C50.0673 37.2227 49.8934 37.1507 49.7121 37.1507C49.5308 37.1507 49.3569 37.2227 49.2287 37.3509C49.1005 37.4791 49.0285 37.653 49.0285 37.8343V38.4481C48.6273 38.5573 48.2618 38.7699 47.9686 39.0646C47.7158 39.3271 47.54 39.6541 47.4604 40.0097C47.3808 40.3653 47.4004 40.736 47.5172 41.0812C47.7809 41.8471 48.4621 42.3588 49.3854 42.4851C50.1654 42.592 50.6785 42.9181 50.7578 43.3578C50.7812 43.5208 50.7532 43.687 50.6776 43.8332C50.602 43.9795 50.4826 44.0985 50.3361 44.1736ZM44.8697 44.1736C44.6796 44.2738 44.47 44.3312 44.2554 44.3418C44.0408 44.3524 43.8265 44.3159 43.6274 44.2349C43.3846 44.1323 43.2153 43.9685 43.1631 43.7857C43.1133 43.6114 42.9962 43.464 42.8377 43.376C42.6792 43.288 42.4922 43.2665 42.3179 43.3163C42.1436 43.3662 41.9962 43.4832 41.9082 43.6417C41.8202 43.8002 41.7987 43.9872 41.8485 44.1615C42.015 44.7442 42.4695 45.2301 43.0953 45.4945C43.2463 45.5579 43.4026 45.6075 43.5624 45.643V46.2249C43.5624 46.4062 43.6344 46.5801 43.7626 46.7083C43.8908 46.8365 44.0647 46.9085 44.246 46.9085C44.4273 46.9085 44.6012 46.8365 44.7294 46.7083C44.8576 46.5801 44.9296 46.4062 44.9296 46.2249V45.6103C45.1334 45.5554 45.3304 45.4775 45.5166 45.3781C45.9188 45.1681 46.244 44.8358 46.4454 44.4291C46.6467 44.0225 46.7138 43.5624 46.6369 43.1152C46.4473 42.0637 45.5006 41.3217 44.1045 41.1306C43.7048 41.0759 43.4346 40.9001 43.3434 40.6356C43.3077 40.5296 43.3019 40.4159 43.3265 40.3068C43.3511 40.1977 43.4053 40.0975 43.483 40.0171C43.5971 39.9116 43.7315 39.8305 43.878 39.7788C44.0246 39.7271 44.1801 39.7059 44.3352 39.7165C44.5088 39.7228 44.6789 39.7669 44.8338 39.8456C44.9887 39.9243 45.1246 40.0358 45.2321 40.1722C45.2883 40.243 45.358 40.302 45.4372 40.3457C45.5163 40.3894 45.6033 40.4169 45.6932 40.4268C45.7831 40.4366 45.874 40.4285 45.9607 40.4029C46.0474 40.3774 46.1282 40.3349 46.1984 40.2779C46.2686 40.2209 46.3268 40.1506 46.3696 40.071C46.4124 39.9913 46.439 39.904 46.4478 39.8141C46.4567 39.7241 46.4476 39.6333 46.4211 39.5468C46.3946 39.4604 46.3512 39.3801 46.2935 39.3105C45.946 38.877 45.4674 38.5679 44.9293 38.4296V37.8339C44.9293 37.6526 44.8573 37.4787 44.7291 37.3505C44.6009 37.2223 44.427 37.1503 44.2457 37.1503C44.0644 37.1503 43.8905 37.2223 43.7623 37.3505C43.6341 37.4787 43.5621 37.6526 43.5621 37.8339V38.4478C43.1609 38.557 42.7954 38.7696 42.5021 39.0642C42.2493 39.3267 42.0735 39.6537 41.9939 40.0093C41.9143 40.3649 41.934 40.7356 42.0508 41.0808C42.3145 41.8467 42.9958 42.3584 43.919 42.4847C44.6991 42.5916 45.2122 42.9178 45.2914 43.3574C45.3149 43.5205 45.2869 43.6868 45.2112 43.8331C45.1356 43.9795 45.0161 44.0985 44.8694 44.1736H44.8697ZM39.3137 44.1736C39.1236 44.2738 38.9139 44.3312 38.6993 44.3418C38.4847 44.3524 38.2704 44.3159 38.0714 44.2349C37.8286 44.1323 37.6594 43.9685 37.607 43.7857C37.5572 43.6114 37.4402 43.464 37.2817 43.376C37.1232 43.288 36.9362 43.2665 36.7619 43.3163C36.5875 43.3662 36.4402 43.4832 36.3521 43.6417C36.2641 43.8002 36.2426 43.9872 36.2925 44.1615C36.4591 44.7442 36.9135 45.2301 37.5393 45.4945C37.6902 45.5579 37.8466 45.6075 38.0064 45.643V46.2249C38.0064 46.4062 38.0785 46.5801 38.2067 46.7083C38.3349 46.8365 38.5087 46.9085 38.69 46.9085C38.8713 46.9085 39.0452 46.8365 39.1734 46.7083C39.3016 46.5801 39.3736 46.4062 39.3736 46.2249V45.6103C39.5774 45.5554 39.7743 45.4775 39.9605 45.3781C40.3628 45.1681 40.688 44.8358 40.8894 44.4292C41.0907 44.0225 41.1577 43.5624 41.0809 43.1152C40.8912 42.0637 39.9445 41.3217 38.5484 41.1306C38.1488 41.0759 37.8785 40.9001 37.7873 40.6356C37.7517 40.5296 37.7459 40.4159 37.7705 40.3068C37.7951 40.1977 37.8492 40.0975 37.927 40.0171C38.041 39.9116 38.1755 39.8305 38.322 39.7788C38.4685 39.7271 38.6241 39.7059 38.7791 39.7165C38.9527 39.7228 39.1229 39.7669 39.2778 39.8456C39.4327 39.9243 39.5686 40.0357 39.6761 40.1722C39.7326 40.2423 39.8023 40.3004 39.8813 40.3434C39.9603 40.3864 40.047 40.4134 40.1365 40.4229C40.2259 40.4323 40.3163 40.424 40.4026 40.3984C40.4888 40.3728 40.5691 40.3304 40.639 40.2737C40.7088 40.217 40.7668 40.1471 40.8095 40.068C40.8523 39.9889 40.879 39.9021 40.8882 39.8126C40.8973 39.7231 40.8887 39.6327 40.8629 39.5465C40.837 39.4604 40.7944 39.3802 40.7375 39.3105C40.39 38.8771 39.9114 38.568 39.3733 38.4296V37.8339C39.3733 37.6526 39.3013 37.4787 39.1731 37.3505C39.0449 37.2223 38.871 37.1503 38.6897 37.1503C38.5084 37.1503 38.3346 37.2223 38.2064 37.3505C38.0782 37.4787 38.0062 37.6526 38.0062 37.8339V38.4477C37.605 38.557 37.2395 38.7696 36.9461 39.0642C36.6933 39.3268 36.5176 39.6537 36.438 40.0093C36.3584 40.365 36.3781 40.7356 36.4948 41.0808C36.7585 41.8467 37.4397 42.3584 38.363 42.4847C39.1431 42.5916 39.6561 42.9178 39.7354 43.3574C39.7589 43.5205 39.7309 43.6868 39.6552 43.8331C39.5795 43.9795 39.46 44.0985 39.3134 44.1736H39.3137ZM34.9943 49.4025C34.9943 49.5838 35.0664 49.7577 35.1946 49.8859C35.3228 50.0141 35.4966 50.0861 35.6779 50.0861H52.8183C52.9996 50.0861 53.1734 50.0141 53.3016 49.8859C53.4298 49.7577 53.5019 49.5838 53.5019 49.4025C53.5019 49.2212 53.4298 49.0473 53.3016 48.9191C53.1734 48.7909 52.9996 48.7189 52.8183 48.7189H35.6779C35.4966 48.7189 35.3228 48.7909 35.1946 48.9191C35.0664 49.0473 34.9943 49.2212 34.9943 49.4025ZM34.9943 52.3517C34.9943 52.533 35.0664 52.7069 35.1946 52.8351C35.3228 52.9633 35.4966 53.0353 35.6779 53.0353H52.8183C52.9996 53.0353 53.1734 52.9633 53.3016 52.8351C53.4298 52.7069 53.5019 52.533 53.5019 52.3517C53.5019 52.1704 53.4298 51.9966 53.3016 51.8684C53.1734 51.7402 52.9996 51.6681 52.8183 51.6681H35.6779C35.5881 51.6681 35.4992 51.6858 35.4163 51.7202C35.3333 51.7546 35.258 51.8049 35.1945 51.8684C35.131 51.9319 35.0807 52.0073 35.0463 52.0903C35.012 52.1732 34.9943 52.2621 34.9943 52.3519V52.3517ZM34.9943 55.301C34.9943 55.4823 35.0664 55.6561 35.1946 55.7843C35.3228 55.9125 35.4966 55.9846 35.6779 55.9846H52.8183C52.9996 55.9846 53.1734 55.9125 53.3016 55.7843C53.4298 55.6561 53.5019 55.4823 53.5019 55.301C53.5019 55.1197 53.4298 54.9458 53.3016 54.8176C53.1734 54.6894 52.9996 54.6174 52.8183 54.6174H35.6779C35.5881 54.6174 35.4992 54.6351 35.4162 54.6694C35.3332 54.7038 35.2579 54.7542 35.1944 54.8178C35.1309 54.8813 35.0806 54.9567 35.0462 55.0397C35.0119 55.1227 34.9943 55.2116 34.9943 55.3014V55.301ZM34.9943 58.2502C34.9943 58.4315 35.0664 58.6054 35.1946 58.7336C35.3228 58.8617 35.4966 58.9338 35.6779 58.9338H52.8183C52.9996 58.9338 53.1734 58.8617 53.3016 58.7336C53.4298 58.6054 53.5019 58.4315 53.5019 58.2502C53.5019 58.0689 53.4298 57.895 53.3016 57.7668C53.1734 57.6386 52.9996 57.5666 52.8183 57.5666H35.6779C35.5881 57.5666 35.4992 57.5843 35.4162 57.6187C35.3332 57.6531 35.2578 57.7035 35.1943 57.767C35.1308 57.8306 35.0805 57.906 35.0462 57.9891C35.0119 58.0721 34.9942 58.161 34.9943 58.2509V58.2502ZM34.9943 61.1994C34.9943 61.3807 35.0664 61.5546 35.1946 61.6828C35.3228 61.811 35.4966 61.883 35.6779 61.883H52.8183C52.9996 61.883 53.1734 61.811 53.3016 61.6828C53.4298 61.5546 53.5019 61.3807 53.5019 61.1994C53.5019 61.0181 53.4298 60.8442 53.3016 60.716C53.1734 60.5878 52.9996 60.5158 52.8183 60.5158H35.6779C35.5881 60.5158 35.4991 60.5335 35.4161 60.5679C35.3331 60.6023 35.2577 60.6528 35.1942 60.7163C35.1308 60.7799 35.0804 60.8554 35.0461 60.9384C35.0118 61.0214 34.9942 61.1104 34.9943 61.2003V61.1994ZM34.9943 64.1486C34.9943 64.3299 35.0664 64.5038 35.1946 64.632C35.3228 64.7602 35.4966 64.8322 35.6779 64.8322H52.8183C52.9996 64.8322 53.1734 64.7602 53.3016 64.632C53.4298 64.5038 53.5019 64.3299 53.5019 64.1486C53.5019 63.9673 53.4298 63.7934 53.3016 63.6652C53.1734 63.537 52.9996 63.465 52.8183 63.465H35.6779C35.5881 63.465 35.4991 63.4827 35.4161 63.5172C35.333 63.5516 35.2576 63.6021 35.1941 63.6657C35.1306 63.7293 35.0803 63.8048 35.046 63.8878C35.0117 63.9709 34.9942 64.0599 34.9943 64.1498V64.1486ZM74.2643 59.6728C73.7487 62.3975 72.6743 64.9859 71.1088 67.2748C69.5433 69.5636 67.5206 71.5034 65.1683 72.9718C65.0979 73.0153 65.0167 73.0384 64.9339 73.0384C64.8511 73.0384 64.7699 73.0153 64.6995 72.9718C62.3666 71.5144 60.3578 69.5937 58.7975 67.3284C57.2372 65.0631 56.1586 62.5016 55.6286 59.8025C55.6186 59.7515 55.6273 59.6985 55.6532 59.6534L58.7135 54.3529C62.779 53.0119 67.1662 53.0022 71.2376 54.3253L74.2396 59.5248C74.2655 59.5699 74.2742 59.6229 74.2643 59.674V59.6728ZM70.236 59.2738C70.1613 59.1976 70.0719 59.1372 69.9733 59.0962C69.8747 59.0553 69.7689 59.0346 69.6621 59.0354C69.4658 59.0354 69.1604 59.1054 68.8209 59.4377L64.0748 64.0581C64.0013 64.1297 63.9025 64.1695 63.7999 64.1688C63.6973 64.1682 63.599 64.1272 63.5264 64.0547L61.5579 62.0898C61.3084 61.8406 61.0332 61.709 60.762 61.709C60.6913 61.7089 60.6209 61.7182 60.5525 61.7365C60.4134 61.7752 60.2867 61.8492 60.1847 61.9513C60.0827 62.0535 60.0088 62.1803 59.9703 62.3194C59.8817 62.6507 60.0077 63.0075 60.3249 63.3243L62.947 65.942C63.1709 66.1644 63.4733 66.29 63.789 66.2917C64.1046 66.2934 64.4083 66.1711 64.6347 65.9511L70.0414 60.6845C70.2933 60.4382 70.4334 60.1792 70.458 59.9146C70.4696 59.7983 70.4558 59.6808 70.4175 59.5704C70.3791 59.4599 70.3172 59.3591 70.236 59.275V59.2738Z" fill="white"></path>
  <defs>
    <linearGradient id="paint0_linear_982_258" x1="50.666" y1="0" x2="50.666" y2="100" gradientUnits="userSpaceOnUse">
      <stop stop-color="#29B7FF"></stop>
      <stop offset="1" stop-color="#368AFF"></stop>
    </linearGradient>
  </defs>
</svg>
