<svg xmlns="http://www.w3.org/2000/svg" width="92" height="93" viewBox="0 0 92 93" fill="none"><rect y="0.0224609" width="92" height="92" rx="46" fill="white"></rect><rect x="0.5" y="0.522461" width="91" height="91" rx="45.5" stroke="#477BFF" stroke-opacity="0.16"></rect><path d="M60.9945 46.4038C60.8927 46.268 60.7528 46.1654 60.5926 46.1091C60.4324 46.0528 60.2591 46.0452 60.0946 46.0874C59.9301 46.1296 59.7819 46.2196 59.6686 46.346C59.5552 46.4725 59.482 46.6297 59.458 46.7978L58.9816 50.137C58.9701 50.1799 58.9551 50.2217 58.937 50.2623C59.8124 49.0998 60.519 47.8192 61.0357 46.4588L60.9945 46.4038ZM58.131 50.8735C58.0905 50.8735 58.0501 50.8709 58.0099 50.8657L52.9111 50.137C52.6857 50.1047 52.4824 49.9842 52.3459 49.802C52.2094 49.6198 52.1509 49.3908 52.1832 49.1655V49.1653L52.6596 45.8261C52.6833 45.6582 52.6568 45.487 52.5834 45.3342C52.51 45.1813 52.393 45.0536 52.247 44.9672C52.1011 44.8808 51.9329 44.8396 51.7636 44.8487C51.5942 44.8578 51.4314 44.9168 51.2956 45.0184L48.5968 47.0416C48.5066 47.1092 48.404 47.1585 48.2948 47.1864C48.1856 47.2144 48.072 47.2206 47.9604 47.2047C47.8488 47.1887 47.7414 47.1509 47.6444 47.0935C47.5474 47.0361 47.4627 46.9601 47.3951 46.8699L44.3049 42.7496C44.1683 42.5675 44.1096 42.3386 44.1418 42.1132C44.174 41.8878 44.2944 41.6845 44.4765 41.5479L47.1745 39.5247C47.3103 39.4228 47.4129 39.2829 47.4692 39.1227C47.5255 38.9625 47.5331 38.7892 47.4909 38.6248C47.4487 38.4603 47.3587 38.312 47.2322 38.1987C47.1058 38.0854 46.9486 38.0121 46.7805 37.9882L43.4413 37.5109C43.2159 37.4788 43.0125 37.3585 42.8758 37.1765C42.7391 36.9944 42.6804 36.7655 42.7124 36.5402L42.7125 36.5392L43.4413 31.4412C43.4734 31.2158 43.5937 31.0124 43.7757 30.8757C43.9578 30.739 44.1867 30.6803 44.412 30.7123L44.413 30.7124L47.7521 31.1897C47.9201 31.214 48.0914 31.1877 48.2443 31.1142C48.3972 31.0406 48.5247 30.9232 48.6105 30.7768C48.6996 30.6315 48.7423 30.4626 48.7331 30.2924C48.7239 30.1222 48.6632 29.9589 48.559 29.824L46.5375 27.1269C46.4699 27.0368 46.4207 26.9341 46.3927 26.8249C46.3647 26.7157 46.3585 26.6021 46.3745 26.4905C46.3904 26.3789 46.4282 26.2716 46.4856 26.1746C46.543 26.0776 46.619 25.9928 46.7092 25.9252L47.1959 25.5604C46.4074 25.5222 45.6172 25.5435 44.8319 25.6239C36.3536 26.5919 30.2654 34.2498 31.2335 42.7281C31.4939 45.0087 32.2592 47.2027 33.4737 49.1505C34.6883 51.0983 36.3216 52.7511 38.2549 53.9886C38.9583 54.4246 39.5403 55.031 39.9472 55.7517C40.3541 56.4723 40.5727 57.2839 40.5829 58.1114V61.5802C40.5829 63.0024 41.7358 64.1553 43.158 64.1553H50.0252C51.4474 64.1553 52.6003 63.0024 52.6003 61.5802V58.1827C52.6111 57.3356 52.8344 56.5049 53.2499 55.7666C53.6653 55.0284 54.2596 54.4064 54.9781 53.9577C56.3313 53.0797 57.5398 51.9967 58.5601 50.7473C58.4308 50.8266 58.2827 50.8701 58.131 50.8735ZM47.45 61.5802H45.7332V59.005H47.45V61.5802ZM45.7332 57.2882C45.7327 55.0186 44.3332 52.9842 42.2138 52.1722C36.0324 49.7552 32.9809 42.785 35.3979 36.6036C36.3338 34.21 38.0123 32.1796 40.1872 30.8103L41.0979 32.2627C36.2829 35.2925 34.8357 41.6519 37.8655 46.4669C39.0394 48.3324 40.7807 49.7722 42.8336 50.5747C45.6156 51.6388 47.4521 54.3096 47.45 57.2882H45.7332ZM43.158 68.4473V69.3057C43.158 70.2539 43.9266 71.0225 44.8748 71.0225H48.3084C49.2566 71.0225 50.0252 70.2539 50.0252 69.3057V68.4473H43.158Z" fill="#477BFF"></path><path d="M37.7913 54.7134C37.2827 54.3837 36.793 54.0258 36.3244 53.6413C35.0285 56.1639 31.9331 57.1584 29.4105 55.8626C28.5685 55.43 27.8624 54.7731 27.3702 53.9643C26.8781 53.1556 26.6192 52.2266 26.622 51.2799C26.6259 48.6846 28.5587 46.497 31.1337 46.1733C30.8186 45.2258 30.5911 44.2515 30.4538 43.2625L30.3036 43.9767C30.1085 44.9045 29.1981 45.4985 28.2703 45.3034C28.0481 45.2568 27.8373 45.1664 27.6503 45.0377L25.8649 43.8119L24.3009 45.3724L25.5301 47.1596C26.0681 47.9403 25.8713 49.0094 25.0906 49.5474C24.9034 49.6764 24.6924 49.7669 24.47 49.8137L22.33 50.2644V52.3039L24.47 52.7546C25.3978 52.95 25.9916 53.8605 25.7962 54.7883C25.7493 55.0111 25.6585 55.2223 25.5292 55.4096L24.3009 57.1873L25.8649 58.7479L27.6486 57.5187C28.4293 56.9807 29.4984 57.1774 30.0364 57.9582C30.1654 58.1454 30.2559 58.3563 30.3027 58.5788L30.7525 60.7222H32.7929L33.2427 58.5822C33.438 57.6544 34.3484 57.0605 35.2763 57.2558C35.4987 57.3026 35.7097 57.3931 35.8969 57.5221L37.6798 58.7479L39.521 56.9066C39.2123 55.9993 38.6018 55.2252 37.7913 54.7134ZM43.158 65.0141H50.0251V66.7309H43.158V65.0141ZM68.0247 35.8211C66.6169 35.6198 65.6387 34.3152 65.84 32.9073C65.8879 32.5725 66.0012 32.2505 66.1736 31.9595C66.3459 31.6686 66.5739 31.4144 66.8444 31.2116L68.8556 29.7025L66.7955 26.9557L64.7843 28.4639C63.6467 29.3175 62.0325 29.0873 61.179 27.9498C60.7696 27.4042 60.5933 26.7185 60.6889 26.0432L61.0443 23.5539L57.6459 23.0689L57.2905 25.5582C57.0891 26.9661 55.7846 27.9442 54.3767 27.7429C54.042 27.695 53.7199 27.5817 53.429 27.4094C53.138 27.237 52.8838 27.0091 52.681 26.7385L51.1719 24.7238L48.4251 26.784L49.9333 28.7952C50.7867 29.9329 50.5564 31.547 49.4187 32.4005C49.148 32.6036 48.84 32.7513 48.5122 32.8352C48.1844 32.9192 47.8433 32.9377 47.5083 32.8897L45.019 32.5343L44.5314 35.9336L47.0208 36.2889C48.4286 36.4903 49.4068 37.7949 49.2055 39.2027C49.1576 39.5375 49.0443 39.8596 48.8719 40.1505C48.6996 40.4415 48.4716 40.6957 48.201 40.8985L46.1907 42.4075L48.2508 45.1544L50.262 43.6462C51.3997 42.7928 53.0138 43.0231 53.8674 44.1608C54.0704 44.4315 54.2181 44.7395 54.3021 45.0673C54.386 45.3951 54.4045 45.7362 54.3566 46.0712L54.0012 48.5605L57.4073 49.0481L57.7627 46.5587C57.9641 45.1509 59.2686 44.1727 60.6765 44.374C61.0112 44.4219 61.3333 44.5352 61.6243 44.7076C61.9152 44.8799 62.1694 45.1079 62.3722 45.3784L63.8813 47.3888L66.6281 45.3287L65.1148 43.314C64.2617 42.1761 64.4924 40.562 65.6304 39.7089C66.1758 39.2999 66.8613 39.1239 67.5363 39.2195L70.0256 39.5749L70.5106 36.1765L68.0247 35.8211ZM57.524 41.2058C54.6795 41.2058 52.3737 38.9 52.3737 36.0555C52.3737 33.211 54.6795 30.9051 57.524 30.9051C60.3685 30.9051 62.6744 33.211 62.6744 36.0555C62.6711 38.8986 60.3671 41.2025 57.524 41.2058ZM62.901 52.9967H68.9097V54.7134H62.901V52.9967ZM61.4932 58.8059L62.5922 57.4869L67.7429 61.7782L66.644 63.0972L61.4932 58.8059ZM57.7506 59.8638H59.4674V65.8725H57.7506V59.8638ZM21.4897 35.8538L28.3564 34.1373L28.7725 35.8019L21.9059 37.5185L21.4897 35.8538ZM22.9156 27.0854L23.9129 25.6892L29.9213 29.9806L28.9239 31.3769L22.9156 27.0854ZM30.2704 21.4477L31.9336 21.0225L33.6893 27.8891L32.0262 28.3143L30.2704 21.4477Z" fill="#477BFF"></path></svg>