<?xml version="1.0" encoding="UTF-8"?>
<svg xmlns="http://www.w3.org/2000/svg" width="92" height="92" viewBox="0 0 92 92" fill="none">
  <circle cx="46" cy="46" r="46" fill="white"></circle>
  <circle cx="46" cy="46" r="36" fill="url(#paint0_linear_982_203)"></circle>
  <path fill-rule="evenodd" clip-rule="evenodd" d="M41.6194 27.7914L41.8343 28.5929C43.1042 28.346 44.4536 28.2164 45.8219 28.2164C47.1902 28.2164 48.5396 28.346 49.8094 28.5929L50.0243 27.7914C48.7578 27.2722 47.314 26.999 45.8219 26.999C44.3297 26.9998 42.886 27.2722 41.6194 27.7914ZM53.2966 59.6425C53.3156 59.7683 53.2852 59.8965 53.2116 60.0003C53.138 60.104 53.027 60.1752 52.902 60.1987L50.8405 60.59L51.975 61.6433C52.0229 61.6874 52.0614 61.7405 52.0885 61.7997C52.1155 61.8588 52.1305 61.9228 52.1325 61.9878C52.1375 62.1191 52.0891 62.2462 51.9988 62.3422L49.8996 64.5702H60.4349V64.3675C60.4349 61.4169 58.8222 58.9494 56.1201 57.7648L52.7962 56.3088L53.2966 59.6425ZM49.9415 55.0578L51.7314 55.842L52.2539 59.3202L49.7003 59.8058C49.6108 59.8227 49.5278 59.8641 49.4604 59.9254C49.3931 59.9867 49.3441 60.0655 49.3189 60.153C49.2937 60.2406 49.2933 60.3334 49.3178 60.4211C49.3423 60.5088 49.3906 60.588 49.4575 60.6499L50.9431 62.028L48.7077 64.3995L49.9415 55.0578ZM40.8032 60.5908L38.7409 60.1995C38.6161 60.1757 38.5053 60.1045 38.4317 60.0008C38.3582 59.8972 38.3276 59.7691 38.3464 59.6434L38.8476 56.3096L35.5229 57.7657C32.8207 58.9502 31.208 61.4177 31.208 64.3684V64.571H41.7433L39.6441 62.343C39.5539 62.2478 39.5063 62.1199 39.5104 61.9886C39.5145 61.8574 39.5711 61.7335 39.6679 61.6441L40.8032 60.5908ZM42.936 64.3995L40.7007 62.028L42.1871 60.6499C42.2537 60.5878 42.3019 60.5085 42.3262 60.4208C42.3505 60.333 42.3501 60.2403 42.3249 60.1528C42.2999 60.0652 42.2509 59.9863 42.1835 59.925C42.1161 59.8637 42.033 59.8224 41.9434 59.8058L39.3898 59.3202L39.9123 55.842L41.7023 55.0578L42.936 64.3995ZM45.8211 56.8248C44.5791 56.8248 43.4487 56.2637 42.7334 55.3531L43.9507 64.5702H47.6922L48.9087 55.3531C48.1942 56.2628 47.0638 56.8248 45.8211 56.8248ZM45.6504 53.2745C45.7054 53.2941 45.7636 53.3048 45.8211 53.3048C45.8785 53.3048 45.9367 53.295 45.9917 53.2745C46.6209 53.0423 47.2172 52.7618 47.78 52.441V52.6715C47.78 53.2868 48.0228 53.8462 48.4411 54.2506C47.9768 55.2128 46.9646 55.8412 45.8211 55.8412C44.6775 55.8412 43.6653 55.2137 43.201 54.2506C43.6193 53.8462 43.8621 53.2868 43.8621 52.6715V52.4279C44.4298 52.7593 45.027 53.0439 45.6504 53.2745ZM48.7553 38.4965C46.4913 40.028 43.7924 40.8369 40.9353 40.8369H39.2668V42.6063C39.2668 46.89 41.8926 50.7561 45.8211 52.286C49.8094 50.7413 52.3754 47.1164 52.3754 43.0033C52.3762 40.827 50.866 38.9625 48.7553 38.4965ZM45.8211 34.9224C43.7563 34.9224 41.7638 35.4097 40.2101 36.2956C40.0756 36.3727 39.9132 36.3809 39.7713 36.3194C39.6293 36.2579 39.5243 36.1332 39.4882 35.9831L38.9386 33.7018C37.6754 35.2727 36.9887 37.2062 36.9887 39.2348V47.6012C36.9887 50.1597 38.9091 52.1777 41.5554 52.3992L42.8778 52.5099V51.7774C41.8952 51.0515 41.0374 50.1704 40.3381 49.1688C38.9928 47.246 38.2824 44.977 38.2824 42.6055V40.3439C38.2824 40.0715 38.5022 39.8517 38.7746 39.8517H40.9353C43.6243 39.8517 46.2632 39.0412 48.3657 37.5696C48.4186 37.5325 48.4783 37.5063 48.5413 37.4923C48.6044 37.4784 48.6696 37.477 48.7332 37.4884C51.4139 37.9633 53.3597 40.2832 53.3597 43.0033C53.3597 46.5561 51.6248 49.7734 48.7643 51.8118V52.5116L50.1605 52.3959C52.8093 52.1752 54.7313 50.1573 54.7313 47.5971V39.234C54.7313 37.1701 54.0234 35.2104 52.7215 33.6263L52.1539 35.9831C52.136 36.0572 52.1011 36.1262 52.052 36.1846C52.0029 36.2429 51.9409 36.2891 51.8709 36.3194C51.8008 36.3496 51.7247 36.3631 51.6485 36.3588C51.5724 36.3545 51.4982 36.3326 51.432 36.2948C49.8791 35.4097 47.8866 34.9224 45.8211 34.9224ZM45.8211 29.2016C48.2385 29.2016 50.5871 29.6224 52.4877 30.3918L51.345 35.1382C49.7446 34.3613 47.8095 33.9389 45.8211 33.9389C43.8326 33.9389 41.8975 34.3613 40.2971 35.1382L39.1544 30.3918C41.0559 29.6224 43.4036 29.2016 45.8211 29.2016ZM44.1288 31.578C44.1288 31.8495 44.3494 32.0702 44.6209 32.0702H45.3297V32.7789C45.3297 33.0505 45.5504 33.2711 45.8219 33.2711C46.0934 33.2711 46.3141 33.0505 46.3141 32.7789V32.0702H47.0228C47.2943 32.0702 47.515 31.8495 47.515 31.578C47.515 31.3065 47.2943 31.0858 47.0228 31.0858H46.3141V30.3771C46.3141 30.1055 46.0934 29.8849 45.8219 29.8849C45.5504 29.8849 45.3297 30.1055 45.3297 30.3771V31.0858H44.6209C44.3486 31.0858 44.1288 31.3057 44.1288 31.578Z" fill="white"></path>
  <defs>
    <linearGradient id="paint0_linear_982_203" x1="46" y1="10" x2="46" y2="82" gradientUnits="userSpaceOnUse">
      <stop stop-color="#FFC182"></stop>
      <stop offset="1" stop-color="#FF792E"></stop>
    </linearGradient>
  </defs>
</svg>
