<svg xmlns="http://www.w3.org/2000/svg" width="81" height="80" viewBox="0 0 81 80" fill="none"><path d="M0.5 40C0.5 17.9086 18.4086 0 40.5 0C62.5914 0 80.5 17.9086 80.5 40C80.5 62.0914 62.5914 80 40.5 80C18.4086 80 0.5 62.0914 0.5 40Z" fill="url(#paint0_linear_956_3459)"></path><path d="M29.7423 50.6812H29.7023C28.9028 50.6812 28.2564 51.3276 28.2564 52.1272C28.2564 52.9268 28.9028 53.5731 29.7023 53.5731C30.5019 53.5731 31.1483 52.9268 31.1483 52.1272C31.1549 51.3409 30.5286 50.7012 29.7423 50.6812ZM50.1918 44.2912C50.6116 45.2307 51.5845 47.6561 51.6178 49.7417C52.8238 50.3214 53.5435 52.8735 53.73 54.5459C53.77 54.9391 53.6501 55.3322 53.4102 55.6054C53.2036 55.8319 52.9371 55.9585 52.6506 55.9585H52.1175C51.8377 55.9585 51.6178 55.732 51.6178 55.4588C51.6178 55.1789 51.8377 54.959 52.1175 54.959H52.6506C52.6706 54.9457 52.7505 54.8324 52.7372 54.6592C52.4907 52.4337 51.5778 50.6213 51.1114 50.6213C50.6849 50.6213 49.8054 52.1805 49.3789 54.6192C49.3456 54.8125 49.4322 54.9457 49.4655 54.959H49.8387C50.1185 54.959 50.3384 55.1789 50.3384 55.4588C50.3384 55.732 50.1185 55.9585 49.8387 55.9585H49.4589C49.159 55.9585 48.8792 55.8253 48.6793 55.5787C48.4261 55.2855 48.3195 54.8591 48.3928 54.446C48.5194 53.7197 49.179 50.3681 50.6183 49.7284C50.5716 47.3629 49.1191 44.3578 49.1057 44.3245C49.0687 44.2478 49.0517 44.1629 49.0563 44.0779C49.061 43.9928 49.0872 43.9103 49.1324 43.8381C49.0124 43.7848 48.8858 43.7448 48.7592 43.6982C49.5339 42.5959 49.9482 41.2807 49.9453 39.9334C49.9453 38.5075 49.832 36.0554 49.1124 34.7694C49.139 34.7361 49.159 34.7028 49.179 34.6695C49.2123 34.6228 49.2457 34.5695 49.2723 34.5229C51.1513 31.6577 51.9043 29.3588 51.9043 26.5003C51.9043 19.7571 46.1406 18.8442 40.4968 18.8442C34.8597 18.8442 29.0893 19.7571 29.0893 26.5003C29.0893 28.6859 29.9356 30.2917 30.955 32.0175C30.9817 32.0641 31.0217 32.1041 31.0617 32.1374C31.055 32.1907 31.0483 32.244 31.0483 32.304C31.0483 32.8437 31.2149 33.5034 31.5014 34.1097C30.6352 35.5357 29.9289 37.8212 29.9289 39.2271C29.9289 40.8463 30.5286 42.3788 31.588 43.5716C31.6214 43.6115 31.6613 43.6582 31.7013 43.6982C31.7546 43.7581 31.8146 43.8181 31.8746 43.8781L31.7746 43.918C31.7879 44.0047 31.7746 44.0913 31.7346 44.1712C31.7146 44.2112 30.2754 47.343 30.2154 49.7284C31.3215 49.9683 32.1544 50.9544 32.1544 52.1272C32.1544 53.4798 31.0617 54.5726 29.709 54.5726C28.363 54.5726 27.2636 53.4798 27.2636 52.1272C27.2636 50.9478 28.1032 49.9616 29.2159 49.7284C29.2559 47.8427 30.0488 45.6305 30.5019 44.4977C27.9033 45.8504 25.9043 48.1292 25.9043 51.9539C25.9043 58.0575 30.8151 61.1559 40.4968 61.1559C50.1852 61.1559 55.096 58.0575 55.096 51.9539C55.0893 47.9293 52.9371 45.6105 50.1918 44.2912ZM47.7198 31.4045C48.7526 31.4711 48.9525 31.7643 48.9525 32.304C48.9525 33.1636 48.3861 34.323 47.7198 34.7561V31.4045ZM34.2667 29.6187C34.6998 27.6264 36.6854 27.3865 38.7844 27.14C39.7372 27.0267 40.7034 26.9068 41.4896 26.5936C42.3758 27.6797 43.4753 27.8863 44.4481 28.0595C45.5209 28.2527 46.3005 28.3927 46.7136 29.6387V36.142C46.7136 38.3942 43.7951 40.4465 42.0493 41.4793C41.0832 42.0523 39.8905 42.0523 38.9309 41.4726C37.1918 40.4465 34.2667 38.3942 34.2667 36.142V29.6187ZM41.0165 46.7766C40.85 46.7966 40.6834 46.8232 40.4968 46.8232C39.4107 46.8232 38.4312 46.2968 37.7516 45.4706C37.4251 45.0508 37.1985 44.5977 37.0519 44.2246C36.8987 43.7781 36.812 43.2984 36.812 42.7986C36.812 42.4655 36.8453 41.959 36.9186 41.3527C37.4184 41.7125 37.9381 42.0457 38.4312 42.3322C39.0642 42.7187 39.7838 42.9052 40.4968 42.9052C41.2098 42.9052 41.9294 42.7187 42.5624 42.3389C43.0622 42.0457 43.5752 41.7125 44.0816 41.3527C44.1483 41.959 44.1882 42.4655 44.1882 42.7986C44.1882 43.285 44.1016 43.7515 43.9617 44.1779L43.8084 44.5377C43.6309 44.9297 43.3999 45.2952 43.1221 45.6238C42.5691 46.2369 41.8361 46.65 41.0165 46.7766ZM42.6957 47.263L40.2369 53.2466L38.0714 47.1164C38.5045 47.4029 38.9909 47.5962 39.5106 47.7028C39.544 47.7161 39.5773 47.7228 39.6106 47.7294C39.7239 47.7494 39.8371 47.7694 39.9504 47.7827C40.1303 47.8027 40.3169 47.8227 40.4968 47.8227C40.6701 47.8227 40.8433 47.8094 41.0099 47.7894C41.6096 47.7228 42.1826 47.5495 42.6957 47.263ZM32.0478 32.304C32.0478 31.8442 32.1544 31.4844 33.2738 31.4111V34.7494C32.6075 34.3163 32.0478 33.1636 32.0478 32.304ZM47.933 46.57L46.6003 47.7694C46.4071 47.9426 46.3805 48.2358 46.5404 48.4424L47.7398 49.9949L40.4502 58.2507L33.1672 49.9949L34.3666 48.4424C34.5265 48.2358 34.4999 47.9426 34.3067 47.7694L32.9807 46.5767L32.6342 44.671C33.7136 44.2912 34.8397 44.038 35.9258 43.8781C35.9591 44.0646 36.0124 44.2445 36.0658 44.4245C36.0724 44.4311 36.0658 44.4444 36.0724 44.4511L39.7239 54.8191C39.7972 55.0124 39.9771 55.1456 40.1836 55.1523H40.197C40.4035 55.1523 40.5834 55.0257 40.6634 54.8391L44.668 45.0908C44.748 44.9175 44.8213 44.7376 44.8879 44.5511C44.9012 44.5177 44.9145 44.4911 44.9279 44.4578V44.4245C44.9878 44.2379 45.0411 44.0446 45.0811 43.8447C46.1539 44.0047 47.2667 44.2445 48.3395 44.6177L47.933 46.57Z" fill="white"></path><defs><linearGradient id="paint0_linear_956_3459" x1="40.5" y1="0" x2="40.5" y2="80" gradientUnits="userSpaceOnUse"><stop stop-color="#8788FF"></stop><stop offset="1" stop-color="#5A5EFF"></stop></linearGradient></defs></svg>