<?xml version="1.0" encoding="UTF-8"?>
<svg xmlns="http://www.w3.org/2000/svg" width="93" height="93" viewBox="0 0 93 93" fill="none">
  <circle cx="46.5527" cy="46.6826" r="46" fill="white"></circle>
  <circle cx="46.5527" cy="46.6826" r="36" fill="url(#paint0_linear_1074_223)"></circle>
  <path fill-rule="evenodd" clip-rule="evenodd" d="M48.8058 54.4685L50.4283 58.2882C50.4523 58.3445 50.4619 58.4058 50.4563 58.4667C50.4507 58.5276 50.43 58.5861 50.3962 58.637C50.3625 58.688 50.3167 58.7298 50.2629 58.7588C50.2091 58.7877 50.149 58.8029 50.0879 58.8029H41.9132C41.8521 58.8028 41.792 58.7876 41.7383 58.7586C41.6845 58.7296 41.6387 58.6878 41.605 58.6369C41.5713 58.586 41.5507 58.5275 41.5451 58.4667C41.5395 58.4059 41.5489 58.3447 41.5727 58.2884L43.1952 54.4685H41.5355L38.9625 60.5267H53.0395L50.4665 54.4685H48.8058ZM59.4964 52.1781H32.5046C32.4065 52.1781 32.3124 52.1391 32.243 52.0697C32.1735 52.0003 32.1345 51.9062 32.1345 51.8081L32.1347 33.3936C32.1347 33.1895 32.3003 33.0236 32.5044 33.0236H59.4966C59.7009 33.0236 59.8664 33.1895 59.8664 33.3936V51.8081C59.8664 52.0124 59.7007 52.1781 59.4964 52.1781ZM30.584 33.0199V52.182C30.584 53.0349 31.2776 53.7288 32.1307 53.7288H59.8709C60.7232 53.7288 61.4168 53.0349 61.4168 52.182V33.0199C61.4168 32.1668 60.7234 31.4731 59.8709 31.4731H32.1309C31.2778 31.4731 30.584 32.1668 30.584 33.0199Z" fill="white"></path>
  <path fill-rule="evenodd" clip-rule="evenodd" d="M49.693 46.8418H40.332C40.2339 46.8418 40.1398 46.8028 40.0705 46.7334C40.0011 46.664 39.9621 46.57 39.962 46.4719V38.7301C39.962 38.5258 40.1277 38.3601 40.332 38.3601H51.6683C51.8723 38.3601 52.038 38.5258 52.038 38.7301V46.4719C52.038 46.6761 51.8723 46.8418 51.6683 46.8418H49.693ZM32.874 33.7637V51.438H59.126V33.7637H32.874ZM53.832 49.6372C53.7343 49.6279 53.6443 49.5802 53.5818 49.5045C53.5192 49.4289 53.4893 49.3315 53.4986 49.2338C53.5079 49.1361 53.5556 49.046 53.6312 48.9835C53.7069 48.921 53.8043 48.8911 53.902 48.9003L54.7975 48.9859L52.8 46.9882C52.7306 46.9188 52.6916 46.8246 52.6916 46.7265C52.6916 46.6283 52.7306 46.5342 52.8 46.4648C52.8694 46.3957 52.9634 46.3569 53.0614 46.3569C53.1593 46.3569 53.2533 46.3957 53.3228 46.4648L55.3206 48.4627L55.2355 47.5676C55.2308 47.5193 55.2357 47.4705 55.2498 47.424C55.264 47.3775 55.2873 47.3343 55.3182 47.2969C55.3491 47.2594 55.3871 47.2284 55.43 47.2056C55.473 47.1829 55.52 47.1688 55.5683 47.1643C55.6167 47.1596 55.6655 47.1646 55.712 47.1788C55.7584 47.1931 55.8016 47.2164 55.8391 47.2473C55.8765 47.2783 55.9075 47.3164 55.9302 47.3593C55.953 47.4023 55.967 47.4493 55.9715 47.4977L56.1536 49.4055C56.1639 49.4869 56.1469 49.5694 56.1052 49.6401L56.1046 49.6409L56.1004 49.6478L56.0965 49.654L56.0955 49.6556L56.0909 49.6623L56.0903 49.6633L56.0851 49.6704V49.6708L56.0847 49.6712L56.0797 49.6774L56.0793 49.6781L56.0789 49.6789L56.0737 49.6851L56.0732 49.6857L56.0691 49.6907L56.0674 49.6928L56.0668 49.6934L56.0622 49.6986L56.0612 49.6999L56.0606 49.7005L56.0552 49.7061L56.0548 49.7067L56.0539 49.7075L56.0481 49.7138L56.0446 49.7169L56.0415 49.72L56.0413 49.7202L56.0382 49.7231L56.0377 49.7235L56.0348 49.7262L56.0342 49.7266L56.0313 49.7293L56.028 49.7323L56.0272 49.7329L56.0245 49.7352L56.0236 49.736L56.0209 49.7381L56.0201 49.7389L56.0174 49.741L56.0164 49.7418L56.0139 49.7439C55.9611 49.785 55.8997 49.8101 55.8366 49.8186L55.8353 49.8188L55.8322 49.8192L55.831 49.8195L55.8276 49.8199H55.8264L55.8231 49.8203H55.822L55.8185 49.8207H55.8177L55.8139 49.8211H55.8133L55.8096 49.8213H55.8087L55.805 49.8217H55.8L55.7959 49.8219H55.7708C55.7605 49.8214 55.7502 49.8204 55.74 49.819L53.832 49.6372ZM55.2355 37.6343L55.3206 36.7394L53.3228 38.7371C53.2509 38.8092 53.1556 38.8451 53.0614 38.8451C52.9881 38.8453 52.9164 38.8238 52.8554 38.7832C52.7945 38.7426 52.7469 38.6848 52.7189 38.6171C52.6908 38.5494 52.6835 38.4749 52.698 38.4031C52.7124 38.3313 52.7478 38.2653 52.7998 38.2137L54.7977 36.216L53.9022 36.3016C53.8045 36.3109 53.7071 36.281 53.6314 36.2185C53.5558 36.156 53.508 36.066 53.4987 35.9682C53.4894 35.8705 53.5193 35.7731 53.5818 35.6975C53.6443 35.6218 53.7343 35.574 53.832 35.5647L55.7458 35.382C55.8455 35.3712 55.9489 35.4007 56.0292 35.4709L56.0332 35.4742L56.0342 35.4753L56.0353 35.4763L56.0407 35.4811L56.0413 35.4817L56.0444 35.4848L56.0481 35.4883L56.0548 35.4952L56.0554 35.4958L56.0608 35.5016L56.0612 35.502L56.0622 35.5033L56.067 35.5087L56.0681 35.5099L56.0789 35.523L56.0793 35.5238L56.0799 35.5245L56.0849 35.5313L56.0903 35.5388L56.0909 35.5396L56.1004 35.5542C56.137 35.6123 56.1565 35.68 56.1565 35.7491V35.7549C56.1563 35.7684 56.1553 35.7819 56.1536 35.7954L55.9717 37.7042C55.9624 37.8019 55.9147 37.8919 55.8391 37.9545C55.7634 38.017 55.666 38.0469 55.5683 38.0377C55.52 38.0331 55.473 38.019 55.4301 37.9962C55.3872 37.9735 55.3492 37.9425 55.3182 37.905C55.2873 37.8675 55.2641 37.8243 55.2499 37.7779C55.2357 37.7314 55.2308 37.6826 55.2355 37.6343ZM39.2009 46.9882L37.2034 48.9859L38.0981 48.9003C38.1464 48.8957 38.1953 48.9007 38.2417 48.915C38.2882 48.9293 38.3314 48.9525 38.3688 48.9835C38.4063 49.0145 38.4373 49.0525 38.46 49.0954C38.4828 49.1384 38.4969 49.1854 38.5015 49.2338C38.5061 49.2821 38.5011 49.331 38.4868 49.3774C38.4725 49.4239 38.4492 49.4671 38.4183 49.5045C38.3873 49.542 38.3493 49.573 38.3063 49.5957C38.2634 49.6185 38.2164 49.6326 38.168 49.6372L36.2609 49.819C36.2502 49.8204 36.2394 49.8213 36.2287 49.8217H36.2258L36.2254 49.8219H36.1998L36.1957 49.8217H36.1953L36.1913 49.8215H36.1907L36.187 49.8211H36.1861L36.1826 49.8209H36.1816L36.1726 49.8199L36.1693 49.8195H36.1681L36.1649 49.8188H36.1637L36.1591 49.818L36.1562 49.8176L36.1548 49.8174L36.1502 49.8165L36.1473 49.8161L36.1458 49.8157C36.0792 49.8033 36.0153 49.7721 35.9621 49.7231L35.959 49.7202H35.9586L35.9553 49.7169L35.9521 49.7136L35.948 49.7096C35.9095 49.67 35.8804 49.6223 35.8628 49.5699C35.8452 49.5176 35.8395 49.4619 35.8463 49.4071L36.0285 47.4977C36.033 47.4493 36.047 47.4022 36.0697 47.3592C36.0925 47.3162 36.1235 47.2781 36.1609 47.2471C36.1984 47.2161 36.2417 47.1929 36.2882 47.1786C36.3347 47.1644 36.3835 47.1595 36.4319 47.1643C36.6354 47.1836 36.7845 47.364 36.7652 47.5676L36.68 48.4625L38.6773 46.4648C38.7469 46.3956 38.841 46.3567 38.9391 46.3567C39.0372 46.3567 39.1314 46.3956 39.2009 46.4648C39.2701 46.5343 39.3089 46.6284 39.3089 46.7265C39.3089 46.8246 39.2701 46.9186 39.2009 46.9882ZM36.3966 38.0395C36.2077 38.0395 36.0464 37.8956 36.0285 37.7042L35.8467 35.7979C35.8394 35.7426 35.8448 35.6864 35.8624 35.6334C35.88 35.5805 35.9093 35.5323 35.9482 35.4923L35.9519 35.4881L35.9561 35.4844C35.9958 35.4458 36.0436 35.4167 36.0961 35.399C36.1485 35.3814 36.2043 35.3758 36.2592 35.3827L38.168 35.5647C38.3717 35.584 38.5206 35.7645 38.5015 35.9681C38.4969 36.0165 38.4829 36.0636 38.4602 36.1066C38.4374 36.1495 38.4064 36.1876 38.369 36.2186C38.3315 36.2495 38.2883 36.2728 38.2418 36.2871C38.1953 36.3013 38.1465 36.3062 38.0981 36.3016L37.2032 36.216L39.2009 38.2137C39.2701 38.2833 39.3089 38.3773 39.3089 38.4754C39.3089 38.5735 39.2701 38.6676 39.2009 38.7371C39.1282 38.8092 39.0338 38.8451 38.9389 38.8451C38.8444 38.8451 38.7494 38.8092 38.6773 38.7371L36.68 36.7396L36.7652 37.6345C36.7701 37.6858 36.7642 37.7376 36.7479 37.7865C36.7316 37.8354 36.7052 37.8804 36.6705 37.9185C36.6358 37.9567 36.5935 37.9871 36.5464 38.008C36.4992 38.0288 36.4482 38.0396 36.3966 38.0395Z" fill="white"></path>
  <path fill-rule="evenodd" clip-rule="evenodd" d="M44.4805 41.637V43.5647C44.4805 43.8196 44.6019 44.031 44.8235 44.1587C45.0446 44.2859 45.2879 44.2859 45.5094 44.158L47.1782 43.1947C47.3993 43.0674 47.5212 42.8563 47.5212 42.6005C47.5212 42.3456 47.3991 42.1342 47.1782 42.0069L45.5096 41.0436C45.4059 40.9816 45.2875 40.9484 45.1666 40.9473C45.0504 40.9473 44.9341 40.9792 44.8235 41.0436C44.6019 41.1707 44.4805 41.382 44.4805 41.637Z" fill="white"></path>
  <path fill-rule="evenodd" clip-rule="evenodd" d="M42.6772 39.0999V46.1017H49.3238V39.0999H42.6772ZM45.8791 40.4024L47.5479 41.3658C48.0007 41.6274 48.2608 42.0777 48.2608 42.6005C48.2608 43.1239 48.0007 43.5742 47.5479 43.8358L45.8791 44.7991C45.6523 44.9301 45.409 44.9957 45.1663 44.9955C44.9154 44.9944 44.6693 44.9266 44.4531 44.7991C43.9997 44.5375 43.7402 44.0874 43.7402 43.5646V41.6369C43.7402 41.1141 43.9997 40.6638 44.4531 40.4024C44.9062 40.141 45.4256 40.141 45.8791 40.4024ZM50.0631 39.0999V40.9472H51.2985V39.0999H50.0631ZM50.0631 41.6872V43.5144H51.2985V41.6872H50.0631ZM50.0631 44.2543V46.1017H51.2985V44.2541L50.0631 44.2543ZM40.7021 44.2543V46.1017H41.9373V44.2541L40.7021 44.2543ZM40.7021 41.6872V43.5144H41.9375V41.6872H40.7021ZM40.7021 39.0999V40.9472H41.9375V39.0999H40.7021Z" fill="white"></path>
  <defs>
    <linearGradient id="paint0_linear_1074_223" x1="46.5527" y1="10.6826" x2="46.5527" y2="82.6826" gradientUnits="userSpaceOnUse">
      <stop stop-color="#FF81F1"></stop>
      <stop offset="1" stop-color="#FF41B2"></stop>
    </linearGradient>
  </defs>
</svg>
