<svg xmlns="http://www.w3.org/2000/svg" width="90" height="90" viewBox="0 0 90 90" fill="none"><path d="M0 40C0 21.1438 0 11.7157 5.85786 5.85786C11.7157 0 21.1438 0 40 0H50C68.8562 0 78.2843 0 84.1421 5.85786C90 11.7157 90 21.1438 90 40V50C90 68.8562 90 78.2843 84.1421 84.1421C78.2843 90 68.8562 90 50 90H40C21.1438 90 11.7157 90 5.85786 84.1421C0 78.2843 0 68.8562 0 50V40Z" fill="#C65BFF"></path><path d="M49.9167 57.4676C49.5665 56.7167 48.6707 56.391 47.9201 56.7413L46.4656 57.42L50.8219 66.7572L52.2764 66.0786C53.0287 65.7277 53.354 64.8345 53.0027 64.0821L49.9167 57.4676ZM36.1946 31.609C36.9468 31.258 37.2719 30.3649 36.9208 29.6125L33.8347 22.9981C33.4838 22.2456 32.5912 21.9208 31.8382 22.2717L30.3837 22.9504L34.74 32.2876L36.1946 31.609ZM41.8182 59.5883C41.6248 59.6785 41.4079 59.7056 41.1982 59.6656C40.9886 59.6257 40.7968 59.5207 40.6502 59.3657C34.527 52.8931 30.5387 44.3464 29.5128 35.4939C29.4882 35.2819 29.531 35.0675 29.6351 34.8812C29.7392 34.6948 29.8993 34.546 30.0927 34.4558L32.8979 33.147L28.5415 23.8099L25.0371 25.4449C22.3561 26.6956 20.8015 29.5025 21.1685 32.4291C22.7744 45.2352 28.4212 57.9178 37.6384 67.7596C39.6455 69.9028 42.787 70.5062 45.4559 69.2608L48.9797 67.6166L44.6234 58.2794L41.8182 59.5883ZM56.6882 30.2612C52.2048 30.2612 48.5574 33.9086 48.5574 38.392C48.5574 42.8754 52.2048 46.5229 56.6882 46.5229C61.1716 46.5229 64.8191 42.8754 64.8191 38.392C64.8191 33.9086 61.1716 30.2612 56.6882 30.2612ZM59.4396 41.1434C59.0424 41.5404 58.3993 41.5402 58.0022 41.1434L55.9695 39.1107C55.7789 38.9201 55.6719 38.6616 55.6718 38.392V33.3103C55.6718 32.7491 56.1269 32.294 56.6882 32.294C57.2495 32.294 57.7046 32.7491 57.7046 33.3103V37.971L59.4396 39.7061C59.8366 40.1029 59.8366 40.7464 59.4396 41.1434Z" fill="white"></path><path d="M56.6885 26.1958C49.9635 26.1958 44.4922 31.6671 44.4922 38.3921C44.4922 45.1171 49.9635 50.5884 56.6885 50.5884C63.4135 50.5884 68.8848 45.1171 68.8848 38.3921C68.8848 31.6671 63.4135 26.1958 56.6885 26.1958ZM56.6885 48.5556C51.0843 48.5556 46.5249 43.9963 46.5249 38.392C46.5249 32.7877 51.0842 28.2285 56.6885 28.2285C62.2928 28.2285 66.8521 32.7878 66.8521 38.3921C66.8521 43.9964 62.2927 48.5556 56.6885 48.5556ZM67.472 29.1188L68.3563 28.0263C68.6987 27.6049 68.8854 27.0783 68.8848 26.5353C68.8848 25.8452 68.5839 25.1602 68.0056 24.6916C66.9882 23.8673 65.4952 24.0249 64.672 25.0423L63.8264 26.086C65.2018 26.8872 66.4339 27.9122 67.472 29.1188ZM52.623 22.1304H54.6558V24.3084C55.3194 24.2129 55.9983 24.1631 56.6885 24.1631C57.3786 24.1631 58.0575 24.2129 58.7212 24.3084V22.1304H60.7539C61.3151 22.1304 61.7702 21.6753 61.7702 21.1141C61.7702 20.5528 61.3151 20.0977 60.7539 20.0977H52.623C52.0618 20.0977 51.6067 20.5527 51.6067 21.114C51.6067 21.6752 52.0617 22.1304 52.623 22.1304Z" fill="white"></path></svg>