<svg xmlns="http://www.w3.org/2000/svg" width="93" height="93" viewBox="0 0 93 93" fill="none"><circle cx="46.5527" cy="46.6824" r="46" fill="white"></circle><circle cx="46.5527" cy="46.6824" r="36" fill="url(#paint0_linear_956_3168)"></circle><path d="M54.8875 33.4352H37.1055C38.0406 32.6477 39.1727 32.0852 40.375 31.8531C41.8234 31.5719 43.0398 30.5875 43.6164 29.2305L44.1297 28.0352H47.8773L48.3906 29.2305C48.9672 30.5875 50.1836 31.5719 51.6391 31.8531C52.8273 32.0922 53.9594 32.6406 54.8875 33.4352ZM62.1367 37.9141V60.3438C62.1367 62.3406 60.5125 63.9719 58.5086 63.9719H33.4844C31.4875 63.9719 29.8633 62.3477 29.8633 60.3438V37.9141C29.8633 35.9172 31.4875 34.2859 33.4844 34.2859H58.5156C60.5125 34.293 62.1367 35.9172 62.1367 37.9141ZM60.4492 38.2023C60.4492 36.9578 59.4367 35.9523 58.1992 35.9523H33.8008C32.5562 35.9523 31.5508 36.9648 31.5508 38.2023V60.0695C31.5508 61.3141 32.5633 62.3195 33.8008 62.3195H58.1992C59.4367 62.3195 60.4492 61.307 60.4492 60.0695V38.2023ZM59.5914 38.2023V60.0695C59.5914 60.843 58.9656 61.4617 58.1992 61.4617H33.8008C33.0344 61.4617 32.4086 60.8359 32.4086 60.0695V38.2023C32.4086 37.4289 33.0414 36.8102 33.8008 36.8102H58.1992C58.9656 36.8031 59.5914 37.4289 59.5914 38.2023ZM57.3133 45.2125L56.3992 43.8063C55.4641 42.3789 53.9734 41.3805 52.3 41.0641L47.2727 40.1008L47.1672 38.4836C47.125 37.8508 46.6187 37.3445 45.993 37.3023C45.2969 37.2531 44.6922 37.7875 44.643 38.4836L44.5305 40.143L39.707 41.0711C38.0336 41.3875 36.5359 42.393 35.6078 43.8133L34.6937 45.2125C34.3562 45.6906 34.5109 46.4219 34.9961 46.7172C35.4742 47.0547 36.2055 46.907 36.5148 46.4078L37.4359 45.0016C38.0477 44.0664 39.025 43.4125 40.1219 43.2086L44.3828 42.393L44.2141 44.9031L40.4664 45.6203C38.9617 45.9086 37.6188 46.8086 36.782 48.0813L35.9805 49.3117C35.5023 50.0078 36.0508 51.0203 36.8945 51.0063C37.2672 51.0063 37.6117 50.8164 37.8086 50.507L38.6102 49.2766C39.1305 48.4891 39.9602 47.9336 40.8812 47.7578L44.0734 47.1531L43.9047 49.6562C42.6602 49.9375 40.4102 50.1273 39.3766 50.9289C38.4766 51.4773 37.8297 52.5391 37.2742 53.4109C36.7891 54.107 37.3445 55.1195 38.1883 55.1055C38.5539 55.1055 38.8984 54.9156 39.1023 54.6062L39.7984 53.5516C40.2203 52.9047 40.8953 52.4547 41.6477 52.307L43.757 51.9062L43.5883 54.4094L41.9922 54.7117C40.825 54.9367 39.7844 55.6328 39.1375 56.6242L38.5609 57.5102C38.0687 58.1992 38.6312 59.2258 39.475 59.2047C40.2414 59.2539 40.6 58.3328 40.9656 57.8266C41.2961 57.3273 41.8164 56.9758 42.407 56.8633L43.4406 56.6664C43.4336 56.9266 43.307 58.3188 43.3352 58.5578C43.4266 59.9219 44.5656 60.9695 45.9156 60.9695C47.3781 61.0047 48.6297 59.6547 48.4961 58.2063L48.3906 56.6242L49.6281 56.8562C50.2117 56.9688 50.7391 57.3203 51.0625 57.8195C51.4352 58.3328 51.7867 59.2398 52.5602 59.1977C53.4039 59.2258 53.9594 58.1922 53.4742 57.5031L52.8977 56.6242C52.2508 55.6328 51.2102 54.9367 50.043 54.7117L48.25 54.3672L48.0813 51.8641L50.3945 52.307C51.1539 52.4547 51.8219 52.9047 52.2508 53.5516L52.9469 54.6062C53.1508 54.9156 53.4953 55.1055 53.8609 55.1055C54.6977 55.1195 55.2531 54.107 54.775 53.4109L54.0789 52.3492C53.3336 51.2172 52.1453 50.4156 50.8094 50.1625L47.9336 49.6211L47.7648 47.1109L51.1539 47.7578C52.082 47.9336 52.9047 48.4891 53.425 49.2766L54.2266 50.507C54.4305 50.8164 54.768 51.0063 55.1406 51.0063C55.9844 51.0273 56.5398 50.0008 56.0547 49.3117L55.2531 48.0813C54.4164 46.8016 53.0664 45.9086 51.5688 45.6203L47.6242 44.868L47.4555 42.3578L51.9203 43.2156C53.0172 43.4195 53.9945 44.0734 54.6062 45.0086L55.5203 46.4148C56.0125 47.2234 57.3414 46.9633 57.5031 46.0352C57.5312 45.7469 57.475 45.4516 57.3133 45.2125ZM39.8406 57.0953C39.7281 57.3062 39.1445 58.0516 39.2289 58.157C39.257 58.3539 39.5453 58.4102 39.6508 58.2414L40.2344 57.3555C40.6914 56.6594 41.4156 56.1812 42.2242 56.0266L43.4758 55.7875C43.4828 55.6891 43.5039 55.4078 43.5109 55.3023L42.1398 55.5625C41.1977 55.7383 40.3609 56.2937 39.8406 57.0953ZM49.7758 56.0195C50.5914 56.1742 51.3156 56.6594 51.7727 57.3484L52.3492 58.2344C52.4688 58.4031 52.743 58.3539 52.7781 58.15C52.7922 58.0867 52.7781 58.0234 52.743 57.9742L52.1594 57.0883C51.6391 56.2938 50.8023 55.7312 49.8672 55.5484L48.2852 55.2461L48.3203 55.7312L49.7758 56.0195ZM44.2141 57.5945C44.207 57.7703 44.1437 58.3188 44.1648 58.4875C44.3828 60.7586 47.7227 60.5336 47.6242 58.2555L47.575 57.5945C46.4922 57.3977 45.332 57.3977 44.2141 57.5945ZM44.4461 54.1773C44.4039 54.8031 44.3195 56.0828 44.2773 56.7156C45.3602 56.5469 46.4711 56.5469 47.5328 56.7086C47.4906 56.0898 47.3992 54.8031 47.3641 54.1773C46.3797 54.0297 45.3953 54.0297 44.4461 54.1773ZM50.5352 51.4703C51.5125 51.6531 52.3914 52.2438 52.9398 53.0805L53.6359 54.1352C53.7063 54.2406 53.8398 54.2828 53.9594 54.2055C54.0719 54.1352 54.1 53.9875 54.0297 53.882L53.3406 52.8273C52.7219 51.8852 51.7305 51.2242 50.6195 51.0063L47.9688 50.5L48.0039 50.9852L50.5352 51.4703ZM47.2937 53.3055L47.1391 50.957L47.125 50.7531C46.3375 50.6477 45.4797 50.6477 44.6781 50.7602L44.5094 53.3055C45.4164 53.1789 46.3586 53.1789 47.2937 53.3055ZM38.6664 52.8203L37.9703 53.875C37.8086 54.1422 38.1953 54.3813 38.3711 54.1352L39.0602 53.0805C39.6086 52.2438 40.4875 51.6531 41.4719 51.4703L43.7992 51.0273L43.8273 50.5492V50.5352L41.3805 50.9992C40.2695 51.2172 39.2781 51.8781 38.6664 52.8203ZM37.4922 48.5453L36.6906 49.7758C36.5148 50.0359 36.9227 50.2891 37.0773 50.0359L37.8859 48.8055C38.5328 47.8281 39.5594 47.1391 40.7055 46.9141L44.1156 46.2602L44.1508 45.782L40.6211 46.457C39.3414 46.6961 38.2023 47.4625 37.4922 48.5453ZM51.2875 46.9141C52.4336 47.1391 53.4672 47.8281 54.1141 48.8055L54.9156 50.0359C54.9859 50.1414 55.1266 50.1766 55.2391 50.1062C55.3445 50.0359 55.3797 49.8883 55.3094 49.7758L54.5078 48.5453C53.7977 47.4555 52.6516 46.6961 51.3719 46.45L47.6453 45.7398L47.6734 46.225L51.2875 46.9141ZM55.675 44.2773C54.8734 43.0469 53.5797 42.182 52.1313 41.9008L47.3219 40.9797L47.357 41.4648L52.0398 42.3578C53.3617 42.6109 54.543 43.3984 55.2812 44.5305L56.2023 45.9367C56.3219 46.1055 56.5961 46.0492 56.6242 45.8523C56.6383 45.7891 56.6242 45.7328 56.5891 45.6836L55.675 44.2773ZM44.4672 41.0219L39.8617 41.9008C38.4133 42.182 37.1195 43.0469 36.318 44.2773L35.4039 45.6836C35.2281 45.9438 35.6359 46.1969 35.7906 45.9438L36.7117 44.5375C37.45 43.4055 38.6313 42.618 39.9531 42.3648L44.4391 41.507C44.4391 41.4789 44.4672 41.0359 44.4672 41.0219ZM46.3797 39.6648L46.3023 38.5398C46.2883 38.3359 46.1266 38.1742 45.9227 38.1602C45.6977 38.1461 45.5008 38.3148 45.4938 38.5398L45.4164 39.6648C45.7328 39.6437 46.0562 39.6437 46.3797 39.6648ZM46.6117 43.0609C46.5695 42.4422 46.4852 41.1414 46.443 40.5297C46.0703 40.5086 45.7117 40.5086 45.3602 40.5297L45.1914 43.0609C45.6695 43.0328 46.1547 43.0328 46.6117 43.0609ZM46.8438 46.4781C46.8227 46.2672 46.7383 44.9383 46.7172 44.6992H46.7242L46.675 43.9328C46.1898 43.8977 45.6625 43.8977 45.1352 43.9398C45.0859 44.6922 45.0156 45.7258 44.9664 46.4781C45.5641 46.4148 46.1969 46.4148 46.8438 46.4781ZM47.0688 49.8813C47.0477 49.6141 46.9211 47.6523 46.9 47.3359C46.2109 47.2656 45.5359 47.2656 44.9031 47.3359L44.7555 49.4875H44.7625L44.7344 49.8883C45.5078 49.8039 46.3094 49.7969 47.0688 49.8813Z" fill="white"></path><defs><linearGradient id="paint0_linear_956_3168" x1="46.5527" y1="10.6824" x2="46.5527" y2="82.6824" gradientUnits="userSpaceOnUse"><stop stop-color="#8DD1FF"></stop><stop offset="1" stop-color="#359BFF"></stop></linearGradient></defs></svg>