<svg xmlns="http://www.w3.org/2000/svg" width="90" height="90" viewBox="0 0 90 90" fill="none"><path d="M0 40C0 21.1438 0 11.7157 5.85786 5.85786C11.7157 0 21.1438 0 40 0H50C68.8562 0 78.2843 0 84.1421 5.85786C90 11.7157 90 21.1438 90 40V50C90 68.8562 90 78.2843 84.1421 84.1421C78.2843 90 68.8562 90 50 90H40C21.1438 90 11.7157 90 5.85786 84.1421C0 78.2843 0 68.8562 0 50V40Z" fill="#ED8352"></path><path d="M49.6628 51.9642C49.6628 52.201 49.7569 52.4281 49.9243 52.5955C50.0918 52.763 50.3189 52.857 50.5557 52.857H60.2077C60.4445 52.857 60.6716 52.763 60.839 52.5955C61.0065 52.4281 61.1006 52.201 61.1006 51.9642C61.1006 51.7274 61.0065 51.5003 60.839 51.3328C60.6716 51.1654 60.4445 51.0713 60.2077 51.0713H50.5557C50.3189 51.0713 50.0918 51.1654 49.9243 51.3328C49.7569 51.5003 49.6628 51.7274 49.6628 51.9642ZM38.3492 28.9878C37.5627 29.0069 36.8148 29.3328 36.2653 29.8959C35.7158 30.4589 35.4082 31.2145 35.4082 32.0012C35.4082 32.788 35.7158 33.5436 36.2653 34.1066C36.8148 34.6697 37.5627 34.9956 38.3492 35.0147C39.1357 34.9956 39.8836 34.6697 40.4331 34.1066C40.9826 33.5436 41.2902 32.788 41.2902 32.0012C41.2902 31.2145 40.9826 30.4589 40.4331 29.8959C39.8836 29.3328 39.1357 29.0069 38.3492 28.9878Z" fill="white"></path><path d="M61.9674 68.2147H60.1816V67.4111C60.1682 66.713 59.8789 66.0487 59.3769 65.5634C58.8749 65.0781 58.2011 64.8115 57.503 64.8217H52.2172L49.7171 61.6967C52.9027 60.784 55.7478 58.9511 57.8959 56.4278H60.1191C60.3559 56.4278 60.583 56.3337 60.7505 56.1663C60.9179 55.9988 61.012 55.7717 61.012 55.5349C61.012 55.2981 60.9179 55.071 60.7505 54.9036C60.583 54.7361 60.3559 54.6421 60.1191 54.6421H50.4671C50.2303 54.6421 50.0032 54.7361 49.8358 54.9036C49.6683 55.071 49.5743 55.2981 49.5743 55.5349C49.5743 55.7717 49.6683 55.9988 49.8358 56.1663C50.0032 56.3337 50.2303 56.4278 50.4671 56.4278H51.1814C42.9929 61.1967 32.1516 54.8537 32.3212 45.3552C32.3209 43.6618 32.6606 41.9854 33.3201 40.4257C33.9796 38.8659 34.9455 37.4543 36.1606 36.2747C35.2501 35.8072 34.5144 35.059 34.0623 34.1407C33.8353 33.6989 33.6844 33.222 33.6159 32.73C31.3621 34.7589 29.6921 37.3539 28.7792 40.2457C27.8663 43.1376 27.7438 46.221 28.4242 49.1762C29.1047 52.1314 30.5634 54.8508 32.6491 57.0522C34.7348 59.2536 37.3715 60.8569 40.2857 61.6958L37.7856 64.8208H32.4998C31.8017 64.8106 31.1279 65.0772 30.6259 65.5625C30.1239 66.0478 29.8345 66.7121 29.8212 67.4102V68.2138H28.0354C27.7985 68.2138 27.5713 68.3079 27.4037 68.4754C27.2362 68.643 27.1421 68.8702 27.1421 69.1071C27.1421 69.344 27.2362 69.5712 27.4037 69.7388C27.5713 69.9063 27.7985 70.0004 28.0354 70.0004H61.9665C62.2033 70.0004 62.4304 69.9063 62.5978 69.7389C62.7653 69.5715 62.8594 69.3443 62.8594 69.1075C62.8594 68.8707 62.7653 68.6436 62.5978 68.4762C62.4304 68.3087 62.2042 68.2147 61.9674 68.2147ZM40.0723 64.8217L42.2241 62.1342C44.0627 62.4438 45.9401 62.4438 47.7787 62.1342L49.9305 64.8217H40.0723Z" fill="white"></path><path d="M51.8324 41.7212C51.8324 41.7301 47.8984 44.4552 47.9127 44.4713C48.3465 44.7369 48.8486 44.8701 49.357 44.8542C49.8655 44.8384 50.3583 44.6743 50.7747 44.3821C51.1912 44.0899 51.5132 43.6824 51.7011 43.2097C51.889 42.7369 51.9347 42.2195 51.8324 41.7212ZM34.6972 28.8897C35.1723 28.3306 35.7693 27.8879 36.4422 27.5957C37.1152 27.3034 37.8461 27.1694 38.579 27.2038C39.3118 27.2383 40.027 27.4403 40.6696 27.7944C41.3121 28.1485 41.8649 28.6453 42.2855 29.2464C42.706 29.8476 42.9831 30.5372 43.0954 31.2622C43.2077 31.9872 43.1523 32.7283 42.9334 33.4286C42.7145 34.1288 42.3379 34.7695 41.8326 35.3015C41.3274 35.8334 40.7069 36.2424 40.0188 36.497L44.3403 42.6587C44.6032 43.0265 44.9981 43.2783 45.4425 43.3616C45.8868 43.4448 46.3461 43.3529 46.7243 43.1051C46.7377 43.103 46.7502 43.0967 46.76 43.0873L50.9306 40.1676C50.9396 40.1587 50.9574 40.1497 50.9663 40.1408C51.3292 39.8686 51.5727 39.4666 51.6459 39.0189C51.7191 38.5712 51.6164 38.1126 51.3592 37.739L40.6536 22.452C40.3866 22.0755 39.9819 21.8193 39.5273 21.7391C39.0727 21.6588 38.6048 21.761 38.225 22.0235L35.1446 24.1931C32.4945 25.8146 33.0615 26.7012 34.6972 28.8897ZM33.0811 23.4521C34.0124 22.8199 36.5294 20.9949 37.4384 20.4163C37.0057 20.1371 36.5 19.9924 35.9852 20.0003C35.4703 20.0083 34.9693 20.1685 34.5455 20.4609L33.8579 20.952C33.4327 21.246 33.1063 21.6617 32.9215 22.1444C32.7366 22.6272 32.702 23.1546 32.8222 23.6574C32.9023 23.5815 32.9889 23.5127 33.0811 23.4521Z" fill="white"></path></svg>