<svg xmlns="http://www.w3.org/2000/svg" width="93" height="93" viewBox="0 0 93 93" fill="none"><rect width="93" height="93" rx="46.5" fill="#FFE2D7"></rect><path d="M67.4346 60.0633V53.5171C67.4346 49.8529 64.8336 46.7879 61.3661 46.063V45.9495C61.3661 45.0866 60.6673 44.387 59.8036 44.387C58.94 44.387 58.2411 45.0866 58.2411 45.9495V46.058C54.7815 46.7764 52.1727 49.847 52.1727 53.5171V60.0633C51.3694 60.1288 50.7323 60.7816 50.7323 61.6012C50.7323 62.4641 51.4312 63.1637 52.2948 63.1637H67.3125C68.1761 63.1637 68.875 62.4641 68.875 61.6012C68.875 60.7816 68.2379 60.1288 67.4346 60.0633Z" fill="#FF5C1F"></path><path d="M62.1047 68.7866C62.9683 68.7866 63.6672 68.087 63.6672 67.2241C63.6672 66.3612 62.9683 65.6616 62.1047 65.6616H57.4782C56.6146 65.6616 55.9157 66.3612 55.9157 67.2241C55.9157 68.087 56.6146 68.7866 57.4782 68.7866H62.1047Z" fill="#FF5C1F"></path><path d="M63.8438 34.9014C63.8438 34.417 63.7969 33.9482 63.7031 33.4795C63.0313 30.2451 60.2656 27.9483 57.1093 27.8858C57.0312 27.8702 56.875 27.8545 56.7969 27.8545H54.9375V32.1045C54.9375 32.9639 54.25 33.667 53.375 33.667C52.5157 33.667 51.8125 32.9639 51.8125 32.1045V27.8545H37.1406V32.1045C37.1406 32.9639 36.4531 33.667 35.5781 33.667C34.7188 33.667 34.0156 32.9639 34.0156 32.1045V27.8545H32.125C28.2656 27.8702 25.125 31.0263 25.125 34.9014V36.0889H63.8438V34.9014Z" fill="#FF5C1F"></path><path d="M32.1719 63.8858H48.2032C47.8282 63.2139 47.6094 62.417 47.6094 61.6045C47.6094 60.2764 48.1562 59.0889 49.0469 58.2295V53.5107C49.0469 49.0107 51.8437 45.1358 55.7969 43.5576C56.6094 42.1826 58.0937 41.2608 59.7969 41.2608C61.5156 41.2608 63 42.1826 63.8125 43.5576C63.8282 43.5576 63.8282 43.5733 63.8438 43.5733V39.2139H25.125V56.8545C25.125 60.7295 28.2813 63.8858 32.1719 63.8858Z" fill="#FF5C1F"></path><path d="M37.1406 26.7295C37.1406 25.8701 36.4531 25.167 35.5781 25.167C34.7188 25.167 34.0156 25.8701 34.0156 26.7295V27.8545H37.1406V26.7295Z" fill="#FF5C1F"></path><path d="M54.9375 26.7295C54.9375 25.8701 54.25 25.167 53.375 25.167C52.5157 25.167 51.8125 25.8701 51.8125 26.7295V27.8545H54.9375V26.7295Z" fill="#FF5C1F"></path></svg>