<?xml version="1.0" encoding="UTF-8"?>
<svg xmlns="http://www.w3.org/2000/svg" width="92" height="92" viewBox="0 0 92 92" fill="none">
  <circle cx="46" cy="46" r="46" fill="white"></circle>
  <circle cx="46" cy="46" r="36" fill="url(#paint0_linear_982_180)"></circle>
  <path d="M34.1875 53.2188H34.8438C35.5761 53.2188 36.2455 53.4681 36.7922 53.875H39.4749L34.2236 51.25H34.1875V53.2188ZM45.3438 50.5938C45.3438 50.7678 45.2746 50.9347 45.1515 51.0578C45.0285 51.1809 44.8615 51.25 44.6875 51.25H43.9171C44.0667 51.7888 44.0575 52.3669 43.8337 52.9057C43.6795 53.2775 43.4422 53.6091 43.1401 53.875H45.3438C46.0399 53.875 46.7076 53.5984 47.1999 53.1062C47.6922 52.6139 47.9688 51.9462 47.9688 51.25V44.6875C47.9688 43.9913 47.6922 43.3236 47.1999 42.8313C46.7076 42.3391 46.0399 42.0625 45.3438 42.0625V50.5938Z" fill="white"></path>
  <path d="M34.8438 54.5312H32.875V50.576L29.7322 49.0043L30.3196 47.8303L40.8228 53.0816C41.002 53.1715 41.2041 53.2188 41.4056 53.2188C41.947 53.2188 42.4129 52.9064 42.6216 52.4037C42.8789 51.7842 42.5534 51.0118 41.8971 50.6837L31.4903 45.4809C31.3088 45.3907 31.1089 45.3438 30.9062 45.3438H30.25C28.4407 45.3438 26.9688 46.8157 26.9688 48.625V53.875C26.9688 55.6843 28.4407 57.1562 30.25 57.1562H32.875C33.5988 57.1562 34.1875 57.7449 34.1875 58.4688V63.7188C34.1875 64.4426 34.7762 65.0312 35.5 65.0312C36.2238 65.0312 36.8125 64.4426 36.8125 63.7188V56.5C36.8125 55.4146 35.9292 54.5312 34.8438 54.5312Z" fill="white"></path>
  <path d="M30.9062 44.0312C32.356 44.0312 33.5312 42.856 33.5312 41.4062C33.5312 39.9565 32.356 38.7812 30.9062 38.7812C29.4565 38.7812 28.2812 39.9565 28.2812 41.4062C28.2812 42.856 29.4565 44.0312 30.9062 44.0312Z" fill="white"></path>
  <path d="M32.875 58.4687H26.9688V65.0312H33.2399C33.0037 64.634 32.8777 64.1809 32.875 63.7187V58.4687ZM58.2305 29.5937C57.7533 28.7365 57.1721 27.9414 56.5 27.2266C55.8279 27.9414 55.2467 28.7365 54.7695 29.5937H58.2305ZM54.1336 30.9062C53.6164 32.1589 53.3161 33.4904 53.2457 34.8437H59.7543C59.6842 33.4903 59.3839 32.1588 58.8664 30.9062H54.1336ZM55.8438 33.5312H54.5313V32.2187H55.8438V33.5312ZM58.4688 33.5312H57.1563V32.2187H58.4688V33.5312ZM58.1682 43.8652C59.8758 43.5224 61.4372 42.6641 62.6418 41.4062H59.7274C59.2986 42.2801 58.7758 43.1046 58.1682 43.8652ZM54.8318 27.1348C53.1243 27.4778 51.5629 28.336 50.3582 29.5937H53.2726C53.7014 28.7199 54.2243 27.8953 54.8318 27.1348ZM62.6418 29.5937C61.4371 28.336 59.8757 27.4778 58.1682 27.1348C58.7758 27.8953 59.2986 28.7199 59.7274 29.5937H62.6418ZM58.2305 41.4062H54.7688C55.2463 42.2633 55.8275 43.0584 56.4993 43.7733C57.1718 43.0587 57.7533 42.2636 58.2305 41.4062ZM59.7543 36.1562H53.2457C53.3158 37.5096 53.6161 38.8412 54.1336 40.0937H58.8671C59.384 38.8411 59.6841 37.5096 59.7543 36.1562ZM55.8438 38.7812H54.5313V37.4687H55.8438V38.7812ZM58.4688 38.7812H57.1563V37.4687H58.4688V38.7812ZM61.0675 34.8437H64.9984C64.8919 33.442 64.4381 32.0888 63.6781 30.9062H60.2846C60.7433 32.1716 61.0072 33.4992 61.0675 34.8437ZM60.2839 40.0937H63.6774C64.4377 38.9113 64.8915 37.558 64.9978 36.1562H61.0668C61.0072 37.5009 60.7432 38.8286 60.2839 40.0937ZM53.2726 41.4062H50.3582C51.5629 42.664 53.1243 43.5222 54.8318 43.8652C54.2243 43.1046 53.7014 42.2801 53.2726 41.4062ZM52.7161 30.9062H49.3226C48.5623 32.0887 48.1085 33.4419 48.0022 34.8437H51.9332C51.9928 33.4991 52.2568 32.1714 52.7161 30.9062ZM51.9325 36.1562H48.0016C48.1081 37.558 48.5619 38.9111 49.3219 40.0937H52.7154C52.2567 38.8284 51.9928 37.5008 51.9325 36.1562ZM42.5875 40.4875L41.5375 39.7L40.75 40.75V33.5312C40.75 32.4458 41.6333 31.5625 42.7188 31.5625H43.375L42.325 32.35L43.1125 33.4L46.4377 30.9062L43.1125 28.4125L42.325 29.4625L43.375 30.25H42.7188C40.9095 30.25 39.4375 31.722 39.4375 33.5312V40.75L38.65 39.7L37.6 40.4875L40.0938 43.8127L42.5875 40.4875ZM44.2938 60.3062L45.3438 61.0937H42.7188C42.3572 61.0937 42.0625 60.7997 42.0625 60.4375V58.4687L42.85 59.5187L43.9 58.7319L41.4063 55.406L38.9125 58.7312L39.9625 59.5181L40.75 58.4687V60.4375C40.75 61.5229 41.6333 62.4062 42.7188 62.4062H45.3438L44.2938 63.1937L45.0813 64.2437L48.4058 61.75L45.0813 59.2562L44.2938 60.3062ZM52.5625 65.0312H63.0625C63.4696 65.0307 63.8665 64.9043 64.1989 64.6693C64.5313 64.4344 64.7828 64.1023 64.919 63.7187H50.706C50.8422 64.1023 51.0937 64.4344 51.4261 64.6693C51.7585 64.9043 52.1554 65.0307 52.5625 65.0312ZM51.9063 56.5V62.4062H63.7188V56.5C63.7188 55.4145 62.8354 54.5312 61.75 54.5312H53.875C52.7896 54.5312 51.9063 55.4145 51.9063 56.5ZM57.8125 55.8437C58.8979 55.8437 59.7813 56.727 59.7813 57.8125C59.7813 58.8979 58.8979 59.7812 57.8125 59.7812C56.7271 59.7812 55.8438 58.8979 55.8438 57.8125C55.8438 56.727 56.7271 55.8437 57.8125 55.8437Z" fill="white"></path>
  <path d="M57.8125 58.4688C58.1749 58.4688 58.4688 58.1749 58.4688 57.8125C58.4688 57.4501 58.1749 57.1562 57.8125 57.1562C57.4501 57.1562 57.1562 57.4501 57.1562 57.8125C57.1562 58.1749 57.4501 58.4688 57.8125 58.4688Z" fill="white"></path>
  <defs>
    <linearGradient id="paint0_linear_982_180" x1="46" y1="10" x2="46" y2="82" gradientUnits="userSpaceOnUse">
      <stop stop-color="#8788FF"></stop>
      <stop offset="1" stop-color="#5A5EFF"></stop>
    </linearGradient>
  </defs>
</svg>
