<svg xmlns="http://www.w3.org/2000/svg" width="110" height="110" viewBox="0 0 110 110" fill="none"><g clip-path="url(#clip0_488_75)"><circle cx="55" cy="55" r="55" fill="white"></circle><circle cx="55" cy="55" r="46" fill="#ED8352"></circle><path d="M43.0433 47.6514C39.9064 47.6514 37.3545 50.2033 37.3545 53.3401V55C37.3545 55.809 38.0104 56.4648 38.8193 56.4648C39.6283 56.4648 40.2842 55.809 40.2842 55V53.3401C40.2842 51.8188 41.5219 50.5811 43.0433 50.5811H49.3164C49.0707 49.6199 49.0707 48.6125 49.3164 47.6514H43.0433ZM66.9563 50.5811C68.4777 50.5811 69.7154 51.8188 69.7154 53.3401V55C69.7154 55.809 70.3713 56.4648 71.1803 56.4648C71.9893 56.4648 72.6451 55.809 72.6451 55V53.3401C72.6451 50.2033 70.0932 47.6514 66.9563 47.6514H60.6832C60.9289 48.6125 60.9289 49.6199 60.6832 50.5811H66.9563ZM52.9195 47.0359C51.7706 48.1849 51.7706 50.0476 52.9195 51.1964C54.0684 52.3453 55.9312 52.3453 57.08 51.1964C58.2289 50.0476 58.2289 48.1848 57.08 47.0359C55.9312 45.8871 54.0685 45.8871 52.9195 47.0359ZM62.2763 43.9113C62.8483 43.3394 62.8483 42.4119 62.2763 41.8397C60.3326 39.8961 57.7484 38.8257 54.9998 38.8257C52.2512 38.8257 49.667 39.8961 47.7233 41.8397C47.1513 42.4118 47.1513 43.3393 47.7233 43.9113C48.2953 44.4833 49.2229 44.4833 49.7949 43.9113C51.1852 42.5211 53.0336 41.7554 54.9998 41.7554C56.966 41.7554 58.8145 42.5211 60.2047 43.9113C60.4907 44.1975 60.8656 44.3404 61.2404 44.3404C61.6152 44.3404 61.9902 44.1974 62.2763 43.9113Z" fill="white"></path><path d="M45.6347 39.7509C48.1362 37.2492 51.4622 35.8716 55 35.8716C58.5378 35.8716 61.8638 37.2492 64.3653 39.7509C64.6514 40.037 65.0263 40.18 65.4011 40.18C65.7759 40.18 66.1509 40.0369 66.4368 39.7509C67.0089 39.1789 67.0089 38.2514 66.4368 37.6793C63.382 34.6243 59.3203 32.9419 55 32.9419C50.6797 32.9419 46.618 34.6243 43.5631 37.6793C42.991 38.2513 42.991 39.1788 43.5631 39.7509C44.1351 40.3229 45.0626 40.3229 45.6347 39.7509ZM46.1743 59.4189H31.4648C30.6559 59.4189 30 60.0748 30 60.8838V68.2446C30 69.0536 30.6559 69.7095 31.4648 69.7095H46.1743C46.9833 69.7095 47.6392 69.0536 47.6392 68.2446V60.8838C47.6392 60.0748 46.9833 59.4189 46.1743 59.4189ZM78.5352 59.4189H63.8257C63.0167 59.4189 62.3608 60.0748 62.3608 60.8838V68.2446C62.3608 69.0536 63.0167 69.7095 63.8257 69.7095H78.5352C79.3441 69.7095 80 69.0536 80 68.2446V60.8838C80 60.0748 79.3441 59.4189 78.5352 59.4189ZM43.2324 74.1284H40.2844V72.6392H37.3547V74.1284H34.4067C33.5978 74.1284 32.9419 74.7843 32.9419 75.5933C32.9419 76.4022 33.5978 77.0581 34.4067 77.0581H43.2324C44.0414 77.0581 44.6973 76.4022 44.6973 75.5933C44.6973 74.7843 44.0414 74.1284 43.2324 74.1284ZM75.5933 74.1284H72.6452V72.6392H69.7155V74.1284H66.7676C65.9586 74.1284 65.3027 74.7843 65.3027 75.5933C65.3027 76.4022 65.9586 77.0581 66.7676 77.0581H75.5933C76.4022 77.0581 77.0581 76.4022 77.0581 75.5933C77.0581 74.7843 76.4022 74.1284 75.5933 74.1284Z" fill="white"></path></g><defs><clipPath id="clip0_488_75"><rect width="110" height="110" fill="white"></rect></clipPath></defs></svg>