<svg xmlns="http://www.w3.org/2000/svg" width="90" height="90" viewBox="0 0 90 90" fill="none"><rect width="90" height="90" rx="20" fill="#ED8352"></rect><path d="M28.6625 42.9202C28.5466 42.8046 28.4547 42.6672 28.392 42.516C28.3292 42.3648 28.2969 42.2027 28.2969 42.039C28.2969 41.8753 28.3292 41.7132 28.392 41.5619C28.4547 41.4107 28.5466 41.2734 28.6625 41.1577L38.1 31.7202C39.2125 30.6077 40.925 30.3077 42.35 30.9827L49.8 34.4827C50.2625 34.7077 50.8375 34.6077 51.2125 34.2327L60.5625 24.8827C61.05 24.3952 61.85 24.3952 62.3375 24.8827C62.825 25.3702 62.825 26.1577 62.3375 26.6452L52.975 36.0077C51.8625 37.1202 50.15 37.4202 48.725 36.7452L41.2875 33.2452C40.8125 33.0202 40.2375 33.1202 39.8625 33.4827L30.4375 42.9202C30.1875 43.1702 29.875 43.2827 29.55 43.2827C29.225 43.2827 28.9125 43.1702 28.6625 42.9202ZM43.9375 46.4827V61.9827C43.9375 62.6458 43.6741 63.2816 43.2053 63.7505C42.7364 64.2193 42.1005 64.4827 41.4375 64.4827H38.9375C38.2745 64.4827 37.6386 64.2193 37.1697 63.7505C36.7009 63.2816 36.4375 62.6458 36.4375 61.9827V46.4827C36.4375 45.1077 37.5625 43.9827 38.9375 43.9827H41.4375C42.8125 43.9827 43.9375 45.1077 43.9375 46.4827ZM65.1875 37.7077V61.9827C65.1875 62.6458 64.9241 63.2816 64.4553 63.7505C63.9864 64.2193 63.3505 64.4827 62.6875 64.4827H60.1875C59.5245 64.4827 58.8886 64.2193 58.4197 63.7505C57.9509 63.2816 57.6875 62.6458 57.6875 61.9827V37.7077C57.6875 36.3327 58.8125 35.2077 60.1875 35.2077H62.6875C64.0625 35.2077 65.1875 36.3327 65.1875 37.7077ZM33.3125 57.6577V61.9827C33.3125 62.311 33.2478 62.6361 33.1222 62.9394C32.9966 63.2427 32.8124 63.5183 32.5803 63.7505C32.3481 63.9826 32.0725 64.1668 31.7692 64.2924C31.4659 64.4181 31.1408 64.4827 30.8125 64.4827H28.3125C27.6495 64.4827 27.0136 64.2193 26.5447 63.7505C26.0759 63.2816 25.8125 62.6458 25.8125 61.9827V57.6577C25.8125 56.2827 26.9375 55.1577 28.3125 55.1577H30.8125C32.1875 55.1577 33.3125 56.2827 33.3125 57.6577ZM54.5625 50.8327V61.9827C54.5625 62.6458 54.2991 63.2816 53.8303 63.7505C53.3614 64.2193 52.7255 64.4827 52.0625 64.4827H49.5625C48.8995 64.4827 48.2636 64.2193 47.7947 63.7505C47.3259 63.2816 47.0625 62.6458 47.0625 61.9827V50.8327C47.0625 49.4577 48.1875 48.3327 49.5625 48.3327H52.0625C53.4375 48.3327 54.5625 49.4577 54.5625 50.8327Z" fill="white"></path></svg>