<svg xmlns="http://www.w3.org/2000/svg" width="110" height="110" viewBox="0 0 110 110" fill="none"><g clip-path="url(#clip0_488_116)"><circle cx="55" cy="55" r="55" fill="white"></circle><circle cx="55" cy="55" r="46" fill="#ED8352"></circle><path fill-rule="evenodd" clip-rule="evenodd" d="M66.2086 65.8242C64.4317 65.8242 62.9916 67.2644 62.9916 69.0412C62.9916 70.8181 64.4317 72.2582 66.2086 72.2582C67.9854 72.2582 69.4256 70.8181 69.4256 69.0412C69.4256 67.2645 67.9854 65.8242 66.2086 65.8242ZM66.2086 59.645C61.0192 59.645 56.8123 63.8519 56.8123 69.0412C56.8123 74.2306 61.0191 78.4375 66.2086 78.4375C71.398 78.4375 75.6048 74.2307 75.6048 69.0412C75.6048 63.8519 71.398 59.645 66.2086 59.645ZM71.8943 70.3982C71.7511 70.9999 71.5127 71.5748 71.1883 72.1014L71.6798 73.2081L70.3754 74.5125L69.269 74.0211C68.7424 74.3456 68.1673 74.584 67.5655 74.7272L67.131 75.8563H65.2863L64.8517 74.727C64.25 74.5837 63.6751 74.3453 63.1486 74.0209L62.0419 74.5124L60.7375 73.2081L61.2289 72.1018C60.9044 71.5751 60.666 71 60.5228 70.3981L59.3937 69.9636V68.1189L60.5229 67.6843C60.6662 67.0826 60.9046 66.5076 61.2291 65.9811L60.7376 64.8745L62.0419 63.5701L63.1486 64.0616C63.6752 63.7372 64.2501 63.4988 64.8518 63.3556L65.2865 62.2262H67.1312L67.5658 63.3556C68.1674 63.4989 68.7423 63.7372 69.2688 64.0616L70.3756 63.5701L71.68 64.8745L71.1886 65.9809C71.5131 66.5075 71.7515 67.0826 71.8947 67.6844L73.0238 68.1189V69.9636L71.8943 70.3982ZM64.011 31.6426V36.8269C64.0113 36.9492 64.06 37.0665 64.1465 37.1531C64.2331 37.2396 64.3504 37.2883 64.4728 37.2886H69.657C69.6103 37.1877 69.5458 37.0961 69.4666 37.0181L64.2815 31.833C64.2036 31.7538 64.1119 31.6893 64.011 31.6426ZM64.4728 38.8511C63.3561 38.8511 62.4485 37.9436 62.4485 36.8269V31.5625H35.3185C34.8098 31.5625 34.395 31.9773 34.395 32.486V76.4457C34.395 76.9543 34.8099 77.3692 35.3185 77.3692H59.086C57.2728 75.817 55.9723 73.6832 55.474 71.2566H54.594C54.2176 71.2566 53.9104 70.9496 53.9104 70.573V59.9941C53.9104 59.6176 54.2175 59.3104 54.594 59.3104H57.5317C57.9083 59.3104 58.2153 59.6176 58.2153 59.9941V61.5456C59.2455 60.4476 60.499 59.5616 61.9038 58.9609V52.5528C61.9038 52.1764 62.2109 51.8692 62.5874 51.8692H65.5251C65.9016 51.8692 66.2087 52.1763 66.2087 52.5528V58.0825C67.4433 58.0825 68.63 58.2868 69.7372 58.6632V38.8511H64.4728ZM42.5522 34.9685H54.248C54.4552 34.9685 54.654 35.0508 54.8005 35.1973C54.947 35.3438 55.0293 35.5425 55.0293 35.7497C55.0293 35.9569 54.947 36.1556 54.8005 36.3021C54.654 36.4486 54.4552 36.531 54.248 36.531H42.5522C42.345 36.531 42.1463 36.4486 41.9998 36.3021C41.8533 36.1556 41.771 35.9569 41.771 35.7497C41.771 35.5425 41.8533 35.3438 41.9998 35.1973C42.1463 35.0508 42.345 34.9685 42.5522 34.9685ZM42.5522 39.1402H54.248C54.4552 39.1402 54.654 39.2225 54.8005 39.3691C54.947 39.5156 55.0293 39.7143 55.0293 39.9215C55.0293 40.1287 54.947 40.3274 54.8005 40.4739C54.654 40.6204 54.4552 40.7027 54.248 40.7027H42.5522C42.345 40.7027 42.1463 40.6204 41.9998 40.4739C41.8533 40.3274 41.771 40.1287 41.771 39.9215C41.771 39.7143 41.8533 39.5156 41.9998 39.3691C42.1463 39.2225 42.345 39.1402 42.5522 39.1402ZM42.5522 43.3122H54.248C54.4552 43.3122 54.654 43.3945 54.8005 43.541C54.947 43.6875 55.0293 43.8863 55.0293 44.0935C55.0293 44.3007 54.947 44.4994 54.8005 44.6459C54.654 44.7924 54.4552 44.8747 54.248 44.8747H42.5522C42.345 44.8747 42.1463 44.7924 41.9998 44.6459C41.8533 44.4994 41.771 44.3007 41.771 44.0935C41.771 43.8863 41.8533 43.6875 41.9998 43.541C42.1463 43.3945 42.345 43.3122 42.5522 43.3122ZM42.5522 47.484H54.248C54.4552 47.484 54.654 47.5663 54.8005 47.7128C54.947 47.8593 55.0293 48.058 55.0293 48.2652C55.0293 48.4724 54.947 48.6711 54.8005 48.8177C54.654 48.9642 54.4552 49.0465 54.248 49.0465H42.5522C42.345 49.0465 42.1463 48.9642 41.9998 48.8177C41.8533 48.6711 41.771 48.4724 41.771 48.2652C41.771 48.058 41.8533 47.8593 41.9998 47.7128C42.1463 47.5663 42.345 47.484 42.5522 47.484ZM37.9235 34.9685H39.1738C39.381 34.9685 39.5797 35.0508 39.7263 35.1973C39.8728 35.3438 39.9551 35.5425 39.9551 35.7497C39.9551 35.9569 39.8728 36.1556 39.7263 36.3021C39.5797 36.4486 39.381 36.531 39.1738 36.531H37.9235C37.7163 36.531 37.5176 36.4486 37.3711 36.3021C37.2246 36.1556 37.1423 35.9569 37.1423 35.7497C37.1423 35.5425 37.2246 35.3438 37.3711 35.1973C37.5176 35.0508 37.7163 34.9685 37.9235 34.9685ZM37.9235 39.1402H39.1738C39.381 39.1402 39.5797 39.2225 39.7263 39.3691C39.8728 39.5156 39.9551 39.7143 39.9551 39.9215C39.9551 40.1287 39.8728 40.3274 39.7263 40.4739C39.5797 40.6204 39.381 40.7027 39.1738 40.7027H37.9235C37.7163 40.7027 37.5176 40.6204 37.3711 40.4739C37.2246 40.3274 37.1423 40.1287 37.1423 39.9215C37.1423 39.7143 37.2246 39.5156 37.3711 39.3691C37.5176 39.2225 37.7163 39.1402 37.9235 39.1402ZM37.9235 43.3122H39.1738C39.381 43.3122 39.5797 43.3945 39.7263 43.541C39.8728 43.6875 39.9551 43.8863 39.9551 44.0935C39.9551 44.3007 39.8728 44.4994 39.7263 44.6459C39.5797 44.7924 39.381 44.8747 39.1738 44.8747H37.9235C37.7163 44.8747 37.5176 44.7924 37.3711 44.6459C37.2246 44.4994 37.1423 44.3007 37.1423 44.0935C37.1423 43.8863 37.2246 43.6875 37.3711 43.541C37.5176 43.3945 37.7163 43.3122 37.9235 43.3122ZM37.1423 48.2652C37.1423 48.058 37.2246 47.8593 37.3711 47.7128C37.5176 47.5663 37.7163 47.484 37.9235 47.484H39.1738C39.381 47.484 39.5797 47.5663 39.7263 47.7128C39.8728 47.8593 39.9551 48.058 39.9551 48.2652C39.9551 48.4724 39.8728 48.6711 39.7263 48.8177C39.5797 48.9642 39.381 49.0465 39.1738 49.0465H37.9235C37.7163 49.0465 37.5176 48.9642 37.3711 48.8177C37.2246 48.6711 37.1423 48.4724 37.1423 48.2652ZM42.2283 70.573C42.2283 70.9494 41.9213 71.2565 41.5447 71.2565H38.6071C38.2307 71.2565 37.9235 70.9495 37.9235 70.573V63.5297C37.9235 63.1532 38.2306 62.8461 38.6071 62.8461H41.5448C41.9213 62.8461 42.2284 63.1531 42.2284 63.5297V70.573H42.2283ZM50.2218 70.573C50.2218 70.9494 49.9146 71.2565 49.5382 71.2565H46.6005C46.224 71.2565 45.9169 70.9495 45.9169 70.573V58.1998C45.9169 57.8233 46.224 57.5162 46.6005 57.5162H49.5382C49.9146 57.5162 50.2218 57.8232 50.2218 58.1998V70.573ZM64.826 46.8239L64.5411 49.3724C64.5299 49.4742 64.4987 49.5727 64.4494 49.6625C64.4001 49.7523 64.3336 49.8314 64.2536 49.8955C64.1737 49.9595 64.082 50.0072 63.9836 50.0357C63.8853 50.0643 63.7823 50.0732 63.6805 50.062C63.5787 50.0508 63.4801 50.0196 63.3903 49.9703C63.3006 49.921 63.2214 49.8545 63.1574 49.7745C63.0933 49.6946 63.0457 49.6029 63.0171 49.5045C62.9885 49.4062 62.9796 49.3032 62.9908 49.2014L63.0323 48.8299L56.6152 55.3018C56.514 55.4035 56.3866 55.4754 56.2471 55.5093C56.1076 55.5432 55.9615 55.538 55.8248 55.494L48.2215 53.0298L40.5551 58.9993C40.392 59.1219 40.1874 59.1756 39.9852 59.1488C39.783 59.122 39.5993 59.017 39.4738 58.8562C39.3482 58.6955 39.2907 58.4919 39.3137 58.2892C39.3367 58.0865 39.4384 57.901 39.5968 57.7725L47.5902 51.5482C47.6902 51.47 47.8079 51.4175 47.9329 51.3952C48.0579 51.3729 48.1865 51.3816 48.3073 51.4205L55.8471 53.8637L62.0032 47.6549L61.5213 47.6972C61.3167 47.7117 61.1145 47.6452 60.9585 47.512C60.8025 47.3788 60.7052 47.1895 60.6875 46.9851C60.6699 46.7807 60.7334 46.5776 60.8643 46.4196C60.9951 46.2617 61.1829 46.1615 61.387 46.1408L63.9891 45.9126C64.4987 45.8688 64.9118 46.3261 64.826 46.8239Z" fill="white"></path></g><defs><clipPath id="clip0_488_116"><rect width="110" height="110" fill="white"></rect></clipPath></defs></svg>