<?xml version="1.0" encoding="UTF-8"?>
<svg xmlns="http://www.w3.org/2000/svg" width="93" height="93" viewBox="0 0 93 93" fill="none">
  <circle cx="46.5527" cy="46.6826" r="46" fill="white"></circle>
  <circle cx="46.5527" cy="46.6826" r="36" fill="url(#paint0_linear_1074_190)"></circle>
  <path fill-rule="evenodd" clip-rule="evenodd" d="M58.1433 51.675C55.4417 51.675 54.0862 54.948 55.9964 56.8583C56.3483 57.2102 56.3483 57.7809 55.9964 58.1328L54.0563 60.073C53.7044 60.4249 53.1336 60.4249 52.7817 60.073C50.8715 58.1627 47.5985 59.5183 47.5985 62.2199C47.5985 62.7178 47.1949 63.1211 46.6974 63.1211H43.9536C43.456 63.1211 43.0525 62.7178 43.0525 62.2199C43.0525 59.5149 39.7819 58.1603 37.8692 60.073C37.5173 60.4249 36.9467 60.4249 36.5947 60.073L34.6546 58.1328C34.3027 57.7809 34.3027 57.2102 34.6546 56.8583C36.5649 54.948 35.2093 51.675 32.5076 51.675C32.0097 51.675 31.6064 51.2714 31.6064 50.7739V49.7536C31.6064 49.56 31.7643 49.402 31.958 49.402H38.2784C38.3686 49.402 38.4554 49.4367 38.5208 49.499C38.5862 49.5612 38.6251 49.6462 38.6294 49.7364C38.8036 53.2837 41.7349 56.1064 45.3255 56.1064C48.9161 56.1064 51.8474 53.2838 52.0216 49.7365C52.026 49.6463 52.0649 49.5613 52.1302 49.499C52.1956 49.4368 52.2824 49.4021 52.3727 49.4021H58.693C58.8866 49.4021 59.0445 49.56 59.0445 49.7537V50.774C59.0445 51.2714 58.6412 51.675 58.1433 51.675ZM31.0559 44.0863C31.3977 44.2882 31.627 44.6602 31.627 45.0859C31.627 45.7267 31.1076 46.2461 30.4668 46.2461C29.826 46.2461 29.3066 45.7267 29.3066 45.0859C29.3066 44.5816 29.6284 44.1525 30.0779 43.9926C31.0351 36.6245 37.7829 30.9868 45.1414 30.8964L43.9641 29.719C43.8733 29.6264 43.8227 29.5017 43.8234 29.3721C43.824 29.2424 43.8758 29.1182 43.9675 29.0265C44.0592 28.9348 44.1834 28.883 44.3131 28.8823C44.4428 28.8817 44.5675 28.9322 44.6601 29.023L46.5833 30.9463C54.0976 31.5561 60.0775 37.5767 60.6325 45.1016L61.8525 43.8817C61.9451 43.7909 62.0698 43.7403 62.1995 43.741C62.3291 43.7416 62.4533 43.7934 62.545 43.8851C62.6367 43.9768 62.6885 44.101 62.6892 44.2307C62.6898 44.3604 62.6393 44.4851 62.5485 44.5777L60.5321 46.594C60.4398 46.6863 60.3147 46.7381 60.1842 46.7381C60.0537 46.7381 59.9285 46.6863 59.8362 46.594L57.8198 44.5777C57.7291 44.4851 57.6785 44.3604 57.6791 44.2307C57.6798 44.101 57.7316 43.9768 57.8233 43.8851C57.915 43.7934 58.0392 43.7416 58.1689 43.741C58.2985 43.7403 58.4232 43.7909 58.5159 43.8817L59.6406 45.0065C59.0445 38.0267 53.4635 32.4834 46.4859 31.926L44.6601 33.7517C44.5675 33.8425 44.4428 33.8931 44.3132 33.8924C44.1835 33.8918 44.0593 33.84 43.9676 33.7483C43.8759 33.6566 43.8241 33.5324 43.8234 33.4027C43.8228 33.273 43.8733 33.1483 43.9641 33.0557L45.139 31.8809C38.2855 31.9722 31.9659 37.2222 31.0559 44.0863ZM50.6795 39.4103C50.6795 40.2954 51.397 41.0129 52.2822 41.0129C53.1673 41.0129 53.8848 40.2954 53.8848 39.4103C53.8848 38.5254 53.1673 37.8079 52.2822 37.8079C51.397 37.8079 50.6795 38.5254 50.6795 39.4103ZM36.7663 39.4103C36.7663 40.2954 37.4838 41.0129 38.3689 41.0129C39.2541 41.0129 39.9716 40.2954 39.9716 39.4103C39.9716 38.5254 39.2541 37.8079 38.3689 37.8079C37.4838 37.8079 36.7663 38.5254 36.7663 39.4103ZM41.1271 46.3162C40.968 46.0549 40.8735 45.7521 40.8735 45.4039C40.8727 44.7565 41.0137 44.1168 41.2866 43.5298C40.6696 42.5713 39.5934 41.9365 38.3689 41.9365C36.4539 41.9365 34.9013 43.489 34.9013 45.404C34.9013 46.9396 39.3603 47.2434 41.1271 46.3162ZM55.7496 45.4039C55.7496 43.489 54.1971 41.9365 52.2822 41.9365C51.0576 41.9365 49.9813 42.5713 49.3643 43.5298C49.6371 44.1168 49.7781 44.7565 49.7774 45.4039C49.7774 45.7521 49.6829 46.0549 49.5237 46.3162C51.2906 47.2434 55.7496 46.9396 55.7496 45.4039ZM43.723 39.4103C43.723 40.2954 44.4404 41.0129 45.3256 41.0129C46.2108 41.0129 46.9282 40.2954 46.9282 39.4103C46.9282 38.5254 46.2108 37.8079 45.3256 37.8079C44.4404 37.8079 43.723 38.5254 43.723 39.4103ZM48.793 45.4039C48.793 43.489 47.2405 41.9365 45.3255 41.9365C43.4105 41.9365 41.8578 43.4889 41.8578 45.4039C41.8579 47.3189 48.793 47.3189 48.793 45.4039ZM40.8732 49.402C40.8247 49.4018 40.7766 49.4116 40.7321 49.431C40.6876 49.4503 40.6476 49.4787 40.6146 49.5143C40.5817 49.55 40.5565 49.592 40.5407 49.6379C40.5248 49.6838 40.5187 49.7325 40.5227 49.7808C40.7159 52.2643 42.7924 54.2194 45.3254 54.2194C47.8585 54.2194 49.935 52.2643 50.1282 49.7808C50.1322 49.7325 50.1261 49.6838 50.1102 49.6379C50.0944 49.592 50.0692 49.55 50.0363 49.5143C50.0033 49.4787 49.9633 49.4503 49.9188 49.431C49.8743 49.4116 49.8262 49.4018 49.7777 49.402H40.8732Z" fill="white"></path>
  <defs>
    <linearGradient id="paint0_linear_1074_190" x1="46.5527" y1="10.6826" x2="46.5527" y2="82.6826" gradientUnits="userSpaceOnUse">
      <stop stop-color="#85FF82"></stop>
      <stop offset="1" stop-color="#2CCB33"></stop>
    </linearGradient>
  </defs>
</svg>
