<?xml version="1.0" encoding="UTF-8"?>
<svg xmlns="http://www.w3.org/2000/svg" width="92" height="92" viewBox="0 0 92 92" fill="none">
  <circle cx="46" cy="46" r="46" fill="white"></circle>
  <circle cx="46" cy="46" r="36" fill="url(#paint0_linear_617_543)"></circle>
  <path d="M59.0006 30.4255H31.9889C30.3572 30.4255 29.0293 31.7535 29.0293 33.3851V50.8233C29.0911 50.7976 29.1528 50.7873 29.2197 50.7873H61.7749C61.8418 50.7873 61.9087 50.7976 61.9705 50.8233V33.3851C61.9705 31.7535 60.6374 30.4255 59.0006 30.4255ZM38.2611 33.05C39.2673 33.05 40.0852 33.8658 40.0852 34.8685C40.0852 35.8747 39.2673 36.6931 38.2611 36.6931C37.2548 36.6931 36.4364 35.8747 36.4364 34.8685C36.4364 33.8658 37.2548 33.05 38.2611 33.05ZM35.1183 39.4432C35.1183 38.6042 35.4477 37.8167 36.0396 37.2248C36.2969 36.9675 36.5903 36.7667 36.9094 36.6175C37.2852 36.9108 37.7536 37.0807 38.2631 37.0807C38.7675 37.0807 39.2308 36.9108 39.6065 36.6175C40.6668 37.1167 41.3977 38.1976 41.3977 39.4432V39.788C41.3977 39.8961 41.3102 39.9836 41.2021 39.9836H35.3139C35.2058 39.9836 35.1183 39.8961 35.1183 39.788V39.4432ZM44.278 46.7077H32.238C32.1314 46.7077 32.045 46.6213 32.045 46.5147C32.045 46.4082 32.1314 46.3217 32.238 46.3217H44.278C44.3845 46.3217 44.471 46.4082 44.471 46.5147C44.471 46.6213 44.3845 46.7077 44.278 46.7077ZM44.278 43.4847H32.238C32.1314 43.4847 32.045 43.3982 32.045 43.2916C32.045 43.1851 32.1314 43.0986 32.238 43.0986H44.278C44.3845 43.0986 44.471 43.1851 44.471 43.2916C44.471 43.3982 44.3845 43.4847 44.278 43.4847ZM58.872 37.7241C58.6352 40.6991 57.3896 44.827 52.7984 47.6064C52.7881 47.6116 52.783 47.6167 52.7778 47.6167C52.7469 47.6322 52.7109 47.6425 52.68 47.6425C52.6491 47.6425 52.6234 47.6373 52.5925 47.6219C52.5874 47.6219 52.5411 47.6013 52.5359 47.5961C51.944 47.277 46.7403 44.2917 46.4161 37.7189C46.38 36.8439 46.4212 35.9741 46.555 35.0579C46.5602 35.0064 46.5911 34.955 46.6322 34.9292C46.6786 34.8983 46.73 34.8829 46.7866 34.8983C46.8175 34.9035 49.9109 35.5417 52.4999 33.1226C52.5771 33.0557 52.7161 33.0351 52.7881 33.1072C53.1175 33.3439 55.8764 35.3101 58.5889 34.9086C58.6969 34.8983 58.7896 34.9652 58.8102 35.0682C58.8153 35.1094 58.9955 36.1594 58.872 37.7241Z" fill="white"></path>
  <path d="M52.6592 37.9028C51.833 37.9028 51.1572 38.5709 51.1572 39.4047C51.1572 39.8407 51.3451 40.2386 51.6529 40.5165L51.3147 42.4683H54.0108L53.6731 40.5165C53.9737 40.2386 54.1611 39.8407 54.1611 39.4047C54.1611 38.5709 53.493 37.9028 52.6592 37.9028Z" fill="white"></path>
  <path d="M61.7749 51.1736H29.2198C29.1168 51.1736 29.0293 51.2611 29.0293 51.3692V52.1876C29.0293 53.8192 30.3572 55.1471 31.9889 55.1471H59.0006C60.6374 55.1471 61.9705 53.8192 61.9705 52.1876V51.3692C61.9705 51.2611 61.883 51.1736 61.7749 51.1736Z" fill="white"></path>
  <path d="M41.0276 55.533L39.4062 59.805H51.5945L49.9732 55.533H41.0276Z" fill="white"></path>
  <path d="M54.0418 60.1887H36.9567C36.8501 60.1887 36.7637 60.2752 36.7637 60.3817C36.7637 60.4883 36.8501 60.5748 36.9567 60.5748H54.0418C54.1484 60.5748 54.2348 60.4883 54.2348 60.3817C54.2348 60.2752 54.1484 60.1887 54.0418 60.1887Z" fill="white"></path>
  <defs>
    <linearGradient id="paint0_linear_617_543" x1="46" y1="10" x2="46" y2="82" gradientUnits="userSpaceOnUse">
      <stop stop-color="#8788FF"></stop>
      <stop offset="1" stop-color="#5A5EFF"></stop>
    </linearGradient>
  </defs>
</svg>
