<svg xmlns="http://www.w3.org/2000/svg" width="70" height="71" viewBox="0 0 70 71" fill="none"><g clip-path="url(#clip0_73_2036)"><path d="M35.0001 12.2623C23.0437 12.2623 13.3162 21.9897 13.3162 33.9463C13.3163 41.2786 17.0598 48.1318 23.1636 52.1171V53.0215H32.9095V42.2136C30.1956 41.3306 28.2279 38.7781 28.2279 35.7735C28.2279 34.6192 29.1637 33.6834 30.3179 33.6834C31.4722 33.6834 32.408 34.6192 32.408 35.7735C32.408 37.2024 33.5706 38.365 34.9996 38.365C36.4286 38.365 37.591 37.2025 37.591 35.7735C37.591 34.6192 38.5268 33.6834 39.6811 33.6834C40.8353 33.6834 41.7712 34.6192 41.7712 35.7735C41.7712 38.7781 39.8035 41.3306 37.0895 42.2136V53.0215H46.8358V52.1174C52.9401 48.132 56.6838 41.2787 56.6838 33.9463C56.6841 21.9898 46.9566 12.2623 35.0001 12.2623ZM23.1638 57.2015V58.9485C23.1638 65.475 28.4735 70.7845 35 70.7845C41.5265 70.7845 46.8362 65.4748 46.8362 58.9485V57.2015H23.1638ZM35.0001 0.0935059C33.8459 0.0935059 32.91 1.02934 32.91 2.18359V5.85277C32.91 7.00702 33.8459 7.94285 35.0001 7.94285C36.1544 7.94285 37.0902 7.00702 37.0902 5.85277V2.18359C37.0902 1.02934 36.1544 0.0935059 35.0001 0.0935059ZM29.1208 6.38889L27.8235 2.9565C27.4153 1.8768 26.2089 1.3324 25.1295 1.74039C24.0498 2.14838 23.5052 3.35455 23.9134 4.43439L25.2106 7.86677C25.5268 8.70333 26.3218 9.21847 27.1661 9.21847C27.4185 9.21834 27.6687 9.1724 27.9046 9.08288C28.9843 8.67489 29.5289 7.46872 29.1208 6.38889ZM44.8707 1.74025C43.7908 1.33212 42.5848 1.8768 42.1767 2.9565L40.8794 6.38889C40.4714 7.46858 41.0159 8.67475 42.0956 9.08288C42.3389 9.17484 42.5887 9.21847 42.8341 9.21847C43.6784 9.21847 44.4736 8.70319 44.7896 7.86664L46.0869 4.43425C46.4949 3.35441 45.9504 2.14838 44.8707 1.74025Z" fill="white"></path></g><defs><clipPath id="clip0_73_2036"><rect width="70" height="70" fill="white" transform="translate(0 0.438965)"></rect></clipPath></defs></svg>