<svg xmlns="http://www.w3.org/2000/svg" width="90" height="90" viewBox="0 0 90 90" fill="none"><path d="M0 12C0 5.37258 5.37258 0 12 0H78C84.6274 0 90 5.37258 90 12V78C90 84.6274 84.6274 90 78 90H12C5.37258 90 0 84.6274 0 78V12Z" fill="#E9F8FF"></path><path d="M44.5269 28.8427C36.436 28.8427 29.8535 35.4251 29.8535 43.5161C29.8536 48.4778 32.3868 53.1152 36.5172 55.8121V56.4241H43.1122V49.1105C41.2757 48.513 39.9441 46.7857 39.9441 44.7525C39.9441 43.9714 40.5774 43.3382 41.3585 43.3382C42.1396 43.3382 42.7728 43.9714 42.7728 44.7525C42.7728 45.7194 43.5595 46.5062 44.5265 46.5062C45.4935 46.5062 46.2801 45.7195 46.2801 44.7525C46.2801 43.9714 46.9134 43.3382 47.6944 43.3382C48.4755 43.3382 49.1088 43.9714 49.1088 44.7525C49.1088 46.7857 47.7773 48.513 45.9408 49.1105V56.4241H52.536V55.8123C56.6667 53.1154 59.2001 48.4778 59.2001 43.5161C59.2002 35.4252 52.6177 28.8427 44.5269 28.8427ZM36.5173 59.2527V60.4348C36.5173 64.8513 40.1103 68.4442 44.5268 68.4442C48.9432 68.4442 52.5363 64.8512 52.5363 60.4348V59.2527H36.5173ZM44.5269 20.6082C43.7458 20.6082 43.1125 21.2414 43.1125 22.0225V24.5054C43.1125 25.2865 43.7458 25.9197 44.5269 25.9197C45.308 25.9197 45.9412 25.2865 45.9412 24.5054V22.0225C45.9412 21.2414 45.308 20.6082 44.5269 20.6082ZM40.5484 24.8682L39.6705 22.5455C39.3943 21.8149 38.5779 21.4465 37.8475 21.7226C37.1169 21.9987 36.7484 22.8149 37.0245 23.5456L37.9024 25.8683C38.1164 26.4344 38.6543 26.7829 39.2257 26.7829C39.3964 26.7829 39.5658 26.7518 39.7254 26.6912C40.456 26.4151 40.8245 25.5989 40.5484 24.8682ZM51.2062 21.7225C50.4755 21.4463 49.6594 21.8149 49.3832 22.5455L48.5053 24.8682C48.2292 25.5988 48.5977 26.415 49.3283 26.6912C49.493 26.7534 49.662 26.7829 49.8281 26.7829C50.3994 26.7829 50.9375 26.4343 51.1513 25.8682L52.0292 23.5455C52.3053 22.8148 51.9368 21.9987 51.2062 21.7225Z" fill="url(#paint0_linear_956_3224)"></path><defs><linearGradient id="paint0_linear_956_3224" x1="44.5268" y1="20.6082" x2="44.5268" y2="68.4442" gradientUnits="userSpaceOnUse"><stop stop-color="#29B7FF"></stop><stop offset="1" stop-color="#368AFF"></stop></linearGradient></defs></svg>