<?xml version="1.0" encoding="UTF-8"?>
<svg xmlns="http://www.w3.org/2000/svg" width="89" height="88" viewBox="0 0 89 88" fill="none">
  <rect x="0.666992" width="88" height="88" rx="44" fill="url(#paint0_linear_617_642)"></rect>
  <path fill-rule="evenodd" clip-rule="evenodd" d="M61.5381 42.0786V60.3502C61.5381 60.6402 61.3009 60.8775 61.0042 60.8775H28.3171C28.0271 60.8775 27.7832 60.6402 27.7832 60.3502V42.0786H61.5316H61.5381ZM44.8749 49.2633L45.4022 49.349L40.4125 54.2728C39.8786 54.8001 39.5885 55.512 39.6017 56.2503C39.516 56.1909 39.4633 56.0987 39.4567 55.9932L39.2656 54.8067C38.8701 54.7013 38.4878 54.5497 38.1318 54.3453L37.1167 55.0704C36.9717 55.1693 36.7806 55.1561 36.6619 55.0374L35.7655 54.1542C35.6402 54.0289 35.6271 53.8246 35.7391 53.6928L36.4642 52.7106C36.2598 52.3613 36.1016 51.9856 35.9962 51.5967L34.7636 51.3989C34.5922 51.3726 34.467 51.2276 34.467 51.0562V49.8104C34.467 49.6258 34.612 49.4808 34.7899 49.4676L35.9962 49.2765C36.1016 48.881 36.2598 48.5119 36.4642 48.1625L35.7325 47.1606C35.6271 47.0222 35.6468 46.831 35.7655 46.7124L36.6619 45.8291C36.7872 45.7039 36.9915 45.6973 37.1299 45.8028L38.1252 46.5146C38.4812 46.3103 38.8569 46.1587 39.259 46.0532L39.4567 44.8338C39.4831 44.6624 39.6347 44.5438 39.8061 44.5438H41.0716C41.2562 44.5438 41.4078 44.6822 41.421 44.8668L41.6121 46.0532C42.0076 46.1587 42.3899 46.3103 42.7459 46.5146L43.7609 45.7896C43.906 45.6907 44.0971 45.7039 44.2158 45.8225L45.1122 46.7058C45.2374 46.831 45.2506 47.0354 45.1386 47.1672L44.4135 48.1493C44.6178 48.4987 44.776 48.8744 44.8815 49.2633H44.8749ZM38.6657 50.4234C38.6657 51.9724 40.5707 52.7568 41.6846 51.656C42.7986 50.5618 42.0076 48.6767 40.4322 48.6767C39.4567 48.6767 38.6657 49.461 38.6657 50.4234ZM42.3767 58.432C40.3663 58.432 39.3776 56.0261 40.7816 54.6419L46.7337 48.7689C46.3514 46.7453 47.617 44.7547 49.6471 44.234C50.3326 44.0626 51.0511 44.0626 51.73 44.2538C52.0728 44.3395 52.1585 44.7349 51.9344 44.9591L49.4032 47.4572L51.2423 49.2765L53.7734 46.7783C53.9975 46.5542 54.393 46.6465 54.4853 46.9629C55.296 49.7774 52.8242 52.447 49.9174 51.9131L43.9653 57.7861C43.5302 58.2211 42.9502 58.432 42.3701 58.432H42.3767ZM46.9578 51.0957C47.3533 50.7068 47.9597 51.3001 47.5576 51.689L42.6668 56.5139C42.2713 56.9028 41.6648 56.3096 42.0669 55.9207L46.9578 51.0957ZM28.3171 36.4758H61.0042C61.2943 36.4758 61.5381 36.7131 61.5381 37.0031V41.2415H27.7898V37.0031C27.7898 36.7131 28.0271 36.4758 28.3237 36.4758H28.3171ZM57.9656 37.8007H59.4816C59.6794 37.8007 59.831 37.9589 59.831 38.1501V39.6463C59.831 39.8375 59.6728 39.9957 59.4816 39.9957H57.9656C57.7678 39.9957 57.6162 39.8375 57.6162 39.6463V38.1501C57.6162 37.9589 57.7744 37.8007 57.9656 37.8007ZM54.9796 37.8007H56.4957C56.6934 37.8007 56.845 37.9589 56.845 38.1501V39.6463C56.845 39.8375 56.6868 39.9957 56.4957 39.9957H54.9796C54.7819 39.9957 54.6303 39.8375 54.6303 39.6463V38.1501C54.6303 37.9589 54.7885 37.8007 54.9796 37.8007Z" fill="white"></path>
  <path fill-rule="evenodd" clip-rule="evenodd" d="M39.0279 35.9551H35.3301L35.3433 35.6453C35.4092 33.9118 36.009 32.2507 37.0768 30.8402L37.2482 30.6094C38.1776 31.1565 38.639 31.3741 39.6541 31.7564C39.1993 33.3185 39.0609 34.3336 39.0279 35.9551ZM39.4563 31.3016C38.6588 30.9983 38.1842 30.7413 37.4723 30.3326C37.703 30.0887 37.9008 29.8778 38.1512 29.6471C39.0477 28.8232 40.1089 28.1706 41.2756 27.7422L42.528 27.2808C41.8227 28.0124 41.2426 28.5529 40.6955 29.4296C40.2671 30.1217 40.0364 30.682 39.753 31.4202L39.4498 31.3016H39.4563ZM52.2438 30.8204C53.3182 32.231 53.9246 33.9052 53.9905 35.6453L54.0037 35.9551H50.3059C50.273 34.3336 50.1345 33.312 49.6797 31.7432C50.6948 31.3609 51.1496 31.1434 52.079 30.5897L52.2504 30.8204H52.2438ZM48.045 27.7422C49.3897 28.2365 50.6025 29.0275 51.5781 30.0492L51.8351 30.3194C50.9255 30.8467 50.5498 31.0247 49.5545 31.407C49.0997 30.214 48.5987 29.1659 47.6891 28.2233L46.7861 27.2808L48.0384 27.7422H48.045ZM44.8482 35.9551V32.5869C46.6345 32.5276 47.6693 32.3628 49.3172 31.8684C49.7588 33.4174 49.8841 34.3534 49.9236 35.9551H44.8548H44.8482ZM44.8482 32.2244V27.1226L45.2239 27.1885C47.1618 27.5378 48.4471 29.535 49.0931 31.2225L49.2051 31.5125C47.5836 32.0003 46.6081 32.1519 44.8482 32.2178V32.2244ZM40.7746 31.7234L40.1089 31.5323C40.3791 30.8138 40.6033 30.2799 41.0185 29.601C41.6909 28.52 42.7257 27.4389 44.0901 27.1885L44.4659 27.1226V32.2244C43.1278 32.1848 42.0732 32.0728 40.768 31.7234H40.7746ZM39.4036 35.6453C39.4366 34.2479 39.6145 33.2065 39.9968 31.875C41.6447 32.3628 42.6796 32.5276 44.4659 32.5803V35.9485H39.397L39.4036 35.6453Z" fill="white"></path>
  <defs>
    <linearGradient id="paint0_linear_617_642" x1="44.667" y1="0" x2="44.667" y2="88" gradientUnits="userSpaceOnUse">
      <stop stop-color="#8DD1FF"></stop>
      <stop offset="1" stop-color="#359BFF"></stop>
    </linearGradient>
  </defs>
</svg>
