<?xml version="1.0" encoding="UTF-8"?>
<svg xmlns="http://www.w3.org/2000/svg" width="88" height="88" viewBox="0 0 88 88" fill="none">
  <rect width="88" height="88" rx="44" fill="url(#paint0_linear_617_656)"></rect>
  <path d="M38.0023 33.7836C37.7211 34.0015 37.6367 34.3883 37.8195 34.6976L39.2257 37.1305C39.4015 37.4398 39.7742 37.5664 40.1047 37.4258C40.4843 37.2711 40.8992 37.2922 41.2577 37.5031C41.6093 37.707 41.8484 38.0586 41.8976 38.4594C41.9398 38.8109 42.2421 39.0781 42.5937 39.0781H45.4062C45.7578 39.0781 46.0601 38.8109 46.1023 38.4594C46.1515 38.0586 46.3906 37.707 46.7422 37.5031C47.0937 37.2922 47.5156 37.2711 47.8952 37.4258C48.2257 37.5664 48.5984 37.4398 48.7742 37.1305L50.1804 34.6976C50.3632 34.3883 50.2788 34.0015 49.9976 33.7836C49.6742 33.5375 49.4843 33.1578 49.4843 32.75C49.4843 32.3422 49.6742 31.9625 49.9976 31.7164C50.2789 31.4984 50.3632 31.1117 50.1804 30.8023L48.7742 28.3695C48.5984 28.0601 48.2187 27.9336 47.8953 28.0742C47.5156 28.2289 47.0937 28.2078 46.7422 27.9969C46.3906 27.793 46.1515 27.4414 46.1023 27.0406C46.0601 26.6891 45.7578 26.4219 45.4062 26.4219H42.5937C42.2421 26.4219 41.9398 26.6891 41.8976 27.0406C41.8484 27.4414 41.6093 27.793 41.2578 27.9969C40.8992 28.2078 40.4843 28.2289 40.1047 28.0742C39.7812 27.9336 39.4015 28.0601 39.2257 28.3695L37.8195 30.8023C37.6367 31.1117 37.7211 31.4984 38.0023 31.7164C38.3257 31.9625 38.5156 32.3422 38.5156 32.75C38.5156 33.1578 38.3257 33.5375 38.0023 33.7836ZM44 29.9375C45.5539 29.9375 46.8125 31.1961 46.8125 32.75C46.8125 34.3039 45.5539 35.5625 44 35.5625C42.446 35.5625 41.1875 34.3039 41.1875 32.75C41.1875 31.1961 42.446 29.9375 44 29.9375Z" fill="white"></path>
  <path d="M57.2519 39.8379C56.6216 38.1257 54.9963 36.9688 53.1406 36.9688C51.285 36.9688 49.6597 38.1257 49.0293 39.8379C47.3783 40.1246 46.1094 41.5792 46.1094 43.2969C46.1094 45.2353 47.6866 46.8125 49.625 46.8125C50.2131 46.8125 50.7844 46.6645 51.2997 46.3809C52.4533 46.9481 53.828 46.9481 54.9815 46.3809C55.4968 46.6645 56.0681 46.8125 56.6562 46.8125C58.5947 46.8125 60.1719 45.2353 60.1719 43.2969C60.1719 41.5792 58.903 40.1246 57.2519 39.8379Z" fill="white"></path>
  <path d="M38.375 46.8125C40.3134 46.8125 41.8906 45.2353 41.8906 43.2969C41.8906 41.5792 40.6217 40.1246 38.9707 39.8379C38.3403 38.1257 36.715 36.9688 34.8594 36.9688C33.0037 36.9688 31.3784 38.1257 30.7481 39.8379C29.097 40.1246 27.8281 41.5792 27.8281 43.2969C27.8281 45.2353 29.4053 46.8125 31.3438 46.8125C31.9319 46.8125 32.5032 46.6645 33.0185 46.3809C34.172 46.9481 35.5467 46.9481 36.7003 46.3809C37.2156 46.6645 37.7869 46.8125 38.375 46.8125Z" fill="white"></path>
  <path d="M37.3809 52.4375L40.8965 55.9531H47.1038L50.6194 52.4375H37.3809Z" fill="white"></path>
  <path d="M51.0312 48.2188H36.9688C36.1921 48.2188 35.5625 48.8483 35.5625 49.625C35.5625 50.4016 36.1921 51.0312 36.9688 51.0312H51.0312C51.8079 51.0312 52.4375 50.4016 52.4375 49.625C52.4375 48.8483 51.8079 48.2188 51.0312 48.2188Z" fill="white"></path>
  <path d="M41.8906 60.875C41.8906 61.2633 42.2054 61.5781 42.5938 61.5781H45.4062C45.7946 61.5781 46.1094 61.2633 46.1094 60.875V57.3594H41.8906V60.875Z" fill="white"></path>
  <path d="M51.7344 29.2344C53.6728 29.2344 55.25 30.8116 55.25 32.75V33.162L55.044 32.956C54.7694 32.6813 54.3244 32.6813 54.0497 32.956C53.7751 33.2307 53.7751 33.6756 54.0497 33.9503C54.0497 33.9503 55.4529 35.3533 55.456 35.3565C55.7155 35.616 56.1743 35.6325 56.4503 35.3565L57.8565 33.9503C58.1312 33.6756 58.1312 33.2307 57.8565 32.956C57.5819 32.6813 57.1369 32.6813 56.8622 32.956L56.6562 33.162V32.75C56.6562 30.036 54.4483 27.8281 51.7344 27.8281C51.3461 27.8281 51.0312 28.1429 51.0312 28.5313C51.0312 28.9196 51.3461 29.2344 51.7344 29.2344Z" fill="white"></path>
  <path d="M31.5497 35.3565C31.8072 35.614 32.2706 35.6299 32.544 35.3565L33.9503 33.9503C34.2249 33.6756 34.2249 33.2306 33.9503 32.956C33.6756 32.6813 33.2306 32.6813 32.956 32.956L32.75 33.162V32.75C32.75 30.8116 34.3272 29.2344 36.2656 29.2344C36.6539 29.2344 36.9687 28.9196 36.9687 28.5312C36.9687 28.1429 36.6539 27.8281 36.2656 27.8281C33.5517 27.8281 31.3437 30.036 31.3437 32.75V33.162L31.1378 32.956C30.8631 32.6813 30.4181 32.6813 30.1435 32.956C29.8688 33.2306 29.8688 33.6756 30.1435 33.9503C30.1435 33.9503 31.5434 35.3502 31.5497 35.3565Z" fill="white"></path>
  <path d="M50.5341 58.2685L50.3281 58.4745V56.6563C50.3281 56.2679 50.0133 55.9531 49.625 55.9531C49.2367 55.9531 48.9219 56.2679 48.9219 56.6563V58.4745L48.7159 58.2685C48.4412 57.9938 47.9963 57.9938 47.7216 58.2685C47.447 58.5431 47.447 58.9881 47.7216 59.2628C47.7216 59.2628 49.1257 60.6668 49.1279 60.669C49.3881 60.9292 49.844 60.9471 50.1221 60.669L51.5284 59.2628C51.803 58.9881 51.803 58.5431 51.5284 58.2685C51.2537 57.9938 50.8088 57.9938 50.5341 58.2685Z" fill="white"></path>
  <path d="M39.2841 58.2685L39.0781 58.4745V56.6562C39.0781 56.2679 38.7633 55.9531 38.375 55.9531C37.9867 55.9531 37.6719 56.2679 37.6719 56.6562V58.4745L37.4659 58.2685C37.1912 57.9938 36.7463 57.9938 36.4716 58.2685C36.197 58.5431 36.197 58.9881 36.4716 59.2628C36.4716 59.2628 37.8729 60.6641 37.8779 60.669C38.137 60.9281 38.5958 60.9453 38.8721 60.669L40.2784 59.2628C40.553 58.9881 40.553 58.5431 40.2784 58.2685C40.0037 57.9938 39.5588 57.9938 39.2841 58.2685Z" fill="white"></path>
  <defs>
    <linearGradient id="paint0_linear_617_656" x1="44" y1="0" x2="44" y2="88" gradientUnits="userSpaceOnUse">
      <stop stop-color="#FF7382"></stop>
      <stop offset="1" stop-color="#FF4E9E"></stop>
    </linearGradient>
  </defs>
</svg>
