<?xml version="1.0" encoding="UTF-8"?>
<svg xmlns="http://www.w3.org/2000/svg" width="92" height="92" viewBox="0 0 92 92" fill="none">
  <circle cx="46" cy="46" r="46" fill="white"></circle>
  <circle cx="46" cy="46" r="36" fill="url(#paint0_linear_1081_18)"></circle>
  <path fill-rule="evenodd" clip-rule="evenodd" d="M50.6109 47.0203H65.0757C65.4551 47.0203 65.7648 47.3308 65.7648 47.7102V49.4822H49.9209V47.7102C49.9209 47.3308 50.2315 47.0203 50.6109 47.0203ZM51.7961 48.6537C52.018 48.6537 52.1991 48.4736 52.1991 48.2517C52.1991 48.0298 52.018 47.8487 51.7961 47.8487C51.5743 47.8487 51.3932 48.0298 51.3932 48.2517C51.3932 48.4736 51.5743 48.6537 51.7961 48.6537ZM54.8883 48.6537C55.1101 48.6537 55.2912 48.4736 55.2912 48.2517C55.2912 48.0298 55.1101 47.8487 54.8883 47.8487C54.6665 47.8487 54.4854 48.0298 54.4854 48.2517C54.4854 48.4736 54.6665 48.6537 54.8883 48.6537ZM53.3426 48.6537C53.5645 48.6537 53.7447 48.4736 53.7447 48.2517C53.7447 48.0298 53.5645 47.8487 53.3426 47.8487C53.1209 47.8487 52.9398 48.0298 52.9398 48.2517C52.9398 48.4736 53.1209 48.6537 53.3426 48.6537ZM26.9253 47.0203H41.3901C41.7695 47.0203 42.0792 47.3308 42.0792 47.7102V49.4822H26.2354V47.7102C26.2354 47.3308 26.5459 47.0203 26.9253 47.0203ZM28.1106 48.6537C28.3324 48.6537 28.5135 48.4736 28.5135 48.2517C28.5135 48.0298 28.3324 47.8487 28.1106 47.8487C27.8888 47.8487 27.7077 48.0298 27.7077 48.2517C27.7077 48.4736 27.8888 48.6537 28.1106 48.6537ZM29.6571 48.6537C29.879 48.6537 30.0592 48.4736 30.0592 48.2517C30.0592 48.0298 29.879 47.8487 29.6571 47.8487C29.4353 47.8487 29.2542 48.0298 29.2542 48.2517C29.2542 48.4736 29.4353 48.6537 29.6571 48.6537ZM31.2027 48.6537C31.4246 48.6537 31.6057 48.4736 31.6057 48.2517C31.6057 48.0298 31.4246 47.8487 31.2027 47.8487C30.9809 47.8487 30.7998 48.0298 30.7998 48.2517C30.7998 48.4736 30.9809 48.6537 31.2027 48.6537ZM37.1529 59.6362H26.9253C26.5459 59.6362 26.2354 59.3255 26.2354 58.947V50.7999H42.0792V51.9227H39.1605C38.0565 51.9227 37.1529 52.8265 37.1529 53.9303V59.6362ZM49.9209 51.9227V50.7999H65.7648V58.947C65.7648 59.3255 65.4551 59.6362 65.0757 59.6362H55.632V53.9303C55.632 52.826 54.7297 51.9227 53.6253 51.9227H49.9209ZM54.3143 57.02V65.1672C54.3143 65.5457 54.0047 65.8563 53.6253 65.8563H39.1605C38.7811 65.8563 38.4705 65.5457 38.4705 65.1672V57.02H54.3143ZM39.1605 53.2404H53.6253C54.0047 53.2404 54.3143 53.5509 54.3143 53.9303V55.7023H38.4705V53.9303C38.4705 53.5509 38.7811 53.2404 39.1605 53.2404ZM43.4379 54.8739C43.6598 54.8739 43.8408 54.6937 43.8408 54.4718C43.8408 54.25 43.6598 54.0689 43.4379 54.0689C43.216 54.0689 43.0349 54.25 43.0349 54.4718C43.0349 54.6937 43.216 54.8739 43.4379 54.8739ZM40.3457 54.8739C40.5676 54.8739 40.7487 54.6937 40.7487 54.4718C40.7484 54.365 40.7059 54.2627 40.6304 54.1872C40.5548 54.1117 40.4525 54.0692 40.3457 54.0689C40.2389 54.0692 40.1366 54.1117 40.0611 54.1872C39.9856 54.2627 39.9431 54.365 39.9428 54.4718C39.9428 54.6937 40.1239 54.8739 40.3457 54.8739ZM41.8923 54.8739C41.9989 54.8738 42.1011 54.8314 42.1765 54.756C42.2518 54.6806 42.2942 54.5784 42.2943 54.4718C42.2943 54.25 42.1141 54.0689 41.8923 54.0689C41.7855 54.0692 41.6832 54.1117 41.6076 54.1872C41.5321 54.2627 41.4896 54.365 41.4893 54.4718C41.4893 54.6937 41.6704 54.8739 41.8923 54.8739ZM52.6969 37.6539V36.9269C52.6969 36.6606 52.6162 36.4006 52.4655 36.1811C52.3148 35.9615 52.1011 35.7928 51.8526 35.6972L51.5595 35.5843C51.5095 35.45 51.4546 35.3175 51.3949 35.1871L51.5228 34.8984C51.6306 34.6552 51.6622 34.385 51.6134 34.1234C51.5647 33.8619 51.4379 33.6212 51.2498 33.4331L50.2209 32.4041C50.0325 32.2158 49.7915 32.0889 49.5296 32.0403C49.2677 31.9917 48.9973 32.0236 48.7539 32.1318L48.4657 32.26C48.3364 32.2008 48.2049 32.1463 48.0716 32.0967L47.9585 31.8021C47.863 31.5534 47.6943 31.3395 47.4747 31.1887C47.2551 31.0378 46.995 30.957 46.7286 30.957H45.273C45.007 30.957 44.7471 31.0376 44.5277 31.1881C44.3083 31.3386 44.1396 31.552 44.0438 31.8003L43.9295 32.0963C43.7959 32.146 43.664 32.2007 43.5343 32.26L43.2463 32.1318C43.0029 32.0236 42.7324 31.9917 42.4705 32.0403C42.2086 32.0889 41.9676 32.2158 41.7792 32.4041L40.7503 33.4331C40.562 33.6215 40.4351 33.8625 40.3865 34.1244C40.3379 34.3863 40.3698 34.6568 40.478 34.9001L40.6061 35.1881C40.5466 35.318 40.4919 35.45 40.442 35.5839L40.1476 35.6972C39.8991 35.7928 39.6854 35.9615 39.5346 36.1811C39.3839 36.4006 39.3032 36.6606 39.3032 36.9269V37.5667C37.9053 37.2314 36.8588 35.9677 36.8588 34.4721C36.8588 33.144 37.6833 32.0003 38.8441 31.5241C38.8387 31.4263 38.8358 31.3284 38.8355 31.2304C38.8355 28.4207 41.1127 26.1436 43.9224 26.1436C45.2965 26.1436 46.5427 26.6898 47.4576 27.574C47.9552 27.3968 48.4794 27.3061 49.0076 27.306C51.3752 27.306 53.3246 29.0984 53.5738 31.3994C54.9241 31.7664 55.9261 33.0074 55.9261 34.4721C55.9261 36.2217 54.4939 37.6539 52.7425 37.6539H52.6969ZM47.0715 33.1673C47.5463 33.2801 48.0001 33.4681 48.4156 33.7243L49.2892 33.3358L50.3181 34.3648L49.9312 35.2384C50.1875 35.6542 50.3756 36.1085 50.4881 36.5839L51.3793 36.9269V38.3824L50.4881 38.7254C50.3746 39.2 50.1866 39.6536 49.9312 40.0694L50.3181 40.943L49.2892 41.972L48.4156 41.585C48.0002 41.8414 47.5464 42.0294 47.0715 42.1419L46.7286 43.0332H45.273L44.93 42.1419C44.4549 42.0288 44.0007 41.8408 43.5846 41.585L42.711 41.972L41.682 40.943L42.0704 40.0694C41.8142 39.6538 41.6257 39.2002 41.512 38.7254L40.6208 38.3824V36.9269L41.512 36.5839C41.6257 36.1087 41.8142 35.6545 42.0704 35.2384L41.682 34.3648L42.711 33.3358L43.5846 33.7243C44 33.4681 44.4538 33.2801 44.9286 33.1673L45.273 32.2746H46.7286L47.0715 33.1673ZM46.0001 35.1152C44.5973 35.1152 43.4614 36.2512 43.4614 37.6539C43.4614 39.0566 44.5973 40.194 46.0001 40.194C47.4028 40.194 48.5402 39.0566 48.5402 37.6539C48.5402 36.2512 47.4028 35.1152 46.0001 35.1152ZM45.3412 47.2411C45.2442 47.2888 45.1369 47.3118 45.0289 47.3081C44.9209 47.3045 44.8154 47.2743 44.7218 47.2202C44.5705 47.1328 44.4601 46.9889 44.4149 46.8201C44.3697 46.6514 44.3933 46.4715 44.4806 46.3202L45.4295 44.6768C45.4873 44.5766 45.5705 44.4934 45.6706 44.4355C45.7708 44.3777 45.8844 44.3472 46.0001 44.3472C46.1157 44.3472 46.2293 44.3777 46.3295 44.4355C46.4297 44.4934 46.5128 44.5766 46.5706 44.6768L47.5195 46.3202C47.6068 46.4715 47.6304 46.6514 47.5852 46.8201C47.54 46.9889 47.4296 47.1328 47.2783 47.2202C47.1847 47.2743 47.0793 47.3045 46.9712 47.3081C46.8632 47.3118 46.7559 47.2888 46.6589 47.2411V51.3315C46.6589 51.695 46.3636 51.9903 46.0001 51.9903C45.6365 51.9903 45.3412 51.695 45.3412 51.3315V47.2411ZM55.2955 39.6334H57.8428C58.0176 39.6334 58.1851 39.7028 58.3087 39.8263C58.4322 39.9499 58.5016 40.1175 58.5016 40.2922V44.5497C58.5016 44.9133 58.2065 45.2085 57.8428 45.2085C57.4792 45.2085 57.184 44.9133 57.184 44.5497V40.951H55.2955C55.3431 41.0481 55.3661 41.1553 55.3624 41.2634C55.3588 41.3714 55.3286 41.4769 55.2745 41.5705C55.1871 41.7218 55.0432 41.8321 54.8744 41.8773C54.7057 41.9225 54.5259 41.8989 54.3745 41.8116L52.7311 40.8627C52.6309 40.805 52.5477 40.7218 52.4899 40.6216C52.432 40.5215 52.4015 40.4079 52.4015 40.2922C52.4015 40.1765 52.432 40.0629 52.4899 39.9628C52.5477 39.8626 52.6309 39.7795 52.7311 39.7217L54.3745 38.7728C54.5259 38.6855 54.7057 38.6619 54.8744 38.7071C55.0432 38.7523 55.1871 38.8627 55.2745 39.0139C55.3286 39.1075 55.3588 39.213 55.3624 39.321C55.3661 39.4291 55.3431 39.5363 55.2955 39.6334ZM36.2356 39.6334C36.1879 39.5363 36.1649 39.4291 36.1685 39.321C36.1722 39.213 36.2024 39.1075 36.2565 39.0139C36.3439 38.8627 36.4878 38.7523 36.6565 38.7071C36.8253 38.6619 37.0051 38.6855 37.1564 38.7728L38.7999 39.7217C38.9001 39.7795 38.9832 39.8627 39.0411 39.9628C39.0989 40.063 39.1293 40.1766 39.1293 40.2922C39.1293 40.4078 39.0989 40.5215 39.0411 40.6216C38.9832 40.7218 38.9001 40.8049 38.7999 40.8627L37.1564 41.8116C37.0051 41.8989 36.8253 41.9225 36.6565 41.8773C36.4878 41.8321 36.3439 41.7218 36.2565 41.5705C36.2024 41.4769 36.1722 41.3714 36.1685 41.2634C36.1649 41.1553 36.1879 41.0481 36.2356 40.951H34.347V44.5497C34.347 44.9133 34.0518 45.2085 33.6881 45.2085C33.3245 45.2085 33.0293 44.9133 33.0293 44.5497V40.2922C33.0293 40.1175 33.0987 39.9499 33.2223 39.8263C33.3458 39.7028 33.5134 39.6334 33.6881 39.6334H36.2356Z" fill="white"></path>
  <defs>
    <linearGradient id="paint0_linear_1081_18" x1="46" y1="10" x2="46" y2="82" gradientUnits="userSpaceOnUse">
      <stop stop-color="#FFC676"></stop>
      <stop offset="1" stop-color="#FFA205"></stop>
    </linearGradient>
  </defs>
</svg>
