<?xml version="1.0" encoding="UTF-8"?>
<svg xmlns="http://www.w3.org/2000/svg" width="100" height="100" viewBox="0 0 100 100" fill="none">
  <path d="M0 50C0 22.3858 22.3858 0 50 0C77.6142 0 100 22.3858 100 50C100 77.6142 77.6142 100 50 100C22.3858 100 0 77.6142 0 50Z" fill="url(#paint0_linear_1074_246)"></path>
  <path fill-rule="evenodd" clip-rule="evenodd" d="M54.6875 27.6041H31.7708C30.8042 27.6041 29.8771 27.9875 29.1938 28.6729C28.8548 29.011 28.5859 29.4126 28.4025 29.8549C28.2191 30.2971 28.1248 30.7712 28.125 31.25V68.75C28.125 69.7166 28.5083 70.6437 29.1938 71.327C29.8771 72.0125 30.8042 72.3958 31.7708 72.3958H54.6875C55.6542 72.3958 56.5813 72.0125 57.2646 71.327C57.95 70.6437 58.3333 69.7166 58.3333 68.75V65.1958C58.3333 64.6812 52.0833 60.4166 52.0833 60.4166L47.9167 54.1666L50 52.0833H52.0833C52.0833 52.0833 58.3333 56.4625 58.3333 55.3645V31.25C58.3333 30.2833 57.95 29.3562 57.2646 28.6729C56.9265 28.3339 56.5248 28.065 56.0826 27.8816C55.6403 27.6982 55.1663 27.6039 54.6875 27.6041ZM40.1042 56.7708H35.9375C35.5231 56.7708 35.1257 56.9354 34.8326 57.2284C34.5396 57.5215 34.375 57.9189 34.375 58.3333C34.375 58.7477 34.5396 59.1451 34.8326 59.4382C35.1257 59.7312 35.5231 59.8958 35.9375 59.8958H40.1042C40.5186 59.8958 40.916 59.7312 41.209 59.4382C41.502 59.1451 41.6667 58.7477 41.6667 58.3333C41.6667 57.9189 41.502 57.5215 41.209 57.2284C40.916 56.9354 40.5186 56.7708 40.1042 56.7708ZM40.1042 48.4375H35.9375C35.5231 48.4375 35.1257 48.6021 34.8326 48.8951C34.5396 49.1881 34.375 49.5856 34.375 50C34.375 50.4144 34.5396 50.8118 34.8326 51.1048C35.1257 51.3978 35.5231 51.5625 35.9375 51.5625H40.1042C40.5186 51.5625 40.916 51.3978 41.209 51.1048C41.502 50.8118 41.6667 50.4144 41.6667 50C41.6667 49.5856 41.502 49.1881 41.209 48.8951C40.916 48.6021 40.5186 48.4375 40.1042 48.4375ZM44.7917 36.9791V35.4166C44.7917 35.0022 44.627 34.6048 44.334 34.3118C44.041 34.0187 43.6436 33.8541 43.2292 33.8541C42.8148 33.8541 42.4173 34.0187 42.1243 34.3118C41.8313 34.6048 41.6667 35.0022 41.6667 35.4166V36.9791H40.1042C39.6898 36.9791 39.2923 37.1437 38.9993 37.4368C38.7063 37.7298 38.5417 38.1272 38.5417 38.5416C38.5417 38.956 38.7063 39.3535 38.9993 39.6465C39.2923 39.9395 39.6898 40.1041 40.1042 40.1041H41.6667V41.6666C41.6667 42.081 41.8313 42.4785 42.1243 42.7715C42.4173 43.0645 42.8148 43.2291 43.2292 43.2291C43.6436 43.2291 44.041 43.0645 44.334 42.7715C44.627 42.4785 44.7917 42.081 44.7917 41.6666V40.1041H46.3542C46.7686 40.1041 47.166 39.9395 47.459 39.6465C47.752 39.3535 47.9167 38.956 47.9167 38.5416C47.9167 38.1272 47.752 37.7298 47.459 37.4368C47.166 37.1437 46.7686 36.9791 46.3542 36.9791H44.7917Z" fill="white"></path>
  <path fill-rule="evenodd" clip-rule="evenodd" d="M56.7713 47.3958H63.0213C63.749 47.3958 64.4667 47.5652 65.1176 47.8906C65.7685 48.2161 66.3347 48.6886 66.7713 49.2708L69.2546 52.5833L68.813 66.6958L58.4609 63.7395C57.2389 63.3885 56.1397 62.7021 55.2879 61.7582L49.5359 55.3666C49.2583 55.0578 49.1097 54.6544 49.1206 54.2393C49.1314 53.8243 49.3009 53.4292 49.5942 53.1353L49.6004 53.1312C49.8779 52.8528 50.2496 52.6885 50.6422 52.6707C51.0349 52.653 51.4199 52.7831 51.7213 53.0353L54.6129 55.4437C55.6427 56.3007 56.9399 56.7702 58.2796 56.7708H59.8963C60.3107 56.7708 60.7081 56.6061 61.0011 56.3131C61.2942 56.0201 61.4588 55.6227 61.4588 55.2083C61.4588 54.7939 61.2942 54.3964 61.0011 54.1034C60.7081 53.8104 60.3107 53.6458 59.8963 53.6458H58.2796C57.6713 53.6458 57.0817 53.4312 56.6129 53.0416L53.7234 50.6333C52.8221 49.8826 51.6727 49.4959 50.501 49.5491C49.3292 49.6023 48.2196 50.0915 47.39 50.9208L47.3859 50.927C46.5262 51.786 46.029 52.9422 45.9968 54.1571C45.9646 55.372 46.3999 56.5529 47.2129 57.4562L52.9671 63.8478C54.2096 65.2293 55.8161 66.2329 57.6025 66.7437L69.8838 70.252C70.1125 70.3174 70.353 70.3298 70.5872 70.2882C70.8214 70.2465 71.043 70.152 71.2351 70.0117C71.4272 69.8715 71.5847 69.6892 71.6957 69.4789C71.8067 69.2685 71.8681 69.0356 71.8755 68.7978L72.3963 52.1312C72.4066 51.7768 72.2964 51.4294 72.0838 51.1458L69.2713 47.3958C68.5435 46.4256 67.5998 45.6382 66.515 45.0958C65.4302 44.5534 64.2341 44.2709 63.0213 44.2708H56.7713C56.3569 44.2708 55.9595 44.4354 55.6664 44.7284C55.3734 45.0214 55.2088 45.4189 55.2088 45.8333C55.2088 46.2477 55.3734 46.6451 55.6664 46.9381C55.9595 47.2311 56.3569 47.3958 56.7713 47.3958Z" fill="white"></path>
  <defs>
    <linearGradient id="paint0_linear_1074_246" x1="50" y1="0" x2="50" y2="100" gradientUnits="userSpaceOnUse">
      <stop stop-color="#A5A4FF"></stop>
      <stop offset="1" stop-color="#5350DB"></stop>
    </linearGradient>
  </defs>
</svg>
