<?xml version="1.0" encoding="UTF-8"?>
<svg xmlns="http://www.w3.org/2000/svg" width="92" height="92" viewBox="0 0 92 92" fill="none">
  <circle cx="46" cy="46" r="46" fill="white"></circle>
  <circle cx="46" cy="46" r="36" fill="url(#paint0_linear_1081_8)"></circle>
  <path d="M62 34.3928V33.1742C62 31.4211 60.5788 30 58.8257 30H33.1742C31.4211 30 30 31.4212 30 33.1742V34.3928C30 34.6486 30.2074 34.856 30.4632 34.856H61.5367C61.7926 34.856 62 34.6486 62 34.3928ZM34.5557 30.7697C35.4506 30.7697 36.1786 31.4978 36.1786 32.3926C36.1786 33.2875 35.4506 34.0156 34.5557 34.0156C33.6608 34.0156 32.9328 33.2875 32.9328 32.3926C32.9328 31.4978 33.6608 30.7697 34.5557 30.7697ZM44.901 47.961C44.9765 48.0084 45.0599 48.0411 45.1486 48.0582C45.5234 48.1303 45.8899 47.8966 45.9836 47.5263C46.6458 44.9067 47.9331 42.5113 49.7365 40.5125C49.7377 40.5114 49.738 40.5098 49.7392 40.5087C49.7403 40.5077 49.7414 40.5067 49.7425 40.5057C50.0472 40.1684 50.3647 39.8412 50.6984 39.5274L49.725 38.4558C47.2728 40.7557 45.5207 43.67 44.6501 46.9019C44.6374 46.9491 44.6123 47.0549 44.5817 47.1864C44.5121 47.486 44.6404 47.7973 44.901 47.961ZM47.42 38.1211C47.3033 37.9753 47.18 37.8347 47.0507 37.6999L46.2432 38.5524C46.3343 38.6494 46.4215 38.7499 46.5046 38.8538C46.8515 39.2872 47.1183 39.764 47.3026 40.2762C47.5702 39.9284 47.8501 39.5901 48.1416 39.2621C47.9437 38.8588 47.7033 38.4749 47.42 38.1211Z" fill="white"></path>
  <path d="M35.295 33.1356C35.7051 32.7255 35.7051 32.0606 35.295 31.6505C34.8849 31.2404 34.22 31.2404 33.8099 31.6505C33.3998 32.0606 33.3998 32.7255 33.8099 33.1356C34.22 33.5457 34.8849 33.5457 35.295 33.1356Z" fill="white"></path>
  <path d="M30 35.8922V50.2474C30 50.5032 30.2074 50.7106 30.4632 50.7106H33.7163C34.0654 50.7106 34.373 50.4772 34.4477 50.1557C34.6944 49.0521 34.864 46.902 35.028 44.8227C35.4321 39.6995 35.6221 38.4099 36.2842 38.406C36.9323 38.4098 37.1202 39.9048 37.5442 48.4041C37.7305 52.1383 37.9591 56.7208 38.2907 57.7428C38.5484 57.2617 38.7681 55.6442 38.9192 54.5321C39.0609 53.4887 39.2075 52.4097 39.4056 51.7032C39.5782 51.1117 40.1317 50.7106 40.7566 50.7106H43.0571C43.2153 50.7106 43.3435 50.8388 43.3435 50.997C43.3435 51.1552 43.2153 51.2834 43.0571 51.2834H40.7566C40.3846 51.2834 40.0572 51.5149 39.9605 51.8465C39.7697 52.5262 39.6259 53.5851 39.4868 54.6092C39.146 57.1175 38.9355 58.4266 38.2323 58.4307C37.5842 58.427 37.3962 56.9319 36.9722 48.4326C36.7919 44.8189 36.572 40.4105 36.2574 39.2036C35.9764 40.0834 35.7614 42.8086 35.599 44.8677C35.4335 46.9669 35.2623 49.1375 35.0096 50.2681C35.0091 50.2701 35.0052 50.2869 35.0047 50.2888C34.8714 50.8636 34.3292 51.2834 33.7163 51.2834H30.4632C30.2074 51.2834 30 51.4908 30 51.7466V58.8259C30 60.579 31.4212 62.0001 33.1743 62.0001H58.8257C60.5788 62.0001 62 60.579 62 58.8259V35.8922C62 35.6363 61.7926 35.429 61.5367 35.429H30.4632C30.2074 35.429 30 35.6364 30 35.8922ZM60.7917 44.9556L59.21 45.6692C59.1743 45.6853 59.1356 45.6939 59.0963 45.6945C59.0571 45.6951 59.0182 45.6876 58.982 45.6725C58.9458 45.6574 58.9131 45.635 58.8859 45.6067C58.8587 45.5784 58.8376 45.5449 58.8239 45.5081C58.5542 44.7843 57.8537 44.298 57.0809 44.298C56.9189 44.298 56.7622 44.3225 56.6109 44.3618C57.2547 45.0261 58.6757 46.6336 59.2198 48.3858C59.933 50.5701 59.5172 52.9623 58.1062 54.7811L54.7898 59.0557C54.0684 59.9856 52.9795 60.519 51.8027 60.519H51.8026C50.6258 60.519 49.5371 59.9856 48.8157 59.0557L45.4993 54.7811C44.0883 52.9623 43.6725 50.5701 44.387 48.3819L44.4129 48.3043C44.0721 47.9929 43.9167 47.5178 44.0238 47.0569C44.0564 46.9164 44.0835 46.8033 44.0971 46.753C44.6703 44.6248 45.6146 42.6306 46.88 40.8491C46.7236 40.2509 46.4484 39.7003 46.0575 39.2119C45.931 39.0539 45.7939 38.9046 45.6471 38.765C45.5324 38.6562 45.5277 38.4752 45.6364 38.3604L46.8363 37.0935C46.8425 37.087 46.8489 37.0808 46.8556 37.0749C46.9669 36.9774 47.1345 36.9806 47.2418 37.0824C47.4639 37.2932 47.6743 37.5223 47.8672 37.7633C48.1291 38.0904 48.3601 38.4411 48.5572 38.8109C48.8753 38.4757 49.206 38.1507 49.5503 37.8378C49.6064 37.7867 49.6811 37.7599 49.7566 37.7637C49.7942 37.7655 49.831 37.7746 49.8651 37.7907C49.8991 37.8067 49.9296 37.8293 49.9549 37.8572L51.3133 39.3526C51.3139 39.3533 51.314 39.3543 51.3146 39.355C52.5058 38.687 53.8544 38.3298 55.2486 38.3298C55.8911 38.3298 56.5305 38.4057 57.1493 38.5554C57.1865 38.5644 57.2215 38.5808 57.2523 38.6036C57.2831 38.6263 57.309 38.655 57.3285 38.688C57.3479 38.7209 57.3606 38.7575 57.3658 38.7954C57.3709 38.8333 57.3684 38.8719 57.3584 38.9088L56.8864 40.6471C58.8084 41.1955 60.3501 42.6889 60.9474 44.6095C60.9904 44.7476 60.9236 44.8961 60.7917 44.9556Z" fill="white"></path>
  <path d="M56.4701 41.1282C56.0695 41.0359 55.6598 40.9892 55.2487 40.9891C52.2742 40.9891 49.8543 43.4091 49.8543 46.3836C49.8543 47.01 49.9606 47.6236 50.1702 48.2073C50.1703 48.2076 50.1703 48.2078 50.1704 48.2081C50.1715 48.2109 50.173 48.2134 50.174 48.2163C50.1749 48.2191 50.1746 48.223 50.1755 48.2259C50.1775 48.2333 50.1806 48.2402 50.1821 48.2479C50.6177 50.4588 50.1899 51.7433 50.1398 51.8825C50.0976 51.9992 49.9876 52.0718 49.8703 52.0718C49.8381 52.0718 49.8053 52.0662 49.7731 52.0547C49.6243 52.001 49.5473 51.8369 49.6009 51.6881C49.6151 51.6491 49.8745 50.8997 49.7807 49.5563C49.3793 50.3524 48.7667 51.295 48.3185 51.9514C48.263 52.0326 48.1731 52.0763 48.0817 52.0763C48.0241 52.0763 47.9679 52.0589 47.9205 52.0264C47.7899 51.9372 47.7562 51.759 47.8454 51.6284C48.732 50.3297 49.653 48.7264 49.6253 48.388C49.6247 48.3847 49.6242 48.3816 49.6237 48.3782C49.3969 47.739 49.2815 47.0681 49.2815 46.3836C49.2815 43.0932 51.9584 40.4164 55.2487 40.4164C55.6106 40.4164 55.9725 40.4507 56.3285 40.5157L56.7269 39.0483C56.2426 38.9514 55.7466 38.9023 55.2487 38.9023C53.3467 38.9023 51.5358 39.6164 50.1464 40.9128C48.4135 42.8391 47.1763 45.1454 46.5389 47.6666C46.3915 48.2498 45.8662 48.644 45.2852 48.644C45.2043 48.644 45.1226 48.6364 45.0405 48.6206C45.0003 48.6129 44.9625 48.5981 44.9235 48.5867C44.2802 50.5853 44.663 52.7683 45.9519 54.4297L49.2683 58.7044C49.8804 59.4934 50.8041 59.9459 51.8028 59.9459C52.8014 59.9459 53.7253 59.4934 54.3374 58.7044L57.6537 54.4297C58.9481 52.7613 59.3295 50.5668 58.6741 48.5594C58.1232 46.7854 56.5443 45.105 56.0488 44.6086C55.7498 44.8077 55.509 45.0938 55.3638 45.4418C55.3592 45.4552 55.3537 45.4682 55.3472 45.4808C55.343 45.4889 54.8728 46.4384 55.2145 47.9793C55.2704 48.2312 55.3532 48.4385 55.4409 48.6579C55.8289 49.6291 56.1954 50.5464 54.2215 54.598C54.1719 54.6998 54.0699 54.759 53.9638 54.759C53.9217 54.759 53.879 54.7497 53.8386 54.73C53.6964 54.6608 53.6373 54.4893 53.7065 54.3471C54.4717 52.7763 54.8681 51.7159 55.0464 50.952C54.3882 51.5578 53.4443 52.1015 53.052 52.3157C53.01 52.3387 52.9629 52.3508 52.915 52.3508C52.8136 52.3508 52.7154 52.2969 52.6634 52.2017C52.5876 52.0628 52.6387 51.8889 52.7774 51.813C53.9074 51.1956 55.1227 50.2843 55.1648 49.8607C55.1411 49.4521 55.0262 49.164 54.9089 48.8704C54.8167 48.6394 54.7212 48.4006 54.6553 48.1033C54.2904 46.4577 54.7489 45.403 54.8286 45.2373C55.2042 44.3185 56.088 43.7249 57.0809 43.7249C57.9889 43.7249 58.8205 44.2382 59.236 45.0289L60.3199 44.5399C59.6998 42.8352 58.2456 41.5392 56.4701 41.1282Z" fill="white"></path>
  <defs>
    <linearGradient id="paint0_linear_1081_8" x1="46" y1="10" x2="46" y2="82" gradientUnits="userSpaceOnUse">
      <stop stop-color="#AEE747"></stop>
      <stop offset="1" stop-color="#77C744"></stop>
    </linearGradient>
  </defs>
</svg>
