<?xml version="1.0" encoding="UTF-8"?>
<svg xmlns="http://www.w3.org/2000/svg" width="81" height="80" viewBox="0 0 81 80" fill="none">
  <rect x="0.5" width="80" height="80" rx="40" fill="url(#paint0_linear_982_466)"></rect>
  <path d="M52.104 29.7327L48.3135 33.5232C48.4071 33.8432 48.455 34.175 48.4559 34.5085C48.4543 35.0178 48.3436 35.5208 48.1312 35.9837C47.9187 36.4465 47.6095 36.8585 47.2244 37.1917C46.8392 37.5249 46.3871 37.7717 45.8985 37.9154C45.4099 38.0591 44.8962 38.0964 44.392 38.0247C43.8878 37.953 43.4048 37.774 42.9756 37.4999C42.5464 37.2257 42.181 36.8627 41.904 36.4353C41.627 36.0079 41.4449 35.5262 41.3699 35.0224C41.2948 34.5187 41.3287 34.0047 41.4692 33.5152L37.6829 29.7289C36.8939 30.0157 36.0291 30.0157 35.2401 29.7289L31.4492 33.5194C31.6699 34.2812 31.6309 35.0946 31.3386 35.8318C31.0462 36.569 30.5169 37.1881 29.8341 37.5915C29.1514 37.9949 28.3538 38.1598 27.567 38.0603C26.7802 37.9607 26.0489 37.6024 25.4881 37.0416C24.9273 36.4808 24.569 35.7495 24.4694 34.9627C24.3698 34.1759 24.5348 33.3783 24.9382 32.6955C25.3416 32.0128 25.9606 31.4835 26.6978 31.1911C27.435 30.8987 28.2485 30.8598 29.0103 31.0805L32.9797 27.111C32.9286 26.8714 32.9027 26.627 32.9024 26.3819C32.9024 25.4365 33.278 24.5299 33.9465 23.8614C34.6149 23.1929 35.5216 22.8174 36.467 22.8174C37.4123 22.8174 38.319 23.1929 38.9875 23.8614C39.656 24.5299 40.0315 25.4365 40.0315 26.3819C40.0306 26.6242 40.0047 26.8657 39.9542 27.1026L43.9316 31.0805C44.5715 30.8954 45.2507 30.8954 45.8905 31.0805L49.8599 27.111C49.8087 26.8714 49.7828 26.627 49.7826 26.3819C49.7827 25.6774 49.9917 24.9886 50.3832 24.4029C50.7747 23.8171 51.3311 23.3605 51.9821 23.091C52.633 22.8214 53.3493 22.7509 54.0403 22.8884C54.7314 23.0259 55.3661 23.3652 55.8643 23.8635C56.3624 24.3617 56.7017 24.9965 56.8391 25.6875C56.9765 26.3785 56.906 27.0948 56.6363 27.7457C56.3667 28.3967 55.9101 28.953 55.3242 29.3444C54.7384 29.7359 54.0496 29.9448 53.3451 29.9448C52.9219 29.9492 52.5017 29.8773 52.104 29.7327ZM57.9831 52.248H55.8168V36.9962C55.8167 36.5643 55.6451 36.1502 55.3397 35.8449C55.0344 35.5395 54.6203 35.3679 54.1884 35.3678H51.4929C51.0611 35.3679 50.6469 35.5395 50.3416 35.8449C50.0362 36.1502 49.8647 36.5643 49.8645 36.9962V52.248H47.5394V43.3965C47.5393 42.9646 47.3677 42.5505 47.0622 42.2451C46.7568 41.9397 46.3426 41.7682 45.9107 41.7682H43.2071C42.7753 41.7683 42.3612 41.9399 42.0558 42.2453C41.7505 42.5506 41.5789 42.9647 41.5788 43.3965V52.248H39.4334V36.9962C39.4333 36.5643 39.2617 36.1502 38.9564 35.8449C38.651 35.5395 38.2369 35.3679 37.8051 35.3678H35.1015C34.6696 35.3678 34.2554 35.5394 33.95 35.8447C33.6445 36.1501 33.4729 36.5643 33.4728 36.9962V52.248H31.1565V42.8106C31.1565 42.3787 30.9849 41.9644 30.6794 41.6589C30.374 41.3535 29.9597 41.1819 29.5277 41.1819H26.8242C26.3924 41.182 25.9782 41.3536 25.6729 41.6589C25.3675 41.9643 25.196 42.3784 25.1958 42.8102V52.2476H23.0173C22.3629 52.2476 21.7353 52.5076 21.2725 52.9703C20.8098 53.4331 20.5498 54.0607 20.5498 54.7151C20.5498 55.3695 20.8098 55.9972 21.2725 56.4599C21.7353 56.9227 22.3629 57.1826 23.0173 57.1826H57.9831C58.6376 57.1826 59.2652 56.9227 59.7279 56.4599C60.1907 55.9972 60.4506 55.3695 60.4506 54.7151C60.4506 54.0607 60.1907 53.4331 59.7279 52.9703C59.2652 52.5076 58.6376 52.248 57.9831 52.248Z" fill="white"></path>
  <defs>
    <linearGradient id="paint0_linear_982_466" x1="40.5" y1="0" x2="40.5" y2="80" gradientUnits="userSpaceOnUse">
      <stop stop-color="#8788FF"></stop>
      <stop offset="1" stop-color="#5A5EFF"></stop>
    </linearGradient>
  </defs>
</svg>
