<svg xmlns="http://www.w3.org/2000/svg" width="93" height="93" viewBox="0 0 93 93" fill="none"><rect width="93" height="93" rx="46.5" fill="#E9DDFF"></rect><path d="M59.3344 39.0117C61.2359 39.0117 62.7774 37.4703 62.7774 35.5688C62.7774 33.6673 61.2359 32.1258 59.3344 32.1258C57.4329 32.1258 55.8914 33.6673 55.8914 35.5688C55.8914 37.4703 57.4329 39.0117 59.3344 39.0117Z" fill="#8140FD"></path><path d="M63.5459 40.1401H53.4106C52.7738 40.1401 52.175 40.3827 51.7125 40.8148L49.5521 42.8692C49.2413 43.1572 48.7788 43.18 48.4453 42.9298L46.8552 41.6957C46.3355 41.2924 45.5853 41.3984 45.1977 41.93C44.8214 42.4462 44.9304 43.1692 45.4423 43.5515L48.0814 45.5224C48.6954 45.9848 49.5217 46.0379 50.1888 45.674C50.1888 45.674 53.1177 44.2058 53.1376 44.1958C53.3477 44.0905 53.5939 44.0965 53.8111 44.1728C54.373 44.3701 54.3657 44.8987 54.3657 45.3813V59.9852C54.3657 60.9276 55.0437 61.7878 55.9816 61.88C57.0561 61.9856 57.959 61.1369 57.959 60.0923V52.5723C57.959 52.1099 58.338 51.7309 58.808 51.7309C59.278 51.7309 59.657 52.1099 59.657 52.5723V59.9851C59.657 60.9276 60.335 61.7878 61.2729 61.88C62.3473 61.9856 63.2502 61.137 63.2502 60.0923V44.9538C63.2502 44.4914 63.6292 44.1124 64.0992 44.1124C64.5616 44.1124 64.9407 44.4914 64.9407 44.9538V48.5546C64.9407 49.1383 65.4182 49.6083 66.002 49.6083C66.5856 49.6083 67.0632 49.1383 67.0632 48.5546V43.6575C67.0632 41.7149 65.4884 40.1401 63.5459 40.1401Z" fill="#8140FD"></path><path d="M30.665 44.4826H44.2267C43.3246 43.5653 43.1957 42.1023 43.9765 41.0334C44.4768 40.3436 45.288 39.9342 46.1446 39.9342C46.7358 39.9342 47.3196 40.1313 47.782 40.4952L48.3809 40.9652V32.7327C48.3809 32.3157 48.0397 31.9746 47.6228 31.9746H30.665C30.248 31.9746 29.907 32.3157 29.907 32.7327V43.7245C29.907 44.1415 30.248 44.4826 30.665 44.4826ZM34.5008 35.1812H43.787C44.2039 35.1812 44.5451 35.5223 44.5451 35.9392C44.5451 36.3562 44.2039 36.6973 43.787 36.6973H34.5008C34.0838 36.6973 33.7427 36.3562 33.7427 35.9392C33.7427 35.5223 34.0838 35.1812 34.5008 35.1812ZM34.5008 38.0997H43.787C44.2039 38.0997 44.5451 38.4409 44.5451 38.8578C44.5451 39.2823 44.2039 39.6159 43.787 39.6159H34.5008C34.0838 39.6159 33.7427 39.2823 33.7427 38.8578C33.7427 38.4409 34.0838 38.0997 34.5008 38.0997Z" fill="#8140FD"></path><path d="M33.143 58.6227C35.1894 58.6227 36.8484 56.9637 36.8484 54.9172C36.8484 52.8707 35.1894 51.2117 33.143 51.2117C31.0965 51.2117 29.4375 52.8707 29.4375 54.9172C29.4375 56.9637 31.0965 58.6227 33.143 58.6227Z" fill="#8140FD"></path><path d="M35.571 59.3809H30.7154C28.6286 59.3809 26.9368 61.0726 26.9368 63.1595V66.0254H39.3496V63.1595C39.3496 61.0726 37.6579 59.3809 35.571 59.3809Z" fill="#8140FD"></path><path d="M46.3141 58.6227C48.3605 58.6227 50.0195 56.9637 50.0195 54.9172C50.0195 52.8707 48.3605 51.2117 46.3141 51.2117C44.2676 51.2117 42.6086 52.8707 42.6086 54.9172C42.6086 56.9637 44.2676 58.6227 46.3141 58.6227Z" fill="#8140FD"></path><path d="M48.7419 59.3809H43.8863C41.7994 59.3809 40.1077 61.0726 40.1077 63.1595V66.0254H52.5205V63.1595C52.5205 61.0726 50.8288 59.3809 48.7419 59.3809Z" fill="#8140FD"></path></svg>