<svg xmlns="http://www.w3.org/2000/svg" width="90" height="90" viewBox="0 0 90 90" fill="none"><path d="M0 40C0 21.1438 0 11.7157 5.85786 5.85786C11.7157 0 21.1438 0 40 0H50C68.8562 0 78.2843 0 84.1421 5.85786C90 11.7157 90 21.1438 90 40V50C90 68.8562 90 78.2843 84.1421 84.1421C78.2843 90 68.8562 90 50 90H40C21.1438 90 11.7157 90 5.85786 84.1421C0 78.2843 0 68.8562 0 50V40Z" fill="#ED8352"></path><path fill-rule="evenodd" clip-rule="evenodd" d="M62.5085 26.3189C62.3642 26.1746 62.2831 25.9788 62.2831 25.7747C62.2831 25.5706 62.3642 25.3749 62.5085 25.2306C62.6528 25.0862 62.8486 25.0052 63.0527 25.0052C63.2568 25.0052 63.4525 25.0862 63.5968 25.2306C72.6647 34.2984 72.6647 48.9999 63.5968 58.0678C63.5254 58.1392 63.4405 58.1959 63.3472 58.2346C63.2538 58.2733 63.1537 58.2932 63.0527 58.2932C62.9516 58.2932 62.8515 58.2733 62.7582 58.2346C62.6648 58.1959 62.5799 58.1392 62.5085 58.0678C62.437 57.9963 62.3803 57.9115 62.3417 57.8181C62.303 57.7247 62.2831 57.6247 62.2831 57.5236C62.2831 57.4225 62.303 57.3225 62.3417 57.2291C62.3803 57.1357 62.437 57.0509 62.5085 56.9794C70.9751 48.513 70.9751 34.7855 62.5085 26.3189ZM49.0533 33.3278C51.56 33.3278 52.8216 30.2832 51.0487 28.5103C49.2758 26.7374 46.2313 27.999 46.2313 30.5058C46.2314 32.0646 47.4946 33.3278 49.0533 33.3278ZM53.6076 38.3917C53.6179 38.4076 53.6326 38.4202 53.6499 38.4281C53.6671 38.4361 53.6863 38.4389 53.7051 38.4364C56.1534 38.138 58.6243 37.8546 61.0646 37.519C61.7861 37.4198 62.1369 38.0605 61.9292 38.7572C61.7729 39.2819 61.2998 39.8385 60.4299 40.1349L52.4925 42.84C52.4764 42.8458 52.4591 42.8473 52.4423 42.8444C52.4255 42.8416 52.4097 42.8345 52.3964 42.8238L48.6885 39.9356C48.6644 39.9169 48.6365 39.9101 48.6065 39.9157C48.5766 39.9213 48.553 39.9377 48.5374 39.9639L45.6958 44.716C45.2871 45.3995 45.1394 46.372 45.6861 46.9527L50.9269 52.5204C50.9405 52.5346 50.9496 52.5525 50.953 52.5718L52.4866 60.7517C53.3688 65.4564 50.5072 65.1335 49.8707 63.3028L46.8518 54.6207C46.846 54.6035 46.8356 54.5883 46.8217 54.5766L41.7917 50.2506C41.7618 50.2248 41.7225 50.2184 41.686 50.2334C41.6495 50.2484 41.6259 50.2804 41.6226 50.3197L41.1639 55.7363C41.163 55.7494 41.1595 55.7621 41.1536 55.7739C41.1477 55.7856 41.1395 55.796 41.1296 55.8046L31.4501 64.3433C29.528 66.0388 27.0342 63.9996 27.8461 63.0866L36.5802 53.2629C36.5975 53.244 36.6068 53.2191 36.6061 53.1935L36.5311 47.1847C36.5125 45.6901 36.8509 44.4003 37.583 43.1759L41.6065 36.4471C41.6265 36.4135 41.6264 36.3744 41.606 36.341C41.5856 36.3076 41.5508 36.2896 41.5118 36.2921L36.896 36.5923C36.8807 36.593 36.8659 36.5973 36.8525 36.6048C36.8392 36.6122 36.8277 36.6226 36.8191 36.6352L33.1476 41.7938C31.9478 43.4794 29.3605 42.587 30.4238 40.7414L33.6606 35.1236C35.1858 32.3416 44.9856 32.0911 45.053 32.2458C46.0258 34.4791 48.6541 35.4914 50.8722 34.4707C50.8943 34.4603 50.9194 34.4583 50.9429 34.4648C50.9664 34.4714 50.9868 34.4862 51.0003 34.5066L53.6076 38.3917ZM28.3765 30.3185C22.1186 36.5763 22.1186 46.7219 28.3765 52.9798C28.5208 53.1241 28.7165 53.2052 28.9206 53.2052C29.1248 53.2052 29.3205 53.1241 29.4648 52.9798C29.6092 52.8355 29.6902 52.6397 29.6902 52.4356C29.6902 52.2315 29.6092 52.0358 29.4648 51.8915C23.8082 46.2349 23.8082 37.0634 29.4648 31.4068C29.5374 31.3356 29.5952 31.2507 29.6347 31.157C29.6743 31.0633 29.695 30.9628 29.6954 30.8611C29.6959 30.7594 29.6762 30.6586 29.6376 30.5646C29.5989 30.4705 29.5419 30.3851 29.47 30.3132C29.3981 30.2413 29.3127 30.1844 29.2186 30.1457C29.1246 30.107 29.0238 30.0874 28.9221 30.0878C28.8205 30.0883 28.7199 30.109 28.6262 30.1486C28.5326 30.1882 28.4477 30.2459 28.3765 30.3185ZM26.403 25.2307C17.3351 34.2984 17.3351 49 26.403 58.0678C26.5473 58.2121 26.743 58.2932 26.9471 58.2932C27.1512 58.2932 27.347 58.2121 27.4913 58.0678C27.6356 57.9235 27.7167 57.7277 27.7167 57.5236C27.7167 57.3195 27.6356 57.1237 27.4913 56.9794C19.0249 48.5128 19.0247 34.7855 27.4913 26.3189C27.5639 26.2477 27.6217 26.1628 27.6612 26.0692C27.7008 25.9755 27.7215 25.8749 27.7219 25.7732C27.7224 25.6715 27.7027 25.5708 27.6641 25.4767C27.6254 25.3827 27.5684 25.2973 27.4965 25.2254C27.4246 25.1535 27.3392 25.0965 27.2451 25.0579C27.1511 25.0192 27.0503 24.9995 26.9486 25C26.8469 25.0005 26.7464 25.0211 26.6527 25.0607C26.5591 25.1003 26.4742 25.1581 26.403 25.2307ZM60.5351 31.4069C66.1917 37.0635 66.1917 46.235 60.5351 51.8916C60.4636 51.963 60.4069 52.0479 60.3683 52.1412C60.3296 52.2346 60.3097 52.3347 60.3097 52.4358C60.3097 52.5368 60.3296 52.6369 60.3683 52.7303C60.4069 52.8236 60.4636 52.9085 60.5351 52.9799C60.6066 53.0514 60.6914 53.1081 60.7848 53.1468C60.8781 53.1854 60.9782 53.2053 61.0793 53.2053C61.1803 53.2053 61.2804 53.1854 61.3738 53.1468C61.4672 53.1081 61.552 53.0514 61.6235 52.9799C67.8814 46.722 67.8814 36.5765 61.6235 30.3186C61.4787 30.1766 61.2837 30.0975 61.0809 30.0984C60.878 30.0994 60.6838 30.1804 60.5404 30.3238C60.3969 30.4672 60.3159 30.6614 60.3149 30.8642C60.3139 31.0671 60.3931 31.2621 60.5351 31.4069Z" fill="white"></path></svg>