<svg xmlns="http://www.w3.org/2000/svg" width="90" height="90" viewBox="0 0 90 90" fill="none"><path d="M0 40C0 21.1438 0 11.7157 5.85786 5.85786C11.7157 0 21.1438 0 40 0H50C68.8562 0 78.2843 0 84.1421 5.85786C90 11.7157 90 21.1438 90 40V50C90 68.8562 90 78.2843 84.1421 84.1421C78.2843 90 68.8562 90 50 90H40C21.1438 90 11.7157 90 5.85786 84.1421C0 78.2843 0 68.8562 0 50V40Z" fill="#2EADDC"></path><path d="M61.9373 28.0626C57.9881 24.1054 52.7794 21.654 47.2131 21.1327C41.6468 20.6115 36.0734 22.0533 31.4582 25.2084H31.8436C32.1514 25.1715 32.4636 25.2039 32.7573 25.303C33.051 25.4021 33.319 25.5655 33.5415 25.7813C34.479 26.7396 34.0936 27.8646 33.9582 29.0417C37.6992 26.4304 42.2414 25.2223 46.7854 25.6299C51.3295 26.0374 55.5842 28.0346 58.8008 31.2699C62.0175 34.5053 63.99 38.7714 64.3713 43.3177C64.7525 47.8641 63.5181 52.3992 60.8853 56.1251L59.4894 54.7292C59.2811 56.5417 58.8019 60.9792 58.6873 62.0209L65.979 61.2188L64.1873 59.4271C67.6578 54.8068 69.3414 49.0878 68.9279 43.3241C68.5145 37.5603 66.0318 32.1402 61.9373 28.0626ZM58.7186 64.0209C58.4246 64.0227 58.1336 63.9622 57.8646 63.8435C57.5957 63.7248 57.3549 63.5505 57.1581 63.332C56.9613 63.1136 56.813 62.856 56.7229 62.5762C56.6328 62.2963 56.6029 62.0006 56.6353 61.7084L56.7811 60.3959C53.031 63.2709 48.36 64.6772 43.646 64.3504C38.9321 64.0237 34.4997 61.9864 31.1822 58.6215C27.8647 55.2566 25.8904 50.7959 25.6305 46.0778C25.3705 41.3596 26.8428 36.709 29.7707 33.0001L31.2811 34.5105C31.5936 31.7605 31.229 35.0313 32.0936 27.2188L24.8019 28.0313L26.5311 29.7501C22.8047 34.2987 20.8813 40.0588 21.1269 45.9338C21.3725 51.8088 23.7701 57.3882 27.8631 61.6099C31.9561 65.8316 37.4588 68.4007 43.3233 68.828C49.1879 69.2553 55.0048 67.511 59.6665 63.9271C59.3532 63.9813 59.0364 64.0127 58.7186 64.0209Z" fill="white"></path><path d="M49.1665 38.7502H53.3332L49.1665 34.5835V38.7502Z" fill="white"></path><path d="M47.0833 33.5415H37.7083C37.1558 33.5415 36.6259 33.761 36.2352 34.1517C35.8445 34.5424 35.625 35.0723 35.625 35.6248V54.3748C35.625 54.9274 35.8445 55.4573 36.2352 55.848C36.6259 56.2387 37.1558 56.4582 37.7083 56.4582H52.2917C52.8442 56.4582 53.3741 56.2387 53.7648 55.848C54.1555 55.4573 54.375 54.9274 54.375 54.3748C54.375 39.2186 54.4583 40.8332 54.1875 40.8332H48.125C47.8487 40.8332 47.5838 40.7234 47.3884 40.5281C47.1931 40.3327 47.0833 40.0678 47.0833 39.7915V33.5415ZM46.0417 52.2915H39.7917C39.5154 52.2915 39.2504 52.1818 39.0551 51.9864C38.8597 51.7911 38.75 51.5261 38.75 51.2498C38.75 50.9736 38.8597 50.7086 39.0551 50.5133C39.2504 50.3179 39.5154 50.2082 39.7917 50.2082H46.0417C46.3179 50.2082 46.5829 50.3179 46.7782 50.5133C46.9736 50.7086 47.0833 50.9736 47.0833 51.2498C47.0833 51.5261 46.9736 51.7911 46.7782 51.9864C46.5829 52.1818 46.3179 52.2915 46.0417 52.2915ZM46.0417 48.1248H39.7917C39.5154 48.1248 39.2504 48.0151 39.0551 47.8197C38.8597 47.6244 38.75 47.3594 38.75 47.0832C38.75 46.8069 38.8597 46.542 39.0551 46.3466C39.2504 46.1513 39.5154 46.0415 39.7917 46.0415H46.0417C46.3179 46.0415 46.5829 46.1513 46.7782 46.3466C46.9736 46.542 47.0833 46.8069 47.0833 47.0832C47.0833 47.3594 46.9736 47.6244 46.7782 47.8197C46.5829 48.0151 46.3179 48.1248 46.0417 48.1248ZM46.0417 43.9582H39.7917C39.5154 43.9582 39.2504 43.8484 39.0551 43.6531C38.8597 43.4577 38.75 43.1928 38.75 42.9165C38.75 42.6402 38.8597 42.3753 39.0551 42.1799C39.2504 41.9846 39.5154 41.8748 39.7917 41.8748H46.0417C46.3179 41.8748 46.5829 41.9846 46.7782 42.1799C46.9736 42.3753 47.0833 42.6402 47.0833 42.9165C47.0833 43.1928 46.9736 43.4577 46.7782 43.6531C46.5829 43.8484 46.3179 43.9582 46.0417 43.9582Z" fill="white"></path></svg>