<svg xmlns="http://www.w3.org/2000/svg" width="90" height="90" viewBox="0 0 90 90" fill="none"><rect width="90" height="90" rx="20" fill="#C65BFF"></rect><path fill-rule="evenodd" clip-rule="evenodd" d="M71.2503 46.8455C71.2503 53.1471 65.3598 58.3944 57.966 58.3944C57.356 58.3944 56.7476 58.359 56.1457 58.2867L50.532 61.6103C50.2984 61.748 50.0326 61.8217 49.7613 61.824C49.4901 61.8263 49.2231 61.7572 48.9872 61.6235C48.7513 61.4898 48.5549 61.2964 48.4178 61.0627C48.2807 60.829 48.2077 60.5633 48.2063 60.2924L48.1902 54.6706C45.9257 52.5331 44.6816 49.7399 44.6816 46.8439C44.6816 40.5406 50.5722 35.2949 57.966 35.2949C65.3598 35.2949 71.2503 40.5406 71.2503 46.8455Z" fill="white"></path><path fill-rule="evenodd" clip-rule="evenodd" d="M55.22 60.802V66.4286C55.22 67.7073 54.7113 68.9336 53.8058 69.8378C52.9003 70.742 51.6722 71.25 50.3916 71.25H31.0783C29.7978 71.25 28.5697 70.742 27.6642 69.8378C26.7587 68.9336 26.25 67.7073 26.25 66.4286V31.0714C26.25 29.7927 26.7587 28.5664 27.6642 27.6622C28.5697 26.758 29.7978 26.25 31.0783 26.25H50.3916C51.6722 26.25 52.9003 26.758 53.8058 27.6622C54.7113 28.5664 55.22 29.7927 55.22 31.0714V33.0739C47.8262 34.1829 42.3444 39.9187 42.3444 46.5562C42.3444 49.7898 43.632 52.9237 46.0107 55.402L46.0268 60.6123C46.0276 61.1792 46.1787 61.7358 46.4647 62.2255C46.7508 62.7152 47.1615 63.1206 47.6553 63.4004C48.149 63.6802 48.7081 63.8245 49.2758 63.8187C49.8435 63.8128 50.3995 63.6569 50.8873 63.367L55.22 60.802ZM37.5161 66.4286H43.9539C44.3807 66.4286 44.7901 66.2592 45.0919 65.9579C45.3937 65.6565 45.5633 65.2477 45.5633 64.8214C45.5633 64.3952 45.3937 63.9864 45.0919 63.685C44.7901 63.3836 44.3807 63.2143 43.9539 63.2143H37.5161C37.0892 63.2143 36.6799 63.3836 36.378 63.685C36.0762 63.9864 35.9067 64.3952 35.9067 64.8214C35.9067 65.2477 36.0762 65.6565 36.378 65.9579C36.6799 66.2592 37.0892 66.4286 37.5161 66.4286ZM37.5161 34.4464H43.9539C44.3807 34.4464 44.7901 34.2771 45.0919 33.9757C45.3937 33.6743 45.5633 33.2655 45.5633 32.8393C45.5633 32.413 45.3937 32.0043 45.0919 31.7029C44.7901 31.4015 44.3807 31.2321 43.9539 31.2321H37.5161C37.0892 31.2321 36.6799 31.4015 36.378 31.7029C36.0762 32.0043 35.9067 32.413 35.9067 32.8393C35.9067 33.2655 36.0762 33.6743 36.378 33.9757C36.6799 34.2771 37.0892 34.4464 37.5161 34.4464Z" fill="white"></path></svg>