<svg xmlns="http://www.w3.org/2000/svg" width="385" height="385" viewBox="0 0 385 385" fill="none"><path d="M56.3783 72.9345L311.579 328.136C316.275 332.832 323.897 332.831 328.592 328.136C333.288 323.44 333.288 315.818 328.592 311.123L73.3913 55.9215C68.6954 51.2256 61.0735 51.2263 56.3783 55.9215C51.6831 60.6167 51.6831 68.2393 56.3783 72.9345Z" fill="black"></path><path d="M311.579 55.9232L56.3776 311.124C51.6817 315.82 51.6824 323.442 56.3776 328.137C61.0728 332.833 68.6954 332.833 73.3906 328.137L328.592 72.9362C333.288 68.2403 333.287 60.6184 328.592 55.9232C323.897 51.228 316.275 51.2273 311.579 55.9232Z" fill="black"></path></svg>