<svg xmlns="http://www.w3.org/2000/svg" width="49" height="48" viewBox="0 0 49 48" fill="none"><rect x="1" y="0.5" width="47" height="47" rx="23.5" stroke="#477BFF"></rect><path d="M29.375 33.375H29C28.9005 33.375 28.8052 33.3355 28.7348 33.2652C28.6645 33.1948 28.625 33.0995 28.625 33C28.625 32.9005 28.6645 32.8052 28.7348 32.7348C28.8052 32.6645 28.9005 32.625 29 32.625H29.375C29.4745 32.625 29.5698 32.5855 29.6402 32.5152C29.7105 32.4448 29.75 32.3495 29.75 32.25V28.875C29.75 28.7755 29.7895 28.6802 29.8598 28.6098C29.9302 28.5395 30.0255 28.5 30.125 28.5C30.2245 28.5 30.3198 28.5395 30.3902 28.6098C30.4605 28.6802 30.5 28.7755 30.5 28.875V32.25C30.5 32.5484 30.3815 32.8345 30.1705 33.0455C29.9595 33.2565 29.6734 33.375 29.375 33.375ZM25.25 33.375H16.625C16.3266 33.375 16.0405 33.2565 15.8295 33.0455C15.6185 32.8345 15.5 32.5484 15.5 32.25V13.875C15.5 13.5766 15.6185 13.2905 15.8295 13.0795C16.0405 12.8685 16.3266 12.75 16.625 12.75H29.375C29.6734 12.75 29.9595 12.8685 30.1705 13.0795C30.3815 13.2905 30.5 13.5766 30.5 13.875V16.125C30.5 16.2245 30.4605 16.3198 30.3902 16.3902C30.3198 16.4605 30.2245 16.5 30.125 16.5C30.0255 16.5 29.9302 16.4605 29.8598 16.3902C29.7895 16.3198 29.75 16.2245 29.75 16.125V13.875C29.75 13.7755 29.7105 13.6802 29.6402 13.6098C29.5698 13.5395 29.4745 13.5 29.375 13.5H16.625C16.5255 13.5 16.4302 13.5395 16.3598 13.6098C16.2895 13.6802 16.25 13.7755 16.25 13.875V32.25C16.25 32.3495 16.2895 32.4448 16.3598 32.5152C16.4302 32.5855 16.5255 32.625 16.625 32.625H25.25C25.3495 32.625 25.4448 32.6645 25.5152 32.7348C25.5855 32.8052 25.625 32.9005 25.625 33C25.625 33.0995 25.5855 33.1948 25.5152 33.2652C25.4448 33.3355 25.3495 33.375 25.25 33.375Z" fill="#477BFF"></path><path d="M27.1269 28.5C26.2164 28.4997 25.3179 28.2922 24.4995 27.8931C23.681 27.4941 22.9641 26.914 22.4031 26.1969C21.8421 25.4797 21.4517 24.6443 21.2614 23.7539C21.0711 22.8634 21.086 21.9414 21.3049 21.0576C21.5238 20.1737 21.9409 19.3513 22.5248 18.6526C23.1087 17.9539 23.8439 17.3973 24.6748 17.0249C25.5056 16.6524 26.4104 16.474 27.3204 16.5031C28.2305 16.5321 29.122 16.7679 29.9274 17.1926C29.972 17.2151 30.0116 17.2462 30.0439 17.2842C30.0763 17.3221 30.1008 17.3661 30.1159 17.4137C30.131 17.4612 30.1366 17.5113 30.1321 17.5609C30.1276 17.6106 30.1133 17.6589 30.09 17.703C30.0666 17.7471 30.0347 17.7861 29.9961 17.8176C29.9575 17.8492 29.913 17.8728 29.8652 17.887C29.8174 17.9012 29.7672 17.9057 29.7176 17.9002C29.668 17.8948 29.62 17.8795 29.5764 17.8553C28.496 17.2862 27.2507 17.1123 26.0557 17.3635C24.8607 17.6148 23.7909 18.2755 23.0311 19.2314C22.2713 20.1874 21.8692 21.3787 21.8942 22.5996C21.9192 23.8205 22.3697 24.9944 23.168 25.9185C23.9663 26.8426 25.0622 27.4589 26.2665 27.6611C27.4708 27.8632 28.7079 27.6385 29.7641 27.0257C30.8204 26.4129 31.6295 25.4505 32.0518 24.3047C32.474 23.1589 32.4829 21.9016 32.0769 20.7499C32.047 20.657 32.0546 20.556 32.0979 20.4686C32.1412 20.3811 32.217 20.314 32.309 20.2815C32.401 20.2489 32.5021 20.2536 32.5908 20.2944C32.6794 20.3352 32.7487 20.409 32.7838 20.5001C33.1028 21.4051 33.2003 22.3734 33.0681 23.3238C32.9358 24.2742 32.5776 25.1791 32.0236 25.9626C31.4696 26.746 30.7359 27.3853 29.8839 27.8268C29.0319 28.2683 28.0865 28.4991 27.1269 28.5Z" fill="#477BFF"></path><path d="M23.3749 23.9998C23.3008 23.9998 23.2283 23.9778 23.1666 23.9366C23.105 23.8954 23.0569 23.8368 23.0285 23.7683C23.0002 23.6998 22.9927 23.6244 23.0072 23.5516C23.0217 23.4789 23.0574 23.4121 23.1098 23.3597L26.1098 20.3597C26.1805 20.2914 26.2752 20.2536 26.3736 20.2544C26.4719 20.2553 26.5659 20.2947 26.6355 20.3642C26.705 20.4338 26.7444 20.5278 26.7453 20.6261C26.7462 20.7245 26.7084 20.8192 26.64 20.8899L23.64 23.8899C23.5697 23.9602 23.4744 23.9998 23.3749 23.9998Z" fill="#477BFF"></path><path d="M27.8743 22.4998C27.7749 22.4998 27.6795 22.4602 27.6092 22.3899L26.1092 20.8899C26.0409 20.8192 26.0031 20.7245 26.0039 20.6261C26.0048 20.5278 26.0442 20.4338 26.1137 20.3642C26.1833 20.2947 26.2773 20.2553 26.3756 20.2544C26.474 20.2536 26.5687 20.2914 26.6394 20.3597L28.1394 21.8597C28.1919 21.9121 28.2276 21.9789 28.242 22.0516C28.2565 22.1244 28.2491 22.1998 28.2207 22.2683C28.1923 22.3368 28.1442 22.3954 28.0826 22.4366C28.0209 22.4778 27.9485 22.4998 27.8743 22.4998Z" fill="#477BFF"></path><path d="M27.8749 22.4998C27.8008 22.4998 27.7283 22.4778 27.6666 22.4366C27.605 22.3954 27.5569 22.3368 27.5285 22.2683C27.5002 22.1998 27.4927 22.1244 27.5072 22.0516C27.5217 21.9789 27.5574 21.9121 27.6098 21.8597L32.8598 16.6097C32.9305 16.5414 33.0252 16.5036 33.1236 16.5044C33.2219 16.5053 33.3159 16.5447 33.3855 16.6142C33.455 16.6838 33.4944 16.7778 33.4953 16.8761C33.4962 16.9745 33.4584 17.0692 33.39 17.1399L28.14 22.3899C28.0697 22.4602 27.9744 22.4998 27.8749 22.4998Z" fill="#477BFF"></path><path d="M33.125 19.125C33.0255 19.125 32.9302 19.0855 32.8598 19.0152C32.7895 18.9448 32.75 18.8495 32.75 18.75V16.875C32.75 16.7755 32.7895 16.6802 32.8598 16.6098C32.9302 16.5395 33.0255 16.5 33.125 16.5C33.2245 16.5 33.3198 16.5395 33.3902 16.6098C33.4605 16.6802 33.5 16.7755 33.5 16.875V18.75C33.5 18.8495 33.4605 18.9448 33.3902 19.0152C33.3198 19.0855 33.2245 19.125 33.125 19.125Z" fill="#477BFF"></path><path d="M33.125 17.25H31.25C31.1505 17.25 31.0552 17.2105 30.9848 17.1402C30.9145 17.0698 30.875 16.9745 30.875 16.875C30.875 16.7755 30.9145 16.6802 30.9848 16.6098C31.0552 16.5395 31.1505 16.5 31.25 16.5H33.125C33.2245 16.5 33.3198 16.5395 33.3902 16.6098C33.4605 16.6802 33.5 16.7755 33.5 16.875C33.5 16.9745 33.4605 17.0698 33.3902 17.1402C33.3198 17.2105 33.2245 17.25 33.125 17.25ZM24.125 25.875C24.0255 25.875 23.9302 25.8355 23.8598 25.7652C23.7895 25.6948 23.75 25.5995 23.75 25.5V24.375C23.75 24.2755 23.7895 24.1802 23.8598 24.1098C23.9302 24.0395 24.0255 24 24.125 24C24.2245 24 24.3198 24.0395 24.3902 24.1098C24.4605 24.1802 24.5 24.2755 24.5 24.375V25.5C24.5 25.5995 24.4605 25.6948 24.3902 25.7652C24.3198 25.8355 24.2245 25.875 24.125 25.875ZM25.625 25.875C25.5255 25.875 25.4302 25.8355 25.3598 25.7652C25.2895 25.6948 25.25 25.5995 25.25 25.5V22.875C25.25 22.7755 25.2895 22.6802 25.3598 22.6098C25.4302 22.5395 25.5255 22.5 25.625 22.5C25.7245 22.5 25.8198 22.5395 25.8902 22.6098C25.9605 22.6802 26 22.7755 26 22.875V25.5C26 25.5995 25.9605 25.6948 25.8902 25.7652C25.8198 25.8355 25.7245 25.875 25.625 25.875ZM27.125 25.875C27.0255 25.875 26.9302 25.8355 26.8598 25.7652C26.7895 25.6948 26.75 25.5995 26.75 25.5V23.25C26.75 23.1505 26.7895 23.0552 26.8598 22.9848C26.9302 22.9145 27.0255 22.875 27.125 22.875C27.2245 22.875 27.3198 22.9145 27.3902 22.9848C27.4605 23.0552 27.5 23.1505 27.5 23.25V25.5C27.5 25.5995 27.4605 25.6948 27.3902 25.7652C27.3198 25.8355 27.2245 25.875 27.125 25.875ZM28.625 25.875C28.5255 25.875 28.4302 25.8355 28.3598 25.7652C28.2895 25.6948 28.25 25.5995 28.25 25.5V23.625C28.25 23.5255 28.2895 23.4302 28.3598 23.3598C28.4302 23.2895 28.5255 23.25 28.625 23.25C28.7245 23.25 28.8198 23.2895 28.8902 23.3598C28.9605 23.4302 29 23.5255 29 23.625V25.5C29 25.5995 28.9605 25.6948 28.8902 25.7652C28.8198 25.8355 28.7245 25.875 28.625 25.875ZM27.125 31.5C27.0255 31.5 26.9302 31.4605 26.8598 31.3902C26.7895 31.3198 26.75 31.2245 26.75 31.125V28.125C26.75 28.0255 26.7895 27.9302 26.8598 27.8598C26.9302 27.7895 27.0255 27.75 27.125 27.75C27.2245 27.75 27.3198 27.7895 27.3902 27.8598C27.4605 27.9302 27.5 28.0255 27.5 28.125V31.125C27.5 31.2245 27.4605 31.3198 27.3902 31.3902C27.3198 31.4605 27.2245 31.5 27.125 31.5Z" fill="#477BFF"></path><path d="M27.875 35.25H26.375C26.2755 35.25 26.1802 35.2105 26.1098 35.1402C26.0395 35.0698 26 34.9745 26 34.875V31.125C26 31.0255 26.0395 30.9302 26.1098 30.8598C26.1802 30.7895 26.2755 30.75 26.375 30.75H27.875C27.9745 30.75 28.0698 30.7895 28.1402 30.8598C28.2105 30.9302 28.25 31.0255 28.25 31.125V34.875C28.25 34.9745 28.2105 35.0698 28.1402 35.1402C28.0698 35.2105 27.9745 35.25 27.875 35.25ZM26.75 34.5H27.5V31.5H26.75V34.5ZM18.875 17.25C18.6525 17.25 18.435 17.184 18.25 17.0604C18.065 16.9368 17.9208 16.7611 17.8356 16.5555C17.7505 16.35 17.7282 16.1238 17.7716 15.9055C17.815 15.6873 17.9222 15.4868 18.0795 15.3295C18.2368 15.1722 18.4373 15.065 18.6555 15.0216C18.8738 14.9782 19.1 15.0005 19.3055 15.0856C19.5111 15.1708 19.6868 15.315 19.8104 15.5C19.934 15.685 20 15.9025 20 16.125C20 16.2245 19.9605 16.3198 19.8902 16.3902C19.8198 16.4605 19.7245 16.5 19.625 16.5C19.5255 16.5 19.4302 16.4605 19.3598 16.3902C19.2895 16.3198 19.25 16.2245 19.25 16.125C19.25 16.0508 19.228 15.9783 19.1868 15.9167C19.1456 15.855 19.087 15.8069 19.0185 15.7785C18.95 15.7502 18.8746 15.7427 18.8018 15.7572C18.7291 15.7717 18.6623 15.8074 18.6098 15.8598C18.5574 15.9123 18.5217 15.9791 18.5072 16.0518C18.4927 16.1246 18.5002 16.2 18.5285 16.2685C18.5569 16.337 18.605 16.3956 18.6667 16.4368C18.7283 16.478 18.8008 16.5 18.875 16.5C18.9745 16.5 19.0698 16.5395 19.1402 16.6098C19.2105 16.6802 19.25 16.7755 19.25 16.875C19.25 16.9745 19.2105 17.0698 19.1402 17.1402C19.0698 17.2105 18.9745 17.25 18.875 17.25Z" fill="#477BFF"></path><path d="M18.875 18.75C18.5766 18.75 18.2905 18.6315 18.0795 18.4205C17.8685 18.2095 17.75 17.9234 17.75 17.625C17.75 17.5255 17.7895 17.4302 17.8598 17.3598C17.9302 17.2895 18.0255 17.25 18.125 17.25C18.2245 17.25 18.3198 17.2895 18.3902 17.3598C18.4605 17.4302 18.5 17.5255 18.5 17.625C18.5 17.6992 18.522 17.7717 18.5632 17.8333C18.6044 17.895 18.663 17.9431 18.7315 17.9715C18.8 17.9998 18.8754 18.0073 18.9482 17.9928C19.0209 17.9783 19.0877 17.9426 19.1402 17.8902C19.1926 17.8377 19.2283 17.7709 19.2428 17.6982C19.2573 17.6254 19.2498 17.55 19.2215 17.4815C19.1931 17.413 19.145 17.3544 19.0833 17.3132C19.0217 17.272 18.9492 17.25 18.875 17.25C18.7755 17.25 18.6802 17.2105 18.6098 17.1402C18.5395 17.0698 18.5 16.9745 18.5 16.875C18.5 16.7755 18.5395 16.6802 18.6098 16.6098C18.6802 16.5395 18.7755 16.5 18.875 16.5C19.1734 16.5 19.4595 16.6185 19.6705 16.8295C19.8815 17.0405 20 17.3266 20 17.625C20 17.9234 19.8815 18.2095 19.6705 18.4205C19.4595 18.6315 19.1734 18.75 18.875 18.75ZM18.875 15.75C18.7755 15.75 18.6802 15.7105 18.6098 15.6402C18.5395 15.5698 18.5 15.4745 18.5 15.375V15C18.5 14.9005 18.5395 14.8052 18.6098 14.7348C18.6802 14.6645 18.7755 14.625 18.875 14.625C18.9745 14.625 19.0698 14.6645 19.1402 14.7348C19.2105 14.8052 19.25 14.9005 19.25 15V15.375C19.25 15.4745 19.2105 15.5698 19.1402 15.6402C19.0698 15.7105 18.9745 15.75 18.875 15.75Z" fill="#477BFF"></path><path d="M18.875 19.125C18.7755 19.125 18.6802 19.0855 18.6098 19.0152C18.5395 18.9448 18.5 18.8495 18.5 18.75V18.375C18.5 18.2755 18.5395 18.1802 18.6098 18.1098C18.6802 18.0395 18.7755 18 18.875 18C18.9745 18 19.0698 18.0395 19.1402 18.1098C19.2105 18.1802 19.25 18.2755 19.25 18.375V18.75C19.25 18.8495 19.2105 18.9448 19.1402 19.0152C19.0698 19.0855 18.9745 19.125 18.875 19.125ZM24.125 16.5H21.5C21.4005 16.5 21.3052 16.4605 21.2348 16.3902C21.1645 16.3198 21.125 16.2245 21.125 16.125C21.125 16.0255 21.1645 15.9302 21.2348 15.8598C21.3052 15.7895 21.4005 15.75 21.5 15.75H24.125C24.2245 15.75 24.3198 15.7895 24.3902 15.8598C24.4605 15.9302 24.5 16.0255 24.5 16.125C24.5 16.2245 24.4605 16.3198 24.3902 16.3902C24.3198 16.4605 24.2245 16.5 24.125 16.5ZM20 21.75H17.75C17.6505 21.75 17.5552 21.7105 17.4848 21.6402C17.4145 21.5698 17.375 21.4745 17.375 21.375C17.375 21.2755 17.4145 21.1802 17.4848 21.1098C17.5552 21.0395 17.6505 21 17.75 21H20C20.0995 21 20.1948 21.0395 20.2652 21.1098C20.3355 21.1802 20.375 21.2755 20.375 21.375C20.375 21.4745 20.3355 21.5698 20.2652 21.6402C20.1948 21.7105 20.0995 21.75 20 21.75ZM20 24.375H17.75C17.6505 24.375 17.5552 24.3355 17.4848 24.2652C17.4145 24.1948 17.375 24.0995 17.375 24C17.375 23.9005 17.4145 23.8052 17.4848 23.7348C17.5552 23.6645 17.6505 23.625 17.75 23.625H20C20.0995 23.625 20.1948 23.6645 20.2652 23.7348C20.3355 23.8052 20.375 23.9005 20.375 24C20.375 24.0995 20.3355 24.1948 20.2652 24.2652C20.1948 24.3355 20.0995 24.375 20 24.375ZM21.5 27H17.75C17.6505 27 17.5552 26.9605 17.4848 26.8902C17.4145 26.8198 17.375 26.7245 17.375 26.625C17.375 26.5255 17.4145 26.4302 17.4848 26.3598C17.5552 26.2895 17.6505 26.25 17.75 26.25H21.5C21.5995 26.25 21.6948 26.2895 21.7652 26.3598C21.8355 26.4302 21.875 26.5255 21.875 26.625C21.875 26.7245 21.8355 26.8198 21.7652 26.8902C21.6948 26.9605 21.5995 27 21.5 27ZM25.25 29.625H17.75C17.6505 29.625 17.5552 29.5855 17.4848 29.5152C17.4145 29.4448 17.375 29.3495 17.375 29.25C17.375 29.1505 17.4145 29.0552 17.4848 28.9848C17.5552 28.9145 17.6505 28.875 17.75 28.875H25.25C25.3495 28.875 25.4448 28.9145 25.5152 28.9848C25.5855 29.0552 25.625 29.1505 25.625 29.25C25.625 29.3495 25.5855 29.4448 25.5152 29.5152C25.4448 29.5855 25.3495 29.625 25.25 29.625ZM30.125 25.875C30.0255 25.875 29.9302 25.8355 29.8598 25.7652C29.7895 25.6948 29.75 25.5995 29.75 25.5V21.375C29.75 21.2755 29.7895 21.1802 29.8598 21.1098C29.9302 21.0395 30.0255 21 30.125 21C30.2245 21 30.3198 21.0395 30.3902 21.1098C30.4605 21.1802 30.5 21.2755 30.5 21.375V25.5C30.5 25.5995 30.4605 25.6948 30.3902 25.7652C30.3198 25.8355 30.2245 25.875 30.125 25.875Z" fill="#477BFF"></path></svg>