<svg xmlns="http://www.w3.org/2000/svg" width="48" height="48" viewBox="0 0 48 48" fill="none"><rect x="0.5" y="0.5" width="47" height="47" rx="23.5" stroke="#477BFF"></rect><path d="M31.4991 21.25H29.7491V18C29.8078 17.4934 29.7512 16.98 29.5835 16.4983C29.4158 16.0166 29.1414 15.5791 28.7807 15.2184C28.42 14.8577 27.9825 14.5833 27.5008 14.4156C27.0191 14.2479 26.5057 14.1913 25.9991 14.25H17.9991C17.4924 14.1913 16.979 14.2479 16.4973 14.4156C16.0156 14.5833 15.5781 14.8577 15.2174 15.2184C14.8568 15.5791 14.5823 16.0166 14.4146 16.4983C14.2469 16.98 14.1903 17.4934 14.2491 18V30C14.1903 30.5067 14.2469 31.0201 14.4146 31.5018C14.5823 31.9835 14.8568 32.421 15.2174 32.7817C15.5781 33.1423 16.0156 33.4168 16.4973 33.5845C16.979 33.7522 17.4924 33.8088 17.9991 33.75H30.9991C31.7282 33.7495 32.4274 33.4596 32.943 32.944C33.4586 32.4284 33.7485 31.7292 33.7491 31V23.5C33.7483 22.9035 33.511 22.3317 33.0892 21.9099C32.6674 21.4881 32.0956 21.2508 31.4991 21.25ZM17.9991 32.25C16.4221 32.25 15.7491 31.577 15.7491 30V18C15.7491 16.423 16.4221 15.75 17.9991 15.75H25.9991C27.5761 15.75 28.2491 16.423 28.2491 18V31C28.2479 31.4347 28.3507 31.8633 28.5491 32.25H17.9991ZM32.2491 31C32.2491 31.3316 32.1174 31.6495 31.8829 31.8839C31.6485 32.1183 31.3306 32.25 30.9991 32.25C30.6675 32.25 30.3496 32.1183 30.1152 31.8839C29.8808 31.6495 29.7491 31.3316 29.7491 31V22.75H31.4991C31.6979 22.7503 31.8885 22.8294 32.0291 22.97C32.1697 23.1106 32.2488 23.3012 32.2491 23.5V31ZM26.2491 20C26.2491 20.1989 26.17 20.3897 26.0294 20.5304C25.8887 20.671 25.698 20.75 25.4991 20.75H20.9991C20.8001 20.75 20.6094 20.671 20.4687 20.5304C20.3281 20.3897 20.2491 20.1989 20.2491 20C20.2491 19.8011 20.3281 19.6104 20.4687 19.4697C20.6094 19.3291 20.8001 19.25 20.9991 19.25H25.4991C25.698 19.25 25.8887 19.3291 26.0294 19.4697C26.17 19.6104 26.2491 19.8011 26.2491 20ZM26.2491 24C26.2491 24.1989 26.17 24.3897 26.0294 24.5304C25.8887 24.671 25.698 24.75 25.4991 24.75H20.9991C20.8001 24.75 20.6094 24.671 20.4687 24.5304C20.3281 24.3897 20.2491 24.1989 20.2491 24C20.2491 23.8011 20.3281 23.6104 20.4687 23.4697C20.6094 23.3291 20.8001 23.25 20.9991 23.25H25.4991C25.698 23.25 25.8887 23.3291 26.0294 23.4697C26.17 23.6104 26.2491 23.8011 26.2491 24ZM26.2491 28C26.2491 28.1989 26.17 28.3897 26.0294 28.5304C25.8887 28.671 25.698 28.75 25.4991 28.75H20.9991C20.8001 28.75 20.6094 28.671 20.4687 28.5304C20.3281 28.3897 20.2491 28.1989 20.2491 28C20.2491 27.8011 20.3281 27.6104 20.4687 27.4697C20.6094 27.3291 20.8001 27.25 20.9991 27.25H25.4991C25.698 27.25 25.8887 27.3291 26.0294 27.4697C26.17 27.6104 26.2491 27.8011 26.2491 28ZM19.2491 20C19.2491 20.1484 19.2051 20.2934 19.1227 20.4167C19.0403 20.5401 18.9231 20.6362 18.7861 20.6929C18.649 20.7497 18.4982 20.7646 18.3527 20.7356C18.2073 20.7067 18.0736 20.6353 17.9687 20.5304C17.8638 20.4255 17.7924 20.2918 17.7635 20.1464C17.7345 20.0009 17.7494 19.8501 17.8062 19.713C17.8629 19.576 17.959 19.4588 18.0824 19.3764C18.2057 19.294 18.3507 19.25 18.4991 19.25C18.698 19.25 18.8887 19.3291 19.0294 19.4697C19.17 19.6104 19.2491 19.8011 19.2491 20ZM19.2491 24C19.2491 24.1484 19.2051 24.2934 19.1227 24.4167C19.0403 24.5401 18.9231 24.6362 18.7861 24.6929C18.649 24.7497 18.4982 24.7646 18.3527 24.7356C18.2073 24.7067 18.0736 24.6353 17.9687 24.5304C17.8638 24.4255 17.7924 24.2918 17.7635 24.1464C17.7345 24.0009 17.7494 23.8501 17.8062 23.713C17.8629 23.576 17.959 23.4588 18.0824 23.3764C18.2057 23.294 18.3507 23.25 18.4991 23.25C18.698 23.25 18.8887 23.3291 19.0294 23.4697C19.17 23.6104 19.2491 23.8011 19.2491 24ZM19.2491 28C19.2491 28.1484 19.2051 28.2934 19.1227 28.4167C19.0403 28.5401 18.9231 28.6362 18.7861 28.6929C18.649 28.7497 18.4982 28.7646 18.3527 28.7356C18.2073 28.7067 18.0736 28.6353 17.9687 28.5304C17.8638 28.4255 17.7924 28.2918 17.7635 28.1464C17.7345 28.0009 17.7494 27.8501 17.8062 27.713C17.8629 27.576 17.959 27.4588 18.0824 27.3764C18.2057 27.294 18.3507 27.25 18.4991 27.25C18.698 27.25 18.8887 27.3291 19.0294 27.4697C19.17 27.6104 19.2491 27.8011 19.2491 28Z" fill="#477BFF"></path></svg>