<svg xmlns="http://www.w3.org/2000/svg" width="49" height="48" viewBox="0 0 49 48" fill="none"><rect x="1" y="0.5" width="47" height="47" rx="23.5" stroke="#477BFF"></rect><path d="M34.25 12.75H19.25C19.1505 12.75 19.0552 12.7895 18.9848 12.8598C18.9145 12.9302 18.875 13.0255 18.875 13.125V15H17C16.9005 15 16.8052 15.0395 16.7348 15.1098C16.6645 15.1802 16.625 15.2755 16.625 15.375V34.875C16.625 34.9745 16.6645 35.0698 16.7348 35.1402C16.8052 35.2105 16.9005 35.25 17 35.25H32C32.0995 35.25 32.1948 35.2105 32.2652 35.1402C32.3355 35.0698 32.375 34.9745 32.375 34.875V33H34.25C34.3495 33 34.4448 32.9605 34.5152 32.8902C34.5855 32.8198 34.625 32.7245 34.625 32.625V13.125C34.625 13.0255 34.5855 12.9302 34.5152 12.8598C34.4448 12.7895 34.3495 12.75 34.25 12.75ZM31.625 34.5H17.375V15.75H28.625V18.375C28.625 18.4745 28.6645 18.5698 28.7348 18.6402C28.8052 18.7105 28.9005 18.75 29 18.75H31.625V34.5ZM29.375 18V16.2802L31.0947 18H29.375ZM33.875 32.25H32.375V18.375C32.375 18.2756 32.3355 18.1802 32.2651 18.1099L29.2651 15.1099C29.1948 15.0395 29.0994 15 29 15H19.625V13.5H33.875V32.25Z" fill="#477BFF"></path><path d="M26.375 20.6588V17.625C26.375 17.5255 26.3355 17.4302 26.2652 17.3598C26.1948 17.2895 26.0995 17.25 26 17.25H20C19.9005 17.25 19.8052 17.2895 19.7348 17.3598C19.6645 17.4302 19.625 17.5255 19.625 17.625V22.875C19.625 22.9745 19.6645 23.0698 19.7348 23.1402C19.8052 23.2105 19.9005 23.25 20 23.25H23.7838C23.8521 23.6575 24.0314 24.0383 24.3019 24.3507C24.5724 24.663 24.9237 24.8949 25.3172 25.0208C25.7108 25.1467 26.1314 25.1617 26.533 25.0644C26.9346 24.967 27.3016 24.7609 27.5937 24.4687C27.8859 24.1766 28.092 23.8096 28.1894 23.408C28.2867 23.0064 28.2717 22.5858 28.1458 22.1922C28.0199 21.7987 27.788 21.4474 27.4757 21.1769C27.1633 20.9064 26.7825 20.7271 26.375 20.6588ZM23.375 18V19.2682L23.1676 19.1644C23.1156 19.1384 23.0582 19.1248 23 19.1248C22.9418 19.1248 22.8844 19.1384 22.8324 19.1644L22.625 19.2682V18H23.375ZM23.7838 22.5H20.375V18H21.875V19.875C21.875 19.9389 21.8913 20.0018 21.9224 20.0577C21.9535 20.1135 21.9984 20.1605 22.0527 20.1941C22.1071 20.2277 22.1692 20.2469 22.233 20.2498C22.2969 20.2527 22.3604 20.2392 22.4176 20.2106L23 19.9193L23.5824 20.2106C23.6396 20.2392 23.7031 20.2527 23.767 20.2498C23.8308 20.2469 23.8929 20.2277 23.9473 20.1941C24.0016 20.1605 24.0465 20.1135 24.0776 20.0577C24.1087 20.0018 24.125 19.9389 24.125 19.875V18H25.625V20.6588C25.1653 20.7373 24.7412 20.9566 24.4114 21.2864C24.0816 21.6162 23.8623 22.0403 23.7838 22.5ZM26 24.375C25.7033 24.375 25.4133 24.287 25.1666 24.1222C24.92 23.9574 24.7277 23.7231 24.6142 23.449C24.5006 23.1749 24.4709 22.8733 24.5288 22.5824C24.5867 22.2914 24.7296 22.0241 24.9393 21.8143C25.1491 21.6046 25.4164 21.4617 25.7074 21.4038C25.9983 21.3459 26.2999 21.3756 26.574 21.4892C26.8481 21.6027 27.0824 21.795 27.2472 22.0416C27.412 22.2883 27.5 22.5783 27.5 22.875C27.5 23.2728 27.342 23.6544 27.0607 23.9357C26.7794 24.217 26.3978 24.375 26 24.375Z" fill="#477BFF"></path><path d="M26.4849 22.2347L25.625 23.0945L25.3599 22.8294C25.3253 22.7936 25.2839 22.765 25.2382 22.7454C25.1924 22.7257 25.1432 22.7154 25.0934 22.7149C25.0436 22.7145 24.9942 22.724 24.9481 22.7429C24.9021 22.7617 24.8602 22.7896 24.825 22.8248C24.7898 22.86 24.7619 22.9018 24.7431 22.9479C24.7242 22.994 24.7147 23.0434 24.7152 23.0932C24.7156 23.143 24.7259 23.1922 24.7456 23.2379C24.7652 23.2837 24.7938 23.3251 24.8296 23.3597L25.3599 23.8899C25.4302 23.9602 25.5256 23.9997 25.625 23.9997C25.7244 23.9997 25.8198 23.9602 25.8901 23.8899L27.0151 22.7649C27.0834 22.6942 27.1212 22.5995 27.1204 22.5011C27.1195 22.4028 27.0801 22.3088 27.0106 22.2392C26.941 22.1697 26.847 22.1303 26.7487 22.1294C26.6503 22.1286 26.5556 22.1664 26.4849 22.2347ZM20 27.7498H19.25C19.1505 27.7498 19.0552 27.7103 18.9848 27.64C18.9145 27.5696 18.875 27.4742 18.875 27.3748C18.875 27.2753 18.9145 27.1799 18.9848 27.1096C19.0552 27.0393 19.1505 26.9998 19.25 26.9998H20C20.0995 26.9998 20.1948 27.0393 20.2652 27.1096C20.3355 27.1799 20.375 27.2753 20.375 27.3748C20.375 27.4742 20.3355 27.5696 20.2652 27.64C20.1948 27.7103 20.0995 27.7498 20 27.7498ZM29.75 27.7498H21.5C21.4005 27.7498 21.3052 27.7103 21.2348 27.64C21.1645 27.5696 21.125 27.4742 21.125 27.3748C21.125 27.2753 21.1645 27.1799 21.2348 27.1096C21.3052 27.0393 21.4005 26.9998 21.5 26.9998H29.75C29.8495 26.9998 29.9448 27.0393 30.0152 27.1096C30.0855 27.1799 30.125 27.2753 30.125 27.3748C30.125 27.4742 30.0855 27.5696 30.0152 27.64C29.9448 27.7103 29.8495 27.7498 29.75 27.7498ZM29.75 29.2498H19.25C19.1505 29.2498 19.0552 29.2103 18.9848 29.14C18.9145 29.0696 18.875 28.9742 18.875 28.8748C18.875 28.7753 18.9145 28.6799 18.9848 28.6096C19.0552 28.5393 19.1505 28.4998 19.25 28.4998H29.75C29.8495 28.4998 29.9448 28.5393 30.0152 28.6096C30.0855 28.6799 30.125 28.7753 30.125 28.8748C30.125 28.9742 30.0855 29.0696 30.0152 29.14C29.9448 29.2103 29.8495 29.2498 29.75 29.2498ZM29.75 30.7498H19.25C19.1505 30.7498 19.0552 30.7103 18.9848 30.64C18.9145 30.5696 18.875 30.4742 18.875 30.3748C18.875 30.2753 18.9145 30.1799 18.9848 30.1096C19.0552 30.0393 19.1505 29.9998 19.25 29.9998H29.75C29.8495 29.9998 29.9448 30.0393 30.0152 30.1096C30.0855 30.1799 30.125 30.2753 30.125 30.3748C30.125 30.4742 30.0855 30.5696 30.0152 30.64C29.9448 30.7103 29.8495 30.7498 29.75 30.7498ZM29.75 32.2498H29C28.9005 32.2498 28.8052 32.2103 28.7348 32.14C28.6645 32.0696 28.625 31.9742 28.625 31.8748C28.625 31.7753 28.6645 31.6799 28.7348 31.6096C28.8052 31.5393 28.9005 31.4998 29 31.4998H29.75C29.8495 31.4998 29.9448 31.5393 30.0152 31.6096C30.0855 31.6799 30.125 31.7753 30.125 31.8748C30.125 31.9742 30.0855 32.0696 30.0152 32.14C29.9448 32.2103 29.8495 32.2498 29.75 32.2498ZM27.5 32.2498H19.25C19.1505 32.2498 19.0552 32.2103 18.9848 32.14C18.9145 32.0696 18.875 31.9742 18.875 31.8748C18.875 31.7753 18.9145 31.6799 18.9848 31.6096C19.0552 31.5393 19.1505 31.4998 19.25 31.4998H27.5C27.5995 31.4998 27.6948 31.5393 27.7652 31.6096C27.8355 31.6799 27.875 31.7753 27.875 31.8748C27.875 31.9742 27.8355 32.0696 27.7652 32.14C27.6948 32.2103 27.5995 32.2498 27.5 32.2498Z" fill="#477BFF"></path></svg>