<svg xmlns="http://www.w3.org/2000/svg" width="49" height="48" viewBox="0 0 49 48" fill="none"><rect x="1" y="0.5" width="47" height="47" rx="23.5" stroke="#477BFF"></rect><path d="M33.6211 31.4878V32.9278M34.8211 31.4878V32.9278" stroke="#477BFF" stroke-width="0.5" stroke-miterlimit="10" stroke-linecap="round" stroke-linejoin="round"></path><path d="M28.195 29.1839V15.5039C28.195 14.9759 27.763 14.5439 27.235 14.5439H16.003C15.475 14.5439 15.043 14.9759 15.043 15.5039V31.5359C15.043 32.0639 15.475 32.4959 16.003 32.4959H25.267" stroke="#477BFF" stroke-width="0.5" stroke-miterlimit="10" stroke-linecap="round" stroke-linejoin="round"></path><path d="M15.0444 30.7679H14.2764C13.7484 30.7679 13.3164 30.3359 13.3164 29.8079V13.7759C13.3164 13.2479 13.7484 12.8159 14.2764 12.8159H25.5564C26.0844 12.8159 26.5164 13.2479 26.5164 13.7759V14.5439" stroke="#477BFF" stroke-width="0.5" stroke-miterlimit="10" stroke-linecap="round" stroke-linejoin="round"></path><path d="M32.8047 18.5278C34.3687 18.5278 35.6367 17.2598 35.6367 15.6958C35.6367 14.1317 34.3687 12.8638 32.8047 12.8638C31.2406 12.8638 29.9727 14.1317 29.9727 15.6958C29.9727 17.2598 31.2406 18.5278 32.8047 18.5278Z" stroke="#477BFF" stroke-width="0.5" stroke-miterlimit="10" stroke-linecap="round" stroke-linejoin="round"></path><path d="M32.8055 12.8159V13.4879M32.8055 17.8559V18.5279M35.6855 15.6959H35.0135M30.6455 15.6959H29.9735M32.8055 15.0719V15.6959L33.9095 16.3679M28.1975 35.1359C26.5655 35.1359 25.2695 33.7919 25.2695 32.2079C25.2695 30.5759 26.6135 29.2799 28.1975 29.2799C29.8295 29.2799 31.1255 30.6239 31.1255 32.2079C31.1735 33.8399 29.8295 35.1359 28.1975 35.1359Z" stroke="#477BFF" stroke-width="0.5" stroke-miterlimit="10" stroke-linecap="round" stroke-linejoin="round"></path><path d="M28.1962 33.7439C29.0445 33.7439 29.7322 33.0562 29.7322 32.2079C29.7322 31.3596 29.0445 30.6719 28.1962 30.6719C27.3478 30.6719 26.6602 31.3596 26.6602 32.2079C26.6602 33.0562 27.3478 33.7439 28.1962 33.7439Z" stroke="#477BFF" stroke-width="0.5" stroke-miterlimit="10" stroke-linecap="round" stroke-linejoin="round"></path><path d="M23.35 30.6717H23.734M16.918 30.6717H21.862M19.174 28.8957H24.934M16.918 28.8957H17.83M25.99 27.1197H26.326M20.566 27.1197H24.406M16.918 27.1197H19.126M24.406 25.2957H26.326M16.918 25.2957H23.014M23.782 23.5197H26.326M18.55 23.5197H22.342M25.606 21.7437H26.326M21.382 21.7437H23.974M16.918 21.7437H20.086M26.278 19.9197H26.326M22.39 19.9197H24.646M16.918 19.9197H20.902M24.55 18.1437H26.326M19.942 18.1437H23.206M16.918 18.1437H18.262M20.902 16.3677H26.326M16.918 16.3677H19.462M28.198 32.2077H35.686" stroke="#477BFF" stroke-width="0.5" stroke-miterlimit="10" stroke-linecap="round" stroke-linejoin="round"></path><path d="M31.6523 21.696H33.9563M31.6523 21.696V26.976M31.6523 21.696V20.976C31.6523 20.304 32.1803 19.728 32.8043 19.728C33.4283 19.728 33.9563 20.304 33.9563 20.976V21.696M33.9563 21.696V26.976M33.9563 26.976H31.6523M33.9563 26.976L32.8043 29.28L31.6523 26.976" stroke="#477BFF" stroke-width="0.5" stroke-miterlimit="10" stroke-linecap="round" stroke-linejoin="round"></path><path d="M32.8047 26.9758V21.6958" stroke="#477BFF" stroke-width="0.5" stroke-miterlimit="10" stroke-linecap="round" stroke-linejoin="round"></path></svg>