<svg xmlns="http://www.w3.org/2000/svg" width="49" height="48" viewBox="0 0 49 48" fill="none"><rect x="1" y="0.5" width="47" height="47" rx="23.5" stroke="#477BFF"></rect><path d="M32.0672 25.8721H32.7474C33.1913 25.8721 33.5513 26.2321 33.5513 26.676V34.8387C33.5513 35.2859 33.189 35.6483 32.7418 35.6483H16.2587C15.8116 35.6483 15.4492 35.2859 15.4492 34.8387V26.676C15.4492 26.2321 15.8092 25.8721 16.2531 25.8721H16.9333" stroke="#477BFF" stroke-width="0.7" stroke-miterlimit="10" stroke-linecap="round" stroke-linejoin="round"></path><path d="M25.1899 32.2095H17.7431C17.296 32.2095 16.9336 31.8471 16.9336 31.4V25.1687C16.9336 23.426 18.3464 22.0132 20.0892 22.0132H28.9122C30.655 22.0132 32.0678 23.426 32.0678 25.1687V31.4C32.0678 31.8471 31.7054 32.2095 31.2583 32.2095H26.8352" stroke="#477BFF" stroke-width="0.7" stroke-miterlimit="10" stroke-linecap="round" stroke-linejoin="round"></path><path d="M20.1684 32.2093V30.2889C20.1684 29.836 20.5356 29.4688 20.9885 29.4688H28.0143C28.4672 29.4688 28.8344 29.836 28.8344 30.2889V32.2093M22.8737 27.4214H26.1291M19.4492 15.5393V12.9784C19.4492 12.647 19.7956 12.43 20.0937 12.5748L21.4737 13.2442C21.6087 13.3096 21.7566 13.3443 21.9066 13.3459C22.0566 13.3474 22.2051 13.3157 22.3414 13.2531L24.1231 12.4356C24.2419 12.381 24.3711 12.3523 24.5019 12.3516C24.6327 12.3508 24.7621 12.3781 24.8815 12.4314L26.7331 13.2573C27.011 13.3815 27.3298 13.3745 27.6021 13.2381L28.9038 12.587C29.2024 12.4375 29.5535 12.6545 29.5535 12.9883V22.0782M19.4492 22.0782V17.1862M23.6175 14.9513H25.3853M26.938 16.3631H27.981M26.938 17.775H27.981M26.938 19.1869H27.981M26.938 20.5988H27.981M21.0218 16.3631H25.3853M21.0218 17.775H25.3853M21.0218 19.1869H25.3853M21.0218 20.5988H25.3853" stroke="#477BFF" stroke-width="0.7" stroke-miterlimit="10" stroke-linecap="round" stroke-linejoin="round"></path></svg>