<svg xmlns="http://www.w3.org/2000/svg" width="48" height="48" viewBox="0 0 48 48" fill="none"><rect x="0.5" y="0.5" width="47" height="47" rx="23.5" stroke="#477BFF"></rect><g clip-path="url(#clip0_1442_1261)"><path fill-rule="evenodd" clip-rule="evenodd" d="M33.0637 18.1502C33.1642 18.1836 33.2739 18.1757 33.3686 18.1283C33.4633 18.0808 33.5353 17.9977 33.5688 17.8972L34.1014 16.2988C34.1236 16.2322 34.1278 16.1609 34.1136 16.0921C34.0995 16.0233 34.0675 15.9595 34.0209 15.907C33.9743 15.8544 33.9147 15.8151 33.848 15.7929C33.7814 15.7708 33.7101 15.7665 33.6413 15.7806C33.5726 15.7947 33.5087 15.8267 33.4562 15.8733C33.4037 15.92 33.3643 15.9796 33.3422 16.0462L32.8095 17.6446C32.7929 17.6945 32.7863 17.7472 32.7901 17.7996C32.7939 17.852 32.808 17.9032 32.8316 17.9502C32.8553 17.9971 32.8879 18.039 32.9277 18.0733C32.9675 18.1076 33.0137 18.1338 33.0637 18.1502Z" fill="#477BFF"></path><path d="M34.8661 18.7829L35.9083 15.614C35.9821 15.3875 35.9847 15.1437 35.9157 14.9156C35.8466 14.6876 35.7094 14.4861 35.5223 14.3385L35.7801 13.5557C35.8318 13.4094 35.8539 13.2543 35.845 13.0994C35.836 12.9446 35.7963 12.793 35.7281 12.6537C35.6598 12.5144 35.5645 12.39 35.4476 12.288C35.3307 12.186 35.1946 12.1084 35.0474 12.0596C34.9001 12.0108 34.7446 11.9919 34.5899 12.004C34.4352 12.0161 34.2845 12.059 34.1466 12.1301C34.0087 12.2011 33.8864 12.299 33.7868 12.418C33.6872 12.5369 33.6124 12.6745 33.5666 12.8228L33.3085 13.6068C33.0697 13.6132 32.8387 13.6935 32.6475 13.8366C32.4563 13.9798 32.3141 14.1787 32.2407 14.406L30.9208 18.4173H14.4094C13.0857 18.4186 12.013 19.4913 12.0117 20.815V33.6024C12.013 34.9261 13.0857 35.9988 14.4094 36.0001H33.5906C34.9142 35.9988 35.9869 34.9261 35.9882 33.6024V20.8149C35.9881 20.409 35.8851 20.0098 35.6889 19.6544C35.4927 19.2991 35.2096 18.9992 34.8661 18.7829ZM28.4848 27.7453C28.497 27.952 28.5644 28.1516 28.6799 28.3235C28.7955 28.4953 28.9549 28.633 29.1418 28.7223L28.892 29.4816C28.8756 29.5314 28.8692 29.584 28.8731 29.6364C28.877 29.6887 28.8912 29.7397 28.9149 29.7866C28.9385 29.8334 28.9712 29.8752 29.011 29.9094C29.0508 29.9436 29.0969 29.9697 29.1468 29.9861C29.1966 30.0025 29.2492 30.0089 29.3015 30.005C29.3539 30.001 29.4049 29.9869 29.4518 29.9632C29.4986 29.9395 29.5404 29.9069 29.5746 29.8671C29.6088 29.8273 29.6349 29.7812 29.6513 29.7313L29.9006 28.9721C30.1037 29.0138 30.3142 28.9991 30.5095 28.9298C30.7049 28.8604 30.8775 28.7389 31.0087 28.5785L31.9063 27.5087C32.0018 27.3952 32.0748 27.2644 32.1213 27.1235L33.191 23.8735V33.6024H14.809V20.8149H30.132L28.4536 25.9119C28.406 26.0533 28.3867 26.2027 28.3968 26.3515L28.4848 27.7453ZM34.3254 13.0749C34.3559 12.9826 34.4218 12.9061 34.5086 12.8624C34.5954 12.8187 34.6961 12.8112 34.7884 12.8417C34.8807 12.8721 34.9572 12.938 35.0009 13.0248C35.0446 13.1117 35.0521 13.2123 35.0216 13.3046L34.7894 14.0167L34.3662 13.8768L34.0929 13.7861L34.3254 13.0749ZM33 14.6541C33.015 14.6085 33.0388 14.5663 33.0702 14.5298C33.1015 14.4934 33.1397 14.4636 33.1826 14.4419C33.2255 14.4203 33.2723 14.4073 33.3202 14.4037C33.3681 14.4002 33.4162 14.4061 33.4619 14.4212L34.0713 14.621L34.9148 14.9007H34.9192C35.011 14.932 35.0866 14.9983 35.1296 15.0851C35.1727 15.172 35.1796 15.2723 35.149 15.3643L33.2233 21.2173V21.2225L31.3623 26.8734C31.3478 26.9174 31.3249 26.9581 31.2948 26.9933L30.3973 28.0634C30.3504 28.1197 30.2877 28.1605 30.2172 28.1805C30.1467 28.2004 30.0719 28.1986 30.0025 28.1753L29.7683 28.0982H29.7663L29.5333 28.0215C29.4635 27.9987 29.4022 27.9554 29.3574 27.8972C29.3126 27.839 29.2864 27.7687 29.2823 27.6954L29.1948 26.3003C29.1916 26.2539 29.1977 26.2073 29.2128 26.1633L31.051 20.5716V20.5687L33 14.6541ZM35.189 33.6024C35.189 34.4851 34.4733 35.2008 33.5906 35.2008H14.4094C13.5266 35.2008 12.811 34.4851 12.811 33.6024V20.8149C12.811 19.9322 13.5266 19.2165 14.4094 19.2165H30.6578L30.3937 20.0157H14.809C14.3675 20.0157 14.0097 20.3736 14.0097 20.815V33.6024C14.0097 34.0439 14.3675 34.4017 14.809 34.4017H33.1909C33.6323 34.4017 33.9902 34.0439 33.9902 33.6024V21.4443L34.6039 19.5785C34.7867 19.7286 34.934 19.9173 35.0351 20.1311C35.1363 20.3449 35.1888 20.5784 35.189 20.8149V33.6024Z" fill="#477BFF"></path><path d="M27.1969 29.2065H26.3976C26.0493 29.2315 25.7005 29.1656 25.3852 29.0152C25.07 28.8649 24.7992 28.6353 24.5994 28.3489C24.5271 28.2397 24.4294 28.1497 24.3146 28.0866C24.1998 28.0235 24.0714 27.9893 23.9405 27.9869C23.8133 27.9886 23.6883 28.0193 23.5748 28.0767C23.4614 28.1342 23.3626 28.2167 23.2859 28.3181L21.978 30.1356C21.2347 29.3891 20.2535 28.9265 19.2047 28.8281V26.4092H20.0039C20.8867 26.4092 21.6023 25.6936 21.6023 24.8108C21.6023 23.928 20.8867 23.2124 20.0039 23.2124C19.1212 23.2124 18.4055 23.928 18.4055 24.8108V25.5924C18.078 25.5871 17.7581 25.4925 17.4804 25.3187C17.4041 25.2459 17.3022 25.2062 17.1967 25.2083C17.0913 25.2103 16.9909 25.254 16.9176 25.3297C16.8442 25.4054 16.8037 25.507 16.8049 25.6125C16.8061 25.7179 16.849 25.8186 16.9241 25.8926C17.0008 25.9693 17.4036 26.3185 18.4055 26.3945V28.8069H17.6062C16.7235 28.8069 16.0078 29.5226 16.0078 30.4053C16.0078 31.2881 16.7235 32.0038 17.6062 32.0038C18.489 32.0038 19.2046 31.2881 19.2046 30.4053V29.6317C20.0321 29.7261 20.8038 30.0959 21.3957 30.6819C21.4771 30.7708 21.5776 30.8402 21.6896 30.8849C21.8017 30.9296 21.9223 30.9485 22.0426 30.94C22.1589 30.9325 22.2721 30.8991 22.3739 30.8423C22.4756 30.7855 22.5634 30.7066 22.6309 30.6116L23.936 28.7922C24.2063 29.19 24.5752 29.511 25.0067 29.7237C25.4381 29.9364 25.9173 30.0336 26.3975 30.0058H27.1968C27.4175 30.0058 27.5964 29.8269 27.5964 29.6062C27.5964 29.3855 27.4176 29.2065 27.1969 29.2065ZM19.2047 24.8108C19.2047 24.3694 19.5625 24.0115 20.0039 24.0115C20.4453 24.0115 20.8032 24.3694 20.8032 24.8108C20.8032 25.2522 20.4453 25.61 20.0039 25.61H19.2047V24.8108ZM18.4055 30.4053C18.4055 30.8467 18.0476 31.2045 17.6062 31.2045C17.1648 31.2045 16.807 30.8467 16.807 30.4053C16.807 29.9639 17.1648 29.6061 17.6062 29.6061H18.4055V30.4053Z" fill="#477BFF"></path></g><defs><clipPath id="clip0_1442_1261"><rect width="24" height="24" fill="white" transform="translate(12 12)"></rect></clipPath></defs></svg>