<svg xmlns="http://www.w3.org/2000/svg" width="48" height="48" viewBox="0 0 48 48" fill="none"><rect x="0.5" y="0.5" width="47" height="47" rx="23.5" stroke="#477BFF"></rect><path d="M26.6008 21.6L25.5008 22.7V19C25.5008 18.7 25.3008 18.5 25.0008 18.5C24.7008 18.5 24.5008 18.7 24.5008 19V22.8L23.4008 21.7C23.2008 21.5 22.9008 21.5 22.7008 21.7C22.5008 21.9 22.5008 22.2 22.7008 22.4L24.7008 24.4C24.7008 24.4 24.8008 24.5 24.9008 24.5H25.3008C25.4008 24.5 25.4008 24.4 25.5008 24.4L27.5008 22.4C27.7008 22.2 27.7008 21.9 27.5008 21.7C27.3008 21.5 26.8008 21.5 26.6008 21.6Z" fill="#477BFF"></path><path d="M32 14.5H18C17.2 14.5 16.5 15.2 16.5 16V27.5H15C14.7 27.5 14.5 27.7 14.5 28V30.5C14.5 32.2 15.8 33.5 17.5 33.5H30.5C32.2 33.5 33.5 32.2 33.5 30.5V16C33.5 15.2 32.8 14.5 32 14.5ZM17.5 32.5C16.4 32.5 15.5 31.6 15.5 30.5V28.5H27.5V30.5C27.5 31.3 27.8 32 28.3 32.5H17.5ZM32.5 30.5C32.5 31.6 31.6 32.5 30.5 32.5C29.4 32.5 28.5 31.6 28.5 30.5V28C28.5 27.7 28.3 27.5 28 27.5H17.5V16C17.5 15.7 17.7 15.5 18 15.5H32C32.3 15.5 32.5 15.7 32.5 16V30.5Z" fill="#477BFF"></path></svg>