<svg xmlns="http://www.w3.org/2000/svg" width="48" height="48" viewBox="0 0 48 48" fill="none"><rect x="0.5" y="0.5" width="47" height="47" rx="23.5" stroke="#477BFF"></rect><g clip-path="url(#clip0_1442_1252)"><path d="M19.0174 22.6707C19.0174 22.313 18.7264 22.022 18.3686 22.022H17.4619C17.1041 22.022 16.8131 22.313 16.8131 22.6707V23.4127C16.8131 23.7705 17.1041 24.0615 17.4619 24.0615H18.3686C18.7264 24.0615 19.0174 23.7705 19.0174 23.4127V22.6707ZM18.3141 23.3582H17.5164V22.7253H18.3141V23.3582ZM15.9817 22.6707C15.9817 22.313 15.6906 22.022 15.3329 22.022H14.4261C14.0684 22.022 13.7773 22.313 13.7773 22.6707V23.4127C13.7773 23.7705 14.0684 24.0615 14.4261 24.0615H15.3329C15.6906 24.0615 15.9817 23.7705 15.9817 23.4127V22.6707ZM15.2783 23.3582H14.4807V22.7253H15.2783V23.3582ZM19.0174 25.3413C19.0174 24.9836 18.7264 24.6925 18.3686 24.6925H17.4619C17.1041 24.6925 16.8131 24.9836 16.8131 25.3413V26.0833C16.8131 26.441 17.1041 26.732 17.4619 26.732H18.3686C18.7264 26.732 19.0174 26.441 19.0174 26.0833V25.3413ZM18.3141 26.0287H17.5164V25.3958H18.3141V26.0287ZM15.9817 25.3413C15.9817 24.9836 15.6906 24.6925 15.3329 24.6925H14.4261C14.0684 24.6925 13.7773 24.9836 13.7773 25.3413V26.0833C13.7773 26.441 14.0684 26.732 14.4261 26.732H15.3329C15.6906 26.732 15.9817 26.441 15.9817 26.0833V25.3413ZM15.2783 26.0287H14.4807V25.3958H15.2783V26.0287ZM18.3687 27.3632H17.4619C17.1041 27.3632 16.8131 27.6542 16.8131 28.012V28.7539C16.8131 29.1117 17.1041 29.4027 17.4619 29.4027H18.3687C18.7264 29.4027 19.0175 29.1117 19.0175 28.7539V28.012C19.0174 27.6542 18.7264 27.3632 18.3687 27.3632ZM18.3141 28.6993H17.5164V28.0664H18.3141V28.6993ZM15.3329 27.3632H14.4261C14.0684 27.3632 13.7773 27.6542 13.7773 28.012V28.7539C13.7773 29.1117 14.0684 29.4027 14.4261 29.4027H15.3329C15.6906 29.4027 15.9817 29.1117 15.9817 28.7539V28.012C15.9817 27.6542 15.6906 27.3632 15.3329 27.3632ZM15.2783 28.6993H14.4807V28.0664H15.2783V28.6993ZM20.4977 29.4027H21.4044C21.7622 29.4027 22.0532 29.1116 22.0532 28.7539V28.0119C22.0532 27.6541 21.7622 27.3631 21.4044 27.3631H20.4977C20.1399 27.3631 19.8489 27.6541 19.8489 28.0119V28.7539C19.8489 29.1116 20.1399 29.4027 20.4977 29.4027ZM20.5522 28.0665H21.3499V28.6994H20.5522V28.0665Z" fill="#477BFF"></path><path d="M35.5793 32.9376L35.0154 31.9515L35.3784 28.3529C35.4692 27.4554 35.3396 26.5493 35.0008 25.7132C34.662 24.8772 34.1243 24.1364 33.4343 23.5553L30.4763 21.0628L27.3906 15.6673C27.1949 15.3253 26.8778 15.0799 26.4976 14.9764C26.1174 14.8729 25.7196 14.9235 25.3776 15.1192L23.4603 16.2157V13.9729C23.4603 12.885 22.5752 12 21.4874 12H14.344C13.2561 12 12.3711 12.885 12.3711 13.9729V28.9259C12.3711 29.9457 13.1489 30.7872 14.1424 30.8885V34.9439C14.1424 35.1074 14.2249 35.2573 14.3631 35.3447C14.4306 35.3877 14.5079 35.4129 14.5878 35.4177C14.6677 35.4226 14.7476 35.4071 14.8198 35.3727L15.59 35.0081L16.5842 35.4389C16.6442 35.4649 16.7084 35.4779 16.7727 35.4779C16.8393 35.4779 16.906 35.4639 16.968 35.4359L17.9183 35.0068L18.9075 35.4379C18.9696 35.4649 19.0368 35.4784 19.1045 35.4774C19.1723 35.4763 19.239 35.4608 19.3002 35.4318L20.192 35.0093L21.0204 35.3811C21.0926 35.4136 21.1718 35.4275 21.2508 35.4215C21.3298 35.4155 21.406 35.3896 21.4724 35.3465C21.539 35.3036 21.5937 35.2446 21.6316 35.175C21.6694 35.1054 21.6892 35.0275 21.689 34.9482V30.8885C22.6825 30.7872 23.4603 29.9457 23.4603 28.9259V27.7601L23.8939 28.5182C23.9403 28.5993 23.9943 28.6759 24.055 28.7469L23.9043 29.5008C23.84 29.8228 23.9049 30.1506 24.0871 30.4238C24.2692 30.697 24.5469 30.8829 24.8689 30.9473C24.95 30.9635 25.0315 30.9715 25.1124 30.9715C25.3526 30.9715 25.5875 30.9009 25.7919 30.7646C25.7955 30.7622 25.7988 30.7597 25.8023 30.7573C25.9766 31.0243 26.2536 31.2241 26.5903 31.2914C26.6692 31.3072 26.7494 31.3151 26.8299 31.3151C27.0321 31.3148 27.2311 31.2647 27.4093 31.1692C27.8532 32.4797 28.6407 33.6667 29.7005 34.583L29.9477 34.7968L30.5345 35.8228C30.5575 35.8629 30.5881 35.8981 30.6246 35.9264C30.6611 35.9546 30.7028 35.9754 30.7474 35.9875C30.792 35.9997 30.8385 36.0029 30.8843 35.9971C30.9301 35.9912 30.9743 35.9764 31.0144 35.9535C31.0545 35.9306 31.0897 35.9 31.1179 35.8634C31.1462 35.8269 31.167 35.7852 31.1791 35.7406C31.1913 35.6961 31.1945 35.6496 31.1887 35.6037C31.1828 35.5579 31.168 35.5137 31.1451 35.4736L30.5285 34.3955C30.5088 34.361 30.4833 34.33 30.4532 34.304L30.1606 34.051C28.6924 32.7816 27.7984 30.9416 27.7079 29.0027L27.5855 26.3808C27.5775 26.2139 27.5302 26.0511 27.4473 25.9059L26.2455 23.8045C26.1571 23.65 26.1342 23.4702 26.181 23.2983C26.2279 23.1265 26.3388 22.9831 26.4933 22.8948C26.5693 22.851 26.6531 22.8228 26.74 22.8117C26.8269 22.8007 26.9151 22.807 26.9996 22.8302C27.0842 22.853 27.1634 22.8923 27.2327 22.946C27.3019 22.9996 27.3599 23.0664 27.4032 23.1425L28.0747 24.3167C28.1214 24.397 28.1979 24.4556 28.2875 24.4797C28.3772 24.5038 28.4727 24.4914 28.5534 24.4453C28.634 24.3992 28.6931 24.3231 28.7178 24.2336C28.7425 24.1441 28.7308 24.0485 28.6852 23.9676L28.0138 22.7934C27.8321 22.4757 27.5376 22.2478 27.1844 22.1516C26.8313 22.0555 26.4619 22.1026 26.1442 22.2843C25.4884 22.6593 25.26 23.498 25.6351 24.1538L26.8369 26.2551C26.8645 26.3036 26.8803 26.3579 26.883 26.4137L26.9414 27.6646L25.5577 28.4559C25.4698 28.5065 25.3728 28.5392 25.2722 28.552C25.1716 28.5648 25.0695 28.5576 24.9717 28.5306C24.8738 28.5043 24.7821 28.4587 24.7019 28.3967C24.6217 28.3346 24.5546 28.2573 24.5045 28.1691L21.7383 23.3325C21.692 23.2516 21.6154 23.1923 21.5255 23.1678C21.4355 23.1433 21.3394 23.1555 21.2585 23.2018C21.1775 23.2481 21.1182 23.3247 21.0937 23.4147C21.0692 23.5047 21.0815 23.6007 21.1278 23.6817L21.7708 24.806C21.6632 24.732 21.5356 24.6924 21.4049 24.6925H20.4982C20.1404 24.6925 19.8494 24.9836 19.8494 25.3413V26.0833C19.8494 26.441 20.1404 26.732 20.4982 26.732H21.4049C21.7627 26.732 22.0537 26.441 22.0537 26.0833V25.3413C22.0537 25.3263 22.0524 25.3115 22.0514 25.2967L22.757 26.5304V28.9259C22.757 29.626 22.1875 30.1955 21.4875 30.1955H14.344C13.6439 30.1955 13.0744 29.626 13.0744 28.9259V13.9729C13.0744 13.2728 13.6439 12.7033 14.344 12.7033H21.4874C22.1874 12.7033 22.7569 13.2728 22.7569 13.9729V16.618L22.0536 17.0202V15.2241C22.0536 14.9119 21.7996 14.6579 21.4874 14.6579H14.344C14.0317 14.6579 13.7778 14.9119 13.7778 15.2242V16.725C13.7778 16.8182 13.8148 16.9077 13.8808 16.9736C13.9467 17.0396 14.0362 17.0766 14.1294 17.0766C14.2227 17.0766 14.3121 17.0396 14.3781 16.9736C14.444 16.9077 14.4811 16.8182 14.4811 16.725V15.3613H21.3503V17.4224L19.7657 18.3287C19.1239 18.6957 18.8624 19.4753 19.1234 20.1445H14.4811V18.2236C14.4811 18.1304 14.444 18.0409 14.3781 17.975C14.3121 17.909 14.2227 17.872 14.1294 17.872C14.0362 17.872 13.9467 17.909 13.8808 17.975C13.8148 18.0409 13.7778 18.1304 13.7778 18.2236V20.2816C13.7778 20.5938 14.0317 20.8478 14.344 20.8478H19.507L20.3837 22.3808C20.4308 22.4602 20.5072 22.5179 20.5965 22.5414C20.6858 22.565 20.7807 22.5525 20.8608 22.5067C20.941 22.4608 20.9999 22.3853 21.0248 22.2965C21.0498 22.2076 21.0388 22.1124 20.9942 22.0316L19.8281 19.9926C19.6167 19.6231 19.7455 19.1506 20.1149 18.9393L25.7268 15.7298C25.8147 15.6792 25.9117 15.6465 26.0123 15.6337C26.1129 15.6209 26.2151 15.6281 26.3128 15.6551C26.4107 15.6814 26.5025 15.727 26.5827 15.789C26.6629 15.8511 26.73 15.9285 26.7801 16.0166L31.4564 24.1932C31.5069 24.2811 31.5396 24.3782 31.5524 24.4788C31.5653 24.5793 31.558 24.6815 31.5311 24.7793C31.5047 24.8772 31.4592 24.9689 31.3971 25.0491C31.3351 25.1293 31.2577 25.1964 31.1695 25.2465L29.8486 26.0019L29.4292 25.2685C29.3829 25.1875 29.3063 25.1282 29.2163 25.1037C29.1263 25.0792 29.0303 25.0915 28.9493 25.1378C28.8684 25.1841 28.8091 25.2607 28.7846 25.3506C28.7601 25.4406 28.7723 25.5367 28.8186 25.6176L29.7673 27.2764C29.7903 27.3165 29.8209 27.3517 29.8574 27.38C29.8939 27.4082 29.9356 27.429 29.9802 27.4412C30.0248 27.4533 30.0713 27.4565 30.1171 27.4507C30.1629 27.4448 30.2071 27.43 30.2472 27.4071C30.2873 27.3842 30.3225 27.3536 30.3507 27.317C30.379 27.2805 30.3998 27.2388 30.4119 27.1942C30.4241 27.1497 30.4273 27.1032 30.4215 27.0573C30.4156 27.0115 30.4008 26.9673 30.3779 26.9272L30.1978 26.6124L31.5187 25.857C31.8608 25.6614 32.1062 25.3442 32.2097 24.9641C32.3133 24.5839 32.2625 24.1861 32.0669 23.844L31.4917 22.8383L32.981 24.0933C33.5835 24.6007 34.0531 25.2475 34.3489 25.9775C34.6448 26.7075 34.758 27.4987 34.6787 28.2824L34.3043 31.9931C34.297 32.066 34.3126 32.1394 34.349 32.203L34.9689 33.2869C34.9918 33.327 35.0224 33.3622 35.0589 33.3905C35.0955 33.4187 35.1372 33.4395 35.1817 33.4517C35.2263 33.4638 35.2728 33.467 35.3186 33.4612C35.3644 33.4554 35.4087 33.4405 35.4487 33.4176C35.5297 33.3713 35.5889 33.2947 35.6134 33.2046C35.6379 33.1146 35.6256 33.0186 35.5793 32.9376ZM27.0053 29.0356C27.0279 29.5138 27.0947 29.9889 27.2049 30.4548C27.0825 30.5789 26.9036 30.6368 26.7281 30.6018C26.4437 30.5449 26.2585 30.2673 26.3154 29.9828L26.5749 28.6844L26.9781 28.4538L27.0053 29.0356ZM25.1768 29.2618C25.3794 29.2618 25.5797 29.219 25.7674 29.1361L25.6257 29.8449C25.6123 29.9127 25.5856 29.9772 25.5472 30.0346C25.5087 30.0921 25.4593 30.1413 25.4017 30.1795C25.3443 30.218 25.2798 30.2447 25.212 30.2582C25.1443 30.2716 25.0745 30.2714 25.0067 30.2576C24.869 30.2301 24.7502 30.1505 24.6722 30.0337C24.5942 29.9168 24.5665 29.7765 24.594 29.6387L24.6862 29.1776C24.7193 29.1891 24.7527 29.1999 24.7868 29.2093C24.9139 29.244 25.0451 29.2617 25.1768 29.2618ZM21.3503 26.0287H20.5526V25.3958H21.3503V26.0287ZM20.9856 34.5946L20.3835 34.3243C20.3209 34.2963 20.253 34.2821 20.1844 34.2828C20.1158 34.2835 20.0482 34.2991 19.9862 34.3285L19.0931 34.7515L18.1061 34.3214C18.0453 34.295 17.9797 34.2815 17.9134 34.282C17.8471 34.2824 17.7817 34.2967 17.7213 34.324L16.7708 34.7533L15.7745 34.3215C15.7125 34.2946 15.6455 34.2813 15.5779 34.2824C15.5103 34.2835 15.4438 34.2991 15.3828 34.328L14.8457 34.5823V30.8987H20.9856V34.5946Z" fill="#477BFF"></path><path d="M25.8702 18.3593C25.8947 18.2693 25.8825 18.1733 25.8362 18.0923C25.7898 18.0114 25.7133 17.9521 25.6233 17.9276C24.9308 17.7391 24.2064 17.8314 23.5833 18.1877C22.9604 18.544 22.5134 19.1216 22.3249 19.8141C22.3004 19.9041 22.3126 20.0001 22.3589 20.0811C22.4052 20.162 22.4818 20.2213 22.5718 20.2458C22.6027 20.2542 22.6338 20.2582 22.6644 20.2582C22.7415 20.2582 22.8165 20.2327 22.8778 20.1859C22.939 20.139 22.9832 20.0733 23.0035 19.9989C23.1427 19.4877 23.4726 19.0613 23.9325 18.7983C24.3925 18.5352 24.9272 18.4671 25.4385 18.6063C25.5285 18.6307 25.6245 18.6185 25.7055 18.5722C25.7864 18.5258 25.8457 18.4493 25.8702 18.3593Z" fill="#477BFF"></path><path d="M25.0665 19.9635C25.1565 19.988 25.2525 19.9757 25.3335 19.9294C25.4145 19.8831 25.4737 19.8066 25.4983 19.7166C25.5104 19.6721 25.5137 19.6256 25.5078 19.5798C25.502 19.5339 25.4872 19.4897 25.4643 19.4496C25.4414 19.4095 25.4108 19.3744 25.3742 19.3461C25.3377 19.3178 25.296 19.297 25.2514 19.2849C24.9213 19.195 24.5761 19.2388 24.2796 19.4084C23.983 19.5779 23.7703 19.8531 23.6803 20.1834C23.6558 20.2734 23.6681 20.3694 23.7144 20.4504C23.7607 20.5313 23.8372 20.5906 23.9272 20.6151C23.9582 20.6235 23.9893 20.6275 24.0198 20.6275C24.097 20.6275 24.1719 20.602 24.2332 20.5552C24.2945 20.5083 24.3387 20.4426 24.3589 20.3682C24.3786 20.295 24.4125 20.2265 24.4589 20.1665C24.5052 20.1066 24.5629 20.0564 24.6287 20.0189C24.6944 19.9812 24.7669 19.9569 24.8421 19.9474C24.9172 19.9379 24.9935 19.9433 25.0665 19.9635ZM24.9292 21.2528C24.9521 21.2929 24.9827 21.328 25.0192 21.3563C25.0558 21.3846 25.0975 21.4054 25.1421 21.4175C25.1866 21.4296 25.2331 21.4329 25.279 21.427C25.3248 21.4212 25.369 21.4064 25.4091 21.3834C25.4491 21.3605 25.4843 21.3299 25.5126 21.2934C25.5409 21.2569 25.5616 21.2151 25.5738 21.1706C25.5859 21.126 25.5892 21.0795 25.5833 21.0337C25.5775 20.9879 25.5627 20.9437 25.5397 20.9036L25.4229 20.6993C25.4 20.6592 25.3694 20.6241 25.3329 20.5958C25.2964 20.5675 25.2546 20.5467 25.2101 20.5346C25.1655 20.5225 25.119 20.5192 25.0732 20.5251C25.0274 20.5309 24.9832 20.5457 24.9431 20.5687C24.903 20.5916 24.8678 20.6222 24.8396 20.6587C24.8113 20.6952 24.7905 20.737 24.7784 20.7815C24.7662 20.8261 24.763 20.8726 24.7688 20.9184C24.7747 20.9642 24.7895 21.0084 24.8124 21.0485L24.9292 21.2528Z" fill="#477BFF"></path></g><defs><clipPath id="clip0_1442_1252"><rect width="24" height="24" fill="white" transform="translate(12 12)"></rect></clipPath></defs></svg>