<svg xmlns="http://www.w3.org/2000/svg" width="49" height="48" viewBox="0 0 49 48" fill="none"><rect x="1" y="0.5" width="47" height="47" rx="23.5" stroke="#477BFF"></rect><g clip-path="url(#clip0_1442_1404)"><path d="M17.9175 15.3089V17.3089H13.2266V15.418C13.2266 14.0726 14.3175 12.9089 15.6629 12.9817C16.2811 13.018 16.8266 13.2726 17.2266 13.6726C17.6629 14.0726 17.9175 14.6544 17.9175 15.3089ZM17.9175 15.3089V32.7271C17.9175 33.9999 18.972 35.0544 20.2447 35.0544M31.372 31.7453V21.1271M15.5538 12.9453H29.9175C30.6447 12.9453 31.2266 13.4544 31.3357 14.1453M20.2447 35.0544C20.8993 35.0544 21.4811 34.7999 21.9175 34.3635C22.3538 33.9271 22.6084 33.3453 22.6084 32.7271V31.7453H35.772V32.7271C35.772 33.3817 35.5175 33.9635 35.0811 34.3635C34.8623 34.5842 34.6017 34.759 34.3144 34.8776C34.0272 34.9963 33.7191 35.0564 33.4084 35.0544H20.2447ZM33.0084 16.7635C33.0084 16.2544 32.6084 15.8544 32.0993 15.8544C31.5902 15.8544 31.1902 16.2544 31.1902 16.7635C31.1902 17.2726 31.5902 17.6726 32.0993 17.6726C32.6084 17.6726 33.0084 18.0726 33.0084 18.5817C33.0084 19.0908 32.6084 19.4908 32.0993 19.4908C31.5902 19.4908 31.1902 19.0908 31.1902 18.5817M32.0993 15.818V15.418M32.0993 19.5271V19.8544" stroke="#477BFF" stroke-width="0.7" stroke-miterlimit="10" stroke-linecap="round" stroke-linejoin="round"></path><path d="M32.0988 21.2C34.0669 21.2 35.6624 19.6045 35.6624 17.6364C35.6624 15.6682 34.0669 14.0728 32.0988 14.0728C30.1307 14.0728 28.5352 15.6682 28.5352 17.6364C28.5352 19.6045 30.1307 21.2 32.0988 21.2Z" stroke="#477BFF" stroke-width="0.7" stroke-miterlimit="10" stroke-linecap="round" stroke-linejoin="round"></path><path d="M27.3704 26.8361C27.3704 28.8361 25.734 30.4724 23.734 30.4724C23.4067 30.4724 23.0795 30.4361 22.7522 30.327C21.2249 29.8906 20.0977 28.5088 20.0977 26.8361C20.0977 25.0543 21.3704 23.5633 23.0795 23.2724C23.2977 23.2361 23.5158 23.1997 23.734 23.1997V26.8361H27.3704Z" stroke="#477BFF" stroke-width="0.7" stroke-miterlimit="10" stroke-linecap="round" stroke-linejoin="round"></path><path d="M21.8101 18.509V19.709M23.8101 17.6362V19.709M25.7737 17.1272V19.709M20.6101 19.709H27.0101M19.8828 15.0181H22.9374M19.8828 16.5453H21.7374M28.901 25.8908H25.2646L28.3919 24.0726C28.7192 24.6181 28.901 25.2362 28.901 25.8908ZM27.8828 23.1635L24.7555 24.9817V21.3453C26.0646 21.3453 27.2646 22.109 27.8828 23.1635Z" stroke="#477BFF" stroke-width="0.7" stroke-miterlimit="10" stroke-linecap="round" stroke-linejoin="round"></path></g><defs><clipPath id="clip0_1442_1404"><rect width="24" height="24" fill="white" transform="translate(12.5 12)"></rect></clipPath></defs></svg>