<svg xmlns="http://www.w3.org/2000/svg" width="49" height="48" viewBox="0 0 49 48" fill="none"><rect x="1" y="0.5" width="47" height="47" rx="23.5" stroke="#477BFF"></rect><g clip-path="url(#clip0_1442_1287)"><path d="M29.375 26.625C29.2755 26.625 29.1802 26.5855 29.1098 26.5152C29.0395 26.4448 29 26.3495 29 26.25V21.75H21.5V24C21.5 24.0995 21.4605 24.1948 21.3902 24.2652C21.3198 24.3355 21.2245 24.375 21.125 24.375C21.0255 24.375 20.9302 24.3355 20.8598 24.2652C20.7895 24.1948 20.75 24.0995 20.75 24V21.375C20.75 21.2755 20.7895 21.1802 20.8598 21.1098C20.9302 21.0395 21.0255 21 21.125 21H29.375C29.4745 21 29.5698 21.0395 29.6402 21.1098C29.7105 21.1802 29.75 21.2755 29.75 21.375V26.25C29.75 26.3495 29.7105 26.4448 29.6402 26.5152C29.5698 26.5855 29.4745 26.625 29.375 26.625Z" fill="#477BFF"></path><path d="M29.375 23.25H21.125C21.0255 23.25 20.9302 23.2105 20.8598 23.1402C20.7895 23.0698 20.75 22.9745 20.75 22.875C20.75 22.7755 20.7895 22.6802 20.8598 22.6098C20.9302 22.5395 21.0255 22.5 21.125 22.5H29.375C29.4745 22.5 29.5698 22.5395 29.6402 22.6098C29.7105 22.6802 29.75 22.7755 29.75 22.875C29.75 22.9745 29.7105 23.0698 29.6402 23.1402C29.5698 23.2105 29.4745 23.25 29.375 23.25ZM29.375 24.75H26.8363C26.7368 24.75 26.6414 24.7105 26.5711 24.6402C26.5008 24.5698 26.4613 24.4745 26.4613 24.375C26.4613 24.2755 26.5008 24.1802 26.5711 24.1098C26.6414 24.0395 26.7368 24 26.8363 24H29.375C29.4745 24 29.5698 24.0395 29.6402 24.1098C29.7105 24.1802 29.75 24.2755 29.75 24.375C29.75 24.4745 29.7105 24.5698 29.6402 24.6402C29.5698 24.7105 29.4745 24.75 29.375 24.75ZM25.25 21.375C24.36 21.375 23.49 21.1111 22.7499 20.6166C22.0099 20.1221 21.4331 19.4193 21.0925 18.5971C20.7519 17.7748 20.6628 16.87 20.8365 15.9971C21.0101 15.1242 21.4387 14.3224 22.068 13.693C22.6974 13.0637 23.4992 12.6351 24.3721 12.4615C25.245 12.2878 26.1498 12.3769 26.9721 12.7175C27.7943 13.0581 28.4971 13.6349 28.9916 14.3749C29.4861 15.115 29.75 15.985 29.75 16.875C29.7487 18.0681 29.2742 19.2119 28.4306 20.0556C27.5869 20.8992 26.4431 21.3737 25.25 21.375ZM25.25 13.125C24.5083 13.125 23.7833 13.3449 23.1666 13.757C22.5499 14.169 22.0693 14.7547 21.7855 15.4399C21.5016 16.1252 21.4274 16.8792 21.5721 17.6066C21.7168 18.334 22.0739 19.0022 22.5984 19.5267C23.1228 20.0511 23.791 20.4083 24.5184 20.5529C25.2458 20.6976 25.9998 20.6234 26.6851 20.3396C27.3703 20.0557 27.956 19.5751 28.368 18.9584C28.7801 18.3417 29 17.6167 29 16.875C28.9989 15.8808 28.6035 14.9276 27.9004 14.2246C27.1974 13.5215 26.2442 13.1261 25.25 13.125Z" fill="#477BFF"></path><path d="M25.625 18.75H24.125C24.0255 18.75 23.9302 18.7105 23.8598 18.6402C23.7895 18.5698 23.75 18.4745 23.75 18.375C23.75 18.2755 23.7895 18.1802 23.8598 18.1098C23.9302 18.0395 24.0255 18 24.125 18H25.625C25.7245 18 25.8198 17.9605 25.8902 17.8902C25.9605 17.8198 26 17.7245 26 17.625C26 17.5255 25.9605 17.4302 25.8902 17.3598C25.8198 17.2895 25.7245 17.25 25.625 17.25H24.875C24.5766 17.25 24.2905 17.1315 24.0795 16.9205C23.8685 16.7095 23.75 16.4234 23.75 16.125C23.75 15.8266 23.8685 15.5405 24.0795 15.3295C24.2905 15.1185 24.5766 15 24.875 15H26.375C26.4745 15 26.5698 15.0395 26.6402 15.1098C26.7105 15.1802 26.75 15.2755 26.75 15.375C26.75 15.4745 26.7105 15.5698 26.6402 15.6402C26.5698 15.7105 26.4745 15.75 26.375 15.75H24.875C24.7755 15.75 24.6802 15.7895 24.6098 15.8598C24.5395 15.9302 24.5 16.0255 24.5 16.125C24.5 16.2245 24.5395 16.3198 24.6098 16.3902C24.6802 16.4605 24.7755 16.5 24.875 16.5H25.625C25.9234 16.5 26.2095 16.6185 26.4205 16.8295C26.6315 17.0405 26.75 17.3266 26.75 17.625C26.75 17.9234 26.6315 18.2095 26.4205 18.4205C26.2095 18.6315 25.9234 18.75 25.625 18.75Z" fill="#477BFF"></path><path d="M25.2499 15.75C25.1505 15.75 25.0551 15.7105 24.9848 15.6402C24.9144 15.5698 24.8749 15.4745 24.8749 15.375V14.625C24.8749 14.5255 24.9144 14.4302 24.9848 14.3598C25.0551 14.2895 25.1505 14.25 25.2499 14.25C25.3494 14.25 25.4448 14.2895 25.5151 14.3598C25.5854 14.4302 25.6249 14.5255 25.6249 14.625V15.375C25.6249 15.4745 25.5854 15.5698 25.5151 15.6402C25.4448 15.7105 25.3494 15.75 25.2499 15.75ZM25.2499 19.5C25.1505 19.5 25.0551 19.4605 24.9848 19.3902C24.9144 19.3198 24.8749 19.2245 24.8749 19.125V18.375C24.8749 18.2755 24.9144 18.1802 24.9848 18.1098C25.0551 18.0395 25.1505 18 25.2499 18C25.3494 18 25.4448 18.0395 25.5151 18.1098C25.5854 18.1802 25.6249 18.2755 25.6249 18.375V19.125C25.6249 19.2245 25.5854 19.3198 25.5151 19.3902C25.4448 19.4605 25.3494 19.5 25.2499 19.5ZM19.6249 35.625C19.5255 35.625 19.4301 35.5855 19.3598 35.5151L12.9848 29.1401C12.9145 29.0698 12.875 28.9744 12.875 28.875C12.875 28.7756 12.9145 28.6802 12.9848 28.6099L15.6098 25.9849C15.6801 25.9146 15.7755 25.8751 15.8749 25.8751C15.9744 25.8751 16.0697 25.9146 16.14 25.9849L22.515 32.3599C22.5853 32.4302 22.6248 32.5256 22.6248 32.625C22.6248 32.7244 22.5853 32.8198 22.515 32.8901L19.89 35.5151C19.8197 35.5855 19.7244 35.625 19.6249 35.625ZM13.7802 28.875L19.6249 34.7197L21.7197 32.625L15.8749 26.7803L13.7802 28.875Z" fill="#477BFF"></path><path d="M16.6249 27.375C16.5508 27.375 16.4783 27.353 16.4166 27.3118C16.355 27.2706 16.3069 27.212 16.2785 27.1435C16.2502 27.075 16.2427 26.9996 16.2572 26.9269C16.2717 26.8541 16.3074 26.7873 16.3598 26.7349L19.3598 23.7349C19.4301 23.6645 19.5255 23.625 19.6249 23.625H25.9999C26.3977 23.625 26.7793 23.783 27.0606 24.0643C27.3419 24.3456 27.4999 24.7272 27.4999 25.125C27.4999 25.5228 27.3419 25.9044 27.0606 26.1857C26.7793 26.467 26.3977 26.625 25.9999 26.625H23.3749C23.2755 26.625 23.1801 26.5855 23.1098 26.5152C23.0394 26.4448 22.9999 26.3495 22.9999 26.25C22.9999 26.1505 23.0394 26.0552 23.1098 25.9848C23.1801 25.9145 23.2755 25.875 23.3749 25.875H25.9999C26.1988 25.875 26.3896 25.796 26.5303 25.6553C26.6709 25.5147 26.7499 25.3239 26.7499 25.125C26.7499 24.9261 26.6709 24.7353 26.5303 24.5947C26.3896 24.454 26.1988 24.375 25.9999 24.375H19.7802L16.89 27.2651C16.8197 27.3355 16.7244 27.375 16.6249 27.375Z" fill="#477BFF"></path><path d="M21.4999 32.2502C21.4258 32.2502 21.3533 32.2282 21.2916 32.187C21.23 32.1457 21.1819 32.0872 21.1535 32.0187C21.1252 31.9502 21.1177 31.8748 21.1322 31.802C21.1467 31.7293 21.1824 31.6625 21.2348 31.6101L23.1098 29.7351C23.1801 29.6647 23.2755 29.6252 23.3749 29.6252H28.8383L35.1874 22.9104C35.3145 22.7793 35.3843 22.603 35.3815 22.4204C35.3786 22.2378 35.3034 22.0638 35.1722 21.9367C35.0411 21.8096 34.8648 21.7398 34.6822 21.7427C34.4996 21.7455 34.3256 21.8208 34.1985 21.9519L29.6404 26.5153C29.6056 26.5502 29.5642 26.5778 29.5186 26.5967C29.4731 26.6155 29.4242 26.6252 29.3749 26.6252H25.6249C25.5255 26.6252 25.4301 26.5857 25.3598 26.5153C25.2894 26.445 25.2499 26.3496 25.2499 26.2502C25.2499 26.1507 25.2894 26.0553 25.3598 25.985C25.4301 25.9147 25.5255 25.8752 25.6249 25.8752H29.2193L33.6675 21.4213C33.9366 21.163 34.2954 21.0194 34.6684 21.0205C35.0413 21.0217 35.3993 21.1676 35.6667 21.4275C35.9342 21.6874 36.0903 22.041 36.1021 22.4138C36.1139 22.7866 35.9805 23.1493 35.73 23.4257L29.2725 30.2582C29.2375 30.2952 29.1952 30.3247 29.1483 30.3448C29.1014 30.3649 29.0509 30.3752 28.9999 30.3752H23.5302L21.765 32.1403C21.6947 32.2106 21.5994 32.2502 21.4999 32.2502Z" fill="#477BFF"></path></g><defs><clipPath id="clip0_1442_1287"><rect width="24" height="24" fill="white" transform="translate(12.5 12)"></rect></clipPath></defs></svg>