<svg xmlns="http://www.w3.org/2000/svg" width="48" height="48" viewBox="0 0 48 48" fill="none"><rect x="0.5" y="0.5" width="47" height="47" rx="23.5" stroke="#477BFF"></rect><g clip-path="url(#clip0_1442_1346)"><path d="M31.4062 18.9727C31.6651 18.9727 31.875 18.7628 31.875 18.5039V13.4062C31.875 12.6308 31.2442 12 30.4688 12H13.4062C12.6308 12 12 12.6308 12 13.4062V34.5938C12 35.3692 12.6308 36 13.4062 36H30.4688C31.2442 36 31.875 35.3692 31.875 34.5938V31.1404C31.875 30.8815 31.6651 30.6716 31.4062 30.6716C31.1474 30.6716 30.9375 30.8815 30.9375 31.1404V34.5938C30.9375 34.8522 30.7272 35.0625 30.4688 35.0625H13.4062C13.1478 35.0625 12.9375 34.8522 12.9375 34.5938V13.4062C12.9375 13.1478 13.1478 12.9375 13.4062 12.9375H30.4688C30.7272 12.9375 30.9375 13.1478 30.9375 13.4062V18.5039C30.9375 18.7628 31.1474 18.9727 31.4062 18.9727Z" fill="#477BFF"></path><path d="M21.9361 14.5312C19.5582 14.5312 17.6236 16.4658 17.6236 18.8438C17.6236 20.0774 18.1444 21.1915 18.9774 21.9782C18.993 21.9949 19.0096 22.0107 19.0278 22.0251C19.7952 22.7273 20.8164 23.1562 21.936 23.1562C23.0557 23.1562 24.0769 22.7272 24.8443 22.0251C24.8622 22.0107 24.879 21.9951 24.8947 21.9782C25.7278 21.1915 26.2486 20.0774 26.2486 18.8438C26.2486 16.4658 24.314 14.5312 21.9361 14.5312ZM21.9361 22.2188C21.1707 22.2188 20.4643 21.9623 19.8975 21.5312C20.3094 20.8006 21.0782 20.3438 21.9361 20.3438C22.794 20.3438 23.5627 20.8006 23.9747 21.5312C23.4079 21.9623 22.7015 22.2188 21.9361 22.2188ZM21.1861 18.6562V18.3516C21.1861 17.938 21.5226 17.6016 21.9361 17.6016C22.3496 17.6016 22.6861 17.938 22.6861 18.3516V18.6562C22.6861 19.0698 22.3496 19.4062 21.9361 19.4062C21.5226 19.4062 21.1861 19.0698 21.1861 18.6562ZM24.652 20.8445C24.3099 20.3362 23.8312 19.9349 23.271 19.6868C23.4917 19.4015 23.6236 19.0441 23.6236 18.6562V18.3516C23.6236 17.421 22.8666 16.6641 21.9361 16.6641C21.0056 16.6641 20.2486 17.421 20.2486 18.3516V18.6562C20.2486 19.0441 20.3805 19.4015 20.6012 19.6868C20.041 19.9349 19.5623 20.3362 19.2202 20.8445C18.8063 20.2842 18.5611 19.5922 18.5611 18.8438C18.5611 16.9828 20.0751 15.4688 21.9361 15.4688C23.7971 15.4688 25.3111 16.9828 25.3111 18.8438C25.3111 19.5922 25.0659 20.2842 24.652 20.8445ZM24.4673 32.5312H21.9361C21.6773 32.5312 21.4673 32.7411 21.4673 33C21.4673 33.2589 21.6773 33.4688 21.9361 33.4688H24.4673C24.7262 33.4688 24.9361 33.2589 24.9361 33C24.9361 32.7411 24.7262 32.5312 24.4673 32.5312ZM24.4673 29.9062H17.8111C17.5523 29.9062 17.3423 30.1161 17.3423 30.375C17.3423 30.6339 17.5523 30.8438 17.8111 30.8438H24.4673C24.7262 30.8438 24.9361 30.6339 24.9361 30.375C24.9361 30.1161 24.7262 29.9062 24.4673 29.9062ZM24.4673 27.2812H17.8111C17.5523 27.2812 17.3423 27.4911 17.3423 27.75C17.3423 28.0089 17.5523 28.2188 17.8111 28.2188H24.4673C24.7262 28.2188 24.9361 28.0089 24.9361 27.75C24.9361 27.4911 24.7262 27.2812 24.4673 27.2812ZM16.1404 24.7936C16.0522 24.7059 15.933 24.6566 15.8086 24.6562C15.6853 24.6562 15.5643 24.7064 15.4772 24.7936C15.39 24.8808 15.3398 25.0017 15.3398 25.125C15.3398 25.2483 15.39 25.3692 15.4772 25.4564C15.5653 25.5439 15.6844 25.5933 15.8086 25.5938C15.9323 25.5938 16.0528 25.5436 16.1404 25.4564C16.2276 25.3692 16.2778 25.2483 16.2778 25.125C16.2778 25.0017 16.2277 24.8808 16.1404 24.7936ZM16.1404 27.4186C16.0522 27.331 15.933 27.2816 15.8086 27.2812C15.6853 27.2813 15.5648 27.3314 15.4772 27.4186C15.39 27.5058 15.3398 27.6267 15.3398 27.75C15.3398 27.8733 15.39 27.9942 15.4772 28.0814C15.5653 28.1689 15.6844 28.2183 15.8086 28.2188C15.9323 28.2188 16.0528 28.1686 16.1404 28.0814C16.2276 27.9942 16.2778 27.8733 16.2778 27.75C16.2778 27.6267 16.2277 27.5058 16.1404 27.4186ZM16.1404 30.0436C16.0522 29.956 15.933 29.9066 15.8086 29.9062C15.6853 29.9062 15.5648 29.9564 15.4772 30.0436C15.39 30.1308 15.3398 30.2517 15.3398 30.375C15.3398 30.4983 15.39 30.6192 15.4772 30.7064C15.5653 30.794 15.6844 30.8434 15.8086 30.8438C15.9323 30.8438 16.0533 30.7936 16.1404 30.7064C16.2276 30.6192 16.2778 30.4983 16.2778 30.375C16.2778 30.2517 16.2277 30.1308 16.1404 30.0436ZM24.4673 24.6562H17.8111C17.5523 24.6562 17.3423 24.8661 17.3423 25.125C17.3423 25.3839 17.5523 25.5938 17.8111 25.5938H24.4673C24.7262 25.5938 24.9361 25.3839 24.9361 25.125C24.9361 24.8661 24.7262 24.6562 24.4673 24.6562ZM35.014 18.1088C34.5586 17.8458 34.0281 17.776 33.52 17.9121C33.0121 18.0482 32.5875 18.374 32.3246 18.8294L26.4258 29.0464C26.3935 29.1024 26.3731 29.1645 26.3659 29.2288L25.9507 32.948C25.9434 33.0135 25.95 33.0799 25.9701 33.1427C25.9901 33.2055 26.0232 33.2633 26.0672 33.3125C26.1111 33.3616 26.165 33.401 26.2252 33.4279C26.2853 33.4548 26.3505 33.4688 26.4165 33.4688C26.5165 33.4688 26.6139 33.4368 26.6945 33.3775L29.7078 31.1582C29.7599 31.1199 29.8034 31.0712 29.8357 31.0152L35.7345 20.7982C36.2774 19.858 35.9541 18.6516 35.014 18.1088ZM27.0012 31.9872L27.2181 30.0451L28.5747 30.8284L27.0012 31.9872ZM29.2583 30.1404L27.4721 29.1092L32.2057 20.9103L33.9919 21.9415L29.2583 30.1404ZM34.9227 20.3294L34.4606 21.1297L32.6745 20.0984L33.1365 19.2981C33.2039 19.1806 33.294 19.0776 33.4015 18.9952C33.5089 18.9127 33.6317 18.8523 33.7627 18.8176C33.8934 18.7822 34.0299 18.7731 34.1642 18.7907C34.2986 18.8084 34.428 18.8526 34.5452 18.9207C34.6627 18.9881 34.7657 19.0781 34.8481 19.1856C34.9306 19.2931 34.9909 19.4159 35.0257 19.5468C35.0611 19.6776 35.0702 19.8141 35.0525 19.9484C35.0349 20.0827 34.9907 20.2122 34.9227 20.3294Z" fill="#477BFF"></path></g><defs><clipPath id="clip0_1442_1346"><rect width="24" height="24" fill="white" transform="translate(12 12)"></rect></clipPath></defs></svg>