<svg xmlns="http://www.w3.org/2000/svg" width="48" height="48" viewBox="0 0 48 48" fill="none"><rect x="0.5" y="0.5" width="47" height="47" rx="23.5" stroke="#477BFF"></rect><g clip-path="url(#clip0_1442_1237)"><path d="M33.5 18H30.5C30.3674 18 30.2402 17.9473 30.1464 17.8536C30.0527 17.7598 30 17.6326 30 17.5C30 17.3674 30.0527 17.2402 30.1464 17.1464C30.2402 17.0527 30.3674 17 30.5 17H33V14.5C33 14.3674 33.0527 14.2402 33.1464 14.1464C33.2402 14.0527 33.3674 14 33.5 14C33.6326 14 33.7598 14.0527 33.8536 14.1464C33.9473 14.2402 34 14.3674 34 14.5V17.5C34 17.6326 33.9473 17.7598 33.8536 17.8536C33.7598 17.9473 33.6326 18 33.5 18Z" fill="#477BFF"></path><path d="M24 36C17.383 36 12 30.617 12 24C12 17.383 17.383 12 24 12C27.8 12 31.409 13.83 33.653 16.895C33.6918 16.948 33.7198 17.0081 33.7354 17.0719C33.7509 17.1357 33.7538 17.202 33.7438 17.2669C33.7337 17.3318 33.711 17.3941 33.6769 17.4502C33.6428 17.5063 33.598 17.5552 33.545 17.594C33.492 17.6328 33.4319 17.6608 33.3681 17.6764C33.3043 17.6919 33.238 17.6948 33.1731 17.6848C33.1082 17.6747 33.0459 17.652 32.9898 17.6179C32.9337 17.5838 32.8848 17.539 32.846 17.486C31.8258 16.0978 30.4938 14.9686 28.9573 14.1894C27.4208 13.4102 25.7228 13.0028 24 13C17.935 13 13 17.935 13 24C13 30.065 17.935 35 24 35C30.065 35 35 30.065 35 24C35 23.484 34.969 23.017 34.905 22.571C34.8946 22.4438 34.9332 22.3175 35.0127 22.2178C35.0923 22.1181 35.2069 22.0525 35.3332 22.0343C35.4595 22.0162 35.5879 22.047 35.6923 22.1203C35.7967 22.1937 35.8692 22.3041 35.895 22.429C35.966 22.922 36 23.436 36 24C36 30.617 30.617 36 24 36Z" fill="#477BFF"></path><path d="M24 31.9998C23.9333 32 23.8672 31.9863 23.806 31.9598C23.568 31.8608 18 29.4538 18 24.5358V20.3568C18 20.1428 18.137 19.9518 18.34 19.8828L23.84 18.0258C23.9438 17.9907 24.0562 17.9907 24.16 18.0258L29.66 19.8828C29.863 19.9518 30 20.1428 30 20.3568V24.5358C30 29.4538 24.432 31.8608 24.194 31.9608C24.1326 31.9865 24.0666 31.9998 24 31.9998ZM19 20.7158V24.5358C19 28.3208 23.055 30.4938 24 30.9498C24.944 30.4928 29 28.3118 29 24.5358V20.7158L24 19.0278L19 20.7158Z" fill="#477BFF"></path><path d="M23.4989 27.0002L23.4709 26.9992C23.4006 26.9952 23.332 26.9765 23.2695 26.9443C23.207 26.9121 23.1519 26.8671 23.1079 26.8122L21.1079 24.3122C21.034 24.2079 21.0027 24.0793 21.0205 23.9528C21.0383 23.8262 21.1038 23.7112 21.2036 23.6314C21.3034 23.5515 21.4299 23.5128 21.5573 23.5232C21.6847 23.5336 21.8033 23.5923 21.8889 23.6872L23.5399 25.7512L26.6449 22.6462C26.7392 22.5551 26.8655 22.5047 26.9966 22.5059C27.1277 22.507 27.2531 22.5596 27.3458 22.6523C27.4385 22.745 27.4911 22.8704 27.4922 23.0015C27.4933 23.1326 27.4429 23.2589 27.3519 23.3532L23.8519 26.8532C23.8057 26.8999 23.7508 26.937 23.6902 26.9623C23.6296 26.9875 23.5645 27.0004 23.4989 27.0002Z" fill="#477BFF"></path></g><defs><clipPath id="clip0_1442_1237"><rect width="24" height="24" fill="white" transform="translate(12 12)"></rect></clipPath></defs></svg>