<svg xmlns="http://www.w3.org/2000/svg" width="101" height="101" viewBox="0 0 101 101" fill="none"><rect x="0.5" y="0.13269" width="100" height="100" rx="30" fill="#DDFFF7"></rect><path d="M71.9881 25.0602V78.7788C71.9881 80.2462 70.8007 81.4336 69.3333 81.4336H27.3592C25.8918 81.4336 24.6992 80.2462 24.6992 78.7788V25.0602C24.6992 23.5877 25.8918 22.4002 27.3592 22.4002H69.3333C69.6824 22.4002 70.028 22.4691 70.3504 22.6028C70.6729 22.7366 70.9658 22.9326 71.2124 23.1797C71.459 23.4267 71.6544 23.72 71.7875 24.0427C71.9206 24.3654 71.9888 24.7112 71.9881 25.0602Z" fill="#FFCB8F"></path><path d="M71.9877 25.0602V78.7736C71.9877 80.241 70.7899 81.4336 69.3328 81.4336H27.3536C26.2388 81.4336 25.2847 80.7388 24.8906 79.7536C25.1966 79.8832 25.5284 79.9506 25.8758 79.9506C38.201 79.9506 49.3595 74.9573 57.4328 66.8788C57.8788 66.4328 58.3195 65.9714 58.7499 65.5047C59.7869 64.3795 60.7669 63.1973 61.6847 61.9632C62.0943 61.4136 62.4936 60.8484 62.8825 60.278C64.3084 58.1625 65.5632 55.9173 66.621 53.5632L66.8388 53.0654C66.9891 52.7128 67.1395 52.3602 67.2795 52.0077C69.3588 46.8484 70.5047 41.2173 70.5047 35.3165V23.5721C70.5047 23.2299 70.4373 22.898 70.3128 22.5869C71.2928 22.981 71.9877 23.9402 71.9877 25.0602Z" fill="black" fill-opacity="0.0196078"></path><path d="M35.7903 78.5454C35.7955 79.6136 35.417 80.6299 34.7222 81.4336H27.3592C25.8918 81.4336 24.6992 80.2462 24.6992 78.7788V67.6928C25.1591 68.1049 25.527 68.6092 25.7789 69.173C26.0309 69.7367 26.1612 70.3472 26.1614 70.9647L26.1666 74.138H27.5666L31.357 74.1277C32.5392 74.1277 33.6488 74.5839 34.4837 75.4136C35.3288 76.2588 35.7903 77.3684 35.7903 78.5454ZM71.9881 48.0669V78.7736C71.9881 80.241 70.7903 81.4336 69.3333 81.4336H68.9911L65.5948 79.3751C61.374 76.8188 58.7503 72.1677 58.7503 67.2314V55.6528L60.0051 55.4091C62.9192 54.8388 65.1696 53.9469 66.8392 53.0654C69.3229 51.7536 70.5259 50.4573 70.697 50.2602L71.9829 48.0565L71.9881 48.0669Z" fill="black" fill-opacity="0.0196078"></path><path opacity="0.5" d="M71.9868 25.0597V26.2471C71.9868 24.7802 70.7942 23.5877 69.3278 23.5877H27.3548C27.0055 23.5875 26.6596 23.6562 26.3369 23.7898C26.0142 23.9234 25.7209 24.1193 25.474 24.3663C25.227 24.6133 25.0311 24.9065 24.8975 25.2292C24.7639 25.552 24.6952 25.8978 24.6953 26.2471V25.0597C24.6952 24.7104 24.7639 24.3646 24.8975 24.0418C25.0311 23.7191 25.227 23.4259 25.474 23.1789C25.7209 22.9319 26.0142 22.736 26.3369 22.6024C26.6596 22.4688 27.0055 22.4001 27.3548 22.4002H69.3278C70.7942 22.4002 71.9868 23.5928 71.9868 25.0597Z" fill="white"></path><path d="M69.3296 70.9045L68.7805 71.4531L67.0819 73.1471L63.4144 76.8037L62.3115 77.9019L61.4414 78.772V70.904L69.3296 70.9045Z" fill="#D4F4FF"></path><path opacity="0.1" d="M69.3309 70.9035L67.8879 72.3465H63.9119C63.5593 72.3467 63.2213 72.4868 62.972 72.7361C62.7227 72.9854 62.5826 73.3235 62.5824 73.676V77.6385L61.4453 78.7757V70.9035H69.3309Z" fill="#384B7D"></path><path d="M69.3334 25.0602V70.9025H61.452V78.7788H27.3594V25.0602H69.3334Z" fill="#F3FCFF"></path><path d="M65.3854 25.0592V48.3262C65.3854 63.3886 53.1826 75.5868 38.1253 75.5868H27.3516V25.0592H65.3854Z" fill="white"></path><path opacity="0.05" d="M35.7905 78.5454C35.7905 78.6232 35.7905 78.701 35.7801 78.7788H27.3594V74.138H27.5668L31.3572 74.1277C32.5394 74.1277 33.649 74.5839 34.4838 75.4136C35.329 76.2588 35.7905 77.3684 35.7905 78.5454ZM69.3334 51.4839V70.9025H61.452V75.538C59.7253 73.1477 58.7505 70.2439 58.7505 67.2314V55.6528L60.0053 55.4091C64.7601 54.4758 67.752 52.6921 69.3334 51.4839ZM56.8014 22.3971V25.2511C56.8012 25.9378 56.5284 26.5965 56.0428 27.0821C55.5572 27.5678 54.8987 27.8408 54.2119 27.8411H42.4742C41.7873 27.8409 41.1286 27.568 40.6429 27.0823C40.1572 26.5966 39.8843 25.9379 39.8842 25.2511V22.3971H56.8014Z" fill="black"></path><path opacity="0.05" d="M56.8 25.0592V25.2511C56.7999 25.9378 56.527 26.5965 56.0414 27.0821C55.5559 27.5678 54.8973 27.8408 54.2105 27.8411H42.4728C41.7859 27.8409 41.1272 27.568 40.6416 27.0823C40.1559 26.5966 39.8829 25.9379 39.8828 25.2511V25.0592H56.8Z" fill="black"></path><path d="M55.2467 22.2364V25.2511C55.2467 25.8209 54.7857 26.2871 54.2112 26.2871H42.4735C41.8985 26.2871 41.4375 25.8204 41.4375 25.2511V22.2364C41.4375 21.6665 41.899 21.2004 42.4735 21.2004H45.9699C45.9698 20.8889 46.0311 20.5803 46.1503 20.2925C46.2695 20.0047 46.4442 19.7431 46.6645 19.5228C46.8848 19.3025 47.1464 19.1278 47.4342 19.0086C47.722 18.8894 48.0305 18.8281 48.3421 18.8282C48.6538 18.8277 48.9624 18.8887 49.2505 19.0078C49.5385 19.1268 49.8002 19.3015 50.0206 19.5219C50.2409 19.7423 50.4157 20.004 50.5347 20.292C50.6538 20.58 50.7148 20.8887 50.7143 21.2004H54.2107C54.7852 21.2004 55.2467 21.6671 55.2467 22.2364Z" fill="#76819F"></path><path opacity="0.05" d="M55.2467 24.0237V25.2511C55.2467 25.8209 54.7857 26.2871 54.2112 26.2871H42.4735C41.8985 26.2871 41.4375 25.8204 41.4375 25.2511V24.0237C41.4375 24.5931 41.899 25.0592 42.4735 25.0592H54.2107C54.7852 25.0592 55.2467 24.5931 55.2467 24.0237Z" fill="black"></path><path d="M49.2316 21.1615C49.2345 21.2803 49.2136 21.3985 49.1702 21.5092C49.1267 21.6198 49.0616 21.7206 48.9786 21.8057C48.8956 21.8908 48.7964 21.9584 48.6868 22.0046C48.5773 22.0507 48.4597 22.0746 48.3408 22.0746C48.222 22.0746 48.1043 22.0509 47.9947 22.0048C47.8852 21.9587 47.786 21.8911 47.7029 21.8061C47.6199 21.721 47.5547 21.6203 47.5111 21.5096C47.4676 21.399 47.4466 21.2808 47.4495 21.162C47.455 20.9294 47.5513 20.7082 47.7177 20.5456C47.8842 20.383 48.1076 20.292 48.3403 20.2919C48.573 20.2919 48.7964 20.3828 48.963 20.5453C49.1295 20.7077 49.2259 20.9289 49.2316 21.1615Z" fill="white"></path><path d="M38.9039 68.2876V73.5334C38.9038 73.8361 38.7835 74.1263 38.5695 74.3403C38.3555 74.5543 38.0653 74.6746 37.7626 74.6747H32.5168C32.214 74.6747 31.9237 74.5545 31.7096 74.3405C31.4955 74.1264 31.3751 73.8362 31.375 73.5334V68.2876C31.375 67.6571 31.8863 67.1458 32.5168 67.1458H37.7626C38.3931 67.1458 38.9039 67.6571 38.9039 68.2876Z" fill="#D4F4FF"></path><path opacity="0.2" d="M38.9039 72.3917V73.5334C38.9039 74.1671 38.3906 74.6747 37.7626 74.6747H32.5168C31.8889 74.6747 31.375 74.1665 31.375 73.5334V72.3917C31.375 73.0253 31.8883 73.5334 32.5168 73.5334H37.7626C38.39 73.5334 38.9039 73.0253 38.9039 72.3917Z" fill="#384B7D"></path><path opacity="0.5" d="M34.2632 70.9077C34.2632 71.7466 33.8121 72.4259 33.2588 72.4259C32.705 72.4259 32.2539 71.7466 32.2539 70.9077C32.2539 70.0739 32.705 69.3946 33.2588 69.3946C33.8126 69.3946 34.2632 70.0739 34.2632 70.9077Z" fill="white"></path><path d="M38.9039 56.8371V62.0825C38.9039 62.3852 38.7837 62.6755 38.5697 62.8896C38.3556 63.1038 38.0654 63.2241 37.7626 63.2242H32.5168C32.214 63.2242 31.9235 63.104 31.7094 62.8898C31.4953 62.6757 31.375 62.3853 31.375 62.0825V56.8371C31.375 56.2066 31.8863 55.6959 32.5168 55.6959H37.7626C38.3931 55.6959 38.9039 56.2066 38.9039 56.8371Z" fill="#D4F4FF"></path><path opacity="0.2" d="M38.9039 60.9407V62.0825C38.9039 62.7161 38.3906 63.2242 37.7626 63.2242H32.5168C31.8889 63.2242 31.375 62.7161 31.375 62.0825V60.9407C31.375 61.5743 31.8883 62.0825 32.5168 62.0825H37.7626C38.39 62.0825 38.9039 61.5743 38.9039 60.9407Z" fill="#384B7D"></path><path opacity="0.5" d="M34.2632 59.4567C34.2632 60.2956 33.8121 60.9754 33.2588 60.9754C32.705 60.9754 32.2539 60.2962 32.2539 59.4567C32.2539 58.6234 32.705 57.9442 33.2588 57.9442C33.8126 57.9442 34.2632 58.6234 34.2632 59.4567Z" fill="white"></path><path d="M38.9039 45.3862V50.632C38.9039 50.9347 38.7837 51.2251 38.5697 51.4392C38.3556 51.6533 38.0654 51.7737 37.7626 51.7738H32.5168C32.214 51.7738 31.9235 51.6535 31.7094 51.4394C31.4953 51.2253 31.375 50.9348 31.375 50.632V45.3862C31.375 44.7557 31.8863 44.2444 32.5168 44.2444H37.7626C38.3931 44.2444 38.9039 44.7557 38.9039 45.3862Z" fill="#D4F4FF"></path><path opacity="0.2" d="M38.9039 49.4902V50.632C38.9039 51.2657 38.3906 51.7738 37.7626 51.7738H32.5168C31.8889 51.7738 31.375 51.2657 31.375 50.632V49.4897C31.375 50.1234 31.8883 50.6315 32.5168 50.6315H37.7626C38.39 50.6315 38.9039 50.1239 38.9039 49.4902Z" fill="#384B7D"></path><path opacity="0.5" d="M34.2632 48.0062C34.2632 48.8452 33.8121 49.5245 33.2588 49.5245C32.705 49.5245 32.2539 48.8452 32.2539 48.0062C32.2539 47.173 32.705 46.4937 33.2588 46.4937C33.8126 46.4937 34.2632 47.173 34.2632 48.0062Z" fill="white"></path><path d="M60.3047 56.9351V67.2334C60.3043 69.4075 60.8649 71.5449 61.9322 73.439C62.9995 75.3331 64.5374 76.9197 66.3973 78.0456L71.9931 81.4336L77.5916 78.0456C79.4512 76.9195 80.9889 75.3327 82.0562 73.4387C83.1235 71.5447 83.6842 69.4074 83.6842 67.2334V56.9357C75.6637 55.3651 72.1814 51.4394 71.9931 51.122C71.8075 51.4394 68.3225 55.3645 60.3047 56.9351Z" fill="white"></path><path d="M60.3047 56.9325V58.2553C68.3231 56.6852 71.808 52.759 71.9905 52.4422C72.1788 52.759 75.6637 56.6852 83.6821 58.2553V56.9325C75.6637 55.3619 72.1788 51.4414 71.9905 51.1241C71.808 51.4414 68.3231 55.3619 60.3047 56.9325Z" fill="#F3FCFF"></path><path d="M62.457 58.6556V67.236C62.457 70.8771 64.3937 74.3179 67.5131 76.2054L71.9921 78.9193L72.4136 78.6637L74.5344 77.3819L75.9551 76.5211L76.4767 76.2048C78.4746 74.9951 79.9897 73.1471 80.8167 71.0212C81.2834 69.8281 81.5323 68.5458 81.5323 67.236V58.6556C76.9315 57.4899 73.8069 55.5756 71.9915 54.1045C71.9252 54.16 71.8531 54.2155 71.781 54.2767C70.4432 55.3314 68.4568 56.5799 65.7538 57.618C65.2301 57.8163 64.7008 57.9996 64.1666 58.1677C63.6024 58.3497 63.0323 58.5124 62.457 58.6556Z" fill="#00FFC1"></path><g opacity="0.5"><path d="M65.7533 57.618L75.9546 76.5217L76.4767 76.2054C78.4746 74.9951 79.9897 73.1471 80.8167 71.0212L71.781 54.2767C70.4433 55.3314 68.4563 56.5799 65.7533 57.618ZM62.457 58.6556V60.2096L72.4136 78.6637L74.5344 77.3819L64.1666 58.1671C63.6025 58.3493 63.0323 58.5123 62.457 58.6556Z" fill="white"></path></g><path d="M76.2639 68.7439C76.1032 69.0296 75.7988 69.1903 75.4861 69.1903C75.3342 69.1903 75.1828 69.1545 75.0397 69.0742L72.8863 67.8323V70.316C72.8863 70.8076 72.4844 71.2094 71.9929 71.2094C71.7561 71.2088 71.5293 71.1144 71.3619 70.947C71.1945 70.7796 71.1002 70.5528 71.0995 70.316V67.8235L68.9373 69.0742C68.8013 69.1521 68.647 69.1922 68.4903 69.1903C68.1864 69.1903 67.8826 69.0296 67.7218 68.7439C67.6035 68.5386 67.5709 68.2949 67.6311 68.0657C67.6913 67.8365 67.8394 67.6403 68.0433 67.5197L70.1967 66.2778L68.0438 65.036C67.8399 64.9153 67.6918 64.7191 67.6316 64.4899C67.5714 64.2607 67.604 64.017 67.7224 63.8117C67.9635 63.3829 68.5173 63.2398 68.9373 63.4809L71.0995 64.7321V62.2391C71.0995 61.7475 71.5013 61.3457 71.9929 61.3457C72.4844 61.3457 72.8863 61.7475 72.8863 62.2391V64.7228L75.0397 63.4809C75.2462 63.3642 75.4904 63.3335 75.7194 63.3954C75.9484 63.4573 76.1438 63.6069 76.2634 63.8117C76.5138 64.2405 76.3619 64.7855 75.9331 65.0354L73.7797 66.2778L75.9331 67.5197C76.0353 67.5782 76.125 67.6562 76.1969 67.7495C76.2689 67.8427 76.3218 67.9492 76.3525 68.0628C76.3832 68.1765 76.3912 68.2952 76.376 68.4119C76.3608 68.5287 76.3227 68.6419 76.2639 68.7439Z" fill="white"></path><path d="M55.9973 33.5567C55.9973 34.7555 55.6353 35.9128 55.0743 36.9841C53.8138 39.3937 51.5484 40.816 50.1302 41.9012C49.3794 42.4757 48.8661 42.7982 48.8661 42.7982C48.8661 42.7982 41.7344 38.8777 41.7344 33.5567C41.7344 31.3317 43.6705 29.5294 46.0588 29.5294C47.1311 29.5294 48.1101 29.8923 48.8661 30.4917C49.6216 29.8923 50.601 29.5294 51.6718 29.5294C53.1693 29.5294 54.4889 30.2377 55.2641 31.3131C55.7403 31.9642 55.997 32.75 55.9973 33.5567Z" fill="#FF4B3A"></path><path opacity="0.05" d="M55.9957 33.5567C55.9957 34.7555 55.6343 35.9134 55.0733 36.9851C53.8127 39.3947 51.5473 40.8165 50.1292 41.9012C49.3794 42.4757 48.865 42.7993 48.865 42.7993C48.865 42.7993 41.7344 38.8783 41.7344 33.5567C41.7344 33.4125 41.7416 33.272 41.7587 33.1315C42.2057 38.2145 48.865 41.8395 48.865 41.8395C48.865 41.8395 49.3794 41.518 50.1292 40.9435C51.5473 39.8588 53.8127 38.4349 55.0733 36.0259C55.5524 35.1112 55.8853 34.1343 55.9713 33.1222C55.9879 33.2648 55.9957 33.4089 55.9957 33.5567Z" fill="black"></path><path opacity="0.3" d="M55.9957 33.5567C55.9957 33.678 55.9916 33.7999 55.9843 33.9197C55.9289 33.215 55.679 32.5396 55.2625 31.9685C54.4879 30.8931 53.1677 30.1837 51.6708 30.1837C50.599 30.1837 49.6205 30.5467 48.8651 31.1471C48.1091 30.5467 47.1311 30.1837 46.0588 30.1837C43.7753 30.1837 41.9065 31.8321 41.7474 33.9197C41.7383 33.7989 41.734 33.6778 41.7344 33.5567C41.7344 31.3322 43.6705 29.5294 46.0588 29.5294C47.1311 29.5294 48.1091 29.8923 48.8651 30.4928C49.6205 29.8923 50.599 29.5294 51.6708 29.5294C53.1672 29.5294 54.4879 30.2382 55.2625 31.3136C55.7381 31.9647 55.9948 32.7499 55.9957 33.5562V33.5567Z" fill="white"></path><path opacity="0.3" d="M44.3374 34.2857C44.2094 35.0194 43.7245 35.5483 43.2527 35.4659C42.7829 35.3839 42.505 34.7223 42.6325 33.9891C42.7601 33.2575 43.2449 32.7286 43.7152 32.8105C44.1871 32.8925 44.4645 33.5541 44.3374 34.2857Z" fill="white"></path><path d="M27.5765 81.4253L24.846 81.4294H23.7763C23.4 81.4316 23.0271 81.359 22.6792 81.2156C22.3313 81.0723 22.0154 80.8612 21.7499 80.5946C21.4825 80.3292 21.2703 80.0135 21.1255 79.6658C20.9807 79.318 20.9062 78.945 20.9063 78.5682C20.9011 76.9888 22.1834 75.7024 23.7675 75.6977L25.9649 75.6936H27.563L27.5765 81.4253Z" fill="#00C5EA"></path><path opacity="0.05" d="M27.5726 80.2431V81.4211L23.777 81.4336C23.0167 81.4333 22.2874 81.1319 21.7486 80.5954C21.2099 80.0588 20.9056 79.3307 20.9023 78.5703C20.9023 78.3691 20.9267 78.1674 20.9698 77.9782C21.085 78.5222 21.3564 79.0208 21.7506 79.4129C22.2692 79.9314 22.9837 80.2493 23.7775 80.2493L27.5726 80.2431Z" fill="black"></path><path opacity="0.05" d="M25.9696 78.5589C25.9761 79.6243 25.574 80.6516 24.846 81.4294H23.7763C23.4 81.4316 23.0271 81.359 22.6792 81.2156C22.3313 81.0723 22.0154 80.8612 21.7499 80.5946C21.4825 80.3292 21.2703 80.0135 21.1255 79.6658C20.9807 79.318 20.9062 78.945 20.9063 78.5682C20.9011 76.9888 22.1834 75.7024 23.7675 75.6977L25.9649 75.6936L25.9696 78.5589Z" fill="black"></path><path d="M27.5744 81.4242L31.3715 81.418C31.748 81.4172 32.1205 81.3423 32.468 81.1975C32.8155 81.0528 33.131 80.841 33.3966 80.5743C33.6622 80.3075 33.8727 79.9911 34.016 79.6431C34.1594 79.295 34.2327 78.9221 34.2319 78.5457C34.2312 78.1693 34.1562 77.7967 34.0115 77.4492C33.8667 77.1018 33.6549 76.7862 33.3882 76.5206C33.1215 76.255 32.805 76.0445 32.457 75.9012C32.1089 75.7579 31.736 75.6845 31.3596 75.6853L27.5625 75.6915L27.5744 81.4242Z" fill="white"></path><path d="M34.232 78.5459C34.2333 78.9221 34.1604 79.2947 34.0174 79.6426C33.8744 79.9905 33.6642 80.3068 33.3988 80.5733C33.1334 80.8398 32.818 81.0513 32.4707 81.1957C32.1234 81.3402 31.7511 81.4146 31.375 81.4149L27.5742 81.4211V80.2431L31.375 80.2368C32.0313 80.2348 32.6671 80.0077 33.176 79.5933C33.685 79.1789 34.0363 78.6023 34.1713 77.96C34.2138 78.1493 34.232 78.3448 34.232 78.5459Z" fill="#F3FCFF"></path><path d="M18.8789 74.7727L18.8856 78.5703C18.8814 78.9499 18.9526 79.3266 19.0951 79.6784C19.2376 80.0303 19.4486 80.3504 19.7158 80.62C19.983 80.8897 20.3011 81.1036 20.6516 81.2493C21.0022 81.395 21.3782 81.4696 21.7578 81.4688C22.1374 81.468 22.5131 81.3918 22.863 81.2447C23.213 81.0975 23.5302 80.8823 23.7963 80.6115C24.0624 80.3408 24.272 80.0198 24.413 79.6674C24.5541 79.3149 24.6237 78.938 24.6179 78.5584L24.6116 74.7613L18.8789 74.7727Z" fill="#00C5EA"></path><path opacity="0.05" d="M23.4284 74.7623H24.607L24.619 78.5579C24.619 79.3183 24.3178 80.0478 23.7813 80.5867C23.2448 81.1257 22.5166 81.4301 21.7562 81.4336C21.5545 81.4336 21.3533 81.4092 21.1641 81.3662C21.7079 81.2507 22.2063 80.9791 22.5983 80.5848C23.1173 80.0662 23.4347 79.3517 23.4347 78.5584L23.4284 74.7623Z" fill="black"></path><path d="M24.6101 74.7613L24.6038 70.9642C24.6023 70.204 24.2988 69.4755 23.7601 68.9391C23.2214 68.4027 22.4917 68.1022 21.7315 68.1038C20.9713 68.1053 20.2429 68.4089 19.7064 68.9475C19.17 69.4862 18.8695 70.2159 18.8711 70.9761L18.8773 74.7732L24.6101 74.7613Z" fill="white"></path><path d="M21.7349 68.1045C22.111 68.1033 22.4837 68.1762 22.8316 68.3192C23.1794 68.4621 23.4957 68.6723 23.7622 68.9377C24.0287 69.2031 24.2403 69.5185 24.3847 69.8658C24.5291 70.2131 24.6036 70.5855 24.6038 70.9616L24.6101 74.7623H23.4315L23.4258 70.9616C23.4237 70.3052 23.1965 69.6693 22.782 69.1604C22.3675 68.6514 21.7908 68.3001 21.1484 68.1652C21.3409 68.1233 21.5379 68.1029 21.7349 68.1045Z" fill="#F3FCFF"></path><path d="M17.4394 81.178H17.3139C17.2799 81.178 17.2462 81.1847 17.2147 81.1977C17.1833 81.2107 17.1547 81.2298 17.1306 81.2539C17.1065 81.278 17.0875 81.3065 17.0744 81.338C17.0614 81.3694 17.0547 81.4032 17.0547 81.4372C17.0547 81.4713 17.0614 81.505 17.0744 81.5364C17.0875 81.5679 17.1065 81.5965 17.1306 81.6205C17.1547 81.6446 17.1833 81.6637 17.2147 81.6767C17.2462 81.6898 17.2799 81.6965 17.3139 81.6965H17.4394C17.5082 81.6965 17.5741 81.6692 17.6228 81.6205C17.6714 81.5719 17.6987 81.506 17.6987 81.4372C17.6987 81.3685 17.6714 81.3025 17.6228 81.2539C17.5741 81.2053 17.5082 81.178 17.4394 81.178ZM83.6843 81.178H83.5039C83.4698 81.178 83.4361 81.1847 83.4047 81.1977C83.3732 81.2107 83.3446 81.2298 83.3205 81.2539C83.2965 81.278 83.2774 81.3065 83.2644 81.338C83.2513 81.3694 83.2446 81.4032 83.2446 81.4372C83.2446 81.4713 83.2513 81.505 83.2644 81.5364C83.2774 81.5679 83.2965 81.5965 83.3205 81.6205C83.3446 81.6446 83.3732 81.6637 83.4047 81.6767C83.4361 81.6898 83.4698 81.6965 83.5039 81.6965H83.6843C83.7531 81.6965 83.819 81.6692 83.8676 81.6205C83.9163 81.5719 83.9436 81.506 83.9436 81.4372C83.9436 81.3685 83.9163 81.3025 83.8676 81.2539C83.819 81.2053 83.7531 81.178 83.6843 81.178ZM31.497 27.7031C31.4484 27.6545 31.3824 27.6272 31.3137 27.6272C31.2449 27.6272 31.179 27.6545 31.1304 27.7031L29.8538 28.9797C29.829 29.0036 29.8093 29.0323 29.7957 29.0639C29.7821 29.0955 29.775 29.1295 29.7747 29.164C29.7744 29.1984 29.7809 29.2325 29.794 29.2644C29.807 29.2962 29.8262 29.3252 29.8506 29.3495C29.8749 29.3739 29.9039 29.3931 29.9357 29.4062C29.9676 29.4192 30.0017 29.4258 30.0362 29.4255C30.0706 29.4252 30.1046 29.418 30.1362 29.4044C30.1679 29.3908 30.1965 29.3711 30.2204 29.3463L31.497 28.0697C31.5456 28.0211 31.5729 27.9552 31.5729 27.8864C31.5729 27.8177 31.5456 27.7518 31.497 27.7031ZM31.0573 26.6013C31.0087 26.5527 30.9427 26.5254 30.874 26.5254C30.8052 26.5254 30.7393 26.5527 30.6907 26.6013L28.7514 28.5405C28.7257 28.5642 28.7051 28.5929 28.6907 28.6247C28.6764 28.6566 28.6686 28.691 28.6679 28.726C28.6672 28.7609 28.6736 28.7957 28.6867 28.8281C28.6997 28.8605 28.7192 28.8899 28.7439 28.9146C28.7687 28.9393 28.7981 28.9588 28.8306 28.9718C28.863 28.9848 28.8977 28.9911 28.9327 28.9904C28.9676 28.9896 29.0021 28.9818 29.0339 28.9674C29.0658 28.953 29.0944 28.9323 29.118 28.9066L31.0573 26.9679C31.1059 26.9193 31.1332 26.8533 31.1332 26.7846C31.1332 26.7158 31.1059 26.6499 31.0573 26.6013ZM48.3416 22.3121C48.9762 22.3121 49.4927 21.7962 49.4927 21.161C49.4927 20.5258 48.9757 20.0104 48.3416 20.0104C47.7074 20.0104 47.1905 20.5268 47.1905 21.1615C47.1905 21.7962 47.7069 22.3126 48.3416 22.3126V22.3121ZM48.3416 20.5289C48.4667 20.5289 48.589 20.566 48.693 20.6355C48.7971 20.705 48.8781 20.8038 48.926 20.9194C48.9739 21.035 48.9864 21.1622 48.962 21.2849C48.9376 21.4076 48.8774 21.5203 48.7889 21.6088C48.7004 21.6973 48.5877 21.7575 48.465 21.7819C48.3423 21.8064 48.2151 21.7938 48.0995 21.7459C47.9839 21.6981 47.8851 21.617 47.8156 21.513C47.7461 21.4089 47.709 21.2866 47.709 21.1615C47.709 20.8125 47.9926 20.5289 48.3416 20.5289ZM45.1854 23.8469H45.2092C45.3523 23.8469 45.4565 23.7313 45.4565 23.5877C45.4565 23.444 45.3285 23.3284 45.1854 23.3284C45.1166 23.3284 45.0506 23.3557 45.002 23.4043C44.9534 23.453 44.9261 23.5189 44.9261 23.5877C44.9261 23.6564 44.9534 23.7224 45.002 23.771C45.0506 23.8196 45.1166 23.8469 45.1854 23.8469ZM42.8479 72.4591H54.1951C54.2639 72.4591 54.3298 72.4317 54.3785 72.3831C54.4271 72.3345 54.4544 72.2686 54.4544 72.1998C54.4544 72.131 54.4271 72.0651 54.3785 72.0165C54.3298 71.9679 54.2639 71.9405 54.1951 71.9405H42.8479C42.7791 71.9405 42.7132 71.9679 42.6645 72.0165C42.6159 72.0651 42.5886 72.131 42.5886 72.1998C42.5886 72.2686 42.6159 72.3345 42.6645 72.3831C42.7132 72.4317 42.7791 72.4591 42.8479 72.4591ZM37.7628 66.886H32.5164C32.1451 66.8867 31.7893 67.0346 31.5268 67.2972C31.2644 67.5598 31.1168 67.9158 31.1164 68.2871V73.5334C31.1169 73.9046 31.2646 74.2604 31.527 74.523C31.7894 74.7855 32.1452 74.9333 32.5164 74.934H37.7628C38.1341 74.9335 38.4902 74.7859 38.7528 74.5233C39.0154 74.2608 39.1632 73.9048 39.1638 73.5334V68.2871C39.1632 67.9157 39.0154 67.5597 38.7528 67.2972C38.4902 67.0346 38.1341 66.8864 37.7628 66.886ZM38.6453 73.5334C38.6453 74.0198 38.2491 74.4154 37.7628 74.4154H32.5164C32.2826 74.415 32.0586 74.3219 31.8934 74.1566C31.7281 73.9913 31.6352 73.7672 31.6349 73.5334V68.2871C31.6349 67.8007 32.03 67.4051 32.5164 67.4051H37.7628C38.2491 67.4051 38.6453 67.8007 38.6453 68.2871V73.5334Z" fill="#384B7D"></path><path d="M37.5328 69.2738L34.963 71.6351L33.8436 70.5665C33.7931 70.5228 33.7278 70.5002 33.6612 70.5034C33.5945 70.5065 33.5316 70.5352 33.4856 70.5835C33.4395 70.6318 33.4138 70.6959 33.4137 70.7626C33.4137 70.8293 33.4393 70.8935 33.4853 70.9419L34.7805 72.178C34.8283 72.2231 34.8913 72.2485 34.957 72.2491C35.0227 72.2497 35.0861 72.2254 35.1347 72.1811L37.8833 69.6559C37.934 69.6095 37.9641 69.5448 37.9671 69.4761C37.9701 69.4074 37.9456 69.3403 37.8992 69.2896C37.8527 69.2389 37.788 69.2088 37.7193 69.2058C37.6506 69.2029 37.5835 69.2273 37.5328 69.2738ZM42.8487 61.0086H54.1959C54.2647 61.0086 54.3306 60.9813 54.3793 60.9327C54.4279 60.8841 54.4552 60.8181 54.4552 60.7494C54.4552 60.6806 54.4279 60.6147 54.3793 60.566C54.3306 60.5174 54.2647 60.4901 54.1959 60.4901H42.8487C42.7799 60.4901 42.714 60.5174 42.6653 60.566C42.6167 60.6147 42.5894 60.6806 42.5894 60.7494C42.5894 60.8181 42.6167 60.8841 42.6653 60.9327C42.714 60.9813 42.7799 61.0086 42.8487 61.0086ZM37.7636 55.4361H32.5172C32.146 55.4368 31.7902 55.5846 31.5278 55.8471C31.2654 56.1096 31.1177 56.4654 31.1172 56.8366V62.0825C31.1176 62.4537 31.2652 62.8097 31.5276 63.0723C31.7901 63.335 32.1459 63.4828 32.5172 63.4835H37.7636C38.135 63.4831 38.4911 63.3354 38.7538 63.0727C39.0164 62.81 39.1642 62.4539 39.1646 62.0825V56.8371C39.164 56.4658 39.0162 56.1098 38.7536 55.8472C38.491 55.5847 38.1349 55.4365 37.7636 55.4361ZM38.6461 62.0825C38.6461 62.5694 38.2499 62.965 37.7636 62.965H32.5172C32.2834 62.9646 32.0592 62.8714 31.894 62.706C31.7287 62.5405 31.6358 62.3163 31.6357 62.0825V56.8371C31.6357 56.3508 32.0308 55.9551 32.5172 55.9551H37.7636C38.2499 55.9551 38.6461 56.3508 38.6461 56.8371V62.0825Z" fill="#384B7D"></path><path d="M37.5328 57.8234L34.963 60.1842L33.843 59.116C33.7933 59.0686 33.7267 59.0429 33.6579 59.0445C33.5892 59.0462 33.5239 59.0751 33.4764 59.1248C33.429 59.1746 33.4033 59.2412 33.4049 59.31C33.4066 59.3787 33.4355 59.444 33.4853 59.4914L34.781 60.7271C34.8285 60.7725 34.8914 60.7982 34.9571 60.7989C35.0228 60.7996 35.0863 60.7752 35.1347 60.7307L37.8833 58.2055C37.934 58.159 37.9641 58.0943 37.9671 58.0256C37.9701 57.9569 37.9456 57.8899 37.8992 57.8392C37.8527 57.7885 37.788 57.7584 37.7193 57.7554C37.6506 57.7524 37.5835 57.7769 37.5328 57.8234ZM66.6668 46.46H42.8487C42.7799 46.46 42.714 46.4873 42.6653 46.536C42.6167 46.5846 42.5894 46.6505 42.5894 46.7193C42.5894 46.788 42.6167 46.854 42.6653 46.9026C42.714 46.9512 42.7799 46.9785 42.8487 46.9785H66.6673C66.7361 46.9785 66.802 46.9512 66.8507 46.9026C66.8993 46.854 66.9266 46.788 66.9266 46.7193C66.9266 46.6505 66.8993 46.5846 66.8507 46.536C66.802 46.4873 66.7361 46.46 66.6673 46.46H66.6668ZM54.1959 49.0391H42.8487C42.7799 49.0391 42.714 49.0665 42.6653 49.1151C42.6167 49.1637 42.5894 49.2296 42.5894 49.2984C42.5894 49.3672 42.6167 49.4331 42.6653 49.4817C42.714 49.5303 42.7799 49.5577 42.8487 49.5577H54.1959C54.2647 49.5577 54.3306 49.5303 54.3793 49.4817C54.4279 49.4331 54.4552 49.3672 54.4552 49.2984C54.4552 49.2296 54.4279 49.1637 54.3793 49.1151C54.3306 49.0665 54.2647 49.0391 54.1959 49.0391ZM37.7636 43.9851H32.5172C32.1459 43.9858 31.7901 44.1337 31.5276 44.3963C31.2652 44.6589 31.1176 45.0149 31.1172 45.3862V50.632C31.1176 51.0033 31.2652 51.3593 31.5276 51.6219C31.7901 51.8845 32.1459 52.0324 32.5172 52.0331H37.7636C38.135 52.0327 38.4911 51.8849 38.7538 51.6223C39.0164 51.3596 39.1642 51.0035 39.1646 50.632V45.3862C39.1642 45.0147 39.0164 44.6586 38.7538 44.3959C38.4911 44.1333 38.135 43.9855 37.7636 43.9851ZM38.6461 50.632C38.6461 51.1184 38.2499 51.5145 37.7636 51.5145H32.5172C32.2834 51.5141 32.0592 51.421 31.894 51.2555C31.7287 51.0901 31.6358 50.8659 31.6357 50.632V45.3862C31.6357 44.8993 32.0308 44.5037 32.5172 44.5037H37.7636C38.2499 44.5037 38.6461 44.8993 38.6461 45.3862V50.632Z" fill="#384B7D"></path><path d="M37.5328 46.3724L34.963 48.7337L33.843 47.6656C33.8187 47.6407 33.7896 47.621 33.7575 47.6076C33.7254 47.5942 33.6909 47.5874 33.6561 47.5876C33.6213 47.5879 33.5869 47.5951 33.555 47.6089C33.523 47.6227 33.4942 47.6427 33.4701 47.6679C33.4461 47.6931 33.4274 47.7228 33.4151 47.7554C33.4028 47.7879 33.3972 47.8226 33.3986 47.8574C33.4001 47.8922 33.4084 47.9263 33.4233 47.9577C33.4382 47.9892 33.4592 48.0173 33.4852 48.0405L34.781 49.2766C34.8285 49.322 34.8915 49.3476 34.9572 49.3482C35.0229 49.3488 35.0864 49.3243 35.1346 49.2797L37.8833 46.7545C37.9084 46.7315 37.9287 46.7038 37.9431 46.6729C37.9575 46.6421 37.9656 46.6087 37.9671 46.5747C37.9685 46.5406 37.9633 46.5067 37.9516 46.4747C37.94 46.4427 37.9221 46.4133 37.8991 46.3882C37.8761 46.3631 37.8484 46.3428 37.8175 46.3284C37.7866 46.3141 37.7532 46.3059 37.7192 46.3044C37.6852 46.303 37.6512 46.3082 37.6192 46.3199C37.5873 46.3315 37.5579 46.3494 37.5328 46.3724Z" fill="#384B7D"></path><path d="M83.7335 56.6805C76.4291 55.2505 72.7243 51.7261 72.2447 51.0297V25.0587C72.2439 24.2847 71.936 23.5427 71.3888 22.9954C70.8415 22.4481 70.0994 22.1403 69.3254 22.1394H55.495C55.471 21.8146 55.3252 21.5108 55.0869 21.2887C54.8486 21.0667 54.5353 20.9427 54.2096 20.9417H50.96C50.9019 20.3356 50.634 19.7689 50.2025 19.3394C49.9586 19.0943 49.6685 18.8999 49.3489 18.7677C49.0294 18.6354 48.6868 18.5678 48.341 18.5689C47.6882 18.5698 47.059 18.8129 46.5752 19.2511C46.0915 19.6894 45.7876 20.2916 45.7225 20.9411H42.4719C42.1461 20.9421 41.8327 21.066 41.5944 21.2881C41.3561 21.5102 41.2104 21.814 41.1865 22.1389H27.3519C25.7455 22.1389 24.4378 23.4487 24.4378 25.0582V69.4019C24.1635 68.9288 23.7698 68.536 23.2961 68.2628C22.8224 67.9895 22.2853 67.8454 21.7384 67.8448H21.7322C21.3217 67.8453 20.9153 67.9268 20.5363 68.0845C20.1573 68.2423 19.8131 68.4732 19.5234 68.7641C19.2337 69.0549 19.0043 69.4001 18.8481 69.7797C18.6919 70.1594 18.6121 70.5661 18.6133 70.9766L18.6252 78.5703C18.6267 79.0883 18.757 79.5978 19.0043 80.053C19.2515 80.5082 19.6081 80.8948 20.0418 81.1779H19.1204C19.0864 81.1779 19.0526 81.1847 19.0212 81.1977C18.9897 81.2107 18.9612 81.2298 18.9371 81.2539C18.913 81.278 18.8939 81.3065 18.8809 81.338C18.8679 81.3694 18.8611 81.4032 18.8611 81.4372C18.8611 81.4713 18.8679 81.505 18.8809 81.5364C18.8939 81.5679 18.913 81.5965 18.9371 81.6205C18.9612 81.6446 18.9897 81.6637 19.0212 81.6767C19.0526 81.6898 19.0864 81.6965 19.1204 81.6965H81.9477C82.0165 81.6965 82.0824 81.6692 82.1311 81.6205C82.1797 81.5719 82.207 81.506 82.207 81.4372C82.207 81.3685 82.1797 81.3025 82.1311 81.2539C82.0824 81.2053 82.0165 81.1779 81.9477 81.1779H72.9151L77.7249 78.2675C81.5604 75.9445 83.943 71.7165 83.943 67.2334V56.9357C83.9429 56.8756 83.922 56.8174 83.8838 56.7711C83.8456 56.7247 83.7925 56.6931 83.7335 56.6816V56.6805ZM71.7262 25.0587V51.0479C71.5203 51.3382 70.8151 52.0538 69.5899 52.9073V25.0587C69.5899 24.9899 69.5626 24.924 69.514 24.8754C69.4653 24.8267 69.3994 24.7994 69.3306 24.7994H55.5043V22.658H69.326C69.9625 22.6586 70.5727 22.9118 71.0228 23.3619C71.4729 23.8119 71.7255 24.4222 71.7262 25.0587ZM60.2534 56.6805C60.1945 56.6921 60.1414 56.7237 60.1032 56.7701C60.065 56.8164 60.044 56.8746 60.044 56.9346V57.912H42.8452C42.7765 57.912 42.7105 57.9393 42.6619 57.988C42.6133 58.0366 42.586 58.1025 42.586 58.1713C42.586 58.24 42.6133 58.306 42.6619 58.3546C42.7105 58.4032 42.7765 58.4305 42.8452 58.4305H60.0445V67.2334C60.0445 67.9521 60.1119 68.6625 60.2311 69.3609H42.8452C42.7765 69.3609 42.7105 69.3882 42.6619 69.4368C42.6133 69.4855 42.586 69.5514 42.586 69.6202C42.586 69.6889 42.6133 69.7549 42.6619 69.8035C42.7105 69.8521 42.7765 69.8794 42.8452 69.8794H60.3271C60.5189 70.7832 60.8093 71.66 61.1852 72.4974V78.5174H34.4903C34.4827 77.6943 34.1501 76.9076 33.5651 76.3286C32.98 75.7496 32.1899 75.4252 31.3668 75.426H31.3595L27.6106 75.4312V25.318H41.1839C41.2005 25.6488 41.3434 25.9606 41.5831 26.1891C41.8229 26.4177 42.1412 26.5455 42.4724 26.5463H54.2091C54.5403 26.5454 54.8587 26.4174 55.0984 26.1888C55.3381 25.9602 55.481 25.6483 55.4976 25.3174H69.0714V53.2547C67.1694 54.4862 64.258 55.8965 60.2534 56.6805ZM61.7032 73.5391C62.2429 74.5016 62.9027 75.3916 63.6669 76.1877L61.7032 78.1514V73.5391ZM24.876 78.5579L24.8718 75.956L27.3047 75.9513L27.3151 81.1624L23.7788 81.1728C23.688 81.1728 23.5983 81.1572 23.5086 81.1484C23.9317 80.8621 24.2778 80.4759 24.5162 80.0241C24.7547 79.5723 24.8783 79.0687 24.876 78.5579ZM27.8336 81.1645L27.8237 75.9502L31.36 75.9445H31.3668C32.8067 75.9445 33.9692 77.106 33.9734 78.5459C33.9741 79.2372 33.7005 79.9006 33.2127 80.3904C32.7249 80.8802 32.0627 81.1566 31.3714 81.1588L27.8336 81.1645ZM42.4724 21.4597H45.9688C46.0375 21.4597 46.1035 21.4323 46.1521 21.3837C46.2007 21.3351 46.228 21.2692 46.228 21.2004C46.2287 20.6402 46.4516 20.1032 46.8477 19.7071C47.2438 19.311 47.7808 19.0881 48.341 19.0874C48.9062 19.0874 49.4371 19.3073 49.8359 19.706C50.2346 20.1048 50.454 20.6357 50.454 21.2004C50.454 21.2692 50.4813 21.3351 50.5299 21.3837C50.5785 21.4323 50.6445 21.4597 50.7132 21.4597H54.2091C54.415 21.4599 54.6124 21.5419 54.758 21.6875C54.9036 21.8331 54.9855 22.0305 54.9858 22.2364V22.3862C54.9858 22.3904 54.9832 22.394 54.9832 22.3987C54.9832 22.4034 54.9858 22.407 54.9858 22.4111V25.0462C54.9858 25.0504 54.9832 25.054 54.9832 25.0587C54.9832 25.0634 54.9858 25.067 54.9858 25.0711V25.2511C54.9855 25.457 54.9036 25.6544 54.758 25.8C54.6124 25.9456 54.415 26.0275 54.2091 26.0278H42.4724C42.2665 26.0275 42.0691 25.9456 41.9235 25.8C41.7779 25.6544 41.6959 25.457 41.6957 25.2511V23.8469H44.1731C44.2419 23.8469 44.3078 23.8196 44.3565 23.771C44.4051 23.7224 44.4324 23.6564 44.4324 23.5877C44.4324 23.5189 44.4051 23.453 44.3565 23.4043C44.3078 23.3557 44.2419 23.3284 44.1731 23.3284H41.6957V22.2364C41.6959 22.0305 41.7779 21.8331 41.9235 21.6875C42.0691 21.5419 42.2665 21.4599 42.4724 21.4597ZM27.3514 22.6574H41.1771V24.7989H27.3519C27.2831 24.7989 27.2172 24.8262 27.1686 24.8748C27.1199 24.9235 27.0926 24.9894 27.0926 25.0582V75.4338L24.9563 75.4374V25.0582C24.9563 24.4224 25.2086 23.8125 25.6577 23.3624C26.1068 22.9123 26.7161 22.6588 27.3519 22.6574H27.3514ZM19.1313 70.9761C19.1302 70.6337 19.1966 70.2944 19.3268 69.9778C19.457 69.6611 19.6484 69.3732 19.8899 69.1305C20.1315 68.8879 20.4186 68.6953 20.7347 68.5637C21.0508 68.4321 21.3898 68.3642 21.7322 68.3638H21.7379C22.4282 68.3645 23.0901 68.6386 23.5788 69.1261C24.0675 69.6136 24.3432 70.2749 24.3455 70.9652L24.3507 74.5031L19.137 74.5134L19.1313 70.9761ZM19.1432 78.5703L19.138 75.0325L24.3517 75.0216L24.3574 78.5594C24.3585 78.9019 24.292 79.2411 24.1617 79.5578C24.0315 79.8745 23.8401 80.1624 23.5984 80.405C23.3568 80.6477 23.0697 80.8403 22.7536 80.9718C22.4374 81.1034 22.0985 81.1713 21.756 81.1717H21.7508C21.0605 81.171 20.3986 80.8969 19.9099 80.4094C19.4212 79.9219 19.1456 79.2606 19.1432 78.5703ZM33.054 81.1785C33.4245 80.94 33.7404 80.626 33.981 80.2569C34.2216 79.8879 34.3816 79.4721 34.4504 79.037H61.4445C61.4786 79.037 61.5124 79.0302 61.5438 79.0172C61.5753 79.0041 61.604 78.9849 61.628 78.9608L64.0381 76.5507C64.714 77.2034 65.46 77.7793 66.2626 78.268L70.5331 80.8539C70.1666 81.0672 69.75 81.1793 69.326 81.1785H33.054ZM70.9733 81.1785C70.9888 81.1681 71.0044 81.1582 71.0189 81.1474L71.0692 81.1785H70.9733ZM83.4245 67.2334C83.4245 71.5371 81.1378 75.5945 77.4563 77.8242L71.9922 81.1302L66.5306 77.8242C62.8491 75.5945 60.5625 71.5366 60.5625 67.2334V57.1482C67.3592 55.7679 71.0376 52.6314 71.9932 51.5431C72.954 52.6309 76.6485 55.7726 83.4245 57.1482V67.2334Z" fill="#384B7D"></path><path d="M71.8315 53.906C70.4294 55.0467 67.3395 57.1493 62.3908 58.4051C62.3349 58.4193 62.2853 58.4518 62.2499 58.4973C62.2145 58.5429 62.1953 58.5989 62.1953 58.6566V67.2334C62.1953 70.9694 64.1807 74.4927 67.3769 76.4273L71.8579 79.1412C71.8983 79.166 71.9448 79.1791 71.9922 79.1791C72.0396 79.1791 72.0861 79.166 72.1265 79.1412L76.6106 76.4273C79.8063 74.4922 81.7922 70.9694 81.7922 67.234V58.6556C81.7922 58.5979 81.773 58.5418 81.7376 58.4963C81.7022 58.4507 81.6526 58.4183 81.5967 58.4041C76.6578 57.1503 73.5633 55.0472 72.1581 53.9049C72.112 53.8674 72.0543 53.8468 71.9948 53.8468C71.9353 53.8468 71.8776 53.8674 71.8315 53.9049V53.906ZM81.2737 67.2334C81.2737 70.7889 79.3842 74.1417 76.3426 75.984L71.9922 78.616L67.6449 75.984C64.6033 74.1422 62.7138 70.7894 62.7138 67.2334V58.8573C67.2509 57.6761 70.2417 55.8333 71.9953 54.4395C73.4819 55.6165 76.5334 57.6206 81.2737 58.8573V67.2334Z" fill="#384B7D"></path><path d="M79.7544 61.2414C79.8231 61.2414 79.8891 61.2141 79.9377 61.1655C79.9863 61.1169 80.0136 61.0509 80.0136 60.9822V60.0105C80.0136 59.9417 79.9863 59.8758 79.9377 59.8271C79.8891 59.7785 79.8231 59.7512 79.7544 59.7512C79.6856 59.7512 79.6197 59.7785 79.571 59.8271C79.5224 59.8758 79.4951 59.9417 79.4951 60.0105V60.9816C79.4951 61.0504 79.5224 61.1164 79.571 61.165C79.6197 61.2136 79.6856 61.2409 79.7544 61.2409V61.2414ZM79.7544 64.8389C79.8231 64.8389 79.8891 64.8116 79.9377 64.763C79.9863 64.7144 80.0136 64.6484 80.0136 64.5797V62.1685C80.0136 62.0998 79.9863 62.0338 79.9377 61.9852C79.8891 61.9366 79.8231 61.9093 79.7544 61.9093C79.6856 61.9093 79.6197 61.9366 79.571 61.9852C79.5224 62.0338 79.4951 62.0998 79.4951 62.1685V64.5797C79.4951 64.6484 79.5224 64.7144 79.571 64.763C79.6197 64.8116 79.6856 64.8389 79.7544 64.8389ZM70.8426 62.2391V64.282L69.0692 63.2564C68.5321 62.9474 67.8139 63.1247 67.5012 63.6816C67.1834 64.226 67.368 64.9338 67.9171 65.2605L69.6806 66.2773L67.914 67.2967C67.3685 67.6218 67.1829 68.3296 67.4992 68.8704C67.8207 69.4434 68.5595 69.6046 69.0698 69.2987L70.8431 68.2731V70.316C70.8431 70.9522 71.3601 71.4692 71.9958 71.4692C72.3014 71.4689 72.5944 71.3474 72.8105 71.1313C73.0266 70.9152 73.1482 70.6222 73.1484 70.3165V68.2808L74.9155 69.2997C75.4496 69.6015 76.1926 69.4019 76.4913 68.8719C76.5671 68.7405 76.6163 68.5953 76.6359 68.4449C76.6556 68.2944 76.6453 68.1415 76.6058 67.9949C76.5662 67.8484 76.4982 67.7111 76.4055 67.591C76.3128 67.4708 76.1973 67.3701 76.0656 67.2946L74.3016 66.2768L76.0667 65.2594C76.1984 65.1838 76.3138 65.0829 76.4064 64.9625C76.4991 64.8421 76.567 64.7047 76.6064 64.558C76.6457 64.4113 76.6557 64.2582 76.6358 64.1077C76.6159 63.9571 76.5664 63.812 76.4903 63.6805C76.335 63.4177 76.083 63.2261 75.7882 63.1467C75.4934 63.0673 75.1792 63.1065 74.913 63.2559L73.1484 64.2737V62.2385C73.1482 61.9329 73.0266 61.6399 72.8105 61.4238C72.5944 61.2077 72.3014 61.0861 71.9958 61.0859C71.6901 61.086 71.3969 61.2075 71.1807 61.4236C70.9645 61.6397 70.8429 61.9333 70.8426 62.2391ZM72.6299 62.2391V64.7228C72.63 64.7683 72.642 64.8129 72.6648 64.8523C72.6875 64.8917 72.7202 64.9244 72.7596 64.9472C72.799 64.97 72.8436 64.9821 72.8891 64.9822C72.9346 64.9823 72.9793 64.9704 73.0188 64.9478L75.1696 63.707C75.3171 63.6247 75.491 63.6033 75.654 63.6472C75.8171 63.6912 75.9566 63.7971 76.0428 63.9424C76.2191 64.2457 76.1118 64.6325 75.8064 64.8109L73.6529 66.0528C73.6134 66.0755 73.5806 66.1082 73.5577 66.1477C73.5349 66.1872 73.5229 66.2319 73.5229 66.2775C73.5229 66.3231 73.5349 66.3679 73.5577 66.4074C73.5806 66.4469 73.6134 66.4796 73.6529 66.5023L75.8048 67.7436C75.878 67.7851 75.9423 67.8407 75.9938 67.9072C76.0454 67.9737 76.0832 68.0497 76.1052 68.131C76.1271 68.2122 76.1327 68.297 76.1217 68.3804C76.1106 68.4638 76.0831 68.5441 76.0407 68.6168C75.8774 68.9067 75.4595 69.0119 75.1722 68.8497L73.0188 67.6078C72.9793 67.5854 72.9347 67.5737 72.8893 67.5738C72.8439 67.574 72.7994 67.586 72.7601 67.6087C72.7208 67.6314 72.6881 67.664 72.6652 67.7032C72.6424 67.7424 72.6302 67.7869 72.6299 67.8323V70.316C72.6299 70.666 72.3447 70.9507 71.9958 70.9507C71.8276 70.9506 71.6663 70.8837 71.5473 70.7648C71.4283 70.6459 71.3614 70.4847 71.3611 70.3165V67.8235C71.3609 67.7781 71.3489 67.7334 71.3261 67.6941C71.3033 67.6548 71.2706 67.6222 71.2312 67.5994C71.1918 67.5767 71.1472 67.5647 71.1018 67.5646C71.0563 67.5646 71.0116 67.5764 70.9722 67.599L68.8064 68.8517C68.5393 69.0125 68.1287 68.9326 67.9487 68.6132C67.8652 68.4674 67.8422 68.2947 67.8848 68.1321C67.9274 67.9696 68.0321 67.8303 68.1764 67.7442L70.3292 66.5023C70.3686 66.4795 70.4014 66.4467 70.4241 66.4073C70.4468 66.3678 70.4588 66.3231 70.4588 66.2775C70.4588 66.232 70.4468 66.1873 70.4241 66.1478C70.4014 66.1084 70.3686 66.0756 70.3292 66.0528L68.1795 64.813C68.0339 64.7267 67.9283 64.5865 67.8856 64.4228C67.8428 64.2591 67.8665 64.0851 67.9513 63.9388C68.0349 63.7945 68.172 63.6891 68.3329 63.6454C68.4938 63.6017 68.6654 63.6233 68.8105 63.7054L70.9727 64.9561C71.012 64.9793 71.0568 64.9917 71.1024 64.992C71.1481 64.9923 71.193 64.9804 71.2325 64.9576C71.2721 64.9348 71.3049 64.9019 71.3276 64.8623C71.3503 64.8227 71.362 64.7777 71.3616 64.7321V62.2391C71.3616 61.8896 71.6458 61.6049 71.9958 61.6049C72.3452 61.6049 72.6299 61.8901 72.6299 62.2391ZM48.7402 43.0259C48.7785 43.0471 48.8216 43.0583 48.8654 43.0583C48.9092 43.0583 48.9523 43.0471 48.9907 43.0259C49.2307 42.8937 53.8414 40.3166 55.5904 36.4692H57.1438C57.2126 36.4692 57.2785 36.4419 57.3272 36.3933C57.3758 36.3447 57.4031 36.2787 57.4031 36.2099C57.4031 36.1412 57.3758 36.0752 57.3272 36.0266C57.2785 35.978 57.2126 35.9507 57.1438 35.9507H55.8055C56.0886 35.1942 56.2561 34.3936 56.2561 33.5562C56.2561 31.1928 54.1997 29.2701 51.6719 29.2701C50.6551 29.2701 49.6668 29.5874 48.8657 30.1671C48.0475 29.5813 47.0658 29.2675 46.0595 29.2701C43.5317 29.2701 41.4747 31.1928 41.4747 33.5562C41.4747 34.3936 41.6422 35.1947 41.9248 35.9507H40.9832C40.9144 35.9507 40.8485 35.978 40.7998 36.0266C40.7512 36.0752 40.7239 36.1412 40.7239 36.2099C40.7239 36.2787 40.7512 36.3447 40.7998 36.3933C40.8485 36.4419 40.9144 36.4692 40.9832 36.4692H42.1405C43.8895 40.3166 48.5001 42.8937 48.7402 43.0259ZM41.9932 33.5557C41.9932 31.4785 43.8169 29.7881 46.0595 29.7881C47.0291 29.7881 47.9681 30.1101 48.7044 30.6945C48.7988 30.7697 48.9326 30.7697 49.0264 30.6945C49.7627 30.1101 50.7023 29.7881 51.6719 29.7881C53.9135 29.7881 55.7371 31.4785 55.7371 33.5557C55.7371 34.391 55.5494 35.1921 55.2393 35.9502H50.9797L49.8975 32.2557C49.8644 32.1427 49.77 32.0587 49.6409 32.0696C49.5833 32.0713 49.528 32.0921 49.4836 32.1287C49.4392 32.1653 49.4083 32.2157 49.3956 32.2718L48.3772 36.8005L47.0592 33.5391C47.0387 33.4891 47.0032 33.4468 46.9577 33.418C46.9121 33.3891 46.8586 33.3752 46.8048 33.3781C46.7509 33.381 46.6993 33.4006 46.6571 33.4342C46.6148 33.4678 46.5841 33.5137 46.5692 33.5655L45.8935 35.9502H42.4921C42.1809 35.1921 41.9932 34.391 41.9932 33.5557ZM46.0895 36.4687C46.1461 36.4688 46.2011 36.4504 46.2462 36.4163C46.2913 36.3822 46.3241 36.3344 46.3395 36.2799L46.8616 34.4351L48.2077 37.7645C48.2286 37.8155 48.2651 37.8586 48.3121 37.8875C48.3591 37.9164 48.4141 37.9296 48.4691 37.9252C48.5241 37.9207 48.5763 37.8989 48.618 37.8628C48.6597 37.8267 48.6889 37.7783 48.7013 37.7245L49.6813 33.3638L50.5369 36.282C50.5526 36.3358 50.5852 36.383 50.63 36.4167C50.6748 36.4503 50.7292 36.4686 50.7852 36.4687H55.007C53.3924 39.7281 49.6025 42.0666 48.8657 42.4991C48.1284 42.0666 44.339 39.7281 42.7238 36.4687H46.0895ZM20.3218 70.651C20.253 70.651 20.1871 70.6783 20.1384 70.7269C20.0898 70.7755 20.0625 70.8415 20.0625 70.9102V73.5334C20.0625 73.6022 20.0898 73.6681 20.1384 73.7168C20.1871 73.7654 20.253 73.7927 20.3218 73.7927C20.3905 73.7927 20.4565 73.7654 20.5051 73.7168C20.5537 73.6681 20.581 73.6022 20.581 73.5334V70.9102C20.581 70.8415 20.5537 70.7755 20.5051 70.7269C20.4565 70.6783 20.3905 70.651 20.3218 70.651Z" fill="#384B7D"></path></svg>