<svg xmlns="http://www.w3.org/2000/svg" width="60" height="61" viewBox="0 0 60 61" fill="none"><path d="M15 31.7588H5.625C5.37636 31.7588 5.1379 31.8576 4.96209 32.0334C4.78627 32.2092 4.6875 32.4476 4.6875 32.6963V36.4463C4.6875 36.6949 4.78627 36.9334 4.96209 37.1092C5.1379 37.285 5.37636 37.3838 5.625 37.3838H16.875C17.1236 37.3838 17.3621 37.285 17.5379 37.1092C17.7137 36.9334 17.8125 36.6949 17.8125 36.4463V34.5713C17.8125 33.0207 16.5506 31.7588 15 31.7588Z" fill="url(#paint0_linear_271_3211)"></path><path d="M54.375 41.1338H5.625C5.37636 41.1338 5.1379 41.2326 4.96209 41.4084C4.78627 41.5842 4.6875 41.8226 4.6875 42.0713V45.8213C4.6875 46.0699 4.78627 46.3084 4.96209 46.4842C5.1379 46.66 5.37636 46.7588 5.625 46.7588H54.375C54.6236 46.7588 54.8621 46.66 55.0379 46.4842C55.2137 46.3084 55.3125 46.0699 55.3125 45.8213V42.0713C55.3125 41.8226 55.2137 41.5842 55.0379 41.4084C54.8621 41.2326 54.6236 41.1338 54.375 41.1338Z" fill="url(#paint1_linear_271_3211)"></path><path d="M53.4375 55.1963H6.5625C6.31386 55.1963 6.0754 55.0975 5.89959 54.9217C5.72377 54.7459 5.625 54.5074 5.625 54.2588C5.625 54.0101 5.72377 53.7717 5.89959 53.5959C6.0754 53.4201 6.31386 53.3213 6.5625 53.3213H53.4375C53.6861 53.3213 53.9246 53.4201 54.1004 53.5959C54.2762 53.7717 54.375 54.0101 54.375 54.2588C54.375 54.5074 54.2762 54.7459 54.1004 54.9217C53.9246 55.0975 53.6861 55.1963 53.4375 55.1963Z" fill="url(#paint2_linear_271_3211)"></path><path d="M22.5 35.5088H5.625C5.37636 35.5088 5.1379 35.6076 4.96209 35.7834C4.78627 35.9592 4.6875 36.1976 4.6875 36.4463V42.0713C4.6875 42.3199 4.78627 42.5584 4.96209 42.7342C5.1379 42.91 5.37636 43.0088 5.625 43.0088H22.5C22.7486 43.0088 22.9871 42.91 23.1629 42.7342C23.3387 42.5584 23.4375 42.3199 23.4375 42.0713V36.4463C23.4375 36.1976 23.3387 35.9592 23.1629 35.7834C22.9871 35.6076 22.7486 35.5088 22.5 35.5088Z" fill="url(#paint3_linear_271_3211)"></path><path d="M3.75 24.2588C2.19938 24.2588 0.9375 25.5207 0.9375 27.0713V52.1766C0.937384 52.358 0.98989 52.5355 1.08865 52.6877C1.18741 52.8398 1.32819 52.96 1.49391 53.0338C1.65964 53.1075 1.84319 53.1316 2.02232 53.1031C2.20145 53.0745 2.36847 52.9947 2.50313 52.8732C2.84696 52.5684 3.29052 52.4001 3.75 52.4001C4.20948 52.4001 4.65304 52.5684 4.99687 52.8732C5.13193 52.9938 5.29884 53.0731 5.4777 53.1015C5.65656 53.1299 5.83982 53.1063 6.00563 53.0335C6.17139 52.9598 6.31224 52.8397 6.41108 52.6876C6.50992 52.5355 6.56252 52.358 6.5625 52.1766V27.0713C6.5625 25.5207 5.30063 24.2588 3.75 24.2588Z" fill="url(#paint4_linear_271_3211)"></path><path d="M3.75 58.0088C5.82107 58.0088 7.5 56.3299 7.5 54.2588C7.5 52.1877 5.82107 50.5088 3.75 50.5088C1.67893 50.5088 0 52.1877 0 54.2588C0 56.3299 1.67893 58.0088 3.75 58.0088Z" fill="url(#paint5_linear_271_3211)"></path><path d="M54.375 31.7588H24.375C23.6291 31.7588 22.9137 32.0551 22.3863 32.5826C21.8588 33.11 21.5625 33.8254 21.5625 34.5713V43.0088H54.375C54.6236 43.0088 54.8621 42.91 55.0379 42.7342C55.2137 42.5584 55.3125 42.3199 55.3125 42.0713V32.6963C55.3125 32.4476 55.2137 32.2092 55.0379 32.0334C54.8621 31.8576 54.6236 31.7588 54.375 31.7588Z" fill="url(#paint6_linear_271_3211)"></path><path d="M30 28.0088C36.731 28.0088 42.1875 22.5523 42.1875 15.8213C42.1875 9.09032 36.731 3.63379 30 3.63379C23.269 3.63379 17.8125 9.09032 17.8125 15.8213C17.8125 22.5523 23.269 28.0088 30 28.0088Z" fill="url(#paint7_linear_271_3211)"></path><path d="M35.625 13.0088H32.8125V10.1963C32.8125 9.94765 32.7137 9.70919 32.5379 9.53338C32.3621 9.35756 32.1236 9.25879 31.875 9.25879H28.125C27.8764 9.25879 27.6379 9.35756 27.4621 9.53338C27.2863 9.70919 27.1875 9.94765 27.1875 10.1963V13.0088H24.375C24.1264 13.0088 23.8879 13.1076 23.7121 13.2834C23.5363 13.4592 23.4375 13.6976 23.4375 13.9463V17.6963C23.4375 17.9449 23.5363 18.1834 23.7121 18.3592C23.8879 18.535 24.1264 18.6338 24.375 18.6338H27.1875V21.4463C27.1875 21.6949 27.2863 21.9334 27.4621 22.1092C27.6379 22.285 27.8764 22.3838 28.125 22.3838H31.875C32.1236 22.3838 32.3621 22.285 32.5379 22.1092C32.7137 21.9334 32.8125 21.6949 32.8125 21.4463V18.6338H35.625C35.8736 18.6338 36.1121 18.535 36.2879 18.3592C36.4637 18.1834 36.5625 17.9449 36.5625 17.6963V13.9463C36.5625 13.6976 36.4637 13.4592 36.2879 13.2834C36.1121 13.1076 35.8736 13.0088 35.625 13.0088Z" fill="url(#paint8_linear_271_3211)"></path><path d="M56.25 28.0088C54.6994 28.0088 53.4375 29.2707 53.4375 30.8213V52.1766C53.4374 52.358 53.4899 52.5355 53.5887 52.6877C53.6874 52.8398 53.8282 52.96 53.9939 53.0338C54.1596 53.1075 54.3432 53.1316 54.5223 53.1031C54.7015 53.0746 54.8685 52.9947 55.0031 52.8732C55.347 52.5684 55.7905 52.4001 56.25 52.4001C56.7095 52.4001 57.153 52.5684 57.4969 52.8732C57.6318 52.9939 57.7987 53.073 57.9776 53.101C58.1564 53.1291 58.3396 53.1049 58.505 53.0313C58.6704 52.9577 58.811 52.8379 58.9099 52.6862C59.0088 52.5346 59.0618 52.3576 59.0625 52.1766V30.8213C59.0625 29.2707 57.8006 28.0088 56.25 28.0088Z" fill="url(#paint9_linear_271_3211)"></path><path d="M56.25 58.0088C58.3211 58.0088 60 56.3299 60 54.2588C60 52.1877 58.3211 50.5088 56.25 50.5088C54.1789 50.5088 52.5 52.1877 52.5 54.2588C52.5 56.3299 54.1789 58.0088 56.25 58.0088Z" fill="url(#paint10_linear_271_3211)"></path><defs><linearGradient id="paint0_linear_271_3211" x1="11.25" y1="31.7588" x2="11.25" y2="37.3838" gradientUnits="userSpaceOnUse"><stop stop-color="#B8E0F9"></stop><stop offset="1" stop-color="#7FC7F1"></stop></linearGradient><linearGradient id="paint1_linear_271_3211" x1="30" y1="41.1338" x2="30" y2="46.7588" gradientUnits="userSpaceOnUse"><stop stop-color="#EBEBEB"></stop><stop offset="1" stop-color="#D8D8DA"></stop></linearGradient><linearGradient id="paint2_linear_271_3211" x1="30" y1="53.3213" x2="30" y2="55.1963" gradientUnits="userSpaceOnUse"><stop stop-color="#EBEBEB"></stop><stop offset="1" stop-color="#D8D8DA"></stop></linearGradient><linearGradient id="paint3_linear_271_3211" x1="14.0625" y1="35.5088" x2="14.0625" y2="43.0088" gradientUnits="userSpaceOnUse"><stop stop-color="white"></stop><stop offset="1" stop-color="#EBEBEB"></stop></linearGradient><linearGradient id="paint4_linear_271_3211" x1="3.75" y1="24.2588" x2="3.75" y2="53.1141" gradientUnits="userSpaceOnUse"><stop stop-color="#EBEBEB"></stop><stop offset="1" stop-color="#D8D8DA"></stop></linearGradient><linearGradient id="paint5_linear_271_3211" x1="3.75" y1="50.5088" x2="3.75" y2="58.0088" gradientUnits="userSpaceOnUse"><stop stop-color="#B8E0F9"></stop><stop offset="1" stop-color="#7FC7F1"></stop></linearGradient><linearGradient id="paint6_linear_271_3211" x1="38.4375" y1="31.7588" x2="38.4375" y2="43.0088" gradientUnits="userSpaceOnUse"><stop stop-color="#B8E0F9"></stop><stop offset="1" stop-color="#7FC7F1"></stop></linearGradient><linearGradient id="paint7_linear_271_3211" x1="30" y1="3.63379" x2="30" y2="28.0088" gradientUnits="userSpaceOnUse"><stop stop-color="#FF738E"></stop><stop offset="1" stop-color="#FF3D62"></stop></linearGradient><linearGradient id="paint8_linear_271_3211" x1="30" y1="9.25879" x2="30" y2="22.3838" gradientUnits="userSpaceOnUse"><stop stop-color="white"></stop><stop offset="1" stop-color="#EBEBEB"></stop></linearGradient><linearGradient id="paint9_linear_271_3211" x1="56.25" y1="28.0088" x2="56.25" y2="53.1141" gradientUnits="userSpaceOnUse"><stop stop-color="#EBEBEB"></stop><stop offset="1" stop-color="#D8D8DA"></stop></linearGradient><linearGradient id="paint10_linear_271_3211" x1="56.25" y1="50.5088" x2="56.25" y2="58.0088" gradientUnits="userSpaceOnUse"><stop stop-color="#B8E0F9"></stop><stop offset="1" stop-color="#7FC7F1"></stop></linearGradient></defs></svg>