<svg xmlns="http://www.w3.org/2000/svg" width="70" height="71" viewBox="0 0 70 71" fill="currentcolor"><path d="M55.571 40.4184H31.2709C30.685 40.4184 30.1231 40.6512 29.7088 41.0654C29.2946 41.4797 29.0618 42.0416 29.0618 42.6275V55.8821H62.1983V62.5094C62.1983 63.0953 62.431 63.6572 62.8453 64.0715C63.2596 64.4858 63.8215 64.7185 64.4074 64.7185C64.9933 64.7185 65.5552 64.4858 65.9695 64.0715C66.3838 63.6572 66.6165 63.0953 66.6165 62.5094V51.4639C66.6165 48.5345 65.4528 45.725 63.3814 43.6536C61.3099 41.5821 58.5005 40.4184 55.571 40.4184ZM9.17992 27.1638C9.17992 26.5779 8.94717 26.016 8.53289 25.6017C8.1186 25.1875 7.55671 24.9547 6.97082 24.9547C6.38493 24.9547 5.82304 25.1875 5.40875 25.6017C4.99446 26.016 4.76172 26.5779 4.76172 27.1638V62.5094C4.76172 63.0953 4.99446 63.6572 5.40875 64.0715C5.82304 64.4858 6.38493 64.7185 6.97082 64.7185C7.55671 64.7185 8.1186 64.4858 8.53289 64.0715C8.94717 63.6572 9.17992 63.0953 9.17992 62.5094V55.8821H24.6436V47.0457H9.17992V27.1638Z"></path><path d="M20.225 42.6274C23.8851 42.6274 26.8523 39.6603 26.8523 36.0001C26.8523 32.3399 23.8851 29.3728 20.225 29.3728C16.5648 29.3728 13.5977 32.3399 13.5977 36.0001C13.5977 39.6603 16.5648 42.6274 20.225 42.6274Z"></path><path d="M31.2718 27.1638C31.2718 27.7496 31.5046 28.3115 31.9189 28.7258C32.3331 29.1401 32.895 29.3729 33.4809 29.3729H37.8991C38.485 29.3729 39.0469 29.1401 39.4612 28.7258C39.8755 28.3115 40.1082 27.7496 40.1082 27.1638V22.7456H44.5264C45.1123 22.7456 45.6742 22.5128 46.0885 22.0985C46.5028 21.6842 46.7355 21.1223 46.7355 20.5365V16.1183C46.7355 15.5324 46.5028 14.9705 46.0885 14.5562C45.6742 14.1419 45.1123 13.9092 44.5264 13.9092H40.1082V9.49096C40.1082 8.90507 39.8755 8.34318 39.4612 7.92889C39.0469 7.5146 38.485 7.28186 37.8991 7.28186H33.4809C32.895 7.28186 32.3331 7.5146 31.9189 7.92889C31.5046 8.34318 31.2718 8.90507 31.2718 9.49096V13.9092H26.8536C26.2677 13.9092 25.7058 14.1419 25.2916 14.5562C24.8773 14.9705 24.6445 15.5324 24.6445 16.1183V20.5365C24.6445 21.1223 24.8773 21.6842 25.2916 22.0985C25.7058 22.5128 26.2677 22.7456 26.8536 22.7456H31.2718V27.1638Z"></path></svg>