<svg xmlns="http://www.w3.org/2000/svg" width="70" height="71" viewBox="0 0 70 71" fill="currentcolor"><path d="M46.4527 38.7197H64.1255V35.4061H61.9164V28.7788H60.8118V23.256H58.6027V28.7788H57.4982V35.4061H46.4527V38.7197ZM38.7208 7.79235H36.5117V13.293L38.7208 12.8512V7.79235ZM43.139 5.58325H40.9299V12.4094L43.139 11.9675V5.58325ZM47.5572 7.79235H45.3481V11.5257L47.5572 11.0839V7.79235Z"></path><path d="M40.654 64.6105C41.4431 64.2888 42.2872 64.1237 43.1392 64.1245V38.7198H44.2438V33.1971H51.9756V12.4536L32.0938 16.43V62.1948C33.6068 61.805 35.1961 61.8232 36.6998 62.2475C38.2036 62.6719 39.5679 63.4872 40.654 64.6105ZM44.2438 19.9425H48.662V26.5698H44.2438V19.9425ZM35.4074 19.9425H39.8256V26.5698H35.4074V19.9425ZM35.4074 30.988H39.8256V37.6153H35.4074V30.988ZM35.4074 42.0335H39.8256V48.6608H35.4074V42.0335ZM35.4074 53.079H39.8256V59.7062H35.4074V53.079ZM51.9756 61.9154C52.7356 61.9154 53.4745 62.0181 54.1847 62.2014V45.3471H49.7665V62.2081C50.4875 62.0169 51.2298 61.9185 51.9756 61.9154ZM59.6291 66.3335H59.7075C60.0819 66.3335 60.4475 66.3744 60.812 66.4208V45.3471H56.3938V63.0961C57.7385 63.8716 58.8545 64.9884 59.6291 66.3335Z"></path><path d="M65.2335 68.3062V40.9288H45.3516V64.5286C45.4421 64.5607 45.5382 64.575 45.6277 64.6115C46.1991 64.0237 46.8497 63.5185 47.5607 63.1104V43.1379H63.0244V67.0073C63.8198 67.3309 64.5639 67.7685 65.2335 68.3062Z"></path><path d="M65.4351 71.8563C64.8557 70.8498 64.0214 70.0137 63.0163 69.432C62.0111 68.8503 60.8705 68.5435 59.7091 68.5426C59.2276 68.5437 58.7476 68.597 58.2776 68.7017C57.8786 67.4725 57.1288 66.3869 56.1206 65.5785C55.1123 64.7702 53.8896 64.2744 52.603 64.1523C51.3165 64.0302 50.0224 64.2871 48.88 64.8913C47.7377 65.4956 46.797 66.4208 46.174 67.553C45.382 66.8019 44.3183 66.3335 43.1409 66.3335C41.9634 66.3335 40.8997 66.8019 40.1078 67.553C39.4796 66.4152 38.5308 65.4871 37.3794 64.8842C36.2279 64.2813 34.9247 64.0302 33.6317 64.162C32.3387 64.2938 31.113 64.8028 30.1069 65.6256C29.1009 66.4485 28.3589 67.5489 27.9732 68.7901C27.5229 68.6321 27.0498 68.5485 26.5726 68.5426L26.0038 68.5824C25.4764 67.65 24.6281 66.9409 23.6169 66.5872C22.6058 66.2335 21.5005 66.2592 20.5069 66.6595C19.5132 67.0599 18.6989 67.8077 18.2154 68.7636C17.732 69.7196 17.6123 70.8187 17.8787 71.8563H15.6309C15.5654 71.4917 15.5306 71.1222 15.5271 70.7517C15.5271 67.0968 18.4995 64.1244 22.1544 64.1244C23.9217 64.1244 25.5929 64.8336 26.8189 66.0442C27.5833 64.8236 28.6369 63.8103 29.8863 63.0939V23.2561H14.4226V34.9422C15.2102 35.2499 15.9531 35.6615 16.6317 36.1661V34.3016H18.8408V36.5107H17.0536C17.4612 36.8509 17.8533 37.2165 18.2134 37.6285C19.5583 37.7029 20.8698 38.0757 22.0528 38.7198H23.259V39.4941C25.9176 41.4779 27.6772 44.8423 27.6772 48.6607C27.6772 53.4589 24.9047 57.5402 21.0499 59.0623V60.9334L14.4226 68.6641V71.8563H12.2135V67.8457L18.8408 60.1149V57.3966C22.5808 56.7803 25.4681 53.1032 25.4681 48.6607C25.4681 43.7886 21.9987 39.8244 17.7362 39.8244C17.5462 39.8244 17.3518 39.8365 17.1552 39.8553C15.737 37.8207 13.5555 36.5107 11.1089 36.5107C6.84646 36.5107 3.37707 40.4749 3.37707 45.3471C3.37707 49.7896 6.26436 53.4666 10.0044 54.083V44.2425H12.2135V54.8219C13.3975 56.2137 14.9461 57.115 16.6317 57.3955V59.2976L12.2135 64.4525V54.8219C12.0282 54.6063 11.8535 54.3818 11.6899 54.1493C11.4977 54.1658 11.3055 54.1835 11.1089 54.1835C10.7334 54.1835 10.3667 54.1426 10.0044 54.083V55.5222C9.07986 54.6861 7.93444 54.1835 6.69072 54.1835C3.64547 54.1835 1.16797 57.1558 1.16797 60.8108C1.16797 64.0118 3.0689 66.6881 5.58617 67.3044V71.8563H1.16797V74.0654H69.6501V71.8563H65.4351ZM18.8408 32.0925H16.6317V29.8834H18.8408V32.0925ZM18.8408 27.6743H16.6317V25.4652H18.8408V27.6743ZM23.259 36.5107H21.0499V34.3016H23.259V36.5107ZM23.259 32.0925H21.0499V29.8834H23.259V32.0925ZM23.259 27.6743H21.0499V25.4652H23.259V27.6743ZM25.4681 25.4652H27.6772V27.6743H25.4681V25.4652ZM25.4681 29.8834H27.6772V32.0925H25.4681V29.8834ZM25.4681 34.3016H27.6772V36.5107H25.4681V34.3016ZM25.4681 40.9289V38.7198H27.6772V40.9289H25.4681ZM7.79527 67.3044C8.61263 67.1045 9.36152 66.6815 10.0044 66.1005V71.8563H7.79527V67.3044Z"></path></svg>