<svg xmlns="http://www.w3.org/2000/svg" width="60" height="61" viewBox="0 0 60 61" fill="none"><g clip-path="url(#clip0_271_3228)"><path d="M10.4414 19.2734C10.2083 19.2734 9.98475 19.366 9.81993 19.5309C9.6551 19.6957 9.5625 19.9192 9.5625 20.1523V26.6043C9.5625 27.0898 9.95602 27.4832 10.4414 27.4832C10.9268 27.4832 11.3203 27.0898 11.3203 26.6043V20.1523C11.3203 19.9192 11.2277 19.6957 11.0629 19.5309C10.8981 19.366 10.6745 19.2734 10.4414 19.2734Z" fill="#8CAABD"></path><path d="M5.43359 31.8901H15.451V59.543H5.43359V31.8901Z" fill="#EDF7FF"></path><path d="M15.4492 35.9375H25.4666V59.543H15.4492V35.9375Z" fill="#8CAABD"></path><path d="M25.4688 24.4824H35.4862V59.5429H25.4688V24.4824Z" fill="#FFE20D"></path><path d="M35.4844 18.144H45.5018V59.5431H35.4844V18.144Z" fill="#91EDFF"></path><path d="M40.8164 18.144H45.5039V59.5431H40.8164V18.144Z" fill="#70E8FF"></path><path d="M45.5039 39.5159H55.5213V59.5431H45.5039V39.5159Z" fill="#EDF7FF"></path><path d="M50.832 39.5159H55.5195V59.5431H50.832V39.5159Z" fill="#D9ECFC" stroke="#E1EEFA" stroke-miterlimit="10"></path><path d="M13.8385 31.8679H7.04688V30.0002C7.04688 28.1248 8.56715 26.6045 10.4426 26.6045C12.3181 26.6045 13.8384 28.1248 13.8384 30.0002L13.8385 31.8679Z" fill="#91EDFF"></path><path d="M8.57422 36.9912H12.3096C12.795 36.9912 13.1885 36.5978 13.1885 36.1123C13.1885 35.6268 12.795 35.2334 12.3096 35.2334H8.57422C8.08883 35.2334 7.69531 35.6268 7.69531 36.1123C7.69531 36.5978 8.08883 36.9912 8.57422 36.9912ZM12.3096 38.9879H8.57422C8.08883 38.9879 7.69531 39.3813 7.69531 39.8668C7.69531 40.3524 8.08883 40.7458 8.57422 40.7458H12.3096C12.795 40.7458 13.1885 40.3524 13.1885 39.8668C13.1885 39.3813 12.795 38.9879 12.3096 38.9879ZM12.3096 42.7424H8.57422C8.08883 42.7424 7.69531 43.1358 7.69531 43.6213C7.69531 44.1068 8.08883 44.5002 8.57422 44.5002H12.3096C12.795 44.5002 13.1885 44.1068 13.1885 43.6213C13.1885 43.1358 12.795 42.7424 12.3096 42.7424ZM12.3096 46.497H8.57422C8.08883 46.497 7.69531 46.8904 7.69531 47.3759C7.69531 47.8614 8.08883 48.2548 8.57422 48.2548H12.3096C12.795 48.2548 13.1885 47.8614 13.1885 47.3759C13.1885 46.8904 12.795 46.497 12.3096 46.497ZM12.3096 50.2515H8.57422C8.08883 50.2515 7.69531 50.6449 7.69531 51.1304C7.69531 51.6159 8.08883 52.0093 8.57422 52.0093H12.3096C12.795 52.0093 13.1885 51.6159 13.1885 51.1304C13.1885 50.6449 12.795 50.2515 12.3096 50.2515ZM12.3096 54.0061H8.57422C8.08883 54.0061 7.69531 54.3995 7.69531 54.885C7.69531 55.3705 8.08883 55.7639 8.57422 55.7639H12.3096C12.795 55.7639 13.1885 55.3705 13.1885 54.885C13.1885 54.3995 12.795 54.0061 12.3096 54.0061ZM48.5352 44.5002H52.2705C52.756 44.5002 53.1494 44.1068 53.1494 43.6213C53.1494 43.1358 52.756 42.7424 52.2705 42.7424H48.5352C48.0496 42.7424 47.6562 43.1358 47.6562 43.6213C47.6562 44.1068 48.0498 44.5002 48.5352 44.5002ZM52.2705 46.497H48.5352C48.0496 46.497 47.6562 46.8904 47.6562 47.3759C47.6562 47.8614 48.0496 48.2548 48.5352 48.2548H52.2705C52.756 48.2548 53.1494 47.8614 53.1494 47.3759C53.1494 46.8904 52.756 46.497 52.2705 46.497ZM52.2705 50.2515H48.5352C48.0496 50.2515 47.6562 50.6449 47.6562 51.1304C47.6562 51.6159 48.0496 52.0093 48.5352 52.0093H52.2705C52.756 52.0093 53.1494 51.6159 53.1494 51.1304C53.1494 50.6449 52.756 50.2515 52.2705 50.2515ZM52.2705 54.0061H48.5352C48.0496 54.0061 47.6562 54.3995 47.6562 54.885C47.6562 55.3705 48.0496 55.7639 48.5352 55.7639H52.2705C52.756 55.7639 53.1494 55.3705 53.1494 54.885C53.1494 54.3995 52.756 54.0061 52.2705 54.0061ZM37.0179 13.8811H43.9707V18.1439H37.0179V13.8811Z" fill="#8CAABD"></path><path d="M20.6641 39.897H25.4688V56.186H20.6641V39.897Z" fill="#91EDFF"></path><path d="M28.9453 27.5986C28.7122 27.5986 28.4887 27.6912 28.3238 27.8561C28.159 28.0209 28.0664 28.2444 28.0664 28.4775V55.5478C28.0664 56.0334 28.4599 56.4268 28.9453 56.4268C29.4307 56.4268 29.8242 56.0334 29.8242 55.5478V28.4775C29.8242 28.2444 29.7316 28.0209 29.5668 27.8561C29.402 27.6912 29.1784 27.5986 28.9453 27.5986ZM32.2266 27.5986C32.1111 27.5986 31.9968 27.6213 31.8902 27.6655C31.7836 27.7097 31.6867 27.7744 31.605 27.856C31.5234 27.9376 31.4587 28.0345 31.4145 28.1412C31.3704 28.2478 31.3476 28.3621 31.3477 28.4775V55.5478C31.3477 56.0334 31.7411 56.4268 32.2266 56.4268C32.7121 56.4268 33.1055 56.0334 33.1055 55.5478V28.4775C33.1055 27.992 32.7121 27.5986 32.2266 27.5986Z" fill="#FFBE00"></path><path d="M38.8998 23.3748C40.0309 23.3748 40.0328 21.6169 38.8998 21.6169C37.7687 21.6169 37.7668 23.3748 38.8998 23.3748ZM38.8998 27.0076C40.0309 27.0076 40.0328 25.2498 38.8998 25.2498C37.7687 25.2498 37.7668 27.0076 38.8998 27.0076ZM38.8998 30.6404C40.0309 30.6404 40.0328 28.8826 38.8998 28.8826C37.7687 28.8826 37.7668 30.6404 38.8998 30.6404ZM38.8998 34.2732C40.0309 34.2732 40.0328 32.5154 38.8998 32.5154C37.7687 32.5154 37.7668 34.2732 38.8998 34.2732ZM38.8998 37.906C40.0309 37.906 40.0328 36.1482 38.8998 36.1482C37.7687 36.1482 37.7668 37.906 38.8998 37.906ZM38.8998 41.5388C40.0309 41.5388 40.0328 39.781 38.8998 39.781C37.7687 39.781 37.7668 41.5388 38.8998 41.5388ZM38.8998 45.1716C40.0309 45.1716 40.0328 43.4138 38.8998 43.4138C37.7687 43.4138 37.7668 45.1716 38.8998 45.1716ZM38.8998 48.8044C40.0309 48.8044 40.0328 47.0466 38.8998 47.0466C37.7687 47.0466 37.7668 48.8044 38.8998 48.8044ZM38.8998 52.4373C40.0309 52.4373 40.0328 50.6794 38.8998 50.6794C37.7687 50.6794 37.7668 52.4373 38.8998 52.4373ZM38.8998 56.0701C40.0309 56.0701 40.0328 54.3123 38.8998 54.3123C37.7687 54.3123 37.7668 56.0701 38.8998 56.0701ZM42.0899 23.3748C43.221 23.3748 43.2229 21.6169 42.0899 21.6169C40.9588 21.6169 40.9569 23.3748 42.0899 23.3748ZM42.0899 27.0076C43.221 27.0076 43.2229 25.2498 42.0899 25.2498C40.9588 25.2498 40.9569 27.0076 42.0899 27.0076ZM42.0899 30.6404C43.221 30.6404 43.2229 28.8826 42.0899 28.8826C40.9588 28.8826 40.9569 30.6404 42.0899 30.6404ZM42.0899 34.2732C43.221 34.2732 43.2229 32.5154 42.0899 32.5154C40.9588 32.5154 40.9569 34.2732 42.0899 34.2732ZM42.0899 37.906C43.221 37.906 43.2229 36.1482 42.0899 36.1482C40.9588 36.1482 40.9569 37.906 42.0899 37.906ZM42.0899 41.5388C43.221 41.5388 43.2229 39.781 42.0899 39.781C40.9588 39.781 40.9569 41.5388 42.0899 41.5388ZM42.0899 45.1716C43.221 45.1716 43.2229 43.4138 42.0899 43.4138C40.9588 43.4138 40.9569 45.1716 42.0899 45.1716ZM42.0899 48.8044C43.221 48.8044 43.2229 47.0466 42.0899 47.0466C40.9588 47.0466 40.9569 48.8044 42.0899 48.8044ZM42.0899 52.4373C43.221 52.4373 43.2229 50.6794 42.0899 50.6794C40.9588 50.6794 40.9569 52.4373 42.0899 52.4373ZM42.0899 56.0701C43.221 56.0701 43.2229 54.3123 42.0899 54.3123C40.9588 54.3123 40.9569 56.0701 42.0899 56.0701Z" fill="white"></path><path d="M59.1211 58.7642H0.878906C0.393516 58.7642 0 59.1576 0 59.6431C0 60.1286 0.393516 60.522 0.878906 60.522H59.1211C59.6066 60.522 60 60.1286 60 59.6431C60 59.1576 59.6066 58.7642 59.1211 58.7642Z" fill="#809CAD"></path><path d="M11.9464 17.7147C11.831 17.7148 11.7167 17.6922 11.61 17.648C11.5034 17.6038 11.4065 17.539 11.325 17.4573C11.2048 17.3363 11.0619 17.2404 10.9043 17.1751C10.7468 17.1097 10.5779 17.0763 10.4074 17.0767C10.2369 17.0763 10.068 17.1097 9.91055 17.1751C9.75306 17.2404 9.61011 17.3364 9.48996 17.4573C9.32419 17.6176 9.1021 17.7063 8.87155 17.7043C8.641 17.7024 8.42045 17.6099 8.25743 17.4469C8.09441 17.2838 8.00197 17.0633 8.00003 16.8327C7.99809 16.6022 8.08681 16.3801 8.24707 16.2143C9.43828 15.0233 11.3768 15.0232 12.568 16.2143C12.6909 16.3372 12.7746 16.4939 12.8085 16.6643C12.8424 16.8348 12.825 17.0116 12.7585 17.1722C12.6919 17.3327 12.5793 17.47 12.4347 17.5666C12.2902 17.6631 12.1203 17.7147 11.9464 17.7147Z" fill="#BFD6E6"></path><path d="M14.4734 15.1406C14.358 15.1407 14.2436 15.1181 14.137 15.0739C14.0304 15.0298 13.9335 14.965 13.852 14.8832C12.931 13.9623 11.7077 13.455 10.4072 13.455C9.1068 13.455 7.88359 13.9621 6.96262 14.8832C6.79685 15.0435 6.57476 15.1322 6.34421 15.1302C6.11366 15.1283 5.89311 15.0358 5.73009 14.8728C5.56707 14.7097 5.47463 14.4892 5.47269 14.2586C5.47075 14.0281 5.55947 13.806 5.71973 13.6402C6.9727 12.3874 8.63746 11.6973 10.4072 11.6973C12.1771 11.6973 13.8419 12.3874 15.0948 13.6402C15.2177 13.7632 15.3014 13.9198 15.3353 14.0902C15.3693 14.2607 15.3519 14.4374 15.2853 14.598C15.2188 14.7586 15.1062 14.8959 14.9617 14.9924C14.8171 15.089 14.6472 15.1406 14.4734 15.1406Z" fill="#BFD6E6"></path><path d="M42.0351 10.9178C41.9196 10.918 41.8053 10.8953 41.6986 10.8512C41.5919 10.807 41.495 10.7422 41.4135 10.6605C41.1681 10.415 40.8423 10.2799 40.496 10.2799C40.1497 10.2799 39.824 10.415 39.5786 10.6605C39.4137 10.8253 39.1902 10.9179 38.9571 10.9179C38.724 10.9179 38.5004 10.8253 38.3356 10.6605C38.1707 10.4957 38.0781 10.2721 38.0781 10.039C38.0781 9.80589 38.1707 9.58232 38.3356 9.41749C39.5269 8.2264 41.4653 8.2264 42.6566 9.41749C42.7795 9.54041 42.8632 9.69702 42.8971 9.86752C42.931 10.038 42.9136 10.2147 42.8471 10.3753C42.7806 10.5359 42.6679 10.6732 42.5234 10.7697C42.3788 10.8663 42.2089 10.9179 42.0351 10.9178Z" fill="#BFD6E6"></path><path d="M36.4297 8.34371C36.2559 8.34372 36.086 8.29218 35.9414 8.19561C35.7969 8.09905 35.6842 7.96179 35.6177 7.80119C35.5512 7.6406 35.5338 7.46388 35.5677 7.29339C35.6016 7.12289 35.6853 6.96628 35.8082 6.84336C37.0611 5.59051 38.7259 4.90039 40.4958 4.90039C42.2658 4.90039 43.9304 5.59051 45.1834 6.84348C45.265 6.92508 45.3298 7.02197 45.3739 7.1286C45.4181 7.23523 45.4408 7.34953 45.4408 7.46495C45.4408 7.58037 45.4181 7.69465 45.3739 7.80128C45.3297 7.9079 45.2649 8.00478 45.1833 8.08637C45.0185 8.25116 44.7949 8.34372 44.5618 8.3437C44.3287 8.34368 44.1052 8.25107 43.9404 8.08625C43.0195 7.16539 41.7962 6.65809 40.4958 6.65809C39.1955 6.65809 37.9722 7.16527 37.0512 8.08637C36.9697 8.16808 36.8728 8.23288 36.7661 8.27705C36.6595 8.32121 36.5452 8.34386 36.4297 8.34371Z" fill="#BFD6E6"></path><path d="M32.4722 4.36983C32.9267 3.27366 32.4065 2.01659 31.3104 1.5621C30.2142 1.1076 28.9571 1.62778 28.5026 2.72395C28.0481 3.82012 28.5683 5.07718 29.6645 5.53168C30.7606 5.98618 32.0177 5.466 32.4722 4.36983Z" fill="#FF99C7"></path><path d="M20.2893 9.71963C19.1045 9.71963 18.1406 8.75576 18.1406 7.571C18.1406 6.38623 19.1045 5.42236 20.2893 5.42236C21.474 5.42236 22.4378 6.38623 22.4378 7.571C22.4378 8.75576 21.474 9.71963 20.2893 9.71963Z" fill="#23E8BF"></path><path d="M50.5119 17.1024C51.6986 17.1024 52.6605 16.1405 52.6605 14.9538C52.6605 13.7672 51.6986 12.8052 50.5119 12.8052C49.3253 12.8052 48.3633 13.7672 48.3633 14.9538C48.3633 16.1405 49.3253 17.1024 50.5119 17.1024Z" fill="#4483E8"></path><path d="M30.3832 21.2549C29.898 21.2514 29.5078 20.8541 29.5113 20.3689C29.516 19.8837 29.9121 19.4935 30.3974 19.4971C30.8825 19.5006 31.2728 19.8979 31.2691 20.383C31.2674 20.6149 31.174 20.8367 31.0093 21.0001C30.8447 21.1634 30.6222 21.255 30.3902 21.2549H30.3832ZM30.4113 17.7393C29.9261 17.7358 29.5359 17.3397 29.5395 16.8532C29.543 16.3681 29.9402 15.9778 30.4254 15.9815C30.9107 15.985 31.3009 16.3823 31.2973 16.8674C31.2937 17.3502 30.9 17.7393 30.4184 17.7393H30.4113ZM30.4395 14.2237C30.324 14.2229 30.2098 14.1993 30.1034 14.1543C29.9971 14.1094 29.9007 14.0438 29.8197 13.9615C29.7387 13.8792 29.6747 13.7818 29.6315 13.6747C29.5882 13.5676 29.5665 13.4531 29.5676 13.3376C29.5684 13.2223 29.592 13.1082 29.6369 13.002C29.6818 12.8957 29.7472 12.7994 29.8294 12.7184C29.9115 12.6375 30.0088 12.5735 30.1157 12.5302C30.2226 12.4868 30.337 12.465 30.4523 12.4658C30.9387 12.4705 31.3288 12.8666 31.3241 13.3518C31.3226 13.5836 31.2295 13.8054 31.0651 13.9687C30.9007 14.1321 30.6783 14.2237 30.4465 14.2237H30.4395ZM30.4664 10.7092C30.2332 10.7073 30.0102 10.6129 29.8466 10.4466C29.683 10.2804 29.5921 10.0559 29.5939 9.82268C29.5958 9.58943 29.6903 9.36647 29.8565 9.20285C30.0228 9.03923 30.2472 8.94836 30.4805 8.95022C30.9656 8.95491 31.3569 9.35101 31.3522 9.83616C31.3507 10.0683 31.2575 10.2904 31.0928 10.4539C30.9281 10.6175 30.7054 10.7093 30.4733 10.7092H30.4664ZM19.4062 31.5182C19.4062 31.0319 19.7988 30.6393 20.2852 30.6393C20.7703 30.6393 21.1641 31.0319 21.1641 31.5182C21.1641 32.0033 20.7703 32.3971 20.2852 32.3971C19.7988 32.3971 19.4062 32.0033 19.4062 31.5182ZM19.4062 28.0026C19.4062 27.5162 19.7988 27.1237 20.2852 27.1237C20.7703 27.1237 21.1641 27.5162 21.1641 28.0026C21.1641 28.4877 20.7703 28.8815 20.2852 28.8815C19.7988 28.8815 19.4062 28.4877 19.4062 28.0026ZM19.4062 24.4869C19.4062 24.0006 19.7988 23.608 20.2852 23.608C20.7703 23.608 21.1641 24.0006 21.1641 24.4869C21.1641 24.9721 20.7703 25.3647 20.2852 25.3647C19.7988 25.3647 19.4062 24.9721 19.4062 24.4869ZM19.4062 20.9713C19.4062 20.485 19.7988 20.0924 20.2852 20.0924C20.7703 20.0924 21.1641 20.485 21.1641 20.9713C21.1641 21.4565 20.7703 21.8491 20.2852 21.8491C19.7988 21.8491 19.4062 21.4565 19.4062 20.9713ZM19.4062 17.4557C19.4062 16.9694 19.7988 16.5768 20.2852 16.5768C20.7703 16.5768 21.1641 16.9694 21.1641 17.4557C21.1641 17.9408 20.7703 18.3346 20.2852 18.3346C19.7988 18.3346 19.4062 17.9408 19.4062 17.4557ZM19.4062 13.9401C19.4062 13.4537 19.7988 13.0612 20.2852 13.0612C20.7703 13.0612 21.1641 13.4537 21.1641 13.9401C21.1641 14.4252 20.7703 14.819 20.2852 14.819C19.7988 14.819 19.4062 14.4252 19.4062 13.9401ZM49.6301 34.7983C49.6301 34.313 50.0227 33.9205 50.509 33.9205C50.9941 33.9205 51.3879 34.3131 51.3879 34.7983C51.3879 35.2845 50.9941 35.6783 50.509 35.6783C50.0227 35.6783 49.6301 35.2846 49.6301 34.7983ZM49.6301 31.2838C49.6301 30.7975 50.0227 30.4049 50.509 30.4049C50.9941 30.4049 51.3879 30.7975 51.3879 31.2838C51.3879 31.769 50.9941 32.1627 50.509 32.1627C50.0227 32.1627 49.6301 31.769 49.6301 31.2838ZM49.6301 27.7682C49.6301 27.2819 50.0227 26.8893 50.509 26.8893C50.9941 26.8893 51.3879 27.2819 51.3879 27.7682C51.3879 28.2533 50.9941 28.6471 50.509 28.6471C50.0227 28.6471 49.6301 28.2533 49.6301 27.7682ZM49.6301 24.2526C49.6301 23.7662 50.0227 23.3737 50.509 23.3737C50.9941 23.3737 51.3879 23.7662 51.3879 24.2526C51.3879 24.7377 50.9941 25.1315 50.509 25.1315C50.0227 25.1315 49.6301 24.7377 49.6301 24.2526ZM49.6301 20.7369C49.6301 20.2506 50.0227 19.858 50.509 19.858C50.9941 19.858 51.3879 20.2506 51.3879 20.7369C51.3879 21.2221 50.9941 21.6158 50.509 21.6158C50.0227 21.6158 49.6301 21.2221 49.6301 20.7369Z" fill="#BFD6E6"></path></g><defs><clipPath id="clip0_271_3228"><rect width="60" height="60" fill="white" transform="translate(0 0.961426)"></rect></clipPath></defs></svg>