<svg xmlns="http://www.w3.org/2000/svg" width="101" height="101" viewBox="0 0 101 101" fill="none"><rect x="0.5" y="0.13269" width="100" height="100" rx="30" fill="#DDF5FF"></rect><path d="M75.523 80.9697H25.5498C23.9634 80.9697 22.5264 80.3266 21.4878 79.2865C20.4478 78.2465 19.8047 76.8109 19.8047 75.2245V25.2514C19.8047 23.665 20.4478 22.228 21.4878 21.1894C22.5279 20.1493 23.9634 19.5063 25.5498 19.5063V19.5091H75.523V19.5063C77.1094 19.5063 78.5464 20.1493 79.585 21.1894C80.625 22.2294 81.2681 23.665 81.2681 25.2514V75.2245C81.2681 76.8109 80.625 78.2479 79.585 79.2865C78.5449 80.3266 77.1094 80.9697 75.523 80.9697Z" fill="#3A556A"></path><path fill-rule="evenodd" clip-rule="evenodd" d="M75.6644 21.1296H25.4095C24.3624 21.1652 23.3778 21.592 22.6337 22.3347C22.2499 22.7172 21.9456 23.1718 21.7383 23.6723C21.531 24.1729 21.4248 24.7096 21.4258 25.2514V75.2245C21.4258 76.3243 21.8569 77.3644 22.6337 78.1412C23.4105 78.918 24.4506 79.3491 25.5504 79.3491H75.5236C76.6233 79.3491 77.6634 78.918 78.4402 78.1412C79.217 77.3644 79.6481 76.3243 79.6481 75.2245V25.2514C79.6481 24.1516 79.217 23.1115 78.4402 22.3347C77.6961 21.5906 76.7116 21.1638 75.6644 21.1296Z" fill="white"></path><path d="M50.5469 71.6179C50.5469 71.679 50.5554 71.7374 50.5725 71.7928C50.5554 71.8483 50.5469 71.9067 50.5469 71.9678C50.5469 73.8587 52.0536 75.5333 54.4908 76.7099C56.7942 77.8225 59.9627 78.5111 63.4471 78.5111C66.9329 78.5111 70.0999 77.8225 72.4034 76.7099C74.8406 75.5333 76.3473 73.8601 76.3473 71.9678V52.9626C76.3473 52.6296 76.077 52.3593 75.744 52.3593C67.5446 52.3593 59.8831 52.8487 51.1501 52.8487C50.8172 52.8487 50.5469 53.1191 50.5469 53.452V71.6179Z" fill="#2387FF"></path><path d="M76.3512 68.6386V62.3499C75.6142 63.0215 74.6325 63.6233 73.4559 64.1312C70.8821 65.2439 67.3437 65.9325 63.451 65.9325C59.5569 65.9325 56.0185 65.2439 53.4461 64.1312C52.2695 63.6219 51.2878 63.0215 50.5508 62.3499V68.6386C51.2878 69.3101 52.2695 69.9119 53.4461 70.4199C56.0199 71.5325 59.5583 72.2211 63.4524 72.2211C67.3465 72.2211 70.8849 71.5325 73.4573 70.4199C74.6325 69.9119 75.6142 69.3115 76.3512 68.6386Z" fill="#57A3FF"></path><path d="M76.3512 62.3514V53.119C76.3426 55.0042 74.8374 56.6703 72.4073 57.8441C70.1038 58.9567 66.9353 59.6453 63.4496 59.6453C59.9638 59.6453 56.7967 58.9567 54.4918 57.8441C52.1613 56.7186 50.6817 55.1394 50.5565 53.3495L50.555 53.3595V53.3623L50.5536 53.3751V53.3823L50.5522 53.3894V53.4093L50.5508 53.4221V62.3542C51.2878 63.0258 52.2695 63.6276 53.4461 64.1369C56.0199 65.2495 59.5583 65.9382 63.451 65.9382C67.3451 65.9382 70.8835 65.2495 73.4559 64.1369C74.6325 63.6247 75.6142 63.0229 76.3512 62.3514Z" fill="#99C7FF"></path><path d="M72.4062 48.3613C74.8434 49.538 76.3501 51.2111 76.3501 53.1034C76.3501 54.9943 74.8434 56.6689 72.4062 57.8455C70.1028 58.9581 66.9343 59.6467 63.4485 59.6467C59.9627 59.6467 56.7957 58.9581 54.4908 57.8455C52.0536 56.6689 50.5469 54.9957 50.5469 53.1034C50.5469 51.2126 52.0536 49.538 54.4908 48.3613C56.7942 47.2487 59.9627 46.5601 63.4485 46.5601C66.9343 46.5601 70.1028 47.2487 72.4062 48.3613Z" fill="#BDD9FF"></path><path d="M19.8047 33.0111V25.2514C19.8047 23.665 20.4478 22.228 21.4878 21.1894C22.5279 20.1493 23.9634 19.5063 25.5498 19.5063V19.5091H75.523V19.5063C77.1094 19.5063 78.5464 20.1493 79.585 21.1894C80.625 22.2294 81.2681 23.665 81.2681 25.2514V33.0097H19.8047V33.0111Z" fill="#3A556A"></path><path d="M26.5564 25.6555C26.2234 25.6555 25.9531 25.9258 25.9531 26.2587C25.9531 26.5916 26.2234 26.862 26.5564 26.862H29.0149C29.3478 26.862 29.6182 26.5916 29.6182 26.2587C29.6182 25.9258 29.3478 25.6555 29.0149 25.6555H26.5564Z" fill="#98DB7C"></path><path d="M35.1658 25.6555C34.8328 25.6555 34.5625 25.9258 34.5625 26.2587C34.5625 26.5916 34.8328 26.862 35.1658 26.862H37.6257C37.9586 26.862 38.229 26.5916 38.229 26.2587C38.229 25.9258 37.9586 25.6555 37.6257 25.6555H35.1658Z" fill="#FCD462"></path><path d="M43.7712 25.6555C43.4383 25.6555 43.168 25.9258 43.168 26.2587C43.168 26.5916 43.4383 26.862 43.7712 26.862H46.2312C46.5641 26.862 46.8344 26.5916 46.8344 26.2587C46.8344 25.9258 46.5641 25.6555 46.2312 25.6555H43.7712Z" fill="#27A2DB"></path><path d="M72.1249 45.3081H28.9468C27.7802 45.3081 26.7245 44.8357 25.9605 44.0703C25.1964 43.3062 24.7227 42.2491 24.7227 41.0839V40.9473C24.7227 39.7806 25.195 38.7249 25.9605 37.9609C26.7245 37.1969 27.7816 36.7231 28.9468 36.7231H72.1249C73.2916 36.7231 74.3472 37.1955 75.1113 37.9609C75.8753 38.7249 76.3491 39.7821 76.3491 40.9473V41.0839C76.3491 42.2506 75.8767 43.3062 75.1113 44.0703C74.3472 44.8343 73.2916 45.3081 72.1249 45.3081Z" fill="#76BEDD"></path><path d="M25.3259 49.0201C24.993 49.0201 24.7227 49.2904 24.7227 49.6233C24.7227 49.9563 24.993 50.2266 25.3259 50.2266H46.232C46.5649 50.2266 46.8353 49.9563 46.8353 49.6233C46.8353 49.2904 46.5649 49.0201 46.232 49.0201H25.3259ZM25.3259 54.1847C24.993 54.1847 24.7227 54.455 24.7227 54.788C24.7227 55.1209 24.993 55.3912 25.3259 55.3912H46.232C46.5649 55.3912 46.8353 55.1209 46.8353 54.788C46.8353 54.455 46.5649 54.1847 46.232 54.1847H25.3259ZM25.3259 59.3493C24.993 59.3493 24.7227 59.6197 24.7227 59.9526C24.7227 60.2855 24.993 60.5559 25.3259 60.5559H46.232C46.5649 60.5559 46.8353 60.2855 46.8353 59.9526C46.8353 59.6197 46.5649 59.3493 46.232 59.3493H25.3259ZM25.3259 64.514C24.993 64.514 24.7227 64.7843 24.7227 65.1172C24.7227 65.4502 24.993 65.7205 25.3259 65.7205H46.232C46.5649 65.7205 46.8353 65.4502 46.8353 65.1172C46.8353 64.7843 46.5649 64.514 46.232 64.514H25.3259ZM25.3259 69.6786C24.993 69.6786 24.7227 69.9489 24.7227 70.2819C24.7227 70.6148 24.993 70.8851 25.3259 70.8851H46.232C46.5649 70.8851 46.8353 70.6148 46.8353 70.2819C46.8353 69.9489 46.5649 69.6786 46.232 69.6786H25.3259ZM25.3259 74.8433C24.993 74.8433 24.7227 75.1136 24.7227 75.4465C24.7227 75.7794 24.993 76.0498 25.3259 76.0498H46.232C46.5649 76.0498 46.8353 75.7794 46.8353 75.4465C46.8353 75.1136 46.5649 74.8433 46.232 74.8433H25.3259Z" fill="#4D4D4D"></path></svg>