<svg xmlns="http://www.w3.org/2000/svg" width="60" height="61" viewBox="0 0 60 61" fill="none"><g clip-path="url(#clip0_271_3149)"><path d="M2.39453 24.1973H57.4689V60.809H2.39453V24.1973Z" fill="#EBEBEB"></path><path d="M5.23438 27.248H10.5442V32.952H5.23438V27.248ZM13.0139 27.248H18.3238V32.952H13.0139V27.248ZM5.23438 35.4724H10.5442V41.1764H5.23438V35.4724ZM13.0139 35.4724H18.3238V41.1764H13.0139V35.4724ZM5.23438 43.8294H10.5442V49.5334H5.23438V43.8294ZM13.0139 43.8294H18.3238V49.5334H13.0139V43.8294ZM5.23438 52.1865H10.5442V57.8905H5.23438V52.1865ZM13.0139 52.1865H18.3238V57.8905H13.0139V52.1865ZM41.539 27.248H46.8489V32.952H41.539V27.248ZM49.3186 27.248H54.6285V32.952H49.3186V27.248ZM41.539 35.4724H46.8489V41.1764H41.539V35.4724ZM49.3186 35.4724H54.6285V41.1764H49.3186V35.4724ZM41.539 43.8294H46.8489V49.5334H41.539V43.8294ZM49.3186 43.8294H54.6285V49.5334H49.3186V43.8294ZM41.539 52.1865H46.8489V57.8905H41.539V52.1865ZM49.3186 52.1865H54.6285V57.8905H49.3186V52.1865Z" fill="#5DAFD8"></path><path d="M59.5698 25.2584H0.296875L3.75446 13.3198H56.1122L59.5698 25.2584Z" fill="#E95C60"></path><path d="M37.2179 25.2587V13.3201H42.7748L39.1937 25.2587H37.2179ZM22.6467 25.2587V13.3201H17.0898L20.6709 25.2587H22.6467Z" fill="#445C6C"></path><path d="M39.1947 60.9416H20.6719V6.95252L29.9333 2.44238L39.1947 6.95252V60.9416Z" fill="#DADDE1"></path><path d="M20.177 9.07499L30.0558 3.9016L39.5642 9.07499C39.6876 9.07499 39.8111 9.20764 39.8111 9.20764H42.2808C42.6513 9.20764 43.0217 8.80969 43.0217 8.41174C43.0217 8.14643 42.8983 7.74848 42.6513 7.74848L31.5376 1.77918C30.6732 1.38122 29.8088 1.38122 28.9444 1.77918L17.4603 7.74848C17.2133 7.88113 17.0898 8.14644 17.0898 8.54439C17.0898 8.94234 17.3368 9.3403 17.8308 9.3403H20.0535C20.0535 9.07499 20.0535 9.07499 20.177 9.07499Z" fill="#CA3941"></path><path d="M24.1289 42.5032H35.7365V60.809H24.1289V42.5032Z" fill="#445C6C"></path><path d="M29.9354 31.4932C34.7776 31.4932 38.7029 27.2765 38.7029 22.075C38.7029 16.8734 34.7776 12.6567 29.9354 12.6567C25.0933 12.6567 21.168 16.8734 21.168 22.075C21.168 27.2765 25.0933 31.4932 29.9354 31.4932Z" fill="white"></path><path d="M28.082 15.177H31.7866V28.9727H28.082V15.177Z" fill="#F7747E"></path><path d="M23.5117 20.085H36.3542V24.0645H23.5117V20.085Z" fill="#F7747E"></path></g><defs><clipPath id="clip0_271_3149"><rect width="60" height="60" fill="white" transform="translate(0 0.673828)"></rect></clipPath></defs></svg>