<svg xmlns="http://www.w3.org/2000/svg" width="70" height="70" viewBox="0 0 70 70" fill="currentcolor"><path d="M39.8314 12.9592H37.7604V10.8882C37.7604 9.74344 36.8341 8.81714 35.6893 8.81714C34.5446 8.81714 33.6183 9.74344 33.6183 10.8882V12.9592H31.5473C30.4026 12.9592 29.4762 13.8855 29.4762 15.0302C29.4762 16.175 30.4026 17.1013 31.5473 17.1013H33.6183V19.1723C33.6183 20.317 34.5446 21.2433 35.6893 21.2433C36.8341 21.2433 37.7604 20.317 37.7604 19.1723V17.1013H39.8314C40.9761 17.1013 41.9024 16.175 41.9024 15.0302C41.9024 13.8855 40.9761 12.9592 39.8314 12.9592ZM6.55684 33.6695H8.62787V29.5274H6.55684C3.13081 29.5274 0.34375 32.3145 0.34375 35.7405V68.877C0.34375 70.0218 1.27005 70.9481 2.41478 70.9481H8.62787V54.3798H4.48581V50.2378H8.62787V46.0957H4.48581V41.9536H8.62787V37.8116H4.48581V35.7405C4.48581 34.5998 5.41419 33.6695 6.55684 33.6695ZM64.8218 29.5274H62.7508V33.6695H64.8218C65.9645 33.6695 66.8929 34.5998 66.8929 35.7405V37.8116H62.7508V41.9536H66.8929V46.0957H62.7508V50.2378H66.8929V54.3798H62.7508V70.9481H68.9639C70.1086 70.9481 71.0349 70.0218 71.0349 68.877V35.7405C71.0349 32.3145 68.2479 29.5274 64.8218 29.5274Z"></path><path d="M52.3953 8.8171H50.1862V2.32787C50.1862 1.18314 49.2599 0.256836 48.1151 0.256836H23.2628C22.118 0.256836 21.1917 1.18314 21.1917 2.32787V8.8171H18.9826C15.5566 8.8171 12.7695 11.6042 12.7695 15.0302V70.948H29.4758V62.6639H41.902V70.948H58.6083V15.0302C58.6083 11.6042 55.8213 8.8171 52.3953 8.8171ZM33.6179 50.2377H25.3338V46.0956H33.6179V50.2377ZM33.6179 41.9536H25.3338V37.8115H33.6179V41.9536ZM33.6179 33.6695H25.3338V29.5274H33.6179V33.6695ZM46.0441 50.2377H37.76V46.0956H46.0441V50.2377ZM46.0441 41.9536H37.76V37.8115H46.0441V41.9536ZM46.0441 33.6695H37.76V29.5274H46.0441V33.6695ZM46.0441 10.8881V25.3853H25.3338V4.3989H46.0441V10.8881Z"></path></svg>