<svg xmlns="http://www.w3.org/2000/svg" width="70" height="71" viewBox="0 0 70 71" fill="currentcolor"><path d="M40.1065 7.83411H13.5973C12.0722 7.83411 10.8359 9.07042 10.8359 10.5955V15.0137C10.8359 16.5387 12.0722 17.7751 13.5973 17.7751H40.1065C41.6316 17.7751 42.8679 16.5387 42.8679 15.0137V10.5955C42.8679 9.07042 41.6316 7.83411 40.1065 7.83411Z"></path><path d="M49.3617 48.9234L62.8593 53.8276L60.7827 59.5271C60.277 60.9133 59.3571 62.1104 58.1478 62.9561C56.9386 63.8018 55.4985 64.2551 54.0229 64.2545C53.1854 64.2582 52.3543 64.1085 51.5708 63.8127C49.7854 63.1603 48.3316 61.8265 47.5282 60.1037C46.7248 58.381 46.6374 56.41 47.2851 54.6229L49.3617 48.9234ZM66.0625 44.9912L63.9859 50.6907L50.4883 45.7865L52.5649 40.087C53.2196 38.2982 54.5573 36.8422 56.2844 36.0387C58.0115 35.2352 59.9868 35.1498 61.7768 35.8013C63.5622 36.4538 65.016 37.7876 65.8194 39.5103C66.6228 41.2331 66.7102 43.2041 66.0625 44.9912Z"></path><path d="M47.6168 47.6642L44.524 43.5553L42.0498 40.2637L38.5595 35.6025C38.4934 35.5041 38.4552 35.3895 38.449 35.2711V18.3273C38.4443 17.3035 38.0356 16.3229 37.3116 15.5989C36.5876 14.8749 35.6069 14.4661 34.5831 14.4614H19.1194C18.0955 14.4661 17.1149 14.8749 16.3909 15.5989C15.6669 16.3229 15.2581 17.3035 15.2535 18.3273V35.2711C15.2473 35.3895 15.2091 35.5041 15.143 35.6025L7.7646 45.433L6.08569 47.6642C5.96194 47.8201 5.85805 47.9908 5.77641 48.1723C5.47125 48.7272 5.31165 49.3504 5.3125 49.9837V60.3002C5.31715 61.3241 5.72595 62.3047 6.44994 63.0287C7.17394 63.7527 8.15455 64.1615 9.17843 64.1662H44.524C45.5479 64.1615 46.5285 63.7527 47.2525 63.0287C47.9765 62.3047 48.3853 61.3241 48.3899 60.3002V49.9837C48.3909 49.1471 48.1195 48.3329 47.6168 47.6642ZM17.7939 37.5907C18.2967 36.922 18.5681 36.1078 18.5671 35.2711V18.3273C18.5662 18.2546 18.5799 18.1824 18.6073 18.115C18.6348 18.0475 18.6754 17.9863 18.7269 17.9349C18.7783 17.8834 18.8396 17.8427 18.907 17.8153C18.9744 17.7879 19.0466 17.7742 19.1194 17.7751H34.5831C34.6558 17.7742 34.7281 17.7879 34.7955 17.8153C34.8629 17.8427 34.9241 17.8834 34.9756 17.9349C35.027 17.9863 35.0677 18.0475 35.0951 18.115C35.1226 18.1824 35.1362 18.2546 35.1353 18.3273V35.2711C35.1344 36.1078 35.4058 36.922 35.9085 37.5907L38.2723 40.7276C35.5754 41.2292 32.9642 42.1145 30.5183 43.3564C24.594 46.6579 17.7089 47.8054 11.0341 46.6038L17.7939 37.5907Z"></path></svg>