<svg xmlns="http://www.w3.org/2000/svg" width="60" height="60" viewBox="0 0 60 60" fill="none"><g clip-path="url(#clip0_271_3162)"><path d="M41.2513 9.49227L44.1314 26.3085L41.2513 41.4666L35.8731 44.1072L30.5873 42.1569L28.8633 39.5691L30.5873 36.1124L34.2166 29.0835C35.3978 26.7972 36.0213 24.2285 36.0213 21.6562V9.49227L38.8759 8.52466L41.2513 9.49227Z" fill="#E6F0F2"></path><path d="M54.58 41.107L47.1617 47.1392L41.25 41.4668V9.49242L43.9821 7.73462L46.5668 9.49242V21.6564C46.5668 24.2286 47.1902 26.7974 48.3714 29.0837L54.58 41.107Z" fill="#CFDFE6"></path><path d="M41.2513 41.4664L44.53 50.2505L41.2503 59.9995H24.8464L24.7031 47.9766L30.5874 42.1566L32.344 41.2719C35.2923 40.0485 38.3193 40.1164 41.2513 41.4664Z" fill="#80BFFF"></path><path d="M59.007 56.7523C58.5869 57.4421 57.8265 58.415 56.5602 59.1305C55.1556 59.924 53.8356 60.0015 53.2286 59.9995H41.25L41.2509 41.4664C41.4451 41.5707 41.7268 41.7171 42.0724 41.8789C43.2069 42.4102 45.1626 43.3567 47.5685 43.3567C48.936 43.3567 50.3059 43.0848 51.6595 42.5446L54.5809 41.1067L59.2402 50.1301C60.3324 52.2441 60.2445 54.7203 59.007 56.7523Z" fill="#6699FF"></path><path d="M41.25 5.97681L42.2549 7.73462L41.25 9.49243H35.5664C34.6021 9.49243 33.8086 8.69896 33.8086 7.73462C33.8086 6.77028 34.6021 5.97681 35.5664 5.97681H41.25Z" fill="#CFDFE6"></path><path d="M48.6914 7.73462C48.6914 8.69896 47.8979 9.49243 46.9336 9.49243H41.25V5.97681H46.9336C47.8979 5.97681 48.6914 6.77028 48.6914 7.73462Z" fill="#B9C9D9"></path><path d="M17.0505 20.8594L19.4752 27.2323L17.0505 32.6331L11.6163 35.3306L3.51546 34.5093V29.2558L0.230722 23.4867C0.0783346 23.2194 -0.00121975 22.9169 1.41376e-05 22.6092C0.00124803 22.3016 0.0832269 21.9996 0.237754 21.7336C0.392512 21.4677 0.614313 21.247 0.881015 21.0936C1.14772 20.9402 1.44999 20.8594 1.75766 20.8594H17.0505Z" fill="#E6F0F2"></path><path d="M30.5858 22.6174V31.9607L22.7468 38.8216L17.0508 32.6334V20.8596H28.828C29.7983 20.8596 30.5858 21.6471 30.5858 22.6174Z" fill="#CFDFE6"></path><path d="M17.0507 32.633L19.4755 45.994L17.0507 59.9996H9.42183C6.15994 59.9996 3.51562 57.3553 3.51562 54.0934V48.8622L5.18366 46.9295L3.51562 45.3466V41.831L5.00413 39.9582L3.51562 38.3154V34.5092L7.36087 32.8339C10.4343 31.4668 13.8619 31.4082 17.0507 32.633Z" fill="#FF80AA"></path><path d="M30.5857 31.9607V54.0937C30.5989 57.3589 27.8875 60.0166 24.6795 59.9999H17.0507V32.6333C17.3249 32.7376 17.5968 32.8501 17.8686 32.9732C19.6628 33.7829 21.4979 34.1896 23.3366 34.1896C24.967 34.1809 26.6644 33.8973 28.1433 33.1594L30.5857 31.9607ZM11.7187 40.0735C11.7187 41.045 10.9312 41.8313 9.96089 41.8313H3.51562V38.3157H9.96089C10.9312 38.3157 11.7187 39.1032 11.7187 40.0735ZM11.7187 47.1047C11.7187 48.0762 10.9312 48.8625 9.96089 48.8625H3.51562V45.3469H9.96089C10.9312 45.3469 11.7187 46.1344 11.7187 47.1047Z" fill="#FF4D88"></path><path d="M17.0781 0.000244141L19.7148 4.98517L17.0781 10.5471C14.1707 10.5471 11.8047 8.1811 11.8047 5.27368C11.8047 2.36626 14.1707 0.000244141 17.0781 0.000244141Z" fill="#FF80AA"></path><path d="M4.80469 3.51587C5.7755 3.51587 6.5625 2.72887 6.5625 1.75806C6.5625 0.787244 5.7755 0.000244141 4.80469 0.000244141C3.83387 0.000244141 3.04688 0.787244 3.04688 1.75806C3.04688 2.72887 3.83387 3.51587 4.80469 3.51587Z" fill="#FF80AA"></path><path d="M8.55469 17.2268C9.5255 17.2268 10.3125 16.4398 10.3125 15.469C10.3125 14.4982 9.5255 13.7112 8.55469 13.7112C7.58387 13.7112 6.79688 14.4982 6.79688 15.469C6.79688 16.4398 7.58387 17.2268 8.55469 17.2268Z" fill="#FF80AA"></path><path d="M26.9531 15.5862C27.9239 15.5862 28.7109 14.7992 28.7109 13.8284C28.7109 12.8576 27.9239 12.0706 26.9531 12.0706C25.9823 12.0706 25.1953 12.8576 25.1953 13.8284C25.1953 14.7992 25.9823 15.5862 26.9531 15.5862Z" fill="#FF4D88"></path><path d="M53.2031 14.4143C54.1739 14.4143 54.9609 13.6273 54.9609 12.6565C54.9609 11.6857 54.1739 10.8987 53.2031 10.8987C52.2323 10.8987 51.4453 11.6857 51.4453 12.6565C51.4453 13.6273 52.2323 14.4143 53.2031 14.4143Z" fill="#6699FF"></path><path d="M58.2422 3.51587C59.213 3.51587 60 2.72887 60 1.75806C60 0.787244 59.213 0.000244141 58.2422 0.000244141C57.2714 0.000244141 56.4844 0.787244 56.4844 1.75806C56.4844 2.72887 57.2714 3.51587 58.2422 3.51587Z" fill="#6699FF"></path><path d="M58.2422 24.2578C59.213 24.2578 60 23.4708 60 22.5C60 21.5292 59.213 20.7422 58.2422 20.7422C57.2714 20.7422 56.4844 21.5292 56.4844 22.5C56.4844 23.4708 57.2714 24.2578 58.2422 24.2578Z" fill="#6699FF"></path><path d="M22.3516 5.27368C22.3516 8.1811 19.9855 10.5471 17.0781 10.5471V0.000244141C19.9855 0.000244141 22.3516 2.36626 22.3516 5.27368Z" fill="#FF4D88"></path></g><defs><clipPath id="clip0_271_3162"><rect width="60" height="60" fill="white"></rect></clipPath></defs></svg>