<svg xmlns="http://www.w3.org/2000/svg" width="60" height="60" viewBox="0 0 60 60" fill="none"><g clip-path="url(#clip0_271_3187)"><path fill-rule="evenodd" clip-rule="evenodd" d="M14.9528 1.55762H56.2062C57.4493 1.55762 58.4637 2.57199 58.4637 3.81512V57.7461C58.4637 58.9858 57.4493 60.0002 56.2062 60.0002H14.9528C13.7131 60.0002 12.6953 58.9858 12.6953 57.7461V3.81512C12.6952 2.57187 13.713 1.55762 14.9528 1.55762Z" fill="#5B5F94"></path><path fill-rule="evenodd" clip-rule="evenodd" d="M17.8516 6.71484H53.3058V54.8467H17.8516V6.71484Z" fill="#E9EEF2"></path><path fill-rule="evenodd" clip-rule="evenodd" d="M29.0275 0H42.132C43.4912 0 44.6046 1.1134 44.6046 2.47266V8.2718H26.5547V2.47266C26.5547 1.1134 27.6681 0 29.0275 0ZM31.3567 13.8969H34.7003V17.5103H31.3567V13.8969Z" fill="#2CBFAE"></path><path d="M36.8867 14.8599H49.5302V16.5471H36.8867V14.8599Z" fill="#C9CEED"></path><path fill-rule="evenodd" clip-rule="evenodd" d="M31.3594 20.833H34.703V24.4498H31.3594V20.833Z" fill="#F9B938"></path><path d="M36.8867 21.7964H49.5302V23.4837H36.8867V21.7964Z" fill="#C9CEED"></path><path fill-rule="evenodd" clip-rule="evenodd" d="M31.3594 27.7734H34.703V31.3868H31.3594V27.7734Z" fill="#E94444"></path><path d="M36.8867 28.7363H49.5302V30.4236H36.8867V28.7363Z" fill="#C9CEED"></path><path fill-rule="evenodd" clip-rule="evenodd" d="M1.53516 12.7219H26.7367V37.9234H1.53516V12.7219Z" fill="#C9CEED"></path><path fill-rule="evenodd" clip-rule="evenodd" d="M7.14782 28.692C6.82332 29.539 6.31449 30.3177 5.66903 30.9871C5.47098 31.1921 5.38555 31.4447 5.41625 31.7282C5.44696 32.0083 5.58699 32.237 5.82266 32.3908C7.8718 33.7398 10.7612 34.58 13.9579 34.58C17.3698 34.58 20.423 33.6271 22.4893 32.1209C22.7182 31.9536 22.8479 31.7145 22.865 31.431C22.8821 31.1475 22.7796 30.8948 22.5713 30.7035C21.7687 29.9624 21.1472 29.0779 20.7714 28.0976V21.1407C20.7714 13.2548 7.14782 13.1386 7.14782 21.1407V28.692Z" fill="#2F4959"></path><path fill-rule="evenodd" clip-rule="evenodd" d="M6.15637 37.9239H22.116V36.0421C22.116 32.6712 19.4726 29.915 16.2416 29.915H12.0306C8.79977 29.915 6.15625 32.6712 6.15625 36.0421V37.9239H6.15637Z" fill="#2CBFAE"></path><path fill-rule="evenodd" clip-rule="evenodd" d="M11.5977 24.918H16.6762V29.8668C16.6762 31.2603 15.5321 32.4044 14.1386 32.4044C12.7418 32.4044 11.5977 31.2603 11.5977 29.8668V24.918Z" fill="#FFE0CC"></path><path fill-rule="evenodd" clip-rule="evenodd" d="M11.5977 24.918H16.6762V29.1632C15.8941 29.6481 14.9788 29.9316 13.9576 29.9316C13.09 29.9316 12.2977 29.7232 11.5977 29.3646V24.918Z" fill="#F2C3A4"></path><path fill-rule="evenodd" clip-rule="evenodd" d="M18.2705 22.4421C18.332 22.7836 18.3627 23.1354 18.3627 23.4974C18.3627 26.3491 16.3921 28.6578 13.957 28.6578C11.5253 28.6578 9.55469 26.3491 9.55469 23.4974C9.55469 22.6948 9.71184 21.9298 9.9918 21.2535C10.2171 20.7036 10.6134 20.3416 11.1359 20.2016C11.655 20.0616 12.1537 20.1879 12.5738 20.5602C14.1244 21.9469 16.4365 22.483 18.2705 22.4421Z" fill="#FFE0CC"></path><path d="M30.5138 37.0798H49.5302V38.7671H30.5138V37.0798ZM21.3438 41.1543H49.5302V42.8416H21.3438V41.1543ZM42.717 50.5635C42.5636 50.5636 42.4131 50.5219 42.2817 50.4428C42.1502 50.3637 42.0429 50.2503 41.9711 50.1147C41.8993 49.9792 41.8659 49.8266 41.8743 49.6735C41.8828 49.5203 41.9329 49.3724 42.0191 49.2455C42.2233 48.9431 42.4081 48.5524 42.4755 48.3031C41.3785 48.3378 40.2375 49.5716 39.9218 50.0049C39.7916 50.184 39.5961 50.3047 39.3777 50.341C39.1592 50.3772 38.9352 50.3261 38.7541 50.1987C38.573 50.0713 38.4492 49.8777 38.4096 49.6598C38.3699 49.442 38.4175 49.2172 38.5421 49.0341C38.9489 48.4316 39.2786 47.6241 39.2436 47.3348C39.1984 47.3213 39.1076 47.3017 38.9468 47.3053C37.3402 47.3259 35.7327 49.0423 35.249 49.702L34.7509 50.381L33.3902 49.3886L33.8857 48.7079C33.9766 48.5832 36.1404 45.654 38.925 45.6182C40.007 45.6055 40.5037 46.0917 40.7249 46.5031C40.8096 46.6622 40.8678 46.8339 40.8973 47.0117C41.3757 46.7805 41.9089 46.6231 42.4798 46.6154C43.446 46.6079 43.8538 47.0929 44.0117 47.3864C44.1614 47.6648 44.2028 47.9745 44.1786 48.2853C45.755 47.8259 47.3022 47.694 48.7979 47.8932L49.6341 48.0046L49.4113 49.677L48.5752 49.5656C46.8011 49.3292 44.9964 49.6319 43.0585 50.491C42.951 50.5389 42.8346 50.5636 42.717 50.5635Z" fill="#C9CEED"></path></g><defs><clipPath id="clip0_271_3187"><rect width="60" height="60" fill="white"></rect></clipPath></defs></svg>