<svg xmlns="http://www.w3.org/2000/svg" width="70" height="71" viewBox="0 0 70 71" fill="currentcolor"><path d="M25.2626 12.7022V4.60217H44.4081V12.7022C44.4081 13.1146 44.0841 13.4386 43.6717 13.4386H25.9989C25.5866 13.4386 25.2626 13.1146 25.2626 12.7022ZM60.6082 15.6477V56.8842C60.6082 62.9813 55.6598 67.9297 49.5627 67.9297H20.108C14.0109 67.9297 9.0625 62.9813 9.0625 56.8842V15.6477C9.0625 9.55056 14.0109 4.60217 20.108 4.60217H20.8444V12.7022C20.8444 15.5299 23.1713 17.8568 25.9989 17.8568H43.6717C46.4994 17.8568 48.8263 15.5299 48.8263 12.7022V4.60217H49.5627C55.6598 4.60217 60.6082 9.55056 60.6082 15.6477ZM48.8263 42.1569C48.8263 40.9492 47.8248 39.9478 46.6172 39.9478H42.4641L40.7852 33.2321C40.4317 31.8183 39.2241 30.8757 37.7808 30.8463C36.2786 30.7874 35.1004 31.7299 34.7175 33.1437L31.3302 45.014L29.7691 41.9507C29.1211 40.7136 27.884 39.9478 26.4997 39.9478H23.0829C21.8753 39.9478 20.8738 40.9492 20.8738 42.1569C20.8738 43.3645 21.8753 44.366 23.0829 44.366H26.0578L28.8855 49.874C29.4157 50.9344 30.5055 51.5824 31.6837 51.5824H32.0077C33.3037 51.4645 34.3641 50.5514 34.7175 49.3144L37.6924 38.9169L38.3699 41.5678C38.7823 43.2172 40.255 44.366 41.9339 44.366H46.6761C47.8837 44.366 48.8852 43.3645 48.8852 42.1569H48.8263Z"></path></svg>