<svg xmlns="http://www.w3.org/2000/svg" width="70" height="71" viewBox="0 0 70 71" fill="currentcolor"><path d="M35.0004 12.4779C23.0439 12.4779 13.3164 22.2053 13.3164 34.1619C13.3165 41.4941 17.06 48.3473 23.1639 52.3327V53.237H32.9097V42.4291C30.1959 41.5462 28.2281 38.9937 28.2281 35.9891C28.2281 34.8348 29.1639 33.899 30.3182 33.899C31.4724 33.899 32.4083 34.8348 32.4083 35.9891C32.4083 37.4179 33.5708 38.5806 34.9998 38.5806C36.4288 38.5806 37.5912 37.4181 37.5912 35.9891C37.5912 34.8348 38.5271 33.899 39.6813 33.899C40.8356 33.899 41.7714 34.8348 41.7714 35.9891C41.7714 38.9937 39.8038 41.5462 37.0898 42.4291V53.237H46.836V52.333C52.9403 48.3476 56.6841 41.4943 56.6841 34.1619C56.6843 22.2054 46.9569 12.4779 35.0004 12.4779ZM23.164 57.4171V59.164C23.164 65.6906 28.4737 71.0001 35.0002 71.0001C41.5267 71.0001 46.8365 65.6904 46.8365 59.164V57.4171H23.164ZM35.0004 0.309082C33.8461 0.309082 32.9103 1.24491 32.9103 2.39917V6.06834C32.9103 7.2226 33.8461 8.15843 35.0004 8.15843C36.1546 8.15843 37.0905 7.2226 37.0905 6.06834V2.39917C37.0905 1.24491 36.1546 0.309082 35.0004 0.309082ZM29.121 6.60446L27.8237 3.17207C27.4156 2.09238 26.2091 1.54797 25.1297 1.95597C24.05 2.36396 23.5055 3.57013 23.9136 4.64996L25.2109 8.08235C25.5271 8.91891 26.3221 9.43404 27.1664 9.43404C27.4187 9.43392 27.6689 9.38798 27.9049 9.29846C28.9846 8.89047 29.5291 7.6843 29.121 6.60446ZM44.8709 1.95583C43.7911 1.5477 42.585 2.09238 42.1769 3.17207L40.8796 6.60446C40.4716 7.68416 41.0162 8.89033 42.0959 9.29846C42.3391 9.39041 42.5889 9.43404 42.8344 9.43404C43.6787 9.43404 44.4738 8.91877 44.7899 8.08221L46.0872 4.64982C46.4952 3.56999 45.9506 2.36396 44.8709 1.95583Z"></path></svg>