<svg xmlns="http://www.w3.org/2000/svg" width="60" height="61" viewBox="0 0 60 61" fill="none"><path d="M34.441 55.1985C34.441 57.8983 32.0017 60.0771 28.9822 60.0771C25.9626 60.0771 23.5352 57.8983 23.5352 55.1985H34.441Z" fill="#939598"></path><path d="M47.1698 25.7492C47.1698 32.2146 43.7003 37.6261 38.9401 41.285C36.7494 42.9784 37.6849 48.2951 37.0573 48.6267H20.5387C20.1479 48.4135 20.5031 43.5586 18.5256 41.7232C13.9312 37.4366 9.63281 32.4988 9.63281 25.7492C9.63281 15.3881 18.0283 6.98073 28.4013 6.98073C38.7625 6.96888 47.1698 15.3762 47.1698 25.7492Z" fill="#FFC700"></path><path d="M33.7424 45.9268H20.1367V51.6816C20.1367 52.2263 20.2551 52.7592 20.492 53.2565C21.1077 54.5828 22.4339 55.4353 23.8904 55.4353L33.7306 55.459C35.8028 55.4472 37.4724 53.7776 37.4606 51.7053V45.9268H33.7424Z" fill="#D1D0DF"></path><path d="M37.4587 45.9268V51.7053C37.4705 53.7776 35.8009 55.4472 33.7286 55.459H27.8672C31.3012 54.6183 33.8471 51.5988 33.8471 48.0227C33.8471 47.3003 33.7405 46.6017 33.551 45.9268H37.4587Z" fill="#B4B4C1"></path><path d="M33.8609 48.0227C33.8609 51.6106 31.3151 54.6183 27.8811 55.459L23.8905 55.4353H23.8432C22.7183 55.4235 21.6762 54.9025 20.9776 54.0499C20.7881 53.8131 20.6223 53.5407 20.4802 53.2565C20.2434 52.7592 20.125 52.2263 20.125 51.6816V45.9268H33.5531C33.7544 46.5899 33.8609 47.2885 33.8609 48.0227Z" fill="#D1D0DF"></path><path d="M47.1693 25.7608C47.1693 32.2143 43.6998 37.6258 38.9395 41.2848C37.7317 42.2084 37.4712 44.2333 37.3765 45.9266H22.5156C32.1189 40.8111 38.833 29.0053 38.833 15.2457C38.833 13.4695 38.7264 11.6933 38.5014 9.92896C43.9011 13.3748 47.1811 19.3547 47.1693 25.7608Z" fill="#F2B903"></path><path d="M37.4617 47.1227V48.5555L34.1224 48.9581L20.1497 50.6514V49.2068L34.2053 47.5135L37.4617 47.1227ZM37.4617 51.1606V51.7053C37.4617 52.0132 37.4261 52.3092 37.3551 52.6053L30.3687 53.4815L21.4996 54.5946C21.0733 54.2394 20.7299 53.7894 20.4931 53.2802L32.5238 51.7764L37.4617 51.1606ZM10.2503 42.9191C10.0372 42.7059 9.82402 42.4809 9.62272 42.2559L10.6766 41.3086L11.2687 41.9244L10.2503 42.9191ZM8.43858 40.8705C8.0715 40.3969 7.70442 39.8995 7.36102 39.4022L8.54516 38.6088C8.86487 39.0706 9.20827 39.5443 9.56351 39.9943L8.43858 40.8705ZM49.0306 39.5324L47.8584 38.7272C48.1899 38.2654 48.4978 37.7681 48.782 37.2826L50.0135 37.9931C49.7056 38.5141 49.374 39.0351 49.0306 39.5324ZM6.40188 37.851C6.094 37.33 5.80981 36.7853 5.5493 36.2406L6.82816 35.6248C7.07683 36.1458 7.34918 36.655 7.63337 37.1523L6.40188 37.851ZM50.8779 36.3945L49.599 35.7669C49.8477 35.2577 50.0845 34.7249 50.2977 34.192L51.6239 34.7249C51.3871 35.2932 51.1384 35.8498 50.8779 36.3945ZM4.81514 34.5828C4.59015 34.0144 4.38885 33.4342 4.19939 32.8658L5.56114 32.4395C5.72692 32.9842 5.92822 33.5289 6.12953 34.0499L4.81514 34.5828ZM52.2396 33.0197L50.8897 32.5816C51.0674 32.0369 51.2213 31.4803 51.3515 30.9238L52.737 31.2672C52.5949 31.8474 52.4291 32.4395 52.2396 33.0197ZM3.7139 31.1014C3.58364 30.5212 3.46523 29.9173 3.3705 29.3134L4.76777 29.0884C4.8625 29.6568 4.96908 30.2252 5.09933 30.7817L3.7139 31.1014ZM53.1041 29.4792L51.6949 29.2423C51.7897 28.6739 51.8726 28.1056 51.9199 27.5372L53.3409 27.6674C53.2817 28.2713 53.1988 28.8752 53.1041 29.4792ZM3.14551 27.5135C3.08631 26.9096 3.05078 26.3057 3.05078 25.6899L4.47174 25.6663C4.47174 26.2465 4.50726 26.8267 4.55463 27.3832L3.14551 27.5135ZM53.4475 25.8557L52.0265 25.8202V25.2755C52.0265 24.8847 52.0147 24.494 52.0028 24.1032L53.4238 24.0321C53.4356 24.4466 53.4475 24.861 53.4475 25.2755V25.8557ZM4.49542 23.9493L3.08631 23.8782C3.10999 23.2743 3.16919 22.6586 3.25208 22.0546L4.6612 22.2441C4.59015 22.8006 4.53095 23.3809 4.49542 23.9493ZM51.8489 22.3862C51.7897 21.8178 51.6949 21.2494 51.5884 20.6929L52.9856 20.4087C53.0922 21.0126 53.187 21.6165 53.2698 22.2086L51.8489 22.3862ZM4.93355 20.539L3.54812 20.2666C3.66653 19.6745 3.80863 19.0706 3.96256 18.4904L5.33616 18.8693C5.18222 19.4259 5.05197 19.9824 4.93355 20.539ZM51.1976 19.0114C51.0437 18.4667 50.8779 17.9102 50.6884 17.3773L52.0265 16.9037C52.2278 17.4721 52.4054 18.0523 52.5712 18.6443L51.1976 19.0114ZM5.85718 17.2352L4.51911 16.7497C4.73225 16.1814 4.95723 15.613 5.2059 15.0564L6.49661 15.6366C6.27162 16.1577 6.04664 16.7024 5.85718 17.2352ZM50.049 15.7787C49.824 15.2577 49.5753 14.7367 49.3148 14.2275L50.57 13.5644C50.8542 14.0973 51.1147 14.6538 51.3515 15.2104L50.049 15.7787ZM7.25445 14.0973L5.99927 13.4223C6.28346 12.8895 6.59134 12.3566 6.92289 11.8474L8.11887 12.6053C7.81099 13.0908 7.5268 13.5881 7.25445 14.0973ZM48.4623 12.7355C48.1544 12.25 47.8347 11.7764 47.4913 11.3146L48.6517 10.4738C49.007 10.9712 49.3385 11.4803 49.6582 11.9895L48.4623 12.7355ZM9.08986 11.1843L7.94125 10.3436C8.30833 9.85808 8.68725 9.37259 9.07802 8.91078L10.1556 9.8344C9.7885 10.2725 9.43326 10.7225 9.08986 11.1843ZM46.4374 9.96465C46.0703 9.52653 45.6796 9.10024 45.2769 8.68579L46.2953 7.69112C46.7216 8.12925 47.136 8.57922 47.5268 9.04103L46.4374 9.96465ZM11.316 8.56738L10.3095 7.57271C10.7358 7.14642 11.1858 6.72013 11.6357 6.32937L12.5712 7.39509C12.1449 7.77401 11.7186 8.16477 11.316 8.56738ZM44.0336 7.50166C43.6073 7.12274 43.1692 6.75566 42.7074 6.40042L43.5836 5.27549C44.0573 5.64257 44.5309 6.03333 44.9809 6.43594L44.0336 7.50166ZM13.9093 6.30569L13.0449 5.16892C13.5304 4.81368 14.0277 4.45844 14.5369 4.12688L15.3066 5.32285C14.8329 5.63073 14.3592 5.96229 13.9093 6.30569ZM41.3101 5.40574C40.8364 5.08603 40.3391 4.79 39.8418 4.5058L40.5404 3.27431C41.0614 3.57034 41.5943 3.89005 42.0916 4.22161L41.3101 5.40574ZM16.7867 4.43476L16.0999 3.19142C16.6328 2.89538 17.1775 2.62303 17.7222 2.37437L18.3143 3.66507C17.8051 3.9019 17.2841 4.16241 16.7867 4.43476ZM38.3142 3.72428C37.7932 3.48745 37.2604 3.26246 36.7275 3.04932L37.2367 1.72309C37.8051 1.94808 38.3616 2.1849 38.9182 2.43357L38.3142 3.72428ZM19.901 3.00196L19.4037 1.67573C19.972 1.46258 20.5523 1.26128 21.1325 1.0955L21.5351 2.45725C20.9904 2.62303 20.4338 2.80065 19.901 3.00196ZM35.0934 2.50462C34.5487 2.33884 33.9922 2.1849 33.4356 2.06649L33.7435 0.681056C34.3356 0.811311 34.9276 0.965248 35.5079 1.14287L35.0934 2.50462ZM23.2047 2.03097L22.8968 0.645532C23.4889 0.515277 24.0928 0.408706 24.6967 0.325816L24.8862 1.73493C24.3296 1.81782 23.7613 1.91255 23.2047 2.03097ZM31.7423 1.75862C31.1858 1.67573 30.6055 1.60468 30.0372 1.56916L30.1437 0.148196C30.7476 0.195562 31.3515 0.254768 31.9555 0.349499L31.7423 1.75862ZM26.6032 1.55731L26.5084 0.136355C27.0768 0.100831 27.6689 0.0771484 28.2491 0.0771484H28.3202V1.49811H28.2491C27.6926 1.49811 27.1479 1.52179 26.6032 1.55731ZM47.3373 41.7349L46.2716 40.7995L46.8163 40.1363L47.9294 41.0244L47.3373 41.7349ZM25.1112 37.2826H26.5321V45.9268H25.1112V37.2826ZM30.5582 37.5905H31.9791V45.9268H30.5582V37.5905Z" fill="#808285"></path><path d="M43.8324 23.4636L43.5482 23.428L40.8602 23.1202C40.6944 22.2321 40.4339 21.3676 40.0787 20.5387L42.1391 18.7862L42.3641 18.5968C41.9141 17.685 41.3812 16.8206 40.7655 16.0154L40.505 16.1338L38.0064 17.2113C37.4262 16.5245 36.7631 15.8969 36.0408 15.3641L36.9526 12.8064L37.0473 12.534C36.6329 12.2617 36.2066 12.0011 35.7566 11.7643C35.3066 11.5157 34.8567 11.3025 34.383 11.1131L34.2054 11.338L32.5831 13.5168C31.7305 13.2208 30.8543 13.0195 29.9662 12.9011L29.4807 10.2368L29.4333 9.96444C28.415 9.89339 27.3966 9.92892 26.3901 10.0592L26.3664 10.3434L26.0467 13.0432C25.1586 13.209 24.2942 13.4695 23.4653 13.8129L21.7128 11.7525L21.5352 11.5393C20.6234 11.9775 19.759 12.5103 18.9538 13.1379L19.0603 13.3984L20.1379 15.8733C19.4629 16.4653 18.8472 17.1284 18.3025 17.8508L15.7448 16.939L15.4724 16.8443C15.2001 17.2587 14.9395 17.6968 14.6909 18.1468C14.454 18.5968 14.2291 19.0467 14.0396 19.5204L14.2646 19.6862L16.4552 21.3084C16.3013 21.7584 16.171 22.1965 16.0645 22.6465C15.9697 23.0728 15.8868 23.4991 15.8395 23.9254L13.1752 24.4227L12.891 24.4701C12.8199 25.4766 12.8555 26.4949 12.9976 27.4896L13.2818 27.5251L15.9697 27.8448C16.1355 28.7329 16.396 29.5974 16.7513 30.4263L14.6909 32.1788L14.4659 32.3682C14.9159 33.2682 15.4487 34.1326 16.0645 34.9378L16.325 34.8312L18.8117 33.7537C19.4037 34.4286 20.055 35.0444 20.7773 35.5891L19.8655 38.135L19.7708 38.4073C20.1852 38.6915 20.6234 38.952 21.0733 39.1888C21.5233 39.4375 21.9851 39.6506 22.4588 39.8401L22.6246 39.6151L24.235 37.4482C25.0876 37.7442 25.9638 37.9455 26.8519 38.0639L27.3493 40.7164L27.3966 41.0006C28.4031 41.0716 29.4215 41.0361 30.428 40.9058L30.4517 40.6216L30.7714 37.9218C31.6595 37.756 32.5239 37.4955 33.3528 37.1521L35.1053 39.2125C36.0408 38.7625 36.9289 38.206 37.7578 37.5666L36.6802 35.0799C37.367 34.4997 37.9828 33.8366 38.5275 33.1142L41.0733 34.0142L41.3457 34.1089C41.6299 33.6945 41.8904 33.2563 42.1272 32.8064C42.3641 32.3564 42.5772 31.8946 42.7667 31.4446L42.5417 31.267L40.3747 29.6566C40.5286 29.2184 40.6589 28.7803 40.7536 28.3303C40.8602 27.904 40.9313 27.4659 40.9905 27.0278L43.6548 26.5423L43.9271 26.4949C43.9982 25.4884 43.9626 24.4701 43.8324 23.4636Z" fill="#02648E"></path><path d="M31.4074 19.8757C28.305 18.2298 24.4684 19.3902 22.7988 22.4808C22.5264 22.9781 22.3251 23.511 22.2067 24.0675C21.437 27.4897 23.5921 30.9 27.0143 31.6697C29.797 32.2973 32.6626 30.9947 34.0125 28.4725C34.273 27.9752 34.4625 27.4542 34.5927 26.9095C35.244 24.1149 33.9296 21.2375 31.4074 19.8757Z" fill="#D1D3D4"></path><path d="M33.4567 16.0628C32.9239 15.7786 32.2489 15.9799 31.9647 16.5128C31.8226 16.7614 31.7871 17.0693 31.87 17.3417C31.9529 17.6259 32.1423 17.8508 32.4029 17.9929L32.687 18.0995C32.8647 18.1469 33.066 18.135 33.2436 18.0877C33.5278 18.0048 33.7646 17.8035 33.8949 17.543C34.1791 17.0101 33.9896 16.3588 33.4567 16.0628ZM36.8078 19.3547C36.5118 19.2836 36.2039 19.331 35.9553 19.4968C35.4579 19.8283 35.304 20.4915 35.6119 21.0006C35.7658 21.2493 36.0145 21.4269 36.2987 21.498H36.3105C36.8907 21.6045 37.4709 21.2493 37.613 20.6691C37.7433 20.0889 37.3881 19.5086 36.8078 19.3547ZM37.2341 25.9622C37.3762 26.0924 37.542 26.1871 37.7315 26.2345C37.8262 26.2582 37.9209 26.27 38.0156 26.2582C38.3117 26.2582 38.584 26.1398 38.7853 25.9266C38.9866 25.7135 39.0932 25.4293 39.0814 25.1333C39.0814 24.8372 38.9511 24.5649 38.738 24.3636C38.288 23.9491 37.5894 23.9847 37.1868 24.4228C36.9973 24.6359 36.8907 24.9083 36.8907 25.2043C36.9017 25.4921 37.025 25.7642 37.2341 25.9622ZM37.3762 29.0291C37.1157 28.887 36.8197 28.8633 36.5355 28.9462C36.2631 29.0409 36.0381 29.2304 35.896 29.479C35.6 30 35.7895 30.6513 36.2987 30.9474C36.3105 30.9592 36.3223 30.9592 36.346 30.971C36.4289 31.0184 36.5118 31.0421 36.6065 31.0658C37.092 31.1842 37.5894 30.9592 37.8262 30.5211C37.9683 30.2606 37.992 29.9527 37.9091 29.6685C37.8262 29.3961 37.6249 29.1593 37.3762 29.0291ZM33.7172 32.5459C33.4331 32.4867 33.137 32.5341 32.8884 32.6762H32.8765C32.3792 33.0077 32.2252 33.6709 32.5331 34.18C32.687 34.4287 32.9357 34.6063 33.2199 34.6774H33.2317C33.5159 34.7366 33.8001 34.6892 34.0488 34.5353C34.2975 34.3813 34.4632 34.1445 34.5343 33.8603C34.6053 33.5761 34.558 33.2801 34.3922 33.0314C34.2383 32.7828 34.0014 32.6051 33.7172 32.5459ZM28.6965 33.9551C28.0926 33.9669 27.6071 34.4761 27.619 35.08C27.6308 35.376 27.7492 35.6602 27.9742 35.8615C28.1163 35.9918 28.2821 36.0865 28.4715 36.1339L28.7557 36.1575C29.3596 36.1457 29.8451 35.6365 29.8333 35.0208C29.8096 34.4169 29.3004 33.9432 28.6965 33.9551ZM24.3981 32.9604C23.8771 32.6762 23.214 32.8775 22.9298 33.3985C22.7877 33.659 22.7522 33.9669 22.8351 34.2511C22.918 34.5353 23.1193 34.7721 23.3798 34.9024C23.4627 34.9497 23.5455 34.9852 23.6403 34.9971C23.8297 35.0445 24.0192 35.0326 24.2087 34.9852C24.777 34.7958 25.1086 34.1919 24.9428 33.6117C24.8599 33.3275 24.6705 33.0906 24.3981 32.9604ZM19.6853 29.6093C19.1761 29.929 19.0222 30.604 19.3419 31.1131C19.484 31.3618 19.7326 31.5394 20.0168 31.5986C20.301 31.6578 20.6089 31.6105 20.8576 31.4565C21.3904 31.1605 21.5917 30.4974 21.2957 29.9645C20.9997 29.4317 20.3365 29.2304 19.8037 29.5264C19.7682 29.5382 19.7208 29.5738 19.6853 29.6093ZM18.7972 24.6951C18.5011 24.6951 18.2288 24.8254 18.0275 25.0385C17.9276 25.1443 17.85 25.269 17.7991 25.4052C17.7483 25.5415 17.7253 25.6866 17.7315 25.8319C17.7551 26.3292 18.0985 26.7437 18.584 26.8621C18.6788 26.8858 18.7735 26.8976 18.8682 26.8858C19.4603 26.8739 19.9339 26.3766 19.9221 25.7845V25.749C19.8984 25.1451 19.4011 24.6715 18.7972 24.6951ZM19.4484 21.9243C19.9576 22.2085 20.6089 22.0308 20.9049 21.5217C20.9049 21.5098 20.9168 21.498 20.9168 21.4861C21.0589 21.2256 21.0944 20.9296 21.0115 20.6454C20.9286 20.3612 20.7391 20.1244 20.4786 19.9941C20.2181 19.852 19.9221 19.8283 19.6379 19.9112C19.0577 20.077 18.7261 20.6928 18.9037 21.2611V21.273C18.9866 21.5572 19.1761 21.794 19.4484 21.9243ZM23.6047 16.2641H23.5929C23.3087 16.2049 23.0127 16.2523 22.764 16.4062C22.2548 16.7259 22.1009 17.4009 22.4088 17.9101C22.5627 18.1587 22.8114 18.3363 23.0956 18.4074C23.3798 18.4784 23.6876 18.4311 23.9363 18.2771C24.185 18.1232 24.3508 17.8745 24.4218 17.5903C24.4928 17.3061 24.4455 17.0101 24.2915 16.7614C24.1376 16.5128 23.8889 16.3352 23.6047 16.2641ZM28.8386 15.0918C28.6255 14.8905 28.3413 14.7958 28.0571 14.8076C27.4532 14.8313 26.9795 15.3286 27.0032 15.9326C27.015 16.4299 27.3584 16.8443 27.8321 16.9746L28.1281 16.9983C28.4242 16.9864 28.6965 16.868 28.8978 16.6549C29.0991 16.4417 29.2057 16.1575 29.1939 15.8733C29.182 15.5773 29.0636 15.2931 28.8386 15.0918Z" fill="#D1D0DF"></path><path d="M57.9218 6.09258L53.955 6.06889V2.12573H52.534V6.05705L48.5553 6.03337L48.5435 7.45433L52.534 7.47801V11.4922H53.955V7.48985L57.91 7.51354L57.9218 6.09258ZM11.4565 47.0044L7.46593 46.9688V43.0612H6.04497V46.9688L2.08997 46.9333L2.07812 48.3543L6.04497 48.3898V52.4277H7.46593V48.3898L11.4446 48.4253L11.4565 47.0044Z" fill="#808285"></path></svg>