<svg xmlns="http://www.w3.org/2000/svg" width="101" height="101" viewBox="0 0 101 101" fill="none"><rect x="0.5" y="0.13269" width="100" height="100" rx="30" fill="#FFEDE0"></rect><g clip-path="url(#clip0_271_4121)"><path d="M77.0939 65.8756C73.4938 53.7198 60.9296 41.4611 69.5876 28.2255C71.2438 25.6936 71.0635 21.4571 69.6865 19.6666C61.0334 8.41562 41.9222 20.0165 42.0575 33.624C42.1465 42.5715 35.5323 48.1726 29.7032 53.9643C-1.30804 80.576 87.3126 102.301 77.0939 65.8756Z" fill="url(#paint0_linear_271_4121)"></path><path d="M49.3565 37.6976L40.3105 28.6515C40.0541 28.3951 39.7063 28.251 39.3438 28.251H25.125C24.3699 28.251 23.7578 28.8631 23.7578 29.6182V69.0748C23.7578 69.8299 24.3699 70.442 25.125 70.442H75.7137C76.4688 70.442 77.0809 69.8299 77.0809 69.0748V39.0648C77.0809 38.3097 76.4688 37.6976 75.7137 37.6976H49.3565Z" fill="#FFAB66"></path><path d="M65.7793 37.6977H56.2555C56.7777 38.6397 57.0744 39.7225 57.0744 40.8764C57.0744 44.505 54.1322 47.4458 50.5023 47.4458C46.8752 47.4458 43.933 44.505 43.933 40.8764C43.933 38.5413 45.1512 36.4905 46.9846 35.3243L40.3113 28.6511C40.2126 28.5512 40.0986 28.4677 39.9736 28.4036L37.6822 30.6936C37.2078 31.1694 37.1477 31.92 37.5428 32.4641L39.3871 35.0057C39.0218 35.6962 38.7219 36.4194 38.4916 37.1659L35.3908 37.6595C35.0695 37.7104 34.777 37.8743 34.5657 38.1216C34.3544 38.369 34.2383 38.6836 34.2383 39.0089V42.7427C34.2383 43.4139 34.7277 43.9868 35.3908 44.0921L38.4916 44.5843C38.7227 45.3376 39.0248 46.0608 39.3871 46.7458L37.5428 49.2874C37.3517 49.5506 37.2608 49.8734 37.2864 50.1977C37.3119 50.5219 37.4523 50.8265 37.6822 51.0565L40.3223 53.6966C40.798 54.1723 41.5486 54.2311 42.0928 53.836L44.633 51.9917C45.3193 52.354 46.0412 52.6561 46.7945 52.8886L47.2867 55.988C47.3377 56.3095 47.5018 56.6022 47.7494 56.8135C47.9971 57.0248 48.312 57.1407 48.6375 57.1405H52.3699C53.0426 57.1405 53.6154 56.6524 53.7207 55.988L54.2129 52.8886C54.9662 52.6561 55.6881 52.354 56.3744 51.9917L58.9146 53.836C59.4588 54.2311 60.2094 54.1723 60.6852 53.6966L63.3252 51.0565C63.5551 50.8265 63.6955 50.5219 63.7211 50.1977C63.7466 49.8734 63.6557 49.5506 63.4646 49.2874L61.6203 46.7458C61.9861 46.0549 62.2864 45.3312 62.5172 44.5843L65.6166 44.0921C66.2797 43.9868 66.7691 43.4139 66.7691 42.7427V39.0089C66.7691 38.3923 66.359 37.8618 65.7793 37.6977ZM63.6175 69.9479H37.3899C37.2086 69.9479 37.0347 69.8759 36.9065 69.7477C36.7783 69.6195 36.7063 69.4456 36.7063 69.2643C36.7063 69.083 36.7783 68.9091 36.9065 68.7809C37.0347 68.6527 37.2086 68.5807 37.3899 68.5807H63.6175C63.7988 68.5807 63.9727 68.6527 64.1009 68.7809C64.2291 68.9091 64.3011 69.083 64.3011 69.2643C64.3011 69.4456 64.2291 69.6195 64.1009 69.7477C63.9727 69.8759 63.7988 69.9479 63.6175 69.9479Z" fill="#FF9D33"></path><path d="M65.6158 34.3775L62.516 33.8851C62.2854 33.1383 61.9852 32.4148 61.6195 31.7241L63.4641 29.1828C63.6553 28.9194 63.7462 28.5965 63.7206 28.2721C63.695 27.9477 63.5545 27.643 63.3244 27.4129L60.6847 24.7733C60.4546 24.5432 60.15 24.4027 59.8256 24.3771C59.5012 24.3515 59.1783 24.4424 58.9149 24.6336L56.3736 26.4782C55.6829 26.1123 54.9594 25.8122 54.2126 25.5817L53.7202 22.4819C53.6691 22.1605 53.5051 21.8679 53.2576 21.6566C53.0101 21.4453 52.6953 21.3292 52.3699 21.3292H48.637C48.3115 21.3292 47.9968 21.4453 47.7493 21.6566C47.5018 21.8679 47.3378 22.1605 47.2867 22.4819L46.7943 25.5815C46.0474 25.812 45.3239 26.1122 44.6331 26.4781L42.092 24.6336C41.8286 24.4424 41.5057 24.3515 41.1813 24.3771C40.8569 24.4027 40.5522 24.5432 40.3221 24.7733L37.6825 27.4129C37.4524 27.643 37.3119 27.9477 37.2863 28.2721C37.2607 28.5965 37.3516 28.9194 37.5428 29.1828L39.3874 31.7242C39.0216 32.4149 38.7215 33.1383 38.4909 33.8851L35.391 34.3775C35.0696 34.4286 34.7769 34.5926 34.5656 34.8401C34.3544 35.0876 34.2383 35.4023 34.2383 35.7278V39.4607C34.2383 39.7861 34.3544 40.1009 34.5656 40.3484C34.7769 40.5959 35.0696 40.7599 35.391 40.811L38.4906 41.3034C38.7213 42.0502 39.0214 42.7737 39.3871 43.4644L37.5425 46.0057C37.3514 46.2691 37.2604 46.592 37.286 46.9164C37.3116 47.2408 37.4521 47.5454 37.6822 47.7756L40.3219 50.4152C40.552 50.6453 40.8566 50.7858 41.181 50.8114C41.5054 50.837 41.8283 50.7461 42.0917 50.5549L44.633 48.7103C45.3237 49.0761 46.0472 49.3763 46.794 49.6068L47.2864 52.7066C47.3375 53.028 47.5015 53.3206 47.749 53.5319C47.9965 53.7432 48.3113 53.8593 48.6367 53.8593H52.3696C52.6951 53.8593 53.0098 53.7432 53.2573 53.5319C53.5048 53.3206 53.6688 53.028 53.7199 52.7066L54.2123 49.6066C54.9591 49.376 55.6825 49.0759 56.3732 48.7102L58.9146 50.5548C59.178 50.7459 59.5009 50.8369 59.8253 50.8112C60.1497 50.7856 60.4544 50.6452 60.6845 50.415L63.3241 47.7754C63.5542 47.5453 63.6947 47.2407 63.7203 46.9163C63.7459 46.5919 63.655 46.269 63.4638 46.0056L61.6194 43.4644C61.9852 42.7737 62.2854 42.0501 62.516 41.3033L65.6156 40.8108C65.937 40.7598 66.2297 40.5957 66.441 40.3483C66.6522 40.1008 66.7683 39.786 66.7683 39.4606V35.7276C66.7683 35.4022 66.6523 35.0875 66.441 34.8401C66.2297 34.5926 65.9371 34.4286 65.6158 34.3775ZM57.0741 37.5951C57.0741 41.2232 54.1322 44.1649 50.5026 44.1649C46.8745 44.1649 43.9327 41.223 43.9327 37.5951C43.9327 33.9653 46.8746 31.0235 50.5026 31.0235C54.1322 31.0234 57.0741 33.9653 57.0741 37.5951Z" fill="#9494FF"></path><path d="M50.1541 50.7149L49.6066 47.2684C50.2031 47.3231 50.8035 47.3231 51.4 47.2684L50.8525 50.7149H50.1541ZM56.7061 45.0663C57.1671 44.6829 57.592 44.2581 57.9754 43.7972L60.028 46.625L59.5341 47.1189L56.7061 45.0663ZM40.9788 46.6249L43.0312 43.7972C43.4146 44.2581 43.8394 44.6829 44.3004 45.0663L41.4726 47.1187L40.9788 46.6249ZM37.3828 37.9435V37.245L40.8292 36.6975C40.7743 37.2941 40.7743 37.8944 40.8292 38.491L37.3828 37.9435ZM60.1778 38.491C60.2326 37.8944 60.2326 37.2941 60.1777 36.6976L63.6241 37.245V37.9434L60.1778 38.491ZM57.9753 31.3917C57.5918 30.9307 57.167 30.5058 56.706 30.1224L59.5341 28.0697L60.028 28.5635L57.9753 31.3917ZM40.9788 28.5635L41.4728 28.0696L44.3006 30.1221C43.8397 30.5056 43.4149 30.9305 43.0315 31.3916L40.9788 28.5635ZM51.4002 27.92C50.8037 27.8651 50.2034 27.865 49.6068 27.9199L50.1543 24.4736H50.8526L51.4002 27.92Z" fill="#B3B3FF"></path><path d="M63.6143 66.6667H37.3867C37.2054 66.6667 37.0315 66.5946 36.9033 66.4664C36.7751 66.3382 36.7031 66.1644 36.7031 65.9831C36.7031 65.8018 36.7751 65.6279 36.9033 65.4997C37.0315 65.3715 37.2054 65.2995 37.3867 65.2995H63.6143C63.7956 65.2995 63.9695 65.3715 64.0977 65.4997C64.2259 65.6279 64.2979 65.8018 64.2979 65.9831C64.2979 66.1644 64.2259 66.3382 64.0977 66.4664C63.9695 66.5946 63.7956 66.6667 63.6143 66.6667Z" fill="#FF2C2C"></path><path d="M79.9584 77.8424H64.9844C64.2293 77.8424 63.6172 77.2304 63.6172 76.4753V55.4908C63.6172 54.7357 64.2293 54.1237 64.9844 54.1237H79.9584C80.7135 54.1237 81.3255 54.7357 81.3255 55.4908V76.4753C81.3255 77.2304 80.7135 77.8424 79.9584 77.8424Z" fill="white"></path><path d="M71.0055 59.6599H68.4648C68.2835 59.6599 68.1097 59.5879 67.9815 59.4597C67.8533 59.3315 67.7812 59.1576 67.7812 58.9763C67.7812 58.795 67.8533 58.6212 67.9815 58.493C68.1097 58.3648 68.2835 58.2928 68.4648 58.2928H71.0055C71.1868 58.2928 71.3607 58.3648 71.4889 58.493C71.6171 58.6212 71.6891 58.795 71.6891 58.9763C71.6891 59.1576 71.6171 59.3315 71.4889 59.4597C71.3607 59.5879 71.1868 59.6599 71.0055 59.6599Z" fill="#FF6C6C"></path><path d="M76.4742 62.4465H68.4648C68.2835 62.4465 68.1097 62.3745 67.9815 62.2463C67.8533 62.1181 67.7812 61.9443 67.7812 61.763C67.7812 61.5817 67.8533 61.4078 67.9815 61.2796C68.1097 61.1514 68.2835 61.0794 68.4648 61.0794H76.4742C76.6555 61.0794 76.8294 61.1514 76.9576 61.2796C77.0858 61.4078 77.1578 61.5817 77.1578 61.763C77.1578 61.9443 77.0858 62.1181 76.9576 62.2463C76.8294 62.3745 76.6555 62.4465 76.4742 62.4465ZM76.4742 65.233H68.4648C68.2835 65.233 68.1097 65.161 67.9815 65.0328C67.8533 64.9046 67.7812 64.7307 67.7812 64.5494C67.7812 64.3681 67.8533 64.1942 67.9815 64.066C68.1097 63.9379 68.2835 63.8658 68.4648 63.8658H76.4742C76.6555 63.8658 76.8294 63.9379 76.9576 64.066C77.0858 64.1942 77.1578 64.3681 77.1578 64.5494C77.1578 64.7307 77.0858 64.9046 76.9576 65.0328C76.8294 65.161 76.6555 65.233 76.4742 65.233ZM76.4742 70.8617H70.9258C70.7445 70.8617 70.5706 70.7897 70.4424 70.6615C70.3142 70.5333 70.2422 70.3594 70.2422 70.1781C70.2422 69.9968 70.3142 69.823 70.4424 69.6948C70.5706 69.5666 70.7445 69.4945 70.9258 69.4945H76.4742C76.6555 69.4945 76.8294 69.5666 76.9576 69.6948C77.0858 69.823 77.1578 69.9968 77.1578 70.1781C77.1578 70.3594 77.0858 70.5333 76.9576 70.6615C76.8294 70.7897 76.6555 70.8617 76.4742 70.8617Z" fill="#FFAB66"></path><path d="M68.4648 70.8617C68.8424 70.8617 69.1484 70.5557 69.1484 70.1781C69.1484 69.8006 68.8424 69.4945 68.4648 69.4945C68.0873 69.4945 67.7812 69.8006 67.7812 70.1781C67.7812 70.5557 68.0873 70.8617 68.4648 70.8617Z" fill="#FF6C6C"></path><path d="M68.4648 73.6483C68.8424 73.6483 69.1484 73.3423 69.1484 72.9647C69.1484 72.5872 68.8424 72.2811 68.4648 72.2811C68.0873 72.2811 67.7812 72.5872 67.7812 72.9647C67.7812 73.3423 68.0873 73.6483 68.4648 73.6483Z" fill="#FF6C6C"></path><path d="M76.4742 73.6483H70.9258C70.7445 73.6483 70.5706 73.5763 70.4424 73.4481C70.3142 73.3199 70.2422 73.146 70.2422 72.9647C70.2422 72.7834 70.3142 72.6095 70.4424 72.4813C70.5706 72.3532 70.7445 72.2811 70.9258 72.2811H76.4742C76.6555 72.2811 76.8294 72.3532 76.9576 72.4813C77.0858 72.6095 77.1578 72.7834 77.1578 72.9647C77.1578 73.146 77.0858 73.3199 76.9576 73.4481C76.8294 73.5763 76.6555 73.6483 76.4742 73.6483Z" fill="#FFAB66"></path><path d="M36.0209 77.8424H21.0469C20.2918 77.8424 19.6797 77.2304 19.6797 76.4753V55.4908C19.6797 54.7357 20.2918 54.1237 21.0469 54.1237H36.0209C36.776 54.1237 37.388 54.7357 37.388 55.4908V76.4753C37.388 77.2304 36.776 77.8424 36.0209 77.8424Z" fill="white"></path><path d="M27.068 59.6599H24.5273C24.346 59.6599 24.1722 59.5879 24.044 59.4597C23.9158 59.3315 23.8438 59.1576 23.8438 58.9763C23.8438 58.795 23.9158 58.6212 24.044 58.493C24.1722 58.3648 24.346 58.2928 24.5273 58.2928H27.068C27.2493 58.2928 27.4232 58.3648 27.5514 58.493C27.6796 58.6212 27.7516 58.795 27.7516 58.9763C27.7516 59.1576 27.6796 59.3315 27.5514 59.4597C27.4232 59.5879 27.2493 59.6599 27.068 59.6599Z" fill="#FF6C6C"></path><path d="M32.5367 62.4465H24.5273C24.346 62.4465 24.1722 62.3745 24.044 62.2463C23.9158 62.1181 23.8438 61.9442 23.8438 61.7629C23.8438 61.5816 23.9158 61.4078 24.044 61.2796C24.1722 61.1514 24.346 61.0793 24.5273 61.0793H32.5367C32.718 61.0793 32.8919 61.1514 33.0201 61.2796C33.1483 61.4078 33.2203 61.5816 33.2203 61.7629C33.2203 61.9442 33.1483 62.1181 33.0201 62.2463C32.8919 62.3745 32.718 62.4465 32.5367 62.4465ZM32.5367 65.233H24.5273C24.346 65.233 24.1722 65.161 24.044 65.0328C23.9158 64.9046 23.8438 64.7307 23.8438 64.5494C23.8438 64.3681 23.9158 64.1942 24.044 64.066C24.1722 63.9378 24.346 63.8658 24.5273 63.8658H32.5367C32.718 63.8658 32.8919 63.9378 33.0201 64.066C33.1483 64.1942 33.2203 64.3681 33.2203 64.5494C33.2203 64.7307 33.1483 64.9046 33.0201 65.0328C32.8919 65.161 32.718 65.233 32.5367 65.233ZM32.5367 70.8617H26.9883C26.807 70.8617 26.6331 70.7897 26.5049 70.6615C26.3767 70.5333 26.3047 70.3594 26.3047 70.1781C26.3047 69.9968 26.3767 69.8229 26.5049 69.6947C26.6331 69.5665 26.807 69.4945 26.9883 69.4945H32.5367C32.718 69.4945 32.8919 69.5665 33.0201 69.6947C33.1483 69.8229 33.2203 69.9968 33.2203 70.1781C33.2203 70.3594 33.1483 70.5333 33.0201 70.6615C32.8919 70.7897 32.718 70.8617 32.5367 70.8617Z" fill="#FFAB66"></path><path d="M24.5273 70.8617C24.9049 70.8617 25.2109 70.5557 25.2109 70.1781C25.2109 69.8006 24.9049 69.4945 24.5273 69.4945C24.1498 69.4945 23.8438 69.8006 23.8438 70.1781C23.8438 70.5557 24.1498 70.8617 24.5273 70.8617Z" fill="#FF6C6C"></path><path d="M24.5273 73.6483C24.9049 73.6483 25.2109 73.3423 25.2109 72.9647C25.2109 72.5872 24.9049 72.2811 24.5273 72.2811C24.1498 72.2811 23.8438 72.5872 23.8438 72.9647C23.8438 73.3423 24.1498 73.6483 24.5273 73.6483Z" fill="#FF6C6C"></path><path d="M32.5367 73.6483H26.9883C26.807 73.6483 26.6331 73.5763 26.5049 73.4481C26.3767 73.3199 26.3047 73.146 26.3047 72.9647C26.3047 72.7834 26.3767 72.6096 26.5049 72.4814C26.6331 72.3532 26.807 72.2811 26.9883 72.2811H32.5367C32.718 72.2811 32.8919 72.3532 33.0201 72.4814C33.1483 72.6096 33.2203 72.7834 33.2203 72.9647C33.2203 73.146 33.1483 73.3199 33.0201 73.4481C32.8919 73.5763 32.718 73.6483 32.5367 73.6483ZM74.6178 33.2566C74.4365 33.2566 74.2626 33.1845 74.1344 33.0563C74.0062 32.9281 73.9342 32.7543 73.9342 32.573C73.934 32.3434 73.8427 32.1233 73.6803 31.961C73.518 31.7987 73.2979 31.7074 73.0684 31.7071C72.8871 31.7071 72.7132 31.6351 72.585 31.5069C72.4568 31.3787 72.3848 31.2048 72.3848 31.0235C72.3848 30.8422 72.4568 30.6683 72.585 30.5401C72.7132 30.412 72.8871 30.3399 73.0684 30.3399C73.2979 30.3397 73.518 30.2484 73.6803 30.0861C73.8427 29.9237 73.934 29.7036 73.9342 29.4741C73.9342 29.2928 74.0062 29.1189 74.1344 28.9907C74.2626 28.8625 74.4365 28.7905 74.6178 28.7905C74.7991 28.7905 74.973 28.8625 75.1012 28.9907C75.2294 29.1189 75.3014 29.2928 75.3014 29.4741C75.3017 29.7036 75.393 29.9237 75.5553 30.0861C75.7176 30.2484 75.9377 30.3397 76.1672 30.3399C76.3485 30.3399 76.5224 30.412 76.6506 30.5401C76.7788 30.6683 76.8508 30.8422 76.8508 31.0235C76.8508 31.2048 76.7788 31.3787 76.6506 31.5069C76.5224 31.6351 76.3485 31.7071 76.1672 31.7071C75.9377 31.7074 75.7176 31.7987 75.5553 31.961C75.393 32.1233 75.3017 32.3434 75.3014 32.573C75.3014 32.7543 75.2294 32.9281 75.1012 33.0563C74.973 33.1845 74.7991 33.2566 74.6178 33.2566Z" fill="#FFAB66"></path><path d="M42.6373 81.6482C42.456 81.6482 42.2821 81.5761 42.1539 81.4479C42.0257 81.3197 41.9537 81.1459 41.9537 80.9646C41.9534 80.735 41.8621 80.5149 41.6998 80.3526C41.5375 80.1903 41.3174 80.099 41.0878 80.0987C40.9065 80.0987 40.7327 80.0267 40.6045 79.8985C40.4763 79.7703 40.4042 79.5964 40.4042 79.4151C40.4042 79.2338 40.4763 79.06 40.6045 78.9318C40.7327 78.8036 40.9065 78.7315 41.0878 78.7315C41.3174 78.7313 41.5375 78.64 41.6998 78.4777C41.8621 78.3153 41.9534 78.0953 41.9537 77.8657C41.9537 77.6844 42.0257 77.5105 42.1539 77.3823C42.2821 77.2541 42.456 77.1821 42.6373 77.1821C42.8186 77.1821 42.9924 77.2541 43.1206 77.3823C43.2488 77.5105 43.3209 77.6844 43.3209 77.8657C43.3211 78.0953 43.4124 78.3153 43.5747 78.4777C43.7371 78.64 43.9571 78.7313 44.1867 78.7315C44.368 78.7315 44.5419 78.8036 44.6701 78.9318C44.7983 79.06 44.8703 79.2338 44.8703 79.4151C44.8703 79.5964 44.7983 79.7703 44.6701 79.8985C44.5419 80.0267 44.368 80.0987 44.1867 80.0987C43.9571 80.099 43.7371 80.1903 43.5747 80.3526C43.4124 80.5149 43.3211 80.735 43.3209 80.9646C43.3209 81.1459 43.2488 81.3197 43.1206 81.4479C42.9924 81.5761 42.8186 81.6482 42.6373 81.6482ZM29.4752 24.6329C29.2939 24.6329 29.12 24.5609 28.9918 24.4327C28.8636 24.3045 28.7916 24.1306 28.7916 23.9493C28.7914 23.7197 28.7001 23.4997 28.5377 23.3373C28.3754 23.175 28.1553 23.0837 27.9258 23.0835C27.7445 23.0835 27.5706 23.0114 27.4424 22.8832C27.3142 22.755 27.2422 22.5812 27.2422 22.3999C27.2422 22.2186 27.3142 22.0447 27.4424 21.9165C27.5706 21.7883 27.7445 21.7163 27.9258 21.7163C28.1553 21.716 28.3754 21.6247 28.5377 21.4624C28.7001 21.3001 28.7914 21.08 28.7916 20.8504C28.7916 20.6691 28.8636 20.4953 28.9918 20.3671C29.12 20.2389 29.2939 20.1668 29.4752 20.1668C29.6565 20.1668 29.8304 20.2389 29.9586 20.3671C30.0868 20.4953 30.1588 20.6691 30.1588 20.8504C30.1591 21.08 30.2504 21.3001 30.4127 21.4624C30.575 21.6247 30.7951 21.716 31.0246 21.7163C31.2059 21.7163 31.3798 21.7883 31.508 21.9165C31.6362 22.0447 31.7082 22.2186 31.7082 22.3999C31.7082 22.5812 31.6362 22.755 31.508 22.8832C31.3798 23.0114 31.2059 23.0835 31.0246 23.0835C30.7951 23.0837 30.575 23.175 30.4127 23.3373C30.2504 23.4997 30.1591 23.7197 30.1588 23.9493C30.1588 24.1306 30.0868 24.3045 29.9586 24.4327C29.8304 24.5609 29.6565 24.6329 29.4752 24.6329Z" fill="#FF6C6C"></path><path d="M40.3339 22.2099C40.2441 22.2101 40.1552 22.1924 40.0722 22.1581C39.9893 22.1237 39.9139 22.0733 39.8505 22.0098L39.1035 21.2628L38.3564 22.0098C38.2273 22.1337 38.0549 22.2021 37.876 22.2002C37.697 22.1984 37.526 22.1265 37.3995 22C37.273 21.8735 37.2011 21.7024 37.1993 21.5235C37.1974 21.3446 37.2658 21.1721 37.3897 21.0431L38.6202 19.8126C38.7484 19.6844 38.9222 19.6124 39.1035 19.6124C39.2848 19.6124 39.4587 19.6844 39.5869 19.8126L40.8174 21.0431C40.9129 21.1387 40.978 21.2605 41.0044 21.3931C41.0307 21.5257 41.0172 21.6631 40.9655 21.788C40.9137 21.9129 40.8261 22.0196 40.7137 22.0948C40.6013 22.1699 40.4691 22.2099 40.3339 22.2099Z" fill="#8383FF"></path><path d="M48.9863 76.7843C48.8965 76.7844 48.8075 76.7668 48.7246 76.7324C48.6416 76.6981 48.5663 76.6477 48.5028 76.5841L47.7558 75.8371L47.0088 76.5841C46.8797 76.708 46.7072 76.7764 46.5283 76.7745C46.3494 76.7727 46.1783 76.7008 46.0518 76.5743C45.9253 76.4478 45.8534 76.2767 45.8516 76.0978C45.8498 75.9189 45.9181 75.7464 46.042 75.6174L47.2725 74.3869C47.4007 74.2587 47.5746 74.1867 47.7559 74.1867C47.9372 74.1867 48.111 74.2587 48.2392 74.3869L49.4697 75.6174C49.5653 75.713 49.6304 75.8348 49.6567 75.9674C49.6831 76.1 49.6695 76.2374 49.6178 76.3623C49.5661 76.4872 49.4784 76.594 49.366 76.6691C49.2536 76.7442 49.1215 76.7843 48.9863 76.7843Z" fill="#FFAB66"></path><path d="M72.8164 43.9061C73.1939 43.9061 73.5 43.6001 73.5 43.2225C73.5 42.845 73.1939 42.5389 72.8164 42.5389C72.4389 42.5389 72.1328 42.845 72.1328 43.2225C72.1328 43.6001 72.4389 43.9061 72.8164 43.9061Z" fill="#FF7300"></path><path d="M72.8164 46.589C73.1939 46.589 73.5 46.2829 73.5 45.9054C73.5 45.5278 73.1939 45.2218 72.8164 45.2218C72.4389 45.2218 72.1328 45.5278 72.1328 45.9054C72.1328 46.2829 72.4389 46.589 72.8164 46.589Z" fill="#FF7300"></path><path d="M72.8164 49.2718C73.1939 49.2718 73.5 48.9657 73.5 48.5882C73.5 48.2107 73.1939 47.9046 72.8164 47.9046C72.4389 47.9046 72.1328 48.2107 72.1328 48.5882C72.1328 48.9657 72.4389 49.2718 72.8164 49.2718Z" fill="#FF7300"></path><path d="M28.1836 43.9061C28.5611 43.9061 28.8672 43.6001 28.8672 43.2225C28.8672 42.845 28.5611 42.5389 28.1836 42.5389C27.8061 42.5389 27.5 42.845 27.5 43.2225C27.5 43.6001 27.8061 43.9061 28.1836 43.9061Z" fill="#FF7300"></path><path d="M28.1836 46.589C28.5611 46.589 28.8672 46.2829 28.8672 45.9054C28.8672 45.5278 28.5611 45.2218 28.1836 45.2218C27.8061 45.2218 27.5 45.5278 27.5 45.9054C27.5 46.2829 27.8061 46.589 28.1836 46.589Z" fill="#FF7300"></path><path d="M28.1836 49.2718C28.5611 49.2718 28.8672 48.9657 28.8672 48.5882C28.8672 48.2107 28.5611 47.9046 28.1836 47.9046C27.8061 47.9046 27.5 48.2107 27.5 48.5882C27.5 48.9657 27.8061 49.2718 28.1836 49.2718Z" fill="#FF7300"></path><path d="M79.9568 54.1237H77.0805V39.0648C77.0805 38.3097 76.4684 37.6976 75.7133 37.6976H66.7669V35.7277C66.7668 35.4023 66.6508 35.0876 66.4395 34.8401C66.2282 34.5926 65.9356 34.4286 65.6142 34.3775L62.5144 33.885C62.2837 33.1383 61.9836 32.4148 61.6179 31.7241L63.4625 29.1827C63.6536 28.9194 63.7446 28.5965 63.719 28.2721C63.6934 27.9477 63.5529 27.643 63.3228 27.4129L60.6831 24.7733C60.453 24.5432 60.1484 24.4027 59.824 24.3771C59.4996 24.3515 59.1767 24.4424 58.9133 24.6336L56.372 26.4782C55.6813 26.1123 54.9578 25.8122 54.211 25.5817L53.7186 22.4819C53.6675 22.1605 53.5035 21.8679 53.256 21.6566C53.0085 21.4453 52.6937 21.3292 52.3683 21.3292H48.6354C48.3099 21.3292 47.9952 21.4453 47.7477 21.6566C47.5002 21.8679 47.3362 22.1605 47.2851 22.4819L46.7927 25.5814C46.0458 25.812 45.3223 26.1122 44.6315 26.478L42.0904 24.6336C41.827 24.4424 41.5041 24.3515 41.1797 24.3771C40.8553 24.4027 40.5506 24.5432 40.3205 24.7733L37.6809 27.4129C37.4559 27.6378 37.3166 27.9343 37.2873 28.251H25.1248C24.3697 28.251 23.7576 28.8631 23.7576 29.6182V54.1237H21.0469C20.2918 54.1237 19.6797 54.7358 19.6797 55.4909V76.4753C19.6797 77.2304 20.2918 77.8425 21.0469 77.8425H36.0209C36.776 77.8425 37.388 77.2304 37.388 76.4753V70.442H63.6156V76.4753C63.6156 77.2304 64.2277 77.8425 64.9828 77.8425H79.9568C80.7119 77.8425 81.324 77.2304 81.324 76.4753V55.4909C81.324 54.7358 80.7119 54.1237 79.9568 54.1237ZM50.5012 31.0234C54.1309 31.0234 57.0727 33.9653 57.0727 37.5949C57.0727 37.6294 57.0706 37.6631 57.0701 37.6975H49.3561L45.2738 33.6152C46.4742 32.0404 48.3687 31.0234 50.5012 31.0234Z" fill="url(#paint1_linear_271_4121)"></path></g><defs><linearGradient id="paint0_linear_271_4121" x1="35.3352" y1="81.1645" x2="80.0022" y2="27.9325" gradientUnits="userSpaceOnUse"><stop stop-color="#FFF3EE" stop-opacity="0"></stop><stop offset="0.294" stop-color="#FFEADE" stop-opacity="0.373"></stop><stop offset="0.787" stop-color="#FFD6BB"></stop></linearGradient><linearGradient id="paint1_linear_271_4121" x1="50.5018" y1="77.8425" x2="50.5018" y2="21.3292" gradientUnits="userSpaceOnUse"><stop stop-color="#FF4D4D" stop-opacity="0.4"></stop><stop offset="0.146" stop-color="#FF4D4D" stop-opacity="0.342"></stop><stop offset="1" stop-color="#FF4D4D" stop-opacity="0"></stop></linearGradient><clipPath id="clip0_271_4121"><rect width="70" height="70" fill="white" transform="translate(15.5 15.1327)"></rect></clipPath></defs></svg>