<svg xmlns="http://www.w3.org/2000/svg" width="101" height="101" viewBox="0 0 101 101" fill="none"><rect x="0.5" y="0.13269" width="100" height="100" rx="30" fill="#F7F7FF"></rect><path d="M85.2983 32.574C84.2896 24.8943 80.0475 15.1327 62.0601 15.1327C49.638 15.1327 49.4702 20.9925 36.239 18.0872C26.5968 15.9701 17.0095 22.9542 15.6768 32.7108C14.239 43.2359 21.97 48.0609 24.4798 56.8917C27.1871 66.4171 29.1316 85.1327 41.1779 85.1327C54.4608 85.1327 55.1467 75.0107 63.7504 63.9042C72.0286 53.2175 87.4383 48.8674 85.2983 32.574Z" fill="url(#paint0_linear_271_4030)"></path><path d="M78.9884 66.7204L75.8793 64.4657C76.0166 63.6759 76.0938 62.865 76.0938 62.0372C76.0938 61.2136 76.0166 60.4026 75.8793 59.6128L78.989 57.3577C79.4471 57.0255 79.6272 56.4369 79.4398 55.908C78.6551 53.6922 77.4541 51.668 75.9282 49.9238C75.5573 49.4998 74.95 49.3601 74.4294 49.5842L70.8915 51.1065C69.6348 50.0717 68.1939 49.2396 66.6241 48.6738L66.1954 44.9018C66.1321 44.3454 65.7059 43.8971 65.1474 43.793C63.9899 43.5779 62.8145 43.4699 61.6365 43.4704V27.4182C61.6365 27.1006 61.5084 26.796 61.2803 26.5714C61.0522 26.3468 60.7429 26.2206 60.4204 26.2206H22.7044C22.3819 26.2206 22.0726 26.3468 21.8445 26.5714C21.6164 26.796 21.4883 27.1006 21.4883 27.4182V60.8416C21.4883 61.1592 21.6164 61.4639 21.8445 61.6885C22.0726 61.9131 22.3819 62.0393 22.7044 62.0393H26.8846V74.0345C26.8846 74.8446 27.5514 75.5013 28.374 75.5013H36.5274C37.35 75.5013 38.0168 74.8446 38.0168 74.0345V62.0393H47.1829C47.1831 62.8664 47.2559 63.6766 47.3931 64.4657L44.2833 66.7242C43.8253 67.0568 43.6458 67.6457 43.8337 68.1746C44.6136 70.3667 45.8044 72.3952 47.3441 74.1547C47.7149 74.5788 48.3223 74.7185 48.8431 74.4945L52.3809 72.9721C53.6533 74.0171 55.0981 74.8399 56.6525 75.4049L57.0812 79.1804C57.1445 79.7372 57.5714 80.1859 58.1306 80.2896C59.2866 80.5026 60.4602 80.6093 61.6362 80.6083C62.8363 80.6083 64.0101 80.4974 65.1474 80.2856C65.706 80.1816 66.1322 79.7331 66.1954 79.1768L66.6241 75.4049C68.1939 74.8348 69.6306 74.0068 70.8915 72.9721L74.4257 74.4945C74.9461 74.7187 75.5532 74.5792 75.9243 74.1557C77.4672 72.3959 78.6595 70.3656 79.4389 68.1711C79.6268 67.6418 79.4467 67.0527 78.9884 66.7204ZM61.6362 68.8638C57.8092 68.8638 54.7094 65.8079 54.7083 62.0394H60.4205C60.743 62.0394 61.0524 61.9132 61.2804 61.6886C61.5085 61.464 61.6366 61.1594 61.6366 60.8417V55.2148C65.4642 55.2149 68.5641 58.272 68.5641 62.0373C68.5641 65.8068 65.4639 68.8638 61.6362 68.8638Z" fill="#0000CB" fill-opacity="0.0627451"></path><path d="M61.6365 29.2284V57.5595C61.6365 57.8772 61.5084 58.1818 61.2803 58.4064C61.0522 58.631 60.7429 58.7572 60.4204 58.7572H22.7044C22.3819 58.7572 22.0726 58.631 21.8445 58.4064C21.6164 58.1818 21.4883 57.8772 21.4883 57.5595V29.2284L22.1823 28.5448H60.8932L61.6365 29.2284Z" fill="white"></path><path d="M58.1271 43.793C57.569 43.897 57.1428 44.3454 57.079 44.9005L56.65 48.6725C55.0812 49.2386 53.6402 50.0671 52.3782 51.1061L48.8477 49.5831C48.3285 49.3589 47.7204 49.4983 47.3498 49.9221C45.8055 51.6803 44.612 53.7096 43.8318 55.9036C43.643 56.4327 43.8235 57.0206 44.2816 57.3542L46.2128 58.7569H55.5588C56.7361 56.646 59.0143 55.2145 61.634 55.2145V43.4704C60.4345 43.4704 59.2628 43.5811 58.1271 43.793Z" fill="#D8D8FF"></path><path d="M52.7172 50.6794H48.0066C47.8225 50.6794 47.6459 50.6074 47.5158 50.4792C47.3856 50.351 47.3125 50.1771 47.3125 49.9958V42.3459C47.3125 42.1646 47.3856 41.9907 47.5158 41.8625C47.6459 41.7343 47.8225 41.6623 48.0066 41.6623H52.7172C52.9013 41.6623 53.0779 41.7343 53.2081 41.8625C53.3383 41.9907 53.4114 42.1646 53.4114 42.3459V49.9958C53.4114 50.1771 53.3383 50.351 53.2081 50.4792C53.0779 50.6074 52.9013 50.6794 52.7172 50.6794ZM61.6366 29.2287V24.137C61.6366 23.8193 61.5085 23.5147 61.2804 23.2901C61.0524 23.0655 60.743 22.9393 60.4205 22.9393H22.7044C22.3819 22.9393 22.0726 23.0655 21.8445 23.2901C21.6164 23.5147 21.4883 23.8193 21.4883 24.137V29.2285L61.6366 29.2287Z" fill="#FF6C6C"></path><path d="M25.6707 27.0347C26.0541 27.0347 26.3649 26.7287 26.3649 26.3512C26.3649 25.9736 26.0541 25.6676 25.6707 25.6676C25.2873 25.6676 24.9766 25.9736 24.9766 26.3512C24.9766 26.7287 25.2873 27.0347 25.6707 27.0347Z" fill="white"></path><path d="M28.1473 27.0347C28.5306 27.0347 28.8414 26.7287 28.8414 26.3512C28.8414 25.9736 28.5306 25.6676 28.1473 25.6676C27.7639 25.6676 27.4531 25.9736 27.4531 26.3512C27.4531 26.7287 27.7639 27.0347 28.1473 27.0347Z" fill="white"></path><path d="M30.6238 27.0347C31.0072 27.0347 31.318 26.7287 31.318 26.3512C31.318 25.9736 31.0072 25.6676 30.6238 25.6676C30.2405 25.6676 29.9297 25.9736 29.9297 26.3512C29.9297 26.7287 30.2405 27.0347 30.6238 27.0347Z" fill="white"></path><path d="M78.9863 63.4382L75.8779 61.1837C76.014 60.3948 76.0917 59.5827 76.0917 58.7555C76.0917 57.9311 76.014 57.1204 75.8779 56.3315L78.9863 54.0757C79.4445 53.7434 79.625 53.1555 79.4375 52.6264C78.6531 50.4102 77.4523 48.3868 75.9265 46.6423C75.5558 46.2184 74.9478 46.0776 74.4272 46.3018L70.8898 47.8249C69.6334 46.7899 68.1923 45.9573 66.6221 45.3913L66.1932 41.6206C66.1307 41.0641 65.7045 40.6157 65.145 40.5118C64.008 40.2999 62.8335 40.1891 61.634 40.1891C60.4345 40.1891 59.2628 40.2999 58.1271 40.5118C57.569 40.6157 57.1428 41.0641 57.079 41.6192L56.65 45.3913C55.0812 45.9573 53.6402 46.7858 52.3782 47.8249L48.8477 46.3018C48.3285 46.0776 47.7218 46.2171 47.3498 46.6409C45.8055 48.3991 44.612 50.4284 43.8318 52.6223C43.643 53.1514 43.8235 53.7393 44.2816 54.0729L47.3914 56.3315C47.254 57.1204 47.1804 57.927 47.1804 58.7555C47.1804 59.5827 47.254 60.3948 47.3914 61.1837L44.2816 63.4423C43.8235 63.7745 43.643 64.3637 43.8318 64.8928C44.619 67.1077 45.8199 69.1311 47.3414 70.8729C47.7135 71.2968 48.3202 71.4362 48.8408 71.212L52.3782 69.6903C53.651 70.7348 55.0957 71.5574 56.65 72.1225L57.079 75.8987C57.1428 76.4552 57.569 76.9036 58.1285 77.0075C59.2655 77.218 60.4373 77.326 61.634 77.326C62.8335 77.326 64.008 77.2153 65.145 77.0034C65.7045 76.8995 66.1307 76.451 66.1932 75.8946L66.6221 72.1225C68.1923 71.5524 69.6278 70.7253 70.8898 69.6903L74.423 71.212C74.9436 71.4362 75.5517 71.2968 75.9224 70.8743C77.4649 69.1139 78.6574 67.0834 79.4375 64.8887C79.625 64.3596 79.4445 63.7704 78.9863 63.4382ZM61.634 68.1481C56.3668 68.1481 52.1005 63.9413 52.1005 58.7542C52.1005 53.5725 56.3668 49.3657 61.634 49.3657C66.9012 49.3657 71.1674 53.5725 71.1674 58.7542C71.1674 63.9413 66.9012 68.1481 61.634 68.1481Z" fill="#9393FF"></path><path d="M61.6363 48.4982C55.8832 48.4982 51.2227 53.0933 51.2227 58.7535C51.2227 64.4191 55.8832 69.0142 61.6363 69.0142C67.3894 69.0142 72.0499 64.4191 72.0499 58.7535C72.0499 53.0933 67.3894 48.4982 61.6363 48.4982ZM61.6363 65.5812C57.8087 65.5812 54.7087 62.5242 54.7087 58.7549C54.7087 54.9896 57.8087 51.9326 61.6363 51.9326C65.4638 51.9326 68.5639 54.9896 68.5639 58.7549C68.5639 62.5242 65.4638 65.5812 61.6363 65.5812Z" fill="#6C6CFF"></path><path d="M42.1376 41.4628C42.1376 41.054 42.0993 40.6515 42.0311 40.2596L43.5745 39.1404C43.685 39.0597 43.7663 38.9463 43.8066 38.8169C43.8469 38.6874 43.844 38.5486 43.7983 38.4208C43.4119 37.3318 42.8206 36.3243 42.0554 35.4509C41.966 35.3482 41.8455 35.2764 41.7117 35.2461C41.5778 35.2158 41.4376 35.2284 41.3116 35.2823L39.5557 36.038C38.9257 35.5182 38.2091 35.1097 37.4377 34.8306L37.225 32.9585C37.2094 32.824 37.1505 32.698 37.0569 32.599C36.9633 32.4999 36.8399 32.4331 36.7048 32.4082C36.1303 32.3014 35.5469 32.2477 34.9622 32.248C34.3782 32.2477 33.7954 32.3013 33.2215 32.4081C33.0865 32.4329 32.9631 32.4998 32.8695 32.5989C32.7759 32.6979 32.717 32.8239 32.7015 32.9584L32.4888 34.8305C31.7166 35.1092 30.9992 35.5177 30.3687 36.0378L28.6164 35.2823C28.4905 35.2284 28.3504 35.2155 28.2166 35.2457C28.0827 35.2759 27.9622 35.3474 27.8727 35.4499C27.1062 36.3226 26.5138 37.3298 26.1266 38.4188C26.0808 38.5465 26.0777 38.6853 26.1179 38.8149C26.158 38.9444 26.2393 39.0579 26.3497 39.1386L27.8931 40.2596C27.754 41.0566 27.754 41.8711 27.8931 42.6681L26.3497 43.7891C26.2393 43.8698 26.158 43.9833 26.1179 44.1128C26.0777 44.2424 26.0808 44.3812 26.1266 44.5089C26.5137 45.5969 27.1047 46.6036 27.869 47.4768C27.9584 47.5795 28.0789 47.6514 28.2128 47.6817C28.3467 47.712 28.4869 47.6993 28.6129 47.6454L30.3689 46.8899C31.0004 47.4085 31.7175 47.8168 32.4889 48.0972L32.7016 49.9711C32.7171 50.1057 32.7761 50.2318 32.8699 50.3309C32.9637 50.4301 33.0873 50.4969 33.2225 50.5217C33.7962 50.6274 34.3787 50.6803 34.9623 50.6798C35.5579 50.6798 36.1404 50.6247 36.7049 50.5196C36.84 50.4947 36.9634 50.4279 37.057 50.3288C37.1507 50.2298 37.2096 50.1038 37.2251 49.9693L37.4378 48.0972C38.2086 47.8168 38.925 47.4084 39.5558 46.8899L41.3099 47.6454C41.4359 47.6993 41.5761 47.7121 41.7099 47.6818C41.8438 47.6515 41.9643 47.5798 42.0538 47.4772C42.8195 46.6038 43.4112 45.5962 43.798 44.507C43.8438 44.3792 43.8468 44.2403 43.8066 44.1107C43.7663 43.9812 43.6849 43.8677 43.5744 43.787L42.0313 42.668C42.0993 42.2762 42.1376 41.8737 42.1376 41.4628ZM34.9622 44.8508C33.0624 44.8508 31.5238 43.3337 31.5238 41.4628C31.5238 39.594 33.0624 38.0767 34.9622 38.0767C36.8619 38.0767 38.4006 39.5939 38.4006 41.4628C38.4006 43.3337 36.8619 44.8508 34.9622 44.8508ZM48.9847 34.5775H48.0073C47.8232 34.5775 47.6467 34.5055 47.5165 34.3773C47.3863 34.2491 47.3132 34.0752 47.3132 33.8939V32.9314C47.3132 32.7501 47.3863 32.5763 47.5165 32.4481C47.6467 32.3199 47.8232 32.2478 48.0073 32.2478H48.9847C49.1688 32.2478 49.3454 32.3199 49.4755 32.4481C49.6057 32.5763 49.6789 32.7501 49.6789 32.9314V33.8939C49.6789 34.0752 49.6057 34.2491 49.4755 34.3773C49.3454 34.5055 49.1688 34.5775 48.9847 34.5775Z" fill="#FFAA66"></path><path d="M47.3125 36.547C47.3125 36.7283 47.3856 36.9021 47.5158 37.0303C47.646 37.1585 47.8225 37.2305 48.0066 37.2305H52.7173C52.9014 37.2305 53.0779 37.1585 53.2081 37.0303C53.3383 36.9021 53.4114 36.7283 53.4114 36.547C53.4114 36.3657 53.3383 36.1918 53.2081 36.0636C53.0779 35.9354 52.9014 35.8634 52.7173 35.8634H48.0066C47.8225 35.8634 47.646 35.9354 47.5158 36.0636C47.3856 36.1918 47.3125 36.3657 47.3125 36.547ZM54.3834 38.2421H48.0068C47.8227 38.2421 47.6461 38.3141 47.516 38.4423C47.3858 38.5705 47.3126 38.7444 47.3126 38.9257C47.3126 39.107 47.3858 39.2809 47.516 39.4091C47.6461 39.5373 47.8227 39.6093 48.0068 39.6093H54.3834C54.5675 39.6093 54.744 39.5373 54.8742 39.4091C55.0044 39.2809 55.0775 39.107 55.0775 38.9257C55.0775 38.7444 55.0044 38.5705 54.8742 38.4423C54.744 38.3141 54.5675 38.2421 54.3834 38.2421Z" fill="#9393FF"></path><path d="M36.5257 72.2195H28.3722C27.5496 72.2195 26.8828 71.5628 26.8828 70.7528V55.4303C26.8828 54.6202 27.5496 53.9635 28.3722 53.9635H29.5857L30.7203 54.6471H34.1775L35.3121 53.9635H36.5257C37.3482 53.9635 38.015 54.6202 38.015 55.4303V70.7528C38.015 71.5628 37.3482 72.2195 36.5257 72.2195Z" fill="#FF6C6C"></path><path d="M34.9015 55.6296L35.3124 53.9636H29.5859L29.9969 55.6296C30.0363 55.7894 30.129 55.9315 30.2603 56.0331C30.3915 56.1347 30.5536 56.1899 30.7206 56.1899H34.1777C34.3447 56.1899 34.5068 56.1346 34.638 56.033C34.7693 55.9314 34.862 55.7894 34.9015 55.6296Z" fill="#6C6CFF"></path><path d="M79.3993 62.8876L76.6299 60.8793C76.7335 60.1758 76.786 59.4659 76.7872 58.755C76.7872 58.0618 76.7343 57.3505 76.6299 56.6348L79.3999 54.6259C80.1054 54.1143 80.3847 53.2201 80.0946 52.4007C79.288 50.1231 78.063 48.0353 76.4534 46.1953C75.8792 45.5387 74.9539 45.3299 74.1507 45.6754L71.0003 47.0312C69.8575 46.1426 68.6047 45.4282 67.2663 44.902L66.8846 41.5435C66.787 40.6852 66.1404 40.0002 65.2757 39.8391C64.3033 39.6592 63.3184 39.5522 62.3295 39.5192V24.1364C62.3295 23.099 61.4725 22.2551 60.4192 22.2551H22.7033C21.65 22.2551 20.793 23.099 20.793 24.1364V57.5587C20.793 58.596 21.65 59.44 22.7033 59.44H26.1897V63.0512C26.1897 63.2325 26.2628 63.4064 26.393 63.5346C26.5232 63.6628 26.6998 63.7348 26.8839 63.7348C27.068 63.7348 27.2445 63.6628 27.3747 63.5346C27.5049 63.4064 27.578 63.2325 27.578 63.0512V55.4297C27.5782 55.2221 27.6621 55.023 27.8112 54.8761C27.9603 54.7293 28.1625 54.6467 28.3734 54.6465H36.5268C36.7377 54.6467 36.9399 54.7293 37.089 54.8761C37.2381 55.023 37.322 55.2221 37.3222 55.4297V70.7522C37.3219 70.9599 37.2381 71.1589 37.0889 71.3057C36.9398 71.4525 36.7377 71.5351 36.5268 71.5353H28.3734C28.1625 71.5351 27.9604 71.4525 27.8112 71.3057C27.6621 71.1589 27.5783 70.9599 27.578 70.7522V67.0895C27.578 66.9082 27.5049 66.7343 27.3747 66.6061C27.2445 66.4779 27.068 66.4059 26.8839 66.4059C26.6998 66.4059 26.5232 66.4779 26.393 66.6061C26.2628 66.7343 26.1897 66.9082 26.1897 67.0895V70.7522C26.1897 71.9378 27.1693 72.9025 28.3734 72.9025H36.5268C37.7309 72.9025 38.7105 71.9378 38.7105 70.7522V59.44H42.9809C43.165 59.44 43.3416 59.3679 43.4717 59.2397C43.6019 59.1115 43.6751 58.9377 43.6751 58.7564C43.6751 58.5751 43.6019 58.4012 43.4717 58.273C43.3416 58.1448 43.165 58.0728 42.9809 58.0728H38.7105V55.4297C38.7105 54.244 37.7309 53.2793 36.5268 53.2793H28.3734C27.1693 53.2793 26.1897 54.244 26.1897 55.4297V58.0728H22.7033C22.5649 58.0726 22.4322 58.0184 22.3344 57.922C22.2365 57.8256 22.1815 57.695 22.1813 57.5587V24.1364C22.1814 24.0001 22.2365 23.8694 22.3343 23.7731C22.4322 23.6767 22.5649 23.6224 22.7033 23.6222H60.4192C60.5576 23.6224 60.6903 23.6767 60.7881 23.7731C60.886 23.8694 60.941 24.0001 60.9412 24.1364V39.5191C59.9537 39.5521 58.9702 39.659 57.9993 39.8389C57.1346 40.0002 56.4882 40.685 56.3908 41.5433L56.0091 44.9017C54.6651 45.4298 53.406 46.1469 52.271 47.0308L49.1279 45.6755C48.3259 45.3299 47.401 45.5377 46.8261 46.1926C45.2162 48.0267 43.9887 50.1137 43.1778 52.3957C42.8868 53.215 43.1651 54.1098 43.8707 54.6221L46.6414 56.6345C46.5398 57.3368 46.4885 58.0454 46.4882 58.7549C46.4882 59.4618 46.5397 60.1747 46.6414 60.8793L43.8707 62.8917C43.1651 63.4041 42.8866 64.2988 43.1778 65.118C43.9871 67.396 45.2116 69.4821 46.8173 71.3182C47.3915 71.9754 48.317 72.1842 49.1202 71.8386L52.2714 70.4826C53.4077 71.3641 54.6662 72.0808 56.0087 72.6112L56.3906 75.974C56.4881 76.8335 57.1355 77.5187 58.0016 77.6792C59.1999 77.8997 60.4164 78.0103 61.6355 78.0096C62.8584 78.0096 64.0831 77.8971 65.2756 77.6751C66.1404 77.514 66.787 76.8291 66.8846 75.9706L67.2663 72.6113C68.6074 72.0808 69.8646 71.364 70.9996 70.4829L74.147 71.8386C74.949 72.1838 75.8747 71.9757 76.4495 71.3199C78.0578 69.4839 79.284 67.396 80.0936 65.1143C80.3845 64.2943 80.1054 63.3995 79.3993 62.8876ZM78.7831 64.6632C78.031 66.782 76.8922 68.7212 75.3982 70.4265C75.2236 70.6257 74.944 70.6896 74.7031 70.5857L71.1689 69.0633C71.0508 69.0125 70.9207 68.995 70.793 69.0128C70.6654 69.0307 70.5454 69.0832 70.4463 69.1645C69.2267 70.1654 67.8596 70.9447 66.3832 71.4809C66.2623 71.5248 66.1563 71.6009 66.0769 71.7008C65.9975 71.8007 65.9478 71.9203 65.9335 72.0464L65.505 75.8183C65.4755 76.0764 65.2798 76.2826 65.0177 76.3314C62.7982 76.7446 60.4545 76.7419 58.2583 76.3353C57.9958 76.2867 57.7998 76.0804 57.7703 75.8219L57.3416 72.0464C57.3273 71.9204 57.2776 71.8007 57.1983 71.7009C57.1189 71.601 57.0129 71.5249 56.8921 71.4809C55.4117 70.9435 54.036 70.16 52.8246 69.1645C52.7257 69.0832 52.6057 69.0307 52.4781 69.0128C52.3505 68.9949 52.2204 69.0124 52.1023 69.0632L48.5644 70.5857C48.3228 70.6893 48.0436 70.6253 47.8694 70.4261C46.3775 68.72 45.2399 66.7823 44.4882 64.6664C44.3996 64.4171 44.4825 64.146 44.6946 63.992L47.8043 61.7334C47.9078 61.6582 47.9881 61.5561 48.0361 61.4386C48.0842 61.3211 48.0981 61.1927 48.0764 61.0679C47.9436 60.3038 47.8766 59.5299 47.8762 58.7547C47.8762 57.9868 47.9435 57.2099 48.0764 56.4457C48.0981 56.3208 48.0842 56.1924 48.0361 56.0749C47.9881 55.9574 47.9078 55.8553 47.8043 55.7801L44.6945 53.5215C44.4825 53.3676 44.3995 53.0965 44.488 52.847C45.2411 50.728 46.381 48.7898 47.8762 47.0865C48.0507 46.8877 48.3299 46.8235 48.571 46.9277L52.1018 48.4501C52.2201 48.5012 52.3505 48.5188 52.4784 48.5008C52.6063 48.4828 52.7266 48.43 52.8256 48.3482C54.034 47.3504 55.4094 46.567 56.8903 46.033C57.0115 45.9893 57.1179 45.9132 57.1976 45.8132C57.2773 45.7132 57.3271 45.5934 57.3415 45.467L57.7702 41.6948C57.7995 41.4368 57.9952 41.2307 58.2573 41.1819C60.4719 40.769 62.8043 40.7698 65.0175 41.182C65.2796 41.2307 65.4754 41.437 65.5048 41.695L65.9334 45.467C65.9477 45.5933 65.9976 45.7132 66.0773 45.8132C66.157 45.9132 66.2634 45.9893 66.3846 46.033C67.8588 46.5645 69.225 47.3434 70.4454 48.3484C70.5444 48.4298 70.6645 48.4825 70.7922 48.5005C70.9199 48.5185 71.0502 48.5012 71.1685 48.4504L74.7065 46.9279C74.9476 46.8235 75.2272 46.8881 75.4014 47.0873C76.8968 48.7967 78.0346 50.7358 78.7835 52.8503C78.8719 53.0998 78.7886 53.3707 78.5765 53.5245L75.467 55.7797C75.3634 55.8549 75.283 55.957 75.2348 56.0745C75.1867 56.1921 75.1727 56.3205 75.1943 56.4454C75.3301 57.2262 75.3988 58.003 75.3988 58.7546C75.3988 59.5087 75.3301 60.2869 75.1943 61.0679C75.1726 61.1928 75.1866 61.3212 75.2348 61.4388C75.2829 61.5563 75.3633 61.6584 75.467 61.7336L78.5762 63.9882C78.7885 64.1425 78.8715 64.4135 78.7831 64.6632Z" fill="#0000CB"></path><path d="M61.6338 51.2494C61.6336 51.2494 61.6336 51.2494 61.6338 51.2494H61.6336C57.4308 51.2495 54.0117 54.6166 54.0117 58.7555C54.0117 62.8966 57.431 66.2656 61.6338 66.2656C65.8366 66.2656 69.2558 62.8966 69.2558 58.7555C69.2558 54.6166 65.8366 51.2494 61.6338 51.2494ZM60.9395 52.6555V57.5592C60.9393 57.6955 60.8842 57.8262 60.7864 57.9225C60.6885 58.0189 60.5559 58.0731 60.4175 58.0733H55.4393C55.7599 55.233 58.0554 52.9719 60.9395 52.6555ZM61.6338 64.8984C58.4315 64.8984 55.7867 62.5063 55.4397 59.4405H60.4176C61.4709 59.4405 62.3279 58.5965 62.3279 57.5592V52.6555C65.4396 52.9967 67.8676 55.6017 67.8676 58.7555C67.8675 62.1427 65.071 64.8984 61.6338 64.8984Z" fill="#0000CB"></path><path d="M35.0986 63.0181L33.9938 61.9301C34.4547 61.0637 34.316 59.9663 33.5776 59.2391C32.6683 58.3437 31.1889 58.3437 30.2796 59.2391C29.3704 60.1345 29.3704 61.5916 30.2796 62.487C30.496 62.7003 30.7531 62.8695 31.036 62.9847C31.319 63.1 31.6223 63.159 31.9286 63.1585C32.3059 63.1588 32.6777 63.069 33.0121 62.8969L34.117 63.9849C34.2526 64.1183 34.4302 64.185 34.6079 64.185C34.7856 64.185 34.9631 64.1183 35.0988 63.9849C35.2288 63.8566 35.3019 63.6827 35.3019 63.5015C35.3019 63.3202 35.2287 63.1463 35.0986 63.0181ZM31.2612 61.5202C31.0845 61.3458 30.9853 61.1095 30.9853 60.8631C30.9853 60.6167 31.0845 60.3804 31.2612 60.206C31.4452 60.0248 31.6869 59.9342 31.9286 59.9342C32.1703 59.9342 32.4118 60.0248 32.5959 60.206C32.7726 60.3804 32.8718 60.6167 32.8718 60.8631C32.8718 61.1095 32.7726 61.3458 32.5959 61.5202C32.4188 61.6943 32.1788 61.7921 31.9286 61.7921C31.6783 61.7921 31.4383 61.6943 31.2612 61.5202ZM30.372 68.3908C30.372 68.5721 30.4451 68.7459 30.5753 68.8741C30.7055 69.0023 30.8821 69.0744 31.0662 69.0744H33.8332C34.0173 69.0744 34.1938 69.0023 34.324 68.8741C34.4542 68.7459 34.5273 68.5721 34.5273 68.3908C34.5273 68.2095 34.4542 68.0356 34.324 67.9074C34.1938 67.7792 34.0173 67.7072 33.8332 67.7072H31.0662C30.8821 67.7072 30.7055 67.7792 30.5753 67.9074C30.4451 68.0356 30.372 68.2095 30.372 68.3908Z" fill="white"></path><path d="M72.7105 39.1566C72.5264 39.1566 72.3498 39.0845 72.2196 38.9564C72.0894 38.8282 72.0163 38.6543 72.0163 38.473C72.0163 38.0584 71.6737 37.721 71.2527 37.721C70.8693 37.721 70.5586 37.415 70.5586 37.0374C70.5586 36.6598 70.8693 36.3538 71.2527 36.3538C71.6737 36.3538 72.0163 36.0164 72.0163 35.6019C72.0163 35.2243 72.327 34.9183 72.7105 34.9183C73.0939 34.9183 73.4046 35.2243 73.4046 35.6019C73.4046 36.0164 73.7472 36.3538 74.1682 36.3538C74.5516 36.3538 74.8623 36.6598 74.8623 37.0374C74.8623 37.415 74.5516 37.721 74.1682 37.721C73.9657 37.7213 73.7717 37.8006 73.6285 37.9415C73.4854 38.0825 73.4049 38.2736 73.4046 38.473C73.4046 38.6543 73.3315 38.8282 73.2013 38.9564C73.0711 39.0845 72.8946 39.1566 72.7105 39.1566Z" fill="#FF6C6C"></path><path d="M20.3159 71.0134C20.1318 71.0134 19.9553 70.9414 19.8251 70.8132C19.6949 70.685 19.6218 70.5111 19.6218 70.3298C19.6218 69.9153 19.2793 69.5779 18.8582 69.5779C18.6741 69.5779 18.4976 69.5058 18.3674 69.3776C18.2372 69.2494 18.1641 69.0756 18.1641 68.8943C18.1641 68.713 18.2372 68.5391 18.3674 68.4109C18.4976 68.2827 18.6741 68.2107 18.8582 68.2107C19.2793 68.2107 19.6218 67.8733 19.6218 67.4587C19.6218 67.2774 19.6949 67.1036 19.8251 66.9754C19.9553 66.8472 20.1318 66.7751 20.3159 66.7751C20.5 66.7751 20.6766 66.8472 20.8068 66.9754C20.9369 67.1036 21.0101 67.2774 21.0101 67.4587C21.0101 67.8733 21.3526 68.2107 21.7736 68.2107C21.9577 68.2107 22.1343 68.2827 22.2645 68.4109C22.3947 68.5391 22.4678 68.713 22.4678 68.8943C22.4678 69.0756 22.3947 69.2494 22.2645 69.3776C22.1343 69.5058 21.9577 69.5779 21.7736 69.5779C21.5712 69.5781 21.3771 69.6574 21.234 69.7983C21.0908 69.9393 21.0103 70.1305 21.0101 70.3298C21.0101 70.5111 20.9369 70.685 20.8068 70.8132C20.6766 70.9414 20.5 71.0134 20.3159 71.0134Z" fill="#6C6CFF"></path><path d="M42.0933 78.8149C41.9092 78.8149 41.7326 78.7429 41.6024 78.6147C41.4723 78.4865 41.3991 78.3126 41.3991 78.1313C41.3991 77.7168 41.0566 77.3794 40.6356 77.3794C40.4515 77.3794 40.2749 77.3074 40.1447 77.1792C40.0145 77.051 39.9414 76.8771 39.9414 76.6958C39.9414 76.5145 40.0145 76.3406 40.1447 76.2124C40.2749 76.0842 40.4515 76.0122 40.6356 76.0122C41.0566 76.0122 41.3991 75.6748 41.3991 75.2602C41.3991 75.0789 41.4723 74.9051 41.6024 74.7769C41.7326 74.6487 41.9092 74.5766 42.0933 74.5766C42.2774 74.5766 42.4539 74.6487 42.5841 74.7769C42.7143 74.9051 42.7874 75.0789 42.7874 75.2602C42.7874 75.6748 43.1299 76.0122 43.551 76.0122C43.7351 76.0122 43.9116 76.0842 44.0418 76.2124C44.172 76.3406 44.2451 76.5145 44.2451 76.6958C44.2451 76.8771 44.172 77.051 44.0418 77.1792C43.9116 77.3074 43.7351 77.3794 43.551 77.3794C43.3485 77.3796 43.1545 77.4589 43.0113 77.5999C42.8682 77.7408 42.7876 77.932 42.7874 78.1313C42.7874 78.3126 42.7143 78.4865 42.5841 78.6147C42.4539 78.7429 42.2774 78.8149 42.0933 78.8149Z" fill="#FF9C33"></path><path d="M67.2768 32.9054C67.1857 32.9055 67.0954 32.8879 67.0111 32.8535C66.9269 32.8192 66.8504 32.7687 66.7861 32.7051L65.3284 31.2696C65.2639 31.2061 65.2127 31.1308 65.1778 31.0478C65.143 30.9649 65.125 30.876 65.125 30.7863C65.125 30.6965 65.143 30.6076 65.1778 30.5247C65.2127 30.4418 65.2639 30.3664 65.3284 30.303L66.7861 28.8674C66.8505 28.8039 66.927 28.7536 67.0112 28.7192C67.0954 28.6848 67.1857 28.6672 67.2768 28.6672C67.368 28.6672 67.4582 28.6848 67.5424 28.7192C67.6267 28.7536 67.7032 28.8039 67.7676 28.8674L69.2253 30.303C69.2898 30.3664 69.3409 30.4418 69.3758 30.5247C69.4107 30.6076 69.4287 30.6965 69.4287 30.7863C69.4287 30.876 69.4107 30.9649 69.3758 31.0478C69.3409 31.1308 69.2898 31.2061 69.2253 31.2696L67.7676 32.7051C67.7032 32.7687 67.6267 32.8191 67.5425 32.8535C67.4583 32.8879 67.368 32.9055 67.2768 32.9054ZM66.8008 30.7863L67.2768 31.2551L67.7529 30.7863L67.2768 30.3175L66.8008 30.7863Z" fill="#6C6CFF"></path><path d="M72.7104 79.8806C72.6193 79.8807 72.529 79.8631 72.4447 79.8287C72.3605 79.7943 72.284 79.7439 72.2197 79.6803L70.7619 78.2448C70.6975 78.1813 70.6463 78.106 70.6114 78.023C70.5766 77.9401 70.5586 77.8512 70.5586 77.7615C70.5586 77.6717 70.5766 77.5828 70.6114 77.4999C70.6463 77.417 70.6975 77.3416 70.7619 77.2782L72.2197 75.8426C72.2841 75.7791 72.3606 75.7288 72.4448 75.6944C72.529 75.66 72.6193 75.6423 72.7104 75.6423C72.8016 75.6423 72.8918 75.66 72.976 75.6944C73.0602 75.7288 73.1368 75.7791 73.2012 75.8426L74.6589 77.2782C74.7234 77.3416 74.7745 77.417 74.8094 77.4999C74.8443 77.5828 74.8623 77.6717 74.8623 77.7615C74.8623 77.8512 74.8443 77.9401 74.8094 78.023C74.7745 78.106 74.7234 78.1813 74.6589 78.2448L73.2012 79.6803C73.1368 79.7439 73.0603 79.7943 72.9761 79.8287C72.8919 79.8631 72.8016 79.8807 72.7104 79.8806ZM72.2344 77.7615L72.7104 78.2303L73.1865 77.7615L72.7104 77.2926L72.2344 77.7615Z" fill="#FF6C6C"></path><defs><linearGradient id="paint0_linear_271_4030" x1="19.845" y1="68.2505" x2="73.1202" y2="14.1526" gradientUnits="userSpaceOnUse"><stop stop-color="#FFD8D8" stop-opacity="0"></stop><stop offset="0.998" stop-color="#FFB2B2"></stop></linearGradient></defs></svg>